<?xml version="1.0" encoding="utf-8" standalone="no"?>
<!DOCTYPE svg PUBLIC "-//W3C//DTD SVG 1.1//EN"
  "http://www.w3.org/Graphics/SVG/1.1/DTD/svg11.dtd">
<svg xmlns:xlink="http://www.w3.org/1999/xlink" width="421.502812pt" height="340.145625pt" viewBox="0 0 421.502812 340.145625" xmlns="http://www.w3.org/2000/svg" version="1.1">
 <metadata>
  <rdf:RDF xmlns:dc="http://purl.org/dc/elements/1.1/" xmlns:cc="http://creativecommons.org/ns#" xmlns:rdf="http://www.w3.org/1999/02/22-rdf-syntax-ns#">
   <cc:Work>
    <dc:type rdf:resource="http://purl.org/dc/dcmitype/StillImage"/>
    <dc:date>2026-01-28T23:16:35.632146</dc:date>
    <dc:format>image/svg+xml</dc:format>
    <dc:creator>
     <cc:Agent>
      <dc:title>Matplotlib v3.10.6, https://matplotlib.org/</dc:title>
     </cc:Agent>
    </dc:creator>
   </cc:Work>
  </rdf:RDF>
 </metadata>
 <defs>
  <style type="text/css">*{stroke-linejoin: round; stroke-linecap: butt}</style>
 </defs>
 <g id="figure_1">
  <g id="patch_1">
   <path d="M 0 340.145625 
L 421.502812 340.145625 
L 421.502812 0 
L 0 0 
z
" style="fill: #ffffff"/>
  </g>
  <g id="axes_1">
   <g id="patch_2">
    <path d="M 57.182813 301.8675 
L 414.302813 301.8675 
L 414.302813 35.7555 
L 57.182813 35.7555 
z
" style="fill: #ffffff"/>
   </g>
   <g id="matplotlib.axis_1">
    <g id="xtick_1">
     <g id="line2d_1">
      <path d="M 73.253131 301.8675 
L 73.253131 35.7555 
" clip-path="url(#p80bd669ad0)" style="fill: none; stroke: #808080; stroke-width: 0.3; stroke-linecap: square"/>
     </g>
     <g id="line2d_2">
      <defs>
       <path id="mb8975a1007" d="M 0 0 
L 0 3.5 
" style="stroke: #000000; stroke-width: 0.8"/>
      </defs>
      <g>
       <use xlink:href="#mb8975a1007" x="73.253131" y="301.8675" style="stroke: #000000; stroke-width: 0.8"/>
      </g>
     </g>
     <g id="text_1">
      <!-- 0 -->
      <g transform="translate(70.071881 316.465937) scale(0.1 -0.1)">
       <defs>
        <path id="DejaVuSans-30" d="M 2034 4250 
Q 1547 4250 1301 3770 
Q 1056 3291 1056 2328 
Q 1056 1369 1301 889 
Q 1547 409 2034 409 
Q 2525 409 2770 889 
Q 3016 1369 3016 2328 
Q 3016 3291 2770 3770 
Q 2525 4250 2034 4250 
z
M 2034 4750 
Q 2819 4750 3233 4129 
Q 3647 3509 3647 2328 
Q 3647 1150 3233 529 
Q 2819 -91 2034 -91 
Q 1250 -91 836 529 
Q 422 1150 422 2328 
Q 422 3509 836 4129 
Q 1250 4750 2034 4750 
z
" transform="scale(0.015625)"/>
       </defs>
       <use xlink:href="#DejaVuSans-30"/>
      </g>
     </g>
    </g>
    <g id="xtick_2">
     <g id="line2d_3">
      <path d="M 113.855251 301.8675 
L 113.855251 35.7555 
" clip-path="url(#p80bd669ad0)" style="fill: none; stroke: #808080; stroke-width: 0.3; stroke-linecap: square"/>
     </g>
     <g id="line2d_4">
      <g>
       <use xlink:href="#mb8975a1007" x="113.855251" y="301.8675" style="stroke: #000000; stroke-width: 0.8"/>
      </g>
     </g>
     <g id="text_2">
      <!-- 250 -->
      <g transform="translate(104.311501 316.465937) scale(0.1 -0.1)">
       <defs>
        <path id="DejaVuSans-32" d="M 1228 531 
L 3431 531 
L 3431 0 
L 469 0 
L 469 531 
Q 828 903 1448 1529 
Q 2069 2156 2228 2338 
Q 2531 2678 2651 2914 
Q 2772 3150 2772 3378 
Q 2772 3750 2511 3984 
Q 2250 4219 1831 4219 
Q 1534 4219 1204 4116 
Q 875 4013 500 3803 
L 500 4441 
Q 881 4594 1212 4672 
Q 1544 4750 1819 4750 
Q 2544 4750 2975 4387 
Q 3406 4025 3406 3419 
Q 3406 3131 3298 2873 
Q 3191 2616 2906 2266 
Q 2828 2175 2409 1742 
Q 1991 1309 1228 531 
z
" transform="scale(0.015625)"/>
        <path id="DejaVuSans-35" d="M 691 4666 
L 3169 4666 
L 3169 4134 
L 1269 4134 
L 1269 2991 
Q 1406 3038 1543 3061 
Q 1681 3084 1819 3084 
Q 2600 3084 3056 2656 
Q 3513 2228 3513 1497 
Q 3513 744 3044 326 
Q 2575 -91 1722 -91 
Q 1428 -91 1123 -41 
Q 819 9 494 109 
L 494 744 
Q 775 591 1075 516 
Q 1375 441 1709 441 
Q 2250 441 2565 725 
Q 2881 1009 2881 1497 
Q 2881 1984 2565 2268 
Q 2250 2553 1709 2553 
Q 1456 2553 1204 2497 
Q 953 2441 691 2322 
L 691 4666 
z
" transform="scale(0.015625)"/>
       </defs>
       <use xlink:href="#DejaVuSans-32"/>
       <use xlink:href="#DejaVuSans-35" transform="translate(63.623047 0)"/>
       <use xlink:href="#DejaVuSans-30" transform="translate(127.246094 0)"/>
      </g>
     </g>
    </g>
    <g id="xtick_3">
     <g id="line2d_5">
      <path d="M 154.45737 301.8675 
L 154.45737 35.7555 
" clip-path="url(#p80bd669ad0)" style="fill: none; stroke: #808080; stroke-width: 0.3; stroke-linecap: square"/>
     </g>
     <g id="line2d_6">
      <g>
       <use xlink:href="#mb8975a1007" x="154.45737" y="301.8675" style="stroke: #000000; stroke-width: 0.8"/>
      </g>
     </g>
     <g id="text_3">
      <!-- 500 -->
      <g transform="translate(144.91362 316.465937) scale(0.1 -0.1)">
       <use xlink:href="#DejaVuSans-35"/>
       <use xlink:href="#DejaVuSans-30" transform="translate(63.623047 0)"/>
       <use xlink:href="#DejaVuSans-30" transform="translate(127.246094 0)"/>
      </g>
     </g>
    </g>
    <g id="xtick_4">
     <g id="line2d_7">
      <path d="M 195.059489 301.8675 
L 195.059489 35.7555 
" clip-path="url(#p80bd669ad0)" style="fill: none; stroke: #808080; stroke-width: 0.3; stroke-linecap: square"/>
     </g>
     <g id="line2d_8">
      <g>
       <use xlink:href="#mb8975a1007" x="195.059489" y="301.8675" style="stroke: #000000; stroke-width: 0.8"/>
      </g>
     </g>
     <g id="text_4">
      <!-- 750 -->
      <g transform="translate(185.515739 316.465937) scale(0.1 -0.1)">
       <defs>
        <path id="DejaVuSans-37" d="M 525 4666 
L 3525 4666 
L 3525 4397 
L 1831 0 
L 1172 0 
L 2766 4134 
L 525 4134 
L 525 4666 
z
" transform="scale(0.015625)"/>
       </defs>
       <use xlink:href="#DejaVuSans-37"/>
       <use xlink:href="#DejaVuSans-35" transform="translate(63.623047 0)"/>
       <use xlink:href="#DejaVuSans-30" transform="translate(127.246094 0)"/>
      </g>
     </g>
    </g>
    <g id="xtick_5">
     <g id="line2d_9">
      <path d="M 235.661608 301.8675 
L 235.661608 35.7555 
" clip-path="url(#p80bd669ad0)" style="fill: none; stroke: #808080; stroke-width: 0.3; stroke-linecap: square"/>
     </g>
     <g id="line2d_10">
      <g>
       <use xlink:href="#mb8975a1007" x="235.661608" y="301.8675" style="stroke: #000000; stroke-width: 0.8"/>
      </g>
     </g>
     <g id="text_5">
      <!-- 1000 -->
      <g transform="translate(222.936608 316.465937) scale(0.1 -0.1)">
       <defs>
        <path id="DejaVuSans-31" d="M 794 531 
L 1825 531 
L 1825 4091 
L 703 3866 
L 703 4441 
L 1819 4666 
L 2450 4666 
L 2450 531 
L 3481 531 
L 3481 0 
L 794 0 
L 794 531 
z
" transform="scale(0.015625)"/>
       </defs>
       <use xlink:href="#DejaVuSans-31"/>
       <use xlink:href="#DejaVuSans-30" transform="translate(63.623047 0)"/>
       <use xlink:href="#DejaVuSans-30" transform="translate(127.246094 0)"/>
       <use xlink:href="#DejaVuSans-30" transform="translate(190.869141 0)"/>
      </g>
     </g>
    </g>
    <g id="xtick_6">
     <g id="line2d_11">
      <path d="M 276.263728 301.8675 
L 276.263728 35.7555 
" clip-path="url(#p80bd669ad0)" style="fill: none; stroke: #808080; stroke-width: 0.3; stroke-linecap: square"/>
     </g>
     <g id="line2d_12">
      <g>
       <use xlink:href="#mb8975a1007" x="276.263728" y="301.8675" style="stroke: #000000; stroke-width: 0.8"/>
      </g>
     </g>
     <g id="text_6">
      <!-- 1250 -->
      <g transform="translate(263.538728 316.465937) scale(0.1 -0.1)">
       <use xlink:href="#DejaVuSans-31"/>
       <use xlink:href="#DejaVuSans-32" transform="translate(63.623047 0)"/>
       <use xlink:href="#DejaVuSans-35" transform="translate(127.246094 0)"/>
       <use xlink:href="#DejaVuSans-30" transform="translate(190.869141 0)"/>
      </g>
     </g>
    </g>
    <g id="xtick_7">
     <g id="line2d_13">
      <path d="M 316.865847 301.8675 
L 316.865847 35.7555 
" clip-path="url(#p80bd669ad0)" style="fill: none; stroke: #808080; stroke-width: 0.3; stroke-linecap: square"/>
     </g>
     <g id="line2d_14">
      <g>
       <use xlink:href="#mb8975a1007" x="316.865847" y="301.8675" style="stroke: #000000; stroke-width: 0.8"/>
      </g>
     </g>
     <g id="text_7">
      <!-- 1500 -->
      <g transform="translate(304.140847 316.465937) scale(0.1 -0.1)">
       <use xlink:href="#DejaVuSans-31"/>
       <use xlink:href="#DejaVuSans-35" transform="translate(63.623047 0)"/>
       <use xlink:href="#DejaVuSans-30" transform="translate(127.246094 0)"/>
       <use xlink:href="#DejaVuSans-30" transform="translate(190.869141 0)"/>
      </g>
     </g>
    </g>
    <g id="xtick_8">
     <g id="line2d_15">
      <path d="M 357.467966 301.8675 
L 357.467966 35.7555 
" clip-path="url(#p80bd669ad0)" style="fill: none; stroke: #808080; stroke-width: 0.3; stroke-linecap: square"/>
     </g>
     <g id="line2d_16">
      <g>
       <use xlink:href="#mb8975a1007" x="357.467966" y="301.8675" style="stroke: #000000; stroke-width: 0.8"/>
      </g>
     </g>
     <g id="text_8">
      <!-- 1750 -->
      <g transform="translate(344.742966 316.465937) scale(0.1 -0.1)">
       <use xlink:href="#DejaVuSans-31"/>
       <use xlink:href="#DejaVuSans-37" transform="translate(63.623047 0)"/>
       <use xlink:href="#DejaVuSans-35" transform="translate(127.246094 0)"/>
       <use xlink:href="#DejaVuSans-30" transform="translate(190.869141 0)"/>
      </g>
     </g>
    </g>
    <g id="xtick_9">
     <g id="line2d_17">
      <path d="M 398.070085 301.8675 
L 398.070085 35.7555 
" clip-path="url(#p80bd669ad0)" style="fill: none; stroke: #808080; stroke-width: 0.3; stroke-linecap: square"/>
     </g>
     <g id="line2d_18">
      <g>
       <use xlink:href="#mb8975a1007" x="398.070085" y="301.8675" style="stroke: #000000; stroke-width: 0.8"/>
      </g>
     </g>
     <g id="text_9">
      <!-- 2000 -->
      <g transform="translate(385.345085 316.465937) scale(0.1 -0.1)">
       <use xlink:href="#DejaVuSans-32"/>
       <use xlink:href="#DejaVuSans-30" transform="translate(63.623047 0)"/>
       <use xlink:href="#DejaVuSans-30" transform="translate(127.246094 0)"/>
       <use xlink:href="#DejaVuSans-30" transform="translate(190.869141 0)"/>
      </g>
     </g>
    </g>
    <g id="text_10">
     <!-- Wavenumber (cm$^{-1}$) -->
     <g transform="translate(183.692813 330.865937) scale(0.1 -0.1)">
      <defs>
       <path id="DejaVuSans-57" d="M 213 4666 
L 850 4666 
L 1831 722 
L 2809 4666 
L 3519 4666 
L 4500 722 
L 5478 4666 
L 6119 4666 
L 4947 0 
L 4153 0 
L 3169 4050 
L 2175 0 
L 1381 0 
L 213 4666 
z
" transform="scale(0.015625)"/>
       <path id="DejaVuSans-61" d="M 2194 1759 
Q 1497 1759 1228 1600 
Q 959 1441 959 1056 
Q 959 750 1161 570 
Q 1363 391 1709 391 
Q 2188 391 2477 730 
Q 2766 1069 2766 1631 
L 2766 1759 
L 2194 1759 
z
M 3341 1997 
L 3341 0 
L 2766 0 
L 2766 531 
Q 2569 213 2275 61 
Q 1981 -91 1556 -91 
Q 1019 -91 701 211 
Q 384 513 384 1019 
Q 384 1609 779 1909 
Q 1175 2209 1959 2209 
L 2766 2209 
L 2766 2266 
Q 2766 2663 2505 2880 
Q 2244 3097 1772 3097 
Q 1472 3097 1187 3025 
Q 903 2953 641 2809 
L 641 3341 
Q 956 3463 1253 3523 
Q 1550 3584 1831 3584 
Q 2591 3584 2966 3190 
Q 3341 2797 3341 1997 
z
" transform="scale(0.015625)"/>
       <path id="DejaVuSans-76" d="M 191 3500 
L 800 3500 
L 1894 563 
L 2988 3500 
L 3597 3500 
L 2284 0 
L 1503 0 
L 191 3500 
z
" transform="scale(0.015625)"/>
       <path id="DejaVuSans-65" d="M 3597 1894 
L 3597 1613 
L 953 1613 
Q 991 1019 1311 708 
Q 1631 397 2203 397 
Q 2534 397 2845 478 
Q 3156 559 3463 722 
L 3463 178 
Q 3153 47 2828 -22 
Q 2503 -91 2169 -91 
Q 1331 -91 842 396 
Q 353 884 353 1716 
Q 353 2575 817 3079 
Q 1281 3584 2069 3584 
Q 2775 3584 3186 3129 
Q 3597 2675 3597 1894 
z
M 3022 2063 
Q 3016 2534 2758 2815 
Q 2500 3097 2075 3097 
Q 1594 3097 1305 2825 
Q 1016 2553 972 2059 
L 3022 2063 
z
" transform="scale(0.015625)"/>
       <path id="DejaVuSans-6e" d="M 3513 2113 
L 3513 0 
L 2938 0 
L 2938 2094 
Q 2938 2591 2744 2837 
Q 2550 3084 2163 3084 
Q 1697 3084 1428 2787 
Q 1159 2491 1159 1978 
L 1159 0 
L 581 0 
L 581 3500 
L 1159 3500 
L 1159 2956 
Q 1366 3272 1645 3428 
Q 1925 3584 2291 3584 
Q 2894 3584 3203 3211 
Q 3513 2838 3513 2113 
z
" transform="scale(0.015625)"/>
       <path id="DejaVuSans-75" d="M 544 1381 
L 544 3500 
L 1119 3500 
L 1119 1403 
Q 1119 906 1312 657 
Q 1506 409 1894 409 
Q 2359 409 2629 706 
Q 2900 1003 2900 1516 
L 2900 3500 
L 3475 3500 
L 3475 0 
L 2900 0 
L 2900 538 
Q 2691 219 2414 64 
Q 2138 -91 1772 -91 
Q 1169 -91 856 284 
Q 544 659 544 1381 
z
M 1991 3584 
L 1991 3584 
z
" transform="scale(0.015625)"/>
       <path id="DejaVuSans-6d" d="M 3328 2828 
Q 3544 3216 3844 3400 
Q 4144 3584 4550 3584 
Q 5097 3584 5394 3201 
Q 5691 2819 5691 2113 
L 5691 0 
L 5113 0 
L 5113 2094 
Q 5113 2597 4934 2840 
Q 4756 3084 4391 3084 
Q 3944 3084 3684 2787 
Q 3425 2491 3425 1978 
L 3425 0 
L 2847 0 
L 2847 2094 
Q 2847 2600 2669 2842 
Q 2491 3084 2119 3084 
Q 1678 3084 1418 2786 
Q 1159 2488 1159 1978 
L 1159 0 
L 581 0 
L 581 3500 
L 1159 3500 
L 1159 2956 
Q 1356 3278 1631 3431 
Q 1906 3584 2284 3584 
Q 2666 3584 2933 3390 
Q 3200 3197 3328 2828 
z
" transform="scale(0.015625)"/>
       <path id="DejaVuSans-62" d="M 3116 1747 
Q 3116 2381 2855 2742 
Q 2594 3103 2138 3103 
Q 1681 3103 1420 2742 
Q 1159 2381 1159 1747 
Q 1159 1113 1420 752 
Q 1681 391 2138 391 
Q 2594 391 2855 752 
Q 3116 1113 3116 1747 
z
M 1159 2969 
Q 1341 3281 1617 3432 
Q 1894 3584 2278 3584 
Q 2916 3584 3314 3078 
Q 3713 2572 3713 1747 
Q 3713 922 3314 415 
Q 2916 -91 2278 -91 
Q 1894 -91 1617 61 
Q 1341 213 1159 525 
L 1159 0 
L 581 0 
L 581 4863 
L 1159 4863 
L 1159 2969 
z
" transform="scale(0.015625)"/>
       <path id="DejaVuSans-72" d="M 2631 2963 
Q 2534 3019 2420 3045 
Q 2306 3072 2169 3072 
Q 1681 3072 1420 2755 
Q 1159 2438 1159 1844 
L 1159 0 
L 581 0 
L 581 3500 
L 1159 3500 
L 1159 2956 
Q 1341 3275 1631 3429 
Q 1922 3584 2338 3584 
Q 2397 3584 2469 3576 
Q 2541 3569 2628 3553 
L 2631 2963 
z
" transform="scale(0.015625)"/>
       <path id="DejaVuSans-20" transform="scale(0.015625)"/>
       <path id="DejaVuSans-28" d="M 1984 4856 
Q 1566 4138 1362 3434 
Q 1159 2731 1159 2009 
Q 1159 1288 1364 580 
Q 1569 -128 1984 -844 
L 1484 -844 
Q 1016 -109 783 600 
Q 550 1309 550 2009 
Q 550 2706 781 3412 
Q 1013 4119 1484 4856 
L 1984 4856 
z
" transform="scale(0.015625)"/>
       <path id="DejaVuSans-63" d="M 3122 3366 
L 3122 2828 
Q 2878 2963 2633 3030 
Q 2388 3097 2138 3097 
Q 1578 3097 1268 2742 
Q 959 2388 959 1747 
Q 959 1106 1268 751 
Q 1578 397 2138 397 
Q 2388 397 2633 464 
Q 2878 531 3122 666 
L 3122 134 
Q 2881 22 2623 -34 
Q 2366 -91 2075 -91 
Q 1284 -91 818 406 
Q 353 903 353 1747 
Q 353 2603 823 3093 
Q 1294 3584 2113 3584 
Q 2378 3584 2631 3529 
Q 2884 3475 3122 3366 
z
" transform="scale(0.015625)"/>
       <path id="DejaVuSans-2212" d="M 678 2272 
L 4684 2272 
L 4684 1741 
L 678 1741 
L 678 2272 
z
" transform="scale(0.015625)"/>
       <path id="DejaVuSans-29" d="M 513 4856 
L 1013 4856 
Q 1481 4119 1714 3412 
Q 1947 2706 1947 2009 
Q 1947 1309 1714 600 
Q 1481 -109 1013 -844 
L 513 -844 
Q 928 -128 1133 580 
Q 1338 1288 1338 2009 
Q 1338 2731 1133 3434 
Q 928 4138 513 4856 
z
" transform="scale(0.015625)"/>
      </defs>
      <use xlink:href="#DejaVuSans-57" transform="translate(0 0.684375)"/>
      <use xlink:href="#DejaVuSans-61" transform="translate(98.876953 0.684375)"/>
      <use xlink:href="#DejaVuSans-76" transform="translate(160.15625 0.684375)"/>
      <use xlink:href="#DejaVuSans-65" transform="translate(219.335938 0.684375)"/>
      <use xlink:href="#DejaVuSans-6e" transform="translate(280.859375 0.684375)"/>
      <use xlink:href="#DejaVuSans-75" transform="translate(344.238281 0.684375)"/>
      <use xlink:href="#DejaVuSans-6d" transform="translate(407.617188 0.684375)"/>
      <use xlink:href="#DejaVuSans-62" transform="translate(505.029297 0.684375)"/>
      <use xlink:href="#DejaVuSans-65" transform="translate(568.505859 0.684375)"/>
      <use xlink:href="#DejaVuSans-72" transform="translate(630.029297 0.684375)"/>
      <use xlink:href="#DejaVuSans-20" transform="translate(671.142578 0.684375)"/>
      <use xlink:href="#DejaVuSans-28" transform="translate(702.929688 0.684375)"/>
      <use xlink:href="#DejaVuSans-63" transform="translate(741.943359 0.684375)"/>
      <use xlink:href="#DejaVuSans-6d" transform="translate(796.923828 0.684375)"/>
      <use xlink:href="#DejaVuSans-2212" transform="translate(895.292969 38.965625) scale(0.7)"/>
      <use xlink:href="#DejaVuSans-31" transform="translate(953.945312 38.965625) scale(0.7)"/>
      <use xlink:href="#DejaVuSans-29" transform="translate(1001.21582 0.684375)"/>
     </g>
    </g>
   </g>
   <g id="matplotlib.axis_2">
    <g id="ytick_1">
     <g id="line2d_19">
      <path d="M 57.182813 281.657997 
L 414.302813 281.657997 
" clip-path="url(#p80bd669ad0)" style="fill: none; stroke: #808080; stroke-width: 0.3; stroke-linecap: square"/>
     </g>
     <g id="line2d_20">
      <defs>
       <path id="m7b3336f3d9" d="M 0 0 
L -3.5 0 
" style="stroke: #000000; stroke-width: 0.8"/>
      </defs>
      <g>
       <use xlink:href="#m7b3336f3d9" x="57.182813" y="281.657997" style="stroke: #000000; stroke-width: 0.8"/>
      </g>
     </g>
     <g id="text_11">
      <!-- −7.5 -->
      <g transform="translate(25.9 285.457215) scale(0.1 -0.1)">
       <defs>
        <path id="DejaVuSans-2e" d="M 684 794 
L 1344 794 
L 1344 0 
L 684 0 
L 684 794 
z
" transform="scale(0.015625)"/>
       </defs>
       <use xlink:href="#DejaVuSans-2212"/>
       <use xlink:href="#DejaVuSans-37" transform="translate(83.789062 0)"/>
       <use xlink:href="#DejaVuSans-2e" transform="translate(147.412109 0)"/>
       <use xlink:href="#DejaVuSans-35" transform="translate(179.199219 0)"/>
      </g>
     </g>
    </g>
    <g id="ytick_2">
     <g id="line2d_21">
      <path d="M 57.182813 244.998694 
L 414.302813 244.998694 
" clip-path="url(#p80bd669ad0)" style="fill: none; stroke: #808080; stroke-width: 0.3; stroke-linecap: square"/>
     </g>
     <g id="line2d_22">
      <g>
       <use xlink:href="#m7b3336f3d9" x="57.182813" y="244.998694" style="stroke: #000000; stroke-width: 0.8"/>
      </g>
     </g>
     <g id="text_12">
      <!-- −5.0 -->
      <g transform="translate(25.9 248.797913) scale(0.1 -0.1)">
       <use xlink:href="#DejaVuSans-2212"/>
       <use xlink:href="#DejaVuSans-35" transform="translate(83.789062 0)"/>
       <use xlink:href="#DejaVuSans-2e" transform="translate(147.412109 0)"/>
       <use xlink:href="#DejaVuSans-30" transform="translate(179.199219 0)"/>
      </g>
     </g>
    </g>
    <g id="ytick_3">
     <g id="line2d_23">
      <path d="M 57.182813 208.339392 
L 414.302813 208.339392 
" clip-path="url(#p80bd669ad0)" style="fill: none; stroke: #808080; stroke-width: 0.3; stroke-linecap: square"/>
     </g>
     <g id="line2d_24">
      <g>
       <use xlink:href="#m7b3336f3d9" x="57.182813" y="208.339392" style="stroke: #000000; stroke-width: 0.8"/>
      </g>
     </g>
     <g id="text_13">
      <!-- −2.5 -->
      <g transform="translate(25.9 212.138611) scale(0.1 -0.1)">
       <use xlink:href="#DejaVuSans-2212"/>
       <use xlink:href="#DejaVuSans-32" transform="translate(83.789062 0)"/>
       <use xlink:href="#DejaVuSans-2e" transform="translate(147.412109 0)"/>
       <use xlink:href="#DejaVuSans-35" transform="translate(179.199219 0)"/>
      </g>
     </g>
    </g>
    <g id="ytick_4">
     <g id="line2d_25">
      <path d="M 57.182813 171.68009 
L 414.302813 171.68009 
" clip-path="url(#p80bd669ad0)" style="fill: none; stroke: #808080; stroke-width: 0.3; stroke-linecap: square"/>
     </g>
     <g id="line2d_26">
      <g>
       <use xlink:href="#m7b3336f3d9" x="57.182813" y="171.68009" style="stroke: #000000; stroke-width: 0.8"/>
      </g>
     </g>
     <g id="text_14">
      <!-- 0.0 -->
      <g transform="translate(34.279688 175.479309) scale(0.1 -0.1)">
       <use xlink:href="#DejaVuSans-30"/>
       <use xlink:href="#DejaVuSans-2e" transform="translate(63.623047 0)"/>
       <use xlink:href="#DejaVuSans-30" transform="translate(95.410156 0)"/>
      </g>
     </g>
    </g>
    <g id="ytick_5">
     <g id="line2d_27">
      <path d="M 57.182813 135.020788 
L 414.302813 135.020788 
" clip-path="url(#p80bd669ad0)" style="fill: none; stroke: #808080; stroke-width: 0.3; stroke-linecap: square"/>
     </g>
     <g id="line2d_28">
      <g>
       <use xlink:href="#m7b3336f3d9" x="57.182813" y="135.020788" style="stroke: #000000; stroke-width: 0.8"/>
      </g>
     </g>
     <g id="text_15">
      <!-- 2.5 -->
      <g transform="translate(34.279688 138.820007) scale(0.1 -0.1)">
       <use xlink:href="#DejaVuSans-32"/>
       <use xlink:href="#DejaVuSans-2e" transform="translate(63.623047 0)"/>
       <use xlink:href="#DejaVuSans-35" transform="translate(95.410156 0)"/>
      </g>
     </g>
    </g>
    <g id="ytick_6">
     <g id="line2d_29">
      <path d="M 57.182813 98.361486 
L 414.302813 98.361486 
" clip-path="url(#p80bd669ad0)" style="fill: none; stroke: #808080; stroke-width: 0.3; stroke-linecap: square"/>
     </g>
     <g id="line2d_30">
      <g>
       <use xlink:href="#m7b3336f3d9" x="57.182813" y="98.361486" style="stroke: #000000; stroke-width: 0.8"/>
      </g>
     </g>
     <g id="text_16">
      <!-- 5.0 -->
      <g transform="translate(34.279688 102.160705) scale(0.1 -0.1)">
       <use xlink:href="#DejaVuSans-35"/>
       <use xlink:href="#DejaVuSans-2e" transform="translate(63.623047 0)"/>
       <use xlink:href="#DejaVuSans-30" transform="translate(95.410156 0)"/>
      </g>
     </g>
    </g>
    <g id="ytick_7">
     <g id="line2d_31">
      <path d="M 57.182813 61.702184 
L 414.302813 61.702184 
" clip-path="url(#p80bd669ad0)" style="fill: none; stroke: #808080; stroke-width: 0.3; stroke-linecap: square"/>
     </g>
     <g id="line2d_32">
      <g>
       <use xlink:href="#m7b3336f3d9" x="57.182813" y="61.702184" style="stroke: #000000; stroke-width: 0.8"/>
      </g>
     </g>
     <g id="text_17">
      <!-- 7.5 -->
      <g transform="translate(34.279688 65.501403) scale(0.1 -0.1)">
       <use xlink:href="#DejaVuSans-37"/>
       <use xlink:href="#DejaVuSans-2e" transform="translate(63.623047 0)"/>
       <use xlink:href="#DejaVuSans-35" transform="translate(95.410156 0)"/>
      </g>
     </g>
    </g>
    <g id="text_18">
     <!-- $\Delta OLR_{\nu}$ $\left[ \frac{W}{m^{2}cm^{-1}sr} \right]$ -->
     <g transform="translate(16.7 208.1115) rotate(-90) scale(0.1 -0.1)">
      <defs>
       <path id="DejaVuSans-394" d="M 2188 4044 
L 906 525 
L 3472 525 
L 2188 4044 
z
M 50 0 
L 1831 4666 
L 2547 4666 
L 4325 0 
L 50 0 
z
" transform="scale(0.015625)"/>
       <path id="DejaVuSans-Oblique-4f" d="M 2919 4238 
Q 2400 4238 2003 3986 
Q 1606 3734 1313 3219 
Q 1125 2891 1026 2522 
Q 928 2153 928 1778 
Q 928 1128 1239 775 
Q 1550 422 2119 422 
Q 2631 422 3032 676 
Q 3434 931 3719 1434 
Q 3909 1772 4009 2142 
Q 4109 2513 4109 2881 
Q 4109 3528 3796 3883 
Q 3484 4238 2919 4238 
z
M 2100 -91 
Q 1241 -91 748 418 
Q 256 928 256 1813 
Q 256 2319 448 2847 
Q 641 3375 978 3788 
Q 1375 4272 1862 4511 
Q 2350 4750 2938 4750 
Q 3794 4750 4287 4245 
Q 4781 3741 4781 2869 
Q 4781 2331 4593 1812 
Q 4406 1294 4056 872 
Q 3656 384 3173 146 
Q 2691 -91 2100 -91 
z
" transform="scale(0.015625)"/>
       <path id="DejaVuSans-Oblique-4c" d="M 1075 4666 
L 1709 4666 
L 909 525 
L 3181 525 
L 3078 0 
L 172 0 
L 1075 4666 
z
" transform="scale(0.015625)"/>
       <path id="DejaVuSans-Oblique-52" d="M 1613 4147 
L 1294 2491 
L 2106 2491 
Q 2584 2491 2879 2755 
Q 3175 3019 3175 3444 
Q 3175 3784 2976 3965 
Q 2778 4147 2406 4147 
L 1613 4147 
z
M 2772 2241 
Q 2972 2194 3105 2009 
Q 3238 1825 3413 1275 
L 3809 0 
L 3144 0 
L 2778 1197 
Q 2638 1659 2453 1815 
Q 2269 1972 1888 1972 
L 1191 1972 
L 806 0 
L 172 0 
L 1081 4666 
L 2503 4666 
Q 3150 4666 3495 4373 
Q 3841 4081 3841 3531 
Q 3841 3044 3547 2687 
Q 3253 2331 2772 2241 
z
" transform="scale(0.015625)"/>
       <path id="DejaVuSans-Oblique-3bd" d="M 959 0 
L 572 3500 
L 1191 3500 
L 1522 563 
Q 1972 950 2391 1488 
Q 2706 1891 2788 2241 
Q 2825 2406 2809 2719 
Q 2794 3091 2544 3500 
L 3125 3500 
L 3125 3500 
Q 3288 3222 3353 2834 
Q 3416 2478 3369 2234 
Q 3250 1622 2719 1075 
Q 2025 363 1572 0 
L 959 0 
z
" transform="scale(0.015625)"/>
       <path id="STIXSizeTwoSym-Regular-5b" d="M 2701 -1786 
L 1216 -1786 
L 1216 10022 
L 2701 10022 
L 2701 9766 
L 1702 9766 
L 1702 -1530 
L 2701 -1530 
L 2701 -1786 
z
" transform="scale(0.015625)"/>
       <path id="DejaVuSans-Oblique-57" d="M 616 4666 
L 1228 4666 
L 1453 697 
L 3213 4666 
L 3916 4666 
L 4147 697 
L 5888 4666 
L 6528 4666 
L 4453 0 
L 3659 0 
L 3444 3891 
L 1697 0 
L 903 0 
L 616 4666 
z
" transform="scale(0.015625)"/>
       <path id="DejaVuSans-Oblique-6d" d="M 5747 2113 
L 5338 0 
L 4763 0 
L 5166 2094 
Q 5191 2228 5203 2325 
Q 5216 2422 5216 2491 
Q 5216 2772 5059 2928 
Q 4903 3084 4622 3084 
Q 4203 3084 3875 2770 
Q 3547 2456 3450 1953 
L 3066 0 
L 2491 0 
L 2900 2094 
Q 2925 2209 2937 2307 
Q 2950 2406 2950 2484 
Q 2950 2769 2794 2926 
Q 2638 3084 2363 3084 
Q 1938 3084 1609 2770 
Q 1281 2456 1184 1953 
L 800 0 
L 225 0 
L 909 3500 
L 1484 3500 
L 1375 2956 
Q 1609 3263 1923 3423 
Q 2238 3584 2597 3584 
Q 2978 3584 3223 3384 
Q 3469 3184 3519 2828 
Q 3781 3197 4126 3390 
Q 4472 3584 4856 3584 
Q 5306 3584 5551 3325 
Q 5797 3066 5797 2591 
Q 5797 2488 5784 2364 
Q 5772 2241 5747 2113 
z
" transform="scale(0.015625)"/>
       <path id="DejaVuSans-Oblique-63" d="M 3431 3366 
L 3316 2797 
Q 3109 2947 2876 3022 
Q 2644 3097 2394 3097 
Q 2119 3097 1870 3000 
Q 1622 2903 1453 2725 
Q 1184 2453 1037 2087 
Q 891 1722 891 1331 
Q 891 859 1127 628 
Q 1363 397 1844 397 
Q 2081 397 2348 469 
Q 2616 541 2906 684 
L 2797 116 
Q 2547 13 2283 -39 
Q 2019 -91 1741 -91 
Q 1044 -91 669 257 
Q 294 606 294 1253 
Q 294 1797 489 2255 
Q 684 2713 1069 3078 
Q 1331 3328 1684 3456 
Q 2038 3584 2456 3584 
Q 2700 3584 2940 3529 
Q 3181 3475 3431 3366 
z
" transform="scale(0.015625)"/>
       <path id="DejaVuSans-Oblique-73" d="M 3200 3397 
L 3091 2853 
Q 2863 2978 2609 3040 
Q 2356 3103 2088 3103 
Q 1634 3103 1373 2948 
Q 1113 2794 1113 2528 
Q 1113 2219 1719 2053 
Q 1766 2041 1788 2034 
L 1972 1978 
Q 2547 1819 2739 1644 
Q 2931 1469 2931 1166 
Q 2931 609 2489 259 
Q 2047 -91 1331 -91 
Q 1053 -91 747 -37 
Q 441 16 72 128 
L 184 722 
Q 500 559 806 475 
Q 1113 391 1394 391 
Q 1816 391 2080 572 
Q 2344 753 2344 1031 
Q 2344 1331 1650 1516 
L 1591 1531 
L 1394 1581 
Q 956 1697 753 1886 
Q 550 2075 550 2369 
Q 550 2928 970 3256 
Q 1391 3584 2113 3584 
Q 2397 3584 2667 3537 
Q 2938 3491 3200 3397 
z
" transform="scale(0.015625)"/>
       <path id="DejaVuSans-Oblique-72" d="M 2853 2969 
Q 2766 3016 2653 3041 
Q 2541 3066 2413 3066 
Q 1953 3066 1609 2717 
Q 1266 2369 1153 1784 
L 800 0 
L 225 0 
L 909 3500 
L 1484 3500 
L 1375 2956 
Q 1603 3259 1920 3421 
Q 2238 3584 2597 3584 
Q 2691 3584 2781 3573 
Q 2872 3563 2963 3538 
L 2853 2969 
z
" transform="scale(0.015625)"/>
       <path id="STIXSizeTwoSym-Regular-5d" d="M 1722 -1786 
L 237 -1786 
L 237 -1530 
L 1235 -1530 
L 1235 9766 
L 237 9766 
L 237 10022 
L 1722 10022 
L 1722 -1786 
z
" transform="scale(0.015625)"/>
      </defs>
      <use xlink:href="#DejaVuSans-394" transform="translate(0 0.16875)"/>
      <use xlink:href="#DejaVuSans-Oblique-4f" transform="translate(68.408203 0.16875)"/>
      <use xlink:href="#DejaVuSans-Oblique-4c" transform="translate(147.119141 0.16875)"/>
      <use xlink:href="#DejaVuSans-Oblique-52" transform="translate(202.832031 0.16875)"/>
      <use xlink:href="#DejaVuSans-Oblique-3bd" transform="translate(272.314453 -16.2375) scale(0.7)"/>
      <use xlink:href="#DejaVuSans-20" transform="translate(314.150391 0.16875)"/>
      <use xlink:href="#STIXSizeTwoSym-Regular-5b" transform="translate(345.9375 -29.303125) scale(0.793733)"/>
      <use xlink:href="#DejaVuSans-Oblique-57" transform="translate(524.363449 43.965625) scale(0.7)"/>
      <use xlink:href="#DejaVuSans-Oblique-6d" transform="translate(382.363449 -50.448437) scale(0.7)"/>
      <use xlink:href="#DejaVuSans-32" transform="translate(453.806853 -23.651562) scale(0.49)"/>
      <use xlink:href="#DejaVuSans-Oblique-63" transform="translate(486.896208 -50.448437) scale(0.7)"/>
      <use xlink:href="#DejaVuSans-Oblique-6d" transform="translate(525.382536 -50.448437) scale(0.7)"/>
      <use xlink:href="#DejaVuSans-2212" transform="translate(596.82594 -23.651562) scale(0.49)"/>
      <use xlink:href="#DejaVuSans-31" transform="translate(637.882581 -23.651562) scale(0.49)"/>
      <use xlink:href="#DejaVuSans-Oblique-73" transform="translate(670.971936 -50.448437) scale(0.7)"/>
      <use xlink:href="#DejaVuSans-Oblique-72" transform="translate(707.441663 -50.448437) scale(0.7)"/>
      <use xlink:href="#STIXSizeTwoSym-Regular-5d" transform="translate(748.72096 -29.303125) scale(0.793733)"/>
      <path d="M 382.363449 18.965625 
L 382.363449 25.215625 
L 736.22096 25.215625 
L 736.22096 18.965625 
L 382.363449 18.965625 
z
"/>
     </g>
    </g>
    <g id="text_19">
     <!-- 1e−13 -->
     <g transform="translate(57.182813 32.7555) scale(0.1 -0.1)">
      <defs>
       <path id="DejaVuSans-33" d="M 2597 2516 
Q 3050 2419 3304 2112 
Q 3559 1806 3559 1356 
Q 3559 666 3084 287 
Q 2609 -91 1734 -91 
Q 1441 -91 1130 -33 
Q 819 25 488 141 
L 488 750 
Q 750 597 1062 519 
Q 1375 441 1716 441 
Q 2309 441 2620 675 
Q 2931 909 2931 1356 
Q 2931 1769 2642 2001 
Q 2353 2234 1838 2234 
L 1294 2234 
L 1294 2753 
L 1863 2753 
Q 2328 2753 2575 2939 
Q 2822 3125 2822 3475 
Q 2822 3834 2567 4026 
Q 2313 4219 1838 4219 
Q 1578 4219 1281 4162 
Q 984 4106 628 3988 
L 628 4550 
Q 988 4650 1302 4700 
Q 1616 4750 1894 4750 
Q 2613 4750 3031 4423 
Q 3450 4097 3450 3541 
Q 3450 3153 3228 2886 
Q 3006 2619 2597 2516 
z
" transform="scale(0.015625)"/>
      </defs>
      <use xlink:href="#DejaVuSans-31"/>
      <use xlink:href="#DejaVuSans-65" transform="translate(63.623047 0)"/>
      <use xlink:href="#DejaVuSans-2212" transform="translate(125.146484 0)"/>
      <use xlink:href="#DejaVuSans-31" transform="translate(208.935547 0)"/>
      <use xlink:href="#DejaVuSans-33" transform="translate(272.558594 0)"/>
     </g>
    </g>
   </g>
   <g id="line2d_33">
    <path d="M 73.41554 171.680103 
L 75.587142 171.75518 
L 76.672943 171.845558 
L 78.844546 172.346478 
L 79.930347 171.890546 
L 81.016148 172.490903 
L 82.101949 172.184933 
L 83.18775 173.499885 
L 84.273551 173.01607 
L 85.359352 173.270091 
L 86.445154 173.77384 
L 87.530955 171.680092 
L 88.616756 174.49488 
L 89.702557 173.877565 
L 90.788358 175.019603 
L 91.874159 174.999395 
L 92.959961 174.302417 
L 94.045762 176.198615 
L 95.131563 177.85446 
L 96.217364 172.200001 
L 97.303165 177.810852 
L 99.474768 178.506003 
L 100.560569 180.880079 
L 101.64637 181.144072 
L 102.732171 174.159738 
L 103.817972 171.68009 
L 104.903773 181.560792 
L 105.989574 180.593586 
L 107.075376 171.693133 
L 108.161177 183.193102 
L 109.246978 171.68009 
L 110.332779 179.489867 
L 111.41858 183.760318 
L 112.504381 185.929535 
L 113.590183 184.000622 
L 114.675984 188.432425 
L 115.761785 187.015198 
L 116.847586 188.486475 
L 117.933387 189.713851 
L 119.019188 180.427301 
L 120.104989 189.080068 
L 121.190791 187.391292 
L 122.276592 171.68009 
L 123.362393 192.420962 
L 124.448194 191.220451 
L 125.533995 196.705905 
L 126.619796 196.1782 
L 127.705598 182.302971 
L 128.791399 197.566763 
L 129.8772 198.030051 
L 130.963001 198.741183 
L 132.048802 193.436137 
L 133.134603 197.000502 
L 134.220404 199.619415 
L 135.306206 192.99335 
L 136.392007 194.510123 
L 137.477808 204.337745 
L 138.563609 196.755087 
L 139.64941 186.24243 
L 140.735211 198.757204 
L 141.821013 202.145553 
L 142.906814 199.406264 
L 143.992615 196.341391 
L 145.078416 211.195454 
L 146.164217 190.894052 
L 147.250018 201.723752 
L 148.335819 194.01445 
L 149.421621 200.783892 
L 150.507422 194.605192 
L 151.593223 204.557918 
L 152.679024 187.269628 
L 153.764825 185.980527 
L 154.850626 206.248738 
L 155.936428 199.466746 
L 157.022229 199.641199 
L 158.10803 191.604168 
L 159.193831 193.701215 
L 160.279632 211.682638 
L 161.365433 195.77666 
L 162.451235 196.91901 
L 163.537036 191.364594 
L 164.622837 200.008312 
L 165.708638 206.817108 
L 166.794439 212.37222 
L 167.88024 218.696125 
L 168.966041 211.453558 
L 170.051843 260.744768 
L 171.137644 248.990952 
L 172.223445 172.387546 
L 173.309246 209.513521 
L 174.395047 229.117916 
L 175.480848 171.68009 
L 176.56665 174.351414 
L 177.652451 171.68009 
L 178.738252 171.752477 
L 180.909854 171.68009 
L 183.081456 171.68009 
L 184.167258 172.276369 
L 185.253059 185.125253 
L 186.33886 215.524429 
L 187.424661 263.33576 
L 188.510462 279.832509 
L 189.596263 264.016784 
L 190.682065 289.7715 
L 191.767866 278.402739 
L 192.853667 284.995414 
L 193.939468 220.517358 
L 195.025269 264.691163 
L 196.11107 186.465772 
L 197.196871 214.601407 
L 198.282673 185.060832 
L 199.368474 186.1431 
L 200.454275 177.915627 
L 201.540076 191.163138 
L 202.625877 185.557848 
L 203.711678 191.1462 
L 204.79748 173.783786 
L 205.883281 172.2085 
L 206.969082 173.498509 
L 208.054883 172.311375 
L 209.140684 171.843118 
L 210.226485 171.847366 
L 211.312287 175.047941 
L 212.398088 171.985349 
L 213.483889 171.895902 
L 214.56969 172.37644 
L 215.655491 171.939698 
L 216.741292 174.621423 
L 217.827093 175.611934 
L 218.912895 172.201584 
L 219.998696 171.77072 
L 221.084497 177.763794 
L 222.170298 171.799948 
L 223.256099 172.178328 
L 224.3419 171.910981 
L 225.427702 172.955448 
L 226.513503 172.158881 
L 227.599304 172.308111 
L 228.685105 172.059476 
L 229.770906 172.126664 
L 230.856707 178.091363 
L 233.02831 179.83678 
L 234.114111 185.084271 
L 235.199912 211.58192 
L 236.285713 216.321621 
L 237.371514 268.589022 
L 238.457315 274.560223 
L 239.543117 252.845655 
L 240.628918 281.207415 
L 241.714719 276.35684 
L 242.80052 212.524015 
L 243.886321 243.595138 
L 244.972122 198.673081 
L 246.057923 268.812205 
L 247.143725 191.936419 
L 248.229526 192.713251 
L 249.315327 179.775733 
L 250.401128 184.963974 
L 251.486929 176.079234 
L 252.57273 179.541768 
L 253.658532 186.921153 
L 254.744333 177.058297 
L 255.830134 179.183125 
L 256.915935 180.245864 
L 258.001736 204.629991 
L 259.087537 175.839037 
L 260.173338 188.036227 
L 261.25914 173.314127 
L 262.344941 179.314266 
L 263.430742 175.042087 
L 264.516543 174.673914 
L 265.602344 176.114168 
L 266.688145 181.753205 
L 267.773947 192.012849 
L 268.859748 172.700413 
L 269.945549 199.155915 
L 271.03135 183.30521 
L 272.117151 192.96104 
L 273.202952 172.721398 
L 274.288754 176.825537 
L 275.374555 196.285897 
L 276.460356 193.090424 
L 277.546157 185.914114 
L 278.631958 189.153869 
L 279.717759 193.049166 
L 280.80356 177.748611 
L 281.889362 190.959494 
L 282.975163 189.106414 
L 284.060964 181.315982 
L 285.146765 193.04333 
L 286.232566 189.460313 
L 287.318367 187.70192 
L 288.404169 193.133226 
L 289.48997 185.698173 
L 290.575771 185.088272 
L 291.661572 190.763081 
L 292.747373 185.341417 
L 293.833174 186.186887 
L 294.918975 188.316206 
L 296.004777 185.214035 
L 297.090578 184.341341 
L 298.176379 187.032439 
L 299.26218 185.802843 
L 300.347981 181.657153 
L 301.433782 171.680733 
L 302.519584 181.327516 
L 303.605385 178.363433 
L 304.691186 183.435289 
L 305.776987 180.516878 
L 306.862788 180.162895 
L 307.948589 178.063584 
L 309.03439 178.279327 
L 310.120192 175.037525 
L 311.205993 175.375049 
L 312.291794 174.434479 
L 313.377595 180.366117 
L 314.463396 179.376198 
L 315.549197 177.633312 
L 316.634999 174.80245 
L 317.7208 174.232628 
L 318.806601 176.295075 
L 319.892402 176.888478 
L 320.978203 174.52086 
L 322.064004 176.480242 
L 323.149806 173.448672 
L 325.321408 175.582234 
L 326.407209 172.344841 
L 327.49301 175.7952 
L 328.578811 176.560908 
L 329.664612 176.715452 
L 330.750414 179.22522 
L 331.836215 177.193823 
L 332.922016 177.14379 
L 334.007817 177.895927 
L 335.093618 177.630483 
L 337.265221 175.650982 
L 338.351022 176.824546 
L 339.436823 175.562801 
L 340.522624 173.039812 
L 341.608425 171.68009 
L 342.694226 175.721086 
L 343.780027 176.170248 
L 344.865829 174.414663 
L 345.95163 175.432862 
L 347.037431 173.439619 
L 348.123232 174.8851 
L 349.209033 173.556715 
L 350.294834 173.892283 
L 351.380636 175.39594 
L 352.466437 173.573665 
L 353.552238 175.509197 
L 355.72384 173.151844 
L 356.809641 173.430263 
L 357.895442 174.723156 
L 358.981244 175.576711 
L 360.067045 176.151181 
L 361.152846 171.68009 
L 362.238647 174.128701 
L 363.324448 175.110679 
L 364.410249 171.722104 
L 365.496051 172.675882 
L 366.581852 176.119998 
L 367.667653 174.977702 
L 368.753454 175.563889 
L 369.839255 173.760642 
L 370.925056 174.76294 
L 372.010857 175.109841 
L 373.096659 174.020869 
L 374.18246 175.489787 
L 375.268261 174.672585 
L 376.354062 172.527531 
L 377.439863 175.853543 
L 378.525664 174.831691 
L 379.611466 175.176245 
L 381.783068 175.203386 
L 382.868869 175.799533 
L 383.95467 175.07557 
L 385.040471 174.666731 
L 386.126273 175.364292 
L 387.212074 172.629138 
L 388.297875 174.724724 
L 389.383676 172.932785 
L 390.469477 174.687974 
L 391.555278 174.396516 
L 392.641079 173.240008 
L 393.726881 173.333527 
L 394.812682 172.670961 
L 395.898483 174.732613 
L 396.984284 172.642986 
L 398.070085 175.006024 
L 398.070085 175.006024 
" clip-path="url(#p80bd669ad0)" style="fill: none; stroke: #1f77b4; stroke-width: 0.7; stroke-linecap: square"/>
   </g>
   <g id="line2d_34">
    <path d="M 73.41554 171.680103 
L 76.672943 171.705344 
L 78.844546 171.962663 
L 79.930347 171.536559 
L 81.016148 171.82416 
L 82.101949 171.366574 
L 83.18775 172.32465 
L 84.273551 171.419617 
L 85.359352 171.367337 
L 86.445154 171.719082 
L 88.616756 171.646307 
L 89.702557 170.096175 
L 90.788358 171.649466 
L 91.874159 170.332289 
L 92.959961 169.86627 
L 94.045762 170.757596 
L 95.131563 172.989485 
L 96.217364 171.31708 
L 97.303165 170.77323 
L 98.388966 170.930139 
L 99.474768 170.498294 
L 100.560569 173.705143 
L 101.64637 173.35752 
L 102.732171 169.897177 
L 103.817972 171.68009 
L 104.903773 172.638764 
L 105.989574 167.593996 
L 107.075376 171.67337 
L 108.161177 170.448197 
L 109.246978 171.68009 
L 110.332779 166.615105 
L 111.41858 167.349104 
L 112.504381 170.254857 
L 113.590183 166.600513 
L 114.675984 174.021925 
L 115.761785 168.322798 
L 116.847586 170.684248 
L 117.933387 172.433857 
L 119.019188 164.83944 
L 120.104989 169.436613 
L 121.190791 162.244888 
L 122.276592 171.68009 
L 123.362393 170.588324 
L 124.448194 170.89166 
L 125.533995 175.756231 
L 126.619796 177.431255 
L 127.705598 163.838935 
L 128.791399 174.242729 
L 129.8772 176.640289 
L 130.963001 176.886815 
L 132.048802 159.669276 
L 133.134603 166.408569 
L 134.220404 179.728208 
L 135.306206 153.167626 
L 136.392007 153.692902 
L 137.477808 177.829181 
L 138.563609 161.037281 
L 139.64941 122.633467 
L 140.735211 159.477454 
L 141.821013 169.62651 
L 142.906814 164.668478 
L 143.992615 156.425064 
L 145.078416 184.162364 
L 146.164217 131.152302 
L 147.250018 160.697991 
L 148.335819 139.015335 
L 149.421621 160.345544 
L 150.507422 132.652938 
L 151.593223 151.846706 
L 152.679024 101.485704 
L 153.764825 96.546832 
L 154.850626 175.722108 
L 155.936428 135.130928 
L 157.022229 146.95778 
L 158.10803 112.917061 
L 159.193831 115.59897 
L 160.279632 162.287518 
L 161.365433 108.454216 
L 162.451235 129.036738 
L 163.537036 92.520066 
L 164.622837 115.276565 
L 165.708638 171.034166 
L 166.794439 178.265614 
L 167.88024 147.137069 
L 168.966041 124.72524 
L 170.051843 163.781211 
L 171.137644 141.188122 
L 172.223445 171.242146 
L 173.309246 147.088792 
L 174.395047 141.428361 
L 175.480848 171.68009 
L 176.56665 169.614211 
L 177.652451 171.68009 
L 179.824053 171.677208 
L 183.081456 171.68009 
L 184.167258 171.286058 
L 185.253059 162.680705 
L 186.33886 135.202306 
L 187.424661 174.307082 
L 188.510462 173.615872 
L 189.596263 186.883067 
L 190.682065 185.334865 
L 191.767866 174.682658 
L 192.853667 186.368137 
L 193.939468 95.00637 
L 195.025269 183.292135 
L 196.11107 51.542718 
L 197.196871 86.501119 
L 198.282673 79.788476 
L 199.368474 66.893759 
L 200.454275 60.474601 
L 201.540076 67.792274 
L 202.625877 81.848677 
L 203.711678 85.014806 
L 204.79748 49.475314 
L 205.883281 47.8515 
L 206.969082 49.818165 
L 208.054883 48.222863 
L 209.140684 48.023198 
L 210.226485 48.417072 
L 211.312287 57.742693 
L 212.398088 49.786807 
L 213.483889 49.859734 
L 214.56969 71.539775 
L 215.655491 71.077633 
L 216.741292 77.413345 
L 217.827093 80.55852 
L 218.912895 72.662964 
L 219.998696 72.554531 
L 221.084497 69.831086 
L 222.170298 73.656649 
L 223.256099 74.988127 
L 224.3419 74.902476 
L 225.427702 77.022823 
L 226.513503 76.511547 
L 227.599304 77.314386 
L 228.685105 77.494238 
L 229.770906 78.1787 
L 230.856707 87.421505 
L 231.942508 89.843602 
L 233.02831 89.750998 
L 234.114111 97.194468 
L 235.199912 115.167943 
L 236.285713 122.809441 
L 237.371514 164.640786 
L 238.457315 171.28399 
L 239.543117 140.303976 
L 240.628918 185.394876 
L 241.714719 174.217575 
L 242.80052 118.121383 
L 243.886321 156.642866 
L 244.972122 153.595532 
L 246.057923 167.918968 
L 247.143725 112.930611 
L 248.229526 116.216539 
L 249.315327 99.792565 
L 250.401128 109.609836 
L 251.486929 97.316129 
L 252.57273 102.174987 
L 253.658532 113.287633 
L 254.744333 105.274605 
L 255.830134 104.318757 
L 256.915935 105.628795 
L 258.001736 159.553226 
L 259.087537 102.46671 
L 260.173338 119.01332 
L 261.25914 115.168842 
L 262.344941 111.970907 
L 263.430742 107.164257 
L 264.516543 119.87971 
L 265.602344 110.442218 
L 266.688145 122.35261 
L 267.773947 144.920785 
L 268.859748 119.342711 
L 269.945549 167.5152 
L 271.03135 130.756608 
L 272.117151 151.846725 
L 273.202952 121.890215 
L 274.288754 118.259466 
L 275.374555 167.219894 
L 276.460356 148.285353 
L 277.546157 140.989009 
L 278.631958 139.267837 
L 279.717759 170.265801 
L 280.80356 126.003314 
L 281.889362 152.598879 
L 282.975163 155.005523 
L 284.060964 136.442574 
L 285.146765 148.259458 
L 286.232566 158.483175 
L 287.318367 167.3161 
L 288.404169 163.063627 
L 289.48997 147.654433 
L 290.575771 171.079841 
L 291.661572 164.003261 
L 292.747373 160.786197 
L 293.833174 168.57161 
L 294.918975 171.047529 
L 296.004777 166.331309 
L 297.090578 170.194727 
L 298.176379 169.725127 
L 299.26218 169.776447 
L 300.347981 171.248181 
L 301.433782 171.679597 
L 302.519584 169.714779 
L 303.605385 169.455733 
L 304.691186 171.89734 
L 305.776987 167.953379 
L 306.862788 169.920671 
L 307.948589 171.114893 
L 309.03439 169.348849 
L 310.120192 170.818808 
L 311.205993 171.756506 
L 312.291794 170.79696 
L 313.377595 168.359136 
L 314.463396 168.579941 
L 315.549197 169.126575 
L 316.634999 171.389731 
L 317.7208 171.120038 
L 318.806601 171.416463 
L 319.892402 170.61479 
L 320.978203 171.828967 
L 322.064004 170.628549 
L 323.149806 170.606588 
L 324.235607 171.581968 
L 325.321408 169.972835 
L 326.407209 171.214604 
L 327.49301 171.086266 
L 328.578811 169.754785 
L 329.664612 170.446617 
L 330.750414 165.658463 
L 331.836215 167.411321 
L 332.922016 160.056183 
L 334.007817 166.88016 
L 335.093618 171.716869 
L 336.179419 172.028298 
L 337.265221 171.662722 
L 338.351022 171.525331 
L 339.436823 170.424111 
L 340.522624 171.22329 
L 341.608425 171.68009 
L 342.694226 169.858255 
L 343.780027 171.188446 
L 345.95163 171.974484 
L 347.037431 170.985484 
L 348.123232 170.650866 
L 349.209033 171.58133 
L 350.294834 171.614227 
L 351.380636 171.775693 
L 352.466437 171.355224 
L 353.552238 168.852511 
L 354.638039 171.976122 
L 355.72384 171.307283 
L 356.809641 170.80494 
L 357.895442 171.687497 
L 358.981244 171.391302 
L 361.152846 171.68009 
L 362.238647 170.611555 
L 363.324448 169.944793 
L 364.410249 171.653847 
L 365.496051 171.51433 
L 366.581852 170.441626 
L 367.667653 170.715875 
L 368.753454 167.317776 
L 369.839255 170.74505 
L 370.925056 170.179033 
L 372.010857 170.041734 
L 373.096659 170.900647 
L 374.18246 168.935477 
L 375.268261 171.06156 
L 376.354062 171.524283 
L 378.525664 170.621998 
L 379.611466 169.701531 
L 380.697267 170.254094 
L 381.783068 167.016959 
L 382.868869 170.698551 
L 383.95467 169.21002 
L 385.040471 171.826862 
L 386.126273 169.493284 
L 387.212074 171.41351 
L 388.297875 169.54956 
L 389.383676 171.467138 
L 390.469477 167.930513 
L 391.555278 167.423864 
L 392.641079 170.941025 
L 393.726881 166.532113 
L 394.812682 165.56974 
L 395.898483 169.772987 
L 396.984284 171.258761 
L 398.070085 170.103802 
L 398.070085 170.103802 
" clip-path="url(#p80bd669ad0)" style="fill: none; stroke: #ff7f0e; stroke-width: 0.7; stroke-linecap: square"/>
   </g>
   <g id="patch_3">
    <path d="M 57.182813 301.8675 
L 57.182813 35.7555 
" style="fill: none; stroke: #000000; stroke-width: 0.8; stroke-linejoin: miter; stroke-linecap: square"/>
   </g>
   <g id="patch_4">
    <path d="M 414.302813 301.8675 
L 414.302813 35.7555 
" style="fill: none; stroke: #000000; stroke-width: 0.8; stroke-linejoin: miter; stroke-linecap: square"/>
   </g>
   <g id="patch_5">
    <path d="M 57.182813 301.8675 
L 414.302813 301.8675 
" style="fill: none; stroke: #000000; stroke-width: 0.8; stroke-linejoin: miter; stroke-linecap: square"/>
   </g>
   <g id="patch_6">
    <path d="M 57.182813 35.7555 
L 414.302813 35.7555 
" style="fill: none; stroke: #000000; stroke-width: 0.8; stroke-linejoin: miter; stroke-linecap: square"/>
   </g>
   <g id="text_20">
    <!-- OLR at TOA - OLR at τ = 1 for  -->
    <g transform="translate(144.885938 16.318125) scale(0.12 -0.12)">
     <defs>
      <path id="DejaVuSans-4f" d="M 2522 4238 
Q 1834 4238 1429 3725 
Q 1025 3213 1025 2328 
Q 1025 1447 1429 934 
Q 1834 422 2522 422 
Q 3209 422 3611 934 
Q 4013 1447 4013 2328 
Q 4013 3213 3611 3725 
Q 3209 4238 2522 4238 
z
M 2522 4750 
Q 3503 4750 4090 4092 
Q 4678 3434 4678 2328 
Q 4678 1225 4090 567 
Q 3503 -91 2522 -91 
Q 1538 -91 948 565 
Q 359 1222 359 2328 
Q 359 3434 948 4092 
Q 1538 4750 2522 4750 
z
" transform="scale(0.015625)"/>
      <path id="DejaVuSans-4c" d="M 628 4666 
L 1259 4666 
L 1259 531 
L 3531 531 
L 3531 0 
L 628 0 
L 628 4666 
z
" transform="scale(0.015625)"/>
      <path id="DejaVuSans-52" d="M 2841 2188 
Q 3044 2119 3236 1894 
Q 3428 1669 3622 1275 
L 4263 0 
L 3584 0 
L 2988 1197 
Q 2756 1666 2539 1819 
Q 2322 1972 1947 1972 
L 1259 1972 
L 1259 0 
L 628 0 
L 628 4666 
L 2053 4666 
Q 2853 4666 3247 4331 
Q 3641 3997 3641 3322 
Q 3641 2881 3436 2590 
Q 3231 2300 2841 2188 
z
M 1259 4147 
L 1259 2491 
L 2053 2491 
Q 2509 2491 2742 2702 
Q 2975 2913 2975 3322 
Q 2975 3731 2742 3939 
Q 2509 4147 2053 4147 
L 1259 4147 
z
" transform="scale(0.015625)"/>
      <path id="DejaVuSans-74" d="M 1172 4494 
L 1172 3500 
L 2356 3500 
L 2356 3053 
L 1172 3053 
L 1172 1153 
Q 1172 725 1289 603 
Q 1406 481 1766 481 
L 2356 481 
L 2356 0 
L 1766 0 
Q 1100 0 847 248 
Q 594 497 594 1153 
L 594 3053 
L 172 3053 
L 172 3500 
L 594 3500 
L 594 4494 
L 1172 4494 
z
" transform="scale(0.015625)"/>
      <path id="DejaVuSans-54" d="M -19 4666 
L 3928 4666 
L 3928 4134 
L 2272 4134 
L 2272 0 
L 1638 0 
L 1638 4134 
L -19 4134 
L -19 4666 
z
" transform="scale(0.015625)"/>
      <path id="DejaVuSans-41" d="M 2188 4044 
L 1331 1722 
L 3047 1722 
L 2188 4044 
z
M 1831 4666 
L 2547 4666 
L 4325 0 
L 3669 0 
L 3244 1197 
L 1141 1197 
L 716 0 
L 50 0 
L 1831 4666 
z
" transform="scale(0.015625)"/>
      <path id="DejaVuSans-2d" d="M 313 2009 
L 1997 2009 
L 1997 1497 
L 313 1497 
L 313 2009 
z
" transform="scale(0.015625)"/>
      <path id="DejaVuSans-3c4" d="M 2319 638 
Q 2431 488 2769 488 
L 3047 488 
L 3047 0 
L 2700 0 
Q 2138 0 1881 300 
Q 1625 606 1625 1269 
L 1625 2925 
L 313 2925 
L 313 3500 
L 3541 3500 
L 3541 2925 
L 2213 2925 
L 2213 1234 
Q 2213 781 2319 638 
z
" transform="scale(0.015625)"/>
      <path id="DejaVuSans-3d" d="M 678 2906 
L 4684 2906 
L 4684 2381 
L 678 2381 
L 678 2906 
z
M 678 1631 
L 4684 1631 
L 4684 1100 
L 678 1100 
L 678 1631 
z
" transform="scale(0.015625)"/>
      <path id="DejaVuSans-66" d="M 2375 4863 
L 2375 4384 
L 1825 4384 
Q 1516 4384 1395 4259 
Q 1275 4134 1275 3809 
L 1275 3500 
L 2222 3500 
L 2222 3053 
L 1275 3053 
L 1275 0 
L 697 0 
L 697 3053 
L 147 3053 
L 147 3500 
L 697 3500 
L 697 3744 
Q 697 4328 969 4595 
Q 1241 4863 1831 4863 
L 2375 4863 
z
" transform="scale(0.015625)"/>
      <path id="DejaVuSans-6f" d="M 1959 3097 
Q 1497 3097 1228 2736 
Q 959 2375 959 1747 
Q 959 1119 1226 758 
Q 1494 397 1959 397 
Q 2419 397 2687 759 
Q 2956 1122 2956 1747 
Q 2956 2369 2687 2733 
Q 2419 3097 1959 3097 
z
M 1959 3584 
Q 2709 3584 3137 3096 
Q 3566 2609 3566 1747 
Q 3566 888 3137 398 
Q 2709 -91 1959 -91 
Q 1206 -91 779 398 
Q 353 888 353 1747 
Q 353 2609 779 3096 
Q 1206 3584 1959 3584 
z
" transform="scale(0.015625)"/>
     </defs>
     <use xlink:href="#DejaVuSans-4f"/>
     <use xlink:href="#DejaVuSans-4c" transform="translate(78.710938 0)"/>
     <use xlink:href="#DejaVuSans-52" transform="translate(134.423828 0)"/>
     <use xlink:href="#DejaVuSans-20" transform="translate(203.90625 0)"/>
     <use xlink:href="#DejaVuSans-61" transform="translate(235.693359 0)"/>
     <use xlink:href="#DejaVuSans-74" transform="translate(296.972656 0)"/>
     <use xlink:href="#DejaVuSans-20" transform="translate(336.181641 0)"/>
     <use xlink:href="#DejaVuSans-54" transform="translate(367.96875 0)"/>
     <use xlink:href="#DejaVuSans-4f" transform="translate(429.052734 0)"/>
     <use xlink:href="#DejaVuSans-41" transform="translate(506.013672 0)"/>
     <use xlink:href="#DejaVuSans-20" transform="translate(574.421875 0)"/>
     <use xlink:href="#DejaVuSans-2d" transform="translate(606.208984 0)"/>
     <use xlink:href="#DejaVuSans-20" transform="translate(642.292969 0)"/>
     <use xlink:href="#DejaVuSans-4f" transform="translate(674.080078 0)"/>
     <use xlink:href="#DejaVuSans-4c" transform="translate(752.791016 0)"/>
     <use xlink:href="#DejaVuSans-52" transform="translate(808.503906 0)"/>
     <use xlink:href="#DejaVuSans-20" transform="translate(877.986328 0)"/>
     <use xlink:href="#DejaVuSans-61" transform="translate(909.773438 0)"/>
     <use xlink:href="#DejaVuSans-74" transform="translate(971.052734 0)"/>
     <use xlink:href="#DejaVuSans-20" transform="translate(1010.261719 0)"/>
     <use xlink:href="#DejaVuSans-3c4" transform="translate(1042.048828 0)"/>
     <use xlink:href="#DejaVuSans-20" transform="translate(1102.253906 0)"/>
     <use xlink:href="#DejaVuSans-3d" transform="translate(1134.041016 0)"/>
     <use xlink:href="#DejaVuSans-20" transform="translate(1217.830078 0)"/>
     <use xlink:href="#DejaVuSans-31" transform="translate(1249.617188 0)"/>
     <use xlink:href="#DejaVuSans-20" transform="translate(1313.240234 0)"/>
     <use xlink:href="#DejaVuSans-66" transform="translate(1345.027344 0)"/>
     <use xlink:href="#DejaVuSans-6f" transform="translate(1380.232422 0)"/>
     <use xlink:href="#DejaVuSans-72" transform="translate(1441.414062 0)"/>
     <use xlink:href="#DejaVuSans-20" transform="translate(1482.527344 0)"/>
    </g>
    <!--  (H2O_CO2_O3) -->
    <g transform="translate(188.830313 29.7555) scale(0.12 -0.12)">
     <defs>
      <path id="DejaVuSans-48" d="M 628 4666 
L 1259 4666 
L 1259 2753 
L 3553 2753 
L 3553 4666 
L 4184 4666 
L 4184 0 
L 3553 0 
L 3553 2222 
L 1259 2222 
L 1259 0 
L 628 0 
L 628 4666 
z
" transform="scale(0.015625)"/>
      <path id="DejaVuSans-5f" d="M 3263 -1063 
L 3263 -1509 
L -63 -1509 
L -63 -1063 
L 3263 -1063 
z
" transform="scale(0.015625)"/>
      <path id="DejaVuSans-43" d="M 4122 4306 
L 4122 3641 
Q 3803 3938 3442 4084 
Q 3081 4231 2675 4231 
Q 1875 4231 1450 3742 
Q 1025 3253 1025 2328 
Q 1025 1406 1450 917 
Q 1875 428 2675 428 
Q 3081 428 3442 575 
Q 3803 722 4122 1019 
L 4122 359 
Q 3791 134 3420 21 
Q 3050 -91 2638 -91 
Q 1578 -91 968 557 
Q 359 1206 359 2328 
Q 359 3453 968 4101 
Q 1578 4750 2638 4750 
Q 3056 4750 3426 4639 
Q 3797 4528 4122 4306 
z
" transform="scale(0.015625)"/>
     </defs>
     <use xlink:href="#DejaVuSans-20"/>
     <use xlink:href="#DejaVuSans-28" transform="translate(31.787109 0)"/>
     <use xlink:href="#DejaVuSans-48" transform="translate(70.800781 0)"/>
     <use xlink:href="#DejaVuSans-32" transform="translate(145.996094 0)"/>
     <use xlink:href="#DejaVuSans-4f" transform="translate(209.619141 0)"/>
     <use xlink:href="#DejaVuSans-5f" transform="translate(288.330078 0)"/>
     <use xlink:href="#DejaVuSans-43" transform="translate(338.330078 0)"/>
     <use xlink:href="#DejaVuSans-4f" transform="translate(408.154297 0)"/>
     <use xlink:href="#DejaVuSans-32" transform="translate(486.865234 0)"/>
     <use xlink:href="#DejaVuSans-5f" transform="translate(550.488281 0)"/>
     <use xlink:href="#DejaVuSans-4f" transform="translate(600.488281 0)"/>
     <use xlink:href="#DejaVuSans-33" transform="translate(679.199219 0)"/>
     <use xlink:href="#DejaVuSans-29" transform="translate(742.822266 0)"/>
    </g>
   </g>
   <g id="legend_1">
    <g id="patch_7">
     <path d="M 264.502813 296.8675 
L 407.302813 296.8675 
Q 409.302813 296.8675 409.302813 294.8675 
L 409.302813 244.115625 
Q 409.302813 242.115625 407.302813 242.115625 
L 264.502813 242.115625 
Q 262.502813 242.115625 262.502813 244.115625 
L 262.502813 294.8675 
Q 262.502813 296.8675 264.502813 296.8675 
z
" style="fill: #ffffff; opacity: 0.8; stroke: #cccccc; stroke-linejoin: miter"/>
    </g>
    <g id="line2d_35">
     <path d="M 266.502813 256.852812 
L 276.502813 256.852812 
L 286.502813 256.852812 
" style="fill: none; stroke: #1f77b4; stroke-width: 0.7; stroke-linecap: square"/>
    </g>
    <g id="text_21">
     <!-- difference to ARTS  -->
     <g transform="translate(294.502813 253.714062) scale(0.1 -0.1)">
      <defs>
       <path id="DejaVuSans-64" d="M 2906 2969 
L 2906 4863 
L 3481 4863 
L 3481 0 
L 2906 0 
L 2906 525 
Q 2725 213 2448 61 
Q 2172 -91 1784 -91 
Q 1150 -91 751 415 
Q 353 922 353 1747 
Q 353 2572 751 3078 
Q 1150 3584 1784 3584 
Q 2172 3584 2448 3432 
Q 2725 3281 2906 2969 
z
M 947 1747 
Q 947 1113 1208 752 
Q 1469 391 1925 391 
Q 2381 391 2643 752 
Q 2906 1113 2906 1747 
Q 2906 2381 2643 2742 
Q 2381 3103 1925 3103 
Q 1469 3103 1208 2742 
Q 947 2381 947 1747 
z
" transform="scale(0.015625)"/>
       <path id="DejaVuSans-69" d="M 603 3500 
L 1178 3500 
L 1178 0 
L 603 0 
L 603 3500 
z
M 603 4863 
L 1178 4863 
L 1178 4134 
L 603 4134 
L 603 4863 
z
" transform="scale(0.015625)"/>
       <path id="DejaVuSans-53" d="M 3425 4513 
L 3425 3897 
Q 3066 4069 2747 4153 
Q 2428 4238 2131 4238 
Q 1616 4238 1336 4038 
Q 1056 3838 1056 3469 
Q 1056 3159 1242 3001 
Q 1428 2844 1947 2747 
L 2328 2669 
Q 3034 2534 3370 2195 
Q 3706 1856 3706 1288 
Q 3706 609 3251 259 
Q 2797 -91 1919 -91 
Q 1588 -91 1214 -16 
Q 841 59 441 206 
L 441 856 
Q 825 641 1194 531 
Q 1563 422 1919 422 
Q 2459 422 2753 634 
Q 3047 847 3047 1241 
Q 3047 1584 2836 1778 
Q 2625 1972 2144 2069 
L 1759 2144 
Q 1053 2284 737 2584 
Q 422 2884 422 3419 
Q 422 4038 858 4394 
Q 1294 4750 2059 4750 
Q 2388 4750 2728 4690 
Q 3069 4631 3425 4513 
z
" transform="scale(0.015625)"/>
      </defs>
      <use xlink:href="#DejaVuSans-64"/>
      <use xlink:href="#DejaVuSans-69" transform="translate(63.476562 0)"/>
      <use xlink:href="#DejaVuSans-66" transform="translate(91.259766 0)"/>
      <use xlink:href="#DejaVuSans-66" transform="translate(126.464844 0)"/>
      <use xlink:href="#DejaVuSans-65" transform="translate(161.669922 0)"/>
      <use xlink:href="#DejaVuSans-72" transform="translate(223.193359 0)"/>
      <use xlink:href="#DejaVuSans-65" transform="translate(262.056641 0)"/>
      <use xlink:href="#DejaVuSans-6e" transform="translate(323.580078 0)"/>
      <use xlink:href="#DejaVuSans-63" transform="translate(386.958984 0)"/>
      <use xlink:href="#DejaVuSans-65" transform="translate(441.939453 0)"/>
      <use xlink:href="#DejaVuSans-20" transform="translate(503.462891 0)"/>
      <use xlink:href="#DejaVuSans-74" transform="translate(535.25 0)"/>
      <use xlink:href="#DejaVuSans-6f" transform="translate(574.458984 0)"/>
      <use xlink:href="#DejaVuSans-20" transform="translate(635.640625 0)"/>
      <use xlink:href="#DejaVuSans-41" transform="translate(667.427734 0)"/>
      <use xlink:href="#DejaVuSans-52" transform="translate(735.835938 0)"/>
      <use xlink:href="#DejaVuSans-54" transform="translate(798.068359 0)"/>
      <use xlink:href="#DejaVuSans-53" transform="translate(859.152344 0)"/>
      <use xlink:href="#DejaVuSans-20" transform="translate(922.628906 0)"/>
     </g>
     <!--  $\Delta$ OLR = -19.39 W/m² -->
     <g transform="translate(294.502813 264.911875) scale(0.1 -0.1)">
      <defs>
       <path id="DejaVuSans-39" d="M 703 97 
L 703 672 
Q 941 559 1184 500 
Q 1428 441 1663 441 
Q 2288 441 2617 861 
Q 2947 1281 2994 2138 
Q 2813 1869 2534 1725 
Q 2256 1581 1919 1581 
Q 1219 1581 811 2004 
Q 403 2428 403 3163 
Q 403 3881 828 4315 
Q 1253 4750 1959 4750 
Q 2769 4750 3195 4129 
Q 3622 3509 3622 2328 
Q 3622 1225 3098 567 
Q 2575 -91 1691 -91 
Q 1453 -91 1209 -44 
Q 966 3 703 97 
z
M 1959 2075 
Q 2384 2075 2632 2365 
Q 2881 2656 2881 3163 
Q 2881 3666 2632 3958 
Q 2384 4250 1959 4250 
Q 1534 4250 1286 3958 
Q 1038 3666 1038 3163 
Q 1038 2656 1286 2365 
Q 1534 2075 1959 2075 
z
" transform="scale(0.015625)"/>
       <path id="DejaVuSans-2f" d="M 1625 4666 
L 2156 4666 
L 531 -594 
L 0 -594 
L 1625 4666 
z
" transform="scale(0.015625)"/>
       <path id="DejaVuSans-b2" d="M 838 2444 
L 2163 2444 
L 2163 2088 
L 294 2088 
L 294 2431 
Q 400 2528 597 2703 
Q 1672 3656 1672 3950 
Q 1672 4156 1509 4282 
Q 1347 4409 1081 4409 
Q 919 4409 728 4354 
Q 538 4300 313 4191 
L 313 4575 
Q 553 4663 761 4706 
Q 969 4750 1147 4750 
Q 1600 4750 1872 4544 
Q 2144 4338 2144 4000 
Q 2144 3566 1109 2678 
Q 934 2528 838 2444 
z
" transform="scale(0.015625)"/>
      </defs>
      <use xlink:href="#DejaVuSans-20" transform="translate(0 0.78125)"/>
      <use xlink:href="#DejaVuSans-394" transform="translate(31.787109 0.78125)"/>
      <use xlink:href="#DejaVuSans-20" transform="translate(100.195312 0.78125)"/>
      <use xlink:href="#DejaVuSans-4f" transform="translate(131.982422 0.78125)"/>
      <use xlink:href="#DejaVuSans-4c" transform="translate(210.693359 0.78125)"/>
      <use xlink:href="#DejaVuSans-52" transform="translate(266.40625 0.78125)"/>
      <use xlink:href="#DejaVuSans-20" transform="translate(335.888672 0.78125)"/>
      <use xlink:href="#DejaVuSans-3d" transform="translate(367.675781 0.78125)"/>
      <use xlink:href="#DejaVuSans-20" transform="translate(451.464844 0.78125)"/>
      <use xlink:href="#DejaVuSans-2d" transform="translate(483.251953 0.78125)"/>
      <use xlink:href="#DejaVuSans-31" transform="translate(519.335938 0.78125)"/>
      <use xlink:href="#DejaVuSans-39" transform="translate(582.958984 0.78125)"/>
      <use xlink:href="#DejaVuSans-2e" transform="translate(646.582031 0.78125)"/>
      <use xlink:href="#DejaVuSans-33" transform="translate(678.369141 0.78125)"/>
      <use xlink:href="#DejaVuSans-39" transform="translate(741.992188 0.78125)"/>
      <use xlink:href="#DejaVuSans-20" transform="translate(805.615234 0.78125)"/>
      <use xlink:href="#DejaVuSans-57" transform="translate(837.402344 0.78125)"/>
      <use xlink:href="#DejaVuSans-2f" transform="translate(936.279297 0.78125)"/>
      <use xlink:href="#DejaVuSans-6d" transform="translate(969.970703 0.78125)"/>
      <use xlink:href="#DejaVuSans-b2" transform="translate(1067.382812 0.78125)"/>
     </g>
    </g>
    <g id="line2d_36">
     <path d="M 266.502813 282.72875 
L 276.502813 282.72875 
L 286.502813 282.72875 
" style="fill: none; stroke: #ff7f0e; stroke-width: 0.7; stroke-linecap: square"/>
    </g>
    <g id="text_22">
     <!-- difference to Planck  -->
     <g transform="translate(294.502813 279.59) scale(0.1 -0.1)">
      <defs>
       <path id="DejaVuSans-50" d="M 1259 4147 
L 1259 2394 
L 2053 2394 
Q 2494 2394 2734 2622 
Q 2975 2850 2975 3272 
Q 2975 3691 2734 3919 
Q 2494 4147 2053 4147 
L 1259 4147 
z
M 628 4666 
L 2053 4666 
Q 2838 4666 3239 4311 
Q 3641 3956 3641 3272 
Q 3641 2581 3239 2228 
Q 2838 1875 2053 1875 
L 1259 1875 
L 1259 0 
L 628 0 
L 628 4666 
z
" transform="scale(0.015625)"/>
       <path id="DejaVuSans-6c" d="M 603 4863 
L 1178 4863 
L 1178 0 
L 603 0 
L 603 4863 
z
" transform="scale(0.015625)"/>
       <path id="DejaVuSans-6b" d="M 581 4863 
L 1159 4863 
L 1159 1991 
L 2875 3500 
L 3609 3500 
L 1753 1863 
L 3688 0 
L 2938 0 
L 1159 1709 
L 1159 0 
L 581 0 
L 581 4863 
z
" transform="scale(0.015625)"/>
      </defs>
      <use xlink:href="#DejaVuSans-64"/>
      <use xlink:href="#DejaVuSans-69" transform="translate(63.476562 0)"/>
      <use xlink:href="#DejaVuSans-66" transform="translate(91.259766 0)"/>
      <use xlink:href="#DejaVuSans-66" transform="translate(126.464844 0)"/>
      <use xlink:href="#DejaVuSans-65" transform="translate(161.669922 0)"/>
      <use xlink:href="#DejaVuSans-72" transform="translate(223.193359 0)"/>
      <use xlink:href="#DejaVuSans-65" transform="translate(262.056641 0)"/>
      <use xlink:href="#DejaVuSans-6e" transform="translate(323.580078 0)"/>
      <use xlink:href="#DejaVuSans-63" transform="translate(386.958984 0)"/>
      <use xlink:href="#DejaVuSans-65" transform="translate(441.939453 0)"/>
      <use xlink:href="#DejaVuSans-20" transform="translate(503.462891 0)"/>
      <use xlink:href="#DejaVuSans-74" transform="translate(535.25 0)"/>
      <use xlink:href="#DejaVuSans-6f" transform="translate(574.458984 0)"/>
      <use xlink:href="#DejaVuSans-20" transform="translate(635.640625 0)"/>
      <use xlink:href="#DejaVuSans-50" transform="translate(667.427734 0)"/>
      <use xlink:href="#DejaVuSans-6c" transform="translate(727.730469 0)"/>
      <use xlink:href="#DejaVuSans-61" transform="translate(755.513672 0)"/>
      <use xlink:href="#DejaVuSans-6e" transform="translate(816.792969 0)"/>
      <use xlink:href="#DejaVuSans-63" transform="translate(880.171875 0)"/>
      <use xlink:href="#DejaVuSans-6b" transform="translate(935.152344 0)"/>
      <use xlink:href="#DejaVuSans-20" transform="translate(993.0625 0)"/>
     </g>
     <!--  $\Delta$ OLR = 29.20 W/m² -->
     <g transform="translate(294.502813 290.787812) scale(0.1 -0.1)">
      <use xlink:href="#DejaVuSans-20" transform="translate(0 0.78125)"/>
      <use xlink:href="#DejaVuSans-394" transform="translate(31.787109 0.78125)"/>
      <use xlink:href="#DejaVuSans-20" transform="translate(100.195312 0.78125)"/>
      <use xlink:href="#DejaVuSans-4f" transform="translate(131.982422 0.78125)"/>
      <use xlink:href="#DejaVuSans-4c" transform="translate(210.693359 0.78125)"/>
      <use xlink:href="#DejaVuSans-52" transform="translate(266.40625 0.78125)"/>
      <use xlink:href="#DejaVuSans-20" transform="translate(335.888672 0.78125)"/>
      <use xlink:href="#DejaVuSans-3d" transform="translate(367.675781 0.78125)"/>
      <use xlink:href="#DejaVuSans-20" transform="translate(451.464844 0.78125)"/>
      <use xlink:href="#DejaVuSans-32" transform="translate(483.251953 0.78125)"/>
      <use xlink:href="#DejaVuSans-39" transform="translate(545.125 0.78125)"/>
      <use xlink:href="#DejaVuSans-2e" transform="translate(608.748047 0.78125)"/>
      <use xlink:href="#DejaVuSans-32" transform="translate(635.035156 0.78125)"/>
      <use xlink:href="#DejaVuSans-30" transform="translate(698.658203 0.78125)"/>
      <use xlink:href="#DejaVuSans-20" transform="translate(762.28125 0.78125)"/>
      <use xlink:href="#DejaVuSans-57" transform="translate(794.068359 0.78125)"/>
      <use xlink:href="#DejaVuSans-2f" transform="translate(892.945312 0.78125)"/>
      <use xlink:href="#DejaVuSans-6d" transform="translate(926.636719 0.78125)"/>
      <use xlink:href="#DejaVuSans-b2" transform="translate(1024.048828 0.78125)"/>
     </g>
    </g>
   </g>
  </g>
 </g>
 <defs>
  <clipPath id="p80bd669ad0">
   <rect x="57.182813" y="35.7555" width="357.12" height="266.112"/>
  </clipPath>
 </defs>
</svg>
