<?xml version="1.0" encoding="utf-8" standalone="no"?>
<!DOCTYPE svg PUBLIC "-//W3C//DTD SVG 1.1//EN"
  "http://www.w3.org/Graphics/SVG/1.1/DTD/svg11.dtd">
<svg xmlns:xlink="http://www.w3.org/1999/xlink" width="400.0825pt" height="327.40825pt" viewBox="0 0 400.0825 327.40825" xmlns="http://www.w3.org/2000/svg" version="1.1">
 <metadata>
  <rdf:RDF xmlns:dc="http://purl.org/dc/elements/1.1/" xmlns:cc="http://creativecommons.org/ns#" xmlns:rdf="http://www.w3.org/1999/02/22-rdf-syntax-ns#">
   <cc:Work>
    <dc:type rdf:resource="http://purl.org/dc/dcmitype/StillImage"/>
    <dc:date>2026-01-24T18:22:03.344481</dc:date>
    <dc:format>image/svg+xml</dc:format>
    <dc:creator>
     <cc:Agent>
      <dc:title>Matplotlib v3.10.6, https://matplotlib.org/</dc:title>
     </cc:Agent>
    </dc:creator>
   </cc:Work>
  </rdf:RDF>
 </metadata>
 <defs>
  <style type="text/css">*{stroke-linejoin: round; stroke-linecap: butt}</style>
 </defs>
 <g id="figure_1">
  <g id="patch_1">
   <path d="M 0 327.40825 
L 400.0825 327.40825 
L 400.0825 0 
L 0 0 
z
" style="fill: #ffffff"/>
  </g>
  <g id="axes_1">
   <g id="patch_2">
    <path d="M 35.7625 288.430125 
L 392.8825 288.430125 
L 392.8825 22.318125 
L 35.7625 22.318125 
z
" style="fill: #ffffff"/>
   </g>
   <g id="matplotlib.axis_1">
    <g id="xtick_1">
     <g id="line2d_1">
      <path d="M 51.832819 288.430125 
L 51.832819 22.318125 
" clip-path="url(#p4e824ddb9d)" style="fill: none; stroke: #808080; stroke-width: 0.3; stroke-linecap: square"/>
     </g>
     <g id="line2d_2">
      <defs>
       <path id="med1cc83b9c" d="M 0 0 
L 0 3.5 
" style="stroke: #000000; stroke-width: 0.8"/>
      </defs>
      <g>
       <use xlink:href="#med1cc83b9c" x="51.832819" y="288.430125" style="stroke: #000000; stroke-width: 0.8"/>
      </g>
     </g>
     <g id="text_1">
      <!-- 0 -->
      <g transform="translate(48.651569 303.028562) scale(0.1 -0.1)">
       <defs>
        <path id="DejaVuSans-30" d="M 2034 4250 
Q 1547 4250 1301 3770 
Q 1056 3291 1056 2328 
Q 1056 1369 1301 889 
Q 1547 409 2034 409 
Q 2525 409 2770 889 
Q 3016 1369 3016 2328 
Q 3016 3291 2770 3770 
Q 2525 4250 2034 4250 
z
M 2034 4750 
Q 2819 4750 3233 4129 
Q 3647 3509 3647 2328 
Q 3647 1150 3233 529 
Q 2819 -91 2034 -91 
Q 1250 -91 836 529 
Q 422 1150 422 2328 
Q 422 3509 836 4129 
Q 1250 4750 2034 4750 
z
" transform="scale(0.015625)"/>
       </defs>
       <use xlink:href="#DejaVuSans-30"/>
      </g>
     </g>
    </g>
    <g id="xtick_2">
     <g id="line2d_3">
      <path d="M 92.434938 288.430125 
L 92.434938 22.318125 
" clip-path="url(#p4e824ddb9d)" style="fill: none; stroke: #808080; stroke-width: 0.3; stroke-linecap: square"/>
     </g>
     <g id="line2d_4">
      <g>
       <use xlink:href="#med1cc83b9c" x="92.434938" y="288.430125" style="stroke: #000000; stroke-width: 0.8"/>
      </g>
     </g>
     <g id="text_2">
      <!-- 250 -->
      <g transform="translate(82.891188 303.028562) scale(0.1 -0.1)">
       <defs>
        <path id="DejaVuSans-32" d="M 1228 531 
L 3431 531 
L 3431 0 
L 469 0 
L 469 531 
Q 828 903 1448 1529 
Q 2069 2156 2228 2338 
Q 2531 2678 2651 2914 
Q 2772 3150 2772 3378 
Q 2772 3750 2511 3984 
Q 2250 4219 1831 4219 
Q 1534 4219 1204 4116 
Q 875 4013 500 3803 
L 500 4441 
Q 881 4594 1212 4672 
Q 1544 4750 1819 4750 
Q 2544 4750 2975 4387 
Q 3406 4025 3406 3419 
Q 3406 3131 3298 2873 
Q 3191 2616 2906 2266 
Q 2828 2175 2409 1742 
Q 1991 1309 1228 531 
z
" transform="scale(0.015625)"/>
        <path id="DejaVuSans-35" d="M 691 4666 
L 3169 4666 
L 3169 4134 
L 1269 4134 
L 1269 2991 
Q 1406 3038 1543 3061 
Q 1681 3084 1819 3084 
Q 2600 3084 3056 2656 
Q 3513 2228 3513 1497 
Q 3513 744 3044 326 
Q 2575 -91 1722 -91 
Q 1428 -91 1123 -41 
Q 819 9 494 109 
L 494 744 
Q 775 591 1075 516 
Q 1375 441 1709 441 
Q 2250 441 2565 725 
Q 2881 1009 2881 1497 
Q 2881 1984 2565 2268 
Q 2250 2553 1709 2553 
Q 1456 2553 1204 2497 
Q 953 2441 691 2322 
L 691 4666 
z
" transform="scale(0.015625)"/>
       </defs>
       <use xlink:href="#DejaVuSans-32"/>
       <use xlink:href="#DejaVuSans-35" transform="translate(63.623047 0)"/>
       <use xlink:href="#DejaVuSans-30" transform="translate(127.246094 0)"/>
      </g>
     </g>
    </g>
    <g id="xtick_3">
     <g id="line2d_5">
      <path d="M 133.037057 288.430125 
L 133.037057 22.318125 
" clip-path="url(#p4e824ddb9d)" style="fill: none; stroke: #808080; stroke-width: 0.3; stroke-linecap: square"/>
     </g>
     <g id="line2d_6">
      <g>
       <use xlink:href="#med1cc83b9c" x="133.037057" y="288.430125" style="stroke: #000000; stroke-width: 0.8"/>
      </g>
     </g>
     <g id="text_3">
      <!-- 500 -->
      <g transform="translate(123.493307 303.028562) scale(0.1 -0.1)">
       <use xlink:href="#DejaVuSans-35"/>
       <use xlink:href="#DejaVuSans-30" transform="translate(63.623047 0)"/>
       <use xlink:href="#DejaVuSans-30" transform="translate(127.246094 0)"/>
      </g>
     </g>
    </g>
    <g id="xtick_4">
     <g id="line2d_7">
      <path d="M 173.639177 288.430125 
L 173.639177 22.318125 
" clip-path="url(#p4e824ddb9d)" style="fill: none; stroke: #808080; stroke-width: 0.3; stroke-linecap: square"/>
     </g>
     <g id="line2d_8">
      <g>
       <use xlink:href="#med1cc83b9c" x="173.639177" y="288.430125" style="stroke: #000000; stroke-width: 0.8"/>
      </g>
     </g>
     <g id="text_4">
      <!-- 750 -->
      <g transform="translate(164.095427 303.028562) scale(0.1 -0.1)">
       <defs>
        <path id="DejaVuSans-37" d="M 525 4666 
L 3525 4666 
L 3525 4397 
L 1831 0 
L 1172 0 
L 2766 4134 
L 525 4134 
L 525 4666 
z
" transform="scale(0.015625)"/>
       </defs>
       <use xlink:href="#DejaVuSans-37"/>
       <use xlink:href="#DejaVuSans-35" transform="translate(63.623047 0)"/>
       <use xlink:href="#DejaVuSans-30" transform="translate(127.246094 0)"/>
      </g>
     </g>
    </g>
    <g id="xtick_5">
     <g id="line2d_9">
      <path d="M 214.241296 288.430125 
L 214.241296 22.318125 
" clip-path="url(#p4e824ddb9d)" style="fill: none; stroke: #808080; stroke-width: 0.3; stroke-linecap: square"/>
     </g>
     <g id="line2d_10">
      <g>
       <use xlink:href="#med1cc83b9c" x="214.241296" y="288.430125" style="stroke: #000000; stroke-width: 0.8"/>
      </g>
     </g>
     <g id="text_5">
      <!-- 1000 -->
      <g transform="translate(201.516296 303.028562) scale(0.1 -0.1)">
       <defs>
        <path id="DejaVuSans-31" d="M 794 531 
L 1825 531 
L 1825 4091 
L 703 3866 
L 703 4441 
L 1819 4666 
L 2450 4666 
L 2450 531 
L 3481 531 
L 3481 0 
L 794 0 
L 794 531 
z
" transform="scale(0.015625)"/>
       </defs>
       <use xlink:href="#DejaVuSans-31"/>
       <use xlink:href="#DejaVuSans-30" transform="translate(63.623047 0)"/>
       <use xlink:href="#DejaVuSans-30" transform="translate(127.246094 0)"/>
       <use xlink:href="#DejaVuSans-30" transform="translate(190.869141 0)"/>
      </g>
     </g>
    </g>
    <g id="xtick_6">
     <g id="line2d_11">
      <path d="M 254.843415 288.430125 
L 254.843415 22.318125 
" clip-path="url(#p4e824ddb9d)" style="fill: none; stroke: #808080; stroke-width: 0.3; stroke-linecap: square"/>
     </g>
     <g id="line2d_12">
      <g>
       <use xlink:href="#med1cc83b9c" x="254.843415" y="288.430125" style="stroke: #000000; stroke-width: 0.8"/>
      </g>
     </g>
     <g id="text_6">
      <!-- 1250 -->
      <g transform="translate(242.118415 303.028562) scale(0.1 -0.1)">
       <use xlink:href="#DejaVuSans-31"/>
       <use xlink:href="#DejaVuSans-32" transform="translate(63.623047 0)"/>
       <use xlink:href="#DejaVuSans-35" transform="translate(127.246094 0)"/>
       <use xlink:href="#DejaVuSans-30" transform="translate(190.869141 0)"/>
      </g>
     </g>
    </g>
    <g id="xtick_7">
     <g id="line2d_13">
      <path d="M 295.445534 288.430125 
L 295.445534 22.318125 
" clip-path="url(#p4e824ddb9d)" style="fill: none; stroke: #808080; stroke-width: 0.3; stroke-linecap: square"/>
     </g>
     <g id="line2d_14">
      <g>
       <use xlink:href="#med1cc83b9c" x="295.445534" y="288.430125" style="stroke: #000000; stroke-width: 0.8"/>
      </g>
     </g>
     <g id="text_7">
      <!-- 1500 -->
      <g transform="translate(282.720534 303.028562) scale(0.1 -0.1)">
       <use xlink:href="#DejaVuSans-31"/>
       <use xlink:href="#DejaVuSans-35" transform="translate(63.623047 0)"/>
       <use xlink:href="#DejaVuSans-30" transform="translate(127.246094 0)"/>
       <use xlink:href="#DejaVuSans-30" transform="translate(190.869141 0)"/>
      </g>
     </g>
    </g>
    <g id="xtick_8">
     <g id="line2d_15">
      <path d="M 336.047653 288.430125 
L 336.047653 22.318125 
" clip-path="url(#p4e824ddb9d)" style="fill: none; stroke: #808080; stroke-width: 0.3; stroke-linecap: square"/>
     </g>
     <g id="line2d_16">
      <g>
       <use xlink:href="#med1cc83b9c" x="336.047653" y="288.430125" style="stroke: #000000; stroke-width: 0.8"/>
      </g>
     </g>
     <g id="text_8">
      <!-- 1750 -->
      <g transform="translate(323.322653 303.028562) scale(0.1 -0.1)">
       <use xlink:href="#DejaVuSans-31"/>
       <use xlink:href="#DejaVuSans-37" transform="translate(63.623047 0)"/>
       <use xlink:href="#DejaVuSans-35" transform="translate(127.246094 0)"/>
       <use xlink:href="#DejaVuSans-30" transform="translate(190.869141 0)"/>
      </g>
     </g>
    </g>
    <g id="xtick_9">
     <g id="line2d_17">
      <path d="M 376.649773 288.430125 
L 376.649773 22.318125 
" clip-path="url(#p4e824ddb9d)" style="fill: none; stroke: #808080; stroke-width: 0.3; stroke-linecap: square"/>
     </g>
     <g id="line2d_18">
      <g>
       <use xlink:href="#med1cc83b9c" x="376.649773" y="288.430125" style="stroke: #000000; stroke-width: 0.8"/>
      </g>
     </g>
     <g id="text_9">
      <!-- 2000 -->
      <g transform="translate(363.924773 303.028562) scale(0.1 -0.1)">
       <use xlink:href="#DejaVuSans-32"/>
       <use xlink:href="#DejaVuSans-30" transform="translate(63.623047 0)"/>
       <use xlink:href="#DejaVuSans-30" transform="translate(127.246094 0)"/>
       <use xlink:href="#DejaVuSans-30" transform="translate(190.869141 0)"/>
      </g>
     </g>
    </g>
    <g id="text_10">
     <!-- Frequency / Kayser (cm$^{-1}$) -->
     <g transform="translate(147.6225 318.10825) scale(0.1 -0.1)">
      <defs>
       <path id="DejaVuSans-46" d="M 628 4666 
L 3309 4666 
L 3309 4134 
L 1259 4134 
L 1259 2759 
L 3109 2759 
L 3109 2228 
L 1259 2228 
L 1259 0 
L 628 0 
L 628 4666 
z
" transform="scale(0.015625)"/>
       <path id="DejaVuSans-72" d="M 2631 2963 
Q 2534 3019 2420 3045 
Q 2306 3072 2169 3072 
Q 1681 3072 1420 2755 
Q 1159 2438 1159 1844 
L 1159 0 
L 581 0 
L 581 3500 
L 1159 3500 
L 1159 2956 
Q 1341 3275 1631 3429 
Q 1922 3584 2338 3584 
Q 2397 3584 2469 3576 
Q 2541 3569 2628 3553 
L 2631 2963 
z
" transform="scale(0.015625)"/>
       <path id="DejaVuSans-65" d="M 3597 1894 
L 3597 1613 
L 953 1613 
Q 991 1019 1311 708 
Q 1631 397 2203 397 
Q 2534 397 2845 478 
Q 3156 559 3463 722 
L 3463 178 
Q 3153 47 2828 -22 
Q 2503 -91 2169 -91 
Q 1331 -91 842 396 
Q 353 884 353 1716 
Q 353 2575 817 3079 
Q 1281 3584 2069 3584 
Q 2775 3584 3186 3129 
Q 3597 2675 3597 1894 
z
M 3022 2063 
Q 3016 2534 2758 2815 
Q 2500 3097 2075 3097 
Q 1594 3097 1305 2825 
Q 1016 2553 972 2059 
L 3022 2063 
z
" transform="scale(0.015625)"/>
       <path id="DejaVuSans-71" d="M 947 1747 
Q 947 1113 1208 752 
Q 1469 391 1925 391 
Q 2381 391 2643 752 
Q 2906 1113 2906 1747 
Q 2906 2381 2643 2742 
Q 2381 3103 1925 3103 
Q 1469 3103 1208 2742 
Q 947 2381 947 1747 
z
M 2906 525 
Q 2725 213 2448 61 
Q 2172 -91 1784 -91 
Q 1150 -91 751 415 
Q 353 922 353 1747 
Q 353 2572 751 3078 
Q 1150 3584 1784 3584 
Q 2172 3584 2448 3432 
Q 2725 3281 2906 2969 
L 2906 3500 
L 3481 3500 
L 3481 -1331 
L 2906 -1331 
L 2906 525 
z
" transform="scale(0.015625)"/>
       <path id="DejaVuSans-75" d="M 544 1381 
L 544 3500 
L 1119 3500 
L 1119 1403 
Q 1119 906 1312 657 
Q 1506 409 1894 409 
Q 2359 409 2629 706 
Q 2900 1003 2900 1516 
L 2900 3500 
L 3475 3500 
L 3475 0 
L 2900 0 
L 2900 538 
Q 2691 219 2414 64 
Q 2138 -91 1772 -91 
Q 1169 -91 856 284 
Q 544 659 544 1381 
z
M 1991 3584 
L 1991 3584 
z
" transform="scale(0.015625)"/>
       <path id="DejaVuSans-6e" d="M 3513 2113 
L 3513 0 
L 2938 0 
L 2938 2094 
Q 2938 2591 2744 2837 
Q 2550 3084 2163 3084 
Q 1697 3084 1428 2787 
Q 1159 2491 1159 1978 
L 1159 0 
L 581 0 
L 581 3500 
L 1159 3500 
L 1159 2956 
Q 1366 3272 1645 3428 
Q 1925 3584 2291 3584 
Q 2894 3584 3203 3211 
Q 3513 2838 3513 2113 
z
" transform="scale(0.015625)"/>
       <path id="DejaVuSans-63" d="M 3122 3366 
L 3122 2828 
Q 2878 2963 2633 3030 
Q 2388 3097 2138 3097 
Q 1578 3097 1268 2742 
Q 959 2388 959 1747 
Q 959 1106 1268 751 
Q 1578 397 2138 397 
Q 2388 397 2633 464 
Q 2878 531 3122 666 
L 3122 134 
Q 2881 22 2623 -34 
Q 2366 -91 2075 -91 
Q 1284 -91 818 406 
Q 353 903 353 1747 
Q 353 2603 823 3093 
Q 1294 3584 2113 3584 
Q 2378 3584 2631 3529 
Q 2884 3475 3122 3366 
z
" transform="scale(0.015625)"/>
       <path id="DejaVuSans-79" d="M 2059 -325 
Q 1816 -950 1584 -1140 
Q 1353 -1331 966 -1331 
L 506 -1331 
L 506 -850 
L 844 -850 
Q 1081 -850 1212 -737 
Q 1344 -625 1503 -206 
L 1606 56 
L 191 3500 
L 800 3500 
L 1894 763 
L 2988 3500 
L 3597 3500 
L 2059 -325 
z
" transform="scale(0.015625)"/>
       <path id="DejaVuSans-20" transform="scale(0.015625)"/>
       <path id="DejaVuSans-2f" d="M 1625 4666 
L 2156 4666 
L 531 -594 
L 0 -594 
L 1625 4666 
z
" transform="scale(0.015625)"/>
       <path id="DejaVuSans-4b" d="M 628 4666 
L 1259 4666 
L 1259 2694 
L 3353 4666 
L 4166 4666 
L 1850 2491 
L 4331 0 
L 3500 0 
L 1259 2247 
L 1259 0 
L 628 0 
L 628 4666 
z
" transform="scale(0.015625)"/>
       <path id="DejaVuSans-61" d="M 2194 1759 
Q 1497 1759 1228 1600 
Q 959 1441 959 1056 
Q 959 750 1161 570 
Q 1363 391 1709 391 
Q 2188 391 2477 730 
Q 2766 1069 2766 1631 
L 2766 1759 
L 2194 1759 
z
M 3341 1997 
L 3341 0 
L 2766 0 
L 2766 531 
Q 2569 213 2275 61 
Q 1981 -91 1556 -91 
Q 1019 -91 701 211 
Q 384 513 384 1019 
Q 384 1609 779 1909 
Q 1175 2209 1959 2209 
L 2766 2209 
L 2766 2266 
Q 2766 2663 2505 2880 
Q 2244 3097 1772 3097 
Q 1472 3097 1187 3025 
Q 903 2953 641 2809 
L 641 3341 
Q 956 3463 1253 3523 
Q 1550 3584 1831 3584 
Q 2591 3584 2966 3190 
Q 3341 2797 3341 1997 
z
" transform="scale(0.015625)"/>
       <path id="DejaVuSans-73" d="M 2834 3397 
L 2834 2853 
Q 2591 2978 2328 3040 
Q 2066 3103 1784 3103 
Q 1356 3103 1142 2972 
Q 928 2841 928 2578 
Q 928 2378 1081 2264 
Q 1234 2150 1697 2047 
L 1894 2003 
Q 2506 1872 2764 1633 
Q 3022 1394 3022 966 
Q 3022 478 2636 193 
Q 2250 -91 1575 -91 
Q 1294 -91 989 -36 
Q 684 19 347 128 
L 347 722 
Q 666 556 975 473 
Q 1284 391 1588 391 
Q 1994 391 2212 530 
Q 2431 669 2431 922 
Q 2431 1156 2273 1281 
Q 2116 1406 1581 1522 
L 1381 1569 
Q 847 1681 609 1914 
Q 372 2147 372 2553 
Q 372 3047 722 3315 
Q 1072 3584 1716 3584 
Q 2034 3584 2315 3537 
Q 2597 3491 2834 3397 
z
" transform="scale(0.015625)"/>
       <path id="DejaVuSans-28" d="M 1984 4856 
Q 1566 4138 1362 3434 
Q 1159 2731 1159 2009 
Q 1159 1288 1364 580 
Q 1569 -128 1984 -844 
L 1484 -844 
Q 1016 -109 783 600 
Q 550 1309 550 2009 
Q 550 2706 781 3412 
Q 1013 4119 1484 4856 
L 1984 4856 
z
" transform="scale(0.015625)"/>
       <path id="DejaVuSans-6d" d="M 3328 2828 
Q 3544 3216 3844 3400 
Q 4144 3584 4550 3584 
Q 5097 3584 5394 3201 
Q 5691 2819 5691 2113 
L 5691 0 
L 5113 0 
L 5113 2094 
Q 5113 2597 4934 2840 
Q 4756 3084 4391 3084 
Q 3944 3084 3684 2787 
Q 3425 2491 3425 1978 
L 3425 0 
L 2847 0 
L 2847 2094 
Q 2847 2600 2669 2842 
Q 2491 3084 2119 3084 
Q 1678 3084 1418 2786 
Q 1159 2488 1159 1978 
L 1159 0 
L 581 0 
L 581 3500 
L 1159 3500 
L 1159 2956 
Q 1356 3278 1631 3431 
Q 1906 3584 2284 3584 
Q 2666 3584 2933 3390 
Q 3200 3197 3328 2828 
z
" transform="scale(0.015625)"/>
       <path id="DejaVuSans-2212" d="M 678 2272 
L 4684 2272 
L 4684 1741 
L 678 1741 
L 678 2272 
z
" transform="scale(0.015625)"/>
       <path id="DejaVuSans-29" d="M 513 4856 
L 1013 4856 
Q 1481 4119 1714 3412 
Q 1947 2706 1947 2009 
Q 1947 1309 1714 600 
Q 1481 -109 1013 -844 
L 513 -844 
Q 928 -128 1133 580 
Q 1338 1288 1338 2009 
Q 1338 2731 1133 3434 
Q 928 4138 513 4856 
z
" transform="scale(0.015625)"/>
      </defs>
      <use xlink:href="#DejaVuSans-46" transform="translate(0 0.684375)"/>
      <use xlink:href="#DejaVuSans-72" transform="translate(57.519531 0.684375)"/>
      <use xlink:href="#DejaVuSans-65" transform="translate(98.632812 0.684375)"/>
      <use xlink:href="#DejaVuSans-71" transform="translate(160.15625 0.684375)"/>
      <use xlink:href="#DejaVuSans-75" transform="translate(223.632812 0.684375)"/>
      <use xlink:href="#DejaVuSans-65" transform="translate(287.011719 0.684375)"/>
      <use xlink:href="#DejaVuSans-6e" transform="translate(348.535156 0.684375)"/>
      <use xlink:href="#DejaVuSans-63" transform="translate(411.914062 0.684375)"/>
      <use xlink:href="#DejaVuSans-79" transform="translate(466.894531 0.684375)"/>
      <use xlink:href="#DejaVuSans-20" transform="translate(526.074219 0.684375)"/>
      <use xlink:href="#DejaVuSans-2f" transform="translate(557.861328 0.684375)"/>
      <use xlink:href="#DejaVuSans-20" transform="translate(591.552734 0.684375)"/>
      <use xlink:href="#DejaVuSans-4b" transform="translate(623.339844 0.684375)"/>
      <use xlink:href="#DejaVuSans-61" transform="translate(688.916016 0.684375)"/>
      <use xlink:href="#DejaVuSans-79" transform="translate(750.195312 0.684375)"/>
      <use xlink:href="#DejaVuSans-73" transform="translate(809.375 0.684375)"/>
      <use xlink:href="#DejaVuSans-65" transform="translate(861.474609 0.684375)"/>
      <use xlink:href="#DejaVuSans-72" transform="translate(922.998047 0.684375)"/>
      <use xlink:href="#DejaVuSans-20" transform="translate(964.111328 0.684375)"/>
      <use xlink:href="#DejaVuSans-28" transform="translate(995.898438 0.684375)"/>
      <use xlink:href="#DejaVuSans-63" transform="translate(1034.912109 0.684375)"/>
      <use xlink:href="#DejaVuSans-6d" transform="translate(1089.892578 0.684375)"/>
      <use xlink:href="#DejaVuSans-2212" transform="translate(1188.261719 38.965625) scale(0.7)"/>
      <use xlink:href="#DejaVuSans-31" transform="translate(1246.914062 38.965625) scale(0.7)"/>
      <use xlink:href="#DejaVuSans-29" transform="translate(1294.18457 0.684375)"/>
     </g>
    </g>
   </g>
   <g id="matplotlib.axis_2">
    <g id="ytick_1">
     <g id="line2d_19">
      <path d="M 35.7625 276.33846 
L 392.8825 276.33846 
" clip-path="url(#p4e824ddb9d)" style="fill: none; stroke: #808080; stroke-width: 0.3; stroke-linecap: square"/>
     </g>
     <g id="line2d_20">
      <defs>
       <path id="mccde61d6a4" d="M 0 0 
L -3.5 0 
" style="stroke: #000000; stroke-width: 0.8"/>
      </defs>
      <g>
       <use xlink:href="#mccde61d6a4" x="35.7625" y="276.33846" style="stroke: #000000; stroke-width: 0.8"/>
      </g>
     </g>
     <g id="text_11">
      <!-- 0 -->
      <g transform="translate(22.4 280.137679) scale(0.1 -0.1)">
       <use xlink:href="#DejaVuSans-30"/>
      </g>
     </g>
    </g>
    <g id="ytick_2">
     <g id="line2d_21">
      <path d="M 35.7625 222.008318 
L 392.8825 222.008318 
" clip-path="url(#p4e824ddb9d)" style="fill: none; stroke: #808080; stroke-width: 0.3; stroke-linecap: square"/>
     </g>
     <g id="line2d_22">
      <g>
       <use xlink:href="#mccde61d6a4" x="35.7625" y="222.008318" style="stroke: #000000; stroke-width: 0.8"/>
      </g>
     </g>
     <g id="text_12">
      <!-- 1 -->
      <g transform="translate(22.4 225.807537) scale(0.1 -0.1)">
       <use xlink:href="#DejaVuSans-31"/>
      </g>
     </g>
    </g>
    <g id="ytick_3">
     <g id="line2d_23">
      <path d="M 35.7625 167.678176 
L 392.8825 167.678176 
" clip-path="url(#p4e824ddb9d)" style="fill: none; stroke: #808080; stroke-width: 0.3; stroke-linecap: square"/>
     </g>
     <g id="line2d_24">
      <g>
       <use xlink:href="#mccde61d6a4" x="35.7625" y="167.678176" style="stroke: #000000; stroke-width: 0.8"/>
      </g>
     </g>
     <g id="text_13">
      <!-- 2 -->
      <g transform="translate(22.4 171.477394) scale(0.1 -0.1)">
       <use xlink:href="#DejaVuSans-32"/>
      </g>
     </g>
    </g>
    <g id="ytick_4">
     <g id="line2d_25">
      <path d="M 35.7625 113.348033 
L 392.8825 113.348033 
" clip-path="url(#p4e824ddb9d)" style="fill: none; stroke: #808080; stroke-width: 0.3; stroke-linecap: square"/>
     </g>
     <g id="line2d_26">
      <g>
       <use xlink:href="#mccde61d6a4" x="35.7625" y="113.348033" style="stroke: #000000; stroke-width: 0.8"/>
      </g>
     </g>
     <g id="text_14">
      <!-- 3 -->
      <g transform="translate(22.4 117.147252) scale(0.1 -0.1)">
       <defs>
        <path id="DejaVuSans-33" d="M 2597 2516 
Q 3050 2419 3304 2112 
Q 3559 1806 3559 1356 
Q 3559 666 3084 287 
Q 2609 -91 1734 -91 
Q 1441 -91 1130 -33 
Q 819 25 488 141 
L 488 750 
Q 750 597 1062 519 
Q 1375 441 1716 441 
Q 2309 441 2620 675 
Q 2931 909 2931 1356 
Q 2931 1769 2642 2001 
Q 2353 2234 1838 2234 
L 1294 2234 
L 1294 2753 
L 1863 2753 
Q 2328 2753 2575 2939 
Q 2822 3125 2822 3475 
Q 2822 3834 2567 4026 
Q 2313 4219 1838 4219 
Q 1578 4219 1281 4162 
Q 984 4106 628 3988 
L 628 4550 
Q 988 4650 1302 4700 
Q 1616 4750 1894 4750 
Q 2613 4750 3031 4423 
Q 3450 4097 3450 3541 
Q 3450 3153 3228 2886 
Q 3006 2619 2597 2516 
z
" transform="scale(0.015625)"/>
       </defs>
       <use xlink:href="#DejaVuSans-33"/>
      </g>
     </g>
    </g>
    <g id="ytick_5">
     <g id="line2d_27">
      <path d="M 35.7625 59.017891 
L 392.8825 59.017891 
" clip-path="url(#p4e824ddb9d)" style="fill: none; stroke: #808080; stroke-width: 0.3; stroke-linecap: square"/>
     </g>
     <g id="line2d_28">
      <g>
       <use xlink:href="#mccde61d6a4" x="35.7625" y="59.017891" style="stroke: #000000; stroke-width: 0.8"/>
      </g>
     </g>
     <g id="text_15">
      <!-- 4 -->
      <g transform="translate(22.4 62.81711) scale(0.1 -0.1)">
       <defs>
        <path id="DejaVuSans-34" d="M 2419 4116 
L 825 1625 
L 2419 1625 
L 2419 4116 
z
M 2253 4666 
L 3047 4666 
L 3047 1625 
L 3713 1625 
L 3713 1100 
L 3047 1100 
L 3047 0 
L 2419 0 
L 2419 1100 
L 313 1100 
L 313 1709 
L 2253 4666 
z
" transform="scale(0.015625)"/>
       </defs>
       <use xlink:href="#DejaVuSans-34"/>
      </g>
     </g>
    </g>
    <g id="text_16">
     <!-- Spectral radiance ($Wm^{-2}sr^{-1}Hz^{-1}$) -->
     <g transform="translate(16.3 242.274125) rotate(-90) scale(0.1 -0.1)">
      <defs>
       <path id="DejaVuSans-53" d="M 3425 4513 
L 3425 3897 
Q 3066 4069 2747 4153 
Q 2428 4238 2131 4238 
Q 1616 4238 1336 4038 
Q 1056 3838 1056 3469 
Q 1056 3159 1242 3001 
Q 1428 2844 1947 2747 
L 2328 2669 
Q 3034 2534 3370 2195 
Q 3706 1856 3706 1288 
Q 3706 609 3251 259 
Q 2797 -91 1919 -91 
Q 1588 -91 1214 -16 
Q 841 59 441 206 
L 441 856 
Q 825 641 1194 531 
Q 1563 422 1919 422 
Q 2459 422 2753 634 
Q 3047 847 3047 1241 
Q 3047 1584 2836 1778 
Q 2625 1972 2144 2069 
L 1759 2144 
Q 1053 2284 737 2584 
Q 422 2884 422 3419 
Q 422 4038 858 4394 
Q 1294 4750 2059 4750 
Q 2388 4750 2728 4690 
Q 3069 4631 3425 4513 
z
" transform="scale(0.015625)"/>
       <path id="DejaVuSans-70" d="M 1159 525 
L 1159 -1331 
L 581 -1331 
L 581 3500 
L 1159 3500 
L 1159 2969 
Q 1341 3281 1617 3432 
Q 1894 3584 2278 3584 
Q 2916 3584 3314 3078 
Q 3713 2572 3713 1747 
Q 3713 922 3314 415 
Q 2916 -91 2278 -91 
Q 1894 -91 1617 61 
Q 1341 213 1159 525 
z
M 3116 1747 
Q 3116 2381 2855 2742 
Q 2594 3103 2138 3103 
Q 1681 3103 1420 2742 
Q 1159 2381 1159 1747 
Q 1159 1113 1420 752 
Q 1681 391 2138 391 
Q 2594 391 2855 752 
Q 3116 1113 3116 1747 
z
" transform="scale(0.015625)"/>
       <path id="DejaVuSans-74" d="M 1172 4494 
L 1172 3500 
L 2356 3500 
L 2356 3053 
L 1172 3053 
L 1172 1153 
Q 1172 725 1289 603 
Q 1406 481 1766 481 
L 2356 481 
L 2356 0 
L 1766 0 
Q 1100 0 847 248 
Q 594 497 594 1153 
L 594 3053 
L 172 3053 
L 172 3500 
L 594 3500 
L 594 4494 
L 1172 4494 
z
" transform="scale(0.015625)"/>
       <path id="DejaVuSans-6c" d="M 603 4863 
L 1178 4863 
L 1178 0 
L 603 0 
L 603 4863 
z
" transform="scale(0.015625)"/>
       <path id="DejaVuSans-64" d="M 2906 2969 
L 2906 4863 
L 3481 4863 
L 3481 0 
L 2906 0 
L 2906 525 
Q 2725 213 2448 61 
Q 2172 -91 1784 -91 
Q 1150 -91 751 415 
Q 353 922 353 1747 
Q 353 2572 751 3078 
Q 1150 3584 1784 3584 
Q 2172 3584 2448 3432 
Q 2725 3281 2906 2969 
z
M 947 1747 
Q 947 1113 1208 752 
Q 1469 391 1925 391 
Q 2381 391 2643 752 
Q 2906 1113 2906 1747 
Q 2906 2381 2643 2742 
Q 2381 3103 1925 3103 
Q 1469 3103 1208 2742 
Q 947 2381 947 1747 
z
" transform="scale(0.015625)"/>
       <path id="DejaVuSans-69" d="M 603 3500 
L 1178 3500 
L 1178 0 
L 603 0 
L 603 3500 
z
M 603 4863 
L 1178 4863 
L 1178 4134 
L 603 4134 
L 603 4863 
z
" transform="scale(0.015625)"/>
       <path id="DejaVuSans-Oblique-57" d="M 616 4666 
L 1228 4666 
L 1453 697 
L 3213 4666 
L 3916 4666 
L 4147 697 
L 5888 4666 
L 6528 4666 
L 4453 0 
L 3659 0 
L 3444 3891 
L 1697 0 
L 903 0 
L 616 4666 
z
" transform="scale(0.015625)"/>
       <path id="DejaVuSans-Oblique-6d" d="M 5747 2113 
L 5338 0 
L 4763 0 
L 5166 2094 
Q 5191 2228 5203 2325 
Q 5216 2422 5216 2491 
Q 5216 2772 5059 2928 
Q 4903 3084 4622 3084 
Q 4203 3084 3875 2770 
Q 3547 2456 3450 1953 
L 3066 0 
L 2491 0 
L 2900 2094 
Q 2925 2209 2937 2307 
Q 2950 2406 2950 2484 
Q 2950 2769 2794 2926 
Q 2638 3084 2363 3084 
Q 1938 3084 1609 2770 
Q 1281 2456 1184 1953 
L 800 0 
L 225 0 
L 909 3500 
L 1484 3500 
L 1375 2956 
Q 1609 3263 1923 3423 
Q 2238 3584 2597 3584 
Q 2978 3584 3223 3384 
Q 3469 3184 3519 2828 
Q 3781 3197 4126 3390 
Q 4472 3584 4856 3584 
Q 5306 3584 5551 3325 
Q 5797 3066 5797 2591 
Q 5797 2488 5784 2364 
Q 5772 2241 5747 2113 
z
" transform="scale(0.015625)"/>
       <path id="DejaVuSans-Oblique-73" d="M 3200 3397 
L 3091 2853 
Q 2863 2978 2609 3040 
Q 2356 3103 2088 3103 
Q 1634 3103 1373 2948 
Q 1113 2794 1113 2528 
Q 1113 2219 1719 2053 
Q 1766 2041 1788 2034 
L 1972 1978 
Q 2547 1819 2739 1644 
Q 2931 1469 2931 1166 
Q 2931 609 2489 259 
Q 2047 -91 1331 -91 
Q 1053 -91 747 -37 
Q 441 16 72 128 
L 184 722 
Q 500 559 806 475 
Q 1113 391 1394 391 
Q 1816 391 2080 572 
Q 2344 753 2344 1031 
Q 2344 1331 1650 1516 
L 1591 1531 
L 1394 1581 
Q 956 1697 753 1886 
Q 550 2075 550 2369 
Q 550 2928 970 3256 
Q 1391 3584 2113 3584 
Q 2397 3584 2667 3537 
Q 2938 3491 3200 3397 
z
" transform="scale(0.015625)"/>
       <path id="DejaVuSans-Oblique-72" d="M 2853 2969 
Q 2766 3016 2653 3041 
Q 2541 3066 2413 3066 
Q 1953 3066 1609 2717 
Q 1266 2369 1153 1784 
L 800 0 
L 225 0 
L 909 3500 
L 1484 3500 
L 1375 2956 
Q 1603 3259 1920 3421 
Q 2238 3584 2597 3584 
Q 2691 3584 2781 3573 
Q 2872 3563 2963 3538 
L 2853 2969 
z
" transform="scale(0.015625)"/>
       <path id="DejaVuSans-Oblique-48" d="M 1081 4666 
L 1716 4666 
L 1344 2753 
L 3634 2753 
L 4006 4666 
L 4641 4666 
L 3731 0 
L 3097 0 
L 3531 2222 
L 1241 2222 
L 806 0 
L 172 0 
L 1081 4666 
z
" transform="scale(0.015625)"/>
       <path id="DejaVuSans-Oblique-7a" d="M 744 3500 
L 3475 3500 
L 3372 2975 
L 738 459 
L 2913 459 
L 2822 0 
L -19 0 
L 84 525 
L 2719 3041 
L 653 3041 
L 744 3500 
z
" transform="scale(0.015625)"/>
      </defs>
      <use xlink:href="#DejaVuSans-53" transform="translate(0 0.765625)"/>
      <use xlink:href="#DejaVuSans-70" transform="translate(63.476562 0.765625)"/>
      <use xlink:href="#DejaVuSans-65" transform="translate(126.953125 0.765625)"/>
      <use xlink:href="#DejaVuSans-63" transform="translate(188.476562 0.765625)"/>
      <use xlink:href="#DejaVuSans-74" transform="translate(243.457031 0.765625)"/>
      <use xlink:href="#DejaVuSans-72" transform="translate(282.666016 0.765625)"/>
      <use xlink:href="#DejaVuSans-61" transform="translate(323.779297 0.765625)"/>
      <use xlink:href="#DejaVuSans-6c" transform="translate(385.058594 0.765625)"/>
      <use xlink:href="#DejaVuSans-20" transform="translate(412.841797 0.765625)"/>
      <use xlink:href="#DejaVuSans-72" transform="translate(444.628906 0.765625)"/>
      <use xlink:href="#DejaVuSans-61" transform="translate(485.742188 0.765625)"/>
      <use xlink:href="#DejaVuSans-64" transform="translate(547.021484 0.765625)"/>
      <use xlink:href="#DejaVuSans-69" transform="translate(610.498047 0.765625)"/>
      <use xlink:href="#DejaVuSans-61" transform="translate(638.28125 0.765625)"/>
      <use xlink:href="#DejaVuSans-6e" transform="translate(699.560547 0.765625)"/>
      <use xlink:href="#DejaVuSans-63" transform="translate(762.939453 0.765625)"/>
      <use xlink:href="#DejaVuSans-65" transform="translate(817.919922 0.765625)"/>
      <use xlink:href="#DejaVuSans-20" transform="translate(879.443359 0.765625)"/>
      <use xlink:href="#DejaVuSans-28" transform="translate(911.230469 0.765625)"/>
      <use xlink:href="#DejaVuSans-Oblique-57" transform="translate(950.244141 0.765625)"/>
      <use xlink:href="#DejaVuSans-Oblique-6d" transform="translate(1049.121094 0.765625)"/>
      <use xlink:href="#DejaVuSans-2212" transform="translate(1151.183099 39.046875) scale(0.7)"/>
      <use xlink:href="#DejaVuSans-32" transform="translate(1209.835443 39.046875) scale(0.7)"/>
      <use xlink:href="#DejaVuSans-Oblique-73" transform="translate(1257.105951 0.765625)"/>
      <use xlink:href="#DejaVuSans-Oblique-72" transform="translate(1309.20556 0.765625)"/>
      <use xlink:href="#DejaVuSans-2212" transform="translate(1354.968737 39.046875) scale(0.7)"/>
      <use xlink:href="#DejaVuSans-31" transform="translate(1413.621081 39.046875) scale(0.7)"/>
      <use xlink:href="#DejaVuSans-Oblique-48" transform="translate(1460.891589 0.765625)"/>
      <use xlink:href="#DejaVuSans-Oblique-7a" transform="translate(1536.086901 0.765625)"/>
      <use xlink:href="#DejaVuSans-2212" transform="translate(1593.043281 39.046875) scale(0.7)"/>
      <use xlink:href="#DejaVuSans-31" transform="translate(1651.695625 39.046875) scale(0.7)"/>
      <use xlink:href="#DejaVuSans-29" transform="translate(1698.966133 0.765625)"/>
     </g>
    </g>
    <g id="text_17">
     <!-- 1e−12 -->
     <g transform="translate(35.7625 19.318125) scale(0.1 -0.1)">
      <use xlink:href="#DejaVuSans-31"/>
      <use xlink:href="#DejaVuSans-65" transform="translate(63.623047 0)"/>
      <use xlink:href="#DejaVuSans-2212" transform="translate(125.146484 0)"/>
      <use xlink:href="#DejaVuSans-31" transform="translate(208.935547 0)"/>
      <use xlink:href="#DejaVuSans-32" transform="translate(272.558594 0)"/>
     </g>
    </g>
   </g>
   <g id="line2d_29">
    <path d="M 51.995227 276.334125 
L 52.645838 276.23156 
L 53.947058 275.722779 
L 54.597669 275.341997 
L 55.248279 274.816858 
L 55.898889 274.621938 
L 56.549499 273.430447 
L 57.20011 273.399763 
L 58.50133 271.987474 
L 59.151941 270.095098 
L 59.802551 269.047051 
L 61.103772 268.430494 
L 61.754382 266.020041 
L 62.404992 264.827298 
L 63.055603 265.182798 
L 63.706213 264.117038 
L 64.356823 261.102094 
L 65.007434 260.260685 
L 65.658044 258.09974 
L 66.308654 258.542441 
L 66.959264 257.811774 
L 67.609875 254.43138 
L 68.260485 254.89106 
L 68.911095 253.284014 
L 69.561706 248.777196 
L 70.212316 246.559859 
L 70.862926 245.609261 
L 71.513537 247.305873 
L 72.164147 243.678489 
L 72.814757 241.710156 
L 73.465368 244.184755 
L 74.115978 237.487102 
L 74.766588 239.689824 
L 75.417198 232.969719 
L 76.067809 239.091239 
L 76.718419 237.617409 
L 77.369029 234.822166 
L 78.01964 224.693672 
L 78.67025 223.775097 
L 79.32086 229.494615 
L 79.971471 231.031577 
L 81.272691 227.920943 
L 81.923302 212.36282 
L 82.573912 215.807986 
L 83.224522 218.17617 
L 83.875133 215.060609 
L 84.525743 217.911524 
L 85.176353 211.510345 
L 85.826963 214.764417 
L 87.128184 197.181898 
L 87.778794 216.505658 
L 88.429405 205.891798 
L 89.080015 202.712287 
L 89.730625 212.332449 
L 90.381236 182.652337 
L 91.031846 183.632525 
L 91.682456 210.49163 
L 92.333067 193.82409 
L 92.983677 204.907994 
L 93.634287 183.283716 
L 94.284898 172.398937 
L 94.935508 182.278966 
L 95.586118 170.040439 
L 96.236728 172.689345 
L 96.887339 200.00726 
L 97.537949 188.417398 
L 98.188559 169.368336 
L 98.83917 201.805097 
L 99.48978 158.467252 
L 100.14039 158.543311 
L 100.791001 179.923525 
L 101.441611 163.531498 
L 102.092221 197.558723 
L 102.742832 152.954343 
L 103.393442 146.107498 
L 104.044052 157.031042 
L 104.694663 161.142273 
L 105.345273 154.208712 
L 105.995883 152.550741 
L 106.646493 144.356692 
L 107.297104 148.533143 
L 107.947714 143.054513 
L 108.598324 171.716695 
L 109.248935 158.077063 
L 109.899545 173.987459 
L 110.550155 135.422104 
L 111.200766 113.442322 
L 111.851376 173.764022 
L 112.501986 137.62912 
L 113.803207 112.750517 
L 114.453817 183.863032 
L 115.104427 105.749613 
L 115.755038 128.801604 
L 116.405648 168.11854 
L 117.056258 112.772856 
L 117.706869 120.557998 
L 118.357479 90.388345 
L 119.008089 98.59864 
L 119.6587 166.103436 
L 120.30931 122.299807 
L 120.95992 120.568083 
L 121.610531 94.103831 
L 122.261141 85.197959 
L 122.911751 85.407866 
L 123.562362 174.233489 
L 124.212972 89.785487 
L 124.863582 88.849912 
L 125.514192 101.912081 
L 126.164803 182.421401 
L 126.815413 104.74743 
L 127.466023 76.836555 
L 128.116634 109.592004 
L 128.767244 118.49731 
L 129.417854 66.807094 
L 130.719075 93.120586 
L 131.369685 73.202307 
L 132.020296 72.33306 
L 132.670906 54.39663 
L 133.321516 118.236662 
L 134.622737 71.67105 
L 135.273347 64.758356 
L 135.923957 186.567832 
L 136.574568 69.093613 
L 137.225178 148.944387 
L 137.875788 52.744767 
L 138.526399 59.836336 
L 139.177009 53.38825 
L 139.827619 59.965711 
L 140.47823 107.949185 
L 141.12884 113.550795 
L 141.77945 63.309297 
L 142.430061 41.956979 
L 143.080671 44.239928 
L 143.731281 65.239218 
L 144.381892 96.113969 
L 145.032502 54.203848 
L 146.333722 71.714501 
L 146.984333 51.62688 
L 147.634943 62.613679 
L 148.285553 68.404189 
L 148.936164 64.182487 
L 149.586774 42.431055 
L 150.237384 36.568998 
L 150.887995 35.958158 
L 151.538605 54.225703 
L 152.189215 51.669616 
L 152.839826 43.178681 
L 153.490436 86.649893 
L 154.141046 37.175473 
L 154.791656 60.06686 
L 155.442267 120.396529 
L 156.092877 53.052529 
L 156.743487 54.510041 
L 157.394098 34.414125 
L 158.044708 35.752511 
L 158.695318 49.522255 
L 159.345929 46.356482 
L 159.996539 39.398833 
L 160.647149 77.3233 
L 161.29776 41.921212 
L 161.94837 47.462803 
L 162.59898 38.387512 
L 163.249591 44.198358 
L 163.900201 88.933857 
L 164.550811 142.797081 
L 165.201421 126.01726 
L 165.852032 44.966427 
L 166.502642 74.903742 
L 167.153252 44.939657 
L 167.803863 74.327914 
L 168.454473 45.160046 
L 169.105083 45.148531 
L 169.755694 45.545626 
L 170.406304 59.113786 
L 171.056914 48.183066 
L 171.707525 48.804932 
L 172.358135 75.264469 
L 173.008745 52.671224 
L 173.659356 52.181156 
L 174.309966 75.796279 
L 174.960576 52.935904 
L 175.611186 53.747666 
L 176.261797 54.771511 
L 176.912407 96.350347 
L 177.563017 58.359513 
L 178.213628 60.635714 
L 178.864238 60.115085 
L 179.514848 61.960939 
L 180.165459 61.450814 
L 181.466679 95.470315 
L 182.11729 66.491237 
L 182.7679 66.906327 
L 183.41851 66.828543 
L 184.069121 77.731726 
L 184.719731 68.80636 
L 185.370341 69.966241 
L 186.020951 71.724748 
L 186.671562 72.316801 
L 187.322172 73.432773 
L 187.972782 74.877326 
L 188.623393 76.870114 
L 189.274003 77.061216 
L 189.924613 80.181325 
L 190.575224 88.702567 
L 191.225834 80.901026 
L 191.876444 81.827302 
L 193.177665 84.86705 
L 193.828275 85.454881 
L 194.478885 93.183658 
L 195.129496 88.086954 
L 195.780106 89.969311 
L 196.430716 91.26912 
L 197.081327 91.522833 
L 197.731937 92.831385 
L 198.382547 94.804089 
L 199.033158 100.146509 
L 199.683768 98.295593 
L 200.334378 97.965389 
L 200.984989 103.133261 
L 201.635599 105.695289 
L 202.286209 101.598208 
L 203.58743 103.901932 
L 204.88865 106.425167 
L 205.539261 108.015461 
L 206.189871 108.989866 
L 206.840481 110.456108 
L 207.491092 111.405747 
L 208.141702 112.610652 
L 209.442923 115.695943 
L 212.045364 119.981373 
L 212.695974 121.453465 
L 213.346585 122.601707 
L 213.997195 124.224595 
L 214.647805 124.912254 
L 215.298415 126.122466 
L 215.949026 128.674182 
L 216.599636 168.735071 
L 217.250246 130.156018 
L 217.900857 130.942583 
L 218.551467 132.172747 
L 219.202077 149.121188 
L 219.852688 134.511723 
L 220.503298 135.963789 
L 221.153908 149.266295 
L 221.804519 138.058396 
L 222.455129 139.599731 
L 223.105739 140.518262 
L 223.75635 147.255228 
L 224.40696 168.536292 
L 225.05757 150.482462 
L 225.70818 145.117478 
L 226.358791 155.401398 
L 227.009401 147.337905 
L 228.310622 149.655646 
L 228.961232 153.013859 
L 229.611842 151.899346 
L 230.262453 153.672853 
L 230.913063 156.229557 
L 231.563673 199.184669 
L 232.214284 158.218929 
L 232.864894 158.736768 
L 233.515504 158.890808 
L 234.166115 160.343409 
L 234.816725 160.744198 
L 235.467335 161.941798 
L 236.117945 167.692714 
L 236.768556 165.193161 
L 237.419166 165.062491 
L 238.069776 166.247002 
L 238.720387 168.959601 
L 240.021607 169.213832 
L 240.672218 171.557919 
L 241.322828 173.209837 
L 241.973438 173.461979 
L 242.624049 217.543045 
L 243.274659 179.388822 
L 243.925269 175.877352 
L 244.575879 217.369312 
L 245.22649 178.92855 
L 245.8771 179.043115 
L 246.52771 191.184538 
L 247.178321 180.43988 
L 247.828931 182.390127 
L 248.479541 197.052064 
L 249.130152 192.800579 
L 249.780762 209.678412 
L 250.431372 191.516643 
L 251.081983 198.900645 
L 251.732593 187.115018 
L 252.383203 188.040303 
L 253.033814 193.314006 
L 253.684424 215.291419 
L 254.335034 194.489548 
L 255.636255 202.796617 
L 256.286865 224.860867 
L 256.937475 203.647971 
L 257.588086 219.507702 
L 258.238696 227.600064 
L 258.889306 203.45215 
L 259.539917 203.27119 
L 260.190527 204.640306 
L 260.841137 227.460682 
L 261.491748 217.253961 
L 262.142358 229.962637 
L 262.792968 205.600612 
L 263.443579 206.413214 
L 264.094189 229.542271 
L 264.744799 223.285345 
L 265.395409 242.439974 
L 266.04602 267.452722 
L 266.69663 232.443319 
L 267.34724 220.527069 
L 267.997851 221.33362 
L 268.648461 232.584079 
L 269.299071 256.042214 
L 269.949682 235.739085 
L 270.600292 239.87206 
L 271.250902 233.245724 
L 271.901513 258.690493 
L 272.552123 251.387474 
L 273.202733 271.416156 
L 273.853344 243.74477 
L 274.503954 254.385169 
L 275.154564 273.383963 
L 275.805174 247.871178 
L 276.455785 244.603767 
L 277.106395 263.536518 
L 277.757005 257.527626 
L 278.407616 264.278695 
L 279.058226 272.296071 
L 279.708836 254.012132 
L 280.359447 252.52848 
L 281.010057 252.967029 
L 281.660667 257.333681 
L 282.311278 271.436302 
L 283.612498 255.953736 
L 284.263108 260.995155 
L 284.913719 263.874892 
L 285.564329 260.568593 
L 286.214939 254.637642 
L 286.86555 264.844055 
L 287.51616 261.101997 
L 288.16677 271.095749 
L 288.817381 273.653783 
L 289.467991 264.998586 
L 290.118601 263.752286 
L 290.769212 269.384527 
L 291.419822 266.650544 
L 292.070432 260.472821 
L 292.721043 260.6175 
L 293.371653 274.18885 
L 294.022263 270.877861 
L 294.672873 269.18581 
L 295.323484 271.698226 
L 295.974094 267.984404 
L 296.624704 274.56678 
L 297.275315 267.825275 
L 297.925925 270.169114 
L 298.576535 269.864547 
L 299.227146 271.773118 
L 299.877756 274.855211 
L 300.528366 269.799137 
L 301.178977 270.269229 
L 301.829587 274.901232 
L 302.480197 272.862261 
L 303.130808 267.911236 
L 303.781418 268.67262 
L 305.082638 274.019552 
L 305.733249 270.038676 
L 306.383859 269.357118 
L 307.034469 270.326316 
L 307.68508 273.549058 
L 308.33569 269.075953 
L 308.9863 268.607308 
L 309.636911 262.37041 
L 310.287521 267.511062 
L 310.938131 266.408414 
L 311.588742 260.816039 
L 312.239352 273.925178 
L 312.889962 272.222382 
L 313.540573 267.667169 
L 314.191183 272.901354 
L 314.841793 271.050995 
L 315.492403 275.485986 
L 316.143014 273.804937 
L 316.793624 269.849885 
L 317.444234 275.489587 
L 318.094845 270.762607 
L 318.745455 271.14055 
L 319.396065 275.60236 
L 320.046676 274.212969 
L 320.697286 273.308541 
L 321.347896 270.547212 
L 321.998507 273.963536 
L 322.649117 272.233164 
L 323.299727 275.734171 
L 323.950337 275.747106 
L 324.600948 273.356087 
L 325.251558 275.051679 
L 325.902168 272.598909 
L 326.552779 271.659346 
L 327.203389 275.751143 
L 327.853999 275.791604 
L 328.50461 273.213038 
L 329.15522 273.129656 
L 329.80583 271.53258 
L 330.456441 274.406335 
L 331.107051 273.592702 
L 331.757661 274.642925 
L 332.408272 270.542348 
L 333.058882 272.815488 
L 334.360102 275.63073 
L 335.010713 275.930153 
L 335.661323 274.632836 
L 336.311933 275.015401 
L 336.962544 272.026403 
L 337.613154 271.694824 
L 338.263764 272.115837 
L 338.914375 273.448522 
L 339.564985 275.123464 
L 340.215595 275.939063 
L 340.866206 272.745188 
L 341.516816 272.572899 
L 342.167426 270.693605 
L 342.818037 274.339581 
L 343.468647 274.533395 
L 344.119257 275.922885 
L 344.769867 270.746985 
L 345.420478 275.955084 
L 346.071088 272.656372 
L 346.721698 268.661559 
L 347.372309 268.444327 
L 348.022919 272.487071 
L 348.673529 272.967255 
L 349.32414 272.973541 
L 349.97475 272.304687 
L 350.62536 271.122763 
L 351.275971 275.322117 
L 351.926581 276.081024 
L 352.577191 269.803946 
L 353.227802 268.647861 
L 353.878412 272.979406 
L 354.529022 270.571188 
L 355.179632 276.016827 
L 355.830243 272.158564 
L 356.480853 269.031915 
L 357.131463 273.104363 
L 357.782074 271.500857 
L 358.432684 272.177771 
L 359.083294 271.586768 
L 359.733905 273.231093 
L 360.384515 267.853161 
L 361.685736 275.31864 
L 362.336346 272.401376 
L 362.986956 272.135641 
L 364.288177 273.56784 
L 364.938787 271.063381 
L 366.240008 268.326553 
L 366.890618 271.096931 
L 367.541228 273.107108 
L 368.842449 268.413366 
L 369.493059 271.784812 
L 370.14367 269.4124 
L 370.79428 269.707744 
L 371.44489 273.940191 
L 372.095501 268.437434 
L 372.746111 271.861338 
L 373.396721 267.886361 
L 374.047331 268.555584 
L 374.697942 273.78111 
L 375.348552 275.651701 
L 375.999162 270.017077 
L 376.649773 271.659394 
L 376.649773 271.659394 
" clip-path="url(#p4e824ddb9d)" style="fill: none; stroke: #1f77b4; stroke-width: 0.7; stroke-linecap: square"/>
   </g>
   <g id="patch_3">
    <path d="M 35.7625 288.430125 
L 35.7625 22.318125 
" style="fill: none; stroke: #000000; stroke-width: 0.8; stroke-linejoin: miter; stroke-linecap: square"/>
   </g>
   <g id="patch_4">
    <path d="M 392.8825 288.430125 
L 392.8825 22.318125 
" style="fill: none; stroke: #000000; stroke-width: 0.8; stroke-linejoin: miter; stroke-linecap: square"/>
   </g>
   <g id="patch_5">
    <path d="M 35.7625 288.430125 
L 392.8825 288.430125 
" style="fill: none; stroke: #000000; stroke-width: 0.8; stroke-linejoin: miter; stroke-linecap: square"/>
   </g>
   <g id="patch_6">
    <path d="M 35.7625 22.318125 
L 392.8825 22.318125 
" style="fill: none; stroke: #000000; stroke-width: 0.8; stroke-linejoin: miter; stroke-linecap: square"/>
   </g>
   <g id="text_18">
    <!-- OLR at TOA for (H2O) -->
    <g transform="translate(150.05875 16.318125) scale(0.12 -0.12)">
     <defs>
      <path id="DejaVuSans-4f" d="M 2522 4238 
Q 1834 4238 1429 3725 
Q 1025 3213 1025 2328 
Q 1025 1447 1429 934 
Q 1834 422 2522 422 
Q 3209 422 3611 934 
Q 4013 1447 4013 2328 
Q 4013 3213 3611 3725 
Q 3209 4238 2522 4238 
z
M 2522 4750 
Q 3503 4750 4090 4092 
Q 4678 3434 4678 2328 
Q 4678 1225 4090 567 
Q 3503 -91 2522 -91 
Q 1538 -91 948 565 
Q 359 1222 359 2328 
Q 359 3434 948 4092 
Q 1538 4750 2522 4750 
z
" transform="scale(0.015625)"/>
      <path id="DejaVuSans-4c" d="M 628 4666 
L 1259 4666 
L 1259 531 
L 3531 531 
L 3531 0 
L 628 0 
L 628 4666 
z
" transform="scale(0.015625)"/>
      <path id="DejaVuSans-52" d="M 2841 2188 
Q 3044 2119 3236 1894 
Q 3428 1669 3622 1275 
L 4263 0 
L 3584 0 
L 2988 1197 
Q 2756 1666 2539 1819 
Q 2322 1972 1947 1972 
L 1259 1972 
L 1259 0 
L 628 0 
L 628 4666 
L 2053 4666 
Q 2853 4666 3247 4331 
Q 3641 3997 3641 3322 
Q 3641 2881 3436 2590 
Q 3231 2300 2841 2188 
z
M 1259 4147 
L 1259 2491 
L 2053 2491 
Q 2509 2491 2742 2702 
Q 2975 2913 2975 3322 
Q 2975 3731 2742 3939 
Q 2509 4147 2053 4147 
L 1259 4147 
z
" transform="scale(0.015625)"/>
      <path id="DejaVuSans-54" d="M -19 4666 
L 3928 4666 
L 3928 4134 
L 2272 4134 
L 2272 0 
L 1638 0 
L 1638 4134 
L -19 4134 
L -19 4666 
z
" transform="scale(0.015625)"/>
      <path id="DejaVuSans-41" d="M 2188 4044 
L 1331 1722 
L 3047 1722 
L 2188 4044 
z
M 1831 4666 
L 2547 4666 
L 4325 0 
L 3669 0 
L 3244 1197 
L 1141 1197 
L 716 0 
L 50 0 
L 1831 4666 
z
" transform="scale(0.015625)"/>
      <path id="DejaVuSans-66" d="M 2375 4863 
L 2375 4384 
L 1825 4384 
Q 1516 4384 1395 4259 
Q 1275 4134 1275 3809 
L 1275 3500 
L 2222 3500 
L 2222 3053 
L 1275 3053 
L 1275 0 
L 697 0 
L 697 3053 
L 147 3053 
L 147 3500 
L 697 3500 
L 697 3744 
Q 697 4328 969 4595 
Q 1241 4863 1831 4863 
L 2375 4863 
z
" transform="scale(0.015625)"/>
      <path id="DejaVuSans-6f" d="M 1959 3097 
Q 1497 3097 1228 2736 
Q 959 2375 959 1747 
Q 959 1119 1226 758 
Q 1494 397 1959 397 
Q 2419 397 2687 759 
Q 2956 1122 2956 1747 
Q 2956 2369 2687 2733 
Q 2419 3097 1959 3097 
z
M 1959 3584 
Q 2709 3584 3137 3096 
Q 3566 2609 3566 1747 
Q 3566 888 3137 398 
Q 2709 -91 1959 -91 
Q 1206 -91 779 398 
Q 353 888 353 1747 
Q 353 2609 779 3096 
Q 1206 3584 1959 3584 
z
" transform="scale(0.015625)"/>
      <path id="DejaVuSans-48" d="M 628 4666 
L 1259 4666 
L 1259 2753 
L 3553 2753 
L 3553 4666 
L 4184 4666 
L 4184 0 
L 3553 0 
L 3553 2222 
L 1259 2222 
L 1259 0 
L 628 0 
L 628 4666 
z
" transform="scale(0.015625)"/>
     </defs>
     <use xlink:href="#DejaVuSans-4f"/>
     <use xlink:href="#DejaVuSans-4c" transform="translate(78.710938 0)"/>
     <use xlink:href="#DejaVuSans-52" transform="translate(134.423828 0)"/>
     <use xlink:href="#DejaVuSans-20" transform="translate(203.90625 0)"/>
     <use xlink:href="#DejaVuSans-61" transform="translate(235.693359 0)"/>
     <use xlink:href="#DejaVuSans-74" transform="translate(296.972656 0)"/>
     <use xlink:href="#DejaVuSans-20" transform="translate(336.181641 0)"/>
     <use xlink:href="#DejaVuSans-54" transform="translate(367.96875 0)"/>
     <use xlink:href="#DejaVuSans-4f" transform="translate(429.052734 0)"/>
     <use xlink:href="#DejaVuSans-41" transform="translate(506.013672 0)"/>
     <use xlink:href="#DejaVuSans-20" transform="translate(574.421875 0)"/>
     <use xlink:href="#DejaVuSans-66" transform="translate(606.208984 0)"/>
     <use xlink:href="#DejaVuSans-6f" transform="translate(641.414062 0)"/>
     <use xlink:href="#DejaVuSans-72" transform="translate(702.595703 0)"/>
     <use xlink:href="#DejaVuSans-20" transform="translate(743.708984 0)"/>
     <use xlink:href="#DejaVuSans-28" transform="translate(775.496094 0)"/>
     <use xlink:href="#DejaVuSans-48" transform="translate(814.509766 0)"/>
     <use xlink:href="#DejaVuSans-32" transform="translate(889.705078 0)"/>
     <use xlink:href="#DejaVuSans-4f" transform="translate(953.328125 0)"/>
     <use xlink:href="#DejaVuSans-29" transform="translate(1032.039062 0)"/>
    </g>
   </g>
  </g>
 </g>
 <defs>
  <clipPath id="p4e824ddb9d">
   <rect x="35.7625" y="22.318125" width="357.12" height="266.112"/>
  </clipPath>
 </defs>
</svg>
