<?xml version="1.0" encoding="utf-8" standalone="no"?>
<!DOCTYPE svg PUBLIC "-//W3C//DTD SVG 1.1//EN"
  "http://www.w3.org/Graphics/SVG/1.1/DTD/svg11.dtd">
<svg xmlns:xlink="http://www.w3.org/1999/xlink" width="418.002813pt" height="340.845625pt" viewBox="0 0 418.002813 340.845625" xmlns="http://www.w3.org/2000/svg" version="1.1">
 <metadata>
  <rdf:RDF xmlns:dc="http://purl.org/dc/elements/1.1/" xmlns:cc="http://creativecommons.org/ns#" xmlns:rdf="http://www.w3.org/1999/02/22-rdf-syntax-ns#">
   <cc:Work>
    <dc:type rdf:resource="http://purl.org/dc/dcmitype/StillImage"/>
    <dc:date>2026-01-24T18:37:32.251496</dc:date>
    <dc:format>image/svg+xml</dc:format>
    <dc:creator>
     <cc:Agent>
      <dc:title>Matplotlib v3.10.6, https://matplotlib.org/</dc:title>
     </cc:Agent>
    </dc:creator>
   </cc:Work>
  </rdf:RDF>
 </metadata>
 <defs>
  <style type="text/css">*{stroke-linejoin: round; stroke-linecap: butt}</style>
 </defs>
 <g id="figure_1">
  <g id="patch_1">
   <path d="M 0 340.845625 
L 418.002813 340.845625 
L 418.002813 0 
L 0 0 
z
" style="fill: #ffffff"/>
  </g>
  <g id="axes_1">
   <g id="patch_2">
    <path d="M 53.682813 301.8675 
L 410.802813 301.8675 
L 410.802813 35.7555 
L 53.682813 35.7555 
z
" style="fill: #ffffff"/>
   </g>
   <g id="matplotlib.axis_1">
    <g id="xtick_1">
     <g id="line2d_1">
      <path d="M 69.753131 301.8675 
L 69.753131 35.7555 
" clip-path="url(#p1cc241ab67)" style="fill: none; stroke: #808080; stroke-width: 0.3; stroke-linecap: square"/>
     </g>
     <g id="line2d_2">
      <defs>
       <path id="m9d81e8efb4" d="M 0 0 
L 0 3.5 
" style="stroke: #000000; stroke-width: 0.8"/>
      </defs>
      <g>
       <use xlink:href="#m9d81e8efb4" x="69.753131" y="301.8675" style="stroke: #000000; stroke-width: 0.8"/>
      </g>
     </g>
     <g id="text_1">
      <!-- 0 -->
      <g transform="translate(66.571881 316.465937) scale(0.1 -0.1)">
       <defs>
        <path id="DejaVuSans-30" d="M 2034 4250 
Q 1547 4250 1301 3770 
Q 1056 3291 1056 2328 
Q 1056 1369 1301 889 
Q 1547 409 2034 409 
Q 2525 409 2770 889 
Q 3016 1369 3016 2328 
Q 3016 3291 2770 3770 
Q 2525 4250 2034 4250 
z
M 2034 4750 
Q 2819 4750 3233 4129 
Q 3647 3509 3647 2328 
Q 3647 1150 3233 529 
Q 2819 -91 2034 -91 
Q 1250 -91 836 529 
Q 422 1150 422 2328 
Q 422 3509 836 4129 
Q 1250 4750 2034 4750 
z
" transform="scale(0.015625)"/>
       </defs>
       <use xlink:href="#DejaVuSans-30"/>
      </g>
     </g>
    </g>
    <g id="xtick_2">
     <g id="line2d_3">
      <path d="M 110.355251 301.8675 
L 110.355251 35.7555 
" clip-path="url(#p1cc241ab67)" style="fill: none; stroke: #808080; stroke-width: 0.3; stroke-linecap: square"/>
     </g>
     <g id="line2d_4">
      <g>
       <use xlink:href="#m9d81e8efb4" x="110.355251" y="301.8675" style="stroke: #000000; stroke-width: 0.8"/>
      </g>
     </g>
     <g id="text_2">
      <!-- 250 -->
      <g transform="translate(100.811501 316.465937) scale(0.1 -0.1)">
       <defs>
        <path id="DejaVuSans-32" d="M 1228 531 
L 3431 531 
L 3431 0 
L 469 0 
L 469 531 
Q 828 903 1448 1529 
Q 2069 2156 2228 2338 
Q 2531 2678 2651 2914 
Q 2772 3150 2772 3378 
Q 2772 3750 2511 3984 
Q 2250 4219 1831 4219 
Q 1534 4219 1204 4116 
Q 875 4013 500 3803 
L 500 4441 
Q 881 4594 1212 4672 
Q 1544 4750 1819 4750 
Q 2544 4750 2975 4387 
Q 3406 4025 3406 3419 
Q 3406 3131 3298 2873 
Q 3191 2616 2906 2266 
Q 2828 2175 2409 1742 
Q 1991 1309 1228 531 
z
" transform="scale(0.015625)"/>
        <path id="DejaVuSans-35" d="M 691 4666 
L 3169 4666 
L 3169 4134 
L 1269 4134 
L 1269 2991 
Q 1406 3038 1543 3061 
Q 1681 3084 1819 3084 
Q 2600 3084 3056 2656 
Q 3513 2228 3513 1497 
Q 3513 744 3044 326 
Q 2575 -91 1722 -91 
Q 1428 -91 1123 -41 
Q 819 9 494 109 
L 494 744 
Q 775 591 1075 516 
Q 1375 441 1709 441 
Q 2250 441 2565 725 
Q 2881 1009 2881 1497 
Q 2881 1984 2565 2268 
Q 2250 2553 1709 2553 
Q 1456 2553 1204 2497 
Q 953 2441 691 2322 
L 691 4666 
z
" transform="scale(0.015625)"/>
       </defs>
       <use xlink:href="#DejaVuSans-32"/>
       <use xlink:href="#DejaVuSans-35" transform="translate(63.623047 0)"/>
       <use xlink:href="#DejaVuSans-30" transform="translate(127.246094 0)"/>
      </g>
     </g>
    </g>
    <g id="xtick_3">
     <g id="line2d_5">
      <path d="M 150.95737 301.8675 
L 150.95737 35.7555 
" clip-path="url(#p1cc241ab67)" style="fill: none; stroke: #808080; stroke-width: 0.3; stroke-linecap: square"/>
     </g>
     <g id="line2d_6">
      <g>
       <use xlink:href="#m9d81e8efb4" x="150.95737" y="301.8675" style="stroke: #000000; stroke-width: 0.8"/>
      </g>
     </g>
     <g id="text_3">
      <!-- 500 -->
      <g transform="translate(141.41362 316.465937) scale(0.1 -0.1)">
       <use xlink:href="#DejaVuSans-35"/>
       <use xlink:href="#DejaVuSans-30" transform="translate(63.623047 0)"/>
       <use xlink:href="#DejaVuSans-30" transform="translate(127.246094 0)"/>
      </g>
     </g>
    </g>
    <g id="xtick_4">
     <g id="line2d_7">
      <path d="M 191.559489 301.8675 
L 191.559489 35.7555 
" clip-path="url(#p1cc241ab67)" style="fill: none; stroke: #808080; stroke-width: 0.3; stroke-linecap: square"/>
     </g>
     <g id="line2d_8">
      <g>
       <use xlink:href="#m9d81e8efb4" x="191.559489" y="301.8675" style="stroke: #000000; stroke-width: 0.8"/>
      </g>
     </g>
     <g id="text_4">
      <!-- 750 -->
      <g transform="translate(182.015739 316.465937) scale(0.1 -0.1)">
       <defs>
        <path id="DejaVuSans-37" d="M 525 4666 
L 3525 4666 
L 3525 4397 
L 1831 0 
L 1172 0 
L 2766 4134 
L 525 4134 
L 525 4666 
z
" transform="scale(0.015625)"/>
       </defs>
       <use xlink:href="#DejaVuSans-37"/>
       <use xlink:href="#DejaVuSans-35" transform="translate(63.623047 0)"/>
       <use xlink:href="#DejaVuSans-30" transform="translate(127.246094 0)"/>
      </g>
     </g>
    </g>
    <g id="xtick_5">
     <g id="line2d_9">
      <path d="M 232.161608 301.8675 
L 232.161608 35.7555 
" clip-path="url(#p1cc241ab67)" style="fill: none; stroke: #808080; stroke-width: 0.3; stroke-linecap: square"/>
     </g>
     <g id="line2d_10">
      <g>
       <use xlink:href="#m9d81e8efb4" x="232.161608" y="301.8675" style="stroke: #000000; stroke-width: 0.8"/>
      </g>
     </g>
     <g id="text_5">
      <!-- 1000 -->
      <g transform="translate(219.436608 316.465937) scale(0.1 -0.1)">
       <defs>
        <path id="DejaVuSans-31" d="M 794 531 
L 1825 531 
L 1825 4091 
L 703 3866 
L 703 4441 
L 1819 4666 
L 2450 4666 
L 2450 531 
L 3481 531 
L 3481 0 
L 794 0 
L 794 531 
z
" transform="scale(0.015625)"/>
       </defs>
       <use xlink:href="#DejaVuSans-31"/>
       <use xlink:href="#DejaVuSans-30" transform="translate(63.623047 0)"/>
       <use xlink:href="#DejaVuSans-30" transform="translate(127.246094 0)"/>
       <use xlink:href="#DejaVuSans-30" transform="translate(190.869141 0)"/>
      </g>
     </g>
    </g>
    <g id="xtick_6">
     <g id="line2d_11">
      <path d="M 272.763728 301.8675 
L 272.763728 35.7555 
" clip-path="url(#p1cc241ab67)" style="fill: none; stroke: #808080; stroke-width: 0.3; stroke-linecap: square"/>
     </g>
     <g id="line2d_12">
      <g>
       <use xlink:href="#m9d81e8efb4" x="272.763728" y="301.8675" style="stroke: #000000; stroke-width: 0.8"/>
      </g>
     </g>
     <g id="text_6">
      <!-- 1250 -->
      <g transform="translate(260.038728 316.465937) scale(0.1 -0.1)">
       <use xlink:href="#DejaVuSans-31"/>
       <use xlink:href="#DejaVuSans-32" transform="translate(63.623047 0)"/>
       <use xlink:href="#DejaVuSans-35" transform="translate(127.246094 0)"/>
       <use xlink:href="#DejaVuSans-30" transform="translate(190.869141 0)"/>
      </g>
     </g>
    </g>
    <g id="xtick_7">
     <g id="line2d_13">
      <path d="M 313.365847 301.8675 
L 313.365847 35.7555 
" clip-path="url(#p1cc241ab67)" style="fill: none; stroke: #808080; stroke-width: 0.3; stroke-linecap: square"/>
     </g>
     <g id="line2d_14">
      <g>
       <use xlink:href="#m9d81e8efb4" x="313.365847" y="301.8675" style="stroke: #000000; stroke-width: 0.8"/>
      </g>
     </g>
     <g id="text_7">
      <!-- 1500 -->
      <g transform="translate(300.640847 316.465937) scale(0.1 -0.1)">
       <use xlink:href="#DejaVuSans-31"/>
       <use xlink:href="#DejaVuSans-35" transform="translate(63.623047 0)"/>
       <use xlink:href="#DejaVuSans-30" transform="translate(127.246094 0)"/>
       <use xlink:href="#DejaVuSans-30" transform="translate(190.869141 0)"/>
      </g>
     </g>
    </g>
    <g id="xtick_8">
     <g id="line2d_15">
      <path d="M 353.967966 301.8675 
L 353.967966 35.7555 
" clip-path="url(#p1cc241ab67)" style="fill: none; stroke: #808080; stroke-width: 0.3; stroke-linecap: square"/>
     </g>
     <g id="line2d_16">
      <g>
       <use xlink:href="#m9d81e8efb4" x="353.967966" y="301.8675" style="stroke: #000000; stroke-width: 0.8"/>
      </g>
     </g>
     <g id="text_8">
      <!-- 1750 -->
      <g transform="translate(341.242966 316.465937) scale(0.1 -0.1)">
       <use xlink:href="#DejaVuSans-31"/>
       <use xlink:href="#DejaVuSans-37" transform="translate(63.623047 0)"/>
       <use xlink:href="#DejaVuSans-35" transform="translate(127.246094 0)"/>
       <use xlink:href="#DejaVuSans-30" transform="translate(190.869141 0)"/>
      </g>
     </g>
    </g>
    <g id="xtick_9">
     <g id="line2d_17">
      <path d="M 394.570085 301.8675 
L 394.570085 35.7555 
" clip-path="url(#p1cc241ab67)" style="fill: none; stroke: #808080; stroke-width: 0.3; stroke-linecap: square"/>
     </g>
     <g id="line2d_18">
      <g>
       <use xlink:href="#m9d81e8efb4" x="394.570085" y="301.8675" style="stroke: #000000; stroke-width: 0.8"/>
      </g>
     </g>
     <g id="text_9">
      <!-- 2000 -->
      <g transform="translate(381.845085 316.465937) scale(0.1 -0.1)">
       <use xlink:href="#DejaVuSans-32"/>
       <use xlink:href="#DejaVuSans-30" transform="translate(63.623047 0)"/>
       <use xlink:href="#DejaVuSans-30" transform="translate(127.246094 0)"/>
       <use xlink:href="#DejaVuSans-30" transform="translate(190.869141 0)"/>
      </g>
     </g>
    </g>
    <g id="text_10">
     <!-- Frequency / Kayser (cm$^{-1}$) -->
     <g transform="translate(165.542813 331.545625) scale(0.1 -0.1)">
      <defs>
       <path id="DejaVuSans-46" d="M 628 4666 
L 3309 4666 
L 3309 4134 
L 1259 4134 
L 1259 2759 
L 3109 2759 
L 3109 2228 
L 1259 2228 
L 1259 0 
L 628 0 
L 628 4666 
z
" transform="scale(0.015625)"/>
       <path id="DejaVuSans-72" d="M 2631 2963 
Q 2534 3019 2420 3045 
Q 2306 3072 2169 3072 
Q 1681 3072 1420 2755 
Q 1159 2438 1159 1844 
L 1159 0 
L 581 0 
L 581 3500 
L 1159 3500 
L 1159 2956 
Q 1341 3275 1631 3429 
Q 1922 3584 2338 3584 
Q 2397 3584 2469 3576 
Q 2541 3569 2628 3553 
L 2631 2963 
z
" transform="scale(0.015625)"/>
       <path id="DejaVuSans-65" d="M 3597 1894 
L 3597 1613 
L 953 1613 
Q 991 1019 1311 708 
Q 1631 397 2203 397 
Q 2534 397 2845 478 
Q 3156 559 3463 722 
L 3463 178 
Q 3153 47 2828 -22 
Q 2503 -91 2169 -91 
Q 1331 -91 842 396 
Q 353 884 353 1716 
Q 353 2575 817 3079 
Q 1281 3584 2069 3584 
Q 2775 3584 3186 3129 
Q 3597 2675 3597 1894 
z
M 3022 2063 
Q 3016 2534 2758 2815 
Q 2500 3097 2075 3097 
Q 1594 3097 1305 2825 
Q 1016 2553 972 2059 
L 3022 2063 
z
" transform="scale(0.015625)"/>
       <path id="DejaVuSans-71" d="M 947 1747 
Q 947 1113 1208 752 
Q 1469 391 1925 391 
Q 2381 391 2643 752 
Q 2906 1113 2906 1747 
Q 2906 2381 2643 2742 
Q 2381 3103 1925 3103 
Q 1469 3103 1208 2742 
Q 947 2381 947 1747 
z
M 2906 525 
Q 2725 213 2448 61 
Q 2172 -91 1784 -91 
Q 1150 -91 751 415 
Q 353 922 353 1747 
Q 353 2572 751 3078 
Q 1150 3584 1784 3584 
Q 2172 3584 2448 3432 
Q 2725 3281 2906 2969 
L 2906 3500 
L 3481 3500 
L 3481 -1331 
L 2906 -1331 
L 2906 525 
z
" transform="scale(0.015625)"/>
       <path id="DejaVuSans-75" d="M 544 1381 
L 544 3500 
L 1119 3500 
L 1119 1403 
Q 1119 906 1312 657 
Q 1506 409 1894 409 
Q 2359 409 2629 706 
Q 2900 1003 2900 1516 
L 2900 3500 
L 3475 3500 
L 3475 0 
L 2900 0 
L 2900 538 
Q 2691 219 2414 64 
Q 2138 -91 1772 -91 
Q 1169 -91 856 284 
Q 544 659 544 1381 
z
M 1991 3584 
L 1991 3584 
z
" transform="scale(0.015625)"/>
       <path id="DejaVuSans-6e" d="M 3513 2113 
L 3513 0 
L 2938 0 
L 2938 2094 
Q 2938 2591 2744 2837 
Q 2550 3084 2163 3084 
Q 1697 3084 1428 2787 
Q 1159 2491 1159 1978 
L 1159 0 
L 581 0 
L 581 3500 
L 1159 3500 
L 1159 2956 
Q 1366 3272 1645 3428 
Q 1925 3584 2291 3584 
Q 2894 3584 3203 3211 
Q 3513 2838 3513 2113 
z
" transform="scale(0.015625)"/>
       <path id="DejaVuSans-63" d="M 3122 3366 
L 3122 2828 
Q 2878 2963 2633 3030 
Q 2388 3097 2138 3097 
Q 1578 3097 1268 2742 
Q 959 2388 959 1747 
Q 959 1106 1268 751 
Q 1578 397 2138 397 
Q 2388 397 2633 464 
Q 2878 531 3122 666 
L 3122 134 
Q 2881 22 2623 -34 
Q 2366 -91 2075 -91 
Q 1284 -91 818 406 
Q 353 903 353 1747 
Q 353 2603 823 3093 
Q 1294 3584 2113 3584 
Q 2378 3584 2631 3529 
Q 2884 3475 3122 3366 
z
" transform="scale(0.015625)"/>
       <path id="DejaVuSans-79" d="M 2059 -325 
Q 1816 -950 1584 -1140 
Q 1353 -1331 966 -1331 
L 506 -1331 
L 506 -850 
L 844 -850 
Q 1081 -850 1212 -737 
Q 1344 -625 1503 -206 
L 1606 56 
L 191 3500 
L 800 3500 
L 1894 763 
L 2988 3500 
L 3597 3500 
L 2059 -325 
z
" transform="scale(0.015625)"/>
       <path id="DejaVuSans-20" transform="scale(0.015625)"/>
       <path id="DejaVuSans-2f" d="M 1625 4666 
L 2156 4666 
L 531 -594 
L 0 -594 
L 1625 4666 
z
" transform="scale(0.015625)"/>
       <path id="DejaVuSans-4b" d="M 628 4666 
L 1259 4666 
L 1259 2694 
L 3353 4666 
L 4166 4666 
L 1850 2491 
L 4331 0 
L 3500 0 
L 1259 2247 
L 1259 0 
L 628 0 
L 628 4666 
z
" transform="scale(0.015625)"/>
       <path id="DejaVuSans-61" d="M 2194 1759 
Q 1497 1759 1228 1600 
Q 959 1441 959 1056 
Q 959 750 1161 570 
Q 1363 391 1709 391 
Q 2188 391 2477 730 
Q 2766 1069 2766 1631 
L 2766 1759 
L 2194 1759 
z
M 3341 1997 
L 3341 0 
L 2766 0 
L 2766 531 
Q 2569 213 2275 61 
Q 1981 -91 1556 -91 
Q 1019 -91 701 211 
Q 384 513 384 1019 
Q 384 1609 779 1909 
Q 1175 2209 1959 2209 
L 2766 2209 
L 2766 2266 
Q 2766 2663 2505 2880 
Q 2244 3097 1772 3097 
Q 1472 3097 1187 3025 
Q 903 2953 641 2809 
L 641 3341 
Q 956 3463 1253 3523 
Q 1550 3584 1831 3584 
Q 2591 3584 2966 3190 
Q 3341 2797 3341 1997 
z
" transform="scale(0.015625)"/>
       <path id="DejaVuSans-73" d="M 2834 3397 
L 2834 2853 
Q 2591 2978 2328 3040 
Q 2066 3103 1784 3103 
Q 1356 3103 1142 2972 
Q 928 2841 928 2578 
Q 928 2378 1081 2264 
Q 1234 2150 1697 2047 
L 1894 2003 
Q 2506 1872 2764 1633 
Q 3022 1394 3022 966 
Q 3022 478 2636 193 
Q 2250 -91 1575 -91 
Q 1294 -91 989 -36 
Q 684 19 347 128 
L 347 722 
Q 666 556 975 473 
Q 1284 391 1588 391 
Q 1994 391 2212 530 
Q 2431 669 2431 922 
Q 2431 1156 2273 1281 
Q 2116 1406 1581 1522 
L 1381 1569 
Q 847 1681 609 1914 
Q 372 2147 372 2553 
Q 372 3047 722 3315 
Q 1072 3584 1716 3584 
Q 2034 3584 2315 3537 
Q 2597 3491 2834 3397 
z
" transform="scale(0.015625)"/>
       <path id="DejaVuSans-28" d="M 1984 4856 
Q 1566 4138 1362 3434 
Q 1159 2731 1159 2009 
Q 1159 1288 1364 580 
Q 1569 -128 1984 -844 
L 1484 -844 
Q 1016 -109 783 600 
Q 550 1309 550 2009 
Q 550 2706 781 3412 
Q 1013 4119 1484 4856 
L 1984 4856 
z
" transform="scale(0.015625)"/>
       <path id="DejaVuSans-6d" d="M 3328 2828 
Q 3544 3216 3844 3400 
Q 4144 3584 4550 3584 
Q 5097 3584 5394 3201 
Q 5691 2819 5691 2113 
L 5691 0 
L 5113 0 
L 5113 2094 
Q 5113 2597 4934 2840 
Q 4756 3084 4391 3084 
Q 3944 3084 3684 2787 
Q 3425 2491 3425 1978 
L 3425 0 
L 2847 0 
L 2847 2094 
Q 2847 2600 2669 2842 
Q 2491 3084 2119 3084 
Q 1678 3084 1418 2786 
Q 1159 2488 1159 1978 
L 1159 0 
L 581 0 
L 581 3500 
L 1159 3500 
L 1159 2956 
Q 1356 3278 1631 3431 
Q 1906 3584 2284 3584 
Q 2666 3584 2933 3390 
Q 3200 3197 3328 2828 
z
" transform="scale(0.015625)"/>
       <path id="DejaVuSans-2212" d="M 678 2272 
L 4684 2272 
L 4684 1741 
L 678 1741 
L 678 2272 
z
" transform="scale(0.015625)"/>
       <path id="DejaVuSans-29" d="M 513 4856 
L 1013 4856 
Q 1481 4119 1714 3412 
Q 1947 2706 1947 2009 
Q 1947 1309 1714 600 
Q 1481 -109 1013 -844 
L 513 -844 
Q 928 -128 1133 580 
Q 1338 1288 1338 2009 
Q 1338 2731 1133 3434 
Q 928 4138 513 4856 
z
" transform="scale(0.015625)"/>
      </defs>
      <use xlink:href="#DejaVuSans-46" transform="translate(0 0.684375)"/>
      <use xlink:href="#DejaVuSans-72" transform="translate(57.519531 0.684375)"/>
      <use xlink:href="#DejaVuSans-65" transform="translate(98.632812 0.684375)"/>
      <use xlink:href="#DejaVuSans-71" transform="translate(160.15625 0.684375)"/>
      <use xlink:href="#DejaVuSans-75" transform="translate(223.632812 0.684375)"/>
      <use xlink:href="#DejaVuSans-65" transform="translate(287.011719 0.684375)"/>
      <use xlink:href="#DejaVuSans-6e" transform="translate(348.535156 0.684375)"/>
      <use xlink:href="#DejaVuSans-63" transform="translate(411.914062 0.684375)"/>
      <use xlink:href="#DejaVuSans-79" transform="translate(466.894531 0.684375)"/>
      <use xlink:href="#DejaVuSans-20" transform="translate(526.074219 0.684375)"/>
      <use xlink:href="#DejaVuSans-2f" transform="translate(557.861328 0.684375)"/>
      <use xlink:href="#DejaVuSans-20" transform="translate(591.552734 0.684375)"/>
      <use xlink:href="#DejaVuSans-4b" transform="translate(623.339844 0.684375)"/>
      <use xlink:href="#DejaVuSans-61" transform="translate(688.916016 0.684375)"/>
      <use xlink:href="#DejaVuSans-79" transform="translate(750.195312 0.684375)"/>
      <use xlink:href="#DejaVuSans-73" transform="translate(809.375 0.684375)"/>
      <use xlink:href="#DejaVuSans-65" transform="translate(861.474609 0.684375)"/>
      <use xlink:href="#DejaVuSans-72" transform="translate(922.998047 0.684375)"/>
      <use xlink:href="#DejaVuSans-20" transform="translate(964.111328 0.684375)"/>
      <use xlink:href="#DejaVuSans-28" transform="translate(995.898438 0.684375)"/>
      <use xlink:href="#DejaVuSans-63" transform="translate(1034.912109 0.684375)"/>
      <use xlink:href="#DejaVuSans-6d" transform="translate(1089.892578 0.684375)"/>
      <use xlink:href="#DejaVuSans-2212" transform="translate(1188.261719 38.965625) scale(0.7)"/>
      <use xlink:href="#DejaVuSans-31" transform="translate(1246.914062 38.965625) scale(0.7)"/>
      <use xlink:href="#DejaVuSans-29" transform="translate(1294.18457 0.684375)"/>
     </g>
    </g>
   </g>
   <g id="matplotlib.axis_2">
    <g id="ytick_1">
     <g id="line2d_19">
      <path d="M 53.682813 282.23343 
L 410.802813 282.23343 
" clip-path="url(#p1cc241ab67)" style="fill: none; stroke: #808080; stroke-width: 0.3; stroke-linecap: square"/>
     </g>
     <g id="line2d_20">
      <defs>
       <path id="mc4461bb62f" d="M 0 0 
L -3.5 0 
" style="stroke: #000000; stroke-width: 0.8"/>
      </defs>
      <g>
       <use xlink:href="#mc4461bb62f" x="53.682813" y="282.23343" style="stroke: #000000; stroke-width: 0.8"/>
      </g>
     </g>
     <g id="text_11">
      <!-- −1.2 -->
      <g transform="translate(22.4 286.032648) scale(0.1 -0.1)">
       <defs>
        <path id="DejaVuSans-2e" d="M 684 794 
L 1344 794 
L 1344 0 
L 684 0 
L 684 794 
z
" transform="scale(0.015625)"/>
       </defs>
       <use xlink:href="#DejaVuSans-2212"/>
       <use xlink:href="#DejaVuSans-31" transform="translate(83.789062 0)"/>
       <use xlink:href="#DejaVuSans-2e" transform="translate(147.412109 0)"/>
       <use xlink:href="#DejaVuSans-32" transform="translate(179.199219 0)"/>
      </g>
     </g>
    </g>
    <g id="ytick_2">
     <g id="line2d_21">
      <path d="M 53.682813 247.649048 
L 410.802813 247.649048 
" clip-path="url(#p1cc241ab67)" style="fill: none; stroke: #808080; stroke-width: 0.3; stroke-linecap: square"/>
     </g>
     <g id="line2d_22">
      <g>
       <use xlink:href="#mc4461bb62f" x="53.682813" y="247.649048" style="stroke: #000000; stroke-width: 0.8"/>
      </g>
     </g>
     <g id="text_12">
      <!-- −1.0 -->
      <g transform="translate(22.4 251.448267) scale(0.1 -0.1)">
       <use xlink:href="#DejaVuSans-2212"/>
       <use xlink:href="#DejaVuSans-31" transform="translate(83.789062 0)"/>
       <use xlink:href="#DejaVuSans-2e" transform="translate(147.412109 0)"/>
       <use xlink:href="#DejaVuSans-30" transform="translate(179.199219 0)"/>
      </g>
     </g>
    </g>
    <g id="ytick_3">
     <g id="line2d_23">
      <path d="M 53.682813 213.064667 
L 410.802813 213.064667 
" clip-path="url(#p1cc241ab67)" style="fill: none; stroke: #808080; stroke-width: 0.3; stroke-linecap: square"/>
     </g>
     <g id="line2d_24">
      <g>
       <use xlink:href="#mc4461bb62f" x="53.682813" y="213.064667" style="stroke: #000000; stroke-width: 0.8"/>
      </g>
     </g>
     <g id="text_13">
      <!-- −0.8 -->
      <g transform="translate(22.4 216.863886) scale(0.1 -0.1)">
       <defs>
        <path id="DejaVuSans-38" d="M 2034 2216 
Q 1584 2216 1326 1975 
Q 1069 1734 1069 1313 
Q 1069 891 1326 650 
Q 1584 409 2034 409 
Q 2484 409 2743 651 
Q 3003 894 3003 1313 
Q 3003 1734 2745 1975 
Q 2488 2216 2034 2216 
z
M 1403 2484 
Q 997 2584 770 2862 
Q 544 3141 544 3541 
Q 544 4100 942 4425 
Q 1341 4750 2034 4750 
Q 2731 4750 3128 4425 
Q 3525 4100 3525 3541 
Q 3525 3141 3298 2862 
Q 3072 2584 2669 2484 
Q 3125 2378 3379 2068 
Q 3634 1759 3634 1313 
Q 3634 634 3220 271 
Q 2806 -91 2034 -91 
Q 1263 -91 848 271 
Q 434 634 434 1313 
Q 434 1759 690 2068 
Q 947 2378 1403 2484 
z
M 1172 3481 
Q 1172 3119 1398 2916 
Q 1625 2713 2034 2713 
Q 2441 2713 2670 2916 
Q 2900 3119 2900 3481 
Q 2900 3844 2670 4047 
Q 2441 4250 2034 4250 
Q 1625 4250 1398 4047 
Q 1172 3844 1172 3481 
z
" transform="scale(0.015625)"/>
       </defs>
       <use xlink:href="#DejaVuSans-2212"/>
       <use xlink:href="#DejaVuSans-30" transform="translate(83.789062 0)"/>
       <use xlink:href="#DejaVuSans-2e" transform="translate(147.412109 0)"/>
       <use xlink:href="#DejaVuSans-38" transform="translate(179.199219 0)"/>
      </g>
     </g>
    </g>
    <g id="ytick_4">
     <g id="line2d_25">
      <path d="M 53.682813 178.480286 
L 410.802813 178.480286 
" clip-path="url(#p1cc241ab67)" style="fill: none; stroke: #808080; stroke-width: 0.3; stroke-linecap: square"/>
     </g>
     <g id="line2d_26">
      <g>
       <use xlink:href="#mc4461bb62f" x="53.682813" y="178.480286" style="stroke: #000000; stroke-width: 0.8"/>
      </g>
     </g>
     <g id="text_14">
      <!-- −0.6 -->
      <g transform="translate(22.4 182.279504) scale(0.1 -0.1)">
       <defs>
        <path id="DejaVuSans-36" d="M 2113 2584 
Q 1688 2584 1439 2293 
Q 1191 2003 1191 1497 
Q 1191 994 1439 701 
Q 1688 409 2113 409 
Q 2538 409 2786 701 
Q 3034 994 3034 1497 
Q 3034 2003 2786 2293 
Q 2538 2584 2113 2584 
z
M 3366 4563 
L 3366 3988 
Q 3128 4100 2886 4159 
Q 2644 4219 2406 4219 
Q 1781 4219 1451 3797 
Q 1122 3375 1075 2522 
Q 1259 2794 1537 2939 
Q 1816 3084 2150 3084 
Q 2853 3084 3261 2657 
Q 3669 2231 3669 1497 
Q 3669 778 3244 343 
Q 2819 -91 2113 -91 
Q 1303 -91 875 529 
Q 447 1150 447 2328 
Q 447 3434 972 4092 
Q 1497 4750 2381 4750 
Q 2619 4750 2861 4703 
Q 3103 4656 3366 4563 
z
" transform="scale(0.015625)"/>
       </defs>
       <use xlink:href="#DejaVuSans-2212"/>
       <use xlink:href="#DejaVuSans-30" transform="translate(83.789062 0)"/>
       <use xlink:href="#DejaVuSans-2e" transform="translate(147.412109 0)"/>
       <use xlink:href="#DejaVuSans-36" transform="translate(179.199219 0)"/>
      </g>
     </g>
    </g>
    <g id="ytick_5">
     <g id="line2d_27">
      <path d="M 53.682813 143.895904 
L 410.802813 143.895904 
" clip-path="url(#p1cc241ab67)" style="fill: none; stroke: #808080; stroke-width: 0.3; stroke-linecap: square"/>
     </g>
     <g id="line2d_28">
      <g>
       <use xlink:href="#mc4461bb62f" x="53.682813" y="143.895904" style="stroke: #000000; stroke-width: 0.8"/>
      </g>
     </g>
     <g id="text_15">
      <!-- −0.4 -->
      <g transform="translate(22.4 147.695123) scale(0.1 -0.1)">
       <defs>
        <path id="DejaVuSans-34" d="M 2419 4116 
L 825 1625 
L 2419 1625 
L 2419 4116 
z
M 2253 4666 
L 3047 4666 
L 3047 1625 
L 3713 1625 
L 3713 1100 
L 3047 1100 
L 3047 0 
L 2419 0 
L 2419 1100 
L 313 1100 
L 313 1709 
L 2253 4666 
z
" transform="scale(0.015625)"/>
       </defs>
       <use xlink:href="#DejaVuSans-2212"/>
       <use xlink:href="#DejaVuSans-30" transform="translate(83.789062 0)"/>
       <use xlink:href="#DejaVuSans-2e" transform="translate(147.412109 0)"/>
       <use xlink:href="#DejaVuSans-34" transform="translate(179.199219 0)"/>
      </g>
     </g>
    </g>
    <g id="ytick_6">
     <g id="line2d_29">
      <path d="M 53.682813 109.311523 
L 410.802813 109.311523 
" clip-path="url(#p1cc241ab67)" style="fill: none; stroke: #808080; stroke-width: 0.3; stroke-linecap: square"/>
     </g>
     <g id="line2d_30">
      <g>
       <use xlink:href="#mc4461bb62f" x="53.682813" y="109.311523" style="stroke: #000000; stroke-width: 0.8"/>
      </g>
     </g>
     <g id="text_16">
      <!-- −0.2 -->
      <g transform="translate(22.4 113.110742) scale(0.1 -0.1)">
       <use xlink:href="#DejaVuSans-2212"/>
       <use xlink:href="#DejaVuSans-30" transform="translate(83.789062 0)"/>
       <use xlink:href="#DejaVuSans-2e" transform="translate(147.412109 0)"/>
       <use xlink:href="#DejaVuSans-32" transform="translate(179.199219 0)"/>
      </g>
     </g>
    </g>
    <g id="ytick_7">
     <g id="line2d_31">
      <path d="M 53.682813 74.727141 
L 410.802813 74.727141 
" clip-path="url(#p1cc241ab67)" style="fill: none; stroke: #808080; stroke-width: 0.3; stroke-linecap: square"/>
     </g>
     <g id="line2d_32">
      <g>
       <use xlink:href="#mc4461bb62f" x="53.682813" y="74.727141" style="stroke: #000000; stroke-width: 0.8"/>
      </g>
     </g>
     <g id="text_17">
      <!-- 0.0 -->
      <g transform="translate(30.779688 78.52636) scale(0.1 -0.1)">
       <use xlink:href="#DejaVuSans-30"/>
       <use xlink:href="#DejaVuSans-2e" transform="translate(63.623047 0)"/>
       <use xlink:href="#DejaVuSans-30" transform="translate(95.410156 0)"/>
      </g>
     </g>
    </g>
    <g id="ytick_8">
     <g id="line2d_33">
      <path d="M 53.682813 40.14276 
L 410.802813 40.14276 
" clip-path="url(#p1cc241ab67)" style="fill: none; stroke: #808080; stroke-width: 0.3; stroke-linecap: square"/>
     </g>
     <g id="line2d_34">
      <g>
       <use xlink:href="#mc4461bb62f" x="53.682813" y="40.14276" style="stroke: #000000; stroke-width: 0.8"/>
      </g>
     </g>
     <g id="text_18">
      <!-- 0.2 -->
      <g transform="translate(30.779688 43.941979) scale(0.1 -0.1)">
       <use xlink:href="#DejaVuSans-30"/>
       <use xlink:href="#DejaVuSans-2e" transform="translate(63.623047 0)"/>
       <use xlink:href="#DejaVuSans-32" transform="translate(95.410156 0)"/>
      </g>
     </g>
    </g>
    <g id="text_19">
     <!-- Spectral radiance ($Wm^{-2}sr^{-1}Hz^{-1}$) -->
     <g transform="translate(16.3 255.7115) rotate(-90) scale(0.1 -0.1)">
      <defs>
       <path id="DejaVuSans-53" d="M 3425 4513 
L 3425 3897 
Q 3066 4069 2747 4153 
Q 2428 4238 2131 4238 
Q 1616 4238 1336 4038 
Q 1056 3838 1056 3469 
Q 1056 3159 1242 3001 
Q 1428 2844 1947 2747 
L 2328 2669 
Q 3034 2534 3370 2195 
Q 3706 1856 3706 1288 
Q 3706 609 3251 259 
Q 2797 -91 1919 -91 
Q 1588 -91 1214 -16 
Q 841 59 441 206 
L 441 856 
Q 825 641 1194 531 
Q 1563 422 1919 422 
Q 2459 422 2753 634 
Q 3047 847 3047 1241 
Q 3047 1584 2836 1778 
Q 2625 1972 2144 2069 
L 1759 2144 
Q 1053 2284 737 2584 
Q 422 2884 422 3419 
Q 422 4038 858 4394 
Q 1294 4750 2059 4750 
Q 2388 4750 2728 4690 
Q 3069 4631 3425 4513 
z
" transform="scale(0.015625)"/>
       <path id="DejaVuSans-70" d="M 1159 525 
L 1159 -1331 
L 581 -1331 
L 581 3500 
L 1159 3500 
L 1159 2969 
Q 1341 3281 1617 3432 
Q 1894 3584 2278 3584 
Q 2916 3584 3314 3078 
Q 3713 2572 3713 1747 
Q 3713 922 3314 415 
Q 2916 -91 2278 -91 
Q 1894 -91 1617 61 
Q 1341 213 1159 525 
z
M 3116 1747 
Q 3116 2381 2855 2742 
Q 2594 3103 2138 3103 
Q 1681 3103 1420 2742 
Q 1159 2381 1159 1747 
Q 1159 1113 1420 752 
Q 1681 391 2138 391 
Q 2594 391 2855 752 
Q 3116 1113 3116 1747 
z
" transform="scale(0.015625)"/>
       <path id="DejaVuSans-74" d="M 1172 4494 
L 1172 3500 
L 2356 3500 
L 2356 3053 
L 1172 3053 
L 1172 1153 
Q 1172 725 1289 603 
Q 1406 481 1766 481 
L 2356 481 
L 2356 0 
L 1766 0 
Q 1100 0 847 248 
Q 594 497 594 1153 
L 594 3053 
L 172 3053 
L 172 3500 
L 594 3500 
L 594 4494 
L 1172 4494 
z
" transform="scale(0.015625)"/>
       <path id="DejaVuSans-6c" d="M 603 4863 
L 1178 4863 
L 1178 0 
L 603 0 
L 603 4863 
z
" transform="scale(0.015625)"/>
       <path id="DejaVuSans-64" d="M 2906 2969 
L 2906 4863 
L 3481 4863 
L 3481 0 
L 2906 0 
L 2906 525 
Q 2725 213 2448 61 
Q 2172 -91 1784 -91 
Q 1150 -91 751 415 
Q 353 922 353 1747 
Q 353 2572 751 3078 
Q 1150 3584 1784 3584 
Q 2172 3584 2448 3432 
Q 2725 3281 2906 2969 
z
M 947 1747 
Q 947 1113 1208 752 
Q 1469 391 1925 391 
Q 2381 391 2643 752 
Q 2906 1113 2906 1747 
Q 2906 2381 2643 2742 
Q 2381 3103 1925 3103 
Q 1469 3103 1208 2742 
Q 947 2381 947 1747 
z
" transform="scale(0.015625)"/>
       <path id="DejaVuSans-69" d="M 603 3500 
L 1178 3500 
L 1178 0 
L 603 0 
L 603 3500 
z
M 603 4863 
L 1178 4863 
L 1178 4134 
L 603 4134 
L 603 4863 
z
" transform="scale(0.015625)"/>
       <path id="DejaVuSans-Oblique-57" d="M 616 4666 
L 1228 4666 
L 1453 697 
L 3213 4666 
L 3916 4666 
L 4147 697 
L 5888 4666 
L 6528 4666 
L 4453 0 
L 3659 0 
L 3444 3891 
L 1697 0 
L 903 0 
L 616 4666 
z
" transform="scale(0.015625)"/>
       <path id="DejaVuSans-Oblique-6d" d="M 5747 2113 
L 5338 0 
L 4763 0 
L 5166 2094 
Q 5191 2228 5203 2325 
Q 5216 2422 5216 2491 
Q 5216 2772 5059 2928 
Q 4903 3084 4622 3084 
Q 4203 3084 3875 2770 
Q 3547 2456 3450 1953 
L 3066 0 
L 2491 0 
L 2900 2094 
Q 2925 2209 2937 2307 
Q 2950 2406 2950 2484 
Q 2950 2769 2794 2926 
Q 2638 3084 2363 3084 
Q 1938 3084 1609 2770 
Q 1281 2456 1184 1953 
L 800 0 
L 225 0 
L 909 3500 
L 1484 3500 
L 1375 2956 
Q 1609 3263 1923 3423 
Q 2238 3584 2597 3584 
Q 2978 3584 3223 3384 
Q 3469 3184 3519 2828 
Q 3781 3197 4126 3390 
Q 4472 3584 4856 3584 
Q 5306 3584 5551 3325 
Q 5797 3066 5797 2591 
Q 5797 2488 5784 2364 
Q 5772 2241 5747 2113 
z
" transform="scale(0.015625)"/>
       <path id="DejaVuSans-Oblique-73" d="M 3200 3397 
L 3091 2853 
Q 2863 2978 2609 3040 
Q 2356 3103 2088 3103 
Q 1634 3103 1373 2948 
Q 1113 2794 1113 2528 
Q 1113 2219 1719 2053 
Q 1766 2041 1788 2034 
L 1972 1978 
Q 2547 1819 2739 1644 
Q 2931 1469 2931 1166 
Q 2931 609 2489 259 
Q 2047 -91 1331 -91 
Q 1053 -91 747 -37 
Q 441 16 72 128 
L 184 722 
Q 500 559 806 475 
Q 1113 391 1394 391 
Q 1816 391 2080 572 
Q 2344 753 2344 1031 
Q 2344 1331 1650 1516 
L 1591 1531 
L 1394 1581 
Q 956 1697 753 1886 
Q 550 2075 550 2369 
Q 550 2928 970 3256 
Q 1391 3584 2113 3584 
Q 2397 3584 2667 3537 
Q 2938 3491 3200 3397 
z
" transform="scale(0.015625)"/>
       <path id="DejaVuSans-Oblique-72" d="M 2853 2969 
Q 2766 3016 2653 3041 
Q 2541 3066 2413 3066 
Q 1953 3066 1609 2717 
Q 1266 2369 1153 1784 
L 800 0 
L 225 0 
L 909 3500 
L 1484 3500 
L 1375 2956 
Q 1603 3259 1920 3421 
Q 2238 3584 2597 3584 
Q 2691 3584 2781 3573 
Q 2872 3563 2963 3538 
L 2853 2969 
z
" transform="scale(0.015625)"/>
       <path id="DejaVuSans-Oblique-48" d="M 1081 4666 
L 1716 4666 
L 1344 2753 
L 3634 2753 
L 4006 4666 
L 4641 4666 
L 3731 0 
L 3097 0 
L 3531 2222 
L 1241 2222 
L 806 0 
L 172 0 
L 1081 4666 
z
" transform="scale(0.015625)"/>
       <path id="DejaVuSans-Oblique-7a" d="M 744 3500 
L 3475 3500 
L 3372 2975 
L 738 459 
L 2913 459 
L 2822 0 
L -19 0 
L 84 525 
L 2719 3041 
L 653 3041 
L 744 3500 
z
" transform="scale(0.015625)"/>
      </defs>
      <use xlink:href="#DejaVuSans-53" transform="translate(0 0.765625)"/>
      <use xlink:href="#DejaVuSans-70" transform="translate(63.476562 0.765625)"/>
      <use xlink:href="#DejaVuSans-65" transform="translate(126.953125 0.765625)"/>
      <use xlink:href="#DejaVuSans-63" transform="translate(188.476562 0.765625)"/>
      <use xlink:href="#DejaVuSans-74" transform="translate(243.457031 0.765625)"/>
      <use xlink:href="#DejaVuSans-72" transform="translate(282.666016 0.765625)"/>
      <use xlink:href="#DejaVuSans-61" transform="translate(323.779297 0.765625)"/>
      <use xlink:href="#DejaVuSans-6c" transform="translate(385.058594 0.765625)"/>
      <use xlink:href="#DejaVuSans-20" transform="translate(412.841797 0.765625)"/>
      <use xlink:href="#DejaVuSans-72" transform="translate(444.628906 0.765625)"/>
      <use xlink:href="#DejaVuSans-61" transform="translate(485.742188 0.765625)"/>
      <use xlink:href="#DejaVuSans-64" transform="translate(547.021484 0.765625)"/>
      <use xlink:href="#DejaVuSans-69" transform="translate(610.498047 0.765625)"/>
      <use xlink:href="#DejaVuSans-61" transform="translate(638.28125 0.765625)"/>
      <use xlink:href="#DejaVuSans-6e" transform="translate(699.560547 0.765625)"/>
      <use xlink:href="#DejaVuSans-63" transform="translate(762.939453 0.765625)"/>
      <use xlink:href="#DejaVuSans-65" transform="translate(817.919922 0.765625)"/>
      <use xlink:href="#DejaVuSans-20" transform="translate(879.443359 0.765625)"/>
      <use xlink:href="#DejaVuSans-28" transform="translate(911.230469 0.765625)"/>
      <use xlink:href="#DejaVuSans-Oblique-57" transform="translate(950.244141 0.765625)"/>
      <use xlink:href="#DejaVuSans-Oblique-6d" transform="translate(1049.121094 0.765625)"/>
      <use xlink:href="#DejaVuSans-2212" transform="translate(1151.183099 39.046875) scale(0.7)"/>
      <use xlink:href="#DejaVuSans-32" transform="translate(1209.835443 39.046875) scale(0.7)"/>
      <use xlink:href="#DejaVuSans-Oblique-73" transform="translate(1257.105951 0.765625)"/>
      <use xlink:href="#DejaVuSans-Oblique-72" transform="translate(1309.20556 0.765625)"/>
      <use xlink:href="#DejaVuSans-2212" transform="translate(1354.968737 39.046875) scale(0.7)"/>
      <use xlink:href="#DejaVuSans-31" transform="translate(1413.621081 39.046875) scale(0.7)"/>
      <use xlink:href="#DejaVuSans-Oblique-48" transform="translate(1460.891589 0.765625)"/>
      <use xlink:href="#DejaVuSans-Oblique-7a" transform="translate(1536.086901 0.765625)"/>
      <use xlink:href="#DejaVuSans-2212" transform="translate(1593.043281 39.046875) scale(0.7)"/>
      <use xlink:href="#DejaVuSans-31" transform="translate(1651.695625 39.046875) scale(0.7)"/>
      <use xlink:href="#DejaVuSans-29" transform="translate(1698.966133 0.765625)"/>
     </g>
    </g>
    <g id="text_20">
     <!-- 1e−12 -->
     <g transform="translate(53.682813 32.7555) scale(0.1 -0.1)">
      <use xlink:href="#DejaVuSans-31"/>
      <use xlink:href="#DejaVuSans-65" transform="translate(63.623047 0)"/>
      <use xlink:href="#DejaVuSans-2212" transform="translate(125.146484 0)"/>
      <use xlink:href="#DejaVuSans-31" transform="translate(208.935547 0)"/>
      <use xlink:href="#DejaVuSans-32" transform="translate(272.558594 0)"/>
     </g>
    </g>
   </g>
   <g id="line2d_35">
    <path d="M 69.91554 74.727141 
L 75.120422 74.78837 
L 75.771033 74.843946 
L 76.421643 75.924868 
L 77.072253 74.795716 
L 77.722864 74.834157 
L 78.373474 75.910432 
L 79.024084 74.910048 
L 79.674694 75.194383 
L 80.325305 76.045204 
L 80.975915 74.95792 
L 81.626525 78.533399 
L 82.277136 75.424824 
L 82.927746 74.911172 
L 83.578356 78.075537 
L 84.228967 75.075903 
L 85.530187 74.859867 
L 86.180798 75.669292 
L 86.831408 75.108435 
L 87.482018 74.822386 
L 88.783239 74.768253 
L 89.433849 74.860095 
L 90.73507 74.774607 
L 91.38568 74.942962 
L 92.03629 74.740218 
L 93.988121 74.747016 
L 99.843614 74.727142 
L 165.555256 74.746523 
L 166.205866 74.861164 
L 167.507087 74.774639 
L 168.157697 77.062304 
L 168.808307 75.482801 
L 169.458917 74.973529 
L 170.760138 75.851638 
L 171.410748 76.09284 
L 172.061359 77.034341 
L 172.711969 79.935055 
L 174.01319 76.167718 
L 174.6638 91.544966 
L 175.31441 80.150319 
L 175.965021 78.623656 
L 176.615631 79.702018 
L 177.266241 136.09482 
L 177.916851 146.291535 
L 178.567462 84.652877 
L 179.218072 81.093802 
L 179.868682 107.552762 
L 180.519293 88.01744 
L 181.169903 112.919788 
L 181.820513 84.131023 
L 182.471124 119.135935 
L 183.121734 82.667785 
L 183.772344 82.851274 
L 184.422955 86.532675 
L 185.073565 93.605714 
L 185.724175 232.119063 
L 186.374786 86.502505 
L 187.025396 170.336012 
L 187.676006 87.330286 
L 188.326616 139.861613 
L 188.977227 82.939799 
L 189.627837 80.78654 
L 190.278447 86.491148 
L 190.929058 79.367951 
L 191.579668 105.589535 
L 192.230278 78.11021 
L 192.880889 79.238987 
L 193.531499 76.800697 
L 194.83272 86.025574 
L 195.48333 80.425896 
L 196.13394 78.222657 
L 197.435161 75.565402 
L 198.085771 75.541386 
L 198.736381 77.281358 
L 199.386992 75.18569 
L 200.037602 75.192649 
L 200.688212 75.417453 
L 201.338823 74.86543 
L 201.989433 76.570436 
L 202.640043 74.828362 
L 203.941264 74.968773 
L 204.591874 74.772426 
L 205.242485 75.078393 
L 205.893095 74.754756 
L 206.543705 74.856915 
L 207.844926 74.731611 
L 213.700419 74.727141 
L 224.760794 74.746172 
L 225.411404 74.991582 
L 226.712625 76.001864 
L 227.363235 77.102498 
L 228.664456 80.267512 
L 229.315066 83.43621 
L 229.965676 83.463738 
L 230.616287 93.915844 
L 231.266897 161.29346 
L 231.917507 108.294012 
L 232.568118 289.7715 
L 233.218728 243.493303 
L 233.869338 215.465439 
L 234.519949 213.715801 
L 235.170559 174.737168 
L 235.821169 221.327697 
L 236.47178 104.975416 
L 237.12239 183.674103 
L 237.773 193.228211 
L 238.42361 111.195399 
L 239.074221 132.471035 
L 239.724831 203.909167 
L 240.375441 96.136978 
L 241.026052 114.282332 
L 241.676662 192.178593 
L 242.327272 114.671301 
L 242.977883 172.298756 
L 243.628493 108.250155 
L 244.279103 84.947706 
L 244.929714 86.605741 
L 245.580324 81.793809 
L 246.230934 80.258247 
L 246.881545 77.222083 
L 247.532155 99.624772 
L 248.833375 77.489746 
L 249.483986 82.957418 
L 250.134596 101.41661 
L 250.785206 87.590672 
L 251.435817 85.573053 
L 252.086427 80.819663 
L 252.737037 86.460814 
L 253.387648 83.066677 
L 254.038258 77.145913 
L 254.688868 79.563691 
L 255.339479 79.77157 
L 255.990089 84.618449 
L 256.640699 76.838391 
L 257.291309 78.683565 
L 257.94192 85.342866 
L 258.59253 79.243914 
L 259.24314 85.807557 
L 259.893751 82.004008 
L 260.544361 86.009722 
L 261.194971 82.164905 
L 261.845582 75.369473 
L 262.496192 76.48274 
L 263.146802 75.111233 
L 263.797413 75.315512 
L 264.448023 74.980997 
L 265.098633 75.103654 
L 265.749244 75.479632 
L 266.399854 74.874471 
L 267.050464 74.763971 
L 267.701074 74.865343 
L 268.351685 74.759099 
L 269.002295 74.845554 
L 269.652905 74.735366 
L 270.303516 74.839519 
L 271.604736 74.727183 
L 341.87065 74.767523 
L 342.52126 74.904768 
L 343.171871 74.740263 
L 343.822481 74.85503 
L 345.123702 74.763379 
L 345.774312 74.778067 
L 346.424922 79.923618 
L 347.075532 74.797579 
L 347.726143 75.666911 
L 348.376753 78.685415 
L 349.027363 75.957764 
L 349.677974 75.065095 
L 350.328584 74.864148 
L 350.979194 74.852183 
L 351.629805 76.420572 
L 353.581636 74.912224 
L 354.882856 74.787822 
L 356.184077 74.761585 
L 359.437128 74.756883 
L 360.087739 75.051115 
L 360.738349 74.741828 
L 361.388959 74.894011 
L 362.03957 74.808034 
L 362.69018 74.863639 
L 363.34079 75.379211 
L 363.991401 75.609541 
L 364.642011 74.992094 
L 365.292621 75.539482 
L 365.943232 74.901521 
L 367.895062 74.735651 
L 370.497504 74.754 
L 378.304827 74.727198 
L 394.570085 74.733326 
L 394.570085 74.733326 
" clip-path="url(#p1cc241ab67)" style="fill: none; stroke: #1f77b4; stroke-width: 0.7; stroke-linecap: square"/>
   </g>
   <g id="line2d_36">
    <path d="M 69.91554 74.727141 
L 75.120422 74.78837 
L 75.771033 74.843946 
L 76.421643 75.924868 
L 77.072253 74.795716 
L 77.722864 74.834157 
L 78.373474 75.910432 
L 79.024084 74.910048 
L 79.674694 75.194383 
L 80.325305 76.045204 
L 80.975915 74.95792 
L 81.626525 78.533399 
L 82.277136 75.424824 
L 82.927746 74.911172 
L 83.578356 78.075537 
L 84.228967 75.075903 
L 85.530187 74.859867 
L 86.180798 75.669292 
L 86.831408 75.108435 
L 87.482018 74.822386 
L 88.783239 74.768253 
L 89.433849 74.860095 
L 90.73507 74.774607 
L 91.38568 74.942962 
L 92.03629 74.740218 
L 93.988121 74.747016 
L 99.843614 74.727142 
L 165.555256 74.746523 
L 166.205866 74.861164 
L 167.507087 74.774639 
L 168.157697 77.062304 
L 168.808307 75.482801 
L 169.458917 74.973529 
L 170.760138 75.851638 
L 171.410748 76.09284 
L 172.061359 77.034341 
L 172.711969 79.935055 
L 174.01319 76.167718 
L 174.6638 91.544966 
L 175.31441 80.150319 
L 175.965021 78.623656 
L 176.615631 79.702018 
L 177.266241 136.09482 
L 177.916851 146.291535 
L 178.567462 84.652877 
L 179.218072 81.093802 
L 179.868682 107.552762 
L 180.519293 88.01744 
L 181.169903 112.919788 
L 181.820513 84.131023 
L 182.471124 119.135935 
L 183.121734 82.667785 
L 183.772344 82.851274 
L 184.422955 86.532675 
L 185.073565 93.605714 
L 185.724175 232.119063 
L 186.374786 86.502505 
L 187.025396 170.336012 
L 187.676006 87.330286 
L 188.326616 139.861613 
L 188.977227 82.939799 
L 189.627837 80.78654 
L 190.278447 86.491148 
L 190.929058 79.367951 
L 191.579668 105.589535 
L 192.230278 78.11021 
L 192.880889 79.238987 
L 193.531499 76.800697 
L 194.83272 86.025574 
L 195.48333 80.425896 
L 196.13394 78.222657 
L 197.435161 75.565402 
L 198.085771 75.541386 
L 198.736381 77.281358 
L 199.386992 75.18569 
L 200.037602 75.192649 
L 200.688212 75.417453 
L 201.338823 74.86543 
L 201.989433 76.570436 
L 202.640043 74.828362 
L 203.941264 74.968773 
L 204.591874 74.772426 
L 205.242485 75.078393 
L 205.893095 74.754756 
L 206.543705 74.856915 
L 207.844926 74.731611 
L 213.700419 74.727141 
L 224.760794 74.746172 
L 225.411404 74.991582 
L 226.712625 76.001864 
L 227.363235 77.102498 
L 228.664456 80.267512 
L 229.315066 83.43621 
L 229.965676 83.463738 
L 230.616287 93.915844 
L 231.266897 161.29346 
L 231.917507 108.294012 
L 233.218728 203.818314 
L 233.869338 146.60028 
L 234.519949 71.918079 
L 235.170559 56.909419 
L 235.821169 129.702827 
L 236.47178 53.504984 
L 237.12239 70.529663 
L 237.773 69.806596 
L 238.42361 48.780489 
L 239.074221 132.471035 
L 239.724831 77.438614 
L 240.375441 60.185351 
L 241.026052 47.8515 
L 241.676662 94.99502 
L 242.327272 49.586071 
L 242.977883 172.298756 
L 243.628493 108.250155 
L 244.279103 84.947706 
L 244.929714 86.605741 
L 245.580324 81.793809 
L 246.230934 80.258247 
L 246.881545 77.222083 
L 247.532155 99.624772 
L 248.833375 77.489746 
L 249.483986 82.957418 
L 250.134596 101.41661 
L 250.785206 87.590672 
L 251.435817 85.573053 
L 252.086427 80.819663 
L 252.737037 86.460814 
L 253.387648 83.066677 
L 254.038258 77.145913 
L 254.688868 79.563691 
L 255.339479 79.77157 
L 255.990089 84.618449 
L 256.640699 76.838391 
L 257.291309 78.683565 
L 257.94192 85.342866 
L 258.59253 79.243914 
L 259.24314 85.807557 
L 259.893751 82.004008 
L 260.544361 86.009722 
L 261.194971 82.164905 
L 261.845582 75.369473 
L 262.496192 76.48274 
L 263.146802 75.111233 
L 263.797413 75.315512 
L 264.448023 74.980997 
L 265.098633 75.103654 
L 265.749244 75.479632 
L 266.399854 74.874471 
L 267.050464 74.763971 
L 267.701074 74.865343 
L 268.351685 74.759099 
L 269.002295 74.845554 
L 269.652905 74.735366 
L 270.303516 74.839519 
L 271.604736 74.727183 
L 341.87065 74.767523 
L 342.52126 74.904768 
L 343.171871 74.740263 
L 343.822481 74.85503 
L 345.123702 74.763379 
L 345.774312 74.778067 
L 346.424922 79.923618 
L 347.075532 74.797579 
L 347.726143 75.666911 
L 348.376753 78.685415 
L 349.027363 75.957764 
L 349.677974 75.065095 
L 350.328584 74.864148 
L 350.979194 74.852183 
L 351.629805 76.420572 
L 353.581636 74.912224 
L 354.882856 74.787822 
L 356.184077 74.761585 
L 359.437128 74.756883 
L 360.087739 75.051115 
L 360.738349 74.741828 
L 361.388959 74.894011 
L 362.03957 74.808034 
L 362.69018 74.863639 
L 363.34079 75.379211 
L 363.991401 75.609541 
L 364.642011 74.992094 
L 365.292621 75.539482 
L 365.943232 74.901521 
L 367.895062 74.735651 
L 370.497504 74.754 
L 378.304827 74.727198 
L 394.570085 74.733326 
L 394.570085 74.733326 
" clip-path="url(#p1cc241ab67)" style="fill: none; stroke: #ff7f0e; stroke-width: 0.7; stroke-linecap: square"/>
   </g>
   <g id="patch_3">
    <path d="M 53.682813 301.8675 
L 53.682813 35.7555 
" style="fill: none; stroke: #000000; stroke-width: 0.8; stroke-linejoin: miter; stroke-linecap: square"/>
   </g>
   <g id="patch_4">
    <path d="M 410.802813 301.8675 
L 410.802813 35.7555 
" style="fill: none; stroke: #000000; stroke-width: 0.8; stroke-linejoin: miter; stroke-linecap: square"/>
   </g>
   <g id="patch_5">
    <path d="M 53.682813 301.8675 
L 410.802813 301.8675 
" style="fill: none; stroke: #000000; stroke-width: 0.8; stroke-linejoin: miter; stroke-linecap: square"/>
   </g>
   <g id="patch_6">
    <path d="M 53.682813 35.7555 
L 410.802813 35.7555 
" style="fill: none; stroke: #000000; stroke-width: 0.8; stroke-linejoin: miter; stroke-linecap: square"/>
   </g>
   <g id="text_21">
    <!-- OLR at TOA minus OLR at emission height for  -->
    <g transform="translate(93.953125 16.318125) scale(0.12 -0.12)">
     <defs>
      <path id="DejaVuSans-4f" d="M 2522 4238 
Q 1834 4238 1429 3725 
Q 1025 3213 1025 2328 
Q 1025 1447 1429 934 
Q 1834 422 2522 422 
Q 3209 422 3611 934 
Q 4013 1447 4013 2328 
Q 4013 3213 3611 3725 
Q 3209 4238 2522 4238 
z
M 2522 4750 
Q 3503 4750 4090 4092 
Q 4678 3434 4678 2328 
Q 4678 1225 4090 567 
Q 3503 -91 2522 -91 
Q 1538 -91 948 565 
Q 359 1222 359 2328 
Q 359 3434 948 4092 
Q 1538 4750 2522 4750 
z
" transform="scale(0.015625)"/>
      <path id="DejaVuSans-4c" d="M 628 4666 
L 1259 4666 
L 1259 531 
L 3531 531 
L 3531 0 
L 628 0 
L 628 4666 
z
" transform="scale(0.015625)"/>
      <path id="DejaVuSans-52" d="M 2841 2188 
Q 3044 2119 3236 1894 
Q 3428 1669 3622 1275 
L 4263 0 
L 3584 0 
L 2988 1197 
Q 2756 1666 2539 1819 
Q 2322 1972 1947 1972 
L 1259 1972 
L 1259 0 
L 628 0 
L 628 4666 
L 2053 4666 
Q 2853 4666 3247 4331 
Q 3641 3997 3641 3322 
Q 3641 2881 3436 2590 
Q 3231 2300 2841 2188 
z
M 1259 4147 
L 1259 2491 
L 2053 2491 
Q 2509 2491 2742 2702 
Q 2975 2913 2975 3322 
Q 2975 3731 2742 3939 
Q 2509 4147 2053 4147 
L 1259 4147 
z
" transform="scale(0.015625)"/>
      <path id="DejaVuSans-54" d="M -19 4666 
L 3928 4666 
L 3928 4134 
L 2272 4134 
L 2272 0 
L 1638 0 
L 1638 4134 
L -19 4134 
L -19 4666 
z
" transform="scale(0.015625)"/>
      <path id="DejaVuSans-41" d="M 2188 4044 
L 1331 1722 
L 3047 1722 
L 2188 4044 
z
M 1831 4666 
L 2547 4666 
L 4325 0 
L 3669 0 
L 3244 1197 
L 1141 1197 
L 716 0 
L 50 0 
L 1831 4666 
z
" transform="scale(0.015625)"/>
      <path id="DejaVuSans-6f" d="M 1959 3097 
Q 1497 3097 1228 2736 
Q 959 2375 959 1747 
Q 959 1119 1226 758 
Q 1494 397 1959 397 
Q 2419 397 2687 759 
Q 2956 1122 2956 1747 
Q 2956 2369 2687 2733 
Q 2419 3097 1959 3097 
z
M 1959 3584 
Q 2709 3584 3137 3096 
Q 3566 2609 3566 1747 
Q 3566 888 3137 398 
Q 2709 -91 1959 -91 
Q 1206 -91 779 398 
Q 353 888 353 1747 
Q 353 2609 779 3096 
Q 1206 3584 1959 3584 
z
" transform="scale(0.015625)"/>
      <path id="DejaVuSans-68" d="M 3513 2113 
L 3513 0 
L 2938 0 
L 2938 2094 
Q 2938 2591 2744 2837 
Q 2550 3084 2163 3084 
Q 1697 3084 1428 2787 
Q 1159 2491 1159 1978 
L 1159 0 
L 581 0 
L 581 4863 
L 1159 4863 
L 1159 2956 
Q 1366 3272 1645 3428 
Q 1925 3584 2291 3584 
Q 2894 3584 3203 3211 
Q 3513 2838 3513 2113 
z
" transform="scale(0.015625)"/>
      <path id="DejaVuSans-67" d="M 2906 1791 
Q 2906 2416 2648 2759 
Q 2391 3103 1925 3103 
Q 1463 3103 1205 2759 
Q 947 2416 947 1791 
Q 947 1169 1205 825 
Q 1463 481 1925 481 
Q 2391 481 2648 825 
Q 2906 1169 2906 1791 
z
M 3481 434 
Q 3481 -459 3084 -895 
Q 2688 -1331 1869 -1331 
Q 1566 -1331 1297 -1286 
Q 1028 -1241 775 -1147 
L 775 -588 
Q 1028 -725 1275 -790 
Q 1522 -856 1778 -856 
Q 2344 -856 2625 -561 
Q 2906 -266 2906 331 
L 2906 616 
Q 2728 306 2450 153 
Q 2172 0 1784 0 
Q 1141 0 747 490 
Q 353 981 353 1791 
Q 353 2603 747 3093 
Q 1141 3584 1784 3584 
Q 2172 3584 2450 3431 
Q 2728 3278 2906 2969 
L 2906 3500 
L 3481 3500 
L 3481 434 
z
" transform="scale(0.015625)"/>
      <path id="DejaVuSans-66" d="M 2375 4863 
L 2375 4384 
L 1825 4384 
Q 1516 4384 1395 4259 
Q 1275 4134 1275 3809 
L 1275 3500 
L 2222 3500 
L 2222 3053 
L 1275 3053 
L 1275 0 
L 697 0 
L 697 3053 
L 147 3053 
L 147 3500 
L 697 3500 
L 697 3744 
Q 697 4328 969 4595 
Q 1241 4863 1831 4863 
L 2375 4863 
z
" transform="scale(0.015625)"/>
     </defs>
     <use xlink:href="#DejaVuSans-4f"/>
     <use xlink:href="#DejaVuSans-4c" transform="translate(78.710938 0)"/>
     <use xlink:href="#DejaVuSans-52" transform="translate(134.423828 0)"/>
     <use xlink:href="#DejaVuSans-20" transform="translate(203.90625 0)"/>
     <use xlink:href="#DejaVuSans-61" transform="translate(235.693359 0)"/>
     <use xlink:href="#DejaVuSans-74" transform="translate(296.972656 0)"/>
     <use xlink:href="#DejaVuSans-20" transform="translate(336.181641 0)"/>
     <use xlink:href="#DejaVuSans-54" transform="translate(367.96875 0)"/>
     <use xlink:href="#DejaVuSans-4f" transform="translate(429.052734 0)"/>
     <use xlink:href="#DejaVuSans-41" transform="translate(506.013672 0)"/>
     <use xlink:href="#DejaVuSans-20" transform="translate(574.421875 0)"/>
     <use xlink:href="#DejaVuSans-6d" transform="translate(606.208984 0)"/>
     <use xlink:href="#DejaVuSans-69" transform="translate(703.621094 0)"/>
     <use xlink:href="#DejaVuSans-6e" transform="translate(731.404297 0)"/>
     <use xlink:href="#DejaVuSans-75" transform="translate(794.783203 0)"/>
     <use xlink:href="#DejaVuSans-73" transform="translate(858.162109 0)"/>
     <use xlink:href="#DejaVuSans-20" transform="translate(910.261719 0)"/>
     <use xlink:href="#DejaVuSans-4f" transform="translate(942.048828 0)"/>
     <use xlink:href="#DejaVuSans-4c" transform="translate(1020.759766 0)"/>
     <use xlink:href="#DejaVuSans-52" transform="translate(1076.472656 0)"/>
     <use xlink:href="#DejaVuSans-20" transform="translate(1145.955078 0)"/>
     <use xlink:href="#DejaVuSans-61" transform="translate(1177.742188 0)"/>
     <use xlink:href="#DejaVuSans-74" transform="translate(1239.021484 0)"/>
     <use xlink:href="#DejaVuSans-20" transform="translate(1278.230469 0)"/>
     <use xlink:href="#DejaVuSans-65" transform="translate(1310.017578 0)"/>
     <use xlink:href="#DejaVuSans-6d" transform="translate(1371.541016 0)"/>
     <use xlink:href="#DejaVuSans-69" transform="translate(1468.953125 0)"/>
     <use xlink:href="#DejaVuSans-73" transform="translate(1496.736328 0)"/>
     <use xlink:href="#DejaVuSans-73" transform="translate(1548.835938 0)"/>
     <use xlink:href="#DejaVuSans-69" transform="translate(1600.935547 0)"/>
     <use xlink:href="#DejaVuSans-6f" transform="translate(1628.71875 0)"/>
     <use xlink:href="#DejaVuSans-6e" transform="translate(1689.900391 0)"/>
     <use xlink:href="#DejaVuSans-20" transform="translate(1753.279297 0)"/>
     <use xlink:href="#DejaVuSans-68" transform="translate(1785.066406 0)"/>
     <use xlink:href="#DejaVuSans-65" transform="translate(1848.445312 0)"/>
     <use xlink:href="#DejaVuSans-69" transform="translate(1909.96875 0)"/>
     <use xlink:href="#DejaVuSans-67" transform="translate(1937.751953 0)"/>
     <use xlink:href="#DejaVuSans-68" transform="translate(2001.228516 0)"/>
     <use xlink:href="#DejaVuSans-74" transform="translate(2064.607422 0)"/>
     <use xlink:href="#DejaVuSans-20" transform="translate(2103.816406 0)"/>
     <use xlink:href="#DejaVuSans-66" transform="translate(2135.603516 0)"/>
     <use xlink:href="#DejaVuSans-6f" transform="translate(2170.808594 0)"/>
     <use xlink:href="#DejaVuSans-72" transform="translate(2231.990234 0)"/>
     <use xlink:href="#DejaVuSans-20" transform="translate(2273.103516 0)"/>
    </g>
    <!--  (O3) -->
    <g transform="translate(217.113438 29.7555) scale(0.12 -0.12)">
     <defs>
      <path id="DejaVuSans-33" d="M 2597 2516 
Q 3050 2419 3304 2112 
Q 3559 1806 3559 1356 
Q 3559 666 3084 287 
Q 2609 -91 1734 -91 
Q 1441 -91 1130 -33 
Q 819 25 488 141 
L 488 750 
Q 750 597 1062 519 
Q 1375 441 1716 441 
Q 2309 441 2620 675 
Q 2931 909 2931 1356 
Q 2931 1769 2642 2001 
Q 2353 2234 1838 2234 
L 1294 2234 
L 1294 2753 
L 1863 2753 
Q 2328 2753 2575 2939 
Q 2822 3125 2822 3475 
Q 2822 3834 2567 4026 
Q 2313 4219 1838 4219 
Q 1578 4219 1281 4162 
Q 984 4106 628 3988 
L 628 4550 
Q 988 4650 1302 4700 
Q 1616 4750 1894 4750 
Q 2613 4750 3031 4423 
Q 3450 4097 3450 3541 
Q 3450 3153 3228 2886 
Q 3006 2619 2597 2516 
z
" transform="scale(0.015625)"/>
     </defs>
     <use xlink:href="#DejaVuSans-20"/>
     <use xlink:href="#DejaVuSans-28" transform="translate(31.787109 0)"/>
     <use xlink:href="#DejaVuSans-4f" transform="translate(70.800781 0)"/>
     <use xlink:href="#DejaVuSans-33" transform="translate(149.511719 0)"/>
     <use xlink:href="#DejaVuSans-29" transform="translate(213.134766 0)"/>
    </g>
   </g>
   <g id="legend_1">
    <g id="patch_7">
     <path d="M 272.496562 296.8675 
L 403.802812 296.8675 
Q 405.802812 296.8675 405.802812 294.8675 
L 405.802812 266.51125 
Q 405.802812 264.51125 403.802812 264.51125 
L 272.496562 264.51125 
Q 270.496562 264.51125 270.496562 266.51125 
L 270.496562 294.8675 
Q 270.496562 296.8675 272.496562 296.8675 
z
" style="fill: #ffffff; opacity: 0.8; stroke: #cccccc; stroke-linejoin: miter"/>
    </g>
    <g id="line2d_37">
     <path d="M 274.496562 272.609687 
L 284.496562 272.609687 
L 294.496562 272.609687 
" style="fill: none; stroke: #1f77b4; stroke-width: 0.7; stroke-linecap: square"/>
    </g>
    <g id="text_22">
     <!-- difference to ARTS -->
     <g transform="translate(302.496562 276.109687) scale(0.1 -0.1)">
      <use xlink:href="#DejaVuSans-64"/>
      <use xlink:href="#DejaVuSans-69" transform="translate(63.476562 0)"/>
      <use xlink:href="#DejaVuSans-66" transform="translate(91.259766 0)"/>
      <use xlink:href="#DejaVuSans-66" transform="translate(126.464844 0)"/>
      <use xlink:href="#DejaVuSans-65" transform="translate(161.669922 0)"/>
      <use xlink:href="#DejaVuSans-72" transform="translate(223.193359 0)"/>
      <use xlink:href="#DejaVuSans-65" transform="translate(262.056641 0)"/>
      <use xlink:href="#DejaVuSans-6e" transform="translate(323.580078 0)"/>
      <use xlink:href="#DejaVuSans-63" transform="translate(386.958984 0)"/>
      <use xlink:href="#DejaVuSans-65" transform="translate(441.939453 0)"/>
      <use xlink:href="#DejaVuSans-20" transform="translate(503.462891 0)"/>
      <use xlink:href="#DejaVuSans-74" transform="translate(535.25 0)"/>
      <use xlink:href="#DejaVuSans-6f" transform="translate(574.458984 0)"/>
      <use xlink:href="#DejaVuSans-20" transform="translate(635.640625 0)"/>
      <use xlink:href="#DejaVuSans-41" transform="translate(667.427734 0)"/>
      <use xlink:href="#DejaVuSans-52" transform="translate(735.835938 0)"/>
      <use xlink:href="#DejaVuSans-54" transform="translate(798.068359 0)"/>
      <use xlink:href="#DejaVuSans-53" transform="translate(859.152344 0)"/>
     </g>
    </g>
    <g id="line2d_38">
     <path d="M 274.496562 287.287812 
L 284.496562 287.287812 
L 294.496562 287.287812 
" style="fill: none; stroke: #ff7f0e; stroke-width: 0.7; stroke-linecap: square"/>
    </g>
    <g id="text_23">
     <!-- difference to Planck -->
     <g transform="translate(302.496562 290.787812) scale(0.1 -0.1)">
      <defs>
       <path id="DejaVuSans-50" d="M 1259 4147 
L 1259 2394 
L 2053 2394 
Q 2494 2394 2734 2622 
Q 2975 2850 2975 3272 
Q 2975 3691 2734 3919 
Q 2494 4147 2053 4147 
L 1259 4147 
z
M 628 4666 
L 2053 4666 
Q 2838 4666 3239 4311 
Q 3641 3956 3641 3272 
Q 3641 2581 3239 2228 
Q 2838 1875 2053 1875 
L 1259 1875 
L 1259 0 
L 628 0 
L 628 4666 
z
" transform="scale(0.015625)"/>
       <path id="DejaVuSans-6b" d="M 581 4863 
L 1159 4863 
L 1159 1991 
L 2875 3500 
L 3609 3500 
L 1753 1863 
L 3688 0 
L 2938 0 
L 1159 1709 
L 1159 0 
L 581 0 
L 581 4863 
z
" transform="scale(0.015625)"/>
      </defs>
      <use xlink:href="#DejaVuSans-64"/>
      <use xlink:href="#DejaVuSans-69" transform="translate(63.476562 0)"/>
      <use xlink:href="#DejaVuSans-66" transform="translate(91.259766 0)"/>
      <use xlink:href="#DejaVuSans-66" transform="translate(126.464844 0)"/>
      <use xlink:href="#DejaVuSans-65" transform="translate(161.669922 0)"/>
      <use xlink:href="#DejaVuSans-72" transform="translate(223.193359 0)"/>
      <use xlink:href="#DejaVuSans-65" transform="translate(262.056641 0)"/>
      <use xlink:href="#DejaVuSans-6e" transform="translate(323.580078 0)"/>
      <use xlink:href="#DejaVuSans-63" transform="translate(386.958984 0)"/>
      <use xlink:href="#DejaVuSans-65" transform="translate(441.939453 0)"/>
      <use xlink:href="#DejaVuSans-20" transform="translate(503.462891 0)"/>
      <use xlink:href="#DejaVuSans-74" transform="translate(535.25 0)"/>
      <use xlink:href="#DejaVuSans-6f" transform="translate(574.458984 0)"/>
      <use xlink:href="#DejaVuSans-20" transform="translate(635.640625 0)"/>
      <use xlink:href="#DejaVuSans-50" transform="translate(667.427734 0)"/>
      <use xlink:href="#DejaVuSans-6c" transform="translate(727.730469 0)"/>
      <use xlink:href="#DejaVuSans-61" transform="translate(755.513672 0)"/>
      <use xlink:href="#DejaVuSans-6e" transform="translate(816.792969 0)"/>
      <use xlink:href="#DejaVuSans-63" transform="translate(880.171875 0)"/>
      <use xlink:href="#DejaVuSans-6b" transform="translate(935.152344 0)"/>
     </g>
    </g>
   </g>
  </g>
 </g>
 <defs>
  <clipPath id="p1cc241ab67">
   <rect x="53.682813" y="35.7555" width="357.12" height="266.112"/>
  </clipPath>
 </defs>
</svg>
