<?xml version="1.0" encoding="utf-8" standalone="no"?>
<!DOCTYPE svg PUBLIC "-//W3C//DTD SVG 1.1//EN"
  "http://www.w3.org/Graphics/SVG/1.1/DTD/svg11.dtd">
<svg xmlns:xlink="http://www.w3.org/1999/xlink" width="421.502812pt" height="340.145625pt" viewBox="0 0 421.502812 340.145625" xmlns="http://www.w3.org/2000/svg" version="1.1">
 <metadata>
  <rdf:RDF xmlns:dc="http://purl.org/dc/elements/1.1/" xmlns:cc="http://creativecommons.org/ns#" xmlns:rdf="http://www.w3.org/1999/02/22-rdf-syntax-ns#">
   <cc:Work>
    <dc:type rdf:resource="http://purl.org/dc/dcmitype/StillImage"/>
    <dc:date>2026-01-28T21:31:07.024722</dc:date>
    <dc:format>image/svg+xml</dc:format>
    <dc:creator>
     <cc:Agent>
      <dc:title>Matplotlib v3.10.6, https://matplotlib.org/</dc:title>
     </cc:Agent>
    </dc:creator>
   </cc:Work>
  </rdf:RDF>
 </metadata>
 <defs>
  <style type="text/css">*{stroke-linejoin: round; stroke-linecap: butt}</style>
 </defs>
 <g id="figure_1">
  <g id="patch_1">
   <path d="M 0 340.145625 
L 421.502812 340.145625 
L 421.502812 0 
L 0 0 
z
" style="fill: #ffffff"/>
  </g>
  <g id="axes_1">
   <g id="patch_2">
    <path d="M 57.182813 301.8675 
L 414.302813 301.8675 
L 414.302813 35.7555 
L 57.182813 35.7555 
z
" style="fill: #ffffff"/>
   </g>
   <g id="matplotlib.axis_1">
    <g id="xtick_1">
     <g id="line2d_1">
      <path d="M 73.253131 301.8675 
L 73.253131 35.7555 
" clip-path="url(#p1435da1934)" style="fill: none; stroke: #808080; stroke-width: 0.3; stroke-linecap: square"/>
     </g>
     <g id="line2d_2">
      <defs>
       <path id="m85cbd90269" d="M 0 0 
L 0 3.5 
" style="stroke: #000000; stroke-width: 0.8"/>
      </defs>
      <g>
       <use xlink:href="#m85cbd90269" x="73.253131" y="301.8675" style="stroke: #000000; stroke-width: 0.8"/>
      </g>
     </g>
     <g id="text_1">
      <!-- 0 -->
      <g transform="translate(70.071881 316.465937) scale(0.1 -0.1)">
       <defs>
        <path id="DejaVuSans-30" d="M 2034 4250 
Q 1547 4250 1301 3770 
Q 1056 3291 1056 2328 
Q 1056 1369 1301 889 
Q 1547 409 2034 409 
Q 2525 409 2770 889 
Q 3016 1369 3016 2328 
Q 3016 3291 2770 3770 
Q 2525 4250 2034 4250 
z
M 2034 4750 
Q 2819 4750 3233 4129 
Q 3647 3509 3647 2328 
Q 3647 1150 3233 529 
Q 2819 -91 2034 -91 
Q 1250 -91 836 529 
Q 422 1150 422 2328 
Q 422 3509 836 4129 
Q 1250 4750 2034 4750 
z
" transform="scale(0.015625)"/>
       </defs>
       <use xlink:href="#DejaVuSans-30"/>
      </g>
     </g>
    </g>
    <g id="xtick_2">
     <g id="line2d_3">
      <path d="M 113.855251 301.8675 
L 113.855251 35.7555 
" clip-path="url(#p1435da1934)" style="fill: none; stroke: #808080; stroke-width: 0.3; stroke-linecap: square"/>
     </g>
     <g id="line2d_4">
      <g>
       <use xlink:href="#m85cbd90269" x="113.855251" y="301.8675" style="stroke: #000000; stroke-width: 0.8"/>
      </g>
     </g>
     <g id="text_2">
      <!-- 250 -->
      <g transform="translate(104.311501 316.465937) scale(0.1 -0.1)">
       <defs>
        <path id="DejaVuSans-32" d="M 1228 531 
L 3431 531 
L 3431 0 
L 469 0 
L 469 531 
Q 828 903 1448 1529 
Q 2069 2156 2228 2338 
Q 2531 2678 2651 2914 
Q 2772 3150 2772 3378 
Q 2772 3750 2511 3984 
Q 2250 4219 1831 4219 
Q 1534 4219 1204 4116 
Q 875 4013 500 3803 
L 500 4441 
Q 881 4594 1212 4672 
Q 1544 4750 1819 4750 
Q 2544 4750 2975 4387 
Q 3406 4025 3406 3419 
Q 3406 3131 3298 2873 
Q 3191 2616 2906 2266 
Q 2828 2175 2409 1742 
Q 1991 1309 1228 531 
z
" transform="scale(0.015625)"/>
        <path id="DejaVuSans-35" d="M 691 4666 
L 3169 4666 
L 3169 4134 
L 1269 4134 
L 1269 2991 
Q 1406 3038 1543 3061 
Q 1681 3084 1819 3084 
Q 2600 3084 3056 2656 
Q 3513 2228 3513 1497 
Q 3513 744 3044 326 
Q 2575 -91 1722 -91 
Q 1428 -91 1123 -41 
Q 819 9 494 109 
L 494 744 
Q 775 591 1075 516 
Q 1375 441 1709 441 
Q 2250 441 2565 725 
Q 2881 1009 2881 1497 
Q 2881 1984 2565 2268 
Q 2250 2553 1709 2553 
Q 1456 2553 1204 2497 
Q 953 2441 691 2322 
L 691 4666 
z
" transform="scale(0.015625)"/>
       </defs>
       <use xlink:href="#DejaVuSans-32"/>
       <use xlink:href="#DejaVuSans-35" transform="translate(63.623047 0)"/>
       <use xlink:href="#DejaVuSans-30" transform="translate(127.246094 0)"/>
      </g>
     </g>
    </g>
    <g id="xtick_3">
     <g id="line2d_5">
      <path d="M 154.45737 301.8675 
L 154.45737 35.7555 
" clip-path="url(#p1435da1934)" style="fill: none; stroke: #808080; stroke-width: 0.3; stroke-linecap: square"/>
     </g>
     <g id="line2d_6">
      <g>
       <use xlink:href="#m85cbd90269" x="154.45737" y="301.8675" style="stroke: #000000; stroke-width: 0.8"/>
      </g>
     </g>
     <g id="text_3">
      <!-- 500 -->
      <g transform="translate(144.91362 316.465937) scale(0.1 -0.1)">
       <use xlink:href="#DejaVuSans-35"/>
       <use xlink:href="#DejaVuSans-30" transform="translate(63.623047 0)"/>
       <use xlink:href="#DejaVuSans-30" transform="translate(127.246094 0)"/>
      </g>
     </g>
    </g>
    <g id="xtick_4">
     <g id="line2d_7">
      <path d="M 195.059489 301.8675 
L 195.059489 35.7555 
" clip-path="url(#p1435da1934)" style="fill: none; stroke: #808080; stroke-width: 0.3; stroke-linecap: square"/>
     </g>
     <g id="line2d_8">
      <g>
       <use xlink:href="#m85cbd90269" x="195.059489" y="301.8675" style="stroke: #000000; stroke-width: 0.8"/>
      </g>
     </g>
     <g id="text_4">
      <!-- 750 -->
      <g transform="translate(185.515739 316.465937) scale(0.1 -0.1)">
       <defs>
        <path id="DejaVuSans-37" d="M 525 4666 
L 3525 4666 
L 3525 4397 
L 1831 0 
L 1172 0 
L 2766 4134 
L 525 4134 
L 525 4666 
z
" transform="scale(0.015625)"/>
       </defs>
       <use xlink:href="#DejaVuSans-37"/>
       <use xlink:href="#DejaVuSans-35" transform="translate(63.623047 0)"/>
       <use xlink:href="#DejaVuSans-30" transform="translate(127.246094 0)"/>
      </g>
     </g>
    </g>
    <g id="xtick_5">
     <g id="line2d_9">
      <path d="M 235.661608 301.8675 
L 235.661608 35.7555 
" clip-path="url(#p1435da1934)" style="fill: none; stroke: #808080; stroke-width: 0.3; stroke-linecap: square"/>
     </g>
     <g id="line2d_10">
      <g>
       <use xlink:href="#m85cbd90269" x="235.661608" y="301.8675" style="stroke: #000000; stroke-width: 0.8"/>
      </g>
     </g>
     <g id="text_5">
      <!-- 1000 -->
      <g transform="translate(222.936608 316.465937) scale(0.1 -0.1)">
       <defs>
        <path id="DejaVuSans-31" d="M 794 531 
L 1825 531 
L 1825 4091 
L 703 3866 
L 703 4441 
L 1819 4666 
L 2450 4666 
L 2450 531 
L 3481 531 
L 3481 0 
L 794 0 
L 794 531 
z
" transform="scale(0.015625)"/>
       </defs>
       <use xlink:href="#DejaVuSans-31"/>
       <use xlink:href="#DejaVuSans-30" transform="translate(63.623047 0)"/>
       <use xlink:href="#DejaVuSans-30" transform="translate(127.246094 0)"/>
       <use xlink:href="#DejaVuSans-30" transform="translate(190.869141 0)"/>
      </g>
     </g>
    </g>
    <g id="xtick_6">
     <g id="line2d_11">
      <path d="M 276.263728 301.8675 
L 276.263728 35.7555 
" clip-path="url(#p1435da1934)" style="fill: none; stroke: #808080; stroke-width: 0.3; stroke-linecap: square"/>
     </g>
     <g id="line2d_12">
      <g>
       <use xlink:href="#m85cbd90269" x="276.263728" y="301.8675" style="stroke: #000000; stroke-width: 0.8"/>
      </g>
     </g>
     <g id="text_6">
      <!-- 1250 -->
      <g transform="translate(263.538728 316.465937) scale(0.1 -0.1)">
       <use xlink:href="#DejaVuSans-31"/>
       <use xlink:href="#DejaVuSans-32" transform="translate(63.623047 0)"/>
       <use xlink:href="#DejaVuSans-35" transform="translate(127.246094 0)"/>
       <use xlink:href="#DejaVuSans-30" transform="translate(190.869141 0)"/>
      </g>
     </g>
    </g>
    <g id="xtick_7">
     <g id="line2d_13">
      <path d="M 316.865847 301.8675 
L 316.865847 35.7555 
" clip-path="url(#p1435da1934)" style="fill: none; stroke: #808080; stroke-width: 0.3; stroke-linecap: square"/>
     </g>
     <g id="line2d_14">
      <g>
       <use xlink:href="#m85cbd90269" x="316.865847" y="301.8675" style="stroke: #000000; stroke-width: 0.8"/>
      </g>
     </g>
     <g id="text_7">
      <!-- 1500 -->
      <g transform="translate(304.140847 316.465937) scale(0.1 -0.1)">
       <use xlink:href="#DejaVuSans-31"/>
       <use xlink:href="#DejaVuSans-35" transform="translate(63.623047 0)"/>
       <use xlink:href="#DejaVuSans-30" transform="translate(127.246094 0)"/>
       <use xlink:href="#DejaVuSans-30" transform="translate(190.869141 0)"/>
      </g>
     </g>
    </g>
    <g id="xtick_8">
     <g id="line2d_15">
      <path d="M 357.467966 301.8675 
L 357.467966 35.7555 
" clip-path="url(#p1435da1934)" style="fill: none; stroke: #808080; stroke-width: 0.3; stroke-linecap: square"/>
     </g>
     <g id="line2d_16">
      <g>
       <use xlink:href="#m85cbd90269" x="357.467966" y="301.8675" style="stroke: #000000; stroke-width: 0.8"/>
      </g>
     </g>
     <g id="text_8">
      <!-- 1750 -->
      <g transform="translate(344.742966 316.465937) scale(0.1 -0.1)">
       <use xlink:href="#DejaVuSans-31"/>
       <use xlink:href="#DejaVuSans-37" transform="translate(63.623047 0)"/>
       <use xlink:href="#DejaVuSans-35" transform="translate(127.246094 0)"/>
       <use xlink:href="#DejaVuSans-30" transform="translate(190.869141 0)"/>
      </g>
     </g>
    </g>
    <g id="xtick_9">
     <g id="line2d_17">
      <path d="M 398.070085 301.8675 
L 398.070085 35.7555 
" clip-path="url(#p1435da1934)" style="fill: none; stroke: #808080; stroke-width: 0.3; stroke-linecap: square"/>
     </g>
     <g id="line2d_18">
      <g>
       <use xlink:href="#m85cbd90269" x="398.070085" y="301.8675" style="stroke: #000000; stroke-width: 0.8"/>
      </g>
     </g>
     <g id="text_9">
      <!-- 2000 -->
      <g transform="translate(385.345085 316.465937) scale(0.1 -0.1)">
       <use xlink:href="#DejaVuSans-32"/>
       <use xlink:href="#DejaVuSans-30" transform="translate(63.623047 0)"/>
       <use xlink:href="#DejaVuSans-30" transform="translate(127.246094 0)"/>
       <use xlink:href="#DejaVuSans-30" transform="translate(190.869141 0)"/>
      </g>
     </g>
    </g>
    <g id="text_10">
     <!-- Wavenumber (cm$^{-1}$) -->
     <g transform="translate(183.692813 330.865937) scale(0.1 -0.1)">
      <defs>
       <path id="DejaVuSans-57" d="M 213 4666 
L 850 4666 
L 1831 722 
L 2809 4666 
L 3519 4666 
L 4500 722 
L 5478 4666 
L 6119 4666 
L 4947 0 
L 4153 0 
L 3169 4050 
L 2175 0 
L 1381 0 
L 213 4666 
z
" transform="scale(0.015625)"/>
       <path id="DejaVuSans-61" d="M 2194 1759 
Q 1497 1759 1228 1600 
Q 959 1441 959 1056 
Q 959 750 1161 570 
Q 1363 391 1709 391 
Q 2188 391 2477 730 
Q 2766 1069 2766 1631 
L 2766 1759 
L 2194 1759 
z
M 3341 1997 
L 3341 0 
L 2766 0 
L 2766 531 
Q 2569 213 2275 61 
Q 1981 -91 1556 -91 
Q 1019 -91 701 211 
Q 384 513 384 1019 
Q 384 1609 779 1909 
Q 1175 2209 1959 2209 
L 2766 2209 
L 2766 2266 
Q 2766 2663 2505 2880 
Q 2244 3097 1772 3097 
Q 1472 3097 1187 3025 
Q 903 2953 641 2809 
L 641 3341 
Q 956 3463 1253 3523 
Q 1550 3584 1831 3584 
Q 2591 3584 2966 3190 
Q 3341 2797 3341 1997 
z
" transform="scale(0.015625)"/>
       <path id="DejaVuSans-76" d="M 191 3500 
L 800 3500 
L 1894 563 
L 2988 3500 
L 3597 3500 
L 2284 0 
L 1503 0 
L 191 3500 
z
" transform="scale(0.015625)"/>
       <path id="DejaVuSans-65" d="M 3597 1894 
L 3597 1613 
L 953 1613 
Q 991 1019 1311 708 
Q 1631 397 2203 397 
Q 2534 397 2845 478 
Q 3156 559 3463 722 
L 3463 178 
Q 3153 47 2828 -22 
Q 2503 -91 2169 -91 
Q 1331 -91 842 396 
Q 353 884 353 1716 
Q 353 2575 817 3079 
Q 1281 3584 2069 3584 
Q 2775 3584 3186 3129 
Q 3597 2675 3597 1894 
z
M 3022 2063 
Q 3016 2534 2758 2815 
Q 2500 3097 2075 3097 
Q 1594 3097 1305 2825 
Q 1016 2553 972 2059 
L 3022 2063 
z
" transform="scale(0.015625)"/>
       <path id="DejaVuSans-6e" d="M 3513 2113 
L 3513 0 
L 2938 0 
L 2938 2094 
Q 2938 2591 2744 2837 
Q 2550 3084 2163 3084 
Q 1697 3084 1428 2787 
Q 1159 2491 1159 1978 
L 1159 0 
L 581 0 
L 581 3500 
L 1159 3500 
L 1159 2956 
Q 1366 3272 1645 3428 
Q 1925 3584 2291 3584 
Q 2894 3584 3203 3211 
Q 3513 2838 3513 2113 
z
" transform="scale(0.015625)"/>
       <path id="DejaVuSans-75" d="M 544 1381 
L 544 3500 
L 1119 3500 
L 1119 1403 
Q 1119 906 1312 657 
Q 1506 409 1894 409 
Q 2359 409 2629 706 
Q 2900 1003 2900 1516 
L 2900 3500 
L 3475 3500 
L 3475 0 
L 2900 0 
L 2900 538 
Q 2691 219 2414 64 
Q 2138 -91 1772 -91 
Q 1169 -91 856 284 
Q 544 659 544 1381 
z
M 1991 3584 
L 1991 3584 
z
" transform="scale(0.015625)"/>
       <path id="DejaVuSans-6d" d="M 3328 2828 
Q 3544 3216 3844 3400 
Q 4144 3584 4550 3584 
Q 5097 3584 5394 3201 
Q 5691 2819 5691 2113 
L 5691 0 
L 5113 0 
L 5113 2094 
Q 5113 2597 4934 2840 
Q 4756 3084 4391 3084 
Q 3944 3084 3684 2787 
Q 3425 2491 3425 1978 
L 3425 0 
L 2847 0 
L 2847 2094 
Q 2847 2600 2669 2842 
Q 2491 3084 2119 3084 
Q 1678 3084 1418 2786 
Q 1159 2488 1159 1978 
L 1159 0 
L 581 0 
L 581 3500 
L 1159 3500 
L 1159 2956 
Q 1356 3278 1631 3431 
Q 1906 3584 2284 3584 
Q 2666 3584 2933 3390 
Q 3200 3197 3328 2828 
z
" transform="scale(0.015625)"/>
       <path id="DejaVuSans-62" d="M 3116 1747 
Q 3116 2381 2855 2742 
Q 2594 3103 2138 3103 
Q 1681 3103 1420 2742 
Q 1159 2381 1159 1747 
Q 1159 1113 1420 752 
Q 1681 391 2138 391 
Q 2594 391 2855 752 
Q 3116 1113 3116 1747 
z
M 1159 2969 
Q 1341 3281 1617 3432 
Q 1894 3584 2278 3584 
Q 2916 3584 3314 3078 
Q 3713 2572 3713 1747 
Q 3713 922 3314 415 
Q 2916 -91 2278 -91 
Q 1894 -91 1617 61 
Q 1341 213 1159 525 
L 1159 0 
L 581 0 
L 581 4863 
L 1159 4863 
L 1159 2969 
z
" transform="scale(0.015625)"/>
       <path id="DejaVuSans-72" d="M 2631 2963 
Q 2534 3019 2420 3045 
Q 2306 3072 2169 3072 
Q 1681 3072 1420 2755 
Q 1159 2438 1159 1844 
L 1159 0 
L 581 0 
L 581 3500 
L 1159 3500 
L 1159 2956 
Q 1341 3275 1631 3429 
Q 1922 3584 2338 3584 
Q 2397 3584 2469 3576 
Q 2541 3569 2628 3553 
L 2631 2963 
z
" transform="scale(0.015625)"/>
       <path id="DejaVuSans-20" transform="scale(0.015625)"/>
       <path id="DejaVuSans-28" d="M 1984 4856 
Q 1566 4138 1362 3434 
Q 1159 2731 1159 2009 
Q 1159 1288 1364 580 
Q 1569 -128 1984 -844 
L 1484 -844 
Q 1016 -109 783 600 
Q 550 1309 550 2009 
Q 550 2706 781 3412 
Q 1013 4119 1484 4856 
L 1984 4856 
z
" transform="scale(0.015625)"/>
       <path id="DejaVuSans-63" d="M 3122 3366 
L 3122 2828 
Q 2878 2963 2633 3030 
Q 2388 3097 2138 3097 
Q 1578 3097 1268 2742 
Q 959 2388 959 1747 
Q 959 1106 1268 751 
Q 1578 397 2138 397 
Q 2388 397 2633 464 
Q 2878 531 3122 666 
L 3122 134 
Q 2881 22 2623 -34 
Q 2366 -91 2075 -91 
Q 1284 -91 818 406 
Q 353 903 353 1747 
Q 353 2603 823 3093 
Q 1294 3584 2113 3584 
Q 2378 3584 2631 3529 
Q 2884 3475 3122 3366 
z
" transform="scale(0.015625)"/>
       <path id="DejaVuSans-2212" d="M 678 2272 
L 4684 2272 
L 4684 1741 
L 678 1741 
L 678 2272 
z
" transform="scale(0.015625)"/>
       <path id="DejaVuSans-29" d="M 513 4856 
L 1013 4856 
Q 1481 4119 1714 3412 
Q 1947 2706 1947 2009 
Q 1947 1309 1714 600 
Q 1481 -109 1013 -844 
L 513 -844 
Q 928 -128 1133 580 
Q 1338 1288 1338 2009 
Q 1338 2731 1133 3434 
Q 928 4138 513 4856 
z
" transform="scale(0.015625)"/>
      </defs>
      <use xlink:href="#DejaVuSans-57" transform="translate(0 0.684375)"/>
      <use xlink:href="#DejaVuSans-61" transform="translate(98.876953 0.684375)"/>
      <use xlink:href="#DejaVuSans-76" transform="translate(160.15625 0.684375)"/>
      <use xlink:href="#DejaVuSans-65" transform="translate(219.335938 0.684375)"/>
      <use xlink:href="#DejaVuSans-6e" transform="translate(280.859375 0.684375)"/>
      <use xlink:href="#DejaVuSans-75" transform="translate(344.238281 0.684375)"/>
      <use xlink:href="#DejaVuSans-6d" transform="translate(407.617188 0.684375)"/>
      <use xlink:href="#DejaVuSans-62" transform="translate(505.029297 0.684375)"/>
      <use xlink:href="#DejaVuSans-65" transform="translate(568.505859 0.684375)"/>
      <use xlink:href="#DejaVuSans-72" transform="translate(630.029297 0.684375)"/>
      <use xlink:href="#DejaVuSans-20" transform="translate(671.142578 0.684375)"/>
      <use xlink:href="#DejaVuSans-28" transform="translate(702.929688 0.684375)"/>
      <use xlink:href="#DejaVuSans-63" transform="translate(741.943359 0.684375)"/>
      <use xlink:href="#DejaVuSans-6d" transform="translate(796.923828 0.684375)"/>
      <use xlink:href="#DejaVuSans-2212" transform="translate(895.292969 38.965625) scale(0.7)"/>
      <use xlink:href="#DejaVuSans-31" transform="translate(953.945312 38.965625) scale(0.7)"/>
      <use xlink:href="#DejaVuSans-29" transform="translate(1001.21582 0.684375)"/>
     </g>
    </g>
   </g>
   <g id="matplotlib.axis_2">
    <g id="ytick_1">
     <g id="line2d_19">
      <path d="M 57.182813 300.173459 
L 414.302813 300.173459 
" clip-path="url(#p1435da1934)" style="fill: none; stroke: #808080; stroke-width: 0.3; stroke-linecap: square"/>
     </g>
     <g id="line2d_20">
      <defs>
       <path id="meacd1905f5" d="M 0 0 
L -3.5 0 
" style="stroke: #000000; stroke-width: 0.8"/>
      </defs>
      <g>
       <use xlink:href="#meacd1905f5" x="57.182813" y="300.173459" style="stroke: #000000; stroke-width: 0.8"/>
      </g>
     </g>
     <g id="text_11">
      <!-- −0.4 -->
      <g transform="translate(25.9 303.972678) scale(0.1 -0.1)">
       <defs>
        <path id="DejaVuSans-2e" d="M 684 794 
L 1344 794 
L 1344 0 
L 684 0 
L 684 794 
z
" transform="scale(0.015625)"/>
        <path id="DejaVuSans-34" d="M 2419 4116 
L 825 1625 
L 2419 1625 
L 2419 4116 
z
M 2253 4666 
L 3047 4666 
L 3047 1625 
L 3713 1625 
L 3713 1100 
L 3047 1100 
L 3047 0 
L 2419 0 
L 2419 1100 
L 313 1100 
L 313 1709 
L 2253 4666 
z
" transform="scale(0.015625)"/>
       </defs>
       <use xlink:href="#DejaVuSans-2212"/>
       <use xlink:href="#DejaVuSans-30" transform="translate(83.789062 0)"/>
       <use xlink:href="#DejaVuSans-2e" transform="translate(147.412109 0)"/>
       <use xlink:href="#DejaVuSans-34" transform="translate(179.199219 0)"/>
      </g>
     </g>
    </g>
    <g id="ytick_2">
     <g id="line2d_21">
      <path d="M 57.182813 262.718434 
L 414.302813 262.718434 
" clip-path="url(#p1435da1934)" style="fill: none; stroke: #808080; stroke-width: 0.3; stroke-linecap: square"/>
     </g>
     <g id="line2d_22">
      <g>
       <use xlink:href="#meacd1905f5" x="57.182813" y="262.718434" style="stroke: #000000; stroke-width: 0.8"/>
      </g>
     </g>
     <g id="text_12">
      <!-- −0.2 -->
      <g transform="translate(25.9 266.517653) scale(0.1 -0.1)">
       <use xlink:href="#DejaVuSans-2212"/>
       <use xlink:href="#DejaVuSans-30" transform="translate(83.789062 0)"/>
       <use xlink:href="#DejaVuSans-2e" transform="translate(147.412109 0)"/>
       <use xlink:href="#DejaVuSans-32" transform="translate(179.199219 0)"/>
      </g>
     </g>
    </g>
    <g id="ytick_3">
     <g id="line2d_23">
      <path d="M 57.182813 225.263409 
L 414.302813 225.263409 
" clip-path="url(#p1435da1934)" style="fill: none; stroke: #808080; stroke-width: 0.3; stroke-linecap: square"/>
     </g>
     <g id="line2d_24">
      <g>
       <use xlink:href="#meacd1905f5" x="57.182813" y="225.263409" style="stroke: #000000; stroke-width: 0.8"/>
      </g>
     </g>
     <g id="text_13">
      <!-- 0.0 -->
      <g transform="translate(34.279688 229.062628) scale(0.1 -0.1)">
       <use xlink:href="#DejaVuSans-30"/>
       <use xlink:href="#DejaVuSans-2e" transform="translate(63.623047 0)"/>
       <use xlink:href="#DejaVuSans-30" transform="translate(95.410156 0)"/>
      </g>
     </g>
    </g>
    <g id="ytick_4">
     <g id="line2d_25">
      <path d="M 57.182813 187.808384 
L 414.302813 187.808384 
" clip-path="url(#p1435da1934)" style="fill: none; stroke: #808080; stroke-width: 0.3; stroke-linecap: square"/>
     </g>
     <g id="line2d_26">
      <g>
       <use xlink:href="#meacd1905f5" x="57.182813" y="187.808384" style="stroke: #000000; stroke-width: 0.8"/>
      </g>
     </g>
     <g id="text_14">
      <!-- 0.2 -->
      <g transform="translate(34.279688 191.607603) scale(0.1 -0.1)">
       <use xlink:href="#DejaVuSans-30"/>
       <use xlink:href="#DejaVuSans-2e" transform="translate(63.623047 0)"/>
       <use xlink:href="#DejaVuSans-32" transform="translate(95.410156 0)"/>
      </g>
     </g>
    </g>
    <g id="ytick_5">
     <g id="line2d_27">
      <path d="M 57.182813 150.35336 
L 414.302813 150.35336 
" clip-path="url(#p1435da1934)" style="fill: none; stroke: #808080; stroke-width: 0.3; stroke-linecap: square"/>
     </g>
     <g id="line2d_28">
      <g>
       <use xlink:href="#meacd1905f5" x="57.182813" y="150.35336" style="stroke: #000000; stroke-width: 0.8"/>
      </g>
     </g>
     <g id="text_15">
      <!-- 0.4 -->
      <g transform="translate(34.279688 154.152578) scale(0.1 -0.1)">
       <use xlink:href="#DejaVuSans-30"/>
       <use xlink:href="#DejaVuSans-2e" transform="translate(63.623047 0)"/>
       <use xlink:href="#DejaVuSans-34" transform="translate(95.410156 0)"/>
      </g>
     </g>
    </g>
    <g id="ytick_6">
     <g id="line2d_29">
      <path d="M 57.182813 112.898335 
L 414.302813 112.898335 
" clip-path="url(#p1435da1934)" style="fill: none; stroke: #808080; stroke-width: 0.3; stroke-linecap: square"/>
     </g>
     <g id="line2d_30">
      <g>
       <use xlink:href="#meacd1905f5" x="57.182813" y="112.898335" style="stroke: #000000; stroke-width: 0.8"/>
      </g>
     </g>
     <g id="text_16">
      <!-- 0.6 -->
      <g transform="translate(34.279688 116.697553) scale(0.1 -0.1)">
       <defs>
        <path id="DejaVuSans-36" d="M 2113 2584 
Q 1688 2584 1439 2293 
Q 1191 2003 1191 1497 
Q 1191 994 1439 701 
Q 1688 409 2113 409 
Q 2538 409 2786 701 
Q 3034 994 3034 1497 
Q 3034 2003 2786 2293 
Q 2538 2584 2113 2584 
z
M 3366 4563 
L 3366 3988 
Q 3128 4100 2886 4159 
Q 2644 4219 2406 4219 
Q 1781 4219 1451 3797 
Q 1122 3375 1075 2522 
Q 1259 2794 1537 2939 
Q 1816 3084 2150 3084 
Q 2853 3084 3261 2657 
Q 3669 2231 3669 1497 
Q 3669 778 3244 343 
Q 2819 -91 2113 -91 
Q 1303 -91 875 529 
Q 447 1150 447 2328 
Q 447 3434 972 4092 
Q 1497 4750 2381 4750 
Q 2619 4750 2861 4703 
Q 3103 4656 3366 4563 
z
" transform="scale(0.015625)"/>
       </defs>
       <use xlink:href="#DejaVuSans-30"/>
       <use xlink:href="#DejaVuSans-2e" transform="translate(63.623047 0)"/>
       <use xlink:href="#DejaVuSans-36" transform="translate(95.410156 0)"/>
      </g>
     </g>
    </g>
    <g id="ytick_7">
     <g id="line2d_31">
      <path d="M 57.182813 75.44331 
L 414.302813 75.44331 
" clip-path="url(#p1435da1934)" style="fill: none; stroke: #808080; stroke-width: 0.3; stroke-linecap: square"/>
     </g>
     <g id="line2d_32">
      <g>
       <use xlink:href="#meacd1905f5" x="57.182813" y="75.44331" style="stroke: #000000; stroke-width: 0.8"/>
      </g>
     </g>
     <g id="text_17">
      <!-- 0.8 -->
      <g transform="translate(34.279688 79.242529) scale(0.1 -0.1)">
       <defs>
        <path id="DejaVuSans-38" d="M 2034 2216 
Q 1584 2216 1326 1975 
Q 1069 1734 1069 1313 
Q 1069 891 1326 650 
Q 1584 409 2034 409 
Q 2484 409 2743 651 
Q 3003 894 3003 1313 
Q 3003 1734 2745 1975 
Q 2488 2216 2034 2216 
z
M 1403 2484 
Q 997 2584 770 2862 
Q 544 3141 544 3541 
Q 544 4100 942 4425 
Q 1341 4750 2034 4750 
Q 2731 4750 3128 4425 
Q 3525 4100 3525 3541 
Q 3525 3141 3298 2862 
Q 3072 2584 2669 2484 
Q 3125 2378 3379 2068 
Q 3634 1759 3634 1313 
Q 3634 634 3220 271 
Q 2806 -91 2034 -91 
Q 1263 -91 848 271 
Q 434 634 434 1313 
Q 434 1759 690 2068 
Q 947 2378 1403 2484 
z
M 1172 3481 
Q 1172 3119 1398 2916 
Q 1625 2713 2034 2713 
Q 2441 2713 2670 2916 
Q 2900 3119 2900 3481 
Q 2900 3844 2670 4047 
Q 2441 4250 2034 4250 
Q 1625 4250 1398 4047 
Q 1172 3844 1172 3481 
z
" transform="scale(0.015625)"/>
       </defs>
       <use xlink:href="#DejaVuSans-30"/>
       <use xlink:href="#DejaVuSans-2e" transform="translate(63.623047 0)"/>
       <use xlink:href="#DejaVuSans-38" transform="translate(95.410156 0)"/>
      </g>
     </g>
    </g>
    <g id="ytick_8">
     <g id="line2d_33">
      <path d="M 57.182813 37.988285 
L 414.302813 37.988285 
" clip-path="url(#p1435da1934)" style="fill: none; stroke: #808080; stroke-width: 0.3; stroke-linecap: square"/>
     </g>
     <g id="line2d_34">
      <g>
       <use xlink:href="#meacd1905f5" x="57.182813" y="37.988285" style="stroke: #000000; stroke-width: 0.8"/>
      </g>
     </g>
     <g id="text_18">
      <!-- 1.0 -->
      <g transform="translate(34.279688 41.787504) scale(0.1 -0.1)">
       <use xlink:href="#DejaVuSans-31"/>
       <use xlink:href="#DejaVuSans-2e" transform="translate(63.623047 0)"/>
       <use xlink:href="#DejaVuSans-30" transform="translate(95.410156 0)"/>
      </g>
     </g>
    </g>
    <g id="text_19">
     <!-- $\Delta OLR_{\nu}$ $\left[ \frac{W}{m^{2}cm^{-1}sr} \right]$ -->
     <g transform="translate(16.7 208.1115) rotate(-90) scale(0.1 -0.1)">
      <defs>
       <path id="DejaVuSans-394" d="M 2188 4044 
L 906 525 
L 3472 525 
L 2188 4044 
z
M 50 0 
L 1831 4666 
L 2547 4666 
L 4325 0 
L 50 0 
z
" transform="scale(0.015625)"/>
       <path id="DejaVuSans-Oblique-4f" d="M 2919 4238 
Q 2400 4238 2003 3986 
Q 1606 3734 1313 3219 
Q 1125 2891 1026 2522 
Q 928 2153 928 1778 
Q 928 1128 1239 775 
Q 1550 422 2119 422 
Q 2631 422 3032 676 
Q 3434 931 3719 1434 
Q 3909 1772 4009 2142 
Q 4109 2513 4109 2881 
Q 4109 3528 3796 3883 
Q 3484 4238 2919 4238 
z
M 2100 -91 
Q 1241 -91 748 418 
Q 256 928 256 1813 
Q 256 2319 448 2847 
Q 641 3375 978 3788 
Q 1375 4272 1862 4511 
Q 2350 4750 2938 4750 
Q 3794 4750 4287 4245 
Q 4781 3741 4781 2869 
Q 4781 2331 4593 1812 
Q 4406 1294 4056 872 
Q 3656 384 3173 146 
Q 2691 -91 2100 -91 
z
" transform="scale(0.015625)"/>
       <path id="DejaVuSans-Oblique-4c" d="M 1075 4666 
L 1709 4666 
L 909 525 
L 3181 525 
L 3078 0 
L 172 0 
L 1075 4666 
z
" transform="scale(0.015625)"/>
       <path id="DejaVuSans-Oblique-52" d="M 1613 4147 
L 1294 2491 
L 2106 2491 
Q 2584 2491 2879 2755 
Q 3175 3019 3175 3444 
Q 3175 3784 2976 3965 
Q 2778 4147 2406 4147 
L 1613 4147 
z
M 2772 2241 
Q 2972 2194 3105 2009 
Q 3238 1825 3413 1275 
L 3809 0 
L 3144 0 
L 2778 1197 
Q 2638 1659 2453 1815 
Q 2269 1972 1888 1972 
L 1191 1972 
L 806 0 
L 172 0 
L 1081 4666 
L 2503 4666 
Q 3150 4666 3495 4373 
Q 3841 4081 3841 3531 
Q 3841 3044 3547 2687 
Q 3253 2331 2772 2241 
z
" transform="scale(0.015625)"/>
       <path id="DejaVuSans-Oblique-3bd" d="M 959 0 
L 572 3500 
L 1191 3500 
L 1522 563 
Q 1972 950 2391 1488 
Q 2706 1891 2788 2241 
Q 2825 2406 2809 2719 
Q 2794 3091 2544 3500 
L 3125 3500 
L 3125 3500 
Q 3288 3222 3353 2834 
Q 3416 2478 3369 2234 
Q 3250 1622 2719 1075 
Q 2025 363 1572 0 
L 959 0 
z
" transform="scale(0.015625)"/>
       <path id="STIXSizeTwoSym-Regular-5b" d="M 2701 -1786 
L 1216 -1786 
L 1216 10022 
L 2701 10022 
L 2701 9766 
L 1702 9766 
L 1702 -1530 
L 2701 -1530 
L 2701 -1786 
z
" transform="scale(0.015625)"/>
       <path id="DejaVuSans-Oblique-57" d="M 616 4666 
L 1228 4666 
L 1453 697 
L 3213 4666 
L 3916 4666 
L 4147 697 
L 5888 4666 
L 6528 4666 
L 4453 0 
L 3659 0 
L 3444 3891 
L 1697 0 
L 903 0 
L 616 4666 
z
" transform="scale(0.015625)"/>
       <path id="DejaVuSans-Oblique-6d" d="M 5747 2113 
L 5338 0 
L 4763 0 
L 5166 2094 
Q 5191 2228 5203 2325 
Q 5216 2422 5216 2491 
Q 5216 2772 5059 2928 
Q 4903 3084 4622 3084 
Q 4203 3084 3875 2770 
Q 3547 2456 3450 1953 
L 3066 0 
L 2491 0 
L 2900 2094 
Q 2925 2209 2937 2307 
Q 2950 2406 2950 2484 
Q 2950 2769 2794 2926 
Q 2638 3084 2363 3084 
Q 1938 3084 1609 2770 
Q 1281 2456 1184 1953 
L 800 0 
L 225 0 
L 909 3500 
L 1484 3500 
L 1375 2956 
Q 1609 3263 1923 3423 
Q 2238 3584 2597 3584 
Q 2978 3584 3223 3384 
Q 3469 3184 3519 2828 
Q 3781 3197 4126 3390 
Q 4472 3584 4856 3584 
Q 5306 3584 5551 3325 
Q 5797 3066 5797 2591 
Q 5797 2488 5784 2364 
Q 5772 2241 5747 2113 
z
" transform="scale(0.015625)"/>
       <path id="DejaVuSans-Oblique-63" d="M 3431 3366 
L 3316 2797 
Q 3109 2947 2876 3022 
Q 2644 3097 2394 3097 
Q 2119 3097 1870 3000 
Q 1622 2903 1453 2725 
Q 1184 2453 1037 2087 
Q 891 1722 891 1331 
Q 891 859 1127 628 
Q 1363 397 1844 397 
Q 2081 397 2348 469 
Q 2616 541 2906 684 
L 2797 116 
Q 2547 13 2283 -39 
Q 2019 -91 1741 -91 
Q 1044 -91 669 257 
Q 294 606 294 1253 
Q 294 1797 489 2255 
Q 684 2713 1069 3078 
Q 1331 3328 1684 3456 
Q 2038 3584 2456 3584 
Q 2700 3584 2940 3529 
Q 3181 3475 3431 3366 
z
" transform="scale(0.015625)"/>
       <path id="DejaVuSans-Oblique-73" d="M 3200 3397 
L 3091 2853 
Q 2863 2978 2609 3040 
Q 2356 3103 2088 3103 
Q 1634 3103 1373 2948 
Q 1113 2794 1113 2528 
Q 1113 2219 1719 2053 
Q 1766 2041 1788 2034 
L 1972 1978 
Q 2547 1819 2739 1644 
Q 2931 1469 2931 1166 
Q 2931 609 2489 259 
Q 2047 -91 1331 -91 
Q 1053 -91 747 -37 
Q 441 16 72 128 
L 184 722 
Q 500 559 806 475 
Q 1113 391 1394 391 
Q 1816 391 2080 572 
Q 2344 753 2344 1031 
Q 2344 1331 1650 1516 
L 1591 1531 
L 1394 1581 
Q 956 1697 753 1886 
Q 550 2075 550 2369 
Q 550 2928 970 3256 
Q 1391 3584 2113 3584 
Q 2397 3584 2667 3537 
Q 2938 3491 3200 3397 
z
" transform="scale(0.015625)"/>
       <path id="DejaVuSans-Oblique-72" d="M 2853 2969 
Q 2766 3016 2653 3041 
Q 2541 3066 2413 3066 
Q 1953 3066 1609 2717 
Q 1266 2369 1153 1784 
L 800 0 
L 225 0 
L 909 3500 
L 1484 3500 
L 1375 2956 
Q 1603 3259 1920 3421 
Q 2238 3584 2597 3584 
Q 2691 3584 2781 3573 
Q 2872 3563 2963 3538 
L 2853 2969 
z
" transform="scale(0.015625)"/>
       <path id="STIXSizeTwoSym-Regular-5d" d="M 1722 -1786 
L 237 -1786 
L 237 -1530 
L 1235 -1530 
L 1235 9766 
L 237 9766 
L 237 10022 
L 1722 10022 
L 1722 -1786 
z
" transform="scale(0.015625)"/>
      </defs>
      <use xlink:href="#DejaVuSans-394" transform="translate(0 0.16875)"/>
      <use xlink:href="#DejaVuSans-Oblique-4f" transform="translate(68.408203 0.16875)"/>
      <use xlink:href="#DejaVuSans-Oblique-4c" transform="translate(147.119141 0.16875)"/>
      <use xlink:href="#DejaVuSans-Oblique-52" transform="translate(202.832031 0.16875)"/>
      <use xlink:href="#DejaVuSans-Oblique-3bd" transform="translate(272.314453 -16.2375) scale(0.7)"/>
      <use xlink:href="#DejaVuSans-20" transform="translate(314.150391 0.16875)"/>
      <use xlink:href="#STIXSizeTwoSym-Regular-5b" transform="translate(345.9375 -29.303125) scale(0.793733)"/>
      <use xlink:href="#DejaVuSans-Oblique-57" transform="translate(524.363449 43.965625) scale(0.7)"/>
      <use xlink:href="#DejaVuSans-Oblique-6d" transform="translate(382.363449 -50.448437) scale(0.7)"/>
      <use xlink:href="#DejaVuSans-32" transform="translate(453.806853 -23.651562) scale(0.49)"/>
      <use xlink:href="#DejaVuSans-Oblique-63" transform="translate(486.896208 -50.448437) scale(0.7)"/>
      <use xlink:href="#DejaVuSans-Oblique-6d" transform="translate(525.382536 -50.448437) scale(0.7)"/>
      <use xlink:href="#DejaVuSans-2212" transform="translate(596.82594 -23.651562) scale(0.49)"/>
      <use xlink:href="#DejaVuSans-31" transform="translate(637.882581 -23.651562) scale(0.49)"/>
      <use xlink:href="#DejaVuSans-Oblique-73" transform="translate(670.971936 -50.448437) scale(0.7)"/>
      <use xlink:href="#DejaVuSans-Oblique-72" transform="translate(707.441663 -50.448437) scale(0.7)"/>
      <use xlink:href="#STIXSizeTwoSym-Regular-5d" transform="translate(748.72096 -29.303125) scale(0.793733)"/>
      <path d="M 382.363449 18.965625 
L 382.363449 25.215625 
L 736.22096 25.215625 
L 736.22096 18.965625 
L 382.363449 18.965625 
z
"/>
     </g>
    </g>
    <g id="text_20">
     <!-- 1e−12 -->
     <g transform="translate(57.182813 32.7555) scale(0.1 -0.1)">
      <use xlink:href="#DejaVuSans-31"/>
      <use xlink:href="#DejaVuSans-65" transform="translate(63.623047 0)"/>
      <use xlink:href="#DejaVuSans-2212" transform="translate(125.146484 0)"/>
      <use xlink:href="#DejaVuSans-31" transform="translate(208.935547 0)"/>
      <use xlink:href="#DejaVuSans-32" transform="translate(272.558594 0)"/>
     </g>
    </g>
   </g>
   <g id="line2d_35">
    <path d="M 73.41554 225.263425 
L 75.587142 225.351895 
L 78.844546 225.766085 
L 79.930347 225.532078 
L 81.016148 226.241121 
L 82.101949 225.910429 
L 84.273551 227.433679 
L 85.359352 227.276046 
L 86.445154 227.81327 
L 87.530955 225.263411 
L 88.616756 228.853632 
L 89.702557 228.069355 
L 90.788358 229.526854 
L 91.874159 229.499907 
L 92.959961 228.61241 
L 94.045762 231.03397 
L 95.131563 233.148652 
L 96.217364 225.927406 
L 97.303165 233.093183 
L 99.474768 233.980998 
L 100.560569 237.013013 
L 101.64637 237.350167 
L 102.732171 228.430248 
L 103.817972 225.263409 
L 104.903773 237.882373 
L 105.989574 236.647123 
L 107.075376 225.280067 
L 108.161177 239.967049 
L 109.246978 225.263409 
L 110.332779 235.237527 
L 111.41858 240.69146 
L 112.504381 243.461836 
L 113.590183 240.99836 
L 114.675984 246.658358 
L 115.761785 244.848371 
L 116.847586 246.727387 
L 117.933387 248.294909 
L 119.019188 236.434756 
L 120.104989 247.485484 
L 121.190791 245.328694 
L 122.276592 225.263409 
L 123.362393 251.752248 
L 124.448194 250.219036 
L 125.533995 257.224687 
L 126.619796 256.550738 
L 127.705598 238.830234 
L 128.791399 258.324116 
L 129.8772 258.915797 
L 130.963001 259.824005 
L 132.048802 253.048761 
L 133.134603 257.600926 
L 134.220404 260.945625 
L 135.306206 252.483264 
L 136.392007 254.420382 
L 137.477808 266.971557 
L 138.563609 257.287499 
L 139.64941 243.861444 
L 140.735211 259.844467 
L 141.821013 264.171837 
L 142.906814 260.673404 
L 143.992615 256.759155 
L 145.078416 275.729759 
L 146.164217 249.802158 
L 147.250018 263.633089 
L 148.335819 253.78731 
L 149.421621 262.432796 
L 150.507422 254.541769 
L 151.593223 267.252429 
L 152.679024 245.165546 
L 153.764825 243.516526 
L 154.850626 269.412122 
L 155.936428 260.717351 
L 157.022229 272.776118 
L 158.10803 250.678872 
L 159.193831 253.232775 
L 160.279632 276.31434 
L 161.365433 255.86756 
L 162.451235 257.401893 
L 163.537036 248.244011 
L 165.708638 270.125923 
L 166.794439 276.502176 
L 167.88024 265.886171 
L 168.966041 248.655622 
L 170.051843 251.277333 
L 171.137644 236.920618 
L 172.223445 232.385606 
L 173.309246 281.59509 
L 174.395047 241.139692 
L 175.480848 233.980065 
L 176.56665 263.097833 
L 177.652451 240.422995 
L 178.738252 229.773515 
L 179.824053 229.806971 
L 180.909854 289.7715 
L 181.995655 262.964035 
L 183.081456 227.924647 
L 184.167258 227.954349 
L 185.253059 257.58221 
L 186.33886 278.884616 
L 187.424661 234.12519 
L 188.510462 231.175779 
L 189.596263 227.108442 
L 190.682065 227.042984 
L 191.767866 243.744015 
L 192.853667 226.136977 
L 193.939468 233.653776 
L 195.025269 228.206869 
L 196.11107 227.663711 
L 197.196871 225.480091 
L 198.282673 237.959072 
L 199.368474 241.321299 
L 200.454275 231.701921 
L 201.540076 226.067708 
L 202.625877 242.041438 
L 203.711678 246.580876 
L 204.79748 225.903654 
L 205.883281 225.632759 
L 208.054883 225.458863 
L 210.226485 225.453305 
L 211.312287 229.46489 
L 212.398088 225.772401 
L 213.483889 225.464667 
L 214.56969 226.149054 
L 215.655491 225.586203 
L 216.741292 229.001637 
L 217.827093 230.275529 
L 218.912895 225.385165 
L 219.998696 225.324929 
L 221.084497 234.783801 
L 222.170298 225.341675 
L 223.256099 225.797539 
L 224.3419 225.330347 
L 226.513503 225.4187 
L 227.599304 225.480179 
L 229.770906 225.294171 
L 230.856707 225.899439 
L 231.942508 226.859311 
L 233.02831 225.606288 
L 234.114111 225.798934 
L 235.199912 225.318142 
L 236.285713 227.566963 
L 237.371514 227.357856 
L 238.457315 226.566425 
L 239.543117 225.304253 
L 240.628918 241.304049 
L 241.714719 225.333122 
L 242.80052 225.316244 
L 243.886321 225.939948 
L 244.972122 225.396336 
L 246.057923 225.821291 
L 247.143725 225.441118 
L 248.229526 225.407629 
L 249.315327 225.671707 
L 250.401128 229.214936 
L 251.486929 225.542199 
L 252.57273 225.808213 
L 253.658532 229.754068 
L 254.744333 230.083672 
L 255.830134 225.91204 
L 256.915935 225.866273 
L 258.001736 256.768434 
L 259.087537 225.643031 
L 260.173338 229.242717 
L 261.25914 225.605499 
L 262.344941 230.099706 
L 264.516543 228.463021 
L 265.602344 229.915136 
L 266.688145 237.365878 
L 267.773947 251.12056 
L 268.859748 226.489445 
L 269.945549 260.33036 
L 271.03135 240.02389 
L 272.117151 252.426945 
L 273.202952 226.483278 
L 274.288754 231.733386 
L 275.374555 256.531851 
L 276.460356 252.178906 
L 277.546157 242.987033 
L 278.631958 245.140313 
L 279.717759 252.346802 
L 280.80356 232.872564 
L 281.889362 249.866857 
L 282.975163 247.494873 
L 284.060964 237.541459 
L 285.146765 252.547052 
L 286.232566 247.971101 
L 287.318367 245.725402 
L 288.404169 252.661294 
L 289.48997 243.146757 
L 290.575771 242.385821 
L 291.661572 249.212096 
L 292.747373 242.675644 
L 293.833174 243.767404 
L 294.918975 246.495438 
L 296.004777 242.504841 
L 297.090578 241.407073 
L 298.176379 244.855137 
L 299.26218 243.295125 
L 300.347981 238.003953 
L 301.433782 225.26423 
L 302.519584 237.584026 
L 303.605385 233.798921 
L 304.691186 240.276354 
L 305.776987 236.549157 
L 306.862788 236.097074 
L 307.948589 233.415975 
L 309.03439 233.691509 
L 310.120192 229.551298 
L 311.205993 229.98236 
L 312.291794 228.781128 
L 313.377595 236.356615 
L 314.463396 235.092358 
L 315.549197 232.866461 
L 316.634999 229.251076 
L 317.7208 228.523338 
L 318.806601 231.157356 
L 319.892402 231.91521 
L 320.978203 228.891448 
L 322.064004 231.393838 
L 323.149806 227.522122 
L 325.321408 230.246964 
L 326.407209 226.112384 
L 327.49301 230.518949 
L 328.578811 231.49686 
L 329.664612 231.694233 
L 330.750414 234.899539 
L 331.836215 232.305175 
L 332.922016 232.241277 
L 334.007817 233.201856 
L 335.093618 232.862848 
L 337.265221 230.334764 
L 338.351022 231.83356 
L 339.436823 230.222145 
L 340.522624 226.999954 
L 341.608425 225.263409 
L 342.694226 230.424296 
L 343.780027 230.997916 
L 344.865829 228.754681 
L 345.95163 230.047289 
L 347.037431 227.509886 
L 348.123232 229.347974 
L 349.209033 227.659357 
L 350.294834 228.00881 
L 351.380636 229.878795 
L 352.466437 227.673343 
L 353.552238 231.467212 
L 354.638039 228.679871 
L 355.72384 227.071108 
L 356.809641 228.539312 
L 357.895442 229.149591 
L 358.981244 230.239493 
L 360.067045 230.956399 
L 361.152846 225.263409 
L 362.238647 228.381203 
L 363.324448 229.630285 
L 364.410249 225.317086 
L 365.496051 226.53498 
L 366.581852 230.921776 
L 367.667653 229.420517 
L 368.753454 230.047724 
L 369.839255 227.919639 
L 370.925056 229.197482 
L 372.010857 229.626911 
L 373.096659 228.234547 
L 374.18246 230.120112 
L 375.268261 229.076099 
L 376.354062 226.341416 
L 377.439863 230.590529 
L 378.525664 229.255547 
L 379.611466 229.718457 
L 381.783068 229.733601 
L 382.868869 230.107081 
L 385.040471 229.01918 
L 386.126273 229.80329 
L 387.212074 226.304057 
L 388.297875 229.141053 
L 389.383676 226.86166 
L 390.469477 229.099653 
L 391.555278 229.69283 
L 392.641079 228.072197 
L 394.812682 226.512778 
L 395.898483 229.146054 
L 396.984284 226.49295 
L 398.070085 229.508839 
L 398.070085 229.508839 
" clip-path="url(#p1435da1934)" style="fill: none; stroke: #1f77b4; stroke-width: 0.7; stroke-linecap: square"/>
   </g>
   <g id="line2d_36">
    <path d="M 73.41554 225.263425 
L 78.844546 225.271644 
L 79.930347 225.078481 
L 81.016148 225.387565 
L 82.101949 224.861069 
L 83.18775 225.181765 
L 84.273551 225.869492 
L 85.359352 224.843278 
L 86.445154 225.185096 
L 87.530955 225.263408 
L 88.616756 225.215106 
L 89.702557 223.239621 
L 90.788358 225.222563 
L 91.874159 223.539032 
L 92.959961 222.946757 
L 94.045762 224.085017 
L 95.131563 226.935406 
L 96.217364 224.799794 
L 97.303165 224.105202 
L 98.388966 224.305606 
L 99.474768 223.754093 
L 100.560569 227.84967 
L 101.64637 227.405709 
L 102.732171 222.986393 
L 103.817972 225.263409 
L 104.903773 226.487763 
L 105.989574 220.044926 
L 107.075376 225.254827 
L 108.161177 223.690118 
L 109.246978 225.263409 
L 110.332779 218.794752 
L 111.41858 219.732166 
L 112.504381 223.443198 
L 113.590183 218.776117 
L 114.675984 228.254243 
L 115.761785 220.975702 
L 116.847586 223.991587 
L 117.933387 226.22607 
L 119.019188 216.526993 
L 120.104989 222.398192 
L 121.190791 213.213407 
L 122.276592 225.263409 
L 123.362393 223.86908 
L 124.448194 224.256479 
L 125.533995 230.469181 
L 126.619796 232.608408 
L 127.705598 215.249216 
L 128.791399 228.536238 
L 129.8772 231.598239 
L 130.963001 231.913085 
L 132.048802 209.92401 
L 133.134603 218.530979 
L 134.220404 235.541921 
L 135.306206 201.620542 
L 136.392007 202.291389 
L 137.477808 233.116612 
L 138.563609 211.671133 
L 139.64941 162.62438 
L 140.735211 209.679027 
L 141.821013 222.640716 
L 142.906814 216.308652 
L 143.992615 205.780721 
L 145.078416 241.204925 
L 146.164217 173.504013 
L 147.250018 211.23774 
L 148.335819 183.546141 
L 149.421621 210.787665 
L 150.507422 175.420517 
L 151.593223 199.933006 
L 152.679024 135.60311 
L 153.764825 129.289479 
L 154.850626 230.425571 
L 155.936428 178.531395 
L 157.022229 219.015204 
L 158.10803 150.16404 
L 159.193831 153.41277 
L 160.279632 213.220872 
L 161.365433 144.243815 
L 162.451235 170.66613 
L 163.537036 120.809824 
L 164.622837 150.44894 
L 165.708638 224.423569 
L 166.794439 232.872452 
L 167.88024 163.783534 
L 168.966041 123.155727 
L 170.051843 129.740841 
L 171.137644 93.6503 
L 172.223445 70.201236 
L 173.309246 203.052858 
L 174.395047 99.636677 
L 175.480848 73.967564 
L 176.56665 173.448129 
L 177.652451 97.943435 
L 178.738252 57.905889 
L 179.824053 56.243601 
L 180.909854 238.43461 
L 181.995655 152.14976 
L 183.081456 48.022777 
L 184.167258 47.8515 
L 185.253059 155.503927 
L 186.33886 218.520294 
L 187.424661 72.252209 
L 188.510462 79.502424 
L 189.596263 69.192394 
L 190.682065 67.485829 
L 191.767866 97.934702 
L 192.853667 65.934041 
L 193.939468 88.913816 
L 195.025269 71.156457 
L 196.11107 70.59397 
L 197.196871 64.08436 
L 198.282673 101.544339 
L 199.368474 109.922064 
L 200.454275 80.924048 
L 201.540076 66.366717 
L 202.625877 109.195429 
L 203.711678 130.505774 
L 204.79748 66.759434 
L 206.969082 66.443233 
L 209.140684 67.237635 
L 210.226485 67.798576 
L 211.312287 79.632683 
L 212.398088 95.681635 
L 213.483889 95.468357 
L 214.56969 97.36519 
L 215.655491 96.767444 
L 216.741292 104.843464 
L 217.827093 108.874246 
L 218.912895 98.109109 
L 219.998696 98.587465 
L 221.084497 119.415498 
L 222.170298 99.955558 
L 223.256099 101.62521 
L 224.3419 101.32774 
L 225.427702 102.067281 
L 227.599304 103.902719 
L 229.770906 105.085581 
L 230.856707 107.464957 
L 231.942508 110.14535 
L 233.02831 108.271081 
L 234.114111 109.531342 
L 235.199912 109.3722 
L 236.285713 114.747947 
L 237.371514 116.086768 
L 238.457315 115.015779 
L 239.543117 112.941928 
L 240.628918 146.49613 
L 241.714719 114.876434 
L 242.80052 115.791774 
L 243.886321 118.123193 
L 244.972122 117.887422 
L 246.057923 119.803083 
L 247.143725 119.936616 
L 248.229526 120.847362 
L 249.315327 122.359632 
L 250.401128 131.952955 
L 251.486929 124.136673 
L 252.57273 125.722391 
L 253.658532 134.848967 
L 254.744333 138.117713 
L 255.830134 147.665132 
L 256.915935 148.374577 
L 258.001736 198.751882 
L 259.087537 149.628331 
L 260.173338 140.390329 
L 261.25914 151.161787 
L 262.344941 143.555562 
L 263.430742 159.018795 
L 264.516543 158.397107 
L 265.602344 161.952636 
L 266.688145 161.38946 
L 267.773947 190.95146 
L 268.859748 158.330037 
L 269.945549 219.915996 
L 271.03135 172.896094 
L 272.117151 199.91429 
L 273.202952 161.549477 
L 274.288754 156.915739 
L 275.374555 219.398617 
L 276.460356 194.903604 
L 277.546157 185.579773 
L 278.631958 191.273237 
L 279.717759 223.235099 
L 280.80356 166.762216 
L 281.889362 200.871078 
L 282.975163 203.94036 
L 284.060964 180.226635 
L 285.146765 195.352104 
L 286.232566 208.409194 
L 287.318367 219.69001 
L 288.404169 214.258279 
L 289.48997 194.555115 
L 290.575771 224.495059 
L 291.661572 214.994778 
L 292.747373 211.311034 
L 293.833174 221.268777 
L 294.918975 224.439846 
L 296.004777 218.384916 
L 297.090578 223.338254 
L 298.176379 222.749915 
L 299.26218 222.82672 
L 300.347981 224.710167 
L 301.433782 225.26278 
L 302.519584 222.752957 
L 303.605385 222.42261 
L 304.691186 225.540865 
L 305.776987 220.503906 
L 306.862788 223.016398 
L 307.948589 224.541578 
L 309.03439 222.286105 
L 310.120192 224.163438 
L 311.205993 225.361002 
L 312.291794 224.135535 
L 313.377595 221.022112 
L 314.463396 221.304109 
L 315.549197 222.002233 
L 316.634999 224.892582 
L 317.7208 224.548149 
L 318.806601 224.926723 
L 319.892402 223.90288 
L 320.978203 225.453544 
L 322.064004 223.920452 
L 323.149806 223.892404 
L 324.235607 225.138094 
L 325.321408 223.083018 
L 326.407209 224.668921 
L 327.49301 224.505017 
L 328.578811 222.80454 
L 329.664612 223.6881 
L 330.750414 217.572994 
L 331.836215 219.811626 
L 332.922016 210.418141 
L 334.007817 219.133263 
L 335.093618 225.310381 
L 336.179419 225.708116 
L 337.265221 225.241228 
L 338.351022 225.065761 
L 339.436823 223.659357 
L 340.522624 224.680015 
L 341.608425 225.263409 
L 342.694226 222.936684 
L 343.780027 224.635492 
L 345.95163 225.630215 
L 347.037431 224.375525 
L 348.123232 223.939174 
L 349.209033 225.136451 
L 350.294834 225.096092 
L 351.380636 225.249458 
L 352.466437 224.839462 
L 353.552238 224.150895 
L 354.638039 225.628165 
L 355.72384 224.71197 
L 356.809641 225.627173 
L 358.981244 224.894131 
L 361.152846 225.263409 
L 362.238647 223.888717 
L 363.324448 223.031531 
L 364.410249 225.229772 
L 365.496051 225.051503 
L 366.581852 223.668549 
L 367.667653 223.975787 
L 368.753454 219.503772 
L 369.839255 224.068226 
L 370.925056 223.34286 
L 372.010857 223.152757 
L 373.096659 224.248363 
L 374.18246 221.747981 
L 375.268261 224.463818 
L 376.354062 225.059784 
L 378.525664 223.876814 
L 379.611466 222.723657 
L 380.697267 223.424871 
L 381.783068 219.268061 
L 382.868869 223.507834 
L 383.95467 222.034019 
L 385.040471 225.387672 
L 386.126273 222.278488 
L 387.212074 224.733279 
L 388.297875 222.529792 
L 389.383676 224.989788 
L 390.469477 220.468362 
L 391.555278 221.978678 
L 392.641079 225.553648 
L 393.726881 218.638522 
L 394.812682 217.439567 
L 395.898483 222.808763 
L 396.984284 224.725072 
L 398.070085 223.24727 
L 398.070085 223.24727 
" clip-path="url(#p1435da1934)" style="fill: none; stroke: #ff7f0e; stroke-width: 0.7; stroke-linecap: square"/>
   </g>
   <g id="patch_3">
    <path d="M 57.182813 301.8675 
L 57.182813 35.7555 
" style="fill: none; stroke: #000000; stroke-width: 0.8; stroke-linejoin: miter; stroke-linecap: square"/>
   </g>
   <g id="patch_4">
    <path d="M 414.302813 301.8675 
L 414.302813 35.7555 
" style="fill: none; stroke: #000000; stroke-width: 0.8; stroke-linejoin: miter; stroke-linecap: square"/>
   </g>
   <g id="patch_5">
    <path d="M 57.182813 301.8675 
L 414.302813 301.8675 
" style="fill: none; stroke: #000000; stroke-width: 0.8; stroke-linejoin: miter; stroke-linecap: square"/>
   </g>
   <g id="patch_6">
    <path d="M 57.182813 35.7555 
L 414.302813 35.7555 
" style="fill: none; stroke: #000000; stroke-width: 0.8; stroke-linejoin: miter; stroke-linecap: square"/>
   </g>
   <g id="text_21">
    <!-- OLR at TOA - OLR at τ = 1 for  -->
    <g transform="translate(144.885938 16.318125) scale(0.12 -0.12)">
     <defs>
      <path id="DejaVuSans-4f" d="M 2522 4238 
Q 1834 4238 1429 3725 
Q 1025 3213 1025 2328 
Q 1025 1447 1429 934 
Q 1834 422 2522 422 
Q 3209 422 3611 934 
Q 4013 1447 4013 2328 
Q 4013 3213 3611 3725 
Q 3209 4238 2522 4238 
z
M 2522 4750 
Q 3503 4750 4090 4092 
Q 4678 3434 4678 2328 
Q 4678 1225 4090 567 
Q 3503 -91 2522 -91 
Q 1538 -91 948 565 
Q 359 1222 359 2328 
Q 359 3434 948 4092 
Q 1538 4750 2522 4750 
z
" transform="scale(0.015625)"/>
      <path id="DejaVuSans-4c" d="M 628 4666 
L 1259 4666 
L 1259 531 
L 3531 531 
L 3531 0 
L 628 0 
L 628 4666 
z
" transform="scale(0.015625)"/>
      <path id="DejaVuSans-52" d="M 2841 2188 
Q 3044 2119 3236 1894 
Q 3428 1669 3622 1275 
L 4263 0 
L 3584 0 
L 2988 1197 
Q 2756 1666 2539 1819 
Q 2322 1972 1947 1972 
L 1259 1972 
L 1259 0 
L 628 0 
L 628 4666 
L 2053 4666 
Q 2853 4666 3247 4331 
Q 3641 3997 3641 3322 
Q 3641 2881 3436 2590 
Q 3231 2300 2841 2188 
z
M 1259 4147 
L 1259 2491 
L 2053 2491 
Q 2509 2491 2742 2702 
Q 2975 2913 2975 3322 
Q 2975 3731 2742 3939 
Q 2509 4147 2053 4147 
L 1259 4147 
z
" transform="scale(0.015625)"/>
      <path id="DejaVuSans-74" d="M 1172 4494 
L 1172 3500 
L 2356 3500 
L 2356 3053 
L 1172 3053 
L 1172 1153 
Q 1172 725 1289 603 
Q 1406 481 1766 481 
L 2356 481 
L 2356 0 
L 1766 0 
Q 1100 0 847 248 
Q 594 497 594 1153 
L 594 3053 
L 172 3053 
L 172 3500 
L 594 3500 
L 594 4494 
L 1172 4494 
z
" transform="scale(0.015625)"/>
      <path id="DejaVuSans-54" d="M -19 4666 
L 3928 4666 
L 3928 4134 
L 2272 4134 
L 2272 0 
L 1638 0 
L 1638 4134 
L -19 4134 
L -19 4666 
z
" transform="scale(0.015625)"/>
      <path id="DejaVuSans-41" d="M 2188 4044 
L 1331 1722 
L 3047 1722 
L 2188 4044 
z
M 1831 4666 
L 2547 4666 
L 4325 0 
L 3669 0 
L 3244 1197 
L 1141 1197 
L 716 0 
L 50 0 
L 1831 4666 
z
" transform="scale(0.015625)"/>
      <path id="DejaVuSans-2d" d="M 313 2009 
L 1997 2009 
L 1997 1497 
L 313 1497 
L 313 2009 
z
" transform="scale(0.015625)"/>
      <path id="DejaVuSans-3c4" d="M 2319 638 
Q 2431 488 2769 488 
L 3047 488 
L 3047 0 
L 2700 0 
Q 2138 0 1881 300 
Q 1625 606 1625 1269 
L 1625 2925 
L 313 2925 
L 313 3500 
L 3541 3500 
L 3541 2925 
L 2213 2925 
L 2213 1234 
Q 2213 781 2319 638 
z
" transform="scale(0.015625)"/>
      <path id="DejaVuSans-3d" d="M 678 2906 
L 4684 2906 
L 4684 2381 
L 678 2381 
L 678 2906 
z
M 678 1631 
L 4684 1631 
L 4684 1100 
L 678 1100 
L 678 1631 
z
" transform="scale(0.015625)"/>
      <path id="DejaVuSans-66" d="M 2375 4863 
L 2375 4384 
L 1825 4384 
Q 1516 4384 1395 4259 
Q 1275 4134 1275 3809 
L 1275 3500 
L 2222 3500 
L 2222 3053 
L 1275 3053 
L 1275 0 
L 697 0 
L 697 3053 
L 147 3053 
L 147 3500 
L 697 3500 
L 697 3744 
Q 697 4328 969 4595 
Q 1241 4863 1831 4863 
L 2375 4863 
z
" transform="scale(0.015625)"/>
      <path id="DejaVuSans-6f" d="M 1959 3097 
Q 1497 3097 1228 2736 
Q 959 2375 959 1747 
Q 959 1119 1226 758 
Q 1494 397 1959 397 
Q 2419 397 2687 759 
Q 2956 1122 2956 1747 
Q 2956 2369 2687 2733 
Q 2419 3097 1959 3097 
z
M 1959 3584 
Q 2709 3584 3137 3096 
Q 3566 2609 3566 1747 
Q 3566 888 3137 398 
Q 2709 -91 1959 -91 
Q 1206 -91 779 398 
Q 353 888 353 1747 
Q 353 2609 779 3096 
Q 1206 3584 1959 3584 
z
" transform="scale(0.015625)"/>
     </defs>
     <use xlink:href="#DejaVuSans-4f"/>
     <use xlink:href="#DejaVuSans-4c" transform="translate(78.710938 0)"/>
     <use xlink:href="#DejaVuSans-52" transform="translate(134.423828 0)"/>
     <use xlink:href="#DejaVuSans-20" transform="translate(203.90625 0)"/>
     <use xlink:href="#DejaVuSans-61" transform="translate(235.693359 0)"/>
     <use xlink:href="#DejaVuSans-74" transform="translate(296.972656 0)"/>
     <use xlink:href="#DejaVuSans-20" transform="translate(336.181641 0)"/>
     <use xlink:href="#DejaVuSans-54" transform="translate(367.96875 0)"/>
     <use xlink:href="#DejaVuSans-4f" transform="translate(429.052734 0)"/>
     <use xlink:href="#DejaVuSans-41" transform="translate(506.013672 0)"/>
     <use xlink:href="#DejaVuSans-20" transform="translate(574.421875 0)"/>
     <use xlink:href="#DejaVuSans-2d" transform="translate(606.208984 0)"/>
     <use xlink:href="#DejaVuSans-20" transform="translate(642.292969 0)"/>
     <use xlink:href="#DejaVuSans-4f" transform="translate(674.080078 0)"/>
     <use xlink:href="#DejaVuSans-4c" transform="translate(752.791016 0)"/>
     <use xlink:href="#DejaVuSans-52" transform="translate(808.503906 0)"/>
     <use xlink:href="#DejaVuSans-20" transform="translate(877.986328 0)"/>
     <use xlink:href="#DejaVuSans-61" transform="translate(909.773438 0)"/>
     <use xlink:href="#DejaVuSans-74" transform="translate(971.052734 0)"/>
     <use xlink:href="#DejaVuSans-20" transform="translate(1010.261719 0)"/>
     <use xlink:href="#DejaVuSans-3c4" transform="translate(1042.048828 0)"/>
     <use xlink:href="#DejaVuSans-20" transform="translate(1102.253906 0)"/>
     <use xlink:href="#DejaVuSans-3d" transform="translate(1134.041016 0)"/>
     <use xlink:href="#DejaVuSans-20" transform="translate(1217.830078 0)"/>
     <use xlink:href="#DejaVuSans-31" transform="translate(1249.617188 0)"/>
     <use xlink:href="#DejaVuSans-20" transform="translate(1313.240234 0)"/>
     <use xlink:href="#DejaVuSans-66" transform="translate(1345.027344 0)"/>
     <use xlink:href="#DejaVuSans-6f" transform="translate(1380.232422 0)"/>
     <use xlink:href="#DejaVuSans-72" transform="translate(1441.414062 0)"/>
     <use xlink:href="#DejaVuSans-20" transform="translate(1482.527344 0)"/>
    </g>
    <!--  (H2O) -->
    <g transform="translate(216.10125 29.7555) scale(0.12 -0.12)">
     <defs>
      <path id="DejaVuSans-48" d="M 628 4666 
L 1259 4666 
L 1259 2753 
L 3553 2753 
L 3553 4666 
L 4184 4666 
L 4184 0 
L 3553 0 
L 3553 2222 
L 1259 2222 
L 1259 0 
L 628 0 
L 628 4666 
z
" transform="scale(0.015625)"/>
     </defs>
     <use xlink:href="#DejaVuSans-20"/>
     <use xlink:href="#DejaVuSans-28" transform="translate(31.787109 0)"/>
     <use xlink:href="#DejaVuSans-48" transform="translate(70.800781 0)"/>
     <use xlink:href="#DejaVuSans-32" transform="translate(145.996094 0)"/>
     <use xlink:href="#DejaVuSans-4f" transform="translate(209.619141 0)"/>
     <use xlink:href="#DejaVuSans-29" transform="translate(288.330078 0)"/>
    </g>
   </g>
   <g id="legend_1">
    <g id="patch_7">
     <path d="M 264.502813 296.8675 
L 407.302813 296.8675 
Q 409.302813 296.8675 409.302813 294.8675 
L 409.302813 244.115625 
Q 409.302813 242.115625 407.302813 242.115625 
L 264.502813 242.115625 
Q 262.502813 242.115625 262.502813 244.115625 
L 262.502813 294.8675 
Q 262.502813 296.8675 264.502813 296.8675 
z
" style="fill: #ffffff; opacity: 0.8; stroke: #cccccc; stroke-linejoin: miter"/>
    </g>
    <g id="line2d_37">
     <path d="M 266.502813 256.852812 
L 276.502813 256.852812 
L 286.502813 256.852812 
" style="fill: none; stroke: #1f77b4; stroke-width: 0.7; stroke-linecap: square"/>
    </g>
    <g id="text_22">
     <!-- difference to ARTS  -->
     <g transform="translate(294.502813 253.714062) scale(0.1 -0.1)">
      <defs>
       <path id="DejaVuSans-64" d="M 2906 2969 
L 2906 4863 
L 3481 4863 
L 3481 0 
L 2906 0 
L 2906 525 
Q 2725 213 2448 61 
Q 2172 -91 1784 -91 
Q 1150 -91 751 415 
Q 353 922 353 1747 
Q 353 2572 751 3078 
Q 1150 3584 1784 3584 
Q 2172 3584 2448 3432 
Q 2725 3281 2906 2969 
z
M 947 1747 
Q 947 1113 1208 752 
Q 1469 391 1925 391 
Q 2381 391 2643 752 
Q 2906 1113 2906 1747 
Q 2906 2381 2643 2742 
Q 2381 3103 1925 3103 
Q 1469 3103 1208 2742 
Q 947 2381 947 1747 
z
" transform="scale(0.015625)"/>
       <path id="DejaVuSans-69" d="M 603 3500 
L 1178 3500 
L 1178 0 
L 603 0 
L 603 3500 
z
M 603 4863 
L 1178 4863 
L 1178 4134 
L 603 4134 
L 603 4863 
z
" transform="scale(0.015625)"/>
       <path id="DejaVuSans-53" d="M 3425 4513 
L 3425 3897 
Q 3066 4069 2747 4153 
Q 2428 4238 2131 4238 
Q 1616 4238 1336 4038 
Q 1056 3838 1056 3469 
Q 1056 3159 1242 3001 
Q 1428 2844 1947 2747 
L 2328 2669 
Q 3034 2534 3370 2195 
Q 3706 1856 3706 1288 
Q 3706 609 3251 259 
Q 2797 -91 1919 -91 
Q 1588 -91 1214 -16 
Q 841 59 441 206 
L 441 856 
Q 825 641 1194 531 
Q 1563 422 1919 422 
Q 2459 422 2753 634 
Q 3047 847 3047 1241 
Q 3047 1584 2836 1778 
Q 2625 1972 2144 2069 
L 1759 2144 
Q 1053 2284 737 2584 
Q 422 2884 422 3419 
Q 422 4038 858 4394 
Q 1294 4750 2059 4750 
Q 2388 4750 2728 4690 
Q 3069 4631 3425 4513 
z
" transform="scale(0.015625)"/>
      </defs>
      <use xlink:href="#DejaVuSans-64"/>
      <use xlink:href="#DejaVuSans-69" transform="translate(63.476562 0)"/>
      <use xlink:href="#DejaVuSans-66" transform="translate(91.259766 0)"/>
      <use xlink:href="#DejaVuSans-66" transform="translate(126.464844 0)"/>
      <use xlink:href="#DejaVuSans-65" transform="translate(161.669922 0)"/>
      <use xlink:href="#DejaVuSans-72" transform="translate(223.193359 0)"/>
      <use xlink:href="#DejaVuSans-65" transform="translate(262.056641 0)"/>
      <use xlink:href="#DejaVuSans-6e" transform="translate(323.580078 0)"/>
      <use xlink:href="#DejaVuSans-63" transform="translate(386.958984 0)"/>
      <use xlink:href="#DejaVuSans-65" transform="translate(441.939453 0)"/>
      <use xlink:href="#DejaVuSans-20" transform="translate(503.462891 0)"/>
      <use xlink:href="#DejaVuSans-74" transform="translate(535.25 0)"/>
      <use xlink:href="#DejaVuSans-6f" transform="translate(574.458984 0)"/>
      <use xlink:href="#DejaVuSans-20" transform="translate(635.640625 0)"/>
      <use xlink:href="#DejaVuSans-41" transform="translate(667.427734 0)"/>
      <use xlink:href="#DejaVuSans-52" transform="translate(735.835938 0)"/>
      <use xlink:href="#DejaVuSans-54" transform="translate(798.068359 0)"/>
      <use xlink:href="#DejaVuSans-53" transform="translate(859.152344 0)"/>
      <use xlink:href="#DejaVuSans-20" transform="translate(922.628906 0)"/>
     </g>
     <!--  $\Delta$ OLR = -11.46 W/m² -->
     <g transform="translate(294.502813 264.911875) scale(0.1 -0.1)">
      <defs>
       <path id="DejaVuSans-2f" d="M 1625 4666 
L 2156 4666 
L 531 -594 
L 0 -594 
L 1625 4666 
z
" transform="scale(0.015625)"/>
       <path id="DejaVuSans-b2" d="M 838 2444 
L 2163 2444 
L 2163 2088 
L 294 2088 
L 294 2431 
Q 400 2528 597 2703 
Q 1672 3656 1672 3950 
Q 1672 4156 1509 4282 
Q 1347 4409 1081 4409 
Q 919 4409 728 4354 
Q 538 4300 313 4191 
L 313 4575 
Q 553 4663 761 4706 
Q 969 4750 1147 4750 
Q 1600 4750 1872 4544 
Q 2144 4338 2144 4000 
Q 2144 3566 1109 2678 
Q 934 2528 838 2444 
z
" transform="scale(0.015625)"/>
      </defs>
      <use xlink:href="#DejaVuSans-20" transform="translate(0 0.78125)"/>
      <use xlink:href="#DejaVuSans-394" transform="translate(31.787109 0.78125)"/>
      <use xlink:href="#DejaVuSans-20" transform="translate(100.195312 0.78125)"/>
      <use xlink:href="#DejaVuSans-4f" transform="translate(131.982422 0.78125)"/>
      <use xlink:href="#DejaVuSans-4c" transform="translate(210.693359 0.78125)"/>
      <use xlink:href="#DejaVuSans-52" transform="translate(266.40625 0.78125)"/>
      <use xlink:href="#DejaVuSans-20" transform="translate(335.888672 0.78125)"/>
      <use xlink:href="#DejaVuSans-3d" transform="translate(367.675781 0.78125)"/>
      <use xlink:href="#DejaVuSans-20" transform="translate(451.464844 0.78125)"/>
      <use xlink:href="#DejaVuSans-2d" transform="translate(483.251953 0.78125)"/>
      <use xlink:href="#DejaVuSans-31" transform="translate(519.335938 0.78125)"/>
      <use xlink:href="#DejaVuSans-31" transform="translate(582.958984 0.78125)"/>
      <use xlink:href="#DejaVuSans-2e" transform="translate(646.582031 0.78125)"/>
      <use xlink:href="#DejaVuSans-34" transform="translate(678.369141 0.78125)"/>
      <use xlink:href="#DejaVuSans-36" transform="translate(741.992188 0.78125)"/>
      <use xlink:href="#DejaVuSans-20" transform="translate(805.615234 0.78125)"/>
      <use xlink:href="#DejaVuSans-57" transform="translate(837.402344 0.78125)"/>
      <use xlink:href="#DejaVuSans-2f" transform="translate(936.279297 0.78125)"/>
      <use xlink:href="#DejaVuSans-6d" transform="translate(969.970703 0.78125)"/>
      <use xlink:href="#DejaVuSans-b2" transform="translate(1067.382812 0.78125)"/>
     </g>
    </g>
    <g id="line2d_38">
     <path d="M 266.502813 282.72875 
L 276.502813 282.72875 
L 286.502813 282.72875 
" style="fill: none; stroke: #ff7f0e; stroke-width: 0.7; stroke-linecap: square"/>
    </g>
    <g id="text_23">
     <!-- difference to Planck  -->
     <g transform="translate(294.502813 279.59) scale(0.1 -0.1)">
      <defs>
       <path id="DejaVuSans-50" d="M 1259 4147 
L 1259 2394 
L 2053 2394 
Q 2494 2394 2734 2622 
Q 2975 2850 2975 3272 
Q 2975 3691 2734 3919 
Q 2494 4147 2053 4147 
L 1259 4147 
z
M 628 4666 
L 2053 4666 
Q 2838 4666 3239 4311 
Q 3641 3956 3641 3272 
Q 3641 2581 3239 2228 
Q 2838 1875 2053 1875 
L 1259 1875 
L 1259 0 
L 628 0 
L 628 4666 
z
" transform="scale(0.015625)"/>
       <path id="DejaVuSans-6c" d="M 603 4863 
L 1178 4863 
L 1178 0 
L 603 0 
L 603 4863 
z
" transform="scale(0.015625)"/>
       <path id="DejaVuSans-6b" d="M 581 4863 
L 1159 4863 
L 1159 1991 
L 2875 3500 
L 3609 3500 
L 1753 1863 
L 3688 0 
L 2938 0 
L 1159 1709 
L 1159 0 
L 581 0 
L 581 4863 
z
" transform="scale(0.015625)"/>
      </defs>
      <use xlink:href="#DejaVuSans-64"/>
      <use xlink:href="#DejaVuSans-69" transform="translate(63.476562 0)"/>
      <use xlink:href="#DejaVuSans-66" transform="translate(91.259766 0)"/>
      <use xlink:href="#DejaVuSans-66" transform="translate(126.464844 0)"/>
      <use xlink:href="#DejaVuSans-65" transform="translate(161.669922 0)"/>
      <use xlink:href="#DejaVuSans-72" transform="translate(223.193359 0)"/>
      <use xlink:href="#DejaVuSans-65" transform="translate(262.056641 0)"/>
      <use xlink:href="#DejaVuSans-6e" transform="translate(323.580078 0)"/>
      <use xlink:href="#DejaVuSans-63" transform="translate(386.958984 0)"/>
      <use xlink:href="#DejaVuSans-65" transform="translate(441.939453 0)"/>
      <use xlink:href="#DejaVuSans-20" transform="translate(503.462891 0)"/>
      <use xlink:href="#DejaVuSans-74" transform="translate(535.25 0)"/>
      <use xlink:href="#DejaVuSans-6f" transform="translate(574.458984 0)"/>
      <use xlink:href="#DejaVuSans-20" transform="translate(635.640625 0)"/>
      <use xlink:href="#DejaVuSans-50" transform="translate(667.427734 0)"/>
      <use xlink:href="#DejaVuSans-6c" transform="translate(727.730469 0)"/>
      <use xlink:href="#DejaVuSans-61" transform="translate(755.513672 0)"/>
      <use xlink:href="#DejaVuSans-6e" transform="translate(816.792969 0)"/>
      <use xlink:href="#DejaVuSans-63" transform="translate(880.171875 0)"/>
      <use xlink:href="#DejaVuSans-6b" transform="translate(935.152344 0)"/>
      <use xlink:href="#DejaVuSans-20" transform="translate(993.0625 0)"/>
     </g>
     <!--  $\Delta$ OLR = 41.88 W/m² -->
     <g transform="translate(294.502813 290.787812) scale(0.1 -0.1)">
      <use xlink:href="#DejaVuSans-20" transform="translate(0 0.78125)"/>
      <use xlink:href="#DejaVuSans-394" transform="translate(31.787109 0.78125)"/>
      <use xlink:href="#DejaVuSans-20" transform="translate(100.195312 0.78125)"/>
      <use xlink:href="#DejaVuSans-4f" transform="translate(131.982422 0.78125)"/>
      <use xlink:href="#DejaVuSans-4c" transform="translate(210.693359 0.78125)"/>
      <use xlink:href="#DejaVuSans-52" transform="translate(266.40625 0.78125)"/>
      <use xlink:href="#DejaVuSans-20" transform="translate(335.888672 0.78125)"/>
      <use xlink:href="#DejaVuSans-3d" transform="translate(367.675781 0.78125)"/>
      <use xlink:href="#DejaVuSans-20" transform="translate(451.464844 0.78125)"/>
      <use xlink:href="#DejaVuSans-34" transform="translate(483.251953 0.78125)"/>
      <use xlink:href="#DejaVuSans-31" transform="translate(546.875 0.78125)"/>
      <use xlink:href="#DejaVuSans-2e" transform="translate(610.498047 0.78125)"/>
      <use xlink:href="#DejaVuSans-38" transform="translate(639.660156 0.78125)"/>
      <use xlink:href="#DejaVuSans-38" transform="translate(703.283203 0.78125)"/>
      <use xlink:href="#DejaVuSans-20" transform="translate(766.90625 0.78125)"/>
      <use xlink:href="#DejaVuSans-57" transform="translate(798.693359 0.78125)"/>
      <use xlink:href="#DejaVuSans-2f" transform="translate(897.570312 0.78125)"/>
      <use xlink:href="#DejaVuSans-6d" transform="translate(931.261719 0.78125)"/>
      <use xlink:href="#DejaVuSans-b2" transform="translate(1028.673828 0.78125)"/>
     </g>
    </g>
   </g>
  </g>
 </g>
 <defs>
  <clipPath id="p1435da1934">
   <rect x="57.182813" y="35.7555" width="357.12" height="266.112"/>
  </clipPath>
 </defs>
</svg>
