<?xml version="1.0" encoding="utf-8" standalone="no"?>
<!DOCTYPE svg PUBLIC "-//W3C//DTD SVG 1.1//EN"
  "http://www.w3.org/Graphics/SVG/1.1/DTD/svg11.dtd">
<svg xmlns:xlink="http://www.w3.org/1999/xlink" width="408.462187pt" height="340.845625pt" viewBox="0 0 408.462187 340.845625" xmlns="http://www.w3.org/2000/svg" version="1.1">
 <metadata>
  <rdf:RDF xmlns:dc="http://purl.org/dc/elements/1.1/" xmlns:cc="http://creativecommons.org/ns#" xmlns:rdf="http://www.w3.org/1999/02/22-rdf-syntax-ns#">
   <cc:Work>
    <dc:type rdf:resource="http://purl.org/dc/dcmitype/StillImage"/>
    <dc:date>2026-01-24T22:26:46.105337</dc:date>
    <dc:format>image/svg+xml</dc:format>
    <dc:creator>
     <cc:Agent>
      <dc:title>Matplotlib v3.10.6, https://matplotlib.org/</dc:title>
     </cc:Agent>
    </dc:creator>
   </cc:Work>
  </rdf:RDF>
 </metadata>
 <defs>
  <style type="text/css">*{stroke-linejoin: round; stroke-linecap: butt}</style>
 </defs>
 <g id="figure_1">
  <g id="patch_1">
   <path d="M 0 340.845625 
L 408.462187 340.845625 
L 408.462187 0 
L 0 0 
z
" style="fill: #ffffff"/>
  </g>
  <g id="axes_1">
   <g id="patch_2">
    <path d="M 44.142188 301.8675 
L 401.262187 301.8675 
L 401.262187 35.7555 
L 44.142188 35.7555 
z
" style="fill: #ffffff"/>
   </g>
   <g id="matplotlib.axis_1">
    <g id="xtick_1">
     <g id="line2d_1">
      <path d="M 60.212506 301.8675 
L 60.212506 35.7555 
" clip-path="url(#p839fa45ad4)" style="fill: none; stroke: #808080; stroke-width: 0.3; stroke-linecap: square"/>
     </g>
     <g id="line2d_2">
      <defs>
       <path id="m7a22870505" d="M 0 0 
L 0 3.5 
" style="stroke: #000000; stroke-width: 0.8"/>
      </defs>
      <g>
       <use xlink:href="#m7a22870505" x="60.212506" y="301.8675" style="stroke: #000000; stroke-width: 0.8"/>
      </g>
     </g>
     <g id="text_1">
      <!-- 0 -->
      <g transform="translate(57.031256 316.465937) scale(0.1 -0.1)">
       <defs>
        <path id="DejaVuSans-30" d="M 2034 4250 
Q 1547 4250 1301 3770 
Q 1056 3291 1056 2328 
Q 1056 1369 1301 889 
Q 1547 409 2034 409 
Q 2525 409 2770 889 
Q 3016 1369 3016 2328 
Q 3016 3291 2770 3770 
Q 2525 4250 2034 4250 
z
M 2034 4750 
Q 2819 4750 3233 4129 
Q 3647 3509 3647 2328 
Q 3647 1150 3233 529 
Q 2819 -91 2034 -91 
Q 1250 -91 836 529 
Q 422 1150 422 2328 
Q 422 3509 836 4129 
Q 1250 4750 2034 4750 
z
" transform="scale(0.015625)"/>
       </defs>
       <use xlink:href="#DejaVuSans-30"/>
      </g>
     </g>
    </g>
    <g id="xtick_2">
     <g id="line2d_3">
      <path d="M 100.814626 301.8675 
L 100.814626 35.7555 
" clip-path="url(#p839fa45ad4)" style="fill: none; stroke: #808080; stroke-width: 0.3; stroke-linecap: square"/>
     </g>
     <g id="line2d_4">
      <g>
       <use xlink:href="#m7a22870505" x="100.814626" y="301.8675" style="stroke: #000000; stroke-width: 0.8"/>
      </g>
     </g>
     <g id="text_2">
      <!-- 250 -->
      <g transform="translate(91.270876 316.465937) scale(0.1 -0.1)">
       <defs>
        <path id="DejaVuSans-32" d="M 1228 531 
L 3431 531 
L 3431 0 
L 469 0 
L 469 531 
Q 828 903 1448 1529 
Q 2069 2156 2228 2338 
Q 2531 2678 2651 2914 
Q 2772 3150 2772 3378 
Q 2772 3750 2511 3984 
Q 2250 4219 1831 4219 
Q 1534 4219 1204 4116 
Q 875 4013 500 3803 
L 500 4441 
Q 881 4594 1212 4672 
Q 1544 4750 1819 4750 
Q 2544 4750 2975 4387 
Q 3406 4025 3406 3419 
Q 3406 3131 3298 2873 
Q 3191 2616 2906 2266 
Q 2828 2175 2409 1742 
Q 1991 1309 1228 531 
z
" transform="scale(0.015625)"/>
        <path id="DejaVuSans-35" d="M 691 4666 
L 3169 4666 
L 3169 4134 
L 1269 4134 
L 1269 2991 
Q 1406 3038 1543 3061 
Q 1681 3084 1819 3084 
Q 2600 3084 3056 2656 
Q 3513 2228 3513 1497 
Q 3513 744 3044 326 
Q 2575 -91 1722 -91 
Q 1428 -91 1123 -41 
Q 819 9 494 109 
L 494 744 
Q 775 591 1075 516 
Q 1375 441 1709 441 
Q 2250 441 2565 725 
Q 2881 1009 2881 1497 
Q 2881 1984 2565 2268 
Q 2250 2553 1709 2553 
Q 1456 2553 1204 2497 
Q 953 2441 691 2322 
L 691 4666 
z
" transform="scale(0.015625)"/>
       </defs>
       <use xlink:href="#DejaVuSans-32"/>
       <use xlink:href="#DejaVuSans-35" transform="translate(63.623047 0)"/>
       <use xlink:href="#DejaVuSans-30" transform="translate(127.246094 0)"/>
      </g>
     </g>
    </g>
    <g id="xtick_3">
     <g id="line2d_5">
      <path d="M 141.416745 301.8675 
L 141.416745 35.7555 
" clip-path="url(#p839fa45ad4)" style="fill: none; stroke: #808080; stroke-width: 0.3; stroke-linecap: square"/>
     </g>
     <g id="line2d_6">
      <g>
       <use xlink:href="#m7a22870505" x="141.416745" y="301.8675" style="stroke: #000000; stroke-width: 0.8"/>
      </g>
     </g>
     <g id="text_3">
      <!-- 500 -->
      <g transform="translate(131.872995 316.465937) scale(0.1 -0.1)">
       <use xlink:href="#DejaVuSans-35"/>
       <use xlink:href="#DejaVuSans-30" transform="translate(63.623047 0)"/>
       <use xlink:href="#DejaVuSans-30" transform="translate(127.246094 0)"/>
      </g>
     </g>
    </g>
    <g id="xtick_4">
     <g id="line2d_7">
      <path d="M 182.018864 301.8675 
L 182.018864 35.7555 
" clip-path="url(#p839fa45ad4)" style="fill: none; stroke: #808080; stroke-width: 0.3; stroke-linecap: square"/>
     </g>
     <g id="line2d_8">
      <g>
       <use xlink:href="#m7a22870505" x="182.018864" y="301.8675" style="stroke: #000000; stroke-width: 0.8"/>
      </g>
     </g>
     <g id="text_4">
      <!-- 750 -->
      <g transform="translate(172.475114 316.465937) scale(0.1 -0.1)">
       <defs>
        <path id="DejaVuSans-37" d="M 525 4666 
L 3525 4666 
L 3525 4397 
L 1831 0 
L 1172 0 
L 2766 4134 
L 525 4134 
L 525 4666 
z
" transform="scale(0.015625)"/>
       </defs>
       <use xlink:href="#DejaVuSans-37"/>
       <use xlink:href="#DejaVuSans-35" transform="translate(63.623047 0)"/>
       <use xlink:href="#DejaVuSans-30" transform="translate(127.246094 0)"/>
      </g>
     </g>
    </g>
    <g id="xtick_5">
     <g id="line2d_9">
      <path d="M 222.620983 301.8675 
L 222.620983 35.7555 
" clip-path="url(#p839fa45ad4)" style="fill: none; stroke: #808080; stroke-width: 0.3; stroke-linecap: square"/>
     </g>
     <g id="line2d_10">
      <g>
       <use xlink:href="#m7a22870505" x="222.620983" y="301.8675" style="stroke: #000000; stroke-width: 0.8"/>
      </g>
     </g>
     <g id="text_5">
      <!-- 1000 -->
      <g transform="translate(209.895983 316.465937) scale(0.1 -0.1)">
       <defs>
        <path id="DejaVuSans-31" d="M 794 531 
L 1825 531 
L 1825 4091 
L 703 3866 
L 703 4441 
L 1819 4666 
L 2450 4666 
L 2450 531 
L 3481 531 
L 3481 0 
L 794 0 
L 794 531 
z
" transform="scale(0.015625)"/>
       </defs>
       <use xlink:href="#DejaVuSans-31"/>
       <use xlink:href="#DejaVuSans-30" transform="translate(63.623047 0)"/>
       <use xlink:href="#DejaVuSans-30" transform="translate(127.246094 0)"/>
       <use xlink:href="#DejaVuSans-30" transform="translate(190.869141 0)"/>
      </g>
     </g>
    </g>
    <g id="xtick_6">
     <g id="line2d_11">
      <path d="M 263.223103 301.8675 
L 263.223103 35.7555 
" clip-path="url(#p839fa45ad4)" style="fill: none; stroke: #808080; stroke-width: 0.3; stroke-linecap: square"/>
     </g>
     <g id="line2d_12">
      <g>
       <use xlink:href="#m7a22870505" x="263.223103" y="301.8675" style="stroke: #000000; stroke-width: 0.8"/>
      </g>
     </g>
     <g id="text_6">
      <!-- 1250 -->
      <g transform="translate(250.498103 316.465937) scale(0.1 -0.1)">
       <use xlink:href="#DejaVuSans-31"/>
       <use xlink:href="#DejaVuSans-32" transform="translate(63.623047 0)"/>
       <use xlink:href="#DejaVuSans-35" transform="translate(127.246094 0)"/>
       <use xlink:href="#DejaVuSans-30" transform="translate(190.869141 0)"/>
      </g>
     </g>
    </g>
    <g id="xtick_7">
     <g id="line2d_13">
      <path d="M 303.825222 301.8675 
L 303.825222 35.7555 
" clip-path="url(#p839fa45ad4)" style="fill: none; stroke: #808080; stroke-width: 0.3; stroke-linecap: square"/>
     </g>
     <g id="line2d_14">
      <g>
       <use xlink:href="#m7a22870505" x="303.825222" y="301.8675" style="stroke: #000000; stroke-width: 0.8"/>
      </g>
     </g>
     <g id="text_7">
      <!-- 1500 -->
      <g transform="translate(291.100222 316.465937) scale(0.1 -0.1)">
       <use xlink:href="#DejaVuSans-31"/>
       <use xlink:href="#DejaVuSans-35" transform="translate(63.623047 0)"/>
       <use xlink:href="#DejaVuSans-30" transform="translate(127.246094 0)"/>
       <use xlink:href="#DejaVuSans-30" transform="translate(190.869141 0)"/>
      </g>
     </g>
    </g>
    <g id="xtick_8">
     <g id="line2d_15">
      <path d="M 344.427341 301.8675 
L 344.427341 35.7555 
" clip-path="url(#p839fa45ad4)" style="fill: none; stroke: #808080; stroke-width: 0.3; stroke-linecap: square"/>
     </g>
     <g id="line2d_16">
      <g>
       <use xlink:href="#m7a22870505" x="344.427341" y="301.8675" style="stroke: #000000; stroke-width: 0.8"/>
      </g>
     </g>
     <g id="text_8">
      <!-- 1750 -->
      <g transform="translate(331.702341 316.465937) scale(0.1 -0.1)">
       <use xlink:href="#DejaVuSans-31"/>
       <use xlink:href="#DejaVuSans-37" transform="translate(63.623047 0)"/>
       <use xlink:href="#DejaVuSans-35" transform="translate(127.246094 0)"/>
       <use xlink:href="#DejaVuSans-30" transform="translate(190.869141 0)"/>
      </g>
     </g>
    </g>
    <g id="xtick_9">
     <g id="line2d_17">
      <path d="M 385.02946 301.8675 
L 385.02946 35.7555 
" clip-path="url(#p839fa45ad4)" style="fill: none; stroke: #808080; stroke-width: 0.3; stroke-linecap: square"/>
     </g>
     <g id="line2d_18">
      <g>
       <use xlink:href="#m7a22870505" x="385.02946" y="301.8675" style="stroke: #000000; stroke-width: 0.8"/>
      </g>
     </g>
     <g id="text_9">
      <!-- 2000 -->
      <g transform="translate(372.30446 316.465937) scale(0.1 -0.1)">
       <use xlink:href="#DejaVuSans-32"/>
       <use xlink:href="#DejaVuSans-30" transform="translate(63.623047 0)"/>
       <use xlink:href="#DejaVuSans-30" transform="translate(127.246094 0)"/>
       <use xlink:href="#DejaVuSans-30" transform="translate(190.869141 0)"/>
      </g>
     </g>
    </g>
    <g id="text_10">
     <!-- Frequency / Kayser (cm$^{-1}$) -->
     <g transform="translate(156.002187 331.545625) scale(0.1 -0.1)">
      <defs>
       <path id="DejaVuSans-46" d="M 628 4666 
L 3309 4666 
L 3309 4134 
L 1259 4134 
L 1259 2759 
L 3109 2759 
L 3109 2228 
L 1259 2228 
L 1259 0 
L 628 0 
L 628 4666 
z
" transform="scale(0.015625)"/>
       <path id="DejaVuSans-72" d="M 2631 2963 
Q 2534 3019 2420 3045 
Q 2306 3072 2169 3072 
Q 1681 3072 1420 2755 
Q 1159 2438 1159 1844 
L 1159 0 
L 581 0 
L 581 3500 
L 1159 3500 
L 1159 2956 
Q 1341 3275 1631 3429 
Q 1922 3584 2338 3584 
Q 2397 3584 2469 3576 
Q 2541 3569 2628 3553 
L 2631 2963 
z
" transform="scale(0.015625)"/>
       <path id="DejaVuSans-65" d="M 3597 1894 
L 3597 1613 
L 953 1613 
Q 991 1019 1311 708 
Q 1631 397 2203 397 
Q 2534 397 2845 478 
Q 3156 559 3463 722 
L 3463 178 
Q 3153 47 2828 -22 
Q 2503 -91 2169 -91 
Q 1331 -91 842 396 
Q 353 884 353 1716 
Q 353 2575 817 3079 
Q 1281 3584 2069 3584 
Q 2775 3584 3186 3129 
Q 3597 2675 3597 1894 
z
M 3022 2063 
Q 3016 2534 2758 2815 
Q 2500 3097 2075 3097 
Q 1594 3097 1305 2825 
Q 1016 2553 972 2059 
L 3022 2063 
z
" transform="scale(0.015625)"/>
       <path id="DejaVuSans-71" d="M 947 1747 
Q 947 1113 1208 752 
Q 1469 391 1925 391 
Q 2381 391 2643 752 
Q 2906 1113 2906 1747 
Q 2906 2381 2643 2742 
Q 2381 3103 1925 3103 
Q 1469 3103 1208 2742 
Q 947 2381 947 1747 
z
M 2906 525 
Q 2725 213 2448 61 
Q 2172 -91 1784 -91 
Q 1150 -91 751 415 
Q 353 922 353 1747 
Q 353 2572 751 3078 
Q 1150 3584 1784 3584 
Q 2172 3584 2448 3432 
Q 2725 3281 2906 2969 
L 2906 3500 
L 3481 3500 
L 3481 -1331 
L 2906 -1331 
L 2906 525 
z
" transform="scale(0.015625)"/>
       <path id="DejaVuSans-75" d="M 544 1381 
L 544 3500 
L 1119 3500 
L 1119 1403 
Q 1119 906 1312 657 
Q 1506 409 1894 409 
Q 2359 409 2629 706 
Q 2900 1003 2900 1516 
L 2900 3500 
L 3475 3500 
L 3475 0 
L 2900 0 
L 2900 538 
Q 2691 219 2414 64 
Q 2138 -91 1772 -91 
Q 1169 -91 856 284 
Q 544 659 544 1381 
z
M 1991 3584 
L 1991 3584 
z
" transform="scale(0.015625)"/>
       <path id="DejaVuSans-6e" d="M 3513 2113 
L 3513 0 
L 2938 0 
L 2938 2094 
Q 2938 2591 2744 2837 
Q 2550 3084 2163 3084 
Q 1697 3084 1428 2787 
Q 1159 2491 1159 1978 
L 1159 0 
L 581 0 
L 581 3500 
L 1159 3500 
L 1159 2956 
Q 1366 3272 1645 3428 
Q 1925 3584 2291 3584 
Q 2894 3584 3203 3211 
Q 3513 2838 3513 2113 
z
" transform="scale(0.015625)"/>
       <path id="DejaVuSans-63" d="M 3122 3366 
L 3122 2828 
Q 2878 2963 2633 3030 
Q 2388 3097 2138 3097 
Q 1578 3097 1268 2742 
Q 959 2388 959 1747 
Q 959 1106 1268 751 
Q 1578 397 2138 397 
Q 2388 397 2633 464 
Q 2878 531 3122 666 
L 3122 134 
Q 2881 22 2623 -34 
Q 2366 -91 2075 -91 
Q 1284 -91 818 406 
Q 353 903 353 1747 
Q 353 2603 823 3093 
Q 1294 3584 2113 3584 
Q 2378 3584 2631 3529 
Q 2884 3475 3122 3366 
z
" transform="scale(0.015625)"/>
       <path id="DejaVuSans-79" d="M 2059 -325 
Q 1816 -950 1584 -1140 
Q 1353 -1331 966 -1331 
L 506 -1331 
L 506 -850 
L 844 -850 
Q 1081 -850 1212 -737 
Q 1344 -625 1503 -206 
L 1606 56 
L 191 3500 
L 800 3500 
L 1894 763 
L 2988 3500 
L 3597 3500 
L 2059 -325 
z
" transform="scale(0.015625)"/>
       <path id="DejaVuSans-20" transform="scale(0.015625)"/>
       <path id="DejaVuSans-2f" d="M 1625 4666 
L 2156 4666 
L 531 -594 
L 0 -594 
L 1625 4666 
z
" transform="scale(0.015625)"/>
       <path id="DejaVuSans-4b" d="M 628 4666 
L 1259 4666 
L 1259 2694 
L 3353 4666 
L 4166 4666 
L 1850 2491 
L 4331 0 
L 3500 0 
L 1259 2247 
L 1259 0 
L 628 0 
L 628 4666 
z
" transform="scale(0.015625)"/>
       <path id="DejaVuSans-61" d="M 2194 1759 
Q 1497 1759 1228 1600 
Q 959 1441 959 1056 
Q 959 750 1161 570 
Q 1363 391 1709 391 
Q 2188 391 2477 730 
Q 2766 1069 2766 1631 
L 2766 1759 
L 2194 1759 
z
M 3341 1997 
L 3341 0 
L 2766 0 
L 2766 531 
Q 2569 213 2275 61 
Q 1981 -91 1556 -91 
Q 1019 -91 701 211 
Q 384 513 384 1019 
Q 384 1609 779 1909 
Q 1175 2209 1959 2209 
L 2766 2209 
L 2766 2266 
Q 2766 2663 2505 2880 
Q 2244 3097 1772 3097 
Q 1472 3097 1187 3025 
Q 903 2953 641 2809 
L 641 3341 
Q 956 3463 1253 3523 
Q 1550 3584 1831 3584 
Q 2591 3584 2966 3190 
Q 3341 2797 3341 1997 
z
" transform="scale(0.015625)"/>
       <path id="DejaVuSans-73" d="M 2834 3397 
L 2834 2853 
Q 2591 2978 2328 3040 
Q 2066 3103 1784 3103 
Q 1356 3103 1142 2972 
Q 928 2841 928 2578 
Q 928 2378 1081 2264 
Q 1234 2150 1697 2047 
L 1894 2003 
Q 2506 1872 2764 1633 
Q 3022 1394 3022 966 
Q 3022 478 2636 193 
Q 2250 -91 1575 -91 
Q 1294 -91 989 -36 
Q 684 19 347 128 
L 347 722 
Q 666 556 975 473 
Q 1284 391 1588 391 
Q 1994 391 2212 530 
Q 2431 669 2431 922 
Q 2431 1156 2273 1281 
Q 2116 1406 1581 1522 
L 1381 1569 
Q 847 1681 609 1914 
Q 372 2147 372 2553 
Q 372 3047 722 3315 
Q 1072 3584 1716 3584 
Q 2034 3584 2315 3537 
Q 2597 3491 2834 3397 
z
" transform="scale(0.015625)"/>
       <path id="DejaVuSans-28" d="M 1984 4856 
Q 1566 4138 1362 3434 
Q 1159 2731 1159 2009 
Q 1159 1288 1364 580 
Q 1569 -128 1984 -844 
L 1484 -844 
Q 1016 -109 783 600 
Q 550 1309 550 2009 
Q 550 2706 781 3412 
Q 1013 4119 1484 4856 
L 1984 4856 
z
" transform="scale(0.015625)"/>
       <path id="DejaVuSans-6d" d="M 3328 2828 
Q 3544 3216 3844 3400 
Q 4144 3584 4550 3584 
Q 5097 3584 5394 3201 
Q 5691 2819 5691 2113 
L 5691 0 
L 5113 0 
L 5113 2094 
Q 5113 2597 4934 2840 
Q 4756 3084 4391 3084 
Q 3944 3084 3684 2787 
Q 3425 2491 3425 1978 
L 3425 0 
L 2847 0 
L 2847 2094 
Q 2847 2600 2669 2842 
Q 2491 3084 2119 3084 
Q 1678 3084 1418 2786 
Q 1159 2488 1159 1978 
L 1159 0 
L 581 0 
L 581 3500 
L 1159 3500 
L 1159 2956 
Q 1356 3278 1631 3431 
Q 1906 3584 2284 3584 
Q 2666 3584 2933 3390 
Q 3200 3197 3328 2828 
z
" transform="scale(0.015625)"/>
       <path id="DejaVuSans-2212" d="M 678 2272 
L 4684 2272 
L 4684 1741 
L 678 1741 
L 678 2272 
z
" transform="scale(0.015625)"/>
       <path id="DejaVuSans-29" d="M 513 4856 
L 1013 4856 
Q 1481 4119 1714 3412 
Q 1947 2706 1947 2009 
Q 1947 1309 1714 600 
Q 1481 -109 1013 -844 
L 513 -844 
Q 928 -128 1133 580 
Q 1338 1288 1338 2009 
Q 1338 2731 1133 3434 
Q 928 4138 513 4856 
z
" transform="scale(0.015625)"/>
      </defs>
      <use xlink:href="#DejaVuSans-46" transform="translate(0 0.684375)"/>
      <use xlink:href="#DejaVuSans-72" transform="translate(57.519531 0.684375)"/>
      <use xlink:href="#DejaVuSans-65" transform="translate(98.632812 0.684375)"/>
      <use xlink:href="#DejaVuSans-71" transform="translate(160.15625 0.684375)"/>
      <use xlink:href="#DejaVuSans-75" transform="translate(223.632812 0.684375)"/>
      <use xlink:href="#DejaVuSans-65" transform="translate(287.011719 0.684375)"/>
      <use xlink:href="#DejaVuSans-6e" transform="translate(348.535156 0.684375)"/>
      <use xlink:href="#DejaVuSans-63" transform="translate(411.914062 0.684375)"/>
      <use xlink:href="#DejaVuSans-79" transform="translate(466.894531 0.684375)"/>
      <use xlink:href="#DejaVuSans-20" transform="translate(526.074219 0.684375)"/>
      <use xlink:href="#DejaVuSans-2f" transform="translate(557.861328 0.684375)"/>
      <use xlink:href="#DejaVuSans-20" transform="translate(591.552734 0.684375)"/>
      <use xlink:href="#DejaVuSans-4b" transform="translate(623.339844 0.684375)"/>
      <use xlink:href="#DejaVuSans-61" transform="translate(688.916016 0.684375)"/>
      <use xlink:href="#DejaVuSans-79" transform="translate(750.195312 0.684375)"/>
      <use xlink:href="#DejaVuSans-73" transform="translate(809.375 0.684375)"/>
      <use xlink:href="#DejaVuSans-65" transform="translate(861.474609 0.684375)"/>
      <use xlink:href="#DejaVuSans-72" transform="translate(922.998047 0.684375)"/>
      <use xlink:href="#DejaVuSans-20" transform="translate(964.111328 0.684375)"/>
      <use xlink:href="#DejaVuSans-28" transform="translate(995.898438 0.684375)"/>
      <use xlink:href="#DejaVuSans-63" transform="translate(1034.912109 0.684375)"/>
      <use xlink:href="#DejaVuSans-6d" transform="translate(1089.892578 0.684375)"/>
      <use xlink:href="#DejaVuSans-2212" transform="translate(1188.261719 38.965625) scale(0.7)"/>
      <use xlink:href="#DejaVuSans-31" transform="translate(1246.914062 38.965625) scale(0.7)"/>
      <use xlink:href="#DejaVuSans-29" transform="translate(1294.18457 0.684375)"/>
     </g>
    </g>
   </g>
   <g id="matplotlib.axis_2">
    <g id="ytick_1">
     <g id="line2d_19">
      <path d="M 44.142188 293.623364 
L 401.262187 293.623364 
" clip-path="url(#p839fa45ad4)" style="fill: none; stroke: #808080; stroke-width: 0.3; stroke-linecap: square"/>
     </g>
     <g id="line2d_20">
      <defs>
       <path id="mf065648c88" d="M 0 0 
L -3.5 0 
" style="stroke: #000000; stroke-width: 0.8"/>
      </defs>
      <g>
       <use xlink:href="#mf065648c88" x="44.142188" y="293.623364" style="stroke: #000000; stroke-width: 0.8"/>
      </g>
     </g>
     <g id="text_11">
      <!-- −8 -->
      <g transform="translate(22.4 297.422583) scale(0.1 -0.1)">
       <defs>
        <path id="DejaVuSans-38" d="M 2034 2216 
Q 1584 2216 1326 1975 
Q 1069 1734 1069 1313 
Q 1069 891 1326 650 
Q 1584 409 2034 409 
Q 2484 409 2743 651 
Q 3003 894 3003 1313 
Q 3003 1734 2745 1975 
Q 2488 2216 2034 2216 
z
M 1403 2484 
Q 997 2584 770 2862 
Q 544 3141 544 3541 
Q 544 4100 942 4425 
Q 1341 4750 2034 4750 
Q 2731 4750 3128 4425 
Q 3525 4100 3525 3541 
Q 3525 3141 3298 2862 
Q 3072 2584 2669 2484 
Q 3125 2378 3379 2068 
Q 3634 1759 3634 1313 
Q 3634 634 3220 271 
Q 2806 -91 2034 -91 
Q 1263 -91 848 271 
Q 434 634 434 1313 
Q 434 1759 690 2068 
Q 947 2378 1403 2484 
z
M 1172 3481 
Q 1172 3119 1398 2916 
Q 1625 2713 2034 2713 
Q 2441 2713 2670 2916 
Q 2900 3119 2900 3481 
Q 2900 3844 2670 4047 
Q 2441 4250 2034 4250 
Q 1625 4250 1398 4047 
Q 1172 3844 1172 3481 
z
" transform="scale(0.015625)"/>
       </defs>
       <use xlink:href="#DejaVuSans-2212"/>
       <use xlink:href="#DejaVuSans-38" transform="translate(83.789062 0)"/>
      </g>
     </g>
    </g>
    <g id="ytick_2">
     <g id="line2d_21">
      <path d="M 44.142188 263.830852 
L 401.262187 263.830852 
" clip-path="url(#p839fa45ad4)" style="fill: none; stroke: #808080; stroke-width: 0.3; stroke-linecap: square"/>
     </g>
     <g id="line2d_22">
      <g>
       <use xlink:href="#mf065648c88" x="44.142188" y="263.830852" style="stroke: #000000; stroke-width: 0.8"/>
      </g>
     </g>
     <g id="text_12">
      <!-- −6 -->
      <g transform="translate(22.4 267.630071) scale(0.1 -0.1)">
       <defs>
        <path id="DejaVuSans-36" d="M 2113 2584 
Q 1688 2584 1439 2293 
Q 1191 2003 1191 1497 
Q 1191 994 1439 701 
Q 1688 409 2113 409 
Q 2538 409 2786 701 
Q 3034 994 3034 1497 
Q 3034 2003 2786 2293 
Q 2538 2584 2113 2584 
z
M 3366 4563 
L 3366 3988 
Q 3128 4100 2886 4159 
Q 2644 4219 2406 4219 
Q 1781 4219 1451 3797 
Q 1122 3375 1075 2522 
Q 1259 2794 1537 2939 
Q 1816 3084 2150 3084 
Q 2853 3084 3261 2657 
Q 3669 2231 3669 1497 
Q 3669 778 3244 343 
Q 2819 -91 2113 -91 
Q 1303 -91 875 529 
Q 447 1150 447 2328 
Q 447 3434 972 4092 
Q 1497 4750 2381 4750 
Q 2619 4750 2861 4703 
Q 3103 4656 3366 4563 
z
" transform="scale(0.015625)"/>
       </defs>
       <use xlink:href="#DejaVuSans-2212"/>
       <use xlink:href="#DejaVuSans-36" transform="translate(83.789062 0)"/>
      </g>
     </g>
    </g>
    <g id="ytick_3">
     <g id="line2d_23">
      <path d="M 44.142188 234.03834 
L 401.262187 234.03834 
" clip-path="url(#p839fa45ad4)" style="fill: none; stroke: #808080; stroke-width: 0.3; stroke-linecap: square"/>
     </g>
     <g id="line2d_24">
      <g>
       <use xlink:href="#mf065648c88" x="44.142188" y="234.03834" style="stroke: #000000; stroke-width: 0.8"/>
      </g>
     </g>
     <g id="text_13">
      <!-- −4 -->
      <g transform="translate(22.4 237.837559) scale(0.1 -0.1)">
       <defs>
        <path id="DejaVuSans-34" d="M 2419 4116 
L 825 1625 
L 2419 1625 
L 2419 4116 
z
M 2253 4666 
L 3047 4666 
L 3047 1625 
L 3713 1625 
L 3713 1100 
L 3047 1100 
L 3047 0 
L 2419 0 
L 2419 1100 
L 313 1100 
L 313 1709 
L 2253 4666 
z
" transform="scale(0.015625)"/>
       </defs>
       <use xlink:href="#DejaVuSans-2212"/>
       <use xlink:href="#DejaVuSans-34" transform="translate(83.789062 0)"/>
      </g>
     </g>
    </g>
    <g id="ytick_4">
     <g id="line2d_25">
      <path d="M 44.142188 204.245828 
L 401.262187 204.245828 
" clip-path="url(#p839fa45ad4)" style="fill: none; stroke: #808080; stroke-width: 0.3; stroke-linecap: square"/>
     </g>
     <g id="line2d_26">
      <g>
       <use xlink:href="#mf065648c88" x="44.142188" y="204.245828" style="stroke: #000000; stroke-width: 0.8"/>
      </g>
     </g>
     <g id="text_14">
      <!-- −2 -->
      <g transform="translate(22.4 208.045047) scale(0.1 -0.1)">
       <use xlink:href="#DejaVuSans-2212"/>
       <use xlink:href="#DejaVuSans-32" transform="translate(83.789062 0)"/>
      </g>
     </g>
    </g>
    <g id="ytick_5">
     <g id="line2d_27">
      <path d="M 44.142188 174.453316 
L 401.262187 174.453316 
" clip-path="url(#p839fa45ad4)" style="fill: none; stroke: #808080; stroke-width: 0.3; stroke-linecap: square"/>
     </g>
     <g id="line2d_28">
      <g>
       <use xlink:href="#mf065648c88" x="44.142188" y="174.453316" style="stroke: #000000; stroke-width: 0.8"/>
      </g>
     </g>
     <g id="text_15">
      <!-- 0 -->
      <g transform="translate(30.779688 178.252535) scale(0.1 -0.1)">
       <use xlink:href="#DejaVuSans-30"/>
      </g>
     </g>
    </g>
    <g id="ytick_6">
     <g id="line2d_29">
      <path d="M 44.142188 144.660805 
L 401.262187 144.660805 
" clip-path="url(#p839fa45ad4)" style="fill: none; stroke: #808080; stroke-width: 0.3; stroke-linecap: square"/>
     </g>
     <g id="line2d_30">
      <g>
       <use xlink:href="#mf065648c88" x="44.142188" y="144.660805" style="stroke: #000000; stroke-width: 0.8"/>
      </g>
     </g>
     <g id="text_16">
      <!-- 2 -->
      <g transform="translate(30.779688 148.460023) scale(0.1 -0.1)">
       <use xlink:href="#DejaVuSans-32"/>
      </g>
     </g>
    </g>
    <g id="ytick_7">
     <g id="line2d_31">
      <path d="M 44.142188 114.868293 
L 401.262187 114.868293 
" clip-path="url(#p839fa45ad4)" style="fill: none; stroke: #808080; stroke-width: 0.3; stroke-linecap: square"/>
     </g>
     <g id="line2d_32">
      <g>
       <use xlink:href="#mf065648c88" x="44.142188" y="114.868293" style="stroke: #000000; stroke-width: 0.8"/>
      </g>
     </g>
     <g id="text_17">
      <!-- 4 -->
      <g transform="translate(30.779688 118.667511) scale(0.1 -0.1)">
       <use xlink:href="#DejaVuSans-34"/>
      </g>
     </g>
    </g>
    <g id="ytick_8">
     <g id="line2d_33">
      <path d="M 44.142188 85.075781 
L 401.262187 85.075781 
" clip-path="url(#p839fa45ad4)" style="fill: none; stroke: #808080; stroke-width: 0.3; stroke-linecap: square"/>
     </g>
     <g id="line2d_34">
      <g>
       <use xlink:href="#mf065648c88" x="44.142188" y="85.075781" style="stroke: #000000; stroke-width: 0.8"/>
      </g>
     </g>
     <g id="text_18">
      <!-- 6 -->
      <g transform="translate(30.779688 88.875) scale(0.1 -0.1)">
       <use xlink:href="#DejaVuSans-36"/>
      </g>
     </g>
    </g>
    <g id="ytick_9">
     <g id="line2d_35">
      <path d="M 44.142188 55.283269 
L 401.262187 55.283269 
" clip-path="url(#p839fa45ad4)" style="fill: none; stroke: #808080; stroke-width: 0.3; stroke-linecap: square"/>
     </g>
     <g id="line2d_36">
      <g>
       <use xlink:href="#mf065648c88" x="44.142188" y="55.283269" style="stroke: #000000; stroke-width: 0.8"/>
      </g>
     </g>
     <g id="text_19">
      <!-- 8 -->
      <g transform="translate(30.779688 59.082488) scale(0.1 -0.1)">
       <use xlink:href="#DejaVuSans-38"/>
      </g>
     </g>
    </g>
    <g id="text_20">
     <!-- Spectral radiance ($Wm^{-2}sr^{-1}Hz^{-1}$) -->
     <g transform="translate(16.3 255.7115) rotate(-90) scale(0.1 -0.1)">
      <defs>
       <path id="DejaVuSans-53" d="M 3425 4513 
L 3425 3897 
Q 3066 4069 2747 4153 
Q 2428 4238 2131 4238 
Q 1616 4238 1336 4038 
Q 1056 3838 1056 3469 
Q 1056 3159 1242 3001 
Q 1428 2844 1947 2747 
L 2328 2669 
Q 3034 2534 3370 2195 
Q 3706 1856 3706 1288 
Q 3706 609 3251 259 
Q 2797 -91 1919 -91 
Q 1588 -91 1214 -16 
Q 841 59 441 206 
L 441 856 
Q 825 641 1194 531 
Q 1563 422 1919 422 
Q 2459 422 2753 634 
Q 3047 847 3047 1241 
Q 3047 1584 2836 1778 
Q 2625 1972 2144 2069 
L 1759 2144 
Q 1053 2284 737 2584 
Q 422 2884 422 3419 
Q 422 4038 858 4394 
Q 1294 4750 2059 4750 
Q 2388 4750 2728 4690 
Q 3069 4631 3425 4513 
z
" transform="scale(0.015625)"/>
       <path id="DejaVuSans-70" d="M 1159 525 
L 1159 -1331 
L 581 -1331 
L 581 3500 
L 1159 3500 
L 1159 2969 
Q 1341 3281 1617 3432 
Q 1894 3584 2278 3584 
Q 2916 3584 3314 3078 
Q 3713 2572 3713 1747 
Q 3713 922 3314 415 
Q 2916 -91 2278 -91 
Q 1894 -91 1617 61 
Q 1341 213 1159 525 
z
M 3116 1747 
Q 3116 2381 2855 2742 
Q 2594 3103 2138 3103 
Q 1681 3103 1420 2742 
Q 1159 2381 1159 1747 
Q 1159 1113 1420 752 
Q 1681 391 2138 391 
Q 2594 391 2855 752 
Q 3116 1113 3116 1747 
z
" transform="scale(0.015625)"/>
       <path id="DejaVuSans-74" d="M 1172 4494 
L 1172 3500 
L 2356 3500 
L 2356 3053 
L 1172 3053 
L 1172 1153 
Q 1172 725 1289 603 
Q 1406 481 1766 481 
L 2356 481 
L 2356 0 
L 1766 0 
Q 1100 0 847 248 
Q 594 497 594 1153 
L 594 3053 
L 172 3053 
L 172 3500 
L 594 3500 
L 594 4494 
L 1172 4494 
z
" transform="scale(0.015625)"/>
       <path id="DejaVuSans-6c" d="M 603 4863 
L 1178 4863 
L 1178 0 
L 603 0 
L 603 4863 
z
" transform="scale(0.015625)"/>
       <path id="DejaVuSans-64" d="M 2906 2969 
L 2906 4863 
L 3481 4863 
L 3481 0 
L 2906 0 
L 2906 525 
Q 2725 213 2448 61 
Q 2172 -91 1784 -91 
Q 1150 -91 751 415 
Q 353 922 353 1747 
Q 353 2572 751 3078 
Q 1150 3584 1784 3584 
Q 2172 3584 2448 3432 
Q 2725 3281 2906 2969 
z
M 947 1747 
Q 947 1113 1208 752 
Q 1469 391 1925 391 
Q 2381 391 2643 752 
Q 2906 1113 2906 1747 
Q 2906 2381 2643 2742 
Q 2381 3103 1925 3103 
Q 1469 3103 1208 2742 
Q 947 2381 947 1747 
z
" transform="scale(0.015625)"/>
       <path id="DejaVuSans-69" d="M 603 3500 
L 1178 3500 
L 1178 0 
L 603 0 
L 603 3500 
z
M 603 4863 
L 1178 4863 
L 1178 4134 
L 603 4134 
L 603 4863 
z
" transform="scale(0.015625)"/>
       <path id="DejaVuSans-Oblique-57" d="M 616 4666 
L 1228 4666 
L 1453 697 
L 3213 4666 
L 3916 4666 
L 4147 697 
L 5888 4666 
L 6528 4666 
L 4453 0 
L 3659 0 
L 3444 3891 
L 1697 0 
L 903 0 
L 616 4666 
z
" transform="scale(0.015625)"/>
       <path id="DejaVuSans-Oblique-6d" d="M 5747 2113 
L 5338 0 
L 4763 0 
L 5166 2094 
Q 5191 2228 5203 2325 
Q 5216 2422 5216 2491 
Q 5216 2772 5059 2928 
Q 4903 3084 4622 3084 
Q 4203 3084 3875 2770 
Q 3547 2456 3450 1953 
L 3066 0 
L 2491 0 
L 2900 2094 
Q 2925 2209 2937 2307 
Q 2950 2406 2950 2484 
Q 2950 2769 2794 2926 
Q 2638 3084 2363 3084 
Q 1938 3084 1609 2770 
Q 1281 2456 1184 1953 
L 800 0 
L 225 0 
L 909 3500 
L 1484 3500 
L 1375 2956 
Q 1609 3263 1923 3423 
Q 2238 3584 2597 3584 
Q 2978 3584 3223 3384 
Q 3469 3184 3519 2828 
Q 3781 3197 4126 3390 
Q 4472 3584 4856 3584 
Q 5306 3584 5551 3325 
Q 5797 3066 5797 2591 
Q 5797 2488 5784 2364 
Q 5772 2241 5747 2113 
z
" transform="scale(0.015625)"/>
       <path id="DejaVuSans-Oblique-73" d="M 3200 3397 
L 3091 2853 
Q 2863 2978 2609 3040 
Q 2356 3103 2088 3103 
Q 1634 3103 1373 2948 
Q 1113 2794 1113 2528 
Q 1113 2219 1719 2053 
Q 1766 2041 1788 2034 
L 1972 1978 
Q 2547 1819 2739 1644 
Q 2931 1469 2931 1166 
Q 2931 609 2489 259 
Q 2047 -91 1331 -91 
Q 1053 -91 747 -37 
Q 441 16 72 128 
L 184 722 
Q 500 559 806 475 
Q 1113 391 1394 391 
Q 1816 391 2080 572 
Q 2344 753 2344 1031 
Q 2344 1331 1650 1516 
L 1591 1531 
L 1394 1581 
Q 956 1697 753 1886 
Q 550 2075 550 2369 
Q 550 2928 970 3256 
Q 1391 3584 2113 3584 
Q 2397 3584 2667 3537 
Q 2938 3491 3200 3397 
z
" transform="scale(0.015625)"/>
       <path id="DejaVuSans-Oblique-72" d="M 2853 2969 
Q 2766 3016 2653 3041 
Q 2541 3066 2413 3066 
Q 1953 3066 1609 2717 
Q 1266 2369 1153 1784 
L 800 0 
L 225 0 
L 909 3500 
L 1484 3500 
L 1375 2956 
Q 1603 3259 1920 3421 
Q 2238 3584 2597 3584 
Q 2691 3584 2781 3573 
Q 2872 3563 2963 3538 
L 2853 2969 
z
" transform="scale(0.015625)"/>
       <path id="DejaVuSans-Oblique-48" d="M 1081 4666 
L 1716 4666 
L 1344 2753 
L 3634 2753 
L 4006 4666 
L 4641 4666 
L 3731 0 
L 3097 0 
L 3531 2222 
L 1241 2222 
L 806 0 
L 172 0 
L 1081 4666 
z
" transform="scale(0.015625)"/>
       <path id="DejaVuSans-Oblique-7a" d="M 744 3500 
L 3475 3500 
L 3372 2975 
L 738 459 
L 2913 459 
L 2822 0 
L -19 0 
L 84 525 
L 2719 3041 
L 653 3041 
L 744 3500 
z
" transform="scale(0.015625)"/>
      </defs>
      <use xlink:href="#DejaVuSans-53" transform="translate(0 0.765625)"/>
      <use xlink:href="#DejaVuSans-70" transform="translate(63.476562 0.765625)"/>
      <use xlink:href="#DejaVuSans-65" transform="translate(126.953125 0.765625)"/>
      <use xlink:href="#DejaVuSans-63" transform="translate(188.476562 0.765625)"/>
      <use xlink:href="#DejaVuSans-74" transform="translate(243.457031 0.765625)"/>
      <use xlink:href="#DejaVuSans-72" transform="translate(282.666016 0.765625)"/>
      <use xlink:href="#DejaVuSans-61" transform="translate(323.779297 0.765625)"/>
      <use xlink:href="#DejaVuSans-6c" transform="translate(385.058594 0.765625)"/>
      <use xlink:href="#DejaVuSans-20" transform="translate(412.841797 0.765625)"/>
      <use xlink:href="#DejaVuSans-72" transform="translate(444.628906 0.765625)"/>
      <use xlink:href="#DejaVuSans-61" transform="translate(485.742188 0.765625)"/>
      <use xlink:href="#DejaVuSans-64" transform="translate(547.021484 0.765625)"/>
      <use xlink:href="#DejaVuSans-69" transform="translate(610.498047 0.765625)"/>
      <use xlink:href="#DejaVuSans-61" transform="translate(638.28125 0.765625)"/>
      <use xlink:href="#DejaVuSans-6e" transform="translate(699.560547 0.765625)"/>
      <use xlink:href="#DejaVuSans-63" transform="translate(762.939453 0.765625)"/>
      <use xlink:href="#DejaVuSans-65" transform="translate(817.919922 0.765625)"/>
      <use xlink:href="#DejaVuSans-20" transform="translate(879.443359 0.765625)"/>
      <use xlink:href="#DejaVuSans-28" transform="translate(911.230469 0.765625)"/>
      <use xlink:href="#DejaVuSans-Oblique-57" transform="translate(950.244141 0.765625)"/>
      <use xlink:href="#DejaVuSans-Oblique-6d" transform="translate(1049.121094 0.765625)"/>
      <use xlink:href="#DejaVuSans-2212" transform="translate(1151.183099 39.046875) scale(0.7)"/>
      <use xlink:href="#DejaVuSans-32" transform="translate(1209.835443 39.046875) scale(0.7)"/>
      <use xlink:href="#DejaVuSans-Oblique-73" transform="translate(1257.105951 0.765625)"/>
      <use xlink:href="#DejaVuSans-Oblique-72" transform="translate(1309.20556 0.765625)"/>
      <use xlink:href="#DejaVuSans-2212" transform="translate(1354.968737 39.046875) scale(0.7)"/>
      <use xlink:href="#DejaVuSans-31" transform="translate(1413.621081 39.046875) scale(0.7)"/>
      <use xlink:href="#DejaVuSans-Oblique-48" transform="translate(1460.891589 0.765625)"/>
      <use xlink:href="#DejaVuSans-Oblique-7a" transform="translate(1536.086901 0.765625)"/>
      <use xlink:href="#DejaVuSans-2212" transform="translate(1593.043281 39.046875) scale(0.7)"/>
      <use xlink:href="#DejaVuSans-31" transform="translate(1651.695625 39.046875) scale(0.7)"/>
      <use xlink:href="#DejaVuSans-29" transform="translate(1698.966133 0.765625)"/>
     </g>
    </g>
    <g id="text_21">
     <!-- 1e−13 -->
     <g transform="translate(44.142188 32.7555) scale(0.1 -0.1)">
      <defs>
       <path id="DejaVuSans-33" d="M 2597 2516 
Q 3050 2419 3304 2112 
Q 3559 1806 3559 1356 
Q 3559 666 3084 287 
Q 2609 -91 1734 -91 
Q 1441 -91 1130 -33 
Q 819 25 488 141 
L 488 750 
Q 750 597 1062 519 
Q 1375 441 1716 441 
Q 2309 441 2620 675 
Q 2931 909 2931 1356 
Q 2931 1769 2642 2001 
Q 2353 2234 1838 2234 
L 1294 2234 
L 1294 2753 
L 1863 2753 
Q 2328 2753 2575 2939 
Q 2822 3125 2822 3475 
Q 2822 3834 2567 4026 
Q 2313 4219 1838 4219 
Q 1578 4219 1281 4162 
Q 984 4106 628 3988 
L 628 4550 
Q 988 4650 1302 4700 
Q 1616 4750 1894 4750 
Q 2613 4750 3031 4423 
Q 3450 4097 3450 3541 
Q 3450 3153 3228 2886 
Q 3006 2619 2597 2516 
z
" transform="scale(0.015625)"/>
      </defs>
      <use xlink:href="#DejaVuSans-31"/>
      <use xlink:href="#DejaVuSans-65" transform="translate(63.623047 0)"/>
      <use xlink:href="#DejaVuSans-2212" transform="translate(125.146484 0)"/>
      <use xlink:href="#DejaVuSans-31" transform="translate(208.935547 0)"/>
      <use xlink:href="#DejaVuSans-33" transform="translate(272.558594 0)"/>
     </g>
    </g>
   </g>
   <g id="line2d_37">
    <path d="M 60.374915 174.453329 
L 62.546517 174.5237 
L 65.803921 174.853155 
L 66.889722 174.667021 
L 67.975523 175.231009 
L 69.061324 174.967969 
L 71.232926 176.179595 
L 72.318727 176.05421 
L 73.404529 176.481529 
L 74.49033 174.453318 
L 75.576131 177.309055 
L 76.661932 176.685225 
L 77.747733 177.84455 
L 78.833534 177.823115 
L 79.919336 177.117182 
L 81.005137 179.043341 
L 82.090938 180.725404 
L 83.176739 174.981473 
L 84.26254 180.681282 
L 86.434143 181.38747 
L 87.519944 183.799197 
L 88.605745 184.067377 
L 89.691546 176.972286 
L 90.777347 174.453316 
L 91.863148 184.490704 
L 92.948949 183.508161 
L 94.034751 174.466566 
L 95.120552 186.148899 
L 96.206353 174.453316 
L 97.292154 182.386939 
L 98.377955 186.725111 
L 99.463756 188.928726 
L 100.549558 186.969226 
L 101.635359 191.471307 
L 102.72116 190.031606 
L 103.806961 191.526214 
L 104.892762 192.773054 
L 105.978563 183.339239 
L 107.064364 192.129221 
L 108.150166 190.413664 
L 109.235967 174.453316 
L 110.321768 195.523094 
L 111.407569 194.303545 
L 112.49337 199.875987 
L 113.579171 199.339914 
L 114.664973 185.244653 
L 115.750774 200.750496 
L 116.836575 201.221131 
L 117.922376 201.943538 
L 119.008177 196.554367 
L 120.093978 200.175255 
L 121.179779 202.835699 
L 122.265581 196.104559 
L 123.351382 197.645384 
L 124.437183 207.628851 
L 125.522984 199.925949 
L 126.608785 189.246583 
L 127.694586 201.959815 
L 128.780388 205.401896 
L 129.866189 202.619168 
L 130.95199 199.505692 
L 132.037791 214.595309 
L 133.123592 193.971971 
L 134.209393 204.973406 
L 135.295194 197.141851 
L 136.380996 204.018642 
L 137.466797 197.741961 
L 138.552598 207.852516 
L 139.638399 190.290071 
L 140.7242 188.980528 
L 141.810001 209.570148 
L 142.895803 202.680608 
L 143.981604 202.857828 
L 145.067405 194.693347 
L 146.153206 196.823649 
L 147.239007 215.090218 
L 148.324808 198.932006 
L 149.41061 200.092471 
L 150.496411 194.449974 
L 151.582212 203.230763 
L 152.668013 210.147531 
L 153.753814 215.790735 
L 154.839615 222.21489 
L 155.925416 214.851273 
L 157.011218 264.921717 
L 158.097019 252.981559 
L 159.18282 175.172001 
L 160.268621 212.884306 
L 161.354422 232.800957 
L 162.440223 174.453316 
L 163.526025 177.177569 
L 164.611826 174.453316 
L 165.697627 174.526936 
L 167.869229 174.453316 
L 170.040831 174.453316 
L 171.126633 175.063144 
L 172.212434 187.528671 
L 173.298235 218.978597 
L 174.384036 266.880795 
L 175.469837 289.579233 
L 176.555638 264.274442 
L 177.64144 289.7715 
L 178.727241 255.404414 
L 179.813042 285.022475 
L 180.898843 220.219514 
L 181.984644 267.904132 
L 183.070445 185.816168 
L 184.156246 194.478495 
L 185.242048 186.892798 
L 186.327849 189.42174 
L 187.41365 180.281627 
L 188.499451 179.586695 
L 189.585252 188.379411 
L 190.671053 194.122783 
L 191.756855 175.188944 
L 192.842656 174.927865 
L 193.928457 176.033357 
L 195.014258 174.689587 
L 196.100059 174.598446 
L 197.18586 174.618973 
L 198.271662 177.799442 
L 199.357463 174.762812 
L 200.443264 174.67254 
L 201.529065 175.160707 
L 202.614866 174.717041 
L 203.700667 177.441292 
L 204.786468 178.44751 
L 205.87227 174.983079 
L 206.958071 174.545383 
L 208.043872 180.633495 
L 209.129673 174.575075 
L 210.215474 174.959455 
L 211.301275 174.687867 
L 212.387077 175.74889 
L 213.472878 174.939621 
L 214.558679 175.085409 
L 215.64448 174.768319 
L 216.730281 174.706391 
L 217.816082 179.295562 
L 218.901883 180.043398 
L 219.987685 174.914447 
L 221.073486 175.028943 
L 222.159287 174.509566 
L 223.245088 176.291814 
L 224.330889 176.128538 
L 225.41669 175.534823 
L 226.502492 174.527882 
L 227.588293 187.414349 
L 228.674094 176.359781 
L 229.759895 174.761923 
L 230.845696 177.81735 
L 231.931497 207.54853 
L 233.017298 175.077825 
L 234.1031 176.556836 
L 235.188901 187.195958 
L 236.274702 175.28327 
L 237.360503 177.909254 
L 238.446304 174.776791 
L 239.532105 174.889077 
L 240.617907 178.025407 
L 241.703708 178.287466 
L 242.789509 174.857819 
L 243.87531 174.932847 
L 244.961111 199.513073 
L 246.046912 174.755275 
L 247.132713 177.618541 
L 248.218515 174.725422 
L 249.304316 178.300208 
L 250.390117 176.94433 
L 251.475918 176.998354 
L 252.561719 177.360064 
L 253.64752 184.079874 
L 254.733322 195.020636 
L 255.819123 175.428538 
L 256.904924 202.346315 
L 257.990725 186.19806 
L 259.076526 196.067187 
L 260.162327 175.467847 
L 261.248129 179.675716 
L 262.33393 199.449314 
L 263.419731 196.203171 
L 264.505532 188.913061 
L 265.591333 192.204192 
L 266.677134 196.16126 
L 267.762935 180.618071 
L 268.848737 194.03845 
L 269.934538 192.155984 
L 271.020339 184.242013 
L 272.10614 196.155331 
L 273.191941 192.515495 
L 274.277742 190.729218 
L 275.363544 196.246653 
L 276.449345 188.693696 
L 277.535146 188.074123 
L 278.620947 193.838923 
L 279.706748 188.331282 
L 280.792549 189.19016 
L 281.87835 191.353245 
L 282.964152 188.201881 
L 284.049953 187.315348 
L 285.135754 190.04912 
L 286.221555 188.800026 
L 287.307356 184.588594 
L 288.393157 174.453969 
L 289.478959 184.25373 
L 290.56476 181.242642 
L 291.650561 186.394928 
L 292.736362 183.430237 
L 293.822163 183.070641 
L 294.907964 180.938038 
L 295.993765 181.157203 
L 297.079567 177.863993 
L 298.165368 178.206869 
L 299.251169 177.251383 
L 300.33697 183.277084 
L 301.422771 182.271468 
L 302.508572 180.500943 
L 303.594374 177.62519 
L 304.680175 177.046332 
L 305.765976 179.141485 
L 306.851777 179.744298 
L 307.937578 177.339135 
L 309.023379 179.329588 
L 310.109181 176.249944 
L 312.280783 178.41734 
L 313.366584 175.128609 
L 314.452385 178.633683 
L 315.538186 179.411533 
L 316.623987 179.568528 
L 317.709789 182.118096 
L 318.79559 180.054485 
L 319.881391 180.003658 
L 320.967192 180.767723 
L 322.052993 180.498069 
L 324.224596 178.487178 
L 325.310397 179.679352 
L 326.396198 178.397599 
L 327.481999 175.8346 
L 328.5678 174.453316 
L 329.653601 178.558394 
L 330.739402 179.014663 
L 331.825204 177.230347 
L 332.911005 178.258514 
L 333.996806 176.240211 
L 335.082607 177.702265 
L 336.168408 176.359103 
L 337.254209 176.637065 
L 338.340011 178.124491 
L 339.425812 176.370229 
L 340.511613 179.387951 
L 341.597414 177.170842 
L 342.683215 175.891198 
L 343.769016 177.059038 
L 344.854817 177.544467 
L 345.940619 178.411398 
L 347.02642 178.98164 
L 348.112221 174.453316 
L 349.198022 176.933275 
L 350.283823 177.926821 
L 351.369624 174.496012 
L 352.455426 175.46475 
L 353.541227 178.9541 
L 354.627028 177.759967 
L 355.712829 178.258861 
L 356.79863 176.566137 
L 357.884431 177.582562 
L 358.970232 177.924145 
L 360.056034 176.816636 
L 361.141835 178.316994 
L 362.227636 177.486173 
L 363.313437 175.314173 
L 364.399238 178.691546 
L 365.485039 177.646018 
L 366.570841 178.003946 
L 368.742443 178.032466 
L 369.828244 178.638083 
L 370.914045 177.902641 
L 371.999846 177.487319 
L 373.085648 178.195941 
L 374.171449 175.417414 
L 375.25725 177.546231 
L 376.343051 175.724669 
L 377.428852 177.508837 
L 378.514653 177.212771 
L 379.600454 176.037968 
L 380.686256 176.108184 
L 381.772057 175.455733 
L 382.857858 177.549679 
L 383.943659 175.431387 
L 385.02946 177.830698 
L 385.02946 177.830698 
" clip-path="url(#p839fa45ad4)" style="fill: none; stroke: #1f77b4; stroke-width: 0.7; stroke-linecap: square"/>
   </g>
   <g id="line2d_38">
    <path d="M 60.374915 174.453329 
L 65.803921 174.459867 
L 66.889722 174.306221 
L 67.975523 174.552072 
L 69.061324 174.133287 
L 70.147125 174.388374 
L 71.232926 174.935408 
L 72.318727 174.119135 
L 73.404529 174.391024 
L 75.576131 174.414895 
L 76.661932 172.843553 
L 77.747733 174.420826 
L 78.833534 173.081711 
L 79.919336 172.610603 
L 81.005137 173.515999 
L 82.090938 175.783258 
L 83.176739 174.084547 
L 84.26254 173.532054 
L 85.348341 173.69146 
L 86.434143 173.252775 
L 87.519944 176.510482 
L 88.605745 176.157346 
L 89.691546 172.64213 
L 90.777347 174.453316 
L 91.863148 175.427193 
L 92.948949 170.302426 
L 94.034751 174.44649 
L 95.120552 173.201887 
L 96.206353 174.453316 
L 97.292154 169.308011 
L 98.377955 170.05365 
L 99.463756 173.005482 
L 100.549558 169.293188 
L 101.635359 176.832288 
L 102.72116 171.042784 
L 103.806961 173.441682 
L 104.892762 175.219037 
L 105.978563 167.504188 
L 107.064364 172.174263 
L 108.150166 164.868492 
L 109.235967 174.453316 
L 110.321768 173.344237 
L 111.407569 173.652383 
L 112.49337 178.594096 
L 113.579171 180.295682 
L 114.664973 166.487817 
L 115.750774 177.056593 
L 116.836575 179.492173 
L 117.922376 179.742608 
L 119.008177 162.252037 
L 120.093978 169.0982 
L 121.179779 182.62906 
L 122.265581 155.647284 
L 123.351382 156.18089 
L 124.437183 180.699919 
L 125.522984 163.641735 
L 126.608785 124.628919 
L 127.694586 162.057172 
L 128.780388 172.367171 
L 129.866189 167.330515 
L 130.95199 158.956378 
L 132.037791 187.133532 
L 133.123592 133.282844 
L 134.209393 163.297065 
L 135.295194 141.270569 
L 136.380996 162.939028 
L 137.466797 134.807277 
L 138.552598 154.305417 
L 139.638399 103.145798 
L 140.7242 98.128606 
L 141.810001 178.559432 
L 142.895803 137.324563 
L 143.981604 149.338964 
L 145.067405 114.758431 
L 146.153206 117.48287 
L 147.239007 164.911798 
L 148.324808 110.224815 
L 149.41061 131.133732 
L 150.496411 94.037984 
L 151.582212 117.155352 
L 152.668013 173.797149 
L 153.753814 181.143271 
L 154.839615 149.521047 
L 155.925416 126.744652 
L 157.011218 166.414457 
L 158.097019 143.4619 
L 159.18282 174.008419 
L 160.268621 149.459838 
L 161.354422 143.708063 
L 162.440223 174.453316 
L 163.526025 172.336089 
L 164.611826 174.453316 
L 166.783428 174.450337 
L 170.040831 174.453316 
L 171.126633 174.048534 
L 172.212434 163.842186 
L 173.298235 137.277804 
L 174.384036 176.132638 
L 175.469837 189.590796 
L 176.555638 185.17715 
L 177.64144 190.516295 
L 178.727241 147.160098 
L 179.813042 193.859678 
L 180.898843 107.239052 
L 181.984644 184.853994 
L 183.070445 47.8515 
L 184.156246 62.076949 
L 185.242048 79.7093 
L 186.327849 85.929668 
L 187.41365 60.839232 
L 188.499451 53.622673 
L 189.585252 82.976954 
L 190.671053 102.887212 
L 191.756855 48.744453 
L 192.842656 48.575578 
L 193.928457 50.329626 
L 195.014258 48.573551 
L 196.100059 48.806164 
L 197.18586 49.229229 
L 198.271662 58.623332 
L 199.357463 50.62614 
L 200.443264 50.701136 
L 201.529065 72.724988 
L 202.614866 72.25552 
L 203.700667 78.691703 
L 204.786468 81.886754 
L 205.87227 73.865991 
L 206.958071 73.755839 
L 208.043872 70.989205 
L 209.129673 74.875434 
L 210.215474 76.228026 
L 211.301275 76.141015 
L 212.387077 78.294974 
L 213.472878 77.775483 
L 214.558679 78.582416 
L 215.64448 78.678873 
L 216.730281 79.187243 
L 217.816082 86.786722 
L 218.901883 88.991632 
L 219.987685 81.679532 
L 221.073486 82.635633 
L 222.159287 82.290268 
L 223.245088 86.556103 
L 224.330889 87.626847 
L 225.41669 86.825004 
L 226.502492 85.178071 
L 227.588293 112.077073 
L 228.674094 89.349821 
L 229.759895 87.768511 
L 230.845696 93.224776 
L 231.931497 114.966587 
L 233.017298 90.831932 
L 234.1031 93.417953 
L 235.188901 108.522848 
L 236.274702 93.347348 
L 237.360503 100.718864 
L 238.446304 94.180496 
L 239.532105 95.280575 
L 240.617907 102.535983 
L 241.703708 105.135823 
L 242.789509 97.619582 
L 243.87531 113.294328 
L 244.961111 153.365492 
L 246.046912 114.29159 
L 247.132713 106.943489 
L 248.218515 115.511333 
L 249.304316 109.461182 
L 250.390117 107.820922 
L 251.475918 121.266458 
L 252.561719 110.487555 
L 253.64752 123.646638 
L 254.733322 147.160874 
L 255.819123 121.213118 
L 256.904924 170.199886 
L 257.990725 132.804423 
L 259.076526 154.299438 
L 260.162327 123.825202 
L 261.248129 120.179383 
L 262.33393 169.922387 
L 263.419731 150.687587 
L 264.505532 143.27554 
L 265.591333 141.527075 
L 266.677134 173.016599 
L 267.762935 128.052205 
L 268.848737 155.069518 
L 269.934538 157.514326 
L 271.020339 138.657008 
L 272.10614 150.661283 
L 273.191941 161.047127 
L 274.277742 170.020123 
L 275.363544 165.700214 
L 276.449345 150.046664 
L 277.535146 173.843548 
L 278.620947 166.654749 
L 279.706748 163.38667 
L 280.792549 171.295543 
L 281.87835 173.810724 
L 282.964152 169.019715 
L 284.049953 172.944398 
L 285.135754 172.467352 
L 286.221555 172.519485 
L 287.307356 174.014558 
L 288.393157 174.452816 
L 289.478959 172.456839 
L 290.56476 172.193686 
L 291.650561 174.674011 
L 292.736362 170.667508 
L 293.822163 172.665996 
L 294.907964 173.879157 
L 295.993765 172.085106 
L 297.079567 173.578376 
L 298.165368 174.530944 
L 299.251169 173.556181 
L 300.33697 171.079699 
L 301.422771 171.304006 
L 302.508572 171.859308 
L 303.594374 174.158353 
L 304.680175 173.884383 
L 305.765976 174.185509 
L 306.851777 173.371123 
L 307.937578 174.604553 
L 309.023379 173.3851 
L 310.109181 173.36279 
L 311.194982 174.353638 
L 312.280783 172.718988 
L 313.366584 173.980448 
L 314.452385 173.850075 
L 315.538186 172.49748 
L 316.623987 173.200283 
L 317.709789 168.336199 
L 318.79559 170.116853 
L 319.881391 162.645079 
L 320.967192 169.577269 
L 322.052993 174.490678 
L 323.138794 174.807045 
L 324.224596 174.435673 
L 325.310397 174.296103 
L 326.396198 173.17742 
L 327.481999 173.989272 
L 328.5678 174.453316 
L 329.653601 172.60259 
L 330.739402 173.953858 
L 332.911005 174.745081 
L 333.996806 173.747074 
L 335.082607 173.399992 
L 336.168408 174.352331 
L 337.254209 174.320229 
L 338.340011 174.442219 
L 339.425812 174.1161 
L 340.511613 173.568399 
L 341.597414 174.743451 
L 342.683215 174.01469 
L 343.769016 174.742662 
L 345.940619 174.159585 
L 348.112221 174.453316 
L 349.198022 173.359858 
L 350.283823 172.678033 
L 351.369624 174.42656 
L 352.455426 174.284762 
L 353.541227 173.184731 
L 354.627028 173.429114 
L 355.712829 169.87198 
L 356.79863 173.502642 
L 357.884431 172.925676 
L 358.970232 172.774472 
L 360.056034 173.645947 
L 361.141835 171.657912 
L 362.227636 173.817501 
L 363.313437 174.295013 
L 365.485039 173.369182 
L 366.570841 172.442219 
L 367.656642 173.004458 
L 368.742443 169.716214 
L 369.828244 173.456211 
L 370.914045 171.944076 
L 371.999846 174.602416 
L 373.085648 172.231832 
L 374.171449 174.182509 
L 375.25725 172.289001 
L 376.343051 174.235753 
L 377.428852 170.644203 
L 378.514653 170.129533 
L 379.600454 173.702528 
L 380.686256 169.19797 
L 381.772057 168.241208 
L 382.857858 172.510692 
L 383.943659 174.025197 
L 385.02946 172.850314 
L 385.02946 172.850314 
" clip-path="url(#p839fa45ad4)" style="fill: none; stroke: #ff7f0e; stroke-width: 0.7; stroke-linecap: square"/>
   </g>
   <g id="patch_3">
    <path d="M 44.142188 301.8675 
L 44.142188 35.7555 
" style="fill: none; stroke: #000000; stroke-width: 0.8; stroke-linejoin: miter; stroke-linecap: square"/>
   </g>
   <g id="patch_4">
    <path d="M 401.262187 301.8675 
L 401.262187 35.7555 
" style="fill: none; stroke: #000000; stroke-width: 0.8; stroke-linejoin: miter; stroke-linecap: square"/>
   </g>
   <g id="patch_5">
    <path d="M 44.142188 301.8675 
L 401.262188 301.8675 
" style="fill: none; stroke: #000000; stroke-width: 0.8; stroke-linejoin: miter; stroke-linecap: square"/>
   </g>
   <g id="patch_6">
    <path d="M 44.142188 35.7555 
L 401.262188 35.7555 
" style="fill: none; stroke: #000000; stroke-width: 0.8; stroke-linejoin: miter; stroke-linecap: square"/>
   </g>
   <g id="text_22">
    <!-- OLR at TOA minus OLR at emission height for  -->
    <g transform="translate(84.4125 16.318125) scale(0.12 -0.12)">
     <defs>
      <path id="DejaVuSans-4f" d="M 2522 4238 
Q 1834 4238 1429 3725 
Q 1025 3213 1025 2328 
Q 1025 1447 1429 934 
Q 1834 422 2522 422 
Q 3209 422 3611 934 
Q 4013 1447 4013 2328 
Q 4013 3213 3611 3725 
Q 3209 4238 2522 4238 
z
M 2522 4750 
Q 3503 4750 4090 4092 
Q 4678 3434 4678 2328 
Q 4678 1225 4090 567 
Q 3503 -91 2522 -91 
Q 1538 -91 948 565 
Q 359 1222 359 2328 
Q 359 3434 948 4092 
Q 1538 4750 2522 4750 
z
" transform="scale(0.015625)"/>
      <path id="DejaVuSans-4c" d="M 628 4666 
L 1259 4666 
L 1259 531 
L 3531 531 
L 3531 0 
L 628 0 
L 628 4666 
z
" transform="scale(0.015625)"/>
      <path id="DejaVuSans-52" d="M 2841 2188 
Q 3044 2119 3236 1894 
Q 3428 1669 3622 1275 
L 4263 0 
L 3584 0 
L 2988 1197 
Q 2756 1666 2539 1819 
Q 2322 1972 1947 1972 
L 1259 1972 
L 1259 0 
L 628 0 
L 628 4666 
L 2053 4666 
Q 2853 4666 3247 4331 
Q 3641 3997 3641 3322 
Q 3641 2881 3436 2590 
Q 3231 2300 2841 2188 
z
M 1259 4147 
L 1259 2491 
L 2053 2491 
Q 2509 2491 2742 2702 
Q 2975 2913 2975 3322 
Q 2975 3731 2742 3939 
Q 2509 4147 2053 4147 
L 1259 4147 
z
" transform="scale(0.015625)"/>
      <path id="DejaVuSans-54" d="M -19 4666 
L 3928 4666 
L 3928 4134 
L 2272 4134 
L 2272 0 
L 1638 0 
L 1638 4134 
L -19 4134 
L -19 4666 
z
" transform="scale(0.015625)"/>
      <path id="DejaVuSans-41" d="M 2188 4044 
L 1331 1722 
L 3047 1722 
L 2188 4044 
z
M 1831 4666 
L 2547 4666 
L 4325 0 
L 3669 0 
L 3244 1197 
L 1141 1197 
L 716 0 
L 50 0 
L 1831 4666 
z
" transform="scale(0.015625)"/>
      <path id="DejaVuSans-6f" d="M 1959 3097 
Q 1497 3097 1228 2736 
Q 959 2375 959 1747 
Q 959 1119 1226 758 
Q 1494 397 1959 397 
Q 2419 397 2687 759 
Q 2956 1122 2956 1747 
Q 2956 2369 2687 2733 
Q 2419 3097 1959 3097 
z
M 1959 3584 
Q 2709 3584 3137 3096 
Q 3566 2609 3566 1747 
Q 3566 888 3137 398 
Q 2709 -91 1959 -91 
Q 1206 -91 779 398 
Q 353 888 353 1747 
Q 353 2609 779 3096 
Q 1206 3584 1959 3584 
z
" transform="scale(0.015625)"/>
      <path id="DejaVuSans-68" d="M 3513 2113 
L 3513 0 
L 2938 0 
L 2938 2094 
Q 2938 2591 2744 2837 
Q 2550 3084 2163 3084 
Q 1697 3084 1428 2787 
Q 1159 2491 1159 1978 
L 1159 0 
L 581 0 
L 581 4863 
L 1159 4863 
L 1159 2956 
Q 1366 3272 1645 3428 
Q 1925 3584 2291 3584 
Q 2894 3584 3203 3211 
Q 3513 2838 3513 2113 
z
" transform="scale(0.015625)"/>
      <path id="DejaVuSans-67" d="M 2906 1791 
Q 2906 2416 2648 2759 
Q 2391 3103 1925 3103 
Q 1463 3103 1205 2759 
Q 947 2416 947 1791 
Q 947 1169 1205 825 
Q 1463 481 1925 481 
Q 2391 481 2648 825 
Q 2906 1169 2906 1791 
z
M 3481 434 
Q 3481 -459 3084 -895 
Q 2688 -1331 1869 -1331 
Q 1566 -1331 1297 -1286 
Q 1028 -1241 775 -1147 
L 775 -588 
Q 1028 -725 1275 -790 
Q 1522 -856 1778 -856 
Q 2344 -856 2625 -561 
Q 2906 -266 2906 331 
L 2906 616 
Q 2728 306 2450 153 
Q 2172 0 1784 0 
Q 1141 0 747 490 
Q 353 981 353 1791 
Q 353 2603 747 3093 
Q 1141 3584 1784 3584 
Q 2172 3584 2450 3431 
Q 2728 3278 2906 2969 
L 2906 3500 
L 3481 3500 
L 3481 434 
z
" transform="scale(0.015625)"/>
      <path id="DejaVuSans-66" d="M 2375 4863 
L 2375 4384 
L 1825 4384 
Q 1516 4384 1395 4259 
Q 1275 4134 1275 3809 
L 1275 3500 
L 2222 3500 
L 2222 3053 
L 1275 3053 
L 1275 0 
L 697 0 
L 697 3053 
L 147 3053 
L 147 3500 
L 697 3500 
L 697 3744 
Q 697 4328 969 4595 
Q 1241 4863 1831 4863 
L 2375 4863 
z
" transform="scale(0.015625)"/>
     </defs>
     <use xlink:href="#DejaVuSans-4f"/>
     <use xlink:href="#DejaVuSans-4c" transform="translate(78.710938 0)"/>
     <use xlink:href="#DejaVuSans-52" transform="translate(134.423828 0)"/>
     <use xlink:href="#DejaVuSans-20" transform="translate(203.90625 0)"/>
     <use xlink:href="#DejaVuSans-61" transform="translate(235.693359 0)"/>
     <use xlink:href="#DejaVuSans-74" transform="translate(296.972656 0)"/>
     <use xlink:href="#DejaVuSans-20" transform="translate(336.181641 0)"/>
     <use xlink:href="#DejaVuSans-54" transform="translate(367.96875 0)"/>
     <use xlink:href="#DejaVuSans-4f" transform="translate(429.052734 0)"/>
     <use xlink:href="#DejaVuSans-41" transform="translate(506.013672 0)"/>
     <use xlink:href="#DejaVuSans-20" transform="translate(574.421875 0)"/>
     <use xlink:href="#DejaVuSans-6d" transform="translate(606.208984 0)"/>
     <use xlink:href="#DejaVuSans-69" transform="translate(703.621094 0)"/>
     <use xlink:href="#DejaVuSans-6e" transform="translate(731.404297 0)"/>
     <use xlink:href="#DejaVuSans-75" transform="translate(794.783203 0)"/>
     <use xlink:href="#DejaVuSans-73" transform="translate(858.162109 0)"/>
     <use xlink:href="#DejaVuSans-20" transform="translate(910.261719 0)"/>
     <use xlink:href="#DejaVuSans-4f" transform="translate(942.048828 0)"/>
     <use xlink:href="#DejaVuSans-4c" transform="translate(1020.759766 0)"/>
     <use xlink:href="#DejaVuSans-52" transform="translate(1076.472656 0)"/>
     <use xlink:href="#DejaVuSans-20" transform="translate(1145.955078 0)"/>
     <use xlink:href="#DejaVuSans-61" transform="translate(1177.742188 0)"/>
     <use xlink:href="#DejaVuSans-74" transform="translate(1239.021484 0)"/>
     <use xlink:href="#DejaVuSans-20" transform="translate(1278.230469 0)"/>
     <use xlink:href="#DejaVuSans-65" transform="translate(1310.017578 0)"/>
     <use xlink:href="#DejaVuSans-6d" transform="translate(1371.541016 0)"/>
     <use xlink:href="#DejaVuSans-69" transform="translate(1468.953125 0)"/>
     <use xlink:href="#DejaVuSans-73" transform="translate(1496.736328 0)"/>
     <use xlink:href="#DejaVuSans-73" transform="translate(1548.835938 0)"/>
     <use xlink:href="#DejaVuSans-69" transform="translate(1600.935547 0)"/>
     <use xlink:href="#DejaVuSans-6f" transform="translate(1628.71875 0)"/>
     <use xlink:href="#DejaVuSans-6e" transform="translate(1689.900391 0)"/>
     <use xlink:href="#DejaVuSans-20" transform="translate(1753.279297 0)"/>
     <use xlink:href="#DejaVuSans-68" transform="translate(1785.066406 0)"/>
     <use xlink:href="#DejaVuSans-65" transform="translate(1848.445312 0)"/>
     <use xlink:href="#DejaVuSans-69" transform="translate(1909.96875 0)"/>
     <use xlink:href="#DejaVuSans-67" transform="translate(1937.751953 0)"/>
     <use xlink:href="#DejaVuSans-68" transform="translate(2001.228516 0)"/>
     <use xlink:href="#DejaVuSans-74" transform="translate(2064.607422 0)"/>
     <use xlink:href="#DejaVuSans-20" transform="translate(2103.816406 0)"/>
     <use xlink:href="#DejaVuSans-66" transform="translate(2135.603516 0)"/>
     <use xlink:href="#DejaVuSans-6f" transform="translate(2170.808594 0)"/>
     <use xlink:href="#DejaVuSans-72" transform="translate(2231.990234 0)"/>
     <use xlink:href="#DejaVuSans-20" transform="translate(2273.103516 0)"/>
    </g>
    <!--  (H2O_CO2) -->
    <g transform="translate(187.330313 29.7555) scale(0.12 -0.12)">
     <defs>
      <path id="DejaVuSans-48" d="M 628 4666 
L 1259 4666 
L 1259 2753 
L 3553 2753 
L 3553 4666 
L 4184 4666 
L 4184 0 
L 3553 0 
L 3553 2222 
L 1259 2222 
L 1259 0 
L 628 0 
L 628 4666 
z
" transform="scale(0.015625)"/>
      <path id="DejaVuSans-5f" d="M 3263 -1063 
L 3263 -1509 
L -63 -1509 
L -63 -1063 
L 3263 -1063 
z
" transform="scale(0.015625)"/>
      <path id="DejaVuSans-43" d="M 4122 4306 
L 4122 3641 
Q 3803 3938 3442 4084 
Q 3081 4231 2675 4231 
Q 1875 4231 1450 3742 
Q 1025 3253 1025 2328 
Q 1025 1406 1450 917 
Q 1875 428 2675 428 
Q 3081 428 3442 575 
Q 3803 722 4122 1019 
L 4122 359 
Q 3791 134 3420 21 
Q 3050 -91 2638 -91 
Q 1578 -91 968 557 
Q 359 1206 359 2328 
Q 359 3453 968 4101 
Q 1578 4750 2638 4750 
Q 3056 4750 3426 4639 
Q 3797 4528 4122 4306 
z
" transform="scale(0.015625)"/>
     </defs>
     <use xlink:href="#DejaVuSans-20"/>
     <use xlink:href="#DejaVuSans-28" transform="translate(31.787109 0)"/>
     <use xlink:href="#DejaVuSans-48" transform="translate(70.800781 0)"/>
     <use xlink:href="#DejaVuSans-32" transform="translate(145.996094 0)"/>
     <use xlink:href="#DejaVuSans-4f" transform="translate(209.619141 0)"/>
     <use xlink:href="#DejaVuSans-5f" transform="translate(288.330078 0)"/>
     <use xlink:href="#DejaVuSans-43" transform="translate(338.330078 0)"/>
     <use xlink:href="#DejaVuSans-4f" transform="translate(408.154297 0)"/>
     <use xlink:href="#DejaVuSans-32" transform="translate(486.865234 0)"/>
     <use xlink:href="#DejaVuSans-29" transform="translate(550.488281 0)"/>
    </g>
   </g>
   <g id="legend_1">
    <g id="patch_7">
     <path d="M 262.955938 296.8675 
L 394.262187 296.8675 
Q 396.262187 296.8675 396.262187 294.8675 
L 396.262187 266.51125 
Q 396.262187 264.51125 394.262187 264.51125 
L 262.955938 264.51125 
Q 260.955938 264.51125 260.955938 266.51125 
L 260.955938 294.8675 
Q 260.955938 296.8675 262.955938 296.8675 
z
" style="fill: #ffffff; opacity: 0.8; stroke: #cccccc; stroke-linejoin: miter"/>
    </g>
    <g id="line2d_39">
     <path d="M 264.955938 272.609687 
L 274.955938 272.609687 
L 284.955938 272.609687 
" style="fill: none; stroke: #1f77b4; stroke-width: 0.7; stroke-linecap: square"/>
    </g>
    <g id="text_23">
     <!-- difference to ARTS -->
     <g transform="translate(292.955938 276.109687) scale(0.1 -0.1)">
      <use xlink:href="#DejaVuSans-64"/>
      <use xlink:href="#DejaVuSans-69" transform="translate(63.476562 0)"/>
      <use xlink:href="#DejaVuSans-66" transform="translate(91.259766 0)"/>
      <use xlink:href="#DejaVuSans-66" transform="translate(126.464844 0)"/>
      <use xlink:href="#DejaVuSans-65" transform="translate(161.669922 0)"/>
      <use xlink:href="#DejaVuSans-72" transform="translate(223.193359 0)"/>
      <use xlink:href="#DejaVuSans-65" transform="translate(262.056641 0)"/>
      <use xlink:href="#DejaVuSans-6e" transform="translate(323.580078 0)"/>
      <use xlink:href="#DejaVuSans-63" transform="translate(386.958984 0)"/>
      <use xlink:href="#DejaVuSans-65" transform="translate(441.939453 0)"/>
      <use xlink:href="#DejaVuSans-20" transform="translate(503.462891 0)"/>
      <use xlink:href="#DejaVuSans-74" transform="translate(535.25 0)"/>
      <use xlink:href="#DejaVuSans-6f" transform="translate(574.458984 0)"/>
      <use xlink:href="#DejaVuSans-20" transform="translate(635.640625 0)"/>
      <use xlink:href="#DejaVuSans-41" transform="translate(667.427734 0)"/>
      <use xlink:href="#DejaVuSans-52" transform="translate(735.835938 0)"/>
      <use xlink:href="#DejaVuSans-54" transform="translate(798.068359 0)"/>
      <use xlink:href="#DejaVuSans-53" transform="translate(859.152344 0)"/>
     </g>
    </g>
    <g id="line2d_40">
     <path d="M 264.955938 287.287812 
L 274.955938 287.287812 
L 284.955938 287.287812 
" style="fill: none; stroke: #ff7f0e; stroke-width: 0.7; stroke-linecap: square"/>
    </g>
    <g id="text_24">
     <!-- difference to Planck -->
     <g transform="translate(292.955938 290.787812) scale(0.1 -0.1)">
      <defs>
       <path id="DejaVuSans-50" d="M 1259 4147 
L 1259 2394 
L 2053 2394 
Q 2494 2394 2734 2622 
Q 2975 2850 2975 3272 
Q 2975 3691 2734 3919 
Q 2494 4147 2053 4147 
L 1259 4147 
z
M 628 4666 
L 2053 4666 
Q 2838 4666 3239 4311 
Q 3641 3956 3641 3272 
Q 3641 2581 3239 2228 
Q 2838 1875 2053 1875 
L 1259 1875 
L 1259 0 
L 628 0 
L 628 4666 
z
" transform="scale(0.015625)"/>
       <path id="DejaVuSans-6b" d="M 581 4863 
L 1159 4863 
L 1159 1991 
L 2875 3500 
L 3609 3500 
L 1753 1863 
L 3688 0 
L 2938 0 
L 1159 1709 
L 1159 0 
L 581 0 
L 581 4863 
z
" transform="scale(0.015625)"/>
      </defs>
      <use xlink:href="#DejaVuSans-64"/>
      <use xlink:href="#DejaVuSans-69" transform="translate(63.476562 0)"/>
      <use xlink:href="#DejaVuSans-66" transform="translate(91.259766 0)"/>
      <use xlink:href="#DejaVuSans-66" transform="translate(126.464844 0)"/>
      <use xlink:href="#DejaVuSans-65" transform="translate(161.669922 0)"/>
      <use xlink:href="#DejaVuSans-72" transform="translate(223.193359 0)"/>
      <use xlink:href="#DejaVuSans-65" transform="translate(262.056641 0)"/>
      <use xlink:href="#DejaVuSans-6e" transform="translate(323.580078 0)"/>
      <use xlink:href="#DejaVuSans-63" transform="translate(386.958984 0)"/>
      <use xlink:href="#DejaVuSans-65" transform="translate(441.939453 0)"/>
      <use xlink:href="#DejaVuSans-20" transform="translate(503.462891 0)"/>
      <use xlink:href="#DejaVuSans-74" transform="translate(535.25 0)"/>
      <use xlink:href="#DejaVuSans-6f" transform="translate(574.458984 0)"/>
      <use xlink:href="#DejaVuSans-20" transform="translate(635.640625 0)"/>
      <use xlink:href="#DejaVuSans-50" transform="translate(667.427734 0)"/>
      <use xlink:href="#DejaVuSans-6c" transform="translate(727.730469 0)"/>
      <use xlink:href="#DejaVuSans-61" transform="translate(755.513672 0)"/>
      <use xlink:href="#DejaVuSans-6e" transform="translate(816.792969 0)"/>
      <use xlink:href="#DejaVuSans-63" transform="translate(880.171875 0)"/>
      <use xlink:href="#DejaVuSans-6b" transform="translate(935.152344 0)"/>
     </g>
    </g>
   </g>
  </g>
 </g>
 <defs>
  <clipPath id="p839fa45ad4">
   <rect x="44.142188" y="35.7555" width="357.12" height="266.112"/>
  </clipPath>
 </defs>
</svg>
