<?xml version="1.0" encoding="utf-8" standalone="no"?>
<!DOCTYPE svg PUBLIC "-//W3C//DTD SVG 1.1//EN"
  "http://www.w3.org/Graphics/SVG/1.1/DTD/svg11.dtd">
<svg xmlns:xlink="http://www.w3.org/1999/xlink" width="409.623125pt" height="327.40825pt" viewBox="0 0 409.623125 327.40825" xmlns="http://www.w3.org/2000/svg" version="1.1">
 <metadata>
  <rdf:RDF xmlns:dc="http://purl.org/dc/elements/1.1/" xmlns:cc="http://creativecommons.org/ns#" xmlns:rdf="http://www.w3.org/1999/02/22-rdf-syntax-ns#">
   <cc:Work>
    <dc:type rdf:resource="http://purl.org/dc/dcmitype/StillImage"/>
    <dc:date>2026-01-22T22:10:09.795032</dc:date>
    <dc:format>image/svg+xml</dc:format>
    <dc:creator>
     <cc:Agent>
      <dc:title>Matplotlib v3.10.6, https://matplotlib.org/</dc:title>
     </cc:Agent>
    </dc:creator>
   </cc:Work>
  </rdf:RDF>
 </metadata>
 <defs>
  <style type="text/css">*{stroke-linejoin: round; stroke-linecap: butt}</style>
 </defs>
 <g id="figure_1">
  <g id="patch_1">
   <path d="M 0 327.40825 
L 409.623125 327.40825 
L 409.623125 0 
L 0 0 
z
" style="fill: #ffffff"/>
  </g>
  <g id="axes_1">
   <g id="patch_2">
    <path d="M 45.303125 288.430125 
L 402.423125 288.430125 
L 402.423125 22.318125 
L 45.303125 22.318125 
z
" style="fill: #ffffff"/>
   </g>
   <g id="matplotlib.axis_1">
    <g id="xtick_1">
     <g id="line2d_1">
      <path d="M 61.373444 288.430125 
L 61.373444 22.318125 
" clip-path="url(#p884f6be48a)" style="fill: none; stroke: #808080; stroke-width: 0.3; stroke-linecap: square"/>
     </g>
     <g id="line2d_2">
      <defs>
       <path id="m6f55159344" d="M 0 0 
L 0 3.5 
" style="stroke: #000000; stroke-width: 0.8"/>
      </defs>
      <g>
       <use xlink:href="#m6f55159344" x="61.373444" y="288.430125" style="stroke: #000000; stroke-width: 0.8"/>
      </g>
     </g>
     <g id="text_1">
      <!-- 0 -->
      <g transform="translate(58.192194 303.028562) scale(0.1 -0.1)">
       <defs>
        <path id="DejaVuSans-30" d="M 2034 4250 
Q 1547 4250 1301 3770 
Q 1056 3291 1056 2328 
Q 1056 1369 1301 889 
Q 1547 409 2034 409 
Q 2525 409 2770 889 
Q 3016 1369 3016 2328 
Q 3016 3291 2770 3770 
Q 2525 4250 2034 4250 
z
M 2034 4750 
Q 2819 4750 3233 4129 
Q 3647 3509 3647 2328 
Q 3647 1150 3233 529 
Q 2819 -91 2034 -91 
Q 1250 -91 836 529 
Q 422 1150 422 2328 
Q 422 3509 836 4129 
Q 1250 4750 2034 4750 
z
" transform="scale(0.015625)"/>
       </defs>
       <use xlink:href="#DejaVuSans-30"/>
      </g>
     </g>
    </g>
    <g id="xtick_2">
     <g id="line2d_3">
      <path d="M 101.975563 288.430125 
L 101.975563 22.318125 
" clip-path="url(#p884f6be48a)" style="fill: none; stroke: #808080; stroke-width: 0.3; stroke-linecap: square"/>
     </g>
     <g id="line2d_4">
      <g>
       <use xlink:href="#m6f55159344" x="101.975563" y="288.430125" style="stroke: #000000; stroke-width: 0.8"/>
      </g>
     </g>
     <g id="text_2">
      <!-- 250 -->
      <g transform="translate(92.431813 303.028562) scale(0.1 -0.1)">
       <defs>
        <path id="DejaVuSans-32" d="M 1228 531 
L 3431 531 
L 3431 0 
L 469 0 
L 469 531 
Q 828 903 1448 1529 
Q 2069 2156 2228 2338 
Q 2531 2678 2651 2914 
Q 2772 3150 2772 3378 
Q 2772 3750 2511 3984 
Q 2250 4219 1831 4219 
Q 1534 4219 1204 4116 
Q 875 4013 500 3803 
L 500 4441 
Q 881 4594 1212 4672 
Q 1544 4750 1819 4750 
Q 2544 4750 2975 4387 
Q 3406 4025 3406 3419 
Q 3406 3131 3298 2873 
Q 3191 2616 2906 2266 
Q 2828 2175 2409 1742 
Q 1991 1309 1228 531 
z
" transform="scale(0.015625)"/>
        <path id="DejaVuSans-35" d="M 691 4666 
L 3169 4666 
L 3169 4134 
L 1269 4134 
L 1269 2991 
Q 1406 3038 1543 3061 
Q 1681 3084 1819 3084 
Q 2600 3084 3056 2656 
Q 3513 2228 3513 1497 
Q 3513 744 3044 326 
Q 2575 -91 1722 -91 
Q 1428 -91 1123 -41 
Q 819 9 494 109 
L 494 744 
Q 775 591 1075 516 
Q 1375 441 1709 441 
Q 2250 441 2565 725 
Q 2881 1009 2881 1497 
Q 2881 1984 2565 2268 
Q 2250 2553 1709 2553 
Q 1456 2553 1204 2497 
Q 953 2441 691 2322 
L 691 4666 
z
" transform="scale(0.015625)"/>
       </defs>
       <use xlink:href="#DejaVuSans-32"/>
       <use xlink:href="#DejaVuSans-35" transform="translate(63.623047 0)"/>
       <use xlink:href="#DejaVuSans-30" transform="translate(127.246094 0)"/>
      </g>
     </g>
    </g>
    <g id="xtick_3">
     <g id="line2d_5">
      <path d="M 142.577682 288.430125 
L 142.577682 22.318125 
" clip-path="url(#p884f6be48a)" style="fill: none; stroke: #808080; stroke-width: 0.3; stroke-linecap: square"/>
     </g>
     <g id="line2d_6">
      <g>
       <use xlink:href="#m6f55159344" x="142.577682" y="288.430125" style="stroke: #000000; stroke-width: 0.8"/>
      </g>
     </g>
     <g id="text_3">
      <!-- 500 -->
      <g transform="translate(133.033932 303.028562) scale(0.1 -0.1)">
       <use xlink:href="#DejaVuSans-35"/>
       <use xlink:href="#DejaVuSans-30" transform="translate(63.623047 0)"/>
       <use xlink:href="#DejaVuSans-30" transform="translate(127.246094 0)"/>
      </g>
     </g>
    </g>
    <g id="xtick_4">
     <g id="line2d_7">
      <path d="M 183.179802 288.430125 
L 183.179802 22.318125 
" clip-path="url(#p884f6be48a)" style="fill: none; stroke: #808080; stroke-width: 0.3; stroke-linecap: square"/>
     </g>
     <g id="line2d_8">
      <g>
       <use xlink:href="#m6f55159344" x="183.179802" y="288.430125" style="stroke: #000000; stroke-width: 0.8"/>
      </g>
     </g>
     <g id="text_4">
      <!-- 750 -->
      <g transform="translate(173.636052 303.028562) scale(0.1 -0.1)">
       <defs>
        <path id="DejaVuSans-37" d="M 525 4666 
L 3525 4666 
L 3525 4397 
L 1831 0 
L 1172 0 
L 2766 4134 
L 525 4134 
L 525 4666 
z
" transform="scale(0.015625)"/>
       </defs>
       <use xlink:href="#DejaVuSans-37"/>
       <use xlink:href="#DejaVuSans-35" transform="translate(63.623047 0)"/>
       <use xlink:href="#DejaVuSans-30" transform="translate(127.246094 0)"/>
      </g>
     </g>
    </g>
    <g id="xtick_5">
     <g id="line2d_9">
      <path d="M 223.781921 288.430125 
L 223.781921 22.318125 
" clip-path="url(#p884f6be48a)" style="fill: none; stroke: #808080; stroke-width: 0.3; stroke-linecap: square"/>
     </g>
     <g id="line2d_10">
      <g>
       <use xlink:href="#m6f55159344" x="223.781921" y="288.430125" style="stroke: #000000; stroke-width: 0.8"/>
      </g>
     </g>
     <g id="text_5">
      <!-- 1000 -->
      <g transform="translate(211.056921 303.028562) scale(0.1 -0.1)">
       <defs>
        <path id="DejaVuSans-31" d="M 794 531 
L 1825 531 
L 1825 4091 
L 703 3866 
L 703 4441 
L 1819 4666 
L 2450 4666 
L 2450 531 
L 3481 531 
L 3481 0 
L 794 0 
L 794 531 
z
" transform="scale(0.015625)"/>
       </defs>
       <use xlink:href="#DejaVuSans-31"/>
       <use xlink:href="#DejaVuSans-30" transform="translate(63.623047 0)"/>
       <use xlink:href="#DejaVuSans-30" transform="translate(127.246094 0)"/>
       <use xlink:href="#DejaVuSans-30" transform="translate(190.869141 0)"/>
      </g>
     </g>
    </g>
    <g id="xtick_6">
     <g id="line2d_11">
      <path d="M 264.38404 288.430125 
L 264.38404 22.318125 
" clip-path="url(#p884f6be48a)" style="fill: none; stroke: #808080; stroke-width: 0.3; stroke-linecap: square"/>
     </g>
     <g id="line2d_12">
      <g>
       <use xlink:href="#m6f55159344" x="264.38404" y="288.430125" style="stroke: #000000; stroke-width: 0.8"/>
      </g>
     </g>
     <g id="text_6">
      <!-- 1250 -->
      <g transform="translate(251.65904 303.028562) scale(0.1 -0.1)">
       <use xlink:href="#DejaVuSans-31"/>
       <use xlink:href="#DejaVuSans-32" transform="translate(63.623047 0)"/>
       <use xlink:href="#DejaVuSans-35" transform="translate(127.246094 0)"/>
       <use xlink:href="#DejaVuSans-30" transform="translate(190.869141 0)"/>
      </g>
     </g>
    </g>
    <g id="xtick_7">
     <g id="line2d_13">
      <path d="M 304.986159 288.430125 
L 304.986159 22.318125 
" clip-path="url(#p884f6be48a)" style="fill: none; stroke: #808080; stroke-width: 0.3; stroke-linecap: square"/>
     </g>
     <g id="line2d_14">
      <g>
       <use xlink:href="#m6f55159344" x="304.986159" y="288.430125" style="stroke: #000000; stroke-width: 0.8"/>
      </g>
     </g>
     <g id="text_7">
      <!-- 1500 -->
      <g transform="translate(292.261159 303.028562) scale(0.1 -0.1)">
       <use xlink:href="#DejaVuSans-31"/>
       <use xlink:href="#DejaVuSans-35" transform="translate(63.623047 0)"/>
       <use xlink:href="#DejaVuSans-30" transform="translate(127.246094 0)"/>
       <use xlink:href="#DejaVuSans-30" transform="translate(190.869141 0)"/>
      </g>
     </g>
    </g>
    <g id="xtick_8">
     <g id="line2d_15">
      <path d="M 345.588278 288.430125 
L 345.588278 22.318125 
" clip-path="url(#p884f6be48a)" style="fill: none; stroke: #808080; stroke-width: 0.3; stroke-linecap: square"/>
     </g>
     <g id="line2d_16">
      <g>
       <use xlink:href="#m6f55159344" x="345.588278" y="288.430125" style="stroke: #000000; stroke-width: 0.8"/>
      </g>
     </g>
     <g id="text_8">
      <!-- 1750 -->
      <g transform="translate(332.863278 303.028562) scale(0.1 -0.1)">
       <use xlink:href="#DejaVuSans-31"/>
       <use xlink:href="#DejaVuSans-37" transform="translate(63.623047 0)"/>
       <use xlink:href="#DejaVuSans-35" transform="translate(127.246094 0)"/>
       <use xlink:href="#DejaVuSans-30" transform="translate(190.869141 0)"/>
      </g>
     </g>
    </g>
    <g id="xtick_9">
     <g id="line2d_17">
      <path d="M 386.190398 288.430125 
L 386.190398 22.318125 
" clip-path="url(#p884f6be48a)" style="fill: none; stroke: #808080; stroke-width: 0.3; stroke-linecap: square"/>
     </g>
     <g id="line2d_18">
      <g>
       <use xlink:href="#m6f55159344" x="386.190398" y="288.430125" style="stroke: #000000; stroke-width: 0.8"/>
      </g>
     </g>
     <g id="text_9">
      <!-- 2000 -->
      <g transform="translate(373.465398 303.028562) scale(0.1 -0.1)">
       <use xlink:href="#DejaVuSans-32"/>
       <use xlink:href="#DejaVuSans-30" transform="translate(63.623047 0)"/>
       <use xlink:href="#DejaVuSans-30" transform="translate(127.246094 0)"/>
       <use xlink:href="#DejaVuSans-30" transform="translate(190.869141 0)"/>
      </g>
     </g>
    </g>
    <g id="text_10">
     <!-- Frequency / Kayser (cm$^{-1}$) -->
     <g transform="translate(157.163125 318.10825) scale(0.1 -0.1)">
      <defs>
       <path id="DejaVuSans-46" d="M 628 4666 
L 3309 4666 
L 3309 4134 
L 1259 4134 
L 1259 2759 
L 3109 2759 
L 3109 2228 
L 1259 2228 
L 1259 0 
L 628 0 
L 628 4666 
z
" transform="scale(0.015625)"/>
       <path id="DejaVuSans-72" d="M 2631 2963 
Q 2534 3019 2420 3045 
Q 2306 3072 2169 3072 
Q 1681 3072 1420 2755 
Q 1159 2438 1159 1844 
L 1159 0 
L 581 0 
L 581 3500 
L 1159 3500 
L 1159 2956 
Q 1341 3275 1631 3429 
Q 1922 3584 2338 3584 
Q 2397 3584 2469 3576 
Q 2541 3569 2628 3553 
L 2631 2963 
z
" transform="scale(0.015625)"/>
       <path id="DejaVuSans-65" d="M 3597 1894 
L 3597 1613 
L 953 1613 
Q 991 1019 1311 708 
Q 1631 397 2203 397 
Q 2534 397 2845 478 
Q 3156 559 3463 722 
L 3463 178 
Q 3153 47 2828 -22 
Q 2503 -91 2169 -91 
Q 1331 -91 842 396 
Q 353 884 353 1716 
Q 353 2575 817 3079 
Q 1281 3584 2069 3584 
Q 2775 3584 3186 3129 
Q 3597 2675 3597 1894 
z
M 3022 2063 
Q 3016 2534 2758 2815 
Q 2500 3097 2075 3097 
Q 1594 3097 1305 2825 
Q 1016 2553 972 2059 
L 3022 2063 
z
" transform="scale(0.015625)"/>
       <path id="DejaVuSans-71" d="M 947 1747 
Q 947 1113 1208 752 
Q 1469 391 1925 391 
Q 2381 391 2643 752 
Q 2906 1113 2906 1747 
Q 2906 2381 2643 2742 
Q 2381 3103 1925 3103 
Q 1469 3103 1208 2742 
Q 947 2381 947 1747 
z
M 2906 525 
Q 2725 213 2448 61 
Q 2172 -91 1784 -91 
Q 1150 -91 751 415 
Q 353 922 353 1747 
Q 353 2572 751 3078 
Q 1150 3584 1784 3584 
Q 2172 3584 2448 3432 
Q 2725 3281 2906 2969 
L 2906 3500 
L 3481 3500 
L 3481 -1331 
L 2906 -1331 
L 2906 525 
z
" transform="scale(0.015625)"/>
       <path id="DejaVuSans-75" d="M 544 1381 
L 544 3500 
L 1119 3500 
L 1119 1403 
Q 1119 906 1312 657 
Q 1506 409 1894 409 
Q 2359 409 2629 706 
Q 2900 1003 2900 1516 
L 2900 3500 
L 3475 3500 
L 3475 0 
L 2900 0 
L 2900 538 
Q 2691 219 2414 64 
Q 2138 -91 1772 -91 
Q 1169 -91 856 284 
Q 544 659 544 1381 
z
M 1991 3584 
L 1991 3584 
z
" transform="scale(0.015625)"/>
       <path id="DejaVuSans-6e" d="M 3513 2113 
L 3513 0 
L 2938 0 
L 2938 2094 
Q 2938 2591 2744 2837 
Q 2550 3084 2163 3084 
Q 1697 3084 1428 2787 
Q 1159 2491 1159 1978 
L 1159 0 
L 581 0 
L 581 3500 
L 1159 3500 
L 1159 2956 
Q 1366 3272 1645 3428 
Q 1925 3584 2291 3584 
Q 2894 3584 3203 3211 
Q 3513 2838 3513 2113 
z
" transform="scale(0.015625)"/>
       <path id="DejaVuSans-63" d="M 3122 3366 
L 3122 2828 
Q 2878 2963 2633 3030 
Q 2388 3097 2138 3097 
Q 1578 3097 1268 2742 
Q 959 2388 959 1747 
Q 959 1106 1268 751 
Q 1578 397 2138 397 
Q 2388 397 2633 464 
Q 2878 531 3122 666 
L 3122 134 
Q 2881 22 2623 -34 
Q 2366 -91 2075 -91 
Q 1284 -91 818 406 
Q 353 903 353 1747 
Q 353 2603 823 3093 
Q 1294 3584 2113 3584 
Q 2378 3584 2631 3529 
Q 2884 3475 3122 3366 
z
" transform="scale(0.015625)"/>
       <path id="DejaVuSans-79" d="M 2059 -325 
Q 1816 -950 1584 -1140 
Q 1353 -1331 966 -1331 
L 506 -1331 
L 506 -850 
L 844 -850 
Q 1081 -850 1212 -737 
Q 1344 -625 1503 -206 
L 1606 56 
L 191 3500 
L 800 3500 
L 1894 763 
L 2988 3500 
L 3597 3500 
L 2059 -325 
z
" transform="scale(0.015625)"/>
       <path id="DejaVuSans-20" transform="scale(0.015625)"/>
       <path id="DejaVuSans-2f" d="M 1625 4666 
L 2156 4666 
L 531 -594 
L 0 -594 
L 1625 4666 
z
" transform="scale(0.015625)"/>
       <path id="DejaVuSans-4b" d="M 628 4666 
L 1259 4666 
L 1259 2694 
L 3353 4666 
L 4166 4666 
L 1850 2491 
L 4331 0 
L 3500 0 
L 1259 2247 
L 1259 0 
L 628 0 
L 628 4666 
z
" transform="scale(0.015625)"/>
       <path id="DejaVuSans-61" d="M 2194 1759 
Q 1497 1759 1228 1600 
Q 959 1441 959 1056 
Q 959 750 1161 570 
Q 1363 391 1709 391 
Q 2188 391 2477 730 
Q 2766 1069 2766 1631 
L 2766 1759 
L 2194 1759 
z
M 3341 1997 
L 3341 0 
L 2766 0 
L 2766 531 
Q 2569 213 2275 61 
Q 1981 -91 1556 -91 
Q 1019 -91 701 211 
Q 384 513 384 1019 
Q 384 1609 779 1909 
Q 1175 2209 1959 2209 
L 2766 2209 
L 2766 2266 
Q 2766 2663 2505 2880 
Q 2244 3097 1772 3097 
Q 1472 3097 1187 3025 
Q 903 2953 641 2809 
L 641 3341 
Q 956 3463 1253 3523 
Q 1550 3584 1831 3584 
Q 2591 3584 2966 3190 
Q 3341 2797 3341 1997 
z
" transform="scale(0.015625)"/>
       <path id="DejaVuSans-73" d="M 2834 3397 
L 2834 2853 
Q 2591 2978 2328 3040 
Q 2066 3103 1784 3103 
Q 1356 3103 1142 2972 
Q 928 2841 928 2578 
Q 928 2378 1081 2264 
Q 1234 2150 1697 2047 
L 1894 2003 
Q 2506 1872 2764 1633 
Q 3022 1394 3022 966 
Q 3022 478 2636 193 
Q 2250 -91 1575 -91 
Q 1294 -91 989 -36 
Q 684 19 347 128 
L 347 722 
Q 666 556 975 473 
Q 1284 391 1588 391 
Q 1994 391 2212 530 
Q 2431 669 2431 922 
Q 2431 1156 2273 1281 
Q 2116 1406 1581 1522 
L 1381 1569 
Q 847 1681 609 1914 
Q 372 2147 372 2553 
Q 372 3047 722 3315 
Q 1072 3584 1716 3584 
Q 2034 3584 2315 3537 
Q 2597 3491 2834 3397 
z
" transform="scale(0.015625)"/>
       <path id="DejaVuSans-28" d="M 1984 4856 
Q 1566 4138 1362 3434 
Q 1159 2731 1159 2009 
Q 1159 1288 1364 580 
Q 1569 -128 1984 -844 
L 1484 -844 
Q 1016 -109 783 600 
Q 550 1309 550 2009 
Q 550 2706 781 3412 
Q 1013 4119 1484 4856 
L 1984 4856 
z
" transform="scale(0.015625)"/>
       <path id="DejaVuSans-6d" d="M 3328 2828 
Q 3544 3216 3844 3400 
Q 4144 3584 4550 3584 
Q 5097 3584 5394 3201 
Q 5691 2819 5691 2113 
L 5691 0 
L 5113 0 
L 5113 2094 
Q 5113 2597 4934 2840 
Q 4756 3084 4391 3084 
Q 3944 3084 3684 2787 
Q 3425 2491 3425 1978 
L 3425 0 
L 2847 0 
L 2847 2094 
Q 2847 2600 2669 2842 
Q 2491 3084 2119 3084 
Q 1678 3084 1418 2786 
Q 1159 2488 1159 1978 
L 1159 0 
L 581 0 
L 581 3500 
L 1159 3500 
L 1159 2956 
Q 1356 3278 1631 3431 
Q 1906 3584 2284 3584 
Q 2666 3584 2933 3390 
Q 3200 3197 3328 2828 
z
" transform="scale(0.015625)"/>
       <path id="DejaVuSans-2212" d="M 678 2272 
L 4684 2272 
L 4684 1741 
L 678 1741 
L 678 2272 
z
" transform="scale(0.015625)"/>
       <path id="DejaVuSans-29" d="M 513 4856 
L 1013 4856 
Q 1481 4119 1714 3412 
Q 1947 2706 1947 2009 
Q 1947 1309 1714 600 
Q 1481 -109 1013 -844 
L 513 -844 
Q 928 -128 1133 580 
Q 1338 1288 1338 2009 
Q 1338 2731 1133 3434 
Q 928 4138 513 4856 
z
" transform="scale(0.015625)"/>
      </defs>
      <use xlink:href="#DejaVuSans-46" transform="translate(0 0.684375)"/>
      <use xlink:href="#DejaVuSans-72" transform="translate(57.519531 0.684375)"/>
      <use xlink:href="#DejaVuSans-65" transform="translate(98.632812 0.684375)"/>
      <use xlink:href="#DejaVuSans-71" transform="translate(160.15625 0.684375)"/>
      <use xlink:href="#DejaVuSans-75" transform="translate(223.632812 0.684375)"/>
      <use xlink:href="#DejaVuSans-65" transform="translate(287.011719 0.684375)"/>
      <use xlink:href="#DejaVuSans-6e" transform="translate(348.535156 0.684375)"/>
      <use xlink:href="#DejaVuSans-63" transform="translate(411.914062 0.684375)"/>
      <use xlink:href="#DejaVuSans-79" transform="translate(466.894531 0.684375)"/>
      <use xlink:href="#DejaVuSans-20" transform="translate(526.074219 0.684375)"/>
      <use xlink:href="#DejaVuSans-2f" transform="translate(557.861328 0.684375)"/>
      <use xlink:href="#DejaVuSans-20" transform="translate(591.552734 0.684375)"/>
      <use xlink:href="#DejaVuSans-4b" transform="translate(623.339844 0.684375)"/>
      <use xlink:href="#DejaVuSans-61" transform="translate(688.916016 0.684375)"/>
      <use xlink:href="#DejaVuSans-79" transform="translate(750.195312 0.684375)"/>
      <use xlink:href="#DejaVuSans-73" transform="translate(809.375 0.684375)"/>
      <use xlink:href="#DejaVuSans-65" transform="translate(861.474609 0.684375)"/>
      <use xlink:href="#DejaVuSans-72" transform="translate(922.998047 0.684375)"/>
      <use xlink:href="#DejaVuSans-20" transform="translate(964.111328 0.684375)"/>
      <use xlink:href="#DejaVuSans-28" transform="translate(995.898438 0.684375)"/>
      <use xlink:href="#DejaVuSans-63" transform="translate(1034.912109 0.684375)"/>
      <use xlink:href="#DejaVuSans-6d" transform="translate(1089.892578 0.684375)"/>
      <use xlink:href="#DejaVuSans-2212" transform="translate(1188.261719 38.965625) scale(0.7)"/>
      <use xlink:href="#DejaVuSans-31" transform="translate(1246.914062 38.965625) scale(0.7)"/>
      <use xlink:href="#DejaVuSans-29" transform="translate(1294.18457 0.684375)"/>
     </g>
    </g>
   </g>
   <g id="matplotlib.axis_2">
    <g id="ytick_1">
     <g id="line2d_19">
      <path d="M 45.303125 276.339479 
L 402.423125 276.339479 
" clip-path="url(#p884f6be48a)" style="fill: none; stroke: #808080; stroke-width: 0.3; stroke-linecap: square"/>
     </g>
     <g id="line2d_20">
      <defs>
       <path id="m8abbd567ad" d="M 0 0 
L -3.5 0 
" style="stroke: #000000; stroke-width: 0.8"/>
      </defs>
      <g>
       <use xlink:href="#m8abbd567ad" x="45.303125" y="276.339479" style="stroke: #000000; stroke-width: 0.8"/>
      </g>
     </g>
     <g id="text_11">
      <!-- 0.0 -->
      <g transform="translate(22.4 280.138697) scale(0.1 -0.1)">
       <defs>
        <path id="DejaVuSans-2e" d="M 684 794 
L 1344 794 
L 1344 0 
L 684 0 
L 684 794 
z
" transform="scale(0.015625)"/>
       </defs>
       <use xlink:href="#DejaVuSans-30"/>
       <use xlink:href="#DejaVuSans-2e" transform="translate(63.623047 0)"/>
       <use xlink:href="#DejaVuSans-30" transform="translate(95.410156 0)"/>
      </g>
     </g>
    </g>
    <g id="ytick_2">
     <g id="line2d_21">
      <path d="M 45.303125 242.828133 
L 402.423125 242.828133 
" clip-path="url(#p884f6be48a)" style="fill: none; stroke: #808080; stroke-width: 0.3; stroke-linecap: square"/>
     </g>
     <g id="line2d_22">
      <g>
       <use xlink:href="#m8abbd567ad" x="45.303125" y="242.828133" style="stroke: #000000; stroke-width: 0.8"/>
      </g>
     </g>
     <g id="text_12">
      <!-- 0.5 -->
      <g transform="translate(22.4 246.627351) scale(0.1 -0.1)">
       <use xlink:href="#DejaVuSans-30"/>
       <use xlink:href="#DejaVuSans-2e" transform="translate(63.623047 0)"/>
       <use xlink:href="#DejaVuSans-35" transform="translate(95.410156 0)"/>
      </g>
     </g>
    </g>
    <g id="ytick_3">
     <g id="line2d_23">
      <path d="M 45.303125 209.316787 
L 402.423125 209.316787 
" clip-path="url(#p884f6be48a)" style="fill: none; stroke: #808080; stroke-width: 0.3; stroke-linecap: square"/>
     </g>
     <g id="line2d_24">
      <g>
       <use xlink:href="#m8abbd567ad" x="45.303125" y="209.316787" style="stroke: #000000; stroke-width: 0.8"/>
      </g>
     </g>
     <g id="text_13">
      <!-- 1.0 -->
      <g transform="translate(22.4 213.116005) scale(0.1 -0.1)">
       <use xlink:href="#DejaVuSans-31"/>
       <use xlink:href="#DejaVuSans-2e" transform="translate(63.623047 0)"/>
       <use xlink:href="#DejaVuSans-30" transform="translate(95.410156 0)"/>
      </g>
     </g>
    </g>
    <g id="ytick_4">
     <g id="line2d_25">
      <path d="M 45.303125 175.805441 
L 402.423125 175.805441 
" clip-path="url(#p884f6be48a)" style="fill: none; stroke: #808080; stroke-width: 0.3; stroke-linecap: square"/>
     </g>
     <g id="line2d_26">
      <g>
       <use xlink:href="#m8abbd567ad" x="45.303125" y="175.805441" style="stroke: #000000; stroke-width: 0.8"/>
      </g>
     </g>
     <g id="text_14">
      <!-- 1.5 -->
      <g transform="translate(22.4 179.60466) scale(0.1 -0.1)">
       <use xlink:href="#DejaVuSans-31"/>
       <use xlink:href="#DejaVuSans-2e" transform="translate(63.623047 0)"/>
       <use xlink:href="#DejaVuSans-35" transform="translate(95.410156 0)"/>
      </g>
     </g>
    </g>
    <g id="ytick_5">
     <g id="line2d_27">
      <path d="M 45.303125 142.294095 
L 402.423125 142.294095 
" clip-path="url(#p884f6be48a)" style="fill: none; stroke: #808080; stroke-width: 0.3; stroke-linecap: square"/>
     </g>
     <g id="line2d_28">
      <g>
       <use xlink:href="#m8abbd567ad" x="45.303125" y="142.294095" style="stroke: #000000; stroke-width: 0.8"/>
      </g>
     </g>
     <g id="text_15">
      <!-- 2.0 -->
      <g transform="translate(22.4 146.093314) scale(0.1 -0.1)">
       <use xlink:href="#DejaVuSans-32"/>
       <use xlink:href="#DejaVuSans-2e" transform="translate(63.623047 0)"/>
       <use xlink:href="#DejaVuSans-30" transform="translate(95.410156 0)"/>
      </g>
     </g>
    </g>
    <g id="ytick_6">
     <g id="line2d_29">
      <path d="M 45.303125 108.782749 
L 402.423125 108.782749 
" clip-path="url(#p884f6be48a)" style="fill: none; stroke: #808080; stroke-width: 0.3; stroke-linecap: square"/>
     </g>
     <g id="line2d_30">
      <g>
       <use xlink:href="#m8abbd567ad" x="45.303125" y="108.782749" style="stroke: #000000; stroke-width: 0.8"/>
      </g>
     </g>
     <g id="text_16">
      <!-- 2.5 -->
      <g transform="translate(22.4 112.581968) scale(0.1 -0.1)">
       <use xlink:href="#DejaVuSans-32"/>
       <use xlink:href="#DejaVuSans-2e" transform="translate(63.623047 0)"/>
       <use xlink:href="#DejaVuSans-35" transform="translate(95.410156 0)"/>
      </g>
     </g>
    </g>
    <g id="ytick_7">
     <g id="line2d_31">
      <path d="M 45.303125 75.271403 
L 402.423125 75.271403 
" clip-path="url(#p884f6be48a)" style="fill: none; stroke: #808080; stroke-width: 0.3; stroke-linecap: square"/>
     </g>
     <g id="line2d_32">
      <g>
       <use xlink:href="#m8abbd567ad" x="45.303125" y="75.271403" style="stroke: #000000; stroke-width: 0.8"/>
      </g>
     </g>
     <g id="text_17">
      <!-- 3.0 -->
      <g transform="translate(22.4 79.070622) scale(0.1 -0.1)">
       <defs>
        <path id="DejaVuSans-33" d="M 2597 2516 
Q 3050 2419 3304 2112 
Q 3559 1806 3559 1356 
Q 3559 666 3084 287 
Q 2609 -91 1734 -91 
Q 1441 -91 1130 -33 
Q 819 25 488 141 
L 488 750 
Q 750 597 1062 519 
Q 1375 441 1716 441 
Q 2309 441 2620 675 
Q 2931 909 2931 1356 
Q 2931 1769 2642 2001 
Q 2353 2234 1838 2234 
L 1294 2234 
L 1294 2753 
L 1863 2753 
Q 2328 2753 2575 2939 
Q 2822 3125 2822 3475 
Q 2822 3834 2567 4026 
Q 2313 4219 1838 4219 
Q 1578 4219 1281 4162 
Q 984 4106 628 3988 
L 628 4550 
Q 988 4650 1302 4700 
Q 1616 4750 1894 4750 
Q 2613 4750 3031 4423 
Q 3450 4097 3450 3541 
Q 3450 3153 3228 2886 
Q 3006 2619 2597 2516 
z
" transform="scale(0.015625)"/>
       </defs>
       <use xlink:href="#DejaVuSans-33"/>
       <use xlink:href="#DejaVuSans-2e" transform="translate(63.623047 0)"/>
       <use xlink:href="#DejaVuSans-30" transform="translate(95.410156 0)"/>
      </g>
     </g>
    </g>
    <g id="ytick_8">
     <g id="line2d_33">
      <path d="M 45.303125 41.760057 
L 402.423125 41.760057 
" clip-path="url(#p884f6be48a)" style="fill: none; stroke: #808080; stroke-width: 0.3; stroke-linecap: square"/>
     </g>
     <g id="line2d_34">
      <g>
       <use xlink:href="#m8abbd567ad" x="45.303125" y="41.760057" style="stroke: #000000; stroke-width: 0.8"/>
      </g>
     </g>
     <g id="text_18">
      <!-- 3.5 -->
      <g transform="translate(22.4 45.559276) scale(0.1 -0.1)">
       <use xlink:href="#DejaVuSans-33"/>
       <use xlink:href="#DejaVuSans-2e" transform="translate(63.623047 0)"/>
       <use xlink:href="#DejaVuSans-35" transform="translate(95.410156 0)"/>
      </g>
     </g>
    </g>
    <g id="text_19">
     <!-- Spectral radiance ($Wm^{-2}sr^{-1}Hz^{-1}$) -->
     <g transform="translate(16.3 242.274125) rotate(-90) scale(0.1 -0.1)">
      <defs>
       <path id="DejaVuSans-53" d="M 3425 4513 
L 3425 3897 
Q 3066 4069 2747 4153 
Q 2428 4238 2131 4238 
Q 1616 4238 1336 4038 
Q 1056 3838 1056 3469 
Q 1056 3159 1242 3001 
Q 1428 2844 1947 2747 
L 2328 2669 
Q 3034 2534 3370 2195 
Q 3706 1856 3706 1288 
Q 3706 609 3251 259 
Q 2797 -91 1919 -91 
Q 1588 -91 1214 -16 
Q 841 59 441 206 
L 441 856 
Q 825 641 1194 531 
Q 1563 422 1919 422 
Q 2459 422 2753 634 
Q 3047 847 3047 1241 
Q 3047 1584 2836 1778 
Q 2625 1972 2144 2069 
L 1759 2144 
Q 1053 2284 737 2584 
Q 422 2884 422 3419 
Q 422 4038 858 4394 
Q 1294 4750 2059 4750 
Q 2388 4750 2728 4690 
Q 3069 4631 3425 4513 
z
" transform="scale(0.015625)"/>
       <path id="DejaVuSans-70" d="M 1159 525 
L 1159 -1331 
L 581 -1331 
L 581 3500 
L 1159 3500 
L 1159 2969 
Q 1341 3281 1617 3432 
Q 1894 3584 2278 3584 
Q 2916 3584 3314 3078 
Q 3713 2572 3713 1747 
Q 3713 922 3314 415 
Q 2916 -91 2278 -91 
Q 1894 -91 1617 61 
Q 1341 213 1159 525 
z
M 3116 1747 
Q 3116 2381 2855 2742 
Q 2594 3103 2138 3103 
Q 1681 3103 1420 2742 
Q 1159 2381 1159 1747 
Q 1159 1113 1420 752 
Q 1681 391 2138 391 
Q 2594 391 2855 752 
Q 3116 1113 3116 1747 
z
" transform="scale(0.015625)"/>
       <path id="DejaVuSans-74" d="M 1172 4494 
L 1172 3500 
L 2356 3500 
L 2356 3053 
L 1172 3053 
L 1172 1153 
Q 1172 725 1289 603 
Q 1406 481 1766 481 
L 2356 481 
L 2356 0 
L 1766 0 
Q 1100 0 847 248 
Q 594 497 594 1153 
L 594 3053 
L 172 3053 
L 172 3500 
L 594 3500 
L 594 4494 
L 1172 4494 
z
" transform="scale(0.015625)"/>
       <path id="DejaVuSans-6c" d="M 603 4863 
L 1178 4863 
L 1178 0 
L 603 0 
L 603 4863 
z
" transform="scale(0.015625)"/>
       <path id="DejaVuSans-64" d="M 2906 2969 
L 2906 4863 
L 3481 4863 
L 3481 0 
L 2906 0 
L 2906 525 
Q 2725 213 2448 61 
Q 2172 -91 1784 -91 
Q 1150 -91 751 415 
Q 353 922 353 1747 
Q 353 2572 751 3078 
Q 1150 3584 1784 3584 
Q 2172 3584 2448 3432 
Q 2725 3281 2906 2969 
z
M 947 1747 
Q 947 1113 1208 752 
Q 1469 391 1925 391 
Q 2381 391 2643 752 
Q 2906 1113 2906 1747 
Q 2906 2381 2643 2742 
Q 2381 3103 1925 3103 
Q 1469 3103 1208 2742 
Q 947 2381 947 1747 
z
" transform="scale(0.015625)"/>
       <path id="DejaVuSans-69" d="M 603 3500 
L 1178 3500 
L 1178 0 
L 603 0 
L 603 3500 
z
M 603 4863 
L 1178 4863 
L 1178 4134 
L 603 4134 
L 603 4863 
z
" transform="scale(0.015625)"/>
       <path id="DejaVuSans-Oblique-57" d="M 616 4666 
L 1228 4666 
L 1453 697 
L 3213 4666 
L 3916 4666 
L 4147 697 
L 5888 4666 
L 6528 4666 
L 4453 0 
L 3659 0 
L 3444 3891 
L 1697 0 
L 903 0 
L 616 4666 
z
" transform="scale(0.015625)"/>
       <path id="DejaVuSans-Oblique-6d" d="M 5747 2113 
L 5338 0 
L 4763 0 
L 5166 2094 
Q 5191 2228 5203 2325 
Q 5216 2422 5216 2491 
Q 5216 2772 5059 2928 
Q 4903 3084 4622 3084 
Q 4203 3084 3875 2770 
Q 3547 2456 3450 1953 
L 3066 0 
L 2491 0 
L 2900 2094 
Q 2925 2209 2937 2307 
Q 2950 2406 2950 2484 
Q 2950 2769 2794 2926 
Q 2638 3084 2363 3084 
Q 1938 3084 1609 2770 
Q 1281 2456 1184 1953 
L 800 0 
L 225 0 
L 909 3500 
L 1484 3500 
L 1375 2956 
Q 1609 3263 1923 3423 
Q 2238 3584 2597 3584 
Q 2978 3584 3223 3384 
Q 3469 3184 3519 2828 
Q 3781 3197 4126 3390 
Q 4472 3584 4856 3584 
Q 5306 3584 5551 3325 
Q 5797 3066 5797 2591 
Q 5797 2488 5784 2364 
Q 5772 2241 5747 2113 
z
" transform="scale(0.015625)"/>
       <path id="DejaVuSans-Oblique-73" d="M 3200 3397 
L 3091 2853 
Q 2863 2978 2609 3040 
Q 2356 3103 2088 3103 
Q 1634 3103 1373 2948 
Q 1113 2794 1113 2528 
Q 1113 2219 1719 2053 
Q 1766 2041 1788 2034 
L 1972 1978 
Q 2547 1819 2739 1644 
Q 2931 1469 2931 1166 
Q 2931 609 2489 259 
Q 2047 -91 1331 -91 
Q 1053 -91 747 -37 
Q 441 16 72 128 
L 184 722 
Q 500 559 806 475 
Q 1113 391 1394 391 
Q 1816 391 2080 572 
Q 2344 753 2344 1031 
Q 2344 1331 1650 1516 
L 1591 1531 
L 1394 1581 
Q 956 1697 753 1886 
Q 550 2075 550 2369 
Q 550 2928 970 3256 
Q 1391 3584 2113 3584 
Q 2397 3584 2667 3537 
Q 2938 3491 3200 3397 
z
" transform="scale(0.015625)"/>
       <path id="DejaVuSans-Oblique-72" d="M 2853 2969 
Q 2766 3016 2653 3041 
Q 2541 3066 2413 3066 
Q 1953 3066 1609 2717 
Q 1266 2369 1153 1784 
L 800 0 
L 225 0 
L 909 3500 
L 1484 3500 
L 1375 2956 
Q 1603 3259 1920 3421 
Q 2238 3584 2597 3584 
Q 2691 3584 2781 3573 
Q 2872 3563 2963 3538 
L 2853 2969 
z
" transform="scale(0.015625)"/>
       <path id="DejaVuSans-Oblique-48" d="M 1081 4666 
L 1716 4666 
L 1344 2753 
L 3634 2753 
L 4006 4666 
L 4641 4666 
L 3731 0 
L 3097 0 
L 3531 2222 
L 1241 2222 
L 806 0 
L 172 0 
L 1081 4666 
z
" transform="scale(0.015625)"/>
       <path id="DejaVuSans-Oblique-7a" d="M 744 3500 
L 3475 3500 
L 3372 2975 
L 738 459 
L 2913 459 
L 2822 0 
L -19 0 
L 84 525 
L 2719 3041 
L 653 3041 
L 744 3500 
z
" transform="scale(0.015625)"/>
      </defs>
      <use xlink:href="#DejaVuSans-53" transform="translate(0 0.765625)"/>
      <use xlink:href="#DejaVuSans-70" transform="translate(63.476562 0.765625)"/>
      <use xlink:href="#DejaVuSans-65" transform="translate(126.953125 0.765625)"/>
      <use xlink:href="#DejaVuSans-63" transform="translate(188.476562 0.765625)"/>
      <use xlink:href="#DejaVuSans-74" transform="translate(243.457031 0.765625)"/>
      <use xlink:href="#DejaVuSans-72" transform="translate(282.666016 0.765625)"/>
      <use xlink:href="#DejaVuSans-61" transform="translate(323.779297 0.765625)"/>
      <use xlink:href="#DejaVuSans-6c" transform="translate(385.058594 0.765625)"/>
      <use xlink:href="#DejaVuSans-20" transform="translate(412.841797 0.765625)"/>
      <use xlink:href="#DejaVuSans-72" transform="translate(444.628906 0.765625)"/>
      <use xlink:href="#DejaVuSans-61" transform="translate(485.742188 0.765625)"/>
      <use xlink:href="#DejaVuSans-64" transform="translate(547.021484 0.765625)"/>
      <use xlink:href="#DejaVuSans-69" transform="translate(610.498047 0.765625)"/>
      <use xlink:href="#DejaVuSans-61" transform="translate(638.28125 0.765625)"/>
      <use xlink:href="#DejaVuSans-6e" transform="translate(699.560547 0.765625)"/>
      <use xlink:href="#DejaVuSans-63" transform="translate(762.939453 0.765625)"/>
      <use xlink:href="#DejaVuSans-65" transform="translate(817.919922 0.765625)"/>
      <use xlink:href="#DejaVuSans-20" transform="translate(879.443359 0.765625)"/>
      <use xlink:href="#DejaVuSans-28" transform="translate(911.230469 0.765625)"/>
      <use xlink:href="#DejaVuSans-Oblique-57" transform="translate(950.244141 0.765625)"/>
      <use xlink:href="#DejaVuSans-Oblique-6d" transform="translate(1049.121094 0.765625)"/>
      <use xlink:href="#DejaVuSans-2212" transform="translate(1151.183099 39.046875) scale(0.7)"/>
      <use xlink:href="#DejaVuSans-32" transform="translate(1209.835443 39.046875) scale(0.7)"/>
      <use xlink:href="#DejaVuSans-Oblique-73" transform="translate(1257.105951 0.765625)"/>
      <use xlink:href="#DejaVuSans-Oblique-72" transform="translate(1309.20556 0.765625)"/>
      <use xlink:href="#DejaVuSans-2212" transform="translate(1354.968737 39.046875) scale(0.7)"/>
      <use xlink:href="#DejaVuSans-31" transform="translate(1413.621081 39.046875) scale(0.7)"/>
      <use xlink:href="#DejaVuSans-Oblique-48" transform="translate(1460.891589 0.765625)"/>
      <use xlink:href="#DejaVuSans-Oblique-7a" transform="translate(1536.086901 0.765625)"/>
      <use xlink:href="#DejaVuSans-2212" transform="translate(1593.043281 39.046875) scale(0.7)"/>
      <use xlink:href="#DejaVuSans-31" transform="translate(1651.695625 39.046875) scale(0.7)"/>
      <use xlink:href="#DejaVuSans-29" transform="translate(1698.966133 0.765625)"/>
     </g>
    </g>
    <g id="text_20">
     <!-- 1e−12 -->
     <g transform="translate(45.303125 19.318125) scale(0.1 -0.1)">
      <use xlink:href="#DejaVuSans-31"/>
      <use xlink:href="#DejaVuSans-65" transform="translate(63.623047 0)"/>
      <use xlink:href="#DejaVuSans-2212" transform="translate(125.146484 0)"/>
      <use xlink:href="#DejaVuSans-31" transform="translate(208.935547 0)"/>
      <use xlink:href="#DejaVuSans-32" transform="translate(272.558594 0)"/>
     </g>
    </g>
   </g>
   <g id="line2d_35">
    <path d="M 61.535852 276.334125 
L 62.402754 276.141987 
L 64.136556 275.109978 
L 64.570007 274.766583 
L 65.003458 274.178592 
L 65.436908 274.224675 
L 65.870359 273.075113 
L 66.30381 272.650726 
L 66.73726 272.762779 
L 67.170711 271.621778 
L 67.604162 271.608881 
L 68.037612 270.98195 
L 68.471063 269.155926 
L 68.904514 268.656865 
L 69.337964 267.263908 
L 69.771415 266.539762 
L 70.638316 266.597016 
L 71.071767 264.993923 
L 71.505217 264.925756 
L 71.938668 262.477065 
L 72.372119 261.811441 
L 72.805569 260.024487 
L 73.23902 261.321598 
L 73.672471 260.372115 
L 74.105921 258.076124 
L 74.539372 256.498445 
L 74.972823 254.294832 
L 75.406273 254.232619 
L 75.839724 254.897847 
L 76.273175 254.343802 
L 76.706625 250.70764 
L 77.140076 248.784648 
L 77.573527 251.157903 
L 78.006977 247.053335 
L 78.440428 248.986231 
L 78.873879 247.888514 
L 80.174231 237.710439 
L 80.607681 238.399215 
L 81.041132 240.34249 
L 81.474583 236.852615 
L 81.908033 240.053585 
L 82.341484 234.233296 
L 82.774935 237.78783 
L 83.208385 231.598125 
L 83.641836 227.498802 
L 84.075287 203.66574 
L 84.508737 224.645212 
L 84.942188 223.215057 
L 85.809089 229.870442 
L 86.24254 228.748704 
L 86.675991 219.251311 
L 87.109441 221.485629 
L 87.542892 212.747768 
L 87.976343 209.334206 
L 88.409793 219.680464 
L 88.843244 216.464572 
L 89.276695 215.221672 
L 89.710145 211.84443 
L 90.143596 218.887466 
L 90.577047 204.715933 
L 91.010497 203.319485 
L 91.443948 197.107128 
L 91.877399 212.766824 
L 92.310849 196.630809 
L 92.7443 200.395416 
L 93.177751 211.644382 
L 93.611201 195.088735 
L 94.044652 202.032817 
L 94.478103 206.477966 
L 94.911553 193.999129 
L 95.345004 201.55224 
L 95.778455 188.468777 
L 96.211905 204.905895 
L 96.645356 179.526598 
L 97.078807 181.370078 
L 97.512257 189.938639 
L 97.945708 185.484198 
L 98.379158 200.452316 
L 98.812609 179.656021 
L 99.24606 182.014993 
L 99.67951 166.308686 
L 100.112961 161.266187 
L 100.546412 163.54369 
L 101.413313 184.187979 
L 101.846764 175.436981 
L 102.280214 170.350107 
L 102.713665 189.411973 
L 103.147116 163.962658 
L 103.580566 154.295478 
L 104.014017 148.757422 
L 104.447468 160.590033 
L 104.880918 155.012915 
L 105.314369 144.849064 
L 105.74782 148.13067 
L 106.18127 174.762515 
L 106.614721 186.662556 
L 107.481622 153.263825 
L 107.915073 142.360241 
L 108.348524 184.431754 
L 108.781974 140.166722 
L 109.215425 133.983139 
L 109.648876 132.85873 
L 110.082326 137.00235 
L 110.515777 167.808904 
L 110.949228 140.415473 
L 111.382678 123.154241 
L 111.816129 122.047336 
L 112.68303 131.13621 
L 113.116481 118.832889 
L 113.549932 135.168064 
L 113.983382 178.822045 
L 114.416833 139.546764 
L 115.283734 113.834124 
L 115.717185 177.591337 
L 116.150636 118.087339 
L 116.584086 123.518546 
L 117.450988 109.289357 
L 117.884438 108.43524 
L 118.317889 127.169253 
L 118.75134 126.54631 
L 119.18479 119.236102 
L 119.618241 138.822021 
L 120.051692 97.838887 
L 120.485142 90.509531 
L 120.918593 89.656845 
L 121.352044 137.121019 
L 121.785494 94.717937 
L 122.218945 143.323903 
L 122.652396 100.247711 
L 123.085846 78.946246 
L 123.519297 91.893691 
L 123.952748 142.220996 
L 124.386198 83.514232 
L 124.819649 75.859861 
L 125.2531 89.36407 
L 125.68655 118.89619 
L 126.120001 118.559548 
L 126.553451 80.283772 
L 127.420353 64.659474 
L 128.287254 63.343686 
L 128.720705 100.898772 
L 129.154155 100.566358 
L 129.587606 155.306679 
L 130.021057 99.951129 
L 130.454507 140.157041 
L 130.887958 59.850101 
L 131.321409 82.77758 
L 131.754859 58.835023 
L 132.18831 74.021408 
L 132.621761 57.89364 
L 133.055211 98.307549 
L 133.488662 81.250978 
L 133.922113 80.995876 
L 134.355563 56.229172 
L 134.789014 63.904574 
L 135.222465 63.600463 
L 135.655915 115.049329 
L 136.089366 63.043709 
L 136.956267 46.168606 
L 137.389718 79.538673 
L 137.823169 62.132932 
L 138.256619 88.241394 
L 138.69007 53.304601 
L 139.123521 44.77869 
L 139.556971 52.924717 
L 139.990422 150.757082 
L 140.423873 44.151502 
L 140.857323 43.976191 
L 141.290774 181.533189 
L 141.724225 43.675459 
L 142.157675 35.108496 
L 142.591126 43.440406 
L 143.024577 79.258266 
L 143.458027 52.019191 
L 143.891478 60.971618 
L 144.324929 61.00312 
L 144.758379 43.133319 
L 145.19183 61.109585 
L 145.625281 61.184266 
L 146.058731 43.136102 
L 146.492182 52.180307 
L 146.925633 70.894018 
L 147.359083 43.274636 
L 147.792534 34.414125 
L 148.225985 43.440538 
L 148.659435 34.540606 
L 149.526337 34.726155 
L 149.959787 101.84405 
L 150.393238 62.905141 
L 150.826689 44.278674 
L 151.260139 35.269871 
L 151.69359 35.440917 
L 152.127041 44.882038 
L 152.560491 35.824128 
L 152.993942 45.349842 
L 153.427393 74.638975 
L 153.860843 95.048126 
L 154.294294 36.750897 
L 154.727744 46.437459 
L 155.161195 46.740162 
L 155.594646 66.500509 
L 156.028096 37.883555 
L 156.461547 47.719799 
L 156.894998 38.524111 
L 157.328448 58.163163 
L 157.761899 68.468594 
L 158.6288 49.581978 
L 159.062251 192.858847 
L 159.495702 80.346067 
L 159.929152 50.830382 
L 160.362603 170.032174 
L 160.796054 61.602174 
L 161.229504 113.257939 
L 161.662955 201.671673 
L 162.096406 63.052921 
L 162.963307 155.25726 
L 163.396758 116.020081 
L 163.830208 204.091784 
L 164.69711 205.062697 
L 165.13056 199.801 
L 165.564011 206.034322 
L 174.233024 215.67029 
L 174.666475 188.331615 
L 175.099926 216.615327 
L 175.533376 163.213042 
L 175.966827 134.345282 
L 176.400278 218.023315 
L 176.833728 104.837685 
L 177.267179 165.745252 
L 177.70063 95.983927 
L 178.13408 207.851317 
L 178.567531 128.293089 
L 179.000982 77.845604 
L 179.434432 186.480126 
L 179.867883 79.358232 
L 180.301334 80.120846 
L 180.734784 101.178756 
L 181.168235 132.568426 
L 181.601686 82.432496 
L 182.035136 73.204209 
L 182.468587 83.992299 
L 182.902037 155.269437 
L 183.335488 65.674479 
L 185.069291 68.920803 
L 185.502741 59.940743 
L 190.270699 69.277367 
L 190.704149 79.839403 
L 191.1376 80.698173 
L 191.571051 71.887519 
L 198.506261 86.118063 
L 198.939712 87.019559 
L 199.373163 97.325643 
L 199.806613 117.043397 
L 200.240064 89.729113 
L 201.973867 93.350657 
L 202.407317 84.993337 
L 202.840768 95.163792 
L 203.274219 86.844197 
L 205.008021 90.549944 
L 205.441472 100.605476 
L 205.874923 92.403635 
L 214.977386 111.752401 
L 215.410837 121.267575 
L 215.844288 113.572404 
L 223.212949 128.769784 
L 226.247104 134.854404 
L 226.680554 151.46048 
L 227.114005 136.571372 
L 233.182314 148.296227 
L 238.817173 158.680483 
L 243.58513 167.05646 
L 244.018581 161.004617 
L 244.452031 161.773436 
L 244.885482 169.272845 
L 245.318933 170.00506 
L 245.752383 177.316409 
L 246.619285 165.568176 
L 247.486186 167.062853 
L 247.919637 174.328682 
L 248.353087 175.037607 
L 248.786538 169.279771 
L 250.08689 171.466393 
L 250.520341 178.531828 
L 250.953791 172.907224 
L 251.387242 179.905909 
L 251.820693 180.587876 
L 252.254143 187.391545 
L 252.687594 175.748092 
L 253.121045 182.613449 
L 253.554495 177.148061 
L 253.987946 183.946869 
L 254.854847 185.266707 
L 255.288298 179.906937 
L 255.721749 186.572957 
L 256.155199 187.220986 
L 256.58865 181.940098 
L 257.022101 182.610955 
L 257.455551 189.144693 
L 257.889002 189.779139 
L 258.322453 201.71512 
L 258.755903 191.037854 
L 259.189354 197.306599 
L 259.622805 192.283014 
L 260.056255 192.900517 
L 260.489706 199.070297 
L 260.923157 188.494238 
L 261.790058 189.763932 
L 262.656959 201.943399 
L 263.09041 197.128554 
L 263.523861 208.31377 
L 263.957311 198.306311 
L 265.691114 200.621733 
L 266.124564 230.54732 
L 266.558015 201.759485 
L 266.991466 243.881871 
L 267.424916 222.589079 
L 267.858367 232.102367 
L 268.291818 209.029571 
L 268.725268 204.546051 
L 269.158719 205.093506 
L 269.59217 210.587219 
L 270.02562 211.100054 
L 270.459071 258.87311 
L 270.892522 212.116202 
L 271.325972 212.619533 
L 271.759423 208.309859 
L 272.192874 213.616753 
L 272.626324 209.356118 
L 273.059775 209.874437 
L 273.493226 215.089119 
L 273.926676 224.587516 
L 274.360127 220.590562 
L 275.227028 249.21381 
L 275.660479 249.472167 
L 276.09393 222.377289 
L 276.52738 235.323459 
L 276.960831 218.879612 
L 277.394282 239.890839 
L 278.261183 247.679305 
L 278.694634 247.947753 
L 279.128084 254.505308 
L 279.561535 233.899158 
L 279.994986 226.225954 
L 280.428436 245.638621 
L 280.861887 231.074491 
L 281.295338 239.098827 
L 281.728788 239.426895 
L 282.162239 236.043775 
L 282.59569 253.324024 
L 283.02914 240.39633 
L 283.896042 241.030441 
L 284.762943 259.701404 
L 285.196394 251.71988 
L 285.629844 238.759652 
L 286.063295 245.92818 
L 286.496746 255.270031 
L 286.930196 249.644325 
L 287.363647 246.754685 
L 287.797098 264.997974 
L 288.230548 256.087109 
L 288.663999 266.949849 
L 289.09745 247.82622 
L 289.5309 268.628467 
L 289.964351 245.205537 
L 290.397802 254.413278 
L 290.831252 248.863685 
L 291.264703 252.053643 
L 291.698154 262.261577 
L 292.131604 260.213415 
L 292.565055 267.866501 
L 292.998506 252.96233 
L 293.431956 258.37169 
L 294.298857 258.729168 
L 294.732308 273.778257 
L 295.165759 256.649214 
L 295.599209 251.54773 
L 296.03266 254.48024 
L 296.466111 267.261831 
L 296.899561 257.410347 
L 297.333012 259.930565 
L 298.199913 274.043561 
L 298.633364 262.53086 
L 299.066815 264.586442 
L 299.500265 264.711629 
L 299.933716 260.900958 
L 300.367167 271.593542 
L 301.234068 265.200281 
L 301.667519 257.067917 
L 302.53442 261.819119 
L 302.967871 271.932439 
L 303.401321 269.997727 
L 303.834772 264.16239 
L 304.268223 270.144678 
L 304.701673 270.21696 
L 305.135124 266.231718 
L 305.568575 266.340735 
L 306.002025 272.299127 
L 306.435476 270.498302 
L 306.868927 268.126904 
L 307.302377 266.766069 
L 307.735828 271.668073 
L 308.169279 269.661399 
L 308.602729 271.780194 
L 309.469631 269.888102 
L 309.903081 265.84207 
L 310.336532 272.773519 
L 310.769983 268.914916 
L 311.203433 274.824368 
L 311.636884 272.905275 
L 312.070335 272.948164 
L 312.503785 267.943983 
L 313.370687 268.126737 
L 313.804137 274.946622 
L 314.237588 272.449643 
L 314.671039 274.985237 
L 315.104489 269.70782 
L 315.53794 275.022827 
L 315.971391 268.653102 
L 316.404841 272.681573 
L 316.838292 272.726367 
L 317.271743 273.977975 
L 317.705193 272.052417 
L 318.138644 264.80517 
L 319.005545 261.624885 
L 319.438996 261.769956 
L 319.872447 274.953695 
L 320.305897 271.516623 
L 320.739348 263.905475 
L 321.172799 262.337253 
L 321.606249 265.722968 
L 322.0397 264.278914 
L 322.47315 268.663534 
L 322.906601 267.459604 
L 323.340052 268.829452 
L 323.773502 272.719 
L 324.206953 272.001865 
L 324.640404 270.18957 
L 325.073854 275.375619 
L 325.507305 269.229743 
L 325.940756 272.932389 
L 326.374206 269.384214 
L 326.807657 273.624307 
L 327.241108 273.054654 
L 327.674558 269.610054 
L 328.108009 274.987446 
L 328.54146 272.486961 
L 328.97491 274.276002 
L 329.408361 272.577625 
L 329.841812 275.516027 
L 330.708713 270.110631 
L 331.142164 271.147917 
L 331.575614 272.795544 
L 332.009065 270.314302 
L 332.442516 275.415187 
L 332.875966 274.502754 
L 333.742868 271.490435 
L 334.176318 274.572904 
L 334.609769 273.080641 
L 335.04322 275.646725 
L 335.47667 272.482825 
L 335.910121 273.76955 
L 336.343572 271.811592 
L 336.777022 275.685665 
L 337.210473 273.307577 
L 337.643924 275.704335 
L 338.077374 272.745156 
L 338.510825 275.722491 
L 338.944276 270.387601 
L 339.377726 270.452461 
L 339.811177 273.519461 
L 340.244628 275.169344 
L 341.111529 270.705318 
L 341.54498 269.813806 
L 341.97843 269.883622 
L 342.411881 274.205839 
L 342.845332 274.979154 
L 343.712233 272.616 
L 344.145684 272.658834 
L 344.579134 273.871874 
L 345.012585 272.743104 
L 345.446036 273.931269 
L 345.879486 273.960452 
L 346.312937 270.544253 
L 346.746388 274.017812 
L 347.179838 271.512135 
L 347.613289 273.569524 
L 348.04674 270.790257 
L 348.48019 273.634812 
L 348.913641 273.666904 
L 349.347092 275.22336 
L 349.780542 274.614806 
L 350.213993 271.873402 
L 350.647443 273.791683 
L 351.080894 274.285365 
L 351.514345 269.490627 
L 351.947795 271.308263 
L 352.381246 274.359709 
L 353.248147 271.470542 
L 353.681598 275.107745 
L 354.115049 275.750001 
L 354.548499 275.387812 
L 354.98195 273.589494 
L 355.415401 275.412847 
L 355.848851 270.173344 
L 356.282302 268.377292 
L 356.715753 268.457718 
L 357.149203 269.483532 
L 357.582654 271.97647 
L 358.016105 272.688531 
L 358.449555 276.025261 
L 358.883006 272.118269 
L 359.316457 271.451682 
L 359.749907 276.038936 
L 360.183358 270.791608 
L 360.616809 272.927317 
L 361.050259 274.431341 
L 361.48371 275.114298 
L 361.917161 269.365224 
L 362.350611 268.526756 
L 362.784062 268.604979 
L 363.217513 275.175281 
L 363.650963 269.645227 
L 364.084414 269.713556 
L 364.517865 274.940002 
L 364.951315 275.801941 
L 365.384766 271.456312 
L 365.818217 269.132293 
L 366.251667 268.309256 
L 366.685118 270.109928 
L 367.118569 268.467523 
L 367.552019 272.957657 
L 367.98547 271.75969 
L 368.418921 273.032254 
L 368.852371 270.423047 
L 369.285822 272.533017 
L 369.719273 268.924923 
L 370.152723 268.998682 
L 370.586174 271.380386 
L 371.019625 270.721264 
L 371.453075 272.735926 
L 371.886526 270.836526 
L 372.319977 272.814173 
L 372.753427 273.858244 
L 373.186878 272.313664 
L 373.620329 274.32805 
L 374.053779 270.398145 
L 374.920681 268.964288 
L 375.354131 273.575092 
L 375.787582 268.272633 
L 376.221033 269.961401 
L 376.654483 272.646948 
L 377.087934 272.686714 
L 377.521384 274.152918 
L 377.954835 272.765026 
L 378.388286 268.732522 
L 378.821736 272.284779 
L 379.255187 269.661727 
L 380.122088 269.793533 
L 380.555539 271.245921 
L 380.98899 273.512592 
L 381.42244 269.237837 
L 381.855891 268.519323 
L 382.289342 271.451841 
L 382.722792 268.669669 
L 383.156243 270.915431 
L 383.589694 268.817288 
L 384.023144 271.024707 
L 384.456595 271.698144 
L 384.890046 275.565953 
L 385.323496 270.534174 
L 385.756947 269.905044 
L 386.190398 271.288837 
L 386.190398 271.288837 
" clip-path="url(#p884f6be48a)" style="fill: none; stroke: #1f77b4; stroke-width: 0.7; stroke-linecap: square"/>
   </g>
   <g id="patch_3">
    <path d="M 45.303125 288.430125 
L 45.303125 22.318125 
" style="fill: none; stroke: #000000; stroke-width: 0.8; stroke-linejoin: miter; stroke-linecap: square"/>
   </g>
   <g id="patch_4">
    <path d="M 402.423125 288.430125 
L 402.423125 22.318125 
" style="fill: none; stroke: #000000; stroke-width: 0.8; stroke-linejoin: miter; stroke-linecap: square"/>
   </g>
   <g id="patch_5">
    <path d="M 45.303125 288.430125 
L 402.423125 288.430125 
" style="fill: none; stroke: #000000; stroke-width: 0.8; stroke-linejoin: miter; stroke-linecap: square"/>
   </g>
   <g id="patch_6">
    <path d="M 45.303125 22.318125 
L 402.423125 22.318125 
" style="fill: none; stroke: #000000; stroke-width: 0.8; stroke-linejoin: miter; stroke-linecap: square"/>
   </g>
   <g id="text_21">
    <!-- Planck emission at τ = 1 level for (H2O_CO2) -->
    <g transform="translate(88.005313 16.318125) scale(0.12 -0.12)">
     <defs>
      <path id="DejaVuSans-50" d="M 1259 4147 
L 1259 2394 
L 2053 2394 
Q 2494 2394 2734 2622 
Q 2975 2850 2975 3272 
Q 2975 3691 2734 3919 
Q 2494 4147 2053 4147 
L 1259 4147 
z
M 628 4666 
L 2053 4666 
Q 2838 4666 3239 4311 
Q 3641 3956 3641 3272 
Q 3641 2581 3239 2228 
Q 2838 1875 2053 1875 
L 1259 1875 
L 1259 0 
L 628 0 
L 628 4666 
z
" transform="scale(0.015625)"/>
      <path id="DejaVuSans-6b" d="M 581 4863 
L 1159 4863 
L 1159 1991 
L 2875 3500 
L 3609 3500 
L 1753 1863 
L 3688 0 
L 2938 0 
L 1159 1709 
L 1159 0 
L 581 0 
L 581 4863 
z
" transform="scale(0.015625)"/>
      <path id="DejaVuSans-6f" d="M 1959 3097 
Q 1497 3097 1228 2736 
Q 959 2375 959 1747 
Q 959 1119 1226 758 
Q 1494 397 1959 397 
Q 2419 397 2687 759 
Q 2956 1122 2956 1747 
Q 2956 2369 2687 2733 
Q 2419 3097 1959 3097 
z
M 1959 3584 
Q 2709 3584 3137 3096 
Q 3566 2609 3566 1747 
Q 3566 888 3137 398 
Q 2709 -91 1959 -91 
Q 1206 -91 779 398 
Q 353 888 353 1747 
Q 353 2609 779 3096 
Q 1206 3584 1959 3584 
z
" transform="scale(0.015625)"/>
      <path id="DejaVuSans-3c4" d="M 2319 638 
Q 2431 488 2769 488 
L 3047 488 
L 3047 0 
L 2700 0 
Q 2138 0 1881 300 
Q 1625 606 1625 1269 
L 1625 2925 
L 313 2925 
L 313 3500 
L 3541 3500 
L 3541 2925 
L 2213 2925 
L 2213 1234 
Q 2213 781 2319 638 
z
" transform="scale(0.015625)"/>
      <path id="DejaVuSans-3d" d="M 678 2906 
L 4684 2906 
L 4684 2381 
L 678 2381 
L 678 2906 
z
M 678 1631 
L 4684 1631 
L 4684 1100 
L 678 1100 
L 678 1631 
z
" transform="scale(0.015625)"/>
      <path id="DejaVuSans-76" d="M 191 3500 
L 800 3500 
L 1894 563 
L 2988 3500 
L 3597 3500 
L 2284 0 
L 1503 0 
L 191 3500 
z
" transform="scale(0.015625)"/>
      <path id="DejaVuSans-66" d="M 2375 4863 
L 2375 4384 
L 1825 4384 
Q 1516 4384 1395 4259 
Q 1275 4134 1275 3809 
L 1275 3500 
L 2222 3500 
L 2222 3053 
L 1275 3053 
L 1275 0 
L 697 0 
L 697 3053 
L 147 3053 
L 147 3500 
L 697 3500 
L 697 3744 
Q 697 4328 969 4595 
Q 1241 4863 1831 4863 
L 2375 4863 
z
" transform="scale(0.015625)"/>
      <path id="DejaVuSans-48" d="M 628 4666 
L 1259 4666 
L 1259 2753 
L 3553 2753 
L 3553 4666 
L 4184 4666 
L 4184 0 
L 3553 0 
L 3553 2222 
L 1259 2222 
L 1259 0 
L 628 0 
L 628 4666 
z
" transform="scale(0.015625)"/>
      <path id="DejaVuSans-4f" d="M 2522 4238 
Q 1834 4238 1429 3725 
Q 1025 3213 1025 2328 
Q 1025 1447 1429 934 
Q 1834 422 2522 422 
Q 3209 422 3611 934 
Q 4013 1447 4013 2328 
Q 4013 3213 3611 3725 
Q 3209 4238 2522 4238 
z
M 2522 4750 
Q 3503 4750 4090 4092 
Q 4678 3434 4678 2328 
Q 4678 1225 4090 567 
Q 3503 -91 2522 -91 
Q 1538 -91 948 565 
Q 359 1222 359 2328 
Q 359 3434 948 4092 
Q 1538 4750 2522 4750 
z
" transform="scale(0.015625)"/>
      <path id="DejaVuSans-5f" d="M 3263 -1063 
L 3263 -1509 
L -63 -1509 
L -63 -1063 
L 3263 -1063 
z
" transform="scale(0.015625)"/>
      <path id="DejaVuSans-43" d="M 4122 4306 
L 4122 3641 
Q 3803 3938 3442 4084 
Q 3081 4231 2675 4231 
Q 1875 4231 1450 3742 
Q 1025 3253 1025 2328 
Q 1025 1406 1450 917 
Q 1875 428 2675 428 
Q 3081 428 3442 575 
Q 3803 722 4122 1019 
L 4122 359 
Q 3791 134 3420 21 
Q 3050 -91 2638 -91 
Q 1578 -91 968 557 
Q 359 1206 359 2328 
Q 359 3453 968 4101 
Q 1578 4750 2638 4750 
Q 3056 4750 3426 4639 
Q 3797 4528 4122 4306 
z
" transform="scale(0.015625)"/>
     </defs>
     <use xlink:href="#DejaVuSans-50"/>
     <use xlink:href="#DejaVuSans-6c" transform="translate(60.302734 0)"/>
     <use xlink:href="#DejaVuSans-61" transform="translate(88.085938 0)"/>
     <use xlink:href="#DejaVuSans-6e" transform="translate(149.365234 0)"/>
     <use xlink:href="#DejaVuSans-63" transform="translate(212.744141 0)"/>
     <use xlink:href="#DejaVuSans-6b" transform="translate(267.724609 0)"/>
     <use xlink:href="#DejaVuSans-20" transform="translate(325.634766 0)"/>
     <use xlink:href="#DejaVuSans-65" transform="translate(357.421875 0)"/>
     <use xlink:href="#DejaVuSans-6d" transform="translate(418.945312 0)"/>
     <use xlink:href="#DejaVuSans-69" transform="translate(516.357422 0)"/>
     <use xlink:href="#DejaVuSans-73" transform="translate(544.140625 0)"/>
     <use xlink:href="#DejaVuSans-73" transform="translate(596.240234 0)"/>
     <use xlink:href="#DejaVuSans-69" transform="translate(648.339844 0)"/>
     <use xlink:href="#DejaVuSans-6f" transform="translate(676.123047 0)"/>
     <use xlink:href="#DejaVuSans-6e" transform="translate(737.304688 0)"/>
     <use xlink:href="#DejaVuSans-20" transform="translate(800.683594 0)"/>
     <use xlink:href="#DejaVuSans-61" transform="translate(832.470703 0)"/>
     <use xlink:href="#DejaVuSans-74" transform="translate(893.75 0)"/>
     <use xlink:href="#DejaVuSans-20" transform="translate(932.958984 0)"/>
     <use xlink:href="#DejaVuSans-3c4" transform="translate(964.746094 0)"/>
     <use xlink:href="#DejaVuSans-20" transform="translate(1024.951172 0)"/>
     <use xlink:href="#DejaVuSans-3d" transform="translate(1056.738281 0)"/>
     <use xlink:href="#DejaVuSans-20" transform="translate(1140.527344 0)"/>
     <use xlink:href="#DejaVuSans-31" transform="translate(1172.314453 0)"/>
     <use xlink:href="#DejaVuSans-20" transform="translate(1235.9375 0)"/>
     <use xlink:href="#DejaVuSans-6c" transform="translate(1267.724609 0)"/>
     <use xlink:href="#DejaVuSans-65" transform="translate(1295.507812 0)"/>
     <use xlink:href="#DejaVuSans-76" transform="translate(1357.03125 0)"/>
     <use xlink:href="#DejaVuSans-65" transform="translate(1416.210938 0)"/>
     <use xlink:href="#DejaVuSans-6c" transform="translate(1477.734375 0)"/>
     <use xlink:href="#DejaVuSans-20" transform="translate(1505.517578 0)"/>
     <use xlink:href="#DejaVuSans-66" transform="translate(1537.304688 0)"/>
     <use xlink:href="#DejaVuSans-6f" transform="translate(1572.509766 0)"/>
     <use xlink:href="#DejaVuSans-72" transform="translate(1633.691406 0)"/>
     <use xlink:href="#DejaVuSans-20" transform="translate(1674.804688 0)"/>
     <use xlink:href="#DejaVuSans-28" transform="translate(1706.591797 0)"/>
     <use xlink:href="#DejaVuSans-48" transform="translate(1745.605469 0)"/>
     <use xlink:href="#DejaVuSans-32" transform="translate(1820.800781 0)"/>
     <use xlink:href="#DejaVuSans-4f" transform="translate(1884.423828 0)"/>
     <use xlink:href="#DejaVuSans-5f" transform="translate(1963.134766 0)"/>
     <use xlink:href="#DejaVuSans-43" transform="translate(2013.134766 0)"/>
     <use xlink:href="#DejaVuSans-4f" transform="translate(2082.958984 0)"/>
     <use xlink:href="#DejaVuSans-32" transform="translate(2161.669922 0)"/>
     <use xlink:href="#DejaVuSans-29" transform="translate(2225.292969 0)"/>
    </g>
   </g>
  </g>
 </g>
 <defs>
  <clipPath id="p884f6be48a">
   <rect x="45.303125" y="22.318125" width="357.12" height="266.112"/>
  </clipPath>
 </defs>
</svg>
