<?xml version="1.0" encoding="utf-8" standalone="no"?>
<!DOCTYPE svg PUBLIC "-//W3C//DTD SVG 1.1//EN"
  "http://www.w3.org/Graphics/SVG/1.1/DTD/svg11.dtd">
<svg xmlns:xlink="http://www.w3.org/1999/xlink" width="409.623125pt" height="327.40825pt" viewBox="0 0 409.623125 327.40825" xmlns="http://www.w3.org/2000/svg" version="1.1">
 <metadata>
  <rdf:RDF xmlns:dc="http://purl.org/dc/elements/1.1/" xmlns:cc="http://creativecommons.org/ns#" xmlns:rdf="http://www.w3.org/1999/02/22-rdf-syntax-ns#">
   <cc:Work>
    <dc:type rdf:resource="http://purl.org/dc/dcmitype/StillImage"/>
    <dc:date>2026-01-22T21:37:23.882104</dc:date>
    <dc:format>image/svg+xml</dc:format>
    <dc:creator>
     <cc:Agent>
      <dc:title>Matplotlib v3.10.6, https://matplotlib.org/</dc:title>
     </cc:Agent>
    </dc:creator>
   </cc:Work>
  </rdf:RDF>
 </metadata>
 <defs>
  <style type="text/css">*{stroke-linejoin: round; stroke-linecap: butt}</style>
 </defs>
 <g id="figure_1">
  <g id="patch_1">
   <path d="M 0 327.40825 
L 409.623125 327.40825 
L 409.623125 0 
L 0 0 
z
" style="fill: #ffffff"/>
  </g>
  <g id="axes_1">
   <g id="patch_2">
    <path d="M 45.303125 288.430125 
L 402.423125 288.430125 
L 402.423125 22.318125 
L 45.303125 22.318125 
z
" style="fill: #ffffff"/>
   </g>
   <g id="matplotlib.axis_1">
    <g id="xtick_1">
     <g id="line2d_1">
      <path d="M 61.373444 288.430125 
L 61.373444 22.318125 
" clip-path="url(#pb403f64b4a)" style="fill: none; stroke: #808080; stroke-width: 0.3; stroke-linecap: square"/>
     </g>
     <g id="line2d_2">
      <defs>
       <path id="m7588bd2e69" d="M 0 0 
L 0 3.5 
" style="stroke: #000000; stroke-width: 0.8"/>
      </defs>
      <g>
       <use xlink:href="#m7588bd2e69" x="61.373444" y="288.430125" style="stroke: #000000; stroke-width: 0.8"/>
      </g>
     </g>
     <g id="text_1">
      <!-- 0 -->
      <g transform="translate(58.192194 303.028562) scale(0.1 -0.1)">
       <defs>
        <path id="DejaVuSans-30" d="M 2034 4250 
Q 1547 4250 1301 3770 
Q 1056 3291 1056 2328 
Q 1056 1369 1301 889 
Q 1547 409 2034 409 
Q 2525 409 2770 889 
Q 3016 1369 3016 2328 
Q 3016 3291 2770 3770 
Q 2525 4250 2034 4250 
z
M 2034 4750 
Q 2819 4750 3233 4129 
Q 3647 3509 3647 2328 
Q 3647 1150 3233 529 
Q 2819 -91 2034 -91 
Q 1250 -91 836 529 
Q 422 1150 422 2328 
Q 422 3509 836 4129 
Q 1250 4750 2034 4750 
z
" transform="scale(0.015625)"/>
       </defs>
       <use xlink:href="#DejaVuSans-30"/>
      </g>
     </g>
    </g>
    <g id="xtick_2">
     <g id="line2d_3">
      <path d="M 101.975563 288.430125 
L 101.975563 22.318125 
" clip-path="url(#pb403f64b4a)" style="fill: none; stroke: #808080; stroke-width: 0.3; stroke-linecap: square"/>
     </g>
     <g id="line2d_4">
      <g>
       <use xlink:href="#m7588bd2e69" x="101.975563" y="288.430125" style="stroke: #000000; stroke-width: 0.8"/>
      </g>
     </g>
     <g id="text_2">
      <!-- 250 -->
      <g transform="translate(92.431813 303.028562) scale(0.1 -0.1)">
       <defs>
        <path id="DejaVuSans-32" d="M 1228 531 
L 3431 531 
L 3431 0 
L 469 0 
L 469 531 
Q 828 903 1448 1529 
Q 2069 2156 2228 2338 
Q 2531 2678 2651 2914 
Q 2772 3150 2772 3378 
Q 2772 3750 2511 3984 
Q 2250 4219 1831 4219 
Q 1534 4219 1204 4116 
Q 875 4013 500 3803 
L 500 4441 
Q 881 4594 1212 4672 
Q 1544 4750 1819 4750 
Q 2544 4750 2975 4387 
Q 3406 4025 3406 3419 
Q 3406 3131 3298 2873 
Q 3191 2616 2906 2266 
Q 2828 2175 2409 1742 
Q 1991 1309 1228 531 
z
" transform="scale(0.015625)"/>
        <path id="DejaVuSans-35" d="M 691 4666 
L 3169 4666 
L 3169 4134 
L 1269 4134 
L 1269 2991 
Q 1406 3038 1543 3061 
Q 1681 3084 1819 3084 
Q 2600 3084 3056 2656 
Q 3513 2228 3513 1497 
Q 3513 744 3044 326 
Q 2575 -91 1722 -91 
Q 1428 -91 1123 -41 
Q 819 9 494 109 
L 494 744 
Q 775 591 1075 516 
Q 1375 441 1709 441 
Q 2250 441 2565 725 
Q 2881 1009 2881 1497 
Q 2881 1984 2565 2268 
Q 2250 2553 1709 2553 
Q 1456 2553 1204 2497 
Q 953 2441 691 2322 
L 691 4666 
z
" transform="scale(0.015625)"/>
       </defs>
       <use xlink:href="#DejaVuSans-32"/>
       <use xlink:href="#DejaVuSans-35" transform="translate(63.623047 0)"/>
       <use xlink:href="#DejaVuSans-30" transform="translate(127.246094 0)"/>
      </g>
     </g>
    </g>
    <g id="xtick_3">
     <g id="line2d_5">
      <path d="M 142.577682 288.430125 
L 142.577682 22.318125 
" clip-path="url(#pb403f64b4a)" style="fill: none; stroke: #808080; stroke-width: 0.3; stroke-linecap: square"/>
     </g>
     <g id="line2d_6">
      <g>
       <use xlink:href="#m7588bd2e69" x="142.577682" y="288.430125" style="stroke: #000000; stroke-width: 0.8"/>
      </g>
     </g>
     <g id="text_3">
      <!-- 500 -->
      <g transform="translate(133.033932 303.028562) scale(0.1 -0.1)">
       <use xlink:href="#DejaVuSans-35"/>
       <use xlink:href="#DejaVuSans-30" transform="translate(63.623047 0)"/>
       <use xlink:href="#DejaVuSans-30" transform="translate(127.246094 0)"/>
      </g>
     </g>
    </g>
    <g id="xtick_4">
     <g id="line2d_7">
      <path d="M 183.179802 288.430125 
L 183.179802 22.318125 
" clip-path="url(#pb403f64b4a)" style="fill: none; stroke: #808080; stroke-width: 0.3; stroke-linecap: square"/>
     </g>
     <g id="line2d_8">
      <g>
       <use xlink:href="#m7588bd2e69" x="183.179802" y="288.430125" style="stroke: #000000; stroke-width: 0.8"/>
      </g>
     </g>
     <g id="text_4">
      <!-- 750 -->
      <g transform="translate(173.636052 303.028562) scale(0.1 -0.1)">
       <defs>
        <path id="DejaVuSans-37" d="M 525 4666 
L 3525 4666 
L 3525 4397 
L 1831 0 
L 1172 0 
L 2766 4134 
L 525 4134 
L 525 4666 
z
" transform="scale(0.015625)"/>
       </defs>
       <use xlink:href="#DejaVuSans-37"/>
       <use xlink:href="#DejaVuSans-35" transform="translate(63.623047 0)"/>
       <use xlink:href="#DejaVuSans-30" transform="translate(127.246094 0)"/>
      </g>
     </g>
    </g>
    <g id="xtick_5">
     <g id="line2d_9">
      <path d="M 223.781921 288.430125 
L 223.781921 22.318125 
" clip-path="url(#pb403f64b4a)" style="fill: none; stroke: #808080; stroke-width: 0.3; stroke-linecap: square"/>
     </g>
     <g id="line2d_10">
      <g>
       <use xlink:href="#m7588bd2e69" x="223.781921" y="288.430125" style="stroke: #000000; stroke-width: 0.8"/>
      </g>
     </g>
     <g id="text_5">
      <!-- 1000 -->
      <g transform="translate(211.056921 303.028562) scale(0.1 -0.1)">
       <defs>
        <path id="DejaVuSans-31" d="M 794 531 
L 1825 531 
L 1825 4091 
L 703 3866 
L 703 4441 
L 1819 4666 
L 2450 4666 
L 2450 531 
L 3481 531 
L 3481 0 
L 794 0 
L 794 531 
z
" transform="scale(0.015625)"/>
       </defs>
       <use xlink:href="#DejaVuSans-31"/>
       <use xlink:href="#DejaVuSans-30" transform="translate(63.623047 0)"/>
       <use xlink:href="#DejaVuSans-30" transform="translate(127.246094 0)"/>
       <use xlink:href="#DejaVuSans-30" transform="translate(190.869141 0)"/>
      </g>
     </g>
    </g>
    <g id="xtick_6">
     <g id="line2d_11">
      <path d="M 264.38404 288.430125 
L 264.38404 22.318125 
" clip-path="url(#pb403f64b4a)" style="fill: none; stroke: #808080; stroke-width: 0.3; stroke-linecap: square"/>
     </g>
     <g id="line2d_12">
      <g>
       <use xlink:href="#m7588bd2e69" x="264.38404" y="288.430125" style="stroke: #000000; stroke-width: 0.8"/>
      </g>
     </g>
     <g id="text_6">
      <!-- 1250 -->
      <g transform="translate(251.65904 303.028562) scale(0.1 -0.1)">
       <use xlink:href="#DejaVuSans-31"/>
       <use xlink:href="#DejaVuSans-32" transform="translate(63.623047 0)"/>
       <use xlink:href="#DejaVuSans-35" transform="translate(127.246094 0)"/>
       <use xlink:href="#DejaVuSans-30" transform="translate(190.869141 0)"/>
      </g>
     </g>
    </g>
    <g id="xtick_7">
     <g id="line2d_13">
      <path d="M 304.986159 288.430125 
L 304.986159 22.318125 
" clip-path="url(#pb403f64b4a)" style="fill: none; stroke: #808080; stroke-width: 0.3; stroke-linecap: square"/>
     </g>
     <g id="line2d_14">
      <g>
       <use xlink:href="#m7588bd2e69" x="304.986159" y="288.430125" style="stroke: #000000; stroke-width: 0.8"/>
      </g>
     </g>
     <g id="text_7">
      <!-- 1500 -->
      <g transform="translate(292.261159 303.028562) scale(0.1 -0.1)">
       <use xlink:href="#DejaVuSans-31"/>
       <use xlink:href="#DejaVuSans-35" transform="translate(63.623047 0)"/>
       <use xlink:href="#DejaVuSans-30" transform="translate(127.246094 0)"/>
       <use xlink:href="#DejaVuSans-30" transform="translate(190.869141 0)"/>
      </g>
     </g>
    </g>
    <g id="xtick_8">
     <g id="line2d_15">
      <path d="M 345.588278 288.430125 
L 345.588278 22.318125 
" clip-path="url(#pb403f64b4a)" style="fill: none; stroke: #808080; stroke-width: 0.3; stroke-linecap: square"/>
     </g>
     <g id="line2d_16">
      <g>
       <use xlink:href="#m7588bd2e69" x="345.588278" y="288.430125" style="stroke: #000000; stroke-width: 0.8"/>
      </g>
     </g>
     <g id="text_8">
      <!-- 1750 -->
      <g transform="translate(332.863278 303.028562) scale(0.1 -0.1)">
       <use xlink:href="#DejaVuSans-31"/>
       <use xlink:href="#DejaVuSans-37" transform="translate(63.623047 0)"/>
       <use xlink:href="#DejaVuSans-35" transform="translate(127.246094 0)"/>
       <use xlink:href="#DejaVuSans-30" transform="translate(190.869141 0)"/>
      </g>
     </g>
    </g>
    <g id="xtick_9">
     <g id="line2d_17">
      <path d="M 386.190398 288.430125 
L 386.190398 22.318125 
" clip-path="url(#pb403f64b4a)" style="fill: none; stroke: #808080; stroke-width: 0.3; stroke-linecap: square"/>
     </g>
     <g id="line2d_18">
      <g>
       <use xlink:href="#m7588bd2e69" x="386.190398" y="288.430125" style="stroke: #000000; stroke-width: 0.8"/>
      </g>
     </g>
     <g id="text_9">
      <!-- 2000 -->
      <g transform="translate(373.465398 303.028562) scale(0.1 -0.1)">
       <use xlink:href="#DejaVuSans-32"/>
       <use xlink:href="#DejaVuSans-30" transform="translate(63.623047 0)"/>
       <use xlink:href="#DejaVuSans-30" transform="translate(127.246094 0)"/>
       <use xlink:href="#DejaVuSans-30" transform="translate(190.869141 0)"/>
      </g>
     </g>
    </g>
    <g id="text_10">
     <!-- Frequency / Kayser (cm$^{-1}$) -->
     <g transform="translate(157.163125 318.10825) scale(0.1 -0.1)">
      <defs>
       <path id="DejaVuSans-46" d="M 628 4666 
L 3309 4666 
L 3309 4134 
L 1259 4134 
L 1259 2759 
L 3109 2759 
L 3109 2228 
L 1259 2228 
L 1259 0 
L 628 0 
L 628 4666 
z
" transform="scale(0.015625)"/>
       <path id="DejaVuSans-72" d="M 2631 2963 
Q 2534 3019 2420 3045 
Q 2306 3072 2169 3072 
Q 1681 3072 1420 2755 
Q 1159 2438 1159 1844 
L 1159 0 
L 581 0 
L 581 3500 
L 1159 3500 
L 1159 2956 
Q 1341 3275 1631 3429 
Q 1922 3584 2338 3584 
Q 2397 3584 2469 3576 
Q 2541 3569 2628 3553 
L 2631 2963 
z
" transform="scale(0.015625)"/>
       <path id="DejaVuSans-65" d="M 3597 1894 
L 3597 1613 
L 953 1613 
Q 991 1019 1311 708 
Q 1631 397 2203 397 
Q 2534 397 2845 478 
Q 3156 559 3463 722 
L 3463 178 
Q 3153 47 2828 -22 
Q 2503 -91 2169 -91 
Q 1331 -91 842 396 
Q 353 884 353 1716 
Q 353 2575 817 3079 
Q 1281 3584 2069 3584 
Q 2775 3584 3186 3129 
Q 3597 2675 3597 1894 
z
M 3022 2063 
Q 3016 2534 2758 2815 
Q 2500 3097 2075 3097 
Q 1594 3097 1305 2825 
Q 1016 2553 972 2059 
L 3022 2063 
z
" transform="scale(0.015625)"/>
       <path id="DejaVuSans-71" d="M 947 1747 
Q 947 1113 1208 752 
Q 1469 391 1925 391 
Q 2381 391 2643 752 
Q 2906 1113 2906 1747 
Q 2906 2381 2643 2742 
Q 2381 3103 1925 3103 
Q 1469 3103 1208 2742 
Q 947 2381 947 1747 
z
M 2906 525 
Q 2725 213 2448 61 
Q 2172 -91 1784 -91 
Q 1150 -91 751 415 
Q 353 922 353 1747 
Q 353 2572 751 3078 
Q 1150 3584 1784 3584 
Q 2172 3584 2448 3432 
Q 2725 3281 2906 2969 
L 2906 3500 
L 3481 3500 
L 3481 -1331 
L 2906 -1331 
L 2906 525 
z
" transform="scale(0.015625)"/>
       <path id="DejaVuSans-75" d="M 544 1381 
L 544 3500 
L 1119 3500 
L 1119 1403 
Q 1119 906 1312 657 
Q 1506 409 1894 409 
Q 2359 409 2629 706 
Q 2900 1003 2900 1516 
L 2900 3500 
L 3475 3500 
L 3475 0 
L 2900 0 
L 2900 538 
Q 2691 219 2414 64 
Q 2138 -91 1772 -91 
Q 1169 -91 856 284 
Q 544 659 544 1381 
z
M 1991 3584 
L 1991 3584 
z
" transform="scale(0.015625)"/>
       <path id="DejaVuSans-6e" d="M 3513 2113 
L 3513 0 
L 2938 0 
L 2938 2094 
Q 2938 2591 2744 2837 
Q 2550 3084 2163 3084 
Q 1697 3084 1428 2787 
Q 1159 2491 1159 1978 
L 1159 0 
L 581 0 
L 581 3500 
L 1159 3500 
L 1159 2956 
Q 1366 3272 1645 3428 
Q 1925 3584 2291 3584 
Q 2894 3584 3203 3211 
Q 3513 2838 3513 2113 
z
" transform="scale(0.015625)"/>
       <path id="DejaVuSans-63" d="M 3122 3366 
L 3122 2828 
Q 2878 2963 2633 3030 
Q 2388 3097 2138 3097 
Q 1578 3097 1268 2742 
Q 959 2388 959 1747 
Q 959 1106 1268 751 
Q 1578 397 2138 397 
Q 2388 397 2633 464 
Q 2878 531 3122 666 
L 3122 134 
Q 2881 22 2623 -34 
Q 2366 -91 2075 -91 
Q 1284 -91 818 406 
Q 353 903 353 1747 
Q 353 2603 823 3093 
Q 1294 3584 2113 3584 
Q 2378 3584 2631 3529 
Q 2884 3475 3122 3366 
z
" transform="scale(0.015625)"/>
       <path id="DejaVuSans-79" d="M 2059 -325 
Q 1816 -950 1584 -1140 
Q 1353 -1331 966 -1331 
L 506 -1331 
L 506 -850 
L 844 -850 
Q 1081 -850 1212 -737 
Q 1344 -625 1503 -206 
L 1606 56 
L 191 3500 
L 800 3500 
L 1894 763 
L 2988 3500 
L 3597 3500 
L 2059 -325 
z
" transform="scale(0.015625)"/>
       <path id="DejaVuSans-20" transform="scale(0.015625)"/>
       <path id="DejaVuSans-2f" d="M 1625 4666 
L 2156 4666 
L 531 -594 
L 0 -594 
L 1625 4666 
z
" transform="scale(0.015625)"/>
       <path id="DejaVuSans-4b" d="M 628 4666 
L 1259 4666 
L 1259 2694 
L 3353 4666 
L 4166 4666 
L 1850 2491 
L 4331 0 
L 3500 0 
L 1259 2247 
L 1259 0 
L 628 0 
L 628 4666 
z
" transform="scale(0.015625)"/>
       <path id="DejaVuSans-61" d="M 2194 1759 
Q 1497 1759 1228 1600 
Q 959 1441 959 1056 
Q 959 750 1161 570 
Q 1363 391 1709 391 
Q 2188 391 2477 730 
Q 2766 1069 2766 1631 
L 2766 1759 
L 2194 1759 
z
M 3341 1997 
L 3341 0 
L 2766 0 
L 2766 531 
Q 2569 213 2275 61 
Q 1981 -91 1556 -91 
Q 1019 -91 701 211 
Q 384 513 384 1019 
Q 384 1609 779 1909 
Q 1175 2209 1959 2209 
L 2766 2209 
L 2766 2266 
Q 2766 2663 2505 2880 
Q 2244 3097 1772 3097 
Q 1472 3097 1187 3025 
Q 903 2953 641 2809 
L 641 3341 
Q 956 3463 1253 3523 
Q 1550 3584 1831 3584 
Q 2591 3584 2966 3190 
Q 3341 2797 3341 1997 
z
" transform="scale(0.015625)"/>
       <path id="DejaVuSans-73" d="M 2834 3397 
L 2834 2853 
Q 2591 2978 2328 3040 
Q 2066 3103 1784 3103 
Q 1356 3103 1142 2972 
Q 928 2841 928 2578 
Q 928 2378 1081 2264 
Q 1234 2150 1697 2047 
L 1894 2003 
Q 2506 1872 2764 1633 
Q 3022 1394 3022 966 
Q 3022 478 2636 193 
Q 2250 -91 1575 -91 
Q 1294 -91 989 -36 
Q 684 19 347 128 
L 347 722 
Q 666 556 975 473 
Q 1284 391 1588 391 
Q 1994 391 2212 530 
Q 2431 669 2431 922 
Q 2431 1156 2273 1281 
Q 2116 1406 1581 1522 
L 1381 1569 
Q 847 1681 609 1914 
Q 372 2147 372 2553 
Q 372 3047 722 3315 
Q 1072 3584 1716 3584 
Q 2034 3584 2315 3537 
Q 2597 3491 2834 3397 
z
" transform="scale(0.015625)"/>
       <path id="DejaVuSans-28" d="M 1984 4856 
Q 1566 4138 1362 3434 
Q 1159 2731 1159 2009 
Q 1159 1288 1364 580 
Q 1569 -128 1984 -844 
L 1484 -844 
Q 1016 -109 783 600 
Q 550 1309 550 2009 
Q 550 2706 781 3412 
Q 1013 4119 1484 4856 
L 1984 4856 
z
" transform="scale(0.015625)"/>
       <path id="DejaVuSans-6d" d="M 3328 2828 
Q 3544 3216 3844 3400 
Q 4144 3584 4550 3584 
Q 5097 3584 5394 3201 
Q 5691 2819 5691 2113 
L 5691 0 
L 5113 0 
L 5113 2094 
Q 5113 2597 4934 2840 
Q 4756 3084 4391 3084 
Q 3944 3084 3684 2787 
Q 3425 2491 3425 1978 
L 3425 0 
L 2847 0 
L 2847 2094 
Q 2847 2600 2669 2842 
Q 2491 3084 2119 3084 
Q 1678 3084 1418 2786 
Q 1159 2488 1159 1978 
L 1159 0 
L 581 0 
L 581 3500 
L 1159 3500 
L 1159 2956 
Q 1356 3278 1631 3431 
Q 1906 3584 2284 3584 
Q 2666 3584 2933 3390 
Q 3200 3197 3328 2828 
z
" transform="scale(0.015625)"/>
       <path id="DejaVuSans-2212" d="M 678 2272 
L 4684 2272 
L 4684 1741 
L 678 1741 
L 678 2272 
z
" transform="scale(0.015625)"/>
       <path id="DejaVuSans-29" d="M 513 4856 
L 1013 4856 
Q 1481 4119 1714 3412 
Q 1947 2706 1947 2009 
Q 1947 1309 1714 600 
Q 1481 -109 1013 -844 
L 513 -844 
Q 928 -128 1133 580 
Q 1338 1288 1338 2009 
Q 1338 2731 1133 3434 
Q 928 4138 513 4856 
z
" transform="scale(0.015625)"/>
      </defs>
      <use xlink:href="#DejaVuSans-46" transform="translate(0 0.684375)"/>
      <use xlink:href="#DejaVuSans-72" transform="translate(57.519531 0.684375)"/>
      <use xlink:href="#DejaVuSans-65" transform="translate(98.632812 0.684375)"/>
      <use xlink:href="#DejaVuSans-71" transform="translate(160.15625 0.684375)"/>
      <use xlink:href="#DejaVuSans-75" transform="translate(223.632812 0.684375)"/>
      <use xlink:href="#DejaVuSans-65" transform="translate(287.011719 0.684375)"/>
      <use xlink:href="#DejaVuSans-6e" transform="translate(348.535156 0.684375)"/>
      <use xlink:href="#DejaVuSans-63" transform="translate(411.914062 0.684375)"/>
      <use xlink:href="#DejaVuSans-79" transform="translate(466.894531 0.684375)"/>
      <use xlink:href="#DejaVuSans-20" transform="translate(526.074219 0.684375)"/>
      <use xlink:href="#DejaVuSans-2f" transform="translate(557.861328 0.684375)"/>
      <use xlink:href="#DejaVuSans-20" transform="translate(591.552734 0.684375)"/>
      <use xlink:href="#DejaVuSans-4b" transform="translate(623.339844 0.684375)"/>
      <use xlink:href="#DejaVuSans-61" transform="translate(688.916016 0.684375)"/>
      <use xlink:href="#DejaVuSans-79" transform="translate(750.195312 0.684375)"/>
      <use xlink:href="#DejaVuSans-73" transform="translate(809.375 0.684375)"/>
      <use xlink:href="#DejaVuSans-65" transform="translate(861.474609 0.684375)"/>
      <use xlink:href="#DejaVuSans-72" transform="translate(922.998047 0.684375)"/>
      <use xlink:href="#DejaVuSans-20" transform="translate(964.111328 0.684375)"/>
      <use xlink:href="#DejaVuSans-28" transform="translate(995.898438 0.684375)"/>
      <use xlink:href="#DejaVuSans-63" transform="translate(1034.912109 0.684375)"/>
      <use xlink:href="#DejaVuSans-6d" transform="translate(1089.892578 0.684375)"/>
      <use xlink:href="#DejaVuSans-2212" transform="translate(1188.261719 38.965625) scale(0.7)"/>
      <use xlink:href="#DejaVuSans-31" transform="translate(1246.914062 38.965625) scale(0.7)"/>
      <use xlink:href="#DejaVuSans-29" transform="translate(1294.18457 0.684375)"/>
     </g>
    </g>
   </g>
   <g id="matplotlib.axis_2">
    <g id="ytick_1">
     <g id="line2d_19">
      <path d="M 45.303125 276.339401 
L 402.423125 276.339401 
" clip-path="url(#pb403f64b4a)" style="fill: none; stroke: #808080; stroke-width: 0.3; stroke-linecap: square"/>
     </g>
     <g id="line2d_20">
      <defs>
       <path id="m4a0f42230b" d="M 0 0 
L -3.5 0 
" style="stroke: #000000; stroke-width: 0.8"/>
      </defs>
      <g>
       <use xlink:href="#m4a0f42230b" x="45.303125" y="276.339401" style="stroke: #000000; stroke-width: 0.8"/>
      </g>
     </g>
     <g id="text_11">
      <!-- 0.0 -->
      <g transform="translate(22.4 280.138619) scale(0.1 -0.1)">
       <defs>
        <path id="DejaVuSans-2e" d="M 684 794 
L 1344 794 
L 1344 0 
L 684 0 
L 684 794 
z
" transform="scale(0.015625)"/>
       </defs>
       <use xlink:href="#DejaVuSans-30"/>
       <use xlink:href="#DejaVuSans-2e" transform="translate(63.623047 0)"/>
       <use xlink:href="#DejaVuSans-30" transform="translate(95.410156 0)"/>
      </g>
     </g>
    </g>
    <g id="ytick_2">
     <g id="line2d_21">
      <path d="M 45.303125 243.316846 
L 402.423125 243.316846 
" clip-path="url(#pb403f64b4a)" style="fill: none; stroke: #808080; stroke-width: 0.3; stroke-linecap: square"/>
     </g>
     <g id="line2d_22">
      <g>
       <use xlink:href="#m4a0f42230b" x="45.303125" y="243.316846" style="stroke: #000000; stroke-width: 0.8"/>
      </g>
     </g>
     <g id="text_12">
      <!-- 0.5 -->
      <g transform="translate(22.4 247.116064) scale(0.1 -0.1)">
       <use xlink:href="#DejaVuSans-30"/>
       <use xlink:href="#DejaVuSans-2e" transform="translate(63.623047 0)"/>
       <use xlink:href="#DejaVuSans-35" transform="translate(95.410156 0)"/>
      </g>
     </g>
    </g>
    <g id="ytick_3">
     <g id="line2d_23">
      <path d="M 45.303125 210.29429 
L 402.423125 210.29429 
" clip-path="url(#pb403f64b4a)" style="fill: none; stroke: #808080; stroke-width: 0.3; stroke-linecap: square"/>
     </g>
     <g id="line2d_24">
      <g>
       <use xlink:href="#m4a0f42230b" x="45.303125" y="210.29429" style="stroke: #000000; stroke-width: 0.8"/>
      </g>
     </g>
     <g id="text_13">
      <!-- 1.0 -->
      <g transform="translate(22.4 214.093509) scale(0.1 -0.1)">
       <use xlink:href="#DejaVuSans-31"/>
       <use xlink:href="#DejaVuSans-2e" transform="translate(63.623047 0)"/>
       <use xlink:href="#DejaVuSans-30" transform="translate(95.410156 0)"/>
      </g>
     </g>
    </g>
    <g id="ytick_4">
     <g id="line2d_25">
      <path d="M 45.303125 177.271735 
L 402.423125 177.271735 
" clip-path="url(#pb403f64b4a)" style="fill: none; stroke: #808080; stroke-width: 0.3; stroke-linecap: square"/>
     </g>
     <g id="line2d_26">
      <g>
       <use xlink:href="#m4a0f42230b" x="45.303125" y="177.271735" style="stroke: #000000; stroke-width: 0.8"/>
      </g>
     </g>
     <g id="text_14">
      <!-- 1.5 -->
      <g transform="translate(22.4 181.070954) scale(0.1 -0.1)">
       <use xlink:href="#DejaVuSans-31"/>
       <use xlink:href="#DejaVuSans-2e" transform="translate(63.623047 0)"/>
       <use xlink:href="#DejaVuSans-35" transform="translate(95.410156 0)"/>
      </g>
     </g>
    </g>
    <g id="ytick_5">
     <g id="line2d_27">
      <path d="M 45.303125 144.24918 
L 402.423125 144.24918 
" clip-path="url(#pb403f64b4a)" style="fill: none; stroke: #808080; stroke-width: 0.3; stroke-linecap: square"/>
     </g>
     <g id="line2d_28">
      <g>
       <use xlink:href="#m4a0f42230b" x="45.303125" y="144.24918" style="stroke: #000000; stroke-width: 0.8"/>
      </g>
     </g>
     <g id="text_15">
      <!-- 2.0 -->
      <g transform="translate(22.4 148.048399) scale(0.1 -0.1)">
       <use xlink:href="#DejaVuSans-32"/>
       <use xlink:href="#DejaVuSans-2e" transform="translate(63.623047 0)"/>
       <use xlink:href="#DejaVuSans-30" transform="translate(95.410156 0)"/>
      </g>
     </g>
    </g>
    <g id="ytick_6">
     <g id="line2d_29">
      <path d="M 45.303125 111.226625 
L 402.423125 111.226625 
" clip-path="url(#pb403f64b4a)" style="fill: none; stroke: #808080; stroke-width: 0.3; stroke-linecap: square"/>
     </g>
     <g id="line2d_30">
      <g>
       <use xlink:href="#m4a0f42230b" x="45.303125" y="111.226625" style="stroke: #000000; stroke-width: 0.8"/>
      </g>
     </g>
     <g id="text_16">
      <!-- 2.5 -->
      <g transform="translate(22.4 115.025844) scale(0.1 -0.1)">
       <use xlink:href="#DejaVuSans-32"/>
       <use xlink:href="#DejaVuSans-2e" transform="translate(63.623047 0)"/>
       <use xlink:href="#DejaVuSans-35" transform="translate(95.410156 0)"/>
      </g>
     </g>
    </g>
    <g id="ytick_7">
     <g id="line2d_31">
      <path d="M 45.303125 78.20407 
L 402.423125 78.20407 
" clip-path="url(#pb403f64b4a)" style="fill: none; stroke: #808080; stroke-width: 0.3; stroke-linecap: square"/>
     </g>
     <g id="line2d_32">
      <g>
       <use xlink:href="#m4a0f42230b" x="45.303125" y="78.20407" style="stroke: #000000; stroke-width: 0.8"/>
      </g>
     </g>
     <g id="text_17">
      <!-- 3.0 -->
      <g transform="translate(22.4 82.003289) scale(0.1 -0.1)">
       <defs>
        <path id="DejaVuSans-33" d="M 2597 2516 
Q 3050 2419 3304 2112 
Q 3559 1806 3559 1356 
Q 3559 666 3084 287 
Q 2609 -91 1734 -91 
Q 1441 -91 1130 -33 
Q 819 25 488 141 
L 488 750 
Q 750 597 1062 519 
Q 1375 441 1716 441 
Q 2309 441 2620 675 
Q 2931 909 2931 1356 
Q 2931 1769 2642 2001 
Q 2353 2234 1838 2234 
L 1294 2234 
L 1294 2753 
L 1863 2753 
Q 2328 2753 2575 2939 
Q 2822 3125 2822 3475 
Q 2822 3834 2567 4026 
Q 2313 4219 1838 4219 
Q 1578 4219 1281 4162 
Q 984 4106 628 3988 
L 628 4550 
Q 988 4650 1302 4700 
Q 1616 4750 1894 4750 
Q 2613 4750 3031 4423 
Q 3450 4097 3450 3541 
Q 3450 3153 3228 2886 
Q 3006 2619 2597 2516 
z
" transform="scale(0.015625)"/>
       </defs>
       <use xlink:href="#DejaVuSans-33"/>
       <use xlink:href="#DejaVuSans-2e" transform="translate(63.623047 0)"/>
       <use xlink:href="#DejaVuSans-30" transform="translate(95.410156 0)"/>
      </g>
     </g>
    </g>
    <g id="ytick_8">
     <g id="line2d_33">
      <path d="M 45.303125 45.181515 
L 402.423125 45.181515 
" clip-path="url(#pb403f64b4a)" style="fill: none; stroke: #808080; stroke-width: 0.3; stroke-linecap: square"/>
     </g>
     <g id="line2d_34">
      <g>
       <use xlink:href="#m4a0f42230b" x="45.303125" y="45.181515" style="stroke: #000000; stroke-width: 0.8"/>
      </g>
     </g>
     <g id="text_18">
      <!-- 3.5 -->
      <g transform="translate(22.4 48.980734) scale(0.1 -0.1)">
       <use xlink:href="#DejaVuSans-33"/>
       <use xlink:href="#DejaVuSans-2e" transform="translate(63.623047 0)"/>
       <use xlink:href="#DejaVuSans-35" transform="translate(95.410156 0)"/>
      </g>
     </g>
    </g>
    <g id="text_19">
     <!-- Spectral radiance ($Wm^{-2}sr^{-1}Hz^{-1}$) -->
     <g transform="translate(16.3 242.274125) rotate(-90) scale(0.1 -0.1)">
      <defs>
       <path id="DejaVuSans-53" d="M 3425 4513 
L 3425 3897 
Q 3066 4069 2747 4153 
Q 2428 4238 2131 4238 
Q 1616 4238 1336 4038 
Q 1056 3838 1056 3469 
Q 1056 3159 1242 3001 
Q 1428 2844 1947 2747 
L 2328 2669 
Q 3034 2534 3370 2195 
Q 3706 1856 3706 1288 
Q 3706 609 3251 259 
Q 2797 -91 1919 -91 
Q 1588 -91 1214 -16 
Q 841 59 441 206 
L 441 856 
Q 825 641 1194 531 
Q 1563 422 1919 422 
Q 2459 422 2753 634 
Q 3047 847 3047 1241 
Q 3047 1584 2836 1778 
Q 2625 1972 2144 2069 
L 1759 2144 
Q 1053 2284 737 2584 
Q 422 2884 422 3419 
Q 422 4038 858 4394 
Q 1294 4750 2059 4750 
Q 2388 4750 2728 4690 
Q 3069 4631 3425 4513 
z
" transform="scale(0.015625)"/>
       <path id="DejaVuSans-70" d="M 1159 525 
L 1159 -1331 
L 581 -1331 
L 581 3500 
L 1159 3500 
L 1159 2969 
Q 1341 3281 1617 3432 
Q 1894 3584 2278 3584 
Q 2916 3584 3314 3078 
Q 3713 2572 3713 1747 
Q 3713 922 3314 415 
Q 2916 -91 2278 -91 
Q 1894 -91 1617 61 
Q 1341 213 1159 525 
z
M 3116 1747 
Q 3116 2381 2855 2742 
Q 2594 3103 2138 3103 
Q 1681 3103 1420 2742 
Q 1159 2381 1159 1747 
Q 1159 1113 1420 752 
Q 1681 391 2138 391 
Q 2594 391 2855 752 
Q 3116 1113 3116 1747 
z
" transform="scale(0.015625)"/>
       <path id="DejaVuSans-74" d="M 1172 4494 
L 1172 3500 
L 2356 3500 
L 2356 3053 
L 1172 3053 
L 1172 1153 
Q 1172 725 1289 603 
Q 1406 481 1766 481 
L 2356 481 
L 2356 0 
L 1766 0 
Q 1100 0 847 248 
Q 594 497 594 1153 
L 594 3053 
L 172 3053 
L 172 3500 
L 594 3500 
L 594 4494 
L 1172 4494 
z
" transform="scale(0.015625)"/>
       <path id="DejaVuSans-6c" d="M 603 4863 
L 1178 4863 
L 1178 0 
L 603 0 
L 603 4863 
z
" transform="scale(0.015625)"/>
       <path id="DejaVuSans-64" d="M 2906 2969 
L 2906 4863 
L 3481 4863 
L 3481 0 
L 2906 0 
L 2906 525 
Q 2725 213 2448 61 
Q 2172 -91 1784 -91 
Q 1150 -91 751 415 
Q 353 922 353 1747 
Q 353 2572 751 3078 
Q 1150 3584 1784 3584 
Q 2172 3584 2448 3432 
Q 2725 3281 2906 2969 
z
M 947 1747 
Q 947 1113 1208 752 
Q 1469 391 1925 391 
Q 2381 391 2643 752 
Q 2906 1113 2906 1747 
Q 2906 2381 2643 2742 
Q 2381 3103 1925 3103 
Q 1469 3103 1208 2742 
Q 947 2381 947 1747 
z
" transform="scale(0.015625)"/>
       <path id="DejaVuSans-69" d="M 603 3500 
L 1178 3500 
L 1178 0 
L 603 0 
L 603 3500 
z
M 603 4863 
L 1178 4863 
L 1178 4134 
L 603 4134 
L 603 4863 
z
" transform="scale(0.015625)"/>
       <path id="DejaVuSans-Oblique-57" d="M 616 4666 
L 1228 4666 
L 1453 697 
L 3213 4666 
L 3916 4666 
L 4147 697 
L 5888 4666 
L 6528 4666 
L 4453 0 
L 3659 0 
L 3444 3891 
L 1697 0 
L 903 0 
L 616 4666 
z
" transform="scale(0.015625)"/>
       <path id="DejaVuSans-Oblique-6d" d="M 5747 2113 
L 5338 0 
L 4763 0 
L 5166 2094 
Q 5191 2228 5203 2325 
Q 5216 2422 5216 2491 
Q 5216 2772 5059 2928 
Q 4903 3084 4622 3084 
Q 4203 3084 3875 2770 
Q 3547 2456 3450 1953 
L 3066 0 
L 2491 0 
L 2900 2094 
Q 2925 2209 2937 2307 
Q 2950 2406 2950 2484 
Q 2950 2769 2794 2926 
Q 2638 3084 2363 3084 
Q 1938 3084 1609 2770 
Q 1281 2456 1184 1953 
L 800 0 
L 225 0 
L 909 3500 
L 1484 3500 
L 1375 2956 
Q 1609 3263 1923 3423 
Q 2238 3584 2597 3584 
Q 2978 3584 3223 3384 
Q 3469 3184 3519 2828 
Q 3781 3197 4126 3390 
Q 4472 3584 4856 3584 
Q 5306 3584 5551 3325 
Q 5797 3066 5797 2591 
Q 5797 2488 5784 2364 
Q 5772 2241 5747 2113 
z
" transform="scale(0.015625)"/>
       <path id="DejaVuSans-Oblique-73" d="M 3200 3397 
L 3091 2853 
Q 2863 2978 2609 3040 
Q 2356 3103 2088 3103 
Q 1634 3103 1373 2948 
Q 1113 2794 1113 2528 
Q 1113 2219 1719 2053 
Q 1766 2041 1788 2034 
L 1972 1978 
Q 2547 1819 2739 1644 
Q 2931 1469 2931 1166 
Q 2931 609 2489 259 
Q 2047 -91 1331 -91 
Q 1053 -91 747 -37 
Q 441 16 72 128 
L 184 722 
Q 500 559 806 475 
Q 1113 391 1394 391 
Q 1816 391 2080 572 
Q 2344 753 2344 1031 
Q 2344 1331 1650 1516 
L 1591 1531 
L 1394 1581 
Q 956 1697 753 1886 
Q 550 2075 550 2369 
Q 550 2928 970 3256 
Q 1391 3584 2113 3584 
Q 2397 3584 2667 3537 
Q 2938 3491 3200 3397 
z
" transform="scale(0.015625)"/>
       <path id="DejaVuSans-Oblique-72" d="M 2853 2969 
Q 2766 3016 2653 3041 
Q 2541 3066 2413 3066 
Q 1953 3066 1609 2717 
Q 1266 2369 1153 1784 
L 800 0 
L 225 0 
L 909 3500 
L 1484 3500 
L 1375 2956 
Q 1603 3259 1920 3421 
Q 2238 3584 2597 3584 
Q 2691 3584 2781 3573 
Q 2872 3563 2963 3538 
L 2853 2969 
z
" transform="scale(0.015625)"/>
       <path id="DejaVuSans-Oblique-48" d="M 1081 4666 
L 1716 4666 
L 1344 2753 
L 3634 2753 
L 4006 4666 
L 4641 4666 
L 3731 0 
L 3097 0 
L 3531 2222 
L 1241 2222 
L 806 0 
L 172 0 
L 1081 4666 
z
" transform="scale(0.015625)"/>
       <path id="DejaVuSans-Oblique-7a" d="M 744 3500 
L 3475 3500 
L 3372 2975 
L 738 459 
L 2913 459 
L 2822 0 
L -19 0 
L 84 525 
L 2719 3041 
L 653 3041 
L 744 3500 
z
" transform="scale(0.015625)"/>
      </defs>
      <use xlink:href="#DejaVuSans-53" transform="translate(0 0.765625)"/>
      <use xlink:href="#DejaVuSans-70" transform="translate(63.476562 0.765625)"/>
      <use xlink:href="#DejaVuSans-65" transform="translate(126.953125 0.765625)"/>
      <use xlink:href="#DejaVuSans-63" transform="translate(188.476562 0.765625)"/>
      <use xlink:href="#DejaVuSans-74" transform="translate(243.457031 0.765625)"/>
      <use xlink:href="#DejaVuSans-72" transform="translate(282.666016 0.765625)"/>
      <use xlink:href="#DejaVuSans-61" transform="translate(323.779297 0.765625)"/>
      <use xlink:href="#DejaVuSans-6c" transform="translate(385.058594 0.765625)"/>
      <use xlink:href="#DejaVuSans-20" transform="translate(412.841797 0.765625)"/>
      <use xlink:href="#DejaVuSans-72" transform="translate(444.628906 0.765625)"/>
      <use xlink:href="#DejaVuSans-61" transform="translate(485.742188 0.765625)"/>
      <use xlink:href="#DejaVuSans-64" transform="translate(547.021484 0.765625)"/>
      <use xlink:href="#DejaVuSans-69" transform="translate(610.498047 0.765625)"/>
      <use xlink:href="#DejaVuSans-61" transform="translate(638.28125 0.765625)"/>
      <use xlink:href="#DejaVuSans-6e" transform="translate(699.560547 0.765625)"/>
      <use xlink:href="#DejaVuSans-63" transform="translate(762.939453 0.765625)"/>
      <use xlink:href="#DejaVuSans-65" transform="translate(817.919922 0.765625)"/>
      <use xlink:href="#DejaVuSans-20" transform="translate(879.443359 0.765625)"/>
      <use xlink:href="#DejaVuSans-28" transform="translate(911.230469 0.765625)"/>
      <use xlink:href="#DejaVuSans-Oblique-57" transform="translate(950.244141 0.765625)"/>
      <use xlink:href="#DejaVuSans-Oblique-6d" transform="translate(1049.121094 0.765625)"/>
      <use xlink:href="#DejaVuSans-2212" transform="translate(1151.183099 39.046875) scale(0.7)"/>
      <use xlink:href="#DejaVuSans-32" transform="translate(1209.835443 39.046875) scale(0.7)"/>
      <use xlink:href="#DejaVuSans-Oblique-73" transform="translate(1257.105951 0.765625)"/>
      <use xlink:href="#DejaVuSans-Oblique-72" transform="translate(1309.20556 0.765625)"/>
      <use xlink:href="#DejaVuSans-2212" transform="translate(1354.968737 39.046875) scale(0.7)"/>
      <use xlink:href="#DejaVuSans-31" transform="translate(1413.621081 39.046875) scale(0.7)"/>
      <use xlink:href="#DejaVuSans-Oblique-48" transform="translate(1460.891589 0.765625)"/>
      <use xlink:href="#DejaVuSans-Oblique-7a" transform="translate(1536.086901 0.765625)"/>
      <use xlink:href="#DejaVuSans-2212" transform="translate(1593.043281 39.046875) scale(0.7)"/>
      <use xlink:href="#DejaVuSans-31" transform="translate(1651.695625 39.046875) scale(0.7)"/>
      <use xlink:href="#DejaVuSans-29" transform="translate(1698.966133 0.765625)"/>
     </g>
    </g>
    <g id="text_20">
     <!-- 1e−12 -->
     <g transform="translate(45.303125 19.318125) scale(0.1 -0.1)">
      <use xlink:href="#DejaVuSans-31"/>
      <use xlink:href="#DejaVuSans-65" transform="translate(63.623047 0)"/>
      <use xlink:href="#DejaVuSans-2212" transform="translate(125.146484 0)"/>
      <use xlink:href="#DejaVuSans-31" transform="translate(208.935547 0)"/>
      <use xlink:href="#DejaVuSans-32" transform="translate(272.558594 0)"/>
     </g>
    </g>
   </g>
   <g id="line2d_35">
    <path d="M 61.535852 276.334125 
L 62.402754 276.144789 
L 64.136556 275.127833 
L 64.570007 274.789447 
L 65.003458 274.210033 
L 65.436908 274.255443 
L 65.870359 273.122648 
L 66.30381 272.704452 
L 66.73726 272.81487 
L 67.170711 271.690512 
L 67.604162 271.677802 
L 68.037612 271.060016 
L 68.471063 269.260626 
L 68.904514 268.768844 
L 69.337964 267.396204 
L 69.771415 266.682621 
L 70.638316 266.73904 
L 71.071767 265.159329 
L 71.505217 265.092156 
L 71.938668 262.679182 
L 72.372119 262.023266 
L 72.805569 260.262377 
L 73.23902 261.540568 
L 73.672471 260.604935 
L 74.105921 258.342433 
L 74.539372 256.787765 
L 74.972823 254.616293 
L 75.406273 254.554988 
L 75.839724 255.210513 
L 76.273175 254.664549 
L 76.706625 251.081423 
L 77.140076 249.18648 
L 77.573527 251.52512 
L 78.006977 247.480419 
L 78.440428 249.385123 
L 78.873879 248.303417 
L 80.174231 238.273798 
L 80.607681 238.952527 
L 81.041132 240.867458 
L 81.474583 237.428485 
L 81.908033 240.582767 
L 82.341484 234.847371 
L 82.774935 238.35006 
L 83.208385 232.250637 
L 83.641836 228.211106 
L 84.075287 204.725669 
L 84.508737 225.399138 
L 84.942188 223.989843 
L 85.809089 230.548153 
L 86.24254 229.442777 
L 86.675991 220.083912 
L 87.109441 222.28564 
L 87.542892 213.675228 
L 87.976343 210.311455 
L 88.409793 220.506804 
L 88.843244 217.337819 
L 89.276695 216.113048 
L 89.710145 212.785066 
L 90.143596 219.725374 
L 90.577047 205.760544 
L 91.010497 204.384464 
L 91.443948 198.26272 
L 91.877399 213.694006 
L 92.310849 197.793348 
L 92.7443 201.503046 
L 93.177751 212.587936 
L 93.611201 196.273766 
L 94.044652 203.116563 
L 94.478103 207.496876 
L 94.911553 195.200053 
L 95.345004 202.642996 
L 95.778455 189.750366 
L 96.211905 205.947735 
L 96.645356 180.938617 
L 97.078807 182.755207 
L 97.512257 191.198789 
L 97.945708 186.80932 
L 98.379158 201.559116 
L 98.812609 181.066152 
L 99.24606 183.390716 
L 99.67951 167.913498 
L 100.112961 162.944549 
L 100.546412 165.188832 
L 101.413313 185.532007 
L 101.846764 176.90865 
L 102.280214 171.895972 
L 102.713665 190.679805 
L 103.147116 165.601689 
L 103.580566 156.075513 
L 104.014017 150.618234 
L 104.447468 162.278257 
L 104.880918 156.782485 
L 105.314369 146.766883 
L 105.74782 150.000625 
L 106.18127 176.244021 
L 106.614721 187.970491 
L 107.481622 155.058908 
L 107.915073 144.314361 
L 108.348524 185.772227 
L 108.781974 142.152837 
L 109.215425 136.059447 
L 109.648876 134.951438 
L 110.082326 139.03462 
L 110.515777 169.391835 
L 110.949228 142.39796 
L 111.382678 125.388497 
L 111.816129 124.297737 
L 112.68303 133.254043 
L 113.116481 121.130176 
L 113.549932 137.227089 
L 113.983382 180.24434 
L 114.416833 141.541922 
L 115.283734 116.204322 
L 115.717185 179.031583 
L 116.150636 120.3955 
L 116.584086 125.747489 
L 117.450988 111.725844 
L 117.884438 110.884185 
L 118.317889 129.344947 
L 118.75134 128.73109 
L 119.18479 121.527508 
L 119.618241 140.827749 
L 120.051692 100.442388 
L 120.485142 93.219937 
L 120.918593 92.379689 
L 121.352044 139.151558 
L 121.785494 97.36696 
L 122.218945 145.263968 
L 122.652396 95.938991 
L 123.085846 81.825312 
L 123.519297 94.583909 
L 123.952748 144.177147 
L 124.386198 86.326671 
L 124.819649 78.783945 
L 125.2531 92.091184 
L 125.68655 121.192553 
L 126.120001 120.860822 
L 126.553451 83.14333 
L 127.420353 67.746925 
L 128.287254 66.450329 
L 128.720705 103.457642 
L 129.154155 103.130077 
L 129.587606 157.071965 
L 130.021057 102.523822 
L 130.454507 142.143297 
L 130.887958 63.007701 
L 131.321409 85.600763 
L 131.754859 62.007428 
L 132.18831 76.972308 
L 132.621761 61.079777 
L 133.055211 100.904215 
L 133.488662 84.096428 
L 133.922113 83.845047 
L 134.355563 59.439586 
L 134.789014 67.003036 
L 135.222465 66.70336 
L 135.655915 117.401802 
L 136.089366 66.154727 
L 136.956267 49.525762 
L 137.389718 82.409099 
L 137.823169 65.257235 
L 138.256619 90.984883 
L 138.69007 56.557672 
L 139.123521 48.156119 
L 139.556971 56.183329 
L 139.990422 152.588727 
L 140.423873 47.538079 
L 140.857323 47.365325 
L 141.290774 182.91594 
L 141.724225 47.068979 
L 142.157675 38.626973 
L 142.591126 46.837355 
L 143.024577 82.132781 
L 143.458027 55.291011 
L 143.891478 64.112859 
L 144.324929 64.143902 
L 144.758379 46.534747 
L 145.19183 64.248814 
L 145.625281 64.322406 
L 146.058731 46.53749 
L 146.492182 55.449777 
L 146.925633 73.890533 
L 147.359083 46.674003 
L 147.792534 37.94273 
L 148.225985 46.837485 
L 148.659435 38.067366 
L 149.526337 38.250208 
L 149.959787 104.389133 
L 150.393238 66.018181 
L 150.826689 47.663396 
L 151.260139 38.785994 
L 151.69359 38.954545 
L 152.127041 48.257959 
L 152.560491 39.332167 
L 152.993942 39.540947 
L 153.427393 77.580867 
L 153.860843 97.692333 
L 154.294294 40.245418 
L 154.727744 49.790694 
L 155.161195 40.778713 
L 155.594646 59.899399 
L 156.028096 41.361555 
L 156.894998 41.992768 
L 157.328448 61.345368 
L 157.761899 42.671175 
L 158.6288 43.395594 
L 159.062251 34.414125 
L 159.495702 53.699054 
L 159.929152 35.163987 
L 160.362603 35.555927 
L 160.796054 45.400219 
L 162.096406 46.729857 
L 162.529856 37.679835 
L 162.963307 87.204846 
L 163.396758 38.60329 
L 163.830208 39.080267 
L 164.263659 49.144698 
L 165.13056 50.176825 
L 165.564011 41.086447 
L 165.997462 91.102174 
L 166.430912 42.146478 
L 168.164715 44.374688 
L 168.598166 54.65496 
L 169.031616 105.568144 
L 169.465067 46.136009 
L 169.898518 56.468418 
L 170.331968 47.351053 
L 171.19887 48.597466 
L 171.63232 88.967673 
L 172.065771 40.221394 
L 172.499222 40.863793 
L 172.932672 51.180019 
L 174.233024 53.191188 
L 174.666475 63.666422 
L 175.099926 44.87378 
L 175.533376 55.262014 
L 175.966827 85.67208 
L 176.400278 56.673965 
L 176.833728 47.685463 
L 177.267179 77.812513 
L 177.70063 49.129655 
L 179.434432 52.089596 
L 179.867883 62.550879 
L 180.301334 53.603329 
L 181.168235 55.138248 
L 181.601686 65.612923 
L 182.035136 56.693378 
L 182.468587 57.478222 
L 182.902037 107.481738 
L 183.335488 59.061873 
L 188.103445 68.06636 
L 190.270699 72.297462 
L 190.704149 82.705442 
L 191.1376 83.551686 
L 191.571051 74.869543 
L 198.506261 88.892523 
L 198.939712 89.78087 
L 199.373163 99.936631 
L 199.806613 119.366785 
L 200.240064 92.450903 
L 200.673515 84.143501 
L 201.540416 85.962471 
L 201.973867 96.019623 
L 202.407317 87.784202 
L 202.840768 97.806312 
L 203.274219 89.608066 
L 205.008021 93.259761 
L 205.441472 103.168625 
L 205.874923 95.086414 
L 214.977386 114.152962 
L 215.410837 123.52935 
L 215.844288 115.94642 
L 223.212949 130.922133 
L 226.247104 136.918004 
L 226.680554 153.281866 
L 227.114005 138.609928 
L 233.182314 150.163767 
L 238.817173 160.39656 
L 243.58513 168.650366 
L 244.018581 162.686794 
L 244.452031 163.444399 
L 244.885482 170.834423 
L 245.318933 171.555958 
L 245.752383 178.760665 
L 246.619285 167.183789 
L 247.486186 168.656665 
L 247.919637 175.816516 
L 248.353087 176.515101 
L 248.786538 170.841248 
L 250.08689 172.995977 
L 250.520341 179.958356 
L 250.953791 174.415792 
L 251.387242 181.312395 
L 251.820693 181.984415 
L 252.254143 188.688846 
L 252.687594 177.215223 
L 253.121045 183.980443 
L 253.554495 178.594772 
L 253.987946 185.294414 
L 254.854847 186.595001 
L 255.288298 181.313407 
L 255.721749 187.882198 
L 256.155199 188.520775 
L 256.58865 183.316913 
L 257.022101 183.977985 
L 257.455551 190.416424 
L 257.889002 191.041616 
L 258.322453 202.8035 
L 258.755903 192.281972 
L 259.189354 198.459281 
L 259.622805 193.50897 
L 260.056255 194.117466 
L 260.489706 200.197254 
L 260.923157 189.775456 
L 261.790058 191.02663 
L 262.656959 203.02845 
L 263.09041 198.283833 
L 263.523861 209.305904 
L 263.957311 194.095665 
L 264.390762 200.019755 
L 265.691114 201.726061 
L 266.124564 231.215159 
L 266.558015 202.847219 
L 266.991466 244.355214 
L 267.424916 223.372995 
L 267.858367 232.747524 
L 268.291818 205.05044 
L 269.158719 206.13261 
L 269.59217 211.546192 
L 270.02562 212.051547 
L 270.459071 259.127794 
L 270.892522 213.052874 
L 271.325972 213.548863 
L 271.759423 209.30205 
L 273.059775 210.843807 
L 273.493226 215.982428 
L 273.926676 225.342283 
L 274.360127 221.403628 
L 275.227028 249.609383 
L 275.660479 249.863971 
L 276.09393 223.164295 
L 276.52738 235.921634 
L 276.960831 219.717634 
L 277.394282 240.422395 
L 278.261183 248.097259 
L 278.694634 248.361791 
L 279.128084 254.823699 
L 279.561535 230.589797 
L 279.994986 226.956823 
L 280.428436 246.086341 
L 280.861887 231.73464 
L 281.295338 239.641935 
L 281.728788 239.965218 
L 282.162239 236.631444 
L 282.59569 253.659645 
L 283.02914 240.920513 
L 283.896042 241.545375 
L 284.762943 259.944007 
L 285.196394 252.078899 
L 285.629844 239.307707 
L 286.063295 246.371676 
L 286.496746 255.577269 
L 286.930196 250.033618 
L 287.363647 247.186126 
L 287.797098 265.163321 
L 288.230548 256.382429 
L 288.663999 267.086727 
L 289.09745 248.242031 
L 289.5309 268.740861 
L 289.964351 245.659573 
L 290.397802 254.733011 
L 290.831252 249.264364 
L 291.264703 252.407795 
L 291.698154 262.466837 
L 292.131604 260.448549 
L 292.565055 267.990008 
L 292.998506 253.303227 
L 293.431956 258.633687 
L 294.298857 258.985951 
L 294.732308 273.815536 
L 295.165759 256.936335 
L 295.599209 251.909261 
L 296.03266 254.798997 
L 296.466111 267.394158 
L 296.899561 257.686366 
L 297.333012 260.169825 
L 298.199913 274.07697 
L 298.633364 262.732192 
L 299.066815 264.757792 
L 299.500265 264.881153 
L 299.933716 261.126064 
L 300.367167 271.662687 
L 301.234068 265.362677 
L 301.667519 257.348931 
L 302.53442 262.030832 
L 302.967871 271.996641 
L 303.401321 270.090149 
L 303.834772 264.339925 
L 304.268223 270.234957 
L 304.701673 270.306184 
L 305.135124 266.379071 
L 305.568575 266.486497 
L 306.002025 272.357981 
L 306.435476 270.583422 
L 306.868927 268.246613 
L 307.302377 266.905627 
L 307.735828 271.736132 
L 308.169279 269.758727 
L 308.602729 271.846617 
L 309.469631 269.982123 
L 309.903081 265.995105 
L 310.336532 272.825454 
L 310.769983 269.023131 
L 311.203433 274.846389 
L 311.636884 272.955288 
L 312.070335 272.997551 
L 312.503785 268.06636 
L 313.370687 268.246449 
L 313.804137 274.96686 
L 314.237588 272.506301 
L 314.671039 275.004911 
L 315.104489 269.80447 
L 315.53794 275.041953 
L 315.971391 268.765136 
L 316.404841 272.734849 
L 316.838292 272.778989 
L 317.271743 274.012341 
L 317.705193 272.114869 
L 318.138644 264.973329 
L 319.005545 261.839432 
L 319.438996 261.982387 
L 319.872447 274.97383 
L 320.305897 271.586891 
L 320.739348 264.086757 
L 321.172799 262.541409 
L 321.606249 265.877741 
L 322.0397 264.454749 
L 322.47315 268.775416 
L 322.906601 267.589046 
L 323.340052 268.938914 
L 323.773502 272.771729 
L 324.206953 272.065055 
L 324.640404 270.279193 
L 325.073854 275.3896 
L 325.507305 269.333366 
L 325.940756 272.262698 
L 326.374206 269.485584 
L 326.807657 273.663832 
L 327.241108 273.102488 
L 327.674558 269.708131 
L 328.108009 275.007089 
L 328.54146 272.543076 
L 328.97491 274.306021 
L 329.408361 272.632417 
L 329.841812 275.527959 
L 330.708713 270.201406 
L 331.142164 271.223562 
L 331.575614 272.847157 
L 332.009065 270.402107 
L 332.442516 275.42859 
L 332.875966 274.529466 
L 333.742868 271.561084 
L 334.176318 274.598593 
L 334.609769 273.128096 
L 335.04322 275.656751 
L 335.47667 272.539 
L 335.910121 273.241822 
L 336.343572 271.877557 
L 336.777022 275.695124 
L 337.210473 273.351722 
L 337.643924 275.713521 
L 338.077374 272.797505 
L 338.510825 275.731412 
L 338.944276 270.474336 
L 339.377726 270.53825 
L 339.811177 273.560516 
L 340.244628 275.186333 
L 341.111529 270.787419 
L 341.54498 269.90891 
L 341.97843 269.977708 
L 342.411881 274.236882 
L 342.845332 274.998917 
L 343.712233 272.670232 
L 344.145684 272.712441 
L 344.579134 273.907788 
L 345.012585 272.795482 
L 345.446036 273.966316 
L 345.879486 273.995074 
L 346.312937 270.628703 
L 346.746388 274.051597 
L 347.179838 271.582467 
L 347.613289 273.609848 
L 348.04674 269.975448 
L 348.48019 273.674184 
L 348.913641 273.705808 
L 349.347092 275.239562 
L 349.780542 274.639884 
L 350.213993 271.938465 
L 350.647443 273.828767 
L 351.080894 274.315248 
L 351.514345 269.590445 
L 351.947795 271.381569 
L 352.381246 274.388507 
L 353.248147 271.541482 
L 353.681598 275.125633 
L 354.115049 275.758521 
L 354.548499 275.401615 
L 354.98195 273.629527 
L 355.415401 275.426285 
L 355.848851 270.263204 
L 356.282302 268.493349 
L 356.715753 268.572602 
L 357.149203 269.583454 
L 357.582654 272.04003 
L 358.016105 272.741705 
L 358.449555 276.029766 
L 358.883006 272.179761 
L 359.316457 271.522896 
L 359.749907 276.043242 
L 360.183358 270.056655 
L 360.616809 272.977009 
L 361.050259 274.459095 
L 361.48371 275.13209 
L 361.917161 269.466871 
L 362.350611 268.640633 
L 362.784062 268.717716 
L 363.217513 275.192183 
L 363.650963 269.74279 
L 364.084414 269.810122 
L 364.517865 274.960336 
L 364.951315 275.809703 
L 365.384766 271.527459 
L 365.818217 269.237337 
L 366.251667 268.426305 
L 366.685118 270.200713 
L 367.118569 268.582264 
L 367.552019 273.006905 
L 367.98547 271.826412 
L 368.418921 273.080414 
L 368.852371 270.509265 
L 369.285822 272.588459 
L 369.719273 269.032993 
L 370.152723 268.237968 
L 370.586174 271.452641 
L 371.019625 270.051377 
L 371.453075 272.788409 
L 371.886526 270.916713 
L 372.319977 272.865514 
L 372.753427 273.894356 
L 373.186878 272.372305 
L 373.620329 274.35731 
L 374.053779 270.484726 
L 374.48723 269.796014 
L 374.920681 268.233515 
L 375.354131 273.615334 
L 375.787582 268.390217 
L 376.221033 270.054353 
L 376.654483 272.700729 
L 377.087934 272.739915 
L 377.521384 274.184733 
L 377.954835 272.817084 
L 378.388286 268.843398 
L 378.821736 272.343842 
L 379.255187 269.75905 
L 379.688638 269.824297 
L 380.122088 269.131882 
L 380.98899 273.553746 
L 381.42244 269.341343 
L 381.855891 268.633309 
L 382.289342 271.523053 
L 382.722792 268.781462 
L 383.156243 270.32471 
L 383.589694 268.926928 
L 384.456595 271.765763 
L 384.890046 275.577157 
L 385.323496 270.618771 
L 385.756947 269.998818 
L 386.190398 271.362427 
L 386.190398 271.362427 
" clip-path="url(#pb403f64b4a)" style="fill: none; stroke: #1f77b4; stroke-width: 0.7; stroke-linecap: square"/>
   </g>
   <g id="patch_3">
    <path d="M 45.303125 288.430125 
L 45.303125 22.318125 
" style="fill: none; stroke: #000000; stroke-width: 0.8; stroke-linejoin: miter; stroke-linecap: square"/>
   </g>
   <g id="patch_4">
    <path d="M 402.423125 288.430125 
L 402.423125 22.318125 
" style="fill: none; stroke: #000000; stroke-width: 0.8; stroke-linejoin: miter; stroke-linecap: square"/>
   </g>
   <g id="patch_5">
    <path d="M 45.303125 288.430125 
L 402.423125 288.430125 
" style="fill: none; stroke: #000000; stroke-width: 0.8; stroke-linejoin: miter; stroke-linecap: square"/>
   </g>
   <g id="patch_6">
    <path d="M 45.303125 22.318125 
L 402.423125 22.318125 
" style="fill: none; stroke: #000000; stroke-width: 0.8; stroke-linejoin: miter; stroke-linecap: square"/>
   </g>
   <g id="text_21">
    <!-- Planck emission at τ = 1 level for (H2O) -->
    <g transform="translate(103.735625 16.318125) scale(0.12 -0.12)">
     <defs>
      <path id="DejaVuSans-50" d="M 1259 4147 
L 1259 2394 
L 2053 2394 
Q 2494 2394 2734 2622 
Q 2975 2850 2975 3272 
Q 2975 3691 2734 3919 
Q 2494 4147 2053 4147 
L 1259 4147 
z
M 628 4666 
L 2053 4666 
Q 2838 4666 3239 4311 
Q 3641 3956 3641 3272 
Q 3641 2581 3239 2228 
Q 2838 1875 2053 1875 
L 1259 1875 
L 1259 0 
L 628 0 
L 628 4666 
z
" transform="scale(0.015625)"/>
      <path id="DejaVuSans-6b" d="M 581 4863 
L 1159 4863 
L 1159 1991 
L 2875 3500 
L 3609 3500 
L 1753 1863 
L 3688 0 
L 2938 0 
L 1159 1709 
L 1159 0 
L 581 0 
L 581 4863 
z
" transform="scale(0.015625)"/>
      <path id="DejaVuSans-6f" d="M 1959 3097 
Q 1497 3097 1228 2736 
Q 959 2375 959 1747 
Q 959 1119 1226 758 
Q 1494 397 1959 397 
Q 2419 397 2687 759 
Q 2956 1122 2956 1747 
Q 2956 2369 2687 2733 
Q 2419 3097 1959 3097 
z
M 1959 3584 
Q 2709 3584 3137 3096 
Q 3566 2609 3566 1747 
Q 3566 888 3137 398 
Q 2709 -91 1959 -91 
Q 1206 -91 779 398 
Q 353 888 353 1747 
Q 353 2609 779 3096 
Q 1206 3584 1959 3584 
z
" transform="scale(0.015625)"/>
      <path id="DejaVuSans-3c4" d="M 2319 638 
Q 2431 488 2769 488 
L 3047 488 
L 3047 0 
L 2700 0 
Q 2138 0 1881 300 
Q 1625 606 1625 1269 
L 1625 2925 
L 313 2925 
L 313 3500 
L 3541 3500 
L 3541 2925 
L 2213 2925 
L 2213 1234 
Q 2213 781 2319 638 
z
" transform="scale(0.015625)"/>
      <path id="DejaVuSans-3d" d="M 678 2906 
L 4684 2906 
L 4684 2381 
L 678 2381 
L 678 2906 
z
M 678 1631 
L 4684 1631 
L 4684 1100 
L 678 1100 
L 678 1631 
z
" transform="scale(0.015625)"/>
      <path id="DejaVuSans-76" d="M 191 3500 
L 800 3500 
L 1894 563 
L 2988 3500 
L 3597 3500 
L 2284 0 
L 1503 0 
L 191 3500 
z
" transform="scale(0.015625)"/>
      <path id="DejaVuSans-66" d="M 2375 4863 
L 2375 4384 
L 1825 4384 
Q 1516 4384 1395 4259 
Q 1275 4134 1275 3809 
L 1275 3500 
L 2222 3500 
L 2222 3053 
L 1275 3053 
L 1275 0 
L 697 0 
L 697 3053 
L 147 3053 
L 147 3500 
L 697 3500 
L 697 3744 
Q 697 4328 969 4595 
Q 1241 4863 1831 4863 
L 2375 4863 
z
" transform="scale(0.015625)"/>
      <path id="DejaVuSans-48" d="M 628 4666 
L 1259 4666 
L 1259 2753 
L 3553 2753 
L 3553 4666 
L 4184 4666 
L 4184 0 
L 3553 0 
L 3553 2222 
L 1259 2222 
L 1259 0 
L 628 0 
L 628 4666 
z
" transform="scale(0.015625)"/>
      <path id="DejaVuSans-4f" d="M 2522 4238 
Q 1834 4238 1429 3725 
Q 1025 3213 1025 2328 
Q 1025 1447 1429 934 
Q 1834 422 2522 422 
Q 3209 422 3611 934 
Q 4013 1447 4013 2328 
Q 4013 3213 3611 3725 
Q 3209 4238 2522 4238 
z
M 2522 4750 
Q 3503 4750 4090 4092 
Q 4678 3434 4678 2328 
Q 4678 1225 4090 567 
Q 3503 -91 2522 -91 
Q 1538 -91 948 565 
Q 359 1222 359 2328 
Q 359 3434 948 4092 
Q 1538 4750 2522 4750 
z
" transform="scale(0.015625)"/>
     </defs>
     <use xlink:href="#DejaVuSans-50"/>
     <use xlink:href="#DejaVuSans-6c" transform="translate(60.302734 0)"/>
     <use xlink:href="#DejaVuSans-61" transform="translate(88.085938 0)"/>
     <use xlink:href="#DejaVuSans-6e" transform="translate(149.365234 0)"/>
     <use xlink:href="#DejaVuSans-63" transform="translate(212.744141 0)"/>
     <use xlink:href="#DejaVuSans-6b" transform="translate(267.724609 0)"/>
     <use xlink:href="#DejaVuSans-20" transform="translate(325.634766 0)"/>
     <use xlink:href="#DejaVuSans-65" transform="translate(357.421875 0)"/>
     <use xlink:href="#DejaVuSans-6d" transform="translate(418.945312 0)"/>
     <use xlink:href="#DejaVuSans-69" transform="translate(516.357422 0)"/>
     <use xlink:href="#DejaVuSans-73" transform="translate(544.140625 0)"/>
     <use xlink:href="#DejaVuSans-73" transform="translate(596.240234 0)"/>
     <use xlink:href="#DejaVuSans-69" transform="translate(648.339844 0)"/>
     <use xlink:href="#DejaVuSans-6f" transform="translate(676.123047 0)"/>
     <use xlink:href="#DejaVuSans-6e" transform="translate(737.304688 0)"/>
     <use xlink:href="#DejaVuSans-20" transform="translate(800.683594 0)"/>
     <use xlink:href="#DejaVuSans-61" transform="translate(832.470703 0)"/>
     <use xlink:href="#DejaVuSans-74" transform="translate(893.75 0)"/>
     <use xlink:href="#DejaVuSans-20" transform="translate(932.958984 0)"/>
     <use xlink:href="#DejaVuSans-3c4" transform="translate(964.746094 0)"/>
     <use xlink:href="#DejaVuSans-20" transform="translate(1024.951172 0)"/>
     <use xlink:href="#DejaVuSans-3d" transform="translate(1056.738281 0)"/>
     <use xlink:href="#DejaVuSans-20" transform="translate(1140.527344 0)"/>
     <use xlink:href="#DejaVuSans-31" transform="translate(1172.314453 0)"/>
     <use xlink:href="#DejaVuSans-20" transform="translate(1235.9375 0)"/>
     <use xlink:href="#DejaVuSans-6c" transform="translate(1267.724609 0)"/>
     <use xlink:href="#DejaVuSans-65" transform="translate(1295.507812 0)"/>
     <use xlink:href="#DejaVuSans-76" transform="translate(1357.03125 0)"/>
     <use xlink:href="#DejaVuSans-65" transform="translate(1416.210938 0)"/>
     <use xlink:href="#DejaVuSans-6c" transform="translate(1477.734375 0)"/>
     <use xlink:href="#DejaVuSans-20" transform="translate(1505.517578 0)"/>
     <use xlink:href="#DejaVuSans-66" transform="translate(1537.304688 0)"/>
     <use xlink:href="#DejaVuSans-6f" transform="translate(1572.509766 0)"/>
     <use xlink:href="#DejaVuSans-72" transform="translate(1633.691406 0)"/>
     <use xlink:href="#DejaVuSans-20" transform="translate(1674.804688 0)"/>
     <use xlink:href="#DejaVuSans-28" transform="translate(1706.591797 0)"/>
     <use xlink:href="#DejaVuSans-48" transform="translate(1745.605469 0)"/>
     <use xlink:href="#DejaVuSans-32" transform="translate(1820.800781 0)"/>
     <use xlink:href="#DejaVuSans-4f" transform="translate(1884.423828 0)"/>
     <use xlink:href="#DejaVuSans-29" transform="translate(1963.134766 0)"/>
    </g>
   </g>
  </g>
 </g>
 <defs>
  <clipPath id="pb403f64b4a">
   <rect x="45.303125" y="22.318125" width="357.12" height="266.112"/>
  </clipPath>
 </defs>
</svg>
