<?xml version="1.0" encoding="utf-8" standalone="no"?>
<!DOCTYPE svg PUBLIC "-//W3C//DTD SVG 1.1//EN"
  "http://www.w3.org/Graphics/SVG/1.1/DTD/svg11.dtd">
<svg xmlns:xlink="http://www.w3.org/1999/xlink" width="409.623125pt" height="338.006687pt" viewBox="0 0 409.623125 338.006687" xmlns="http://www.w3.org/2000/svg" version="1.1">
 <metadata>
  <rdf:RDF xmlns:dc="http://purl.org/dc/elements/1.1/" xmlns:cc="http://creativecommons.org/ns#" xmlns:rdf="http://www.w3.org/1999/02/22-rdf-syntax-ns#">
   <cc:Work>
    <dc:type rdf:resource="http://purl.org/dc/dcmitype/StillImage"/>
    <dc:date>2026-01-22T22:42:18.379270</dc:date>
    <dc:format>image/svg+xml</dc:format>
    <dc:creator>
     <cc:Agent>
      <dc:title>Matplotlib v3.10.6, https://matplotlib.org/</dc:title>
     </cc:Agent>
    </dc:creator>
   </cc:Work>
  </rdf:RDF>
 </metadata>
 <defs>
  <style type="text/css">*{stroke-linejoin: round; stroke-linecap: butt}</style>
 </defs>
 <g id="figure_1">
  <g id="patch_1">
   <path d="M 0 338.006687 
L 409.623125 338.006687 
L 409.623125 0 
L 0 0 
z
" style="fill: #ffffff"/>
  </g>
  <g id="axes_1">
   <g id="patch_2">
    <path d="M 45.303125 299.028562 
L 402.423125 299.028562 
L 402.423125 32.916562 
L 45.303125 32.916562 
z
" style="fill: #ffffff"/>
   </g>
   <g id="matplotlib.axis_1">
    <g id="xtick_1">
     <g id="line2d_1">
      <path d="M 61.373444 299.028562 
L 61.373444 32.916562 
" clip-path="url(#p81dc7c1e31)" style="fill: none; stroke: #808080; stroke-width: 0.3; stroke-linecap: square"/>
     </g>
     <g id="line2d_2">
      <defs>
       <path id="m069fc6cc63" d="M 0 0 
L 0 3.5 
" style="stroke: #000000; stroke-width: 0.8"/>
      </defs>
      <g>
       <use xlink:href="#m069fc6cc63" x="61.373444" y="299.028562" style="stroke: #000000; stroke-width: 0.8"/>
      </g>
     </g>
     <g id="text_1">
      <!-- 0 -->
      <g transform="translate(58.192194 313.627) scale(0.1 -0.1)">
       <defs>
        <path id="DejaVuSans-30" d="M 2034 4250 
Q 1547 4250 1301 3770 
Q 1056 3291 1056 2328 
Q 1056 1369 1301 889 
Q 1547 409 2034 409 
Q 2525 409 2770 889 
Q 3016 1369 3016 2328 
Q 3016 3291 2770 3770 
Q 2525 4250 2034 4250 
z
M 2034 4750 
Q 2819 4750 3233 4129 
Q 3647 3509 3647 2328 
Q 3647 1150 3233 529 
Q 2819 -91 2034 -91 
Q 1250 -91 836 529 
Q 422 1150 422 2328 
Q 422 3509 836 4129 
Q 1250 4750 2034 4750 
z
" transform="scale(0.015625)"/>
       </defs>
       <use xlink:href="#DejaVuSans-30"/>
      </g>
     </g>
    </g>
    <g id="xtick_2">
     <g id="line2d_3">
      <path d="M 101.975563 299.028562 
L 101.975563 32.916562 
" clip-path="url(#p81dc7c1e31)" style="fill: none; stroke: #808080; stroke-width: 0.3; stroke-linecap: square"/>
     </g>
     <g id="line2d_4">
      <g>
       <use xlink:href="#m069fc6cc63" x="101.975563" y="299.028562" style="stroke: #000000; stroke-width: 0.8"/>
      </g>
     </g>
     <g id="text_2">
      <!-- 250 -->
      <g transform="translate(92.431813 313.627) scale(0.1 -0.1)">
       <defs>
        <path id="DejaVuSans-32" d="M 1228 531 
L 3431 531 
L 3431 0 
L 469 0 
L 469 531 
Q 828 903 1448 1529 
Q 2069 2156 2228 2338 
Q 2531 2678 2651 2914 
Q 2772 3150 2772 3378 
Q 2772 3750 2511 3984 
Q 2250 4219 1831 4219 
Q 1534 4219 1204 4116 
Q 875 4013 500 3803 
L 500 4441 
Q 881 4594 1212 4672 
Q 1544 4750 1819 4750 
Q 2544 4750 2975 4387 
Q 3406 4025 3406 3419 
Q 3406 3131 3298 2873 
Q 3191 2616 2906 2266 
Q 2828 2175 2409 1742 
Q 1991 1309 1228 531 
z
" transform="scale(0.015625)"/>
        <path id="DejaVuSans-35" d="M 691 4666 
L 3169 4666 
L 3169 4134 
L 1269 4134 
L 1269 2991 
Q 1406 3038 1543 3061 
Q 1681 3084 1819 3084 
Q 2600 3084 3056 2656 
Q 3513 2228 3513 1497 
Q 3513 744 3044 326 
Q 2575 -91 1722 -91 
Q 1428 -91 1123 -41 
Q 819 9 494 109 
L 494 744 
Q 775 591 1075 516 
Q 1375 441 1709 441 
Q 2250 441 2565 725 
Q 2881 1009 2881 1497 
Q 2881 1984 2565 2268 
Q 2250 2553 1709 2553 
Q 1456 2553 1204 2497 
Q 953 2441 691 2322 
L 691 4666 
z
" transform="scale(0.015625)"/>
       </defs>
       <use xlink:href="#DejaVuSans-32"/>
       <use xlink:href="#DejaVuSans-35" transform="translate(63.623047 0)"/>
       <use xlink:href="#DejaVuSans-30" transform="translate(127.246094 0)"/>
      </g>
     </g>
    </g>
    <g id="xtick_3">
     <g id="line2d_5">
      <path d="M 142.577682 299.028562 
L 142.577682 32.916562 
" clip-path="url(#p81dc7c1e31)" style="fill: none; stroke: #808080; stroke-width: 0.3; stroke-linecap: square"/>
     </g>
     <g id="line2d_6">
      <g>
       <use xlink:href="#m069fc6cc63" x="142.577682" y="299.028562" style="stroke: #000000; stroke-width: 0.8"/>
      </g>
     </g>
     <g id="text_3">
      <!-- 500 -->
      <g transform="translate(133.033932 313.627) scale(0.1 -0.1)">
       <use xlink:href="#DejaVuSans-35"/>
       <use xlink:href="#DejaVuSans-30" transform="translate(63.623047 0)"/>
       <use xlink:href="#DejaVuSans-30" transform="translate(127.246094 0)"/>
      </g>
     </g>
    </g>
    <g id="xtick_4">
     <g id="line2d_7">
      <path d="M 183.179802 299.028562 
L 183.179802 32.916562 
" clip-path="url(#p81dc7c1e31)" style="fill: none; stroke: #808080; stroke-width: 0.3; stroke-linecap: square"/>
     </g>
     <g id="line2d_8">
      <g>
       <use xlink:href="#m069fc6cc63" x="183.179802" y="299.028562" style="stroke: #000000; stroke-width: 0.8"/>
      </g>
     </g>
     <g id="text_4">
      <!-- 750 -->
      <g transform="translate(173.636052 313.627) scale(0.1 -0.1)">
       <defs>
        <path id="DejaVuSans-37" d="M 525 4666 
L 3525 4666 
L 3525 4397 
L 1831 0 
L 1172 0 
L 2766 4134 
L 525 4134 
L 525 4666 
z
" transform="scale(0.015625)"/>
       </defs>
       <use xlink:href="#DejaVuSans-37"/>
       <use xlink:href="#DejaVuSans-35" transform="translate(63.623047 0)"/>
       <use xlink:href="#DejaVuSans-30" transform="translate(127.246094 0)"/>
      </g>
     </g>
    </g>
    <g id="xtick_5">
     <g id="line2d_9">
      <path d="M 223.781921 299.028562 
L 223.781921 32.916562 
" clip-path="url(#p81dc7c1e31)" style="fill: none; stroke: #808080; stroke-width: 0.3; stroke-linecap: square"/>
     </g>
     <g id="line2d_10">
      <g>
       <use xlink:href="#m069fc6cc63" x="223.781921" y="299.028562" style="stroke: #000000; stroke-width: 0.8"/>
      </g>
     </g>
     <g id="text_5">
      <!-- 1000 -->
      <g transform="translate(211.056921 313.627) scale(0.1 -0.1)">
       <defs>
        <path id="DejaVuSans-31" d="M 794 531 
L 1825 531 
L 1825 4091 
L 703 3866 
L 703 4441 
L 1819 4666 
L 2450 4666 
L 2450 531 
L 3481 531 
L 3481 0 
L 794 0 
L 794 531 
z
" transform="scale(0.015625)"/>
       </defs>
       <use xlink:href="#DejaVuSans-31"/>
       <use xlink:href="#DejaVuSans-30" transform="translate(63.623047 0)"/>
       <use xlink:href="#DejaVuSans-30" transform="translate(127.246094 0)"/>
       <use xlink:href="#DejaVuSans-30" transform="translate(190.869141 0)"/>
      </g>
     </g>
    </g>
    <g id="xtick_6">
     <g id="line2d_11">
      <path d="M 264.38404 299.028562 
L 264.38404 32.916562 
" clip-path="url(#p81dc7c1e31)" style="fill: none; stroke: #808080; stroke-width: 0.3; stroke-linecap: square"/>
     </g>
     <g id="line2d_12">
      <g>
       <use xlink:href="#m069fc6cc63" x="264.38404" y="299.028562" style="stroke: #000000; stroke-width: 0.8"/>
      </g>
     </g>
     <g id="text_6">
      <!-- 1250 -->
      <g transform="translate(251.65904 313.627) scale(0.1 -0.1)">
       <use xlink:href="#DejaVuSans-31"/>
       <use xlink:href="#DejaVuSans-32" transform="translate(63.623047 0)"/>
       <use xlink:href="#DejaVuSans-35" transform="translate(127.246094 0)"/>
       <use xlink:href="#DejaVuSans-30" transform="translate(190.869141 0)"/>
      </g>
     </g>
    </g>
    <g id="xtick_7">
     <g id="line2d_13">
      <path d="M 304.986159 299.028562 
L 304.986159 32.916562 
" clip-path="url(#p81dc7c1e31)" style="fill: none; stroke: #808080; stroke-width: 0.3; stroke-linecap: square"/>
     </g>
     <g id="line2d_14">
      <g>
       <use xlink:href="#m069fc6cc63" x="304.986159" y="299.028562" style="stroke: #000000; stroke-width: 0.8"/>
      </g>
     </g>
     <g id="text_7">
      <!-- 1500 -->
      <g transform="translate(292.261159 313.627) scale(0.1 -0.1)">
       <use xlink:href="#DejaVuSans-31"/>
       <use xlink:href="#DejaVuSans-35" transform="translate(63.623047 0)"/>
       <use xlink:href="#DejaVuSans-30" transform="translate(127.246094 0)"/>
       <use xlink:href="#DejaVuSans-30" transform="translate(190.869141 0)"/>
      </g>
     </g>
    </g>
    <g id="xtick_8">
     <g id="line2d_15">
      <path d="M 345.588278 299.028562 
L 345.588278 32.916562 
" clip-path="url(#p81dc7c1e31)" style="fill: none; stroke: #808080; stroke-width: 0.3; stroke-linecap: square"/>
     </g>
     <g id="line2d_16">
      <g>
       <use xlink:href="#m069fc6cc63" x="345.588278" y="299.028562" style="stroke: #000000; stroke-width: 0.8"/>
      </g>
     </g>
     <g id="text_8">
      <!-- 1750 -->
      <g transform="translate(332.863278 313.627) scale(0.1 -0.1)">
       <use xlink:href="#DejaVuSans-31"/>
       <use xlink:href="#DejaVuSans-37" transform="translate(63.623047 0)"/>
       <use xlink:href="#DejaVuSans-35" transform="translate(127.246094 0)"/>
       <use xlink:href="#DejaVuSans-30" transform="translate(190.869141 0)"/>
      </g>
     </g>
    </g>
    <g id="xtick_9">
     <g id="line2d_17">
      <path d="M 386.190398 299.028562 
L 386.190398 32.916562 
" clip-path="url(#p81dc7c1e31)" style="fill: none; stroke: #808080; stroke-width: 0.3; stroke-linecap: square"/>
     </g>
     <g id="line2d_18">
      <g>
       <use xlink:href="#m069fc6cc63" x="386.190398" y="299.028562" style="stroke: #000000; stroke-width: 0.8"/>
      </g>
     </g>
     <g id="text_9">
      <!-- 2000 -->
      <g transform="translate(373.465398 313.627) scale(0.1 -0.1)">
       <use xlink:href="#DejaVuSans-32"/>
       <use xlink:href="#DejaVuSans-30" transform="translate(63.623047 0)"/>
       <use xlink:href="#DejaVuSans-30" transform="translate(127.246094 0)"/>
       <use xlink:href="#DejaVuSans-30" transform="translate(190.869141 0)"/>
      </g>
     </g>
    </g>
    <g id="text_10">
     <!-- Frequency / Kayser (cm$^{-1}$) -->
     <g transform="translate(157.163125 328.706687) scale(0.1 -0.1)">
      <defs>
       <path id="DejaVuSans-46" d="M 628 4666 
L 3309 4666 
L 3309 4134 
L 1259 4134 
L 1259 2759 
L 3109 2759 
L 3109 2228 
L 1259 2228 
L 1259 0 
L 628 0 
L 628 4666 
z
" transform="scale(0.015625)"/>
       <path id="DejaVuSans-72" d="M 2631 2963 
Q 2534 3019 2420 3045 
Q 2306 3072 2169 3072 
Q 1681 3072 1420 2755 
Q 1159 2438 1159 1844 
L 1159 0 
L 581 0 
L 581 3500 
L 1159 3500 
L 1159 2956 
Q 1341 3275 1631 3429 
Q 1922 3584 2338 3584 
Q 2397 3584 2469 3576 
Q 2541 3569 2628 3553 
L 2631 2963 
z
" transform="scale(0.015625)"/>
       <path id="DejaVuSans-65" d="M 3597 1894 
L 3597 1613 
L 953 1613 
Q 991 1019 1311 708 
Q 1631 397 2203 397 
Q 2534 397 2845 478 
Q 3156 559 3463 722 
L 3463 178 
Q 3153 47 2828 -22 
Q 2503 -91 2169 -91 
Q 1331 -91 842 396 
Q 353 884 353 1716 
Q 353 2575 817 3079 
Q 1281 3584 2069 3584 
Q 2775 3584 3186 3129 
Q 3597 2675 3597 1894 
z
M 3022 2063 
Q 3016 2534 2758 2815 
Q 2500 3097 2075 3097 
Q 1594 3097 1305 2825 
Q 1016 2553 972 2059 
L 3022 2063 
z
" transform="scale(0.015625)"/>
       <path id="DejaVuSans-71" d="M 947 1747 
Q 947 1113 1208 752 
Q 1469 391 1925 391 
Q 2381 391 2643 752 
Q 2906 1113 2906 1747 
Q 2906 2381 2643 2742 
Q 2381 3103 1925 3103 
Q 1469 3103 1208 2742 
Q 947 2381 947 1747 
z
M 2906 525 
Q 2725 213 2448 61 
Q 2172 -91 1784 -91 
Q 1150 -91 751 415 
Q 353 922 353 1747 
Q 353 2572 751 3078 
Q 1150 3584 1784 3584 
Q 2172 3584 2448 3432 
Q 2725 3281 2906 2969 
L 2906 3500 
L 3481 3500 
L 3481 -1331 
L 2906 -1331 
L 2906 525 
z
" transform="scale(0.015625)"/>
       <path id="DejaVuSans-75" d="M 544 1381 
L 544 3500 
L 1119 3500 
L 1119 1403 
Q 1119 906 1312 657 
Q 1506 409 1894 409 
Q 2359 409 2629 706 
Q 2900 1003 2900 1516 
L 2900 3500 
L 3475 3500 
L 3475 0 
L 2900 0 
L 2900 538 
Q 2691 219 2414 64 
Q 2138 -91 1772 -91 
Q 1169 -91 856 284 
Q 544 659 544 1381 
z
M 1991 3584 
L 1991 3584 
z
" transform="scale(0.015625)"/>
       <path id="DejaVuSans-6e" d="M 3513 2113 
L 3513 0 
L 2938 0 
L 2938 2094 
Q 2938 2591 2744 2837 
Q 2550 3084 2163 3084 
Q 1697 3084 1428 2787 
Q 1159 2491 1159 1978 
L 1159 0 
L 581 0 
L 581 3500 
L 1159 3500 
L 1159 2956 
Q 1366 3272 1645 3428 
Q 1925 3584 2291 3584 
Q 2894 3584 3203 3211 
Q 3513 2838 3513 2113 
z
" transform="scale(0.015625)"/>
       <path id="DejaVuSans-63" d="M 3122 3366 
L 3122 2828 
Q 2878 2963 2633 3030 
Q 2388 3097 2138 3097 
Q 1578 3097 1268 2742 
Q 959 2388 959 1747 
Q 959 1106 1268 751 
Q 1578 397 2138 397 
Q 2388 397 2633 464 
Q 2878 531 3122 666 
L 3122 134 
Q 2881 22 2623 -34 
Q 2366 -91 2075 -91 
Q 1284 -91 818 406 
Q 353 903 353 1747 
Q 353 2603 823 3093 
Q 1294 3584 2113 3584 
Q 2378 3584 2631 3529 
Q 2884 3475 3122 3366 
z
" transform="scale(0.015625)"/>
       <path id="DejaVuSans-79" d="M 2059 -325 
Q 1816 -950 1584 -1140 
Q 1353 -1331 966 -1331 
L 506 -1331 
L 506 -850 
L 844 -850 
Q 1081 -850 1212 -737 
Q 1344 -625 1503 -206 
L 1606 56 
L 191 3500 
L 800 3500 
L 1894 763 
L 2988 3500 
L 3597 3500 
L 2059 -325 
z
" transform="scale(0.015625)"/>
       <path id="DejaVuSans-20" transform="scale(0.015625)"/>
       <path id="DejaVuSans-2f" d="M 1625 4666 
L 2156 4666 
L 531 -594 
L 0 -594 
L 1625 4666 
z
" transform="scale(0.015625)"/>
       <path id="DejaVuSans-4b" d="M 628 4666 
L 1259 4666 
L 1259 2694 
L 3353 4666 
L 4166 4666 
L 1850 2491 
L 4331 0 
L 3500 0 
L 1259 2247 
L 1259 0 
L 628 0 
L 628 4666 
z
" transform="scale(0.015625)"/>
       <path id="DejaVuSans-61" d="M 2194 1759 
Q 1497 1759 1228 1600 
Q 959 1441 959 1056 
Q 959 750 1161 570 
Q 1363 391 1709 391 
Q 2188 391 2477 730 
Q 2766 1069 2766 1631 
L 2766 1759 
L 2194 1759 
z
M 3341 1997 
L 3341 0 
L 2766 0 
L 2766 531 
Q 2569 213 2275 61 
Q 1981 -91 1556 -91 
Q 1019 -91 701 211 
Q 384 513 384 1019 
Q 384 1609 779 1909 
Q 1175 2209 1959 2209 
L 2766 2209 
L 2766 2266 
Q 2766 2663 2505 2880 
Q 2244 3097 1772 3097 
Q 1472 3097 1187 3025 
Q 903 2953 641 2809 
L 641 3341 
Q 956 3463 1253 3523 
Q 1550 3584 1831 3584 
Q 2591 3584 2966 3190 
Q 3341 2797 3341 1997 
z
" transform="scale(0.015625)"/>
       <path id="DejaVuSans-73" d="M 2834 3397 
L 2834 2853 
Q 2591 2978 2328 3040 
Q 2066 3103 1784 3103 
Q 1356 3103 1142 2972 
Q 928 2841 928 2578 
Q 928 2378 1081 2264 
Q 1234 2150 1697 2047 
L 1894 2003 
Q 2506 1872 2764 1633 
Q 3022 1394 3022 966 
Q 3022 478 2636 193 
Q 2250 -91 1575 -91 
Q 1294 -91 989 -36 
Q 684 19 347 128 
L 347 722 
Q 666 556 975 473 
Q 1284 391 1588 391 
Q 1994 391 2212 530 
Q 2431 669 2431 922 
Q 2431 1156 2273 1281 
Q 2116 1406 1581 1522 
L 1381 1569 
Q 847 1681 609 1914 
Q 372 2147 372 2553 
Q 372 3047 722 3315 
Q 1072 3584 1716 3584 
Q 2034 3584 2315 3537 
Q 2597 3491 2834 3397 
z
" transform="scale(0.015625)"/>
       <path id="DejaVuSans-28" d="M 1984 4856 
Q 1566 4138 1362 3434 
Q 1159 2731 1159 2009 
Q 1159 1288 1364 580 
Q 1569 -128 1984 -844 
L 1484 -844 
Q 1016 -109 783 600 
Q 550 1309 550 2009 
Q 550 2706 781 3412 
Q 1013 4119 1484 4856 
L 1984 4856 
z
" transform="scale(0.015625)"/>
       <path id="DejaVuSans-6d" d="M 3328 2828 
Q 3544 3216 3844 3400 
Q 4144 3584 4550 3584 
Q 5097 3584 5394 3201 
Q 5691 2819 5691 2113 
L 5691 0 
L 5113 0 
L 5113 2094 
Q 5113 2597 4934 2840 
Q 4756 3084 4391 3084 
Q 3944 3084 3684 2787 
Q 3425 2491 3425 1978 
L 3425 0 
L 2847 0 
L 2847 2094 
Q 2847 2600 2669 2842 
Q 2491 3084 2119 3084 
Q 1678 3084 1418 2786 
Q 1159 2488 1159 1978 
L 1159 0 
L 581 0 
L 581 3500 
L 1159 3500 
L 1159 2956 
Q 1356 3278 1631 3431 
Q 1906 3584 2284 3584 
Q 2666 3584 2933 3390 
Q 3200 3197 3328 2828 
z
" transform="scale(0.015625)"/>
       <path id="DejaVuSans-2212" d="M 678 2272 
L 4684 2272 
L 4684 1741 
L 678 1741 
L 678 2272 
z
" transform="scale(0.015625)"/>
       <path id="DejaVuSans-29" d="M 513 4856 
L 1013 4856 
Q 1481 4119 1714 3412 
Q 1947 2706 1947 2009 
Q 1947 1309 1714 600 
Q 1481 -109 1013 -844 
L 513 -844 
Q 928 -128 1133 580 
Q 1338 1288 1338 2009 
Q 1338 2731 1133 3434 
Q 928 4138 513 4856 
z
" transform="scale(0.015625)"/>
      </defs>
      <use xlink:href="#DejaVuSans-46" transform="translate(0 0.684375)"/>
      <use xlink:href="#DejaVuSans-72" transform="translate(57.519531 0.684375)"/>
      <use xlink:href="#DejaVuSans-65" transform="translate(98.632812 0.684375)"/>
      <use xlink:href="#DejaVuSans-71" transform="translate(160.15625 0.684375)"/>
      <use xlink:href="#DejaVuSans-75" transform="translate(223.632812 0.684375)"/>
      <use xlink:href="#DejaVuSans-65" transform="translate(287.011719 0.684375)"/>
      <use xlink:href="#DejaVuSans-6e" transform="translate(348.535156 0.684375)"/>
      <use xlink:href="#DejaVuSans-63" transform="translate(411.914062 0.684375)"/>
      <use xlink:href="#DejaVuSans-79" transform="translate(466.894531 0.684375)"/>
      <use xlink:href="#DejaVuSans-20" transform="translate(526.074219 0.684375)"/>
      <use xlink:href="#DejaVuSans-2f" transform="translate(557.861328 0.684375)"/>
      <use xlink:href="#DejaVuSans-20" transform="translate(591.552734 0.684375)"/>
      <use xlink:href="#DejaVuSans-4b" transform="translate(623.339844 0.684375)"/>
      <use xlink:href="#DejaVuSans-61" transform="translate(688.916016 0.684375)"/>
      <use xlink:href="#DejaVuSans-79" transform="translate(750.195312 0.684375)"/>
      <use xlink:href="#DejaVuSans-73" transform="translate(809.375 0.684375)"/>
      <use xlink:href="#DejaVuSans-65" transform="translate(861.474609 0.684375)"/>
      <use xlink:href="#DejaVuSans-72" transform="translate(922.998047 0.684375)"/>
      <use xlink:href="#DejaVuSans-20" transform="translate(964.111328 0.684375)"/>
      <use xlink:href="#DejaVuSans-28" transform="translate(995.898438 0.684375)"/>
      <use xlink:href="#DejaVuSans-63" transform="translate(1034.912109 0.684375)"/>
      <use xlink:href="#DejaVuSans-6d" transform="translate(1089.892578 0.684375)"/>
      <use xlink:href="#DejaVuSans-2212" transform="translate(1188.261719 38.965625) scale(0.7)"/>
      <use xlink:href="#DejaVuSans-31" transform="translate(1246.914062 38.965625) scale(0.7)"/>
      <use xlink:href="#DejaVuSans-29" transform="translate(1294.18457 0.684375)"/>
     </g>
    </g>
   </g>
   <g id="matplotlib.axis_2">
    <g id="ytick_1">
     <g id="line2d_19">
      <path d="M 45.303125 286.937916 
L 402.423125 286.937916 
" clip-path="url(#p81dc7c1e31)" style="fill: none; stroke: #808080; stroke-width: 0.3; stroke-linecap: square"/>
     </g>
     <g id="line2d_20">
      <defs>
       <path id="mf58ddc5201" d="M 0 0 
L -3.5 0 
" style="stroke: #000000; stroke-width: 0.8"/>
      </defs>
      <g>
       <use xlink:href="#mf58ddc5201" x="45.303125" y="286.937916" style="stroke: #000000; stroke-width: 0.8"/>
      </g>
     </g>
     <g id="text_11">
      <!-- 0.0 -->
      <g transform="translate(22.4 290.737135) scale(0.1 -0.1)">
       <defs>
        <path id="DejaVuSans-2e" d="M 684 794 
L 1344 794 
L 1344 0 
L 684 0 
L 684 794 
z
" transform="scale(0.015625)"/>
       </defs>
       <use xlink:href="#DejaVuSans-30"/>
       <use xlink:href="#DejaVuSans-2e" transform="translate(63.623047 0)"/>
       <use xlink:href="#DejaVuSans-30" transform="translate(95.410156 0)"/>
      </g>
     </g>
    </g>
    <g id="ytick_2">
     <g id="line2d_21">
      <path d="M 45.303125 253.42657 
L 402.423125 253.42657 
" clip-path="url(#p81dc7c1e31)" style="fill: none; stroke: #808080; stroke-width: 0.3; stroke-linecap: square"/>
     </g>
     <g id="line2d_22">
      <g>
       <use xlink:href="#mf58ddc5201" x="45.303125" y="253.42657" style="stroke: #000000; stroke-width: 0.8"/>
      </g>
     </g>
     <g id="text_12">
      <!-- 0.5 -->
      <g transform="translate(22.4 257.225789) scale(0.1 -0.1)">
       <use xlink:href="#DejaVuSans-30"/>
       <use xlink:href="#DejaVuSans-2e" transform="translate(63.623047 0)"/>
       <use xlink:href="#DejaVuSans-35" transform="translate(95.410156 0)"/>
      </g>
     </g>
    </g>
    <g id="ytick_3">
     <g id="line2d_23">
      <path d="M 45.303125 219.915224 
L 402.423125 219.915224 
" clip-path="url(#p81dc7c1e31)" style="fill: none; stroke: #808080; stroke-width: 0.3; stroke-linecap: square"/>
     </g>
     <g id="line2d_24">
      <g>
       <use xlink:href="#mf58ddc5201" x="45.303125" y="219.915224" style="stroke: #000000; stroke-width: 0.8"/>
      </g>
     </g>
     <g id="text_13">
      <!-- 1.0 -->
      <g transform="translate(22.4 223.714443) scale(0.1 -0.1)">
       <use xlink:href="#DejaVuSans-31"/>
       <use xlink:href="#DejaVuSans-2e" transform="translate(63.623047 0)"/>
       <use xlink:href="#DejaVuSans-30" transform="translate(95.410156 0)"/>
      </g>
     </g>
    </g>
    <g id="ytick_4">
     <g id="line2d_25">
      <path d="M 45.303125 186.403878 
L 402.423125 186.403878 
" clip-path="url(#p81dc7c1e31)" style="fill: none; stroke: #808080; stroke-width: 0.3; stroke-linecap: square"/>
     </g>
     <g id="line2d_26">
      <g>
       <use xlink:href="#mf58ddc5201" x="45.303125" y="186.403878" style="stroke: #000000; stroke-width: 0.8"/>
      </g>
     </g>
     <g id="text_14">
      <!-- 1.5 -->
      <g transform="translate(22.4 190.203097) scale(0.1 -0.1)">
       <use xlink:href="#DejaVuSans-31"/>
       <use xlink:href="#DejaVuSans-2e" transform="translate(63.623047 0)"/>
       <use xlink:href="#DejaVuSans-35" transform="translate(95.410156 0)"/>
      </g>
     </g>
    </g>
    <g id="ytick_5">
     <g id="line2d_27">
      <path d="M 45.303125 152.892532 
L 402.423125 152.892532 
" clip-path="url(#p81dc7c1e31)" style="fill: none; stroke: #808080; stroke-width: 0.3; stroke-linecap: square"/>
     </g>
     <g id="line2d_28">
      <g>
       <use xlink:href="#mf58ddc5201" x="45.303125" y="152.892532" style="stroke: #000000; stroke-width: 0.8"/>
      </g>
     </g>
     <g id="text_15">
      <!-- 2.0 -->
      <g transform="translate(22.4 156.691751) scale(0.1 -0.1)">
       <use xlink:href="#DejaVuSans-32"/>
       <use xlink:href="#DejaVuSans-2e" transform="translate(63.623047 0)"/>
       <use xlink:href="#DejaVuSans-30" transform="translate(95.410156 0)"/>
      </g>
     </g>
    </g>
    <g id="ytick_6">
     <g id="line2d_29">
      <path d="M 45.303125 119.381186 
L 402.423125 119.381186 
" clip-path="url(#p81dc7c1e31)" style="fill: none; stroke: #808080; stroke-width: 0.3; stroke-linecap: square"/>
     </g>
     <g id="line2d_30">
      <g>
       <use xlink:href="#mf58ddc5201" x="45.303125" y="119.381186" style="stroke: #000000; stroke-width: 0.8"/>
      </g>
     </g>
     <g id="text_16">
      <!-- 2.5 -->
      <g transform="translate(22.4 123.180405) scale(0.1 -0.1)">
       <use xlink:href="#DejaVuSans-32"/>
       <use xlink:href="#DejaVuSans-2e" transform="translate(63.623047 0)"/>
       <use xlink:href="#DejaVuSans-35" transform="translate(95.410156 0)"/>
      </g>
     </g>
    </g>
    <g id="ytick_7">
     <g id="line2d_31">
      <path d="M 45.303125 85.86984 
L 402.423125 85.86984 
" clip-path="url(#p81dc7c1e31)" style="fill: none; stroke: #808080; stroke-width: 0.3; stroke-linecap: square"/>
     </g>
     <g id="line2d_32">
      <g>
       <use xlink:href="#mf58ddc5201" x="45.303125" y="85.86984" style="stroke: #000000; stroke-width: 0.8"/>
      </g>
     </g>
     <g id="text_17">
      <!-- 3.0 -->
      <g transform="translate(22.4 89.669059) scale(0.1 -0.1)">
       <defs>
        <path id="DejaVuSans-33" d="M 2597 2516 
Q 3050 2419 3304 2112 
Q 3559 1806 3559 1356 
Q 3559 666 3084 287 
Q 2609 -91 1734 -91 
Q 1441 -91 1130 -33 
Q 819 25 488 141 
L 488 750 
Q 750 597 1062 519 
Q 1375 441 1716 441 
Q 2309 441 2620 675 
Q 2931 909 2931 1356 
Q 2931 1769 2642 2001 
Q 2353 2234 1838 2234 
L 1294 2234 
L 1294 2753 
L 1863 2753 
Q 2328 2753 2575 2939 
Q 2822 3125 2822 3475 
Q 2822 3834 2567 4026 
Q 2313 4219 1838 4219 
Q 1578 4219 1281 4162 
Q 984 4106 628 3988 
L 628 4550 
Q 988 4650 1302 4700 
Q 1616 4750 1894 4750 
Q 2613 4750 3031 4423 
Q 3450 4097 3450 3541 
Q 3450 3153 3228 2886 
Q 3006 2619 2597 2516 
z
" transform="scale(0.015625)"/>
       </defs>
       <use xlink:href="#DejaVuSans-33"/>
       <use xlink:href="#DejaVuSans-2e" transform="translate(63.623047 0)"/>
       <use xlink:href="#DejaVuSans-30" transform="translate(95.410156 0)"/>
      </g>
     </g>
    </g>
    <g id="ytick_8">
     <g id="line2d_33">
      <path d="M 45.303125 52.358494 
L 402.423125 52.358494 
" clip-path="url(#p81dc7c1e31)" style="fill: none; stroke: #808080; stroke-width: 0.3; stroke-linecap: square"/>
     </g>
     <g id="line2d_34">
      <g>
       <use xlink:href="#mf58ddc5201" x="45.303125" y="52.358494" style="stroke: #000000; stroke-width: 0.8"/>
      </g>
     </g>
     <g id="text_18">
      <!-- 3.5 -->
      <g transform="translate(22.4 56.157713) scale(0.1 -0.1)">
       <use xlink:href="#DejaVuSans-33"/>
       <use xlink:href="#DejaVuSans-2e" transform="translate(63.623047 0)"/>
       <use xlink:href="#DejaVuSans-35" transform="translate(95.410156 0)"/>
      </g>
     </g>
    </g>
    <g id="text_19">
     <!-- Spectral radiance ($Wm^{-2}sr^{-1}Hz^{-1}$) -->
     <g transform="translate(16.3 252.872562) rotate(-90) scale(0.1 -0.1)">
      <defs>
       <path id="DejaVuSans-53" d="M 3425 4513 
L 3425 3897 
Q 3066 4069 2747 4153 
Q 2428 4238 2131 4238 
Q 1616 4238 1336 4038 
Q 1056 3838 1056 3469 
Q 1056 3159 1242 3001 
Q 1428 2844 1947 2747 
L 2328 2669 
Q 3034 2534 3370 2195 
Q 3706 1856 3706 1288 
Q 3706 609 3251 259 
Q 2797 -91 1919 -91 
Q 1588 -91 1214 -16 
Q 841 59 441 206 
L 441 856 
Q 825 641 1194 531 
Q 1563 422 1919 422 
Q 2459 422 2753 634 
Q 3047 847 3047 1241 
Q 3047 1584 2836 1778 
Q 2625 1972 2144 2069 
L 1759 2144 
Q 1053 2284 737 2584 
Q 422 2884 422 3419 
Q 422 4038 858 4394 
Q 1294 4750 2059 4750 
Q 2388 4750 2728 4690 
Q 3069 4631 3425 4513 
z
" transform="scale(0.015625)"/>
       <path id="DejaVuSans-70" d="M 1159 525 
L 1159 -1331 
L 581 -1331 
L 581 3500 
L 1159 3500 
L 1159 2969 
Q 1341 3281 1617 3432 
Q 1894 3584 2278 3584 
Q 2916 3584 3314 3078 
Q 3713 2572 3713 1747 
Q 3713 922 3314 415 
Q 2916 -91 2278 -91 
Q 1894 -91 1617 61 
Q 1341 213 1159 525 
z
M 3116 1747 
Q 3116 2381 2855 2742 
Q 2594 3103 2138 3103 
Q 1681 3103 1420 2742 
Q 1159 2381 1159 1747 
Q 1159 1113 1420 752 
Q 1681 391 2138 391 
Q 2594 391 2855 752 
Q 3116 1113 3116 1747 
z
" transform="scale(0.015625)"/>
       <path id="DejaVuSans-74" d="M 1172 4494 
L 1172 3500 
L 2356 3500 
L 2356 3053 
L 1172 3053 
L 1172 1153 
Q 1172 725 1289 603 
Q 1406 481 1766 481 
L 2356 481 
L 2356 0 
L 1766 0 
Q 1100 0 847 248 
Q 594 497 594 1153 
L 594 3053 
L 172 3053 
L 172 3500 
L 594 3500 
L 594 4494 
L 1172 4494 
z
" transform="scale(0.015625)"/>
       <path id="DejaVuSans-6c" d="M 603 4863 
L 1178 4863 
L 1178 0 
L 603 0 
L 603 4863 
z
" transform="scale(0.015625)"/>
       <path id="DejaVuSans-64" d="M 2906 2969 
L 2906 4863 
L 3481 4863 
L 3481 0 
L 2906 0 
L 2906 525 
Q 2725 213 2448 61 
Q 2172 -91 1784 -91 
Q 1150 -91 751 415 
Q 353 922 353 1747 
Q 353 2572 751 3078 
Q 1150 3584 1784 3584 
Q 2172 3584 2448 3432 
Q 2725 3281 2906 2969 
z
M 947 1747 
Q 947 1113 1208 752 
Q 1469 391 1925 391 
Q 2381 391 2643 752 
Q 2906 1113 2906 1747 
Q 2906 2381 2643 2742 
Q 2381 3103 1925 3103 
Q 1469 3103 1208 2742 
Q 947 2381 947 1747 
z
" transform="scale(0.015625)"/>
       <path id="DejaVuSans-69" d="M 603 3500 
L 1178 3500 
L 1178 0 
L 603 0 
L 603 3500 
z
M 603 4863 
L 1178 4863 
L 1178 4134 
L 603 4134 
L 603 4863 
z
" transform="scale(0.015625)"/>
       <path id="DejaVuSans-Oblique-57" d="M 616 4666 
L 1228 4666 
L 1453 697 
L 3213 4666 
L 3916 4666 
L 4147 697 
L 5888 4666 
L 6528 4666 
L 4453 0 
L 3659 0 
L 3444 3891 
L 1697 0 
L 903 0 
L 616 4666 
z
" transform="scale(0.015625)"/>
       <path id="DejaVuSans-Oblique-6d" d="M 5747 2113 
L 5338 0 
L 4763 0 
L 5166 2094 
Q 5191 2228 5203 2325 
Q 5216 2422 5216 2491 
Q 5216 2772 5059 2928 
Q 4903 3084 4622 3084 
Q 4203 3084 3875 2770 
Q 3547 2456 3450 1953 
L 3066 0 
L 2491 0 
L 2900 2094 
Q 2925 2209 2937 2307 
Q 2950 2406 2950 2484 
Q 2950 2769 2794 2926 
Q 2638 3084 2363 3084 
Q 1938 3084 1609 2770 
Q 1281 2456 1184 1953 
L 800 0 
L 225 0 
L 909 3500 
L 1484 3500 
L 1375 2956 
Q 1609 3263 1923 3423 
Q 2238 3584 2597 3584 
Q 2978 3584 3223 3384 
Q 3469 3184 3519 2828 
Q 3781 3197 4126 3390 
Q 4472 3584 4856 3584 
Q 5306 3584 5551 3325 
Q 5797 3066 5797 2591 
Q 5797 2488 5784 2364 
Q 5772 2241 5747 2113 
z
" transform="scale(0.015625)"/>
       <path id="DejaVuSans-Oblique-73" d="M 3200 3397 
L 3091 2853 
Q 2863 2978 2609 3040 
Q 2356 3103 2088 3103 
Q 1634 3103 1373 2948 
Q 1113 2794 1113 2528 
Q 1113 2219 1719 2053 
Q 1766 2041 1788 2034 
L 1972 1978 
Q 2547 1819 2739 1644 
Q 2931 1469 2931 1166 
Q 2931 609 2489 259 
Q 2047 -91 1331 -91 
Q 1053 -91 747 -37 
Q 441 16 72 128 
L 184 722 
Q 500 559 806 475 
Q 1113 391 1394 391 
Q 1816 391 2080 572 
Q 2344 753 2344 1031 
Q 2344 1331 1650 1516 
L 1591 1531 
L 1394 1581 
Q 956 1697 753 1886 
Q 550 2075 550 2369 
Q 550 2928 970 3256 
Q 1391 3584 2113 3584 
Q 2397 3584 2667 3537 
Q 2938 3491 3200 3397 
z
" transform="scale(0.015625)"/>
       <path id="DejaVuSans-Oblique-72" d="M 2853 2969 
Q 2766 3016 2653 3041 
Q 2541 3066 2413 3066 
Q 1953 3066 1609 2717 
Q 1266 2369 1153 1784 
L 800 0 
L 225 0 
L 909 3500 
L 1484 3500 
L 1375 2956 
Q 1603 3259 1920 3421 
Q 2238 3584 2597 3584 
Q 2691 3584 2781 3573 
Q 2872 3563 2963 3538 
L 2853 2969 
z
" transform="scale(0.015625)"/>
       <path id="DejaVuSans-Oblique-48" d="M 1081 4666 
L 1716 4666 
L 1344 2753 
L 3634 2753 
L 4006 4666 
L 4641 4666 
L 3731 0 
L 3097 0 
L 3531 2222 
L 1241 2222 
L 806 0 
L 172 0 
L 1081 4666 
z
" transform="scale(0.015625)"/>
       <path id="DejaVuSans-Oblique-7a" d="M 744 3500 
L 3475 3500 
L 3372 2975 
L 738 459 
L 2913 459 
L 2822 0 
L -19 0 
L 84 525 
L 2719 3041 
L 653 3041 
L 744 3500 
z
" transform="scale(0.015625)"/>
      </defs>
      <use xlink:href="#DejaVuSans-53" transform="translate(0 0.765625)"/>
      <use xlink:href="#DejaVuSans-70" transform="translate(63.476562 0.765625)"/>
      <use xlink:href="#DejaVuSans-65" transform="translate(126.953125 0.765625)"/>
      <use xlink:href="#DejaVuSans-63" transform="translate(188.476562 0.765625)"/>
      <use xlink:href="#DejaVuSans-74" transform="translate(243.457031 0.765625)"/>
      <use xlink:href="#DejaVuSans-72" transform="translate(282.666016 0.765625)"/>
      <use xlink:href="#DejaVuSans-61" transform="translate(323.779297 0.765625)"/>
      <use xlink:href="#DejaVuSans-6c" transform="translate(385.058594 0.765625)"/>
      <use xlink:href="#DejaVuSans-20" transform="translate(412.841797 0.765625)"/>
      <use xlink:href="#DejaVuSans-72" transform="translate(444.628906 0.765625)"/>
      <use xlink:href="#DejaVuSans-61" transform="translate(485.742188 0.765625)"/>
      <use xlink:href="#DejaVuSans-64" transform="translate(547.021484 0.765625)"/>
      <use xlink:href="#DejaVuSans-69" transform="translate(610.498047 0.765625)"/>
      <use xlink:href="#DejaVuSans-61" transform="translate(638.28125 0.765625)"/>
      <use xlink:href="#DejaVuSans-6e" transform="translate(699.560547 0.765625)"/>
      <use xlink:href="#DejaVuSans-63" transform="translate(762.939453 0.765625)"/>
      <use xlink:href="#DejaVuSans-65" transform="translate(817.919922 0.765625)"/>
      <use xlink:href="#DejaVuSans-20" transform="translate(879.443359 0.765625)"/>
      <use xlink:href="#DejaVuSans-28" transform="translate(911.230469 0.765625)"/>
      <use xlink:href="#DejaVuSans-Oblique-57" transform="translate(950.244141 0.765625)"/>
      <use xlink:href="#DejaVuSans-Oblique-6d" transform="translate(1049.121094 0.765625)"/>
      <use xlink:href="#DejaVuSans-2212" transform="translate(1151.183099 39.046875) scale(0.7)"/>
      <use xlink:href="#DejaVuSans-32" transform="translate(1209.835443 39.046875) scale(0.7)"/>
      <use xlink:href="#DejaVuSans-Oblique-73" transform="translate(1257.105951 0.765625)"/>
      <use xlink:href="#DejaVuSans-Oblique-72" transform="translate(1309.20556 0.765625)"/>
      <use xlink:href="#DejaVuSans-2212" transform="translate(1354.968737 39.046875) scale(0.7)"/>
      <use xlink:href="#DejaVuSans-31" transform="translate(1413.621081 39.046875) scale(0.7)"/>
      <use xlink:href="#DejaVuSans-Oblique-48" transform="translate(1460.891589 0.765625)"/>
      <use xlink:href="#DejaVuSans-Oblique-7a" transform="translate(1536.086901 0.765625)"/>
      <use xlink:href="#DejaVuSans-2212" transform="translate(1593.043281 39.046875) scale(0.7)"/>
      <use xlink:href="#DejaVuSans-31" transform="translate(1651.695625 39.046875) scale(0.7)"/>
      <use xlink:href="#DejaVuSans-29" transform="translate(1698.966133 0.765625)"/>
     </g>
    </g>
    <g id="text_20">
     <!-- 1e−12 -->
     <g transform="translate(45.303125 29.916562) scale(0.1 -0.1)">
      <use xlink:href="#DejaVuSans-31"/>
      <use xlink:href="#DejaVuSans-65" transform="translate(63.623047 0)"/>
      <use xlink:href="#DejaVuSans-2212" transform="translate(125.146484 0)"/>
      <use xlink:href="#DejaVuSans-31" transform="translate(208.935547 0)"/>
      <use xlink:href="#DejaVuSans-32" transform="translate(272.558594 0)"/>
     </g>
    </g>
   </g>
   <g id="line2d_35">
    <path d="M 61.535852 286.932562 
L 62.402754 286.740424 
L 64.136556 285.708415 
L 64.570007 285.365021 
L 65.003458 284.77703 
L 65.436908 284.823113 
L 65.870359 283.673551 
L 66.30381 283.249164 
L 66.73726 283.361216 
L 67.170711 282.320481 
L 67.604162 282.207318 
L 68.037612 281.580388 
L 68.471063 279.754363 
L 68.904514 279.255302 
L 69.337964 277.862345 
L 69.771415 277.138199 
L 70.638316 277.195454 
L 71.071767 275.592361 
L 71.505217 275.524193 
L 71.938668 273.075503 
L 72.372119 272.409878 
L 72.805569 270.622925 
L 73.23902 271.920036 
L 73.672471 270.970553 
L 74.105921 268.674562 
L 74.539372 267.096883 
L 74.972823 264.893269 
L 75.406273 264.831057 
L 75.839724 265.496285 
L 76.273175 264.942239 
L 76.706625 261.306077 
L 77.140076 259.383085 
L 77.573527 261.756341 
L 78.006977 257.651772 
L 78.440428 259.584668 
L 78.873879 258.486951 
L 80.174231 248.308877 
L 80.607681 248.997652 
L 81.041132 250.940927 
L 81.474583 247.451052 
L 81.908033 250.652023 
L 82.341484 244.831733 
L 82.774935 248.386268 
L 83.208385 242.196562 
L 83.641836 238.097239 
L 84.075287 214.264177 
L 84.508737 235.24365 
L 84.942188 233.813494 
L 85.809089 240.468879 
L 86.24254 239.347141 
L 86.675991 229.849749 
L 87.109441 232.084067 
L 87.542892 223.346205 
L 87.976343 219.932643 
L 88.409793 230.278901 
L 88.843244 227.063009 
L 89.276695 225.820109 
L 89.710145 222.442868 
L 90.143596 229.485904 
L 90.577047 215.31437 
L 91.010497 213.917922 
L 91.443948 207.705566 
L 91.877399 223.365262 
L 92.310849 207.229246 
L 92.7443 210.993854 
L 93.177751 222.24282 
L 93.611201 205.687172 
L 94.044652 212.631254 
L 94.478103 217.076404 
L 94.911553 204.597566 
L 95.345004 212.150678 
L 95.778455 199.067215 
L 96.211905 215.504332 
L 96.645356 190.125036 
L 97.078807 191.968515 
L 97.512257 200.537076 
L 97.945708 196.082636 
L 98.379158 211.050754 
L 98.812609 190.254459 
L 99.24606 192.61343 
L 99.67951 176.907123 
L 100.112961 171.864624 
L 100.546412 174.142127 
L 101.413313 194.786416 
L 101.846764 186.035419 
L 102.280214 180.948545 
L 102.713665 200.010411 
L 103.147116 174.561095 
L 103.580566 164.893915 
L 104.014017 159.355859 
L 104.447468 171.188471 
L 104.880918 165.611352 
L 105.314369 155.447501 
L 105.74782 158.729108 
L 106.18127 185.360952 
L 106.614721 197.260994 
L 107.481622 163.862262 
L 107.915073 152.958678 
L 108.348524 195.030192 
L 108.781974 150.765159 
L 109.215425 144.581577 
L 109.648876 143.457167 
L 110.082326 147.600788 
L 110.515777 178.407342 
L 110.949228 151.013911 
L 111.382678 133.752678 
L 111.816129 132.645774 
L 112.68303 141.734648 
L 113.116481 129.431327 
L 113.549932 145.766502 
L 113.983382 189.420482 
L 114.416833 150.145202 
L 115.283734 124.432561 
L 115.717185 188.189774 
L 116.150636 128.685776 
L 116.584086 134.116984 
L 117.450988 119.887794 
L 117.884438 119.033677 
L 118.317889 137.76769 
L 118.75134 137.144747 
L 119.18479 129.83454 
L 119.618241 149.420458 
L 120.051692 108.437324 
L 120.485142 101.107968 
L 120.918593 100.255283 
L 121.352044 147.719456 
L 121.785494 105.316374 
L 122.218945 153.92234 
L 122.652396 110.846148 
L 123.085846 89.544683 
L 123.519297 102.492129 
L 123.952748 152.819433 
L 124.386198 94.11267 
L 124.819649 86.458299 
L 125.2531 99.962507 
L 125.68655 129.494627 
L 126.120001 129.157986 
L 126.553451 90.88221 
L 127.420353 75.257911 
L 128.287254 73.942124 
L 128.720705 111.497209 
L 129.154155 111.164795 
L 129.587606 165.905116 
L 130.021057 110.549566 
L 130.454507 150.755479 
L 130.887958 70.448539 
L 131.321409 93.376017 
L 131.754859 69.43346 
L 132.18831 84.619846 
L 132.621761 68.492078 
L 133.055211 108.905987 
L 133.488662 91.849416 
L 133.922113 91.594313 
L 134.355563 66.82761 
L 134.789014 74.503011 
L 135.222465 74.1989 
L 135.655915 125.647767 
L 136.089366 73.642147 
L 136.956267 56.767044 
L 137.389718 90.137111 
L 137.823169 72.73137 
L 138.256619 98.839831 
L 138.69007 63.903038 
L 139.123521 55.377128 
L 139.556971 63.523154 
L 139.990422 161.355519 
L 140.423873 54.74994 
L 140.857323 54.574629 
L 141.290774 192.131627 
L 141.724225 54.273896 
L 142.157675 45.706934 
L 142.591126 54.038844 
L 143.024577 89.856703 
L 143.458027 62.617629 
L 143.891478 71.570055 
L 144.324929 71.601558 
L 144.758379 53.731757 
L 145.19183 71.708023 
L 145.625281 71.782703 
L 146.058731 53.73454 
L 146.492182 62.778744 
L 146.925633 81.492456 
L 147.359083 53.873074 
L 147.792534 45.012562 
L 148.225985 54.038976 
L 148.659435 45.139043 
L 149.526337 45.324592 
L 149.959787 112.442487 
L 150.393238 73.503579 
L 150.826689 54.877112 
L 151.260139 45.868308 
L 151.69359 46.039355 
L 152.127041 55.480475 
L 152.560491 46.422566 
L 152.993942 55.94828 
L 153.427393 85.237413 
L 153.860843 105.646563 
L 154.294294 47.349335 
L 154.727744 57.035897 
L 155.161195 57.3386 
L 155.594646 77.098946 
L 156.028096 48.481992 
L 156.461547 58.318237 
L 156.894998 49.122549 
L 157.328448 68.7616 
L 157.761899 79.067031 
L 158.6288 60.180415 
L 159.062251 203.457284 
L 159.495702 90.944504 
L 159.929152 61.42882 
L 160.362603 180.630612 
L 160.796054 72.200612 
L 161.229504 123.856377 
L 161.662955 212.27011 
L 162.096406 73.651358 
L 162.963307 165.855698 
L 163.396758 126.618519 
L 163.830208 214.690222 
L 164.69711 215.661135 
L 165.13056 210.399437 
L 165.564011 216.63276 
L 174.233024 226.268727 
L 174.666475 198.930053 
L 175.099926 227.213764 
L 175.533376 173.81148 
L 175.966827 155.036764 
L 176.400278 228.621752 
L 176.833728 115.436123 
L 177.267179 176.34369 
L 177.70063 127.191892 
L 178.13408 218.449754 
L 179.000982 88.444041 
L 179.434432 197.078564 
L 179.867883 89.95667 
L 180.301334 90.719284 
L 180.734784 122.00813 
L 181.168235 143.166863 
L 181.601686 93.030934 
L 182.035136 83.802647 
L 182.468587 94.590736 
L 182.902037 165.867875 
L 183.335488 76.272916 
L 185.069291 79.519241 
L 185.502741 70.539181 
L 185.936192 71.370452 
L 186.369643 81.992751 
L 186.803093 73.044381 
L 190.270699 79.875804 
L 190.704149 90.437841 
L 191.1376 91.29661 
L 191.571051 82.485956 
L 198.506261 96.716501 
L 198.939712 97.617997 
L 199.373163 107.92408 
L 199.806613 127.641835 
L 200.240064 100.327551 
L 201.973867 103.949094 
L 202.407317 95.591775 
L 202.840768 105.762229 
L 203.274219 97.442635 
L 205.008021 101.148382 
L 205.441472 111.203914 
L 205.874923 103.002072 
L 214.977386 122.350838 
L 215.410837 131.866013 
L 215.844288 124.170842 
L 223.212949 139.368221 
L 224.07985 157.210355 
L 224.513301 150.033352 
L 224.946752 212.300356 
L 225.380202 159.646258 
L 225.813653 198.938012 
L 226.247104 169.07508 
L 226.680554 239.934658 
L 227.114005 262.831915 
L 227.547456 201.485662 
L 227.980906 259.70526 
L 228.414357 269.201819 
L 228.847808 196.10043 
L 229.281258 269.603248 
L 229.714709 231.32571 
L 230.58161 270.190898 
L 231.448512 270.573152 
L 231.881962 221.151902 
L 232.748864 271.13252 
L 233.182314 235.004256 
L 233.615765 269.382489 
L 234.049216 210.610738 
L 234.482666 183.234999 
L 234.916117 176.756003 
L 235.349568 162.948722 
L 240.550975 172.369492 
L 241.417877 173.895723 
L 241.851327 188.284253 
L 242.284778 175.409109 
L 245.318933 180.603498 
L 245.752383 187.914846 
L 246.185834 182.058006 
L 249.219989 187.043829 
L 249.653439 181.339334 
L 250.08689 182.064831 
L 250.520341 189.130266 
L 250.953791 183.505662 
L 251.387242 190.504347 
L 251.820693 191.186314 
L 252.254143 197.989982 
L 252.687594 192.540086 
L 253.121045 193.211886 
L 253.554495 187.746498 
L 253.987946 194.545307 
L 254.854847 195.865145 
L 255.288298 190.505374 
L 255.721749 197.171394 
L 256.155199 197.819423 
L 256.58865 192.538535 
L 257.022101 193.209392 
L 257.455551 199.743131 
L 257.889002 200.377577 
L 258.322453 212.313558 
L 258.755903 201.636292 
L 259.189354 207.905036 
L 259.622805 202.881452 
L 260.056255 203.498955 
L 260.489706 209.668734 
L 260.923157 199.092675 
L 261.790058 200.362369 
L 262.656959 212.541837 
L 263.09041 207.726991 
L 263.523861 218.912208 
L 263.957311 208.904749 
L 265.691114 211.22017 
L 266.124564 241.145757 
L 266.558015 212.357923 
L 266.991466 254.480308 
L 267.424916 233.187516 
L 267.858367 242.700805 
L 268.291818 219.628009 
L 268.725268 215.144488 
L 269.158719 215.691944 
L 269.59217 221.185656 
L 270.02562 221.698491 
L 270.459071 269.471548 
L 270.892522 222.714639 
L 271.325972 223.21797 
L 271.759423 218.908297 
L 272.192874 224.215191 
L 272.626324 219.954556 
L 273.059775 220.472874 
L 273.493226 225.687556 
L 273.926676 235.185954 
L 274.360127 231.188999 
L 275.227028 259.812248 
L 275.660479 260.070605 
L 276.09393 232.975727 
L 276.52738 245.921897 
L 276.960831 229.478049 
L 277.394282 250.489277 
L 278.261183 258.277742 
L 278.694634 258.54619 
L 279.128084 265.103745 
L 279.561535 244.497596 
L 279.994986 236.824391 
L 280.428436 256.237059 
L 280.861887 241.672928 
L 281.295338 249.697265 
L 281.728788 250.025333 
L 282.162239 246.642213 
L 282.59569 263.922461 
L 283.02914 250.994767 
L 283.896042 251.628879 
L 284.762943 270.299842 
L 285.196394 262.318317 
L 285.629844 249.358089 
L 286.063295 256.526617 
L 286.496746 265.868469 
L 286.930196 260.242762 
L 287.363647 257.353122 
L 287.797098 275.596411 
L 288.230548 266.685547 
L 288.663999 277.548287 
L 289.09745 258.424657 
L 289.5309 279.226905 
L 289.964351 255.803974 
L 290.397802 265.011715 
L 290.831252 259.462123 
L 291.264703 262.652081 
L 291.698154 272.860015 
L 292.131604 270.811853 
L 292.565055 278.464938 
L 292.998506 263.560768 
L 293.431956 268.970128 
L 294.298857 269.327606 
L 294.732308 284.376694 
L 295.165759 267.247651 
L 295.599209 262.146168 
L 296.03266 265.078678 
L 296.466111 277.860269 
L 296.899561 268.008784 
L 297.333012 270.529003 
L 298.199913 284.641998 
L 298.633364 273.129298 
L 299.066815 275.18488 
L 299.500265 275.310066 
L 299.933716 271.499396 
L 300.367167 282.19198 
L 301.234068 275.798719 
L 301.667519 267.666355 
L 302.53442 272.417557 
L 302.967871 282.530876 
L 303.401321 280.596165 
L 303.834772 274.760827 
L 304.268223 280.743116 
L 304.701673 280.815397 
L 305.135124 276.830156 
L 305.568575 276.939173 
L 306.002025 282.897564 
L 306.435476 281.096739 
L 306.868927 278.725342 
L 307.302377 277.364507 
L 307.735828 282.266511 
L 308.169279 280.259837 
L 308.602729 282.378632 
L 309.469631 280.48654 
L 309.903081 276.440507 
L 310.336532 283.371957 
L 310.769983 279.513353 
L 311.203433 285.422805 
L 311.636884 283.503713 
L 312.070335 283.546602 
L 312.503785 278.54242 
L 313.370687 278.725175 
L 313.804137 285.545059 
L 314.237588 283.04808 
L 314.671039 285.583674 
L 315.104489 280.306257 
L 315.53794 285.621264 
L 315.971391 279.25154 
L 316.404841 283.280011 
L 316.838292 283.324805 
L 317.271743 284.576413 
L 317.705193 282.650855 
L 318.138644 275.403607 
L 319.005545 272.223323 
L 319.438996 272.368393 
L 319.872447 285.552132 
L 320.305897 282.115061 
L 320.739348 274.503913 
L 321.172799 272.93569 
L 321.606249 276.321406 
L 322.0397 274.877351 
L 322.47315 279.261971 
L 322.906601 278.058041 
L 323.340052 279.42789 
L 323.773502 283.317437 
L 324.206953 282.600303 
L 324.640404 280.788007 
L 325.073854 285.974057 
L 325.507305 279.82818 
L 325.940756 283.530826 
L 326.374206 279.982651 
L 326.807657 284.222745 
L 327.241108 283.653092 
L 327.674558 280.208492 
L 328.108009 285.585884 
L 328.54146 283.085399 
L 328.97491 284.874439 
L 329.408361 283.176063 
L 329.841812 286.114464 
L 330.708713 280.709068 
L 331.142164 281.746354 
L 331.575614 283.393982 
L 332.009065 280.91274 
L 332.442516 286.013624 
L 332.875966 285.101192 
L 333.742868 282.088873 
L 334.176318 285.171341 
L 334.609769 283.679079 
L 335.04322 286.245162 
L 335.47667 283.081263 
L 335.910121 284.367988 
L 336.343572 282.41003 
L 336.777022 286.284103 
L 337.210473 283.906015 
L 337.643924 286.302773 
L 338.077374 283.343594 
L 338.510825 286.320928 
L 338.944276 281.897494 
L 339.377726 281.050898 
L 339.811177 284.117899 
L 340.244628 285.767781 
L 341.111529 281.303755 
L 341.54498 280.412243 
L 341.97843 280.48206 
L 342.411881 284.804277 
L 342.845332 285.577592 
L 343.712233 283.214438 
L 344.145684 283.257271 
L 344.579134 284.470312 
L 345.012585 283.341542 
L 345.446036 284.529706 
L 345.879486 284.55889 
L 346.312937 281.142691 
L 346.746388 284.616249 
L 347.179838 282.110572 
L 347.613289 284.167961 
L 348.04674 281.388694 
L 348.48019 284.23325 
L 348.913641 284.265342 
L 349.347092 285.821798 
L 349.780542 285.213244 
L 350.213993 282.47184 
L 350.647443 284.390121 
L 351.080894 284.883802 
L 351.514345 280.089064 
L 351.947795 281.906701 
L 352.381246 284.958146 
L 353.248147 282.06898 
L 353.681598 285.706183 
L 354.115049 286.348438 
L 354.548499 285.986249 
L 354.98195 284.187932 
L 355.415401 286.011285 
L 355.848851 280.771781 
L 356.282302 278.975729 
L 356.715753 279.056155 
L 357.149203 280.08197 
L 357.582654 282.574908 
L 358.016105 283.286969 
L 358.449555 286.623699 
L 358.883006 282.716707 
L 359.316457 282.050119 
L 359.749907 286.637374 
L 360.183358 281.390045 
L 360.616809 283.525755 
L 361.050259 285.029778 
L 361.48371 285.712735 
L 361.917161 279.963662 
L 362.350611 279.125193 
L 362.784062 279.203417 
L 363.217513 285.773718 
L 363.650963 280.243665 
L 364.084414 280.311993 
L 364.517865 285.538439 
L 364.951315 286.400378 
L 365.384766 282.05475 
L 365.818217 279.73073 
L 366.251667 278.907693 
L 366.685118 280.708365 
L 367.118569 279.065961 
L 367.552019 283.556094 
L 367.98547 282.358128 
L 368.418921 283.630691 
L 368.852371 281.021485 
L 369.285822 283.131454 
L 369.719273 279.523361 
L 370.152723 279.59712 
L 370.586174 281.978824 
L 371.019625 281.319702 
L 371.453075 283.334363 
L 371.886526 281.434964 
L 372.319977 283.41261 
L 372.753427 284.456681 
L 373.186878 282.912101 
L 373.620329 284.926488 
L 374.053779 280.996582 
L 374.920681 279.562726 
L 375.354131 284.173529 
L 375.787582 278.871071 
L 376.221033 280.559839 
L 376.654483 283.245386 
L 377.087934 283.285152 
L 377.521384 284.751356 
L 377.954835 283.363463 
L 378.388286 279.33096 
L 378.821736 282.883216 
L 379.255187 280.260165 
L 380.122088 280.39197 
L 380.555539 281.844358 
L 380.98899 284.11103 
L 381.42244 279.836275 
L 381.855891 279.117761 
L 382.289342 282.050278 
L 382.722792 279.268107 
L 383.156243 281.513869 
L 383.589694 279.415726 
L 384.023144 281.623144 
L 384.456595 282.296581 
L 384.890046 286.16439 
L 385.323496 281.132612 
L 385.756947 280.503482 
L 386.190398 281.887275 
L 386.190398 281.887275 
" clip-path="url(#p81dc7c1e31)" style="fill: none; stroke: #1f77b4; stroke-width: 0.7; stroke-linecap: square"/>
   </g>
   <g id="patch_3">
    <path d="M 45.303125 299.028562 
L 45.303125 32.916562 
" style="fill: none; stroke: #000000; stroke-width: 0.8; stroke-linejoin: miter; stroke-linecap: square"/>
   </g>
   <g id="patch_4">
    <path d="M 402.423125 299.028562 
L 402.423125 32.916562 
" style="fill: none; stroke: #000000; stroke-width: 0.8; stroke-linejoin: miter; stroke-linecap: square"/>
   </g>
   <g id="patch_5">
    <path d="M 45.303125 299.028562 
L 402.423125 299.028562 
" style="fill: none; stroke: #000000; stroke-width: 0.8; stroke-linejoin: miter; stroke-linecap: square"/>
   </g>
   <g id="patch_6">
    <path d="M 45.303125 32.916562 
L 402.423125 32.916562 
" style="fill: none; stroke: #000000; stroke-width: 0.8; stroke-linejoin: miter; stroke-linecap: square"/>
   </g>
   <g id="text_21">
    <!-- Planck emission at τ = 1 level for (H2O_CO2_O3) -->
    <g transform="translate(76.464688 16.318125) scale(0.12 -0.12)">
     <defs>
      <path id="DejaVuSans-50" d="M 1259 4147 
L 1259 2394 
L 2053 2394 
Q 2494 2394 2734 2622 
Q 2975 2850 2975 3272 
Q 2975 3691 2734 3919 
Q 2494 4147 2053 4147 
L 1259 4147 
z
M 628 4666 
L 2053 4666 
Q 2838 4666 3239 4311 
Q 3641 3956 3641 3272 
Q 3641 2581 3239 2228 
Q 2838 1875 2053 1875 
L 1259 1875 
L 1259 0 
L 628 0 
L 628 4666 
z
" transform="scale(0.015625)"/>
      <path id="DejaVuSans-6b" d="M 581 4863 
L 1159 4863 
L 1159 1991 
L 2875 3500 
L 3609 3500 
L 1753 1863 
L 3688 0 
L 2938 0 
L 1159 1709 
L 1159 0 
L 581 0 
L 581 4863 
z
" transform="scale(0.015625)"/>
      <path id="DejaVuSans-6f" d="M 1959 3097 
Q 1497 3097 1228 2736 
Q 959 2375 959 1747 
Q 959 1119 1226 758 
Q 1494 397 1959 397 
Q 2419 397 2687 759 
Q 2956 1122 2956 1747 
Q 2956 2369 2687 2733 
Q 2419 3097 1959 3097 
z
M 1959 3584 
Q 2709 3584 3137 3096 
Q 3566 2609 3566 1747 
Q 3566 888 3137 398 
Q 2709 -91 1959 -91 
Q 1206 -91 779 398 
Q 353 888 353 1747 
Q 353 2609 779 3096 
Q 1206 3584 1959 3584 
z
" transform="scale(0.015625)"/>
      <path id="DejaVuSans-3c4" d="M 2319 638 
Q 2431 488 2769 488 
L 3047 488 
L 3047 0 
L 2700 0 
Q 2138 0 1881 300 
Q 1625 606 1625 1269 
L 1625 2925 
L 313 2925 
L 313 3500 
L 3541 3500 
L 3541 2925 
L 2213 2925 
L 2213 1234 
Q 2213 781 2319 638 
z
" transform="scale(0.015625)"/>
      <path id="DejaVuSans-3d" d="M 678 2906 
L 4684 2906 
L 4684 2381 
L 678 2381 
L 678 2906 
z
M 678 1631 
L 4684 1631 
L 4684 1100 
L 678 1100 
L 678 1631 
z
" transform="scale(0.015625)"/>
      <path id="DejaVuSans-76" d="M 191 3500 
L 800 3500 
L 1894 563 
L 2988 3500 
L 3597 3500 
L 2284 0 
L 1503 0 
L 191 3500 
z
" transform="scale(0.015625)"/>
      <path id="DejaVuSans-66" d="M 2375 4863 
L 2375 4384 
L 1825 4384 
Q 1516 4384 1395 4259 
Q 1275 4134 1275 3809 
L 1275 3500 
L 2222 3500 
L 2222 3053 
L 1275 3053 
L 1275 0 
L 697 0 
L 697 3053 
L 147 3053 
L 147 3500 
L 697 3500 
L 697 3744 
Q 697 4328 969 4595 
Q 1241 4863 1831 4863 
L 2375 4863 
z
" transform="scale(0.015625)"/>
      <path id="DejaVuSans-48" d="M 628 4666 
L 1259 4666 
L 1259 2753 
L 3553 2753 
L 3553 4666 
L 4184 4666 
L 4184 0 
L 3553 0 
L 3553 2222 
L 1259 2222 
L 1259 0 
L 628 0 
L 628 4666 
z
" transform="scale(0.015625)"/>
      <path id="DejaVuSans-4f" d="M 2522 4238 
Q 1834 4238 1429 3725 
Q 1025 3213 1025 2328 
Q 1025 1447 1429 934 
Q 1834 422 2522 422 
Q 3209 422 3611 934 
Q 4013 1447 4013 2328 
Q 4013 3213 3611 3725 
Q 3209 4238 2522 4238 
z
M 2522 4750 
Q 3503 4750 4090 4092 
Q 4678 3434 4678 2328 
Q 4678 1225 4090 567 
Q 3503 -91 2522 -91 
Q 1538 -91 948 565 
Q 359 1222 359 2328 
Q 359 3434 948 4092 
Q 1538 4750 2522 4750 
z
" transform="scale(0.015625)"/>
      <path id="DejaVuSans-5f" d="M 3263 -1063 
L 3263 -1509 
L -63 -1509 
L -63 -1063 
L 3263 -1063 
z
" transform="scale(0.015625)"/>
      <path id="DejaVuSans-43" d="M 4122 4306 
L 4122 3641 
Q 3803 3938 3442 4084 
Q 3081 4231 2675 4231 
Q 1875 4231 1450 3742 
Q 1025 3253 1025 2328 
Q 1025 1406 1450 917 
Q 1875 428 2675 428 
Q 3081 428 3442 575 
Q 3803 722 4122 1019 
L 4122 359 
Q 3791 134 3420 21 
Q 3050 -91 2638 -91 
Q 1578 -91 968 557 
Q 359 1206 359 2328 
Q 359 3453 968 4101 
Q 1578 4750 2638 4750 
Q 3056 4750 3426 4639 
Q 3797 4528 4122 4306 
z
" transform="scale(0.015625)"/>
     </defs>
     <use xlink:href="#DejaVuSans-50"/>
     <use xlink:href="#DejaVuSans-6c" transform="translate(60.302734 0)"/>
     <use xlink:href="#DejaVuSans-61" transform="translate(88.085938 0)"/>
     <use xlink:href="#DejaVuSans-6e" transform="translate(149.365234 0)"/>
     <use xlink:href="#DejaVuSans-63" transform="translate(212.744141 0)"/>
     <use xlink:href="#DejaVuSans-6b" transform="translate(267.724609 0)"/>
     <use xlink:href="#DejaVuSans-20" transform="translate(325.634766 0)"/>
     <use xlink:href="#DejaVuSans-65" transform="translate(357.421875 0)"/>
     <use xlink:href="#DejaVuSans-6d" transform="translate(418.945312 0)"/>
     <use xlink:href="#DejaVuSans-69" transform="translate(516.357422 0)"/>
     <use xlink:href="#DejaVuSans-73" transform="translate(544.140625 0)"/>
     <use xlink:href="#DejaVuSans-73" transform="translate(596.240234 0)"/>
     <use xlink:href="#DejaVuSans-69" transform="translate(648.339844 0)"/>
     <use xlink:href="#DejaVuSans-6f" transform="translate(676.123047 0)"/>
     <use xlink:href="#DejaVuSans-6e" transform="translate(737.304688 0)"/>
     <use xlink:href="#DejaVuSans-20" transform="translate(800.683594 0)"/>
     <use xlink:href="#DejaVuSans-61" transform="translate(832.470703 0)"/>
     <use xlink:href="#DejaVuSans-74" transform="translate(893.75 0)"/>
     <use xlink:href="#DejaVuSans-20" transform="translate(932.958984 0)"/>
     <use xlink:href="#DejaVuSans-3c4" transform="translate(964.746094 0)"/>
     <use xlink:href="#DejaVuSans-20" transform="translate(1024.951172 0)"/>
     <use xlink:href="#DejaVuSans-3d" transform="translate(1056.738281 0)"/>
     <use xlink:href="#DejaVuSans-20" transform="translate(1140.527344 0)"/>
     <use xlink:href="#DejaVuSans-31" transform="translate(1172.314453 0)"/>
     <use xlink:href="#DejaVuSans-20" transform="translate(1235.9375 0)"/>
     <use xlink:href="#DejaVuSans-6c" transform="translate(1267.724609 0)"/>
     <use xlink:href="#DejaVuSans-65" transform="translate(1295.507812 0)"/>
     <use xlink:href="#DejaVuSans-76" transform="translate(1357.03125 0)"/>
     <use xlink:href="#DejaVuSans-65" transform="translate(1416.210938 0)"/>
     <use xlink:href="#DejaVuSans-6c" transform="translate(1477.734375 0)"/>
     <use xlink:href="#DejaVuSans-20" transform="translate(1505.517578 0)"/>
     <use xlink:href="#DejaVuSans-66" transform="translate(1537.304688 0)"/>
     <use xlink:href="#DejaVuSans-6f" transform="translate(1572.509766 0)"/>
     <use xlink:href="#DejaVuSans-72" transform="translate(1633.691406 0)"/>
     <use xlink:href="#DejaVuSans-20" transform="translate(1674.804688 0)"/>
     <use xlink:href="#DejaVuSans-28" transform="translate(1706.591797 0)"/>
     <use xlink:href="#DejaVuSans-48" transform="translate(1745.605469 0)"/>
     <use xlink:href="#DejaVuSans-32" transform="translate(1820.800781 0)"/>
     <use xlink:href="#DejaVuSans-4f" transform="translate(1884.423828 0)"/>
     <use xlink:href="#DejaVuSans-5f" transform="translate(1963.134766 0)"/>
     <use xlink:href="#DejaVuSans-43" transform="translate(2013.134766 0)"/>
     <use xlink:href="#DejaVuSans-4f" transform="translate(2082.958984 0)"/>
     <use xlink:href="#DejaVuSans-32" transform="translate(2161.669922 0)"/>
     <use xlink:href="#DejaVuSans-5f" transform="translate(2225.292969 0)"/>
     <use xlink:href="#DejaVuSans-4f" transform="translate(2275.292969 0)"/>
     <use xlink:href="#DejaVuSans-33" transform="translate(2354.003906 0)"/>
     <use xlink:href="#DejaVuSans-29" transform="translate(2417.626953 0)"/>
    </g>
   </g>
  </g>
 </g>
 <defs>
  <clipPath id="p81dc7c1e31">
   <rect x="45.303125" y="32.916562" width="357.12" height="266.112"/>
  </clipPath>
 </defs>
</svg>
