<?xml version="1.0" encoding="utf-8" standalone="no"?>
<!DOCTYPE svg PUBLIC "-//W3C//DTD SVG 1.1//EN"
  "http://www.w3.org/Graphics/SVG/1.1/DTD/svg11.dtd">
<svg xmlns:xlink="http://www.w3.org/1999/xlink" width="400.0825pt" height="327.40825pt" viewBox="0 0 400.0825 327.40825" xmlns="http://www.w3.org/2000/svg" version="1.1">
 <metadata>
  <rdf:RDF xmlns:dc="http://purl.org/dc/elements/1.1/" xmlns:cc="http://creativecommons.org/ns#" xmlns:rdf="http://www.w3.org/1999/02/22-rdf-syntax-ns#">
   <cc:Work>
    <dc:type rdf:resource="http://purl.org/dc/dcmitype/StillImage"/>
    <dc:date>2026-01-22T21:37:23.386847</dc:date>
    <dc:format>image/svg+xml</dc:format>
    <dc:creator>
     <cc:Agent>
      <dc:title>Matplotlib v3.10.6, https://matplotlib.org/</dc:title>
     </cc:Agent>
    </dc:creator>
   </cc:Work>
  </rdf:RDF>
 </metadata>
 <defs>
  <style type="text/css">*{stroke-linejoin: round; stroke-linecap: butt}</style>
 </defs>
 <g id="figure_1">
  <g id="patch_1">
   <path d="M 0 327.40825 
L 400.0825 327.40825 
L 400.0825 0 
L 0 0 
z
" style="fill: #ffffff"/>
  </g>
  <g id="axes_1">
   <g id="patch_2">
    <path d="M 35.7625 288.430125 
L 392.8825 288.430125 
L 392.8825 22.318125 
L 35.7625 22.318125 
z
" style="fill: #ffffff"/>
   </g>
   <g id="matplotlib.axis_1">
    <g id="xtick_1">
     <g id="line2d_1">
      <path d="M 51.832819 288.430125 
L 51.832819 22.318125 
" clip-path="url(#p47505dddc2)" style="fill: none; stroke: #808080; stroke-width: 0.3; stroke-linecap: square"/>
     </g>
     <g id="line2d_2">
      <defs>
       <path id="m5410c57f28" d="M 0 0 
L 0 3.5 
" style="stroke: #000000; stroke-width: 0.8"/>
      </defs>
      <g>
       <use xlink:href="#m5410c57f28" x="51.832819" y="288.430125" style="stroke: #000000; stroke-width: 0.8"/>
      </g>
     </g>
     <g id="text_1">
      <!-- 0 -->
      <g transform="translate(48.651569 303.028562) scale(0.1 -0.1)">
       <defs>
        <path id="DejaVuSans-30" d="M 2034 4250 
Q 1547 4250 1301 3770 
Q 1056 3291 1056 2328 
Q 1056 1369 1301 889 
Q 1547 409 2034 409 
Q 2525 409 2770 889 
Q 3016 1369 3016 2328 
Q 3016 3291 2770 3770 
Q 2525 4250 2034 4250 
z
M 2034 4750 
Q 2819 4750 3233 4129 
Q 3647 3509 3647 2328 
Q 3647 1150 3233 529 
Q 2819 -91 2034 -91 
Q 1250 -91 836 529 
Q 422 1150 422 2328 
Q 422 3509 836 4129 
Q 1250 4750 2034 4750 
z
" transform="scale(0.015625)"/>
       </defs>
       <use xlink:href="#DejaVuSans-30"/>
      </g>
     </g>
    </g>
    <g id="xtick_2">
     <g id="line2d_3">
      <path d="M 92.434938 288.430125 
L 92.434938 22.318125 
" clip-path="url(#p47505dddc2)" style="fill: none; stroke: #808080; stroke-width: 0.3; stroke-linecap: square"/>
     </g>
     <g id="line2d_4">
      <g>
       <use xlink:href="#m5410c57f28" x="92.434938" y="288.430125" style="stroke: #000000; stroke-width: 0.8"/>
      </g>
     </g>
     <g id="text_2">
      <!-- 250 -->
      <g transform="translate(82.891188 303.028562) scale(0.1 -0.1)">
       <defs>
        <path id="DejaVuSans-32" d="M 1228 531 
L 3431 531 
L 3431 0 
L 469 0 
L 469 531 
Q 828 903 1448 1529 
Q 2069 2156 2228 2338 
Q 2531 2678 2651 2914 
Q 2772 3150 2772 3378 
Q 2772 3750 2511 3984 
Q 2250 4219 1831 4219 
Q 1534 4219 1204 4116 
Q 875 4013 500 3803 
L 500 4441 
Q 881 4594 1212 4672 
Q 1544 4750 1819 4750 
Q 2544 4750 2975 4387 
Q 3406 4025 3406 3419 
Q 3406 3131 3298 2873 
Q 3191 2616 2906 2266 
Q 2828 2175 2409 1742 
Q 1991 1309 1228 531 
z
" transform="scale(0.015625)"/>
        <path id="DejaVuSans-35" d="M 691 4666 
L 3169 4666 
L 3169 4134 
L 1269 4134 
L 1269 2991 
Q 1406 3038 1543 3061 
Q 1681 3084 1819 3084 
Q 2600 3084 3056 2656 
Q 3513 2228 3513 1497 
Q 3513 744 3044 326 
Q 2575 -91 1722 -91 
Q 1428 -91 1123 -41 
Q 819 9 494 109 
L 494 744 
Q 775 591 1075 516 
Q 1375 441 1709 441 
Q 2250 441 2565 725 
Q 2881 1009 2881 1497 
Q 2881 1984 2565 2268 
Q 2250 2553 1709 2553 
Q 1456 2553 1204 2497 
Q 953 2441 691 2322 
L 691 4666 
z
" transform="scale(0.015625)"/>
       </defs>
       <use xlink:href="#DejaVuSans-32"/>
       <use xlink:href="#DejaVuSans-35" transform="translate(63.623047 0)"/>
       <use xlink:href="#DejaVuSans-30" transform="translate(127.246094 0)"/>
      </g>
     </g>
    </g>
    <g id="xtick_3">
     <g id="line2d_5">
      <path d="M 133.037057 288.430125 
L 133.037057 22.318125 
" clip-path="url(#p47505dddc2)" style="fill: none; stroke: #808080; stroke-width: 0.3; stroke-linecap: square"/>
     </g>
     <g id="line2d_6">
      <g>
       <use xlink:href="#m5410c57f28" x="133.037057" y="288.430125" style="stroke: #000000; stroke-width: 0.8"/>
      </g>
     </g>
     <g id="text_3">
      <!-- 500 -->
      <g transform="translate(123.493307 303.028562) scale(0.1 -0.1)">
       <use xlink:href="#DejaVuSans-35"/>
       <use xlink:href="#DejaVuSans-30" transform="translate(63.623047 0)"/>
       <use xlink:href="#DejaVuSans-30" transform="translate(127.246094 0)"/>
      </g>
     </g>
    </g>
    <g id="xtick_4">
     <g id="line2d_7">
      <path d="M 173.639177 288.430125 
L 173.639177 22.318125 
" clip-path="url(#p47505dddc2)" style="fill: none; stroke: #808080; stroke-width: 0.3; stroke-linecap: square"/>
     </g>
     <g id="line2d_8">
      <g>
       <use xlink:href="#m5410c57f28" x="173.639177" y="288.430125" style="stroke: #000000; stroke-width: 0.8"/>
      </g>
     </g>
     <g id="text_4">
      <!-- 750 -->
      <g transform="translate(164.095427 303.028562) scale(0.1 -0.1)">
       <defs>
        <path id="DejaVuSans-37" d="M 525 4666 
L 3525 4666 
L 3525 4397 
L 1831 0 
L 1172 0 
L 2766 4134 
L 525 4134 
L 525 4666 
z
" transform="scale(0.015625)"/>
       </defs>
       <use xlink:href="#DejaVuSans-37"/>
       <use xlink:href="#DejaVuSans-35" transform="translate(63.623047 0)"/>
       <use xlink:href="#DejaVuSans-30" transform="translate(127.246094 0)"/>
      </g>
     </g>
    </g>
    <g id="xtick_5">
     <g id="line2d_9">
      <path d="M 214.241296 288.430125 
L 214.241296 22.318125 
" clip-path="url(#p47505dddc2)" style="fill: none; stroke: #808080; stroke-width: 0.3; stroke-linecap: square"/>
     </g>
     <g id="line2d_10">
      <g>
       <use xlink:href="#m5410c57f28" x="214.241296" y="288.430125" style="stroke: #000000; stroke-width: 0.8"/>
      </g>
     </g>
     <g id="text_5">
      <!-- 1000 -->
      <g transform="translate(201.516296 303.028562) scale(0.1 -0.1)">
       <defs>
        <path id="DejaVuSans-31" d="M 794 531 
L 1825 531 
L 1825 4091 
L 703 3866 
L 703 4441 
L 1819 4666 
L 2450 4666 
L 2450 531 
L 3481 531 
L 3481 0 
L 794 0 
L 794 531 
z
" transform="scale(0.015625)"/>
       </defs>
       <use xlink:href="#DejaVuSans-31"/>
       <use xlink:href="#DejaVuSans-30" transform="translate(63.623047 0)"/>
       <use xlink:href="#DejaVuSans-30" transform="translate(127.246094 0)"/>
       <use xlink:href="#DejaVuSans-30" transform="translate(190.869141 0)"/>
      </g>
     </g>
    </g>
    <g id="xtick_6">
     <g id="line2d_11">
      <path d="M 254.843415 288.430125 
L 254.843415 22.318125 
" clip-path="url(#p47505dddc2)" style="fill: none; stroke: #808080; stroke-width: 0.3; stroke-linecap: square"/>
     </g>
     <g id="line2d_12">
      <g>
       <use xlink:href="#m5410c57f28" x="254.843415" y="288.430125" style="stroke: #000000; stroke-width: 0.8"/>
      </g>
     </g>
     <g id="text_6">
      <!-- 1250 -->
      <g transform="translate(242.118415 303.028562) scale(0.1 -0.1)">
       <use xlink:href="#DejaVuSans-31"/>
       <use xlink:href="#DejaVuSans-32" transform="translate(63.623047 0)"/>
       <use xlink:href="#DejaVuSans-35" transform="translate(127.246094 0)"/>
       <use xlink:href="#DejaVuSans-30" transform="translate(190.869141 0)"/>
      </g>
     </g>
    </g>
    <g id="xtick_7">
     <g id="line2d_13">
      <path d="M 295.445534 288.430125 
L 295.445534 22.318125 
" clip-path="url(#p47505dddc2)" style="fill: none; stroke: #808080; stroke-width: 0.3; stroke-linecap: square"/>
     </g>
     <g id="line2d_14">
      <g>
       <use xlink:href="#m5410c57f28" x="295.445534" y="288.430125" style="stroke: #000000; stroke-width: 0.8"/>
      </g>
     </g>
     <g id="text_7">
      <!-- 1500 -->
      <g transform="translate(282.720534 303.028562) scale(0.1 -0.1)">
       <use xlink:href="#DejaVuSans-31"/>
       <use xlink:href="#DejaVuSans-35" transform="translate(63.623047 0)"/>
       <use xlink:href="#DejaVuSans-30" transform="translate(127.246094 0)"/>
       <use xlink:href="#DejaVuSans-30" transform="translate(190.869141 0)"/>
      </g>
     </g>
    </g>
    <g id="xtick_8">
     <g id="line2d_15">
      <path d="M 336.047653 288.430125 
L 336.047653 22.318125 
" clip-path="url(#p47505dddc2)" style="fill: none; stroke: #808080; stroke-width: 0.3; stroke-linecap: square"/>
     </g>
     <g id="line2d_16">
      <g>
       <use xlink:href="#m5410c57f28" x="336.047653" y="288.430125" style="stroke: #000000; stroke-width: 0.8"/>
      </g>
     </g>
     <g id="text_8">
      <!-- 1750 -->
      <g transform="translate(323.322653 303.028562) scale(0.1 -0.1)">
       <use xlink:href="#DejaVuSans-31"/>
       <use xlink:href="#DejaVuSans-37" transform="translate(63.623047 0)"/>
       <use xlink:href="#DejaVuSans-35" transform="translate(127.246094 0)"/>
       <use xlink:href="#DejaVuSans-30" transform="translate(190.869141 0)"/>
      </g>
     </g>
    </g>
    <g id="xtick_9">
     <g id="line2d_17">
      <path d="M 376.649773 288.430125 
L 376.649773 22.318125 
" clip-path="url(#p47505dddc2)" style="fill: none; stroke: #808080; stroke-width: 0.3; stroke-linecap: square"/>
     </g>
     <g id="line2d_18">
      <g>
       <use xlink:href="#m5410c57f28" x="376.649773" y="288.430125" style="stroke: #000000; stroke-width: 0.8"/>
      </g>
     </g>
     <g id="text_9">
      <!-- 2000 -->
      <g transform="translate(363.924773 303.028562) scale(0.1 -0.1)">
       <use xlink:href="#DejaVuSans-32"/>
       <use xlink:href="#DejaVuSans-30" transform="translate(63.623047 0)"/>
       <use xlink:href="#DejaVuSans-30" transform="translate(127.246094 0)"/>
       <use xlink:href="#DejaVuSans-30" transform="translate(190.869141 0)"/>
      </g>
     </g>
    </g>
    <g id="text_10">
     <!-- Frequency / Kayser (cm$^{-1}$) -->
     <g transform="translate(147.6225 318.10825) scale(0.1 -0.1)">
      <defs>
       <path id="DejaVuSans-46" d="M 628 4666 
L 3309 4666 
L 3309 4134 
L 1259 4134 
L 1259 2759 
L 3109 2759 
L 3109 2228 
L 1259 2228 
L 1259 0 
L 628 0 
L 628 4666 
z
" transform="scale(0.015625)"/>
       <path id="DejaVuSans-72" d="M 2631 2963 
Q 2534 3019 2420 3045 
Q 2306 3072 2169 3072 
Q 1681 3072 1420 2755 
Q 1159 2438 1159 1844 
L 1159 0 
L 581 0 
L 581 3500 
L 1159 3500 
L 1159 2956 
Q 1341 3275 1631 3429 
Q 1922 3584 2338 3584 
Q 2397 3584 2469 3576 
Q 2541 3569 2628 3553 
L 2631 2963 
z
" transform="scale(0.015625)"/>
       <path id="DejaVuSans-65" d="M 3597 1894 
L 3597 1613 
L 953 1613 
Q 991 1019 1311 708 
Q 1631 397 2203 397 
Q 2534 397 2845 478 
Q 3156 559 3463 722 
L 3463 178 
Q 3153 47 2828 -22 
Q 2503 -91 2169 -91 
Q 1331 -91 842 396 
Q 353 884 353 1716 
Q 353 2575 817 3079 
Q 1281 3584 2069 3584 
Q 2775 3584 3186 3129 
Q 3597 2675 3597 1894 
z
M 3022 2063 
Q 3016 2534 2758 2815 
Q 2500 3097 2075 3097 
Q 1594 3097 1305 2825 
Q 1016 2553 972 2059 
L 3022 2063 
z
" transform="scale(0.015625)"/>
       <path id="DejaVuSans-71" d="M 947 1747 
Q 947 1113 1208 752 
Q 1469 391 1925 391 
Q 2381 391 2643 752 
Q 2906 1113 2906 1747 
Q 2906 2381 2643 2742 
Q 2381 3103 1925 3103 
Q 1469 3103 1208 2742 
Q 947 2381 947 1747 
z
M 2906 525 
Q 2725 213 2448 61 
Q 2172 -91 1784 -91 
Q 1150 -91 751 415 
Q 353 922 353 1747 
Q 353 2572 751 3078 
Q 1150 3584 1784 3584 
Q 2172 3584 2448 3432 
Q 2725 3281 2906 2969 
L 2906 3500 
L 3481 3500 
L 3481 -1331 
L 2906 -1331 
L 2906 525 
z
" transform="scale(0.015625)"/>
       <path id="DejaVuSans-75" d="M 544 1381 
L 544 3500 
L 1119 3500 
L 1119 1403 
Q 1119 906 1312 657 
Q 1506 409 1894 409 
Q 2359 409 2629 706 
Q 2900 1003 2900 1516 
L 2900 3500 
L 3475 3500 
L 3475 0 
L 2900 0 
L 2900 538 
Q 2691 219 2414 64 
Q 2138 -91 1772 -91 
Q 1169 -91 856 284 
Q 544 659 544 1381 
z
M 1991 3584 
L 1991 3584 
z
" transform="scale(0.015625)"/>
       <path id="DejaVuSans-6e" d="M 3513 2113 
L 3513 0 
L 2938 0 
L 2938 2094 
Q 2938 2591 2744 2837 
Q 2550 3084 2163 3084 
Q 1697 3084 1428 2787 
Q 1159 2491 1159 1978 
L 1159 0 
L 581 0 
L 581 3500 
L 1159 3500 
L 1159 2956 
Q 1366 3272 1645 3428 
Q 1925 3584 2291 3584 
Q 2894 3584 3203 3211 
Q 3513 2838 3513 2113 
z
" transform="scale(0.015625)"/>
       <path id="DejaVuSans-63" d="M 3122 3366 
L 3122 2828 
Q 2878 2963 2633 3030 
Q 2388 3097 2138 3097 
Q 1578 3097 1268 2742 
Q 959 2388 959 1747 
Q 959 1106 1268 751 
Q 1578 397 2138 397 
Q 2388 397 2633 464 
Q 2878 531 3122 666 
L 3122 134 
Q 2881 22 2623 -34 
Q 2366 -91 2075 -91 
Q 1284 -91 818 406 
Q 353 903 353 1747 
Q 353 2603 823 3093 
Q 1294 3584 2113 3584 
Q 2378 3584 2631 3529 
Q 2884 3475 3122 3366 
z
" transform="scale(0.015625)"/>
       <path id="DejaVuSans-79" d="M 2059 -325 
Q 1816 -950 1584 -1140 
Q 1353 -1331 966 -1331 
L 506 -1331 
L 506 -850 
L 844 -850 
Q 1081 -850 1212 -737 
Q 1344 -625 1503 -206 
L 1606 56 
L 191 3500 
L 800 3500 
L 1894 763 
L 2988 3500 
L 3597 3500 
L 2059 -325 
z
" transform="scale(0.015625)"/>
       <path id="DejaVuSans-20" transform="scale(0.015625)"/>
       <path id="DejaVuSans-2f" d="M 1625 4666 
L 2156 4666 
L 531 -594 
L 0 -594 
L 1625 4666 
z
" transform="scale(0.015625)"/>
       <path id="DejaVuSans-4b" d="M 628 4666 
L 1259 4666 
L 1259 2694 
L 3353 4666 
L 4166 4666 
L 1850 2491 
L 4331 0 
L 3500 0 
L 1259 2247 
L 1259 0 
L 628 0 
L 628 4666 
z
" transform="scale(0.015625)"/>
       <path id="DejaVuSans-61" d="M 2194 1759 
Q 1497 1759 1228 1600 
Q 959 1441 959 1056 
Q 959 750 1161 570 
Q 1363 391 1709 391 
Q 2188 391 2477 730 
Q 2766 1069 2766 1631 
L 2766 1759 
L 2194 1759 
z
M 3341 1997 
L 3341 0 
L 2766 0 
L 2766 531 
Q 2569 213 2275 61 
Q 1981 -91 1556 -91 
Q 1019 -91 701 211 
Q 384 513 384 1019 
Q 384 1609 779 1909 
Q 1175 2209 1959 2209 
L 2766 2209 
L 2766 2266 
Q 2766 2663 2505 2880 
Q 2244 3097 1772 3097 
Q 1472 3097 1187 3025 
Q 903 2953 641 2809 
L 641 3341 
Q 956 3463 1253 3523 
Q 1550 3584 1831 3584 
Q 2591 3584 2966 3190 
Q 3341 2797 3341 1997 
z
" transform="scale(0.015625)"/>
       <path id="DejaVuSans-73" d="M 2834 3397 
L 2834 2853 
Q 2591 2978 2328 3040 
Q 2066 3103 1784 3103 
Q 1356 3103 1142 2972 
Q 928 2841 928 2578 
Q 928 2378 1081 2264 
Q 1234 2150 1697 2047 
L 1894 2003 
Q 2506 1872 2764 1633 
Q 3022 1394 3022 966 
Q 3022 478 2636 193 
Q 2250 -91 1575 -91 
Q 1294 -91 989 -36 
Q 684 19 347 128 
L 347 722 
Q 666 556 975 473 
Q 1284 391 1588 391 
Q 1994 391 2212 530 
Q 2431 669 2431 922 
Q 2431 1156 2273 1281 
Q 2116 1406 1581 1522 
L 1381 1569 
Q 847 1681 609 1914 
Q 372 2147 372 2553 
Q 372 3047 722 3315 
Q 1072 3584 1716 3584 
Q 2034 3584 2315 3537 
Q 2597 3491 2834 3397 
z
" transform="scale(0.015625)"/>
       <path id="DejaVuSans-28" d="M 1984 4856 
Q 1566 4138 1362 3434 
Q 1159 2731 1159 2009 
Q 1159 1288 1364 580 
Q 1569 -128 1984 -844 
L 1484 -844 
Q 1016 -109 783 600 
Q 550 1309 550 2009 
Q 550 2706 781 3412 
Q 1013 4119 1484 4856 
L 1984 4856 
z
" transform="scale(0.015625)"/>
       <path id="DejaVuSans-6d" d="M 3328 2828 
Q 3544 3216 3844 3400 
Q 4144 3584 4550 3584 
Q 5097 3584 5394 3201 
Q 5691 2819 5691 2113 
L 5691 0 
L 5113 0 
L 5113 2094 
Q 5113 2597 4934 2840 
Q 4756 3084 4391 3084 
Q 3944 3084 3684 2787 
Q 3425 2491 3425 1978 
L 3425 0 
L 2847 0 
L 2847 2094 
Q 2847 2600 2669 2842 
Q 2491 3084 2119 3084 
Q 1678 3084 1418 2786 
Q 1159 2488 1159 1978 
L 1159 0 
L 581 0 
L 581 3500 
L 1159 3500 
L 1159 2956 
Q 1356 3278 1631 3431 
Q 1906 3584 2284 3584 
Q 2666 3584 2933 3390 
Q 3200 3197 3328 2828 
z
" transform="scale(0.015625)"/>
       <path id="DejaVuSans-2212" d="M 678 2272 
L 4684 2272 
L 4684 1741 
L 678 1741 
L 678 2272 
z
" transform="scale(0.015625)"/>
       <path id="DejaVuSans-29" d="M 513 4856 
L 1013 4856 
Q 1481 4119 1714 3412 
Q 1947 2706 1947 2009 
Q 1947 1309 1714 600 
Q 1481 -109 1013 -844 
L 513 -844 
Q 928 -128 1133 580 
Q 1338 1288 1338 2009 
Q 1338 2731 1133 3434 
Q 928 4138 513 4856 
z
" transform="scale(0.015625)"/>
      </defs>
      <use xlink:href="#DejaVuSans-46" transform="translate(0 0.684375)"/>
      <use xlink:href="#DejaVuSans-72" transform="translate(57.519531 0.684375)"/>
      <use xlink:href="#DejaVuSans-65" transform="translate(98.632812 0.684375)"/>
      <use xlink:href="#DejaVuSans-71" transform="translate(160.15625 0.684375)"/>
      <use xlink:href="#DejaVuSans-75" transform="translate(223.632812 0.684375)"/>
      <use xlink:href="#DejaVuSans-65" transform="translate(287.011719 0.684375)"/>
      <use xlink:href="#DejaVuSans-6e" transform="translate(348.535156 0.684375)"/>
      <use xlink:href="#DejaVuSans-63" transform="translate(411.914062 0.684375)"/>
      <use xlink:href="#DejaVuSans-79" transform="translate(466.894531 0.684375)"/>
      <use xlink:href="#DejaVuSans-20" transform="translate(526.074219 0.684375)"/>
      <use xlink:href="#DejaVuSans-2f" transform="translate(557.861328 0.684375)"/>
      <use xlink:href="#DejaVuSans-20" transform="translate(591.552734 0.684375)"/>
      <use xlink:href="#DejaVuSans-4b" transform="translate(623.339844 0.684375)"/>
      <use xlink:href="#DejaVuSans-61" transform="translate(688.916016 0.684375)"/>
      <use xlink:href="#DejaVuSans-79" transform="translate(750.195312 0.684375)"/>
      <use xlink:href="#DejaVuSans-73" transform="translate(809.375 0.684375)"/>
      <use xlink:href="#DejaVuSans-65" transform="translate(861.474609 0.684375)"/>
      <use xlink:href="#DejaVuSans-72" transform="translate(922.998047 0.684375)"/>
      <use xlink:href="#DejaVuSans-20" transform="translate(964.111328 0.684375)"/>
      <use xlink:href="#DejaVuSans-28" transform="translate(995.898438 0.684375)"/>
      <use xlink:href="#DejaVuSans-63" transform="translate(1034.912109 0.684375)"/>
      <use xlink:href="#DejaVuSans-6d" transform="translate(1089.892578 0.684375)"/>
      <use xlink:href="#DejaVuSans-2212" transform="translate(1188.261719 38.965625) scale(0.7)"/>
      <use xlink:href="#DejaVuSans-31" transform="translate(1246.914062 38.965625) scale(0.7)"/>
      <use xlink:href="#DejaVuSans-29" transform="translate(1294.18457 0.684375)"/>
     </g>
    </g>
   </g>
   <g id="matplotlib.axis_2">
    <g id="ytick_1">
     <g id="line2d_19">
      <path d="M 35.7625 276.338394 
L 392.8825 276.338394 
" clip-path="url(#p47505dddc2)" style="fill: none; stroke: #808080; stroke-width: 0.3; stroke-linecap: square"/>
     </g>
     <g id="line2d_20">
      <defs>
       <path id="me56d977e3d" d="M 0 0 
L -3.5 0 
" style="stroke: #000000; stroke-width: 0.8"/>
      </defs>
      <g>
       <use xlink:href="#me56d977e3d" x="35.7625" y="276.338394" style="stroke: #000000; stroke-width: 0.8"/>
      </g>
     </g>
     <g id="text_11">
      <!-- 0 -->
      <g transform="translate(22.4 280.137613) scale(0.1 -0.1)">
       <use xlink:href="#DejaVuSans-30"/>
      </g>
     </g>
    </g>
    <g id="ytick_2">
     <g id="line2d_21">
      <path d="M 35.7625 222.892744 
L 392.8825 222.892744 
" clip-path="url(#p47505dddc2)" style="fill: none; stroke: #808080; stroke-width: 0.3; stroke-linecap: square"/>
     </g>
     <g id="line2d_22">
      <g>
       <use xlink:href="#me56d977e3d" x="35.7625" y="222.892744" style="stroke: #000000; stroke-width: 0.8"/>
      </g>
     </g>
     <g id="text_12">
      <!-- 1 -->
      <g transform="translate(22.4 226.691963) scale(0.1 -0.1)">
       <use xlink:href="#DejaVuSans-31"/>
      </g>
     </g>
    </g>
    <g id="ytick_3">
     <g id="line2d_23">
      <path d="M 35.7625 169.447094 
L 392.8825 169.447094 
" clip-path="url(#p47505dddc2)" style="fill: none; stroke: #808080; stroke-width: 0.3; stroke-linecap: square"/>
     </g>
     <g id="line2d_24">
      <g>
       <use xlink:href="#me56d977e3d" x="35.7625" y="169.447094" style="stroke: #000000; stroke-width: 0.8"/>
      </g>
     </g>
     <g id="text_13">
      <!-- 2 -->
      <g transform="translate(22.4 173.246312) scale(0.1 -0.1)">
       <use xlink:href="#DejaVuSans-32"/>
      </g>
     </g>
    </g>
    <g id="ytick_4">
     <g id="line2d_25">
      <path d="M 35.7625 116.001443 
L 392.8825 116.001443 
" clip-path="url(#p47505dddc2)" style="fill: none; stroke: #808080; stroke-width: 0.3; stroke-linecap: square"/>
     </g>
     <g id="line2d_26">
      <g>
       <use xlink:href="#me56d977e3d" x="35.7625" y="116.001443" style="stroke: #000000; stroke-width: 0.8"/>
      </g>
     </g>
     <g id="text_14">
      <!-- 3 -->
      <g transform="translate(22.4 119.800662) scale(0.1 -0.1)">
       <defs>
        <path id="DejaVuSans-33" d="M 2597 2516 
Q 3050 2419 3304 2112 
Q 3559 1806 3559 1356 
Q 3559 666 3084 287 
Q 2609 -91 1734 -91 
Q 1441 -91 1130 -33 
Q 819 25 488 141 
L 488 750 
Q 750 597 1062 519 
Q 1375 441 1716 441 
Q 2309 441 2620 675 
Q 2931 909 2931 1356 
Q 2931 1769 2642 2001 
Q 2353 2234 1838 2234 
L 1294 2234 
L 1294 2753 
L 1863 2753 
Q 2328 2753 2575 2939 
Q 2822 3125 2822 3475 
Q 2822 3834 2567 4026 
Q 2313 4219 1838 4219 
Q 1578 4219 1281 4162 
Q 984 4106 628 3988 
L 628 4550 
Q 988 4650 1302 4700 
Q 1616 4750 1894 4750 
Q 2613 4750 3031 4423 
Q 3450 4097 3450 3541 
Q 3450 3153 3228 2886 
Q 3006 2619 2597 2516 
z
" transform="scale(0.015625)"/>
       </defs>
       <use xlink:href="#DejaVuSans-33"/>
      </g>
     </g>
    </g>
    <g id="ytick_5">
     <g id="line2d_27">
      <path d="M 35.7625 62.555793 
L 392.8825 62.555793 
" clip-path="url(#p47505dddc2)" style="fill: none; stroke: #808080; stroke-width: 0.3; stroke-linecap: square"/>
     </g>
     <g id="line2d_28">
      <g>
       <use xlink:href="#me56d977e3d" x="35.7625" y="62.555793" style="stroke: #000000; stroke-width: 0.8"/>
      </g>
     </g>
     <g id="text_15">
      <!-- 4 -->
      <g transform="translate(22.4 66.355012) scale(0.1 -0.1)">
       <defs>
        <path id="DejaVuSans-34" d="M 2419 4116 
L 825 1625 
L 2419 1625 
L 2419 4116 
z
M 2253 4666 
L 3047 4666 
L 3047 1625 
L 3713 1625 
L 3713 1100 
L 3047 1100 
L 3047 0 
L 2419 0 
L 2419 1100 
L 313 1100 
L 313 1709 
L 2253 4666 
z
" transform="scale(0.015625)"/>
       </defs>
       <use xlink:href="#DejaVuSans-34"/>
      </g>
     </g>
    </g>
    <g id="text_16">
     <!-- Spectral radiance ($Wm^{-2}sr^{-1}Hz^{-1}$) -->
     <g transform="translate(16.3 242.274125) rotate(-90) scale(0.1 -0.1)">
      <defs>
       <path id="DejaVuSans-53" d="M 3425 4513 
L 3425 3897 
Q 3066 4069 2747 4153 
Q 2428 4238 2131 4238 
Q 1616 4238 1336 4038 
Q 1056 3838 1056 3469 
Q 1056 3159 1242 3001 
Q 1428 2844 1947 2747 
L 2328 2669 
Q 3034 2534 3370 2195 
Q 3706 1856 3706 1288 
Q 3706 609 3251 259 
Q 2797 -91 1919 -91 
Q 1588 -91 1214 -16 
Q 841 59 441 206 
L 441 856 
Q 825 641 1194 531 
Q 1563 422 1919 422 
Q 2459 422 2753 634 
Q 3047 847 3047 1241 
Q 3047 1584 2836 1778 
Q 2625 1972 2144 2069 
L 1759 2144 
Q 1053 2284 737 2584 
Q 422 2884 422 3419 
Q 422 4038 858 4394 
Q 1294 4750 2059 4750 
Q 2388 4750 2728 4690 
Q 3069 4631 3425 4513 
z
" transform="scale(0.015625)"/>
       <path id="DejaVuSans-70" d="M 1159 525 
L 1159 -1331 
L 581 -1331 
L 581 3500 
L 1159 3500 
L 1159 2969 
Q 1341 3281 1617 3432 
Q 1894 3584 2278 3584 
Q 2916 3584 3314 3078 
Q 3713 2572 3713 1747 
Q 3713 922 3314 415 
Q 2916 -91 2278 -91 
Q 1894 -91 1617 61 
Q 1341 213 1159 525 
z
M 3116 1747 
Q 3116 2381 2855 2742 
Q 2594 3103 2138 3103 
Q 1681 3103 1420 2742 
Q 1159 2381 1159 1747 
Q 1159 1113 1420 752 
Q 1681 391 2138 391 
Q 2594 391 2855 752 
Q 3116 1113 3116 1747 
z
" transform="scale(0.015625)"/>
       <path id="DejaVuSans-74" d="M 1172 4494 
L 1172 3500 
L 2356 3500 
L 2356 3053 
L 1172 3053 
L 1172 1153 
Q 1172 725 1289 603 
Q 1406 481 1766 481 
L 2356 481 
L 2356 0 
L 1766 0 
Q 1100 0 847 248 
Q 594 497 594 1153 
L 594 3053 
L 172 3053 
L 172 3500 
L 594 3500 
L 594 4494 
L 1172 4494 
z
" transform="scale(0.015625)"/>
       <path id="DejaVuSans-6c" d="M 603 4863 
L 1178 4863 
L 1178 0 
L 603 0 
L 603 4863 
z
" transform="scale(0.015625)"/>
       <path id="DejaVuSans-64" d="M 2906 2969 
L 2906 4863 
L 3481 4863 
L 3481 0 
L 2906 0 
L 2906 525 
Q 2725 213 2448 61 
Q 2172 -91 1784 -91 
Q 1150 -91 751 415 
Q 353 922 353 1747 
Q 353 2572 751 3078 
Q 1150 3584 1784 3584 
Q 2172 3584 2448 3432 
Q 2725 3281 2906 2969 
z
M 947 1747 
Q 947 1113 1208 752 
Q 1469 391 1925 391 
Q 2381 391 2643 752 
Q 2906 1113 2906 1747 
Q 2906 2381 2643 2742 
Q 2381 3103 1925 3103 
Q 1469 3103 1208 2742 
Q 947 2381 947 1747 
z
" transform="scale(0.015625)"/>
       <path id="DejaVuSans-69" d="M 603 3500 
L 1178 3500 
L 1178 0 
L 603 0 
L 603 3500 
z
M 603 4863 
L 1178 4863 
L 1178 4134 
L 603 4134 
L 603 4863 
z
" transform="scale(0.015625)"/>
       <path id="DejaVuSans-Oblique-57" d="M 616 4666 
L 1228 4666 
L 1453 697 
L 3213 4666 
L 3916 4666 
L 4147 697 
L 5888 4666 
L 6528 4666 
L 4453 0 
L 3659 0 
L 3444 3891 
L 1697 0 
L 903 0 
L 616 4666 
z
" transform="scale(0.015625)"/>
       <path id="DejaVuSans-Oblique-6d" d="M 5747 2113 
L 5338 0 
L 4763 0 
L 5166 2094 
Q 5191 2228 5203 2325 
Q 5216 2422 5216 2491 
Q 5216 2772 5059 2928 
Q 4903 3084 4622 3084 
Q 4203 3084 3875 2770 
Q 3547 2456 3450 1953 
L 3066 0 
L 2491 0 
L 2900 2094 
Q 2925 2209 2937 2307 
Q 2950 2406 2950 2484 
Q 2950 2769 2794 2926 
Q 2638 3084 2363 3084 
Q 1938 3084 1609 2770 
Q 1281 2456 1184 1953 
L 800 0 
L 225 0 
L 909 3500 
L 1484 3500 
L 1375 2956 
Q 1609 3263 1923 3423 
Q 2238 3584 2597 3584 
Q 2978 3584 3223 3384 
Q 3469 3184 3519 2828 
Q 3781 3197 4126 3390 
Q 4472 3584 4856 3584 
Q 5306 3584 5551 3325 
Q 5797 3066 5797 2591 
Q 5797 2488 5784 2364 
Q 5772 2241 5747 2113 
z
" transform="scale(0.015625)"/>
       <path id="DejaVuSans-Oblique-73" d="M 3200 3397 
L 3091 2853 
Q 2863 2978 2609 3040 
Q 2356 3103 2088 3103 
Q 1634 3103 1373 2948 
Q 1113 2794 1113 2528 
Q 1113 2219 1719 2053 
Q 1766 2041 1788 2034 
L 1972 1978 
Q 2547 1819 2739 1644 
Q 2931 1469 2931 1166 
Q 2931 609 2489 259 
Q 2047 -91 1331 -91 
Q 1053 -91 747 -37 
Q 441 16 72 128 
L 184 722 
Q 500 559 806 475 
Q 1113 391 1394 391 
Q 1816 391 2080 572 
Q 2344 753 2344 1031 
Q 2344 1331 1650 1516 
L 1591 1531 
L 1394 1581 
Q 956 1697 753 1886 
Q 550 2075 550 2369 
Q 550 2928 970 3256 
Q 1391 3584 2113 3584 
Q 2397 3584 2667 3537 
Q 2938 3491 3200 3397 
z
" transform="scale(0.015625)"/>
       <path id="DejaVuSans-Oblique-72" d="M 2853 2969 
Q 2766 3016 2653 3041 
Q 2541 3066 2413 3066 
Q 1953 3066 1609 2717 
Q 1266 2369 1153 1784 
L 800 0 
L 225 0 
L 909 3500 
L 1484 3500 
L 1375 2956 
Q 1603 3259 1920 3421 
Q 2238 3584 2597 3584 
Q 2691 3584 2781 3573 
Q 2872 3563 2963 3538 
L 2853 2969 
z
" transform="scale(0.015625)"/>
       <path id="DejaVuSans-Oblique-48" d="M 1081 4666 
L 1716 4666 
L 1344 2753 
L 3634 2753 
L 4006 4666 
L 4641 4666 
L 3731 0 
L 3097 0 
L 3531 2222 
L 1241 2222 
L 806 0 
L 172 0 
L 1081 4666 
z
" transform="scale(0.015625)"/>
       <path id="DejaVuSans-Oblique-7a" d="M 744 3500 
L 3475 3500 
L 3372 2975 
L 738 459 
L 2913 459 
L 2822 0 
L -19 0 
L 84 525 
L 2719 3041 
L 653 3041 
L 744 3500 
z
" transform="scale(0.015625)"/>
      </defs>
      <use xlink:href="#DejaVuSans-53" transform="translate(0 0.765625)"/>
      <use xlink:href="#DejaVuSans-70" transform="translate(63.476562 0.765625)"/>
      <use xlink:href="#DejaVuSans-65" transform="translate(126.953125 0.765625)"/>
      <use xlink:href="#DejaVuSans-63" transform="translate(188.476562 0.765625)"/>
      <use xlink:href="#DejaVuSans-74" transform="translate(243.457031 0.765625)"/>
      <use xlink:href="#DejaVuSans-72" transform="translate(282.666016 0.765625)"/>
      <use xlink:href="#DejaVuSans-61" transform="translate(323.779297 0.765625)"/>
      <use xlink:href="#DejaVuSans-6c" transform="translate(385.058594 0.765625)"/>
      <use xlink:href="#DejaVuSans-20" transform="translate(412.841797 0.765625)"/>
      <use xlink:href="#DejaVuSans-72" transform="translate(444.628906 0.765625)"/>
      <use xlink:href="#DejaVuSans-61" transform="translate(485.742188 0.765625)"/>
      <use xlink:href="#DejaVuSans-64" transform="translate(547.021484 0.765625)"/>
      <use xlink:href="#DejaVuSans-69" transform="translate(610.498047 0.765625)"/>
      <use xlink:href="#DejaVuSans-61" transform="translate(638.28125 0.765625)"/>
      <use xlink:href="#DejaVuSans-6e" transform="translate(699.560547 0.765625)"/>
      <use xlink:href="#DejaVuSans-63" transform="translate(762.939453 0.765625)"/>
      <use xlink:href="#DejaVuSans-65" transform="translate(817.919922 0.765625)"/>
      <use xlink:href="#DejaVuSans-20" transform="translate(879.443359 0.765625)"/>
      <use xlink:href="#DejaVuSans-28" transform="translate(911.230469 0.765625)"/>
      <use xlink:href="#DejaVuSans-Oblique-57" transform="translate(950.244141 0.765625)"/>
      <use xlink:href="#DejaVuSans-Oblique-6d" transform="translate(1049.121094 0.765625)"/>
      <use xlink:href="#DejaVuSans-2212" transform="translate(1151.183099 39.046875) scale(0.7)"/>
      <use xlink:href="#DejaVuSans-32" transform="translate(1209.835443 39.046875) scale(0.7)"/>
      <use xlink:href="#DejaVuSans-Oblique-73" transform="translate(1257.105951 0.765625)"/>
      <use xlink:href="#DejaVuSans-Oblique-72" transform="translate(1309.20556 0.765625)"/>
      <use xlink:href="#DejaVuSans-2212" transform="translate(1354.968737 39.046875) scale(0.7)"/>
      <use xlink:href="#DejaVuSans-31" transform="translate(1413.621081 39.046875) scale(0.7)"/>
      <use xlink:href="#DejaVuSans-Oblique-48" transform="translate(1460.891589 0.765625)"/>
      <use xlink:href="#DejaVuSans-Oblique-7a" transform="translate(1536.086901 0.765625)"/>
      <use xlink:href="#DejaVuSans-2212" transform="translate(1593.043281 39.046875) scale(0.7)"/>
      <use xlink:href="#DejaVuSans-31" transform="translate(1651.695625 39.046875) scale(0.7)"/>
      <use xlink:href="#DejaVuSans-29" transform="translate(1698.966133 0.765625)"/>
     </g>
    </g>
    <g id="text_17">
     <!-- 1e−12 -->
     <g transform="translate(35.7625 19.318125) scale(0.1 -0.1)">
      <use xlink:href="#DejaVuSans-31"/>
      <use xlink:href="#DejaVuSans-65" transform="translate(63.623047 0)"/>
      <use xlink:href="#DejaVuSans-2212" transform="translate(125.146484 0)"/>
      <use xlink:href="#DejaVuSans-31" transform="translate(208.935547 0)"/>
      <use xlink:href="#DejaVuSans-32" transform="translate(272.558594 0)"/>
     </g>
    </g>
   </g>
   <g id="line2d_29">
    <path d="M 51.995227 276.334125 
L 52.862129 276.176364 
L 54.162481 275.557392 
L 55.029382 275.036877 
L 55.462833 274.554871 
L 55.896283 274.648784 
L 56.329734 273.645233 
L 56.763185 273.285979 
L 57.196635 273.457633 
L 57.630086 272.452834 
L 58.063537 272.447904 
L 58.496987 272.066127 
L 58.930438 270.382125 
L 59.363889 269.989892 
L 59.797339 268.855921 
L 60.23079 268.256609 
L 60.664241 268.206969 
L 61.097691 268.55221 
L 61.531142 266.941212 
L 61.964592 267.215561 
L 62.398043 264.73216 
L 62.831494 264.231686 
L 63.264944 262.786105 
L 63.698395 264.110286 
L 64.131846 263.421472 
L 64.565296 261.153132 
L 64.998747 259.908321 
L 65.432198 257.999363 
L 65.865648 257.907773 
L 66.299099 258.187866 
L 66.73255 257.590796 
L 67.166 254.900684 
L 67.599451 253.50076 
L 68.032902 255.729772 
L 68.466352 251.838976 
L 68.899803 253.0139 
L 69.333254 253.650849 
L 70.200155 245.8636 
L 70.633606 243.918334 
L 71.067056 244.745042 
L 71.500507 246.002585 
L 71.933958 243.316342 
L 72.367408 246.576068 
L 72.800859 240.84487 
L 73.23431 245.578029 
L 73.66776 238.580173 
L 74.101211 235.679409 
L 74.534662 218.386451 
L 74.968112 233.178452 
L 75.401563 231.665154 
L 75.835014 234.154267 
L 76.268464 239.282767 
L 76.701915 237.09835 
L 77.135366 228.569367 
L 77.568816 229.97582 
L 78.002267 222.863836 
L 78.435718 220.311469 
L 78.869168 228.401374 
L 79.302619 225.900409 
L 79.73607 224.495554 
L 80.16952 221.581348 
L 80.602971 227.814969 
L 81.036422 215.963426 
L 81.469872 214.587281 
L 81.903323 209.780209 
L 82.336774 221.702856 
L 82.770224 208.562494 
L 83.203675 212.661713 
L 83.637126 224.491143 
L 84.070576 207.386005 
L 84.504027 213.387292 
L 84.937478 215.728723 
L 85.370928 207.003563 
L 85.804379 212.682227 
L 86.23783 201.955982 
L 86.67128 215.179316 
L 87.104731 194.340202 
L 87.538182 196.60469 
L 87.971632 203.122458 
L 88.405083 199.94498 
L 88.838533 215.823983 
L 89.271984 194.768241 
L 89.705435 197.180733 
L 90.138885 182.012464 
L 90.572336 178.640867 
L 91.005787 180.19816 
L 91.872688 196.862461 
L 92.306139 190.568967 
L 92.739589 186.712746 
L 93.17304 200.288788 
L 93.606491 181.546297 
L 94.039941 171.836098 
L 94.473392 168.071703 
L 94.906843 177.524094 
L 95.340293 173.417336 
L 95.773744 163.974576 
L 96.207195 166.952371 
L 96.640645 188.751576 
L 97.074096 204.82726 
L 97.507547 183.915147 
L 97.940997 171.368672 
L 98.374448 162.677084 
L 98.807899 194.999005 
L 99.241349 160.322584 
L 99.6748 153.691681 
L 100.108251 153.625616 
L 100.541701 158.650315 
L 100.975152 183.380106 
L 101.408603 160.203821 
L 101.842053 146.418801 
L 102.275504 143.115209 
L 102.708955 147.442617 
L 103.142405 152.98723 
L 103.575856 140.330363 
L 104.009307 154.601371 
L 104.442757 198.575438 
L 104.876208 159.027693 
L 105.743109 138.117127 
L 106.17656 197.594036 
L 106.610011 141.21551 
L 107.043461 146.658625 
L 107.476912 140.38216 
L 107.910363 131.734448 
L 108.343813 133.568897 
L 108.777264 148.335627 
L 109.210715 147.290075 
L 109.644165 141.488991 
L 110.077616 157.868947 
L 110.511067 121.4318 
L 110.944517 111.883591 
L 111.377968 111.690636 
L 111.811419 157.318879 
L 112.244869 120.205073 
L 112.67832 162.203549 
L 113.111771 121.234364 
L 113.545221 105.908396 
L 113.978672 117.254362 
L 114.412123 158.610255 
L 114.845573 105.900643 
L 115.279024 100.151995 
L 115.712475 116.254433 
L 116.145925 140.45381 
L 116.579376 140.179699 
L 117.012826 109.252117 
L 117.446277 94.192445 
L 117.879728 86.420941 
L 118.313178 85.516633 
L 118.746629 87.074234 
L 119.18008 125.353431 
L 119.61353 126.337614 
L 120.046981 169.417205 
L 120.480432 124.250333 
L 120.913882 158.003436 
L 121.347333 85.057838 
L 121.780784 110.189509 
L 122.214234 81.136059 
L 122.647685 100.819015 
L 123.081136 78.801255 
L 123.514586 121.421584 
L 123.948037 107.557826 
L 124.381488 108.125085 
L 124.814938 76.29053 
L 125.248389 93.475664 
L 125.68184 89.723927 
L 126.11529 136.792307 
L 126.548741 91.216337 
L 126.982192 76.264328 
L 127.415642 68.035809 
L 127.849093 108.625317 
L 128.282544 91.571734 
L 128.715994 113.177322 
L 129.149445 78.523058 
L 129.582896 67.069104 
L 130.016346 76.294377 
L 130.449797 164.259078 
L 130.883248 70.380055 
L 131.316698 68.567085 
L 131.750149 180.832011 
L 132.1836 59.019453 
L 132.61705 51.433087 
L 133.050501 69.778564 
L 133.483952 107.017102 
L 133.917402 78.741771 
L 134.784304 90.437104 
L 135.217754 58.908183 
L 135.651205 90.461204 
L 136.084656 88.776048 
L 136.518106 65.890443 
L 137.385008 94.803687 
L 137.818458 59.439782 
L 138.251909 43.703935 
L 138.68536 59.476053 
L 139.552261 49.163871 
L 139.985712 48.737679 
L 140.419162 122.571166 
L 140.852613 87.68418 
L 141.719514 49.354333 
L 142.152965 46.222747 
L 142.586416 62.866982 
L 143.019866 40.055121 
L 143.453317 54.462321 
L 143.886768 96.980328 
L 144.320218 117.128153 
L 144.753669 52.895733 
L 145.187119 66.180578 
L 145.62057 61.714149 
L 146.054021 84.988093 
L 146.487471 53.009274 
L 146.920922 57.985345 
L 147.354373 43.885237 
L 147.787823 80.384072 
L 148.221274 62.562512 
L 148.654725 51.20598 
L 149.088175 50.577371 
L 149.521626 46.343722 
L 149.955077 70.197405 
L 150.388527 34.414125 
L 150.821978 35.430094 
L 151.688879 60.347428 
L 152.12233 56.382851 
L 152.555781 65.096237 
L 152.989231 43.569524 
L 153.422682 107.838399 
L 153.856133 40.457775 
L 154.289583 39.407401 
L 154.723034 67.29441 
L 155.156485 65.629878 
L 155.589935 56.393611 
L 156.023386 43.698272 
L 156.456837 111.692011 
L 156.890287 38.795188 
L 157.323738 40.438746 
L 157.757189 43.302602 
L 158.190639 37.574215 
L 158.62409 44.227313 
L 159.057541 63.252023 
L 159.490991 121.84165 
L 159.924442 41.873071 
L 160.357893 63.177551 
L 160.791343 49.366313 
L 161.224794 56.554513 
L 161.658245 40.67854 
L 162.091695 107.814835 
L 162.525146 41.097606 
L 162.958597 41.925077 
L 163.825498 66.657632 
L 164.258949 48.207756 
L 164.692399 58.920744 
L 165.12585 81.305694 
L 165.559301 46.525138 
L 165.992751 50.650258 
L 166.426202 104.178288 
L 166.859653 56.546053 
L 167.293103 48.534854 
L 167.726554 98.427892 
L 168.160005 47.547726 
L 168.593455 48.845454 
L 169.026906 53.772269 
L 169.460357 48.446117 
L 169.893807 50.427293 
L 170.327258 68.196824 
L 170.760709 51.988378 
L 171.194159 54.129826 
L 171.62761 51.784794 
L 172.061061 77.527002 
L 172.494511 59.735835 
L 172.927962 57.081178 
L 173.361412 119.679057 
L 173.794863 55.700086 
L 174.228314 65.613803 
L 174.661764 57.868097 
L 175.095215 56.565358 
L 175.528666 57.726598 
L 175.962116 57.72563 
L 176.395567 59.018035 
L 176.829018 62.152805 
L 177.262468 60.015114 
L 177.695919 64.024778 
L 178.12937 65.27472 
L 178.56282 62.689297 
L 179.429722 65.890899 
L 179.863172 64.293095 
L 180.296623 65.045694 
L 180.730074 76.775798 
L 181.163524 82.637918 
L 181.596975 96.528924 
L 182.030426 68.553587 
L 182.463876 69.978171 
L 182.897327 69.612679 
L 183.330778 70.064323 
L 183.764228 70.732939 
L 184.197679 73.207451 
L 184.63113 72.012728 
L 185.498031 73.550947 
L 185.931482 75.035867 
L 186.364932 75.895859 
L 186.798383 75.795071 
L 187.665284 77.385976 
L 188.098735 78.543105 
L 188.532186 80.39404 
L 188.965636 79.658544 
L 189.399087 80.50382 
L 189.832538 101.720497 
L 190.265988 131.167398 
L 190.699439 85.855332 
L 191.13289 83.631818 
L 191.999791 85.157163 
L 192.433242 88.664964 
L 192.866692 86.753873 
L 193.300143 95.434286 
L 193.733594 88.354117 
L 194.167044 89.174811 
L 194.600495 90.688645 
L 195.033946 90.8674 
L 195.467396 92.039643 
L 195.900847 104.052768 
L 196.334298 93.414414 
L 196.767748 93.960841 
L 197.201199 94.740891 
L 197.63465 97.746627 
L 198.0681 96.352003 
L 198.935002 98.171366 
L 199.368452 100.121312 
L 199.801903 99.718426 
L 200.235354 100.900897 
L 200.668804 101.240338 
L 201.102255 102.129284 
L 201.535705 104.3578 
L 201.969156 104.167963 
L 202.402607 104.520516 
L 205.436761 110.249052 
L 205.870212 118.428646 
L 206.303663 111.847514 
L 206.737113 112.924944 
L 207.170564 113.49878 
L 207.604015 114.915323 
L 208.037465 115.271058 
L 208.470916 115.875555 
L 208.904367 116.979553 
L 209.337817 117.524369 
L 210.638169 120.266801 
L 211.07162 120.732503 
L 214.539225 127.152707 
L 214.972676 128.824529 
L 215.406127 129.805841 
L 215.839577 131.116852 
L 216.273028 130.379851 
L 216.706479 131.491757 
L 217.139929 153.850117 
L 217.57338 132.702716 
L 218.440281 134.276241 
L 218.873732 136.930522 
L 219.307183 135.935915 
L 220.174084 137.37938 
L 220.607535 138.730851 
L 221.040985 138.981502 
L 221.907887 140.486425 
L 222.341337 141.560333 
L 222.774788 142.05595 
L 223.208239 143.336587 
L 223.641689 143.603891 
L 224.07514 144.66561 
L 224.508591 145.335798 
L 224.942041 153.200337 
L 225.375492 146.693836 
L 225.808943 147.389032 
L 226.242393 149.236031 
L 226.675844 148.969726 
L 227.542745 150.364982 
L 230.143449 154.876014 
L 230.5769 156.289175 
L 231.01035 156.402217 
L 231.443801 158.086473 
L 231.877252 158.147234 
L 232.310702 165.67003 
L 232.744153 159.226842 
L 233.611054 160.809595 
L 234.044505 162.742736 
L 234.477956 162.003396 
L 234.911406 162.689254 
L 235.344857 164.050072 
L 235.778308 164.628396 
L 236.211758 176.806536 
L 236.645209 168.297253 
L 237.07866 166.290872 
L 237.51211 166.895356 
L 237.945561 167.729196 
L 238.379012 169.317662 
L 238.812462 172.82697 
L 239.245913 169.802847 
L 239.679364 170.272053 
L 240.546265 171.765042 
L 240.979716 175.454417 
L 241.413166 173.379248 
L 241.846617 175.701289 
L 242.280068 176.479588 
L 242.713518 184.254446 
L 243.146969 176.067584 
L 243.58042 178.904151 
L 244.01387 177.260571 
L 244.447321 182.010596 
L 244.880772 180.039451 
L 245.314222 181.907655 
L 245.747673 179.768065 
L 246.614574 182.969835 
L 247.048025 181.54826 
L 247.481476 182.206901 
L 247.914926 184.621473 
L 248.348377 185.497033 
L 248.781828 203.446437 
L 249.215278 187.638558 
L 249.648729 194.547324 
L 250.08218 189.153839 
L 250.51563 189.488029 
L 250.949081 199.622639 
L 251.382532 188.258196 
L 251.815982 188.260949 
L 252.249433 188.826561 
L 252.682884 192.698162 
L 253.116334 201.466547 
L 253.549785 193.128394 
L 253.983236 210.251089 
L 254.416686 192.447741 
L 254.850137 193.374892 
L 255.283588 195.829861 
L 255.717038 195.163178 
L 256.150489 200.510983 
L 256.583939 231.818103 
L 257.01739 200.046877 
L 257.450841 244.351368 
L 257.884291 224.011294 
L 258.317742 233.809894 
L 258.751193 203.451187 
L 259.184643 201.633949 
L 259.618094 204.696613 
L 260.051545 206.745784 
L 260.484995 210.587929 
L 260.918446 258.900921 
L 261.351897 211.659171 
L 261.785347 209.514794 
L 262.218798 206.337662 
L 262.652249 207.324258 
L 263.085699 205.978926 
L 263.51915 205.391475 
L 263.952601 213.69315 
L 264.386051 225.456397 
L 264.819502 220.911269 
L 265.686403 248.829225 
L 266.119854 248.744416 
L 266.553305 222.469921 
L 266.986755 232.819583 
L 267.420206 217.933592 
L 267.853657 240.510322 
L 268.287107 244.03734 
L 269.154009 248.463213 
L 269.587459 254.367335 
L 270.02091 229.960845 
L 270.454361 226.89015 
L 270.887811 246.01375 
L 271.321262 231.154333 
L 271.754713 239.027712 
L 272.188163 238.683107 
L 272.621614 236.984254 
L 273.055065 253.192825 
L 273.488515 241.601062 
L 273.921966 241.696238 
L 274.355417 241.140517 
L 274.788867 251.681815 
L 275.222318 259.471201 
L 275.655769 252.302233 
L 276.089219 238.122276 
L 276.52267 245.032089 
L 276.956121 255.434117 
L 277.389571 250.453638 
L 277.823022 247.037525 
L 278.256473 264.863415 
L 278.689923 255.252077 
L 279.123374 266.398752 
L 279.556825 248.047134 
L 279.990275 268.106622 
L 280.423726 245.35484 
L 280.857177 254.07749 
L 281.290627 247.558599 
L 281.724078 252.294028 
L 282.157529 261.863906 
L 282.590979 259.820416 
L 283.02443 267.381598 
L 283.457881 252.166656 
L 283.891331 258.034891 
L 284.324782 257.78518 
L 284.758232 258.195154 
L 285.191683 274.293323 
L 285.625134 255.984895 
L 286.058584 250.548084 
L 286.492035 253.404973 
L 286.925486 266.464406 
L 287.358936 256.480151 
L 287.792387 259.152185 
L 288.659288 274.450358 
L 289.092739 261.893821 
L 289.52619 263.761535 
L 289.95964 263.949813 
L 290.393091 259.932019 
L 290.826542 270.885367 
L 291.259992 267.471435 
L 291.693443 265.038123 
L 292.126894 256.760851 
L 292.993795 261.490882 
L 293.427246 271.494788 
L 293.860696 269.252793 
L 294.294147 263.452932 
L 294.727598 269.410726 
L 295.161048 269.477938 
L 295.594499 265.173728 
L 296.02795 266.032581 
L 296.4614 271.852532 
L 296.894851 270.002432 
L 297.328302 267.283678 
L 297.761752 265.896789 
L 298.195203 271.242177 
L 298.628654 269.127556 
L 299.062104 271.437666 
L 299.495555 270.59721 
L 299.929006 269.457358 
L 300.362456 265.04318 
L 300.795907 272.305131 
L 301.229358 268.520892 
L 301.662808 275.130163 
L 302.096259 272.266788 
L 302.52971 272.408051 
L 302.96316 267.514221 
L 303.396611 267.150312 
L 303.830062 267.352572 
L 304.263512 275.22057 
L 304.696963 272.04871 
L 305.130414 275.228876 
L 305.563864 269.040211 
L 305.997315 274.773317 
L 306.430766 267.919083 
L 306.864216 272.218793 
L 307.297667 271.87894 
L 307.731118 273.545871 
L 308.164568 271.101271 
L 308.598019 264.150027 
L 309.46492 259.134314 
L 309.898371 260.367271 
L 310.331822 274.14562 
L 310.765272 271.18199 
L 311.198723 262.212296 
L 311.632174 259.443458 
L 312.065624 264.659942 
L 312.499075 262.398233 
L 312.932525 267.762435 
L 313.365976 266.844018 
L 313.799427 268.101201 
L 314.232877 272.317277 
L 314.666328 271.247167 
L 315.099779 269.404278 
L 315.533229 275.392011 
L 315.96668 268.803066 
L 316.400131 271.790984 
L 316.833581 268.44761 
L 317.267032 273.059496 
L 317.700483 272.638036 
L 318.133933 269.07635 
L 318.567384 274.560384 
L 319.000835 272.180499 
L 319.434285 273.827207 
L 319.867736 271.96178 
L 320.301187 275.592728 
L 321.168088 269.369977 
L 322.034989 272.153521 
L 322.46844 269.557994 
L 322.901891 275.043791 
L 323.335341 274.198174 
L 324.202243 270.910849 
L 324.635693 274.207057 
L 325.069144 272.696056 
L 325.502595 275.595288 
L 325.936045 272.06893 
L 326.369496 272.943569 
L 326.802947 271.140482 
L 327.236397 275.678096 
L 327.669848 272.959001 
L 328.103299 275.454306 
L 328.536749 272.429928 
L 328.9702 275.827199 
L 329.403651 269.997559 
L 329.837101 269.880541 
L 330.270552 273.171307 
L 330.704003 274.91108 
L 331.570904 269.967634 
L 332.004355 268.775792 
L 332.437805 269.44434 
L 332.871256 273.852131 
L 333.304707 274.686632 
L 333.738157 273.297121 
L 334.171608 272.285314 
L 334.605059 272.339677 
L 335.038509 273.606518 
L 335.47196 272.354786 
L 335.905411 273.656387 
L 336.338861 273.689948 
L 336.772312 269.845782 
L 337.205763 273.798999 
L 337.639213 270.812741 
L 338.072664 273.338915 
L 338.506115 269.537954 
L 338.939565 273.407384 
L 339.373016 273.370651 
L 339.806467 274.975072 
L 340.239917 274.31563 
L 340.673368 271.623786 
L 341.106818 273.348494 
L 341.540269 273.975938 
L 341.97372 268.976543 
L 342.40717 270.676316 
L 342.840621 273.976448 
L 343.274072 272.290167 
L 343.707522 271.168609 
L 344.140973 274.907804 
L 344.574424 275.598193 
L 345.007874 275.134147 
L 345.441325 273.280688 
L 345.874776 275.248892 
L 346.308226 269.429931 
L 346.741677 267.66665 
L 347.175128 267.086701 
L 347.608578 269.043745 
L 348.042029 271.604774 
L 348.47548 272.175594 
L 348.90893 275.842136 
L 349.342381 271.738944 
L 349.775832 270.804972 
L 350.209282 275.917954 
L 350.642733 269.604478 
L 351.076184 272.61325 
L 351.509634 274.158202 
L 351.943085 274.964706 
L 352.376536 268.665331 
L 352.809986 267.616309 
L 353.243437 267.60446 
L 353.676888 274.960262 
L 354.110338 269.075959 
L 354.543789 269.290197 
L 354.97724 274.693575 
L 355.41069 275.681421 
L 355.844141 270.986524 
L 356.277592 268.238855 
L 356.711042 267.346423 
L 357.144493 269.505452 
L 357.577944 267.394193 
L 358.011394 272.604176 
L 358.444845 271.279665 
L 358.878296 272.677304 
L 359.311746 269.886175 
L 359.745197 272.124013 
L 360.178648 267.837432 
L 360.612098 267.276129 
L 361.045549 271.009722 
L 361.479 269.551086 
L 361.91245 272.470082 
L 362.345901 270.371917 
L 362.779352 272.663217 
L 363.212802 273.611836 
L 363.646253 271.849405 
L 364.079704 274.142107 
L 364.513154 270.032875 
L 364.946605 268.897442 
L 365.380056 267.190621 
L 365.813506 273.360249 
L 366.246957 267.283382 
L 366.680408 269.133328 
L 367.113858 272.432624 
L 367.547309 272.25804 
L 367.980759 273.84166 
L 368.41421 272.586518 
L 368.847661 267.590975 
L 369.281111 271.996454 
L 369.714562 268.797736 
L 370.581463 268.302653 
L 371.448365 273.217872 
L 371.881815 268.363897 
L 372.315266 267.615818 
L 372.748717 270.904122 
L 373.182167 267.6201 
L 373.615618 269.729686 
L 374.049069 268.023782 
L 374.91597 271.379709 
L 375.349421 275.41037 
L 375.782871 269.927523 
L 376.216322 268.944429 
L 376.649773 270.523918 
L 376.649773 270.523918 
" clip-path="url(#p47505dddc2)" style="fill: none; stroke: #1f77b4; stroke-width: 0.7; stroke-linecap: square"/>
   </g>
   <g id="patch_3">
    <path d="M 35.7625 288.430125 
L 35.7625 22.318125 
" style="fill: none; stroke: #000000; stroke-width: 0.8; stroke-linejoin: miter; stroke-linecap: square"/>
   </g>
   <g id="patch_4">
    <path d="M 392.8825 288.430125 
L 392.8825 22.318125 
" style="fill: none; stroke: #000000; stroke-width: 0.8; stroke-linejoin: miter; stroke-linecap: square"/>
   </g>
   <g id="patch_5">
    <path d="M 35.7625 288.430125 
L 392.8825 288.430125 
" style="fill: none; stroke: #000000; stroke-width: 0.8; stroke-linejoin: miter; stroke-linecap: square"/>
   </g>
   <g id="patch_6">
    <path d="M 35.7625 22.318125 
L 392.8825 22.318125 
" style="fill: none; stroke: #000000; stroke-width: 0.8; stroke-linejoin: miter; stroke-linecap: square"/>
   </g>
   <g id="text_18">
    <!-- OLR at τ = 1 level for (H2O) -->
    <g transform="translate(129.999063 16.318125) scale(0.12 -0.12)">
     <defs>
      <path id="DejaVuSans-4f" d="M 2522 4238 
Q 1834 4238 1429 3725 
Q 1025 3213 1025 2328 
Q 1025 1447 1429 934 
Q 1834 422 2522 422 
Q 3209 422 3611 934 
Q 4013 1447 4013 2328 
Q 4013 3213 3611 3725 
Q 3209 4238 2522 4238 
z
M 2522 4750 
Q 3503 4750 4090 4092 
Q 4678 3434 4678 2328 
Q 4678 1225 4090 567 
Q 3503 -91 2522 -91 
Q 1538 -91 948 565 
Q 359 1222 359 2328 
Q 359 3434 948 4092 
Q 1538 4750 2522 4750 
z
" transform="scale(0.015625)"/>
      <path id="DejaVuSans-4c" d="M 628 4666 
L 1259 4666 
L 1259 531 
L 3531 531 
L 3531 0 
L 628 0 
L 628 4666 
z
" transform="scale(0.015625)"/>
      <path id="DejaVuSans-52" d="M 2841 2188 
Q 3044 2119 3236 1894 
Q 3428 1669 3622 1275 
L 4263 0 
L 3584 0 
L 2988 1197 
Q 2756 1666 2539 1819 
Q 2322 1972 1947 1972 
L 1259 1972 
L 1259 0 
L 628 0 
L 628 4666 
L 2053 4666 
Q 2853 4666 3247 4331 
Q 3641 3997 3641 3322 
Q 3641 2881 3436 2590 
Q 3231 2300 2841 2188 
z
M 1259 4147 
L 1259 2491 
L 2053 2491 
Q 2509 2491 2742 2702 
Q 2975 2913 2975 3322 
Q 2975 3731 2742 3939 
Q 2509 4147 2053 4147 
L 1259 4147 
z
" transform="scale(0.015625)"/>
      <path id="DejaVuSans-3c4" d="M 2319 638 
Q 2431 488 2769 488 
L 3047 488 
L 3047 0 
L 2700 0 
Q 2138 0 1881 300 
Q 1625 606 1625 1269 
L 1625 2925 
L 313 2925 
L 313 3500 
L 3541 3500 
L 3541 2925 
L 2213 2925 
L 2213 1234 
Q 2213 781 2319 638 
z
" transform="scale(0.015625)"/>
      <path id="DejaVuSans-3d" d="M 678 2906 
L 4684 2906 
L 4684 2381 
L 678 2381 
L 678 2906 
z
M 678 1631 
L 4684 1631 
L 4684 1100 
L 678 1100 
L 678 1631 
z
" transform="scale(0.015625)"/>
      <path id="DejaVuSans-76" d="M 191 3500 
L 800 3500 
L 1894 563 
L 2988 3500 
L 3597 3500 
L 2284 0 
L 1503 0 
L 191 3500 
z
" transform="scale(0.015625)"/>
      <path id="DejaVuSans-66" d="M 2375 4863 
L 2375 4384 
L 1825 4384 
Q 1516 4384 1395 4259 
Q 1275 4134 1275 3809 
L 1275 3500 
L 2222 3500 
L 2222 3053 
L 1275 3053 
L 1275 0 
L 697 0 
L 697 3053 
L 147 3053 
L 147 3500 
L 697 3500 
L 697 3744 
Q 697 4328 969 4595 
Q 1241 4863 1831 4863 
L 2375 4863 
z
" transform="scale(0.015625)"/>
      <path id="DejaVuSans-6f" d="M 1959 3097 
Q 1497 3097 1228 2736 
Q 959 2375 959 1747 
Q 959 1119 1226 758 
Q 1494 397 1959 397 
Q 2419 397 2687 759 
Q 2956 1122 2956 1747 
Q 2956 2369 2687 2733 
Q 2419 3097 1959 3097 
z
M 1959 3584 
Q 2709 3584 3137 3096 
Q 3566 2609 3566 1747 
Q 3566 888 3137 398 
Q 2709 -91 1959 -91 
Q 1206 -91 779 398 
Q 353 888 353 1747 
Q 353 2609 779 3096 
Q 1206 3584 1959 3584 
z
" transform="scale(0.015625)"/>
      <path id="DejaVuSans-48" d="M 628 4666 
L 1259 4666 
L 1259 2753 
L 3553 2753 
L 3553 4666 
L 4184 4666 
L 4184 0 
L 3553 0 
L 3553 2222 
L 1259 2222 
L 1259 0 
L 628 0 
L 628 4666 
z
" transform="scale(0.015625)"/>
     </defs>
     <use xlink:href="#DejaVuSans-4f"/>
     <use xlink:href="#DejaVuSans-4c" transform="translate(78.710938 0)"/>
     <use xlink:href="#DejaVuSans-52" transform="translate(134.423828 0)"/>
     <use xlink:href="#DejaVuSans-20" transform="translate(203.90625 0)"/>
     <use xlink:href="#DejaVuSans-61" transform="translate(235.693359 0)"/>
     <use xlink:href="#DejaVuSans-74" transform="translate(296.972656 0)"/>
     <use xlink:href="#DejaVuSans-20" transform="translate(336.181641 0)"/>
     <use xlink:href="#DejaVuSans-3c4" transform="translate(367.96875 0)"/>
     <use xlink:href="#DejaVuSans-20" transform="translate(428.173828 0)"/>
     <use xlink:href="#DejaVuSans-3d" transform="translate(459.960938 0)"/>
     <use xlink:href="#DejaVuSans-20" transform="translate(543.75 0)"/>
     <use xlink:href="#DejaVuSans-31" transform="translate(575.537109 0)"/>
     <use xlink:href="#DejaVuSans-20" transform="translate(639.160156 0)"/>
     <use xlink:href="#DejaVuSans-6c" transform="translate(670.947266 0)"/>
     <use xlink:href="#DejaVuSans-65" transform="translate(698.730469 0)"/>
     <use xlink:href="#DejaVuSans-76" transform="translate(760.253906 0)"/>
     <use xlink:href="#DejaVuSans-65" transform="translate(819.433594 0)"/>
     <use xlink:href="#DejaVuSans-6c" transform="translate(880.957031 0)"/>
     <use xlink:href="#DejaVuSans-20" transform="translate(908.740234 0)"/>
     <use xlink:href="#DejaVuSans-66" transform="translate(940.527344 0)"/>
     <use xlink:href="#DejaVuSans-6f" transform="translate(975.732422 0)"/>
     <use xlink:href="#DejaVuSans-72" transform="translate(1036.914062 0)"/>
     <use xlink:href="#DejaVuSans-20" transform="translate(1078.027344 0)"/>
     <use xlink:href="#DejaVuSans-28" transform="translate(1109.814453 0)"/>
     <use xlink:href="#DejaVuSans-48" transform="translate(1148.828125 0)"/>
     <use xlink:href="#DejaVuSans-32" transform="translate(1224.023438 0)"/>
     <use xlink:href="#DejaVuSans-4f" transform="translate(1287.646484 0)"/>
     <use xlink:href="#DejaVuSans-29" transform="translate(1366.357422 0)"/>
    </g>
   </g>
  </g>
 </g>
 <defs>
  <clipPath id="p47505dddc2">
   <rect x="35.7625" y="22.318125" width="357.12" height="266.112"/>
  </clipPath>
 </defs>
</svg>
