<?xml version="1.0" encoding="utf-8" standalone="no"?>
<!DOCTYPE svg PUBLIC "-//W3C//DTD SVG 1.1//EN"
  "http://www.w3.org/Graphics/SVG/1.1/DTD/svg11.dtd">
<svg xmlns:xlink="http://www.w3.org/1999/xlink" width="400.0825pt" height="327.40825pt" viewBox="0 0 400.0825 327.40825" xmlns="http://www.w3.org/2000/svg" version="1.1">
 <metadata>
  <rdf:RDF xmlns:dc="http://purl.org/dc/elements/1.1/" xmlns:cc="http://creativecommons.org/ns#" xmlns:rdf="http://www.w3.org/1999/02/22-rdf-syntax-ns#">
   <cc:Work>
    <dc:type rdf:resource="http://purl.org/dc/dcmitype/StillImage"/>
    <dc:date>2026-01-22T22:42:18.007404</dc:date>
    <dc:format>image/svg+xml</dc:format>
    <dc:creator>
     <cc:Agent>
      <dc:title>Matplotlib v3.10.6, https://matplotlib.org/</dc:title>
     </cc:Agent>
    </dc:creator>
   </cc:Work>
  </rdf:RDF>
 </metadata>
 <defs>
  <style type="text/css">*{stroke-linejoin: round; stroke-linecap: butt}</style>
 </defs>
 <g id="figure_1">
  <g id="patch_1">
   <path d="M 0 327.40825 
L 400.0825 327.40825 
L 400.0825 0 
L 0 0 
z
" style="fill: #ffffff"/>
  </g>
  <g id="axes_1">
   <g id="patch_2">
    <path d="M 35.7625 288.430125 
L 392.8825 288.430125 
L 392.8825 22.318125 
L 35.7625 22.318125 
z
" style="fill: #ffffff"/>
   </g>
   <g id="matplotlib.axis_1">
    <g id="xtick_1">
     <g id="line2d_1">
      <path d="M 51.832819 288.430125 
L 51.832819 22.318125 
" clip-path="url(#pe46adf1ef3)" style="fill: none; stroke: #808080; stroke-width: 0.3; stroke-linecap: square"/>
     </g>
     <g id="line2d_2">
      <defs>
       <path id="m4246172eaf" d="M 0 0 
L 0 3.5 
" style="stroke: #000000; stroke-width: 0.8"/>
      </defs>
      <g>
       <use xlink:href="#m4246172eaf" x="51.832819" y="288.430125" style="stroke: #000000; stroke-width: 0.8"/>
      </g>
     </g>
     <g id="text_1">
      <!-- 0 -->
      <g transform="translate(48.651569 303.028562) scale(0.1 -0.1)">
       <defs>
        <path id="DejaVuSans-30" d="M 2034 4250 
Q 1547 4250 1301 3770 
Q 1056 3291 1056 2328 
Q 1056 1369 1301 889 
Q 1547 409 2034 409 
Q 2525 409 2770 889 
Q 3016 1369 3016 2328 
Q 3016 3291 2770 3770 
Q 2525 4250 2034 4250 
z
M 2034 4750 
Q 2819 4750 3233 4129 
Q 3647 3509 3647 2328 
Q 3647 1150 3233 529 
Q 2819 -91 2034 -91 
Q 1250 -91 836 529 
Q 422 1150 422 2328 
Q 422 3509 836 4129 
Q 1250 4750 2034 4750 
z
" transform="scale(0.015625)"/>
       </defs>
       <use xlink:href="#DejaVuSans-30"/>
      </g>
     </g>
    </g>
    <g id="xtick_2">
     <g id="line2d_3">
      <path d="M 92.434938 288.430125 
L 92.434938 22.318125 
" clip-path="url(#pe46adf1ef3)" style="fill: none; stroke: #808080; stroke-width: 0.3; stroke-linecap: square"/>
     </g>
     <g id="line2d_4">
      <g>
       <use xlink:href="#m4246172eaf" x="92.434938" y="288.430125" style="stroke: #000000; stroke-width: 0.8"/>
      </g>
     </g>
     <g id="text_2">
      <!-- 250 -->
      <g transform="translate(82.891188 303.028562) scale(0.1 -0.1)">
       <defs>
        <path id="DejaVuSans-32" d="M 1228 531 
L 3431 531 
L 3431 0 
L 469 0 
L 469 531 
Q 828 903 1448 1529 
Q 2069 2156 2228 2338 
Q 2531 2678 2651 2914 
Q 2772 3150 2772 3378 
Q 2772 3750 2511 3984 
Q 2250 4219 1831 4219 
Q 1534 4219 1204 4116 
Q 875 4013 500 3803 
L 500 4441 
Q 881 4594 1212 4672 
Q 1544 4750 1819 4750 
Q 2544 4750 2975 4387 
Q 3406 4025 3406 3419 
Q 3406 3131 3298 2873 
Q 3191 2616 2906 2266 
Q 2828 2175 2409 1742 
Q 1991 1309 1228 531 
z
" transform="scale(0.015625)"/>
        <path id="DejaVuSans-35" d="M 691 4666 
L 3169 4666 
L 3169 4134 
L 1269 4134 
L 1269 2991 
Q 1406 3038 1543 3061 
Q 1681 3084 1819 3084 
Q 2600 3084 3056 2656 
Q 3513 2228 3513 1497 
Q 3513 744 3044 326 
Q 2575 -91 1722 -91 
Q 1428 -91 1123 -41 
Q 819 9 494 109 
L 494 744 
Q 775 591 1075 516 
Q 1375 441 1709 441 
Q 2250 441 2565 725 
Q 2881 1009 2881 1497 
Q 2881 1984 2565 2268 
Q 2250 2553 1709 2553 
Q 1456 2553 1204 2497 
Q 953 2441 691 2322 
L 691 4666 
z
" transform="scale(0.015625)"/>
       </defs>
       <use xlink:href="#DejaVuSans-32"/>
       <use xlink:href="#DejaVuSans-35" transform="translate(63.623047 0)"/>
       <use xlink:href="#DejaVuSans-30" transform="translate(127.246094 0)"/>
      </g>
     </g>
    </g>
    <g id="xtick_3">
     <g id="line2d_5">
      <path d="M 133.037057 288.430125 
L 133.037057 22.318125 
" clip-path="url(#pe46adf1ef3)" style="fill: none; stroke: #808080; stroke-width: 0.3; stroke-linecap: square"/>
     </g>
     <g id="line2d_6">
      <g>
       <use xlink:href="#m4246172eaf" x="133.037057" y="288.430125" style="stroke: #000000; stroke-width: 0.8"/>
      </g>
     </g>
     <g id="text_3">
      <!-- 500 -->
      <g transform="translate(123.493307 303.028562) scale(0.1 -0.1)">
       <use xlink:href="#DejaVuSans-35"/>
       <use xlink:href="#DejaVuSans-30" transform="translate(63.623047 0)"/>
       <use xlink:href="#DejaVuSans-30" transform="translate(127.246094 0)"/>
      </g>
     </g>
    </g>
    <g id="xtick_4">
     <g id="line2d_7">
      <path d="M 173.639177 288.430125 
L 173.639177 22.318125 
" clip-path="url(#pe46adf1ef3)" style="fill: none; stroke: #808080; stroke-width: 0.3; stroke-linecap: square"/>
     </g>
     <g id="line2d_8">
      <g>
       <use xlink:href="#m4246172eaf" x="173.639177" y="288.430125" style="stroke: #000000; stroke-width: 0.8"/>
      </g>
     </g>
     <g id="text_4">
      <!-- 750 -->
      <g transform="translate(164.095427 303.028562) scale(0.1 -0.1)">
       <defs>
        <path id="DejaVuSans-37" d="M 525 4666 
L 3525 4666 
L 3525 4397 
L 1831 0 
L 1172 0 
L 2766 4134 
L 525 4134 
L 525 4666 
z
" transform="scale(0.015625)"/>
       </defs>
       <use xlink:href="#DejaVuSans-37"/>
       <use xlink:href="#DejaVuSans-35" transform="translate(63.623047 0)"/>
       <use xlink:href="#DejaVuSans-30" transform="translate(127.246094 0)"/>
      </g>
     </g>
    </g>
    <g id="xtick_5">
     <g id="line2d_9">
      <path d="M 214.241296 288.430125 
L 214.241296 22.318125 
" clip-path="url(#pe46adf1ef3)" style="fill: none; stroke: #808080; stroke-width: 0.3; stroke-linecap: square"/>
     </g>
     <g id="line2d_10">
      <g>
       <use xlink:href="#m4246172eaf" x="214.241296" y="288.430125" style="stroke: #000000; stroke-width: 0.8"/>
      </g>
     </g>
     <g id="text_5">
      <!-- 1000 -->
      <g transform="translate(201.516296 303.028562) scale(0.1 -0.1)">
       <defs>
        <path id="DejaVuSans-31" d="M 794 531 
L 1825 531 
L 1825 4091 
L 703 3866 
L 703 4441 
L 1819 4666 
L 2450 4666 
L 2450 531 
L 3481 531 
L 3481 0 
L 794 0 
L 794 531 
z
" transform="scale(0.015625)"/>
       </defs>
       <use xlink:href="#DejaVuSans-31"/>
       <use xlink:href="#DejaVuSans-30" transform="translate(63.623047 0)"/>
       <use xlink:href="#DejaVuSans-30" transform="translate(127.246094 0)"/>
       <use xlink:href="#DejaVuSans-30" transform="translate(190.869141 0)"/>
      </g>
     </g>
    </g>
    <g id="xtick_6">
     <g id="line2d_11">
      <path d="M 254.843415 288.430125 
L 254.843415 22.318125 
" clip-path="url(#pe46adf1ef3)" style="fill: none; stroke: #808080; stroke-width: 0.3; stroke-linecap: square"/>
     </g>
     <g id="line2d_12">
      <g>
       <use xlink:href="#m4246172eaf" x="254.843415" y="288.430125" style="stroke: #000000; stroke-width: 0.8"/>
      </g>
     </g>
     <g id="text_6">
      <!-- 1250 -->
      <g transform="translate(242.118415 303.028562) scale(0.1 -0.1)">
       <use xlink:href="#DejaVuSans-31"/>
       <use xlink:href="#DejaVuSans-32" transform="translate(63.623047 0)"/>
       <use xlink:href="#DejaVuSans-35" transform="translate(127.246094 0)"/>
       <use xlink:href="#DejaVuSans-30" transform="translate(190.869141 0)"/>
      </g>
     </g>
    </g>
    <g id="xtick_7">
     <g id="line2d_13">
      <path d="M 295.445534 288.430125 
L 295.445534 22.318125 
" clip-path="url(#pe46adf1ef3)" style="fill: none; stroke: #808080; stroke-width: 0.3; stroke-linecap: square"/>
     </g>
     <g id="line2d_14">
      <g>
       <use xlink:href="#m4246172eaf" x="295.445534" y="288.430125" style="stroke: #000000; stroke-width: 0.8"/>
      </g>
     </g>
     <g id="text_7">
      <!-- 1500 -->
      <g transform="translate(282.720534 303.028562) scale(0.1 -0.1)">
       <use xlink:href="#DejaVuSans-31"/>
       <use xlink:href="#DejaVuSans-35" transform="translate(63.623047 0)"/>
       <use xlink:href="#DejaVuSans-30" transform="translate(127.246094 0)"/>
       <use xlink:href="#DejaVuSans-30" transform="translate(190.869141 0)"/>
      </g>
     </g>
    </g>
    <g id="xtick_8">
     <g id="line2d_15">
      <path d="M 336.047653 288.430125 
L 336.047653 22.318125 
" clip-path="url(#pe46adf1ef3)" style="fill: none; stroke: #808080; stroke-width: 0.3; stroke-linecap: square"/>
     </g>
     <g id="line2d_16">
      <g>
       <use xlink:href="#m4246172eaf" x="336.047653" y="288.430125" style="stroke: #000000; stroke-width: 0.8"/>
      </g>
     </g>
     <g id="text_8">
      <!-- 1750 -->
      <g transform="translate(323.322653 303.028562) scale(0.1 -0.1)">
       <use xlink:href="#DejaVuSans-31"/>
       <use xlink:href="#DejaVuSans-37" transform="translate(63.623047 0)"/>
       <use xlink:href="#DejaVuSans-35" transform="translate(127.246094 0)"/>
       <use xlink:href="#DejaVuSans-30" transform="translate(190.869141 0)"/>
      </g>
     </g>
    </g>
    <g id="xtick_9">
     <g id="line2d_17">
      <path d="M 376.649773 288.430125 
L 376.649773 22.318125 
" clip-path="url(#pe46adf1ef3)" style="fill: none; stroke: #808080; stroke-width: 0.3; stroke-linecap: square"/>
     </g>
     <g id="line2d_18">
      <g>
       <use xlink:href="#m4246172eaf" x="376.649773" y="288.430125" style="stroke: #000000; stroke-width: 0.8"/>
      </g>
     </g>
     <g id="text_9">
      <!-- 2000 -->
      <g transform="translate(363.924773 303.028562) scale(0.1 -0.1)">
       <use xlink:href="#DejaVuSans-32"/>
       <use xlink:href="#DejaVuSans-30" transform="translate(63.623047 0)"/>
       <use xlink:href="#DejaVuSans-30" transform="translate(127.246094 0)"/>
       <use xlink:href="#DejaVuSans-30" transform="translate(190.869141 0)"/>
      </g>
     </g>
    </g>
    <g id="text_10">
     <!-- Frequency / Kayser (cm$^{-1}$) -->
     <g transform="translate(147.6225 318.10825) scale(0.1 -0.1)">
      <defs>
       <path id="DejaVuSans-46" d="M 628 4666 
L 3309 4666 
L 3309 4134 
L 1259 4134 
L 1259 2759 
L 3109 2759 
L 3109 2228 
L 1259 2228 
L 1259 0 
L 628 0 
L 628 4666 
z
" transform="scale(0.015625)"/>
       <path id="DejaVuSans-72" d="M 2631 2963 
Q 2534 3019 2420 3045 
Q 2306 3072 2169 3072 
Q 1681 3072 1420 2755 
Q 1159 2438 1159 1844 
L 1159 0 
L 581 0 
L 581 3500 
L 1159 3500 
L 1159 2956 
Q 1341 3275 1631 3429 
Q 1922 3584 2338 3584 
Q 2397 3584 2469 3576 
Q 2541 3569 2628 3553 
L 2631 2963 
z
" transform="scale(0.015625)"/>
       <path id="DejaVuSans-65" d="M 3597 1894 
L 3597 1613 
L 953 1613 
Q 991 1019 1311 708 
Q 1631 397 2203 397 
Q 2534 397 2845 478 
Q 3156 559 3463 722 
L 3463 178 
Q 3153 47 2828 -22 
Q 2503 -91 2169 -91 
Q 1331 -91 842 396 
Q 353 884 353 1716 
Q 353 2575 817 3079 
Q 1281 3584 2069 3584 
Q 2775 3584 3186 3129 
Q 3597 2675 3597 1894 
z
M 3022 2063 
Q 3016 2534 2758 2815 
Q 2500 3097 2075 3097 
Q 1594 3097 1305 2825 
Q 1016 2553 972 2059 
L 3022 2063 
z
" transform="scale(0.015625)"/>
       <path id="DejaVuSans-71" d="M 947 1747 
Q 947 1113 1208 752 
Q 1469 391 1925 391 
Q 2381 391 2643 752 
Q 2906 1113 2906 1747 
Q 2906 2381 2643 2742 
Q 2381 3103 1925 3103 
Q 1469 3103 1208 2742 
Q 947 2381 947 1747 
z
M 2906 525 
Q 2725 213 2448 61 
Q 2172 -91 1784 -91 
Q 1150 -91 751 415 
Q 353 922 353 1747 
Q 353 2572 751 3078 
Q 1150 3584 1784 3584 
Q 2172 3584 2448 3432 
Q 2725 3281 2906 2969 
L 2906 3500 
L 3481 3500 
L 3481 -1331 
L 2906 -1331 
L 2906 525 
z
" transform="scale(0.015625)"/>
       <path id="DejaVuSans-75" d="M 544 1381 
L 544 3500 
L 1119 3500 
L 1119 1403 
Q 1119 906 1312 657 
Q 1506 409 1894 409 
Q 2359 409 2629 706 
Q 2900 1003 2900 1516 
L 2900 3500 
L 3475 3500 
L 3475 0 
L 2900 0 
L 2900 538 
Q 2691 219 2414 64 
Q 2138 -91 1772 -91 
Q 1169 -91 856 284 
Q 544 659 544 1381 
z
M 1991 3584 
L 1991 3584 
z
" transform="scale(0.015625)"/>
       <path id="DejaVuSans-6e" d="M 3513 2113 
L 3513 0 
L 2938 0 
L 2938 2094 
Q 2938 2591 2744 2837 
Q 2550 3084 2163 3084 
Q 1697 3084 1428 2787 
Q 1159 2491 1159 1978 
L 1159 0 
L 581 0 
L 581 3500 
L 1159 3500 
L 1159 2956 
Q 1366 3272 1645 3428 
Q 1925 3584 2291 3584 
Q 2894 3584 3203 3211 
Q 3513 2838 3513 2113 
z
" transform="scale(0.015625)"/>
       <path id="DejaVuSans-63" d="M 3122 3366 
L 3122 2828 
Q 2878 2963 2633 3030 
Q 2388 3097 2138 3097 
Q 1578 3097 1268 2742 
Q 959 2388 959 1747 
Q 959 1106 1268 751 
Q 1578 397 2138 397 
Q 2388 397 2633 464 
Q 2878 531 3122 666 
L 3122 134 
Q 2881 22 2623 -34 
Q 2366 -91 2075 -91 
Q 1284 -91 818 406 
Q 353 903 353 1747 
Q 353 2603 823 3093 
Q 1294 3584 2113 3584 
Q 2378 3584 2631 3529 
Q 2884 3475 3122 3366 
z
" transform="scale(0.015625)"/>
       <path id="DejaVuSans-79" d="M 2059 -325 
Q 1816 -950 1584 -1140 
Q 1353 -1331 966 -1331 
L 506 -1331 
L 506 -850 
L 844 -850 
Q 1081 -850 1212 -737 
Q 1344 -625 1503 -206 
L 1606 56 
L 191 3500 
L 800 3500 
L 1894 763 
L 2988 3500 
L 3597 3500 
L 2059 -325 
z
" transform="scale(0.015625)"/>
       <path id="DejaVuSans-20" transform="scale(0.015625)"/>
       <path id="DejaVuSans-2f" d="M 1625 4666 
L 2156 4666 
L 531 -594 
L 0 -594 
L 1625 4666 
z
" transform="scale(0.015625)"/>
       <path id="DejaVuSans-4b" d="M 628 4666 
L 1259 4666 
L 1259 2694 
L 3353 4666 
L 4166 4666 
L 1850 2491 
L 4331 0 
L 3500 0 
L 1259 2247 
L 1259 0 
L 628 0 
L 628 4666 
z
" transform="scale(0.015625)"/>
       <path id="DejaVuSans-61" d="M 2194 1759 
Q 1497 1759 1228 1600 
Q 959 1441 959 1056 
Q 959 750 1161 570 
Q 1363 391 1709 391 
Q 2188 391 2477 730 
Q 2766 1069 2766 1631 
L 2766 1759 
L 2194 1759 
z
M 3341 1997 
L 3341 0 
L 2766 0 
L 2766 531 
Q 2569 213 2275 61 
Q 1981 -91 1556 -91 
Q 1019 -91 701 211 
Q 384 513 384 1019 
Q 384 1609 779 1909 
Q 1175 2209 1959 2209 
L 2766 2209 
L 2766 2266 
Q 2766 2663 2505 2880 
Q 2244 3097 1772 3097 
Q 1472 3097 1187 3025 
Q 903 2953 641 2809 
L 641 3341 
Q 956 3463 1253 3523 
Q 1550 3584 1831 3584 
Q 2591 3584 2966 3190 
Q 3341 2797 3341 1997 
z
" transform="scale(0.015625)"/>
       <path id="DejaVuSans-73" d="M 2834 3397 
L 2834 2853 
Q 2591 2978 2328 3040 
Q 2066 3103 1784 3103 
Q 1356 3103 1142 2972 
Q 928 2841 928 2578 
Q 928 2378 1081 2264 
Q 1234 2150 1697 2047 
L 1894 2003 
Q 2506 1872 2764 1633 
Q 3022 1394 3022 966 
Q 3022 478 2636 193 
Q 2250 -91 1575 -91 
Q 1294 -91 989 -36 
Q 684 19 347 128 
L 347 722 
Q 666 556 975 473 
Q 1284 391 1588 391 
Q 1994 391 2212 530 
Q 2431 669 2431 922 
Q 2431 1156 2273 1281 
Q 2116 1406 1581 1522 
L 1381 1569 
Q 847 1681 609 1914 
Q 372 2147 372 2553 
Q 372 3047 722 3315 
Q 1072 3584 1716 3584 
Q 2034 3584 2315 3537 
Q 2597 3491 2834 3397 
z
" transform="scale(0.015625)"/>
       <path id="DejaVuSans-28" d="M 1984 4856 
Q 1566 4138 1362 3434 
Q 1159 2731 1159 2009 
Q 1159 1288 1364 580 
Q 1569 -128 1984 -844 
L 1484 -844 
Q 1016 -109 783 600 
Q 550 1309 550 2009 
Q 550 2706 781 3412 
Q 1013 4119 1484 4856 
L 1984 4856 
z
" transform="scale(0.015625)"/>
       <path id="DejaVuSans-6d" d="M 3328 2828 
Q 3544 3216 3844 3400 
Q 4144 3584 4550 3584 
Q 5097 3584 5394 3201 
Q 5691 2819 5691 2113 
L 5691 0 
L 5113 0 
L 5113 2094 
Q 5113 2597 4934 2840 
Q 4756 3084 4391 3084 
Q 3944 3084 3684 2787 
Q 3425 2491 3425 1978 
L 3425 0 
L 2847 0 
L 2847 2094 
Q 2847 2600 2669 2842 
Q 2491 3084 2119 3084 
Q 1678 3084 1418 2786 
Q 1159 2488 1159 1978 
L 1159 0 
L 581 0 
L 581 3500 
L 1159 3500 
L 1159 2956 
Q 1356 3278 1631 3431 
Q 1906 3584 2284 3584 
Q 2666 3584 2933 3390 
Q 3200 3197 3328 2828 
z
" transform="scale(0.015625)"/>
       <path id="DejaVuSans-2212" d="M 678 2272 
L 4684 2272 
L 4684 1741 
L 678 1741 
L 678 2272 
z
" transform="scale(0.015625)"/>
       <path id="DejaVuSans-29" d="M 513 4856 
L 1013 4856 
Q 1481 4119 1714 3412 
Q 1947 2706 1947 2009 
Q 1947 1309 1714 600 
Q 1481 -109 1013 -844 
L 513 -844 
Q 928 -128 1133 580 
Q 1338 1288 1338 2009 
Q 1338 2731 1133 3434 
Q 928 4138 513 4856 
z
" transform="scale(0.015625)"/>
      </defs>
      <use xlink:href="#DejaVuSans-46" transform="translate(0 0.684375)"/>
      <use xlink:href="#DejaVuSans-72" transform="translate(57.519531 0.684375)"/>
      <use xlink:href="#DejaVuSans-65" transform="translate(98.632812 0.684375)"/>
      <use xlink:href="#DejaVuSans-71" transform="translate(160.15625 0.684375)"/>
      <use xlink:href="#DejaVuSans-75" transform="translate(223.632812 0.684375)"/>
      <use xlink:href="#DejaVuSans-65" transform="translate(287.011719 0.684375)"/>
      <use xlink:href="#DejaVuSans-6e" transform="translate(348.535156 0.684375)"/>
      <use xlink:href="#DejaVuSans-63" transform="translate(411.914062 0.684375)"/>
      <use xlink:href="#DejaVuSans-79" transform="translate(466.894531 0.684375)"/>
      <use xlink:href="#DejaVuSans-20" transform="translate(526.074219 0.684375)"/>
      <use xlink:href="#DejaVuSans-2f" transform="translate(557.861328 0.684375)"/>
      <use xlink:href="#DejaVuSans-20" transform="translate(591.552734 0.684375)"/>
      <use xlink:href="#DejaVuSans-4b" transform="translate(623.339844 0.684375)"/>
      <use xlink:href="#DejaVuSans-61" transform="translate(688.916016 0.684375)"/>
      <use xlink:href="#DejaVuSans-79" transform="translate(750.195312 0.684375)"/>
      <use xlink:href="#DejaVuSans-73" transform="translate(809.375 0.684375)"/>
      <use xlink:href="#DejaVuSans-65" transform="translate(861.474609 0.684375)"/>
      <use xlink:href="#DejaVuSans-72" transform="translate(922.998047 0.684375)"/>
      <use xlink:href="#DejaVuSans-20" transform="translate(964.111328 0.684375)"/>
      <use xlink:href="#DejaVuSans-28" transform="translate(995.898438 0.684375)"/>
      <use xlink:href="#DejaVuSans-63" transform="translate(1034.912109 0.684375)"/>
      <use xlink:href="#DejaVuSans-6d" transform="translate(1089.892578 0.684375)"/>
      <use xlink:href="#DejaVuSans-2212" transform="translate(1188.261719 38.965625) scale(0.7)"/>
      <use xlink:href="#DejaVuSans-31" transform="translate(1246.914062 38.965625) scale(0.7)"/>
      <use xlink:href="#DejaVuSans-29" transform="translate(1294.18457 0.684375)"/>
     </g>
    </g>
   </g>
   <g id="matplotlib.axis_2">
    <g id="ytick_1">
     <g id="line2d_19">
      <path d="M 35.7625 276.338501 
L 392.8825 276.338501 
" clip-path="url(#pe46adf1ef3)" style="fill: none; stroke: #808080; stroke-width: 0.3; stroke-linecap: square"/>
     </g>
     <g id="line2d_20">
      <defs>
       <path id="mbc7cc9100d" d="M 0 0 
L -3.5 0 
" style="stroke: #000000; stroke-width: 0.8"/>
      </defs>
      <g>
       <use xlink:href="#mbc7cc9100d" x="35.7625" y="276.338501" style="stroke: #000000; stroke-width: 0.8"/>
      </g>
     </g>
     <g id="text_11">
      <!-- 0 -->
      <g transform="translate(22.4 280.13772) scale(0.1 -0.1)">
       <use xlink:href="#DejaVuSans-30"/>
      </g>
     </g>
    </g>
    <g id="ytick_2">
     <g id="line2d_21">
      <path d="M 35.7625 221.556506 
L 392.8825 221.556506 
" clip-path="url(#pe46adf1ef3)" style="fill: none; stroke: #808080; stroke-width: 0.3; stroke-linecap: square"/>
     </g>
     <g id="line2d_22">
      <g>
       <use xlink:href="#mbc7cc9100d" x="35.7625" y="221.556506" style="stroke: #000000; stroke-width: 0.8"/>
      </g>
     </g>
     <g id="text_12">
      <!-- 1 -->
      <g transform="translate(22.4 225.355725) scale(0.1 -0.1)">
       <use xlink:href="#DejaVuSans-31"/>
      </g>
     </g>
    </g>
    <g id="ytick_3">
     <g id="line2d_23">
      <path d="M 35.7625 166.774511 
L 392.8825 166.774511 
" clip-path="url(#pe46adf1ef3)" style="fill: none; stroke: #808080; stroke-width: 0.3; stroke-linecap: square"/>
     </g>
     <g id="line2d_24">
      <g>
       <use xlink:href="#mbc7cc9100d" x="35.7625" y="166.774511" style="stroke: #000000; stroke-width: 0.8"/>
      </g>
     </g>
     <g id="text_13">
      <!-- 2 -->
      <g transform="translate(22.4 170.57373) scale(0.1 -0.1)">
       <use xlink:href="#DejaVuSans-32"/>
      </g>
     </g>
    </g>
    <g id="ytick_4">
     <g id="line2d_25">
      <path d="M 35.7625 111.992516 
L 392.8825 111.992516 
" clip-path="url(#pe46adf1ef3)" style="fill: none; stroke: #808080; stroke-width: 0.3; stroke-linecap: square"/>
     </g>
     <g id="line2d_26">
      <g>
       <use xlink:href="#mbc7cc9100d" x="35.7625" y="111.992516" style="stroke: #000000; stroke-width: 0.8"/>
      </g>
     </g>
     <g id="text_14">
      <!-- 3 -->
      <g transform="translate(22.4 115.791735) scale(0.1 -0.1)">
       <defs>
        <path id="DejaVuSans-33" d="M 2597 2516 
Q 3050 2419 3304 2112 
Q 3559 1806 3559 1356 
Q 3559 666 3084 287 
Q 2609 -91 1734 -91 
Q 1441 -91 1130 -33 
Q 819 25 488 141 
L 488 750 
Q 750 597 1062 519 
Q 1375 441 1716 441 
Q 2309 441 2620 675 
Q 2931 909 2931 1356 
Q 2931 1769 2642 2001 
Q 2353 2234 1838 2234 
L 1294 2234 
L 1294 2753 
L 1863 2753 
Q 2328 2753 2575 2939 
Q 2822 3125 2822 3475 
Q 2822 3834 2567 4026 
Q 2313 4219 1838 4219 
Q 1578 4219 1281 4162 
Q 984 4106 628 3988 
L 628 4550 
Q 988 4650 1302 4700 
Q 1616 4750 1894 4750 
Q 2613 4750 3031 4423 
Q 3450 4097 3450 3541 
Q 3450 3153 3228 2886 
Q 3006 2619 2597 2516 
z
" transform="scale(0.015625)"/>
       </defs>
       <use xlink:href="#DejaVuSans-33"/>
      </g>
     </g>
    </g>
    <g id="ytick_5">
     <g id="line2d_27">
      <path d="M 35.7625 57.210521 
L 392.8825 57.210521 
" clip-path="url(#pe46adf1ef3)" style="fill: none; stroke: #808080; stroke-width: 0.3; stroke-linecap: square"/>
     </g>
     <g id="line2d_28">
      <g>
       <use xlink:href="#mbc7cc9100d" x="35.7625" y="57.210521" style="stroke: #000000; stroke-width: 0.8"/>
      </g>
     </g>
     <g id="text_15">
      <!-- 4 -->
      <g transform="translate(22.4 61.009739) scale(0.1 -0.1)">
       <defs>
        <path id="DejaVuSans-34" d="M 2419 4116 
L 825 1625 
L 2419 1625 
L 2419 4116 
z
M 2253 4666 
L 3047 4666 
L 3047 1625 
L 3713 1625 
L 3713 1100 
L 3047 1100 
L 3047 0 
L 2419 0 
L 2419 1100 
L 313 1100 
L 313 1709 
L 2253 4666 
z
" transform="scale(0.015625)"/>
       </defs>
       <use xlink:href="#DejaVuSans-34"/>
      </g>
     </g>
    </g>
    <g id="text_16">
     <!-- Spectral radiance ($Wm^{-2}sr^{-1}Hz^{-1}$) -->
     <g transform="translate(16.3 242.274125) rotate(-90) scale(0.1 -0.1)">
      <defs>
       <path id="DejaVuSans-53" d="M 3425 4513 
L 3425 3897 
Q 3066 4069 2747 4153 
Q 2428 4238 2131 4238 
Q 1616 4238 1336 4038 
Q 1056 3838 1056 3469 
Q 1056 3159 1242 3001 
Q 1428 2844 1947 2747 
L 2328 2669 
Q 3034 2534 3370 2195 
Q 3706 1856 3706 1288 
Q 3706 609 3251 259 
Q 2797 -91 1919 -91 
Q 1588 -91 1214 -16 
Q 841 59 441 206 
L 441 856 
Q 825 641 1194 531 
Q 1563 422 1919 422 
Q 2459 422 2753 634 
Q 3047 847 3047 1241 
Q 3047 1584 2836 1778 
Q 2625 1972 2144 2069 
L 1759 2144 
Q 1053 2284 737 2584 
Q 422 2884 422 3419 
Q 422 4038 858 4394 
Q 1294 4750 2059 4750 
Q 2388 4750 2728 4690 
Q 3069 4631 3425 4513 
z
" transform="scale(0.015625)"/>
       <path id="DejaVuSans-70" d="M 1159 525 
L 1159 -1331 
L 581 -1331 
L 581 3500 
L 1159 3500 
L 1159 2969 
Q 1341 3281 1617 3432 
Q 1894 3584 2278 3584 
Q 2916 3584 3314 3078 
Q 3713 2572 3713 1747 
Q 3713 922 3314 415 
Q 2916 -91 2278 -91 
Q 1894 -91 1617 61 
Q 1341 213 1159 525 
z
M 3116 1747 
Q 3116 2381 2855 2742 
Q 2594 3103 2138 3103 
Q 1681 3103 1420 2742 
Q 1159 2381 1159 1747 
Q 1159 1113 1420 752 
Q 1681 391 2138 391 
Q 2594 391 2855 752 
Q 3116 1113 3116 1747 
z
" transform="scale(0.015625)"/>
       <path id="DejaVuSans-74" d="M 1172 4494 
L 1172 3500 
L 2356 3500 
L 2356 3053 
L 1172 3053 
L 1172 1153 
Q 1172 725 1289 603 
Q 1406 481 1766 481 
L 2356 481 
L 2356 0 
L 1766 0 
Q 1100 0 847 248 
Q 594 497 594 1153 
L 594 3053 
L 172 3053 
L 172 3500 
L 594 3500 
L 594 4494 
L 1172 4494 
z
" transform="scale(0.015625)"/>
       <path id="DejaVuSans-6c" d="M 603 4863 
L 1178 4863 
L 1178 0 
L 603 0 
L 603 4863 
z
" transform="scale(0.015625)"/>
       <path id="DejaVuSans-64" d="M 2906 2969 
L 2906 4863 
L 3481 4863 
L 3481 0 
L 2906 0 
L 2906 525 
Q 2725 213 2448 61 
Q 2172 -91 1784 -91 
Q 1150 -91 751 415 
Q 353 922 353 1747 
Q 353 2572 751 3078 
Q 1150 3584 1784 3584 
Q 2172 3584 2448 3432 
Q 2725 3281 2906 2969 
z
M 947 1747 
Q 947 1113 1208 752 
Q 1469 391 1925 391 
Q 2381 391 2643 752 
Q 2906 1113 2906 1747 
Q 2906 2381 2643 2742 
Q 2381 3103 1925 3103 
Q 1469 3103 1208 2742 
Q 947 2381 947 1747 
z
" transform="scale(0.015625)"/>
       <path id="DejaVuSans-69" d="M 603 3500 
L 1178 3500 
L 1178 0 
L 603 0 
L 603 3500 
z
M 603 4863 
L 1178 4863 
L 1178 4134 
L 603 4134 
L 603 4863 
z
" transform="scale(0.015625)"/>
       <path id="DejaVuSans-Oblique-57" d="M 616 4666 
L 1228 4666 
L 1453 697 
L 3213 4666 
L 3916 4666 
L 4147 697 
L 5888 4666 
L 6528 4666 
L 4453 0 
L 3659 0 
L 3444 3891 
L 1697 0 
L 903 0 
L 616 4666 
z
" transform="scale(0.015625)"/>
       <path id="DejaVuSans-Oblique-6d" d="M 5747 2113 
L 5338 0 
L 4763 0 
L 5166 2094 
Q 5191 2228 5203 2325 
Q 5216 2422 5216 2491 
Q 5216 2772 5059 2928 
Q 4903 3084 4622 3084 
Q 4203 3084 3875 2770 
Q 3547 2456 3450 1953 
L 3066 0 
L 2491 0 
L 2900 2094 
Q 2925 2209 2937 2307 
Q 2950 2406 2950 2484 
Q 2950 2769 2794 2926 
Q 2638 3084 2363 3084 
Q 1938 3084 1609 2770 
Q 1281 2456 1184 1953 
L 800 0 
L 225 0 
L 909 3500 
L 1484 3500 
L 1375 2956 
Q 1609 3263 1923 3423 
Q 2238 3584 2597 3584 
Q 2978 3584 3223 3384 
Q 3469 3184 3519 2828 
Q 3781 3197 4126 3390 
Q 4472 3584 4856 3584 
Q 5306 3584 5551 3325 
Q 5797 3066 5797 2591 
Q 5797 2488 5784 2364 
Q 5772 2241 5747 2113 
z
" transform="scale(0.015625)"/>
       <path id="DejaVuSans-Oblique-73" d="M 3200 3397 
L 3091 2853 
Q 2863 2978 2609 3040 
Q 2356 3103 2088 3103 
Q 1634 3103 1373 2948 
Q 1113 2794 1113 2528 
Q 1113 2219 1719 2053 
Q 1766 2041 1788 2034 
L 1972 1978 
Q 2547 1819 2739 1644 
Q 2931 1469 2931 1166 
Q 2931 609 2489 259 
Q 2047 -91 1331 -91 
Q 1053 -91 747 -37 
Q 441 16 72 128 
L 184 722 
Q 500 559 806 475 
Q 1113 391 1394 391 
Q 1816 391 2080 572 
Q 2344 753 2344 1031 
Q 2344 1331 1650 1516 
L 1591 1531 
L 1394 1581 
Q 956 1697 753 1886 
Q 550 2075 550 2369 
Q 550 2928 970 3256 
Q 1391 3584 2113 3584 
Q 2397 3584 2667 3537 
Q 2938 3491 3200 3397 
z
" transform="scale(0.015625)"/>
       <path id="DejaVuSans-Oblique-72" d="M 2853 2969 
Q 2766 3016 2653 3041 
Q 2541 3066 2413 3066 
Q 1953 3066 1609 2717 
Q 1266 2369 1153 1784 
L 800 0 
L 225 0 
L 909 3500 
L 1484 3500 
L 1375 2956 
Q 1603 3259 1920 3421 
Q 2238 3584 2597 3584 
Q 2691 3584 2781 3573 
Q 2872 3563 2963 3538 
L 2853 2969 
z
" transform="scale(0.015625)"/>
       <path id="DejaVuSans-Oblique-48" d="M 1081 4666 
L 1716 4666 
L 1344 2753 
L 3634 2753 
L 4006 4666 
L 4641 4666 
L 3731 0 
L 3097 0 
L 3531 2222 
L 1241 2222 
L 806 0 
L 172 0 
L 1081 4666 
z
" transform="scale(0.015625)"/>
       <path id="DejaVuSans-Oblique-7a" d="M 744 3500 
L 3475 3500 
L 3372 2975 
L 738 459 
L 2913 459 
L 2822 0 
L -19 0 
L 84 525 
L 2719 3041 
L 653 3041 
L 744 3500 
z
" transform="scale(0.015625)"/>
      </defs>
      <use xlink:href="#DejaVuSans-53" transform="translate(0 0.765625)"/>
      <use xlink:href="#DejaVuSans-70" transform="translate(63.476562 0.765625)"/>
      <use xlink:href="#DejaVuSans-65" transform="translate(126.953125 0.765625)"/>
      <use xlink:href="#DejaVuSans-63" transform="translate(188.476562 0.765625)"/>
      <use xlink:href="#DejaVuSans-74" transform="translate(243.457031 0.765625)"/>
      <use xlink:href="#DejaVuSans-72" transform="translate(282.666016 0.765625)"/>
      <use xlink:href="#DejaVuSans-61" transform="translate(323.779297 0.765625)"/>
      <use xlink:href="#DejaVuSans-6c" transform="translate(385.058594 0.765625)"/>
      <use xlink:href="#DejaVuSans-20" transform="translate(412.841797 0.765625)"/>
      <use xlink:href="#DejaVuSans-72" transform="translate(444.628906 0.765625)"/>
      <use xlink:href="#DejaVuSans-61" transform="translate(485.742188 0.765625)"/>
      <use xlink:href="#DejaVuSans-64" transform="translate(547.021484 0.765625)"/>
      <use xlink:href="#DejaVuSans-69" transform="translate(610.498047 0.765625)"/>
      <use xlink:href="#DejaVuSans-61" transform="translate(638.28125 0.765625)"/>
      <use xlink:href="#DejaVuSans-6e" transform="translate(699.560547 0.765625)"/>
      <use xlink:href="#DejaVuSans-63" transform="translate(762.939453 0.765625)"/>
      <use xlink:href="#DejaVuSans-65" transform="translate(817.919922 0.765625)"/>
      <use xlink:href="#DejaVuSans-20" transform="translate(879.443359 0.765625)"/>
      <use xlink:href="#DejaVuSans-28" transform="translate(911.230469 0.765625)"/>
      <use xlink:href="#DejaVuSans-Oblique-57" transform="translate(950.244141 0.765625)"/>
      <use xlink:href="#DejaVuSans-Oblique-6d" transform="translate(1049.121094 0.765625)"/>
      <use xlink:href="#DejaVuSans-2212" transform="translate(1151.183099 39.046875) scale(0.7)"/>
      <use xlink:href="#DejaVuSans-32" transform="translate(1209.835443 39.046875) scale(0.7)"/>
      <use xlink:href="#DejaVuSans-Oblique-73" transform="translate(1257.105951 0.765625)"/>
      <use xlink:href="#DejaVuSans-Oblique-72" transform="translate(1309.20556 0.765625)"/>
      <use xlink:href="#DejaVuSans-2212" transform="translate(1354.968737 39.046875) scale(0.7)"/>
      <use xlink:href="#DejaVuSans-31" transform="translate(1413.621081 39.046875) scale(0.7)"/>
      <use xlink:href="#DejaVuSans-Oblique-48" transform="translate(1460.891589 0.765625)"/>
      <use xlink:href="#DejaVuSans-Oblique-7a" transform="translate(1536.086901 0.765625)"/>
      <use xlink:href="#DejaVuSans-2212" transform="translate(1593.043281 39.046875) scale(0.7)"/>
      <use xlink:href="#DejaVuSans-31" transform="translate(1651.695625 39.046875) scale(0.7)"/>
      <use xlink:href="#DejaVuSans-29" transform="translate(1698.966133 0.765625)"/>
     </g>
    </g>
    <g id="text_17">
     <!-- 1e−12 -->
     <g transform="translate(35.7625 19.318125) scale(0.1 -0.1)">
      <use xlink:href="#DejaVuSans-31"/>
      <use xlink:href="#DejaVuSans-65" transform="translate(63.623047 0)"/>
      <use xlink:href="#DejaVuSans-2212" transform="translate(125.146484 0)"/>
      <use xlink:href="#DejaVuSans-31" transform="translate(208.935547 0)"/>
      <use xlink:href="#DejaVuSans-32" transform="translate(272.558594 0)"/>
     </g>
    </g>
   </g>
   <g id="line2d_29">
    <path d="M 51.995227 276.334125 
L 52.862129 276.17242 
L 54.162481 275.538013 
L 55.029382 275.004489 
L 55.462833 274.510735 
L 55.896283 274.606654 
L 56.329734 273.578717 
L 56.763185 273.209964 
L 57.196635 273.385755 
L 57.630086 272.403226 
L 58.063537 272.350812 
L 58.496987 271.959413 
L 58.930438 270.233529 
L 59.363889 269.832758 
L 59.797339 268.669162 
L 60.23079 268.054739 
L 60.664241 268.004109 
L 61.097691 268.357651 
L 61.531142 266.70652 
L 61.964592 266.987624 
L 62.398043 264.443073 
L 62.831494 263.929614 
L 63.264944 262.45065 
L 63.698395 263.805555 
L 64.131846 263.099559 
L 64.565296 260.773865 
L 64.998747 259.49772 
L 65.432198 257.541486 
L 65.865648 257.447198 
L 66.299099 257.734328 
L 66.73255 257.122819 
L 67.166 254.36923 
L 67.599451 252.929933 
L 68.032902 255.21474 
L 68.466352 251.226577 
L 68.899803 252.430902 
L 69.333254 253.083681 
L 70.200155 245.101815 
L 70.633606 243.108044 
L 71.067056 243.955279 
L 71.500507 245.24428 
L 71.933958 242.490789 
L 72.367408 245.832042 
L 72.800859 239.957531 
L 73.23431 244.809011 
L 73.66776 237.636196 
L 74.101211 234.662918 
L 74.534662 216.937539 
L 74.968112 232.099404 
L 75.401563 230.548273 
L 75.835014 233.099611 
L 76.268464 238.356342 
L 76.701915 236.117306 
L 77.135366 227.375076 
L 77.568816 228.816686 
L 78.002267 221.526878 
L 78.435718 218.910701 
L 78.869168 227.202872 
L 79.302619 224.639374 
L 79.73607 223.199393 
L 80.16952 220.212321 
L 80.602971 226.601805 
L 81.036422 214.453929 
L 81.469872 213.043375 
L 81.903323 208.116108 
L 82.336774 220.336867 
L 82.770224 206.867945 
L 83.203675 211.06966 
L 83.637126 223.194872 
L 84.070576 205.66204 
L 84.504027 211.813381 
L 84.937478 214.213357 
L 85.370928 205.270035 
L 85.804379 211.090688 
L 86.23783 200.096245 
L 86.67128 213.650213 
L 87.104731 192.290041 
L 87.538182 194.611151 
L 87.971632 201.291887 
L 88.405083 198.034961 
L 88.838533 214.310999 
L 89.271984 192.728783 
L 89.705435 195.201597 
L 90.138885 179.654063 
L 90.572336 176.198164 
L 91.005787 177.794395 
L 91.872688 194.875366 
L 92.306139 188.424512 
L 92.739589 184.47187 
L 93.17304 198.387365 
L 93.606491 179.17624 
L 94.039941 169.22325 
L 94.473392 165.36473 
L 94.906843 175.053466 
L 95.340293 170.844025 
L 95.773744 161.165159 
L 96.207195 164.217411 
L 96.640645 186.561678 
L 97.074096 203.039317 
L 97.507547 181.60432 
L 97.940997 168.744136 
L 98.374448 159.835225 
L 98.807899 192.965317 
L 99.241349 157.421853 
L 99.6748 150.625153 
L 100.108251 150.557436 
L 100.541701 155.707771 
L 100.975152 181.055902 
L 101.408603 157.300121 
L 101.842053 143.170424 
L 102.275504 139.784229 
L 102.708955 144.219839 
L 103.142405 149.903088 
L 103.575856 136.929751 
L 104.009307 151.557589 
L 104.442757 196.631174 
L 104.876208 156.094585 
L 105.743109 134.661176 
L 106.17656 195.625234 
L 106.610011 137.837031 
L 107.043461 143.416244 
L 107.476912 136.982843 
L 107.910363 128.118905 
L 108.343813 129.999222 
L 108.777264 145.135178 
L 109.210715 144.063484 
L 109.644165 138.11735 
L 110.077616 154.906867 
L 110.511067 117.558652 
L 110.944517 107.771701 
L 111.377968 107.573922 
L 111.811419 154.343045 
L 112.244869 116.301253 
L 112.67832 159.34985 
L 113.111771 120.271068 
L 113.545221 101.647104 
L 113.978672 113.276762 
L 114.412123 155.666709 
L 114.845573 101.639157 
L 115.279024 95.746771 
L 115.712475 112.251831 
L 116.145925 137.056285 
L 116.579376 136.77532 
L 117.012826 105.07443 
L 117.446277 89.63821 
L 117.879728 81.672388 
L 118.313178 80.745469 
L 118.746629 82.342016 
L 119.18008 121.578339 
L 119.61353 122.58713 
L 120.046981 166.743875 
L 120.480432 120.447659 
L 120.913882 155.044718 
L 121.347333 80.275203 
L 121.780784 106.035261 
L 122.214234 76.255365 
L 122.647685 96.430469 
L 123.081136 73.862181 
L 123.514586 117.548181 
L 123.948037 103.337776 
L 124.381488 103.919219 
L 124.814938 71.288993 
L 125.248389 88.903509 
L 125.68184 85.057964 
L 126.11529 133.30323 
L 126.548741 86.587728 
L 126.982192 71.261848 
L 127.415642 62.827571 
L 127.849093 104.431958 
L 128.282544 86.951994 
L 128.715994 109.097782 
L 129.149445 73.577056 
L 129.582896 61.836699 
L 130.016346 71.292714 
L 130.449797 161.456777 
L 130.883248 65.231703 
L 131.316698 63.372287 
L 131.750149 178.444095 
L 132.1836 53.585881 
L 132.61705 45.811009 
L 133.050501 64.613979 
L 133.483952 102.783698 
L 133.917402 73.801306 
L 134.784304 85.789594 
L 135.217754 53.473422 
L 135.651205 85.814147 
L 136.084656 84.087112 
L 136.518106 60.665956 
L 137.385008 90.266539 
L 137.818458 54.025757 
L 138.251909 37.974646 
L 138.68536 54.087169 
L 139.552261 43.500531 
L 139.985712 43.110824 
L 140.419162 118.774058 
L 140.852613 82.99995 
L 141.719514 43.714411 
L 142.152965 41.627041 
L 142.586416 57.573218 
L 143.019866 34.414125 
L 143.453317 52.004056 
L 143.886768 92.718984 
L 144.320218 113.156064 
L 144.753669 47.651147 
L 145.187119 61.631188 
L 145.62057 59.658416 
L 146.054021 84.129968 
L 146.487471 49.933072 
L 146.920922 58.195203 
L 147.354373 41.180266 
L 147.787823 76.557943 
L 148.221274 78.100576 
L 148.654725 63.488913 
L 149.088175 55.105596 
L 149.521626 176.845617 
L 149.955077 83.175108 
L 150.388527 48.280703 
L 150.821978 155.138695 
L 151.255429 62.612736 
L 151.688879 106.159153 
L 152.12233 215.056936 
L 152.555781 71.5128 
L 152.989231 99.606342 
L 153.422682 140.673066 
L 153.856133 112.064635 
L 154.289583 209.321635 
L 154.723034 202.232632 
L 155.589935 182.72762 
L 156.023386 217.505946 
L 156.456837 219.270415 
L 156.890287 216.884209 
L 157.323738 220.064837 
L 158.190639 220.858396 
L 158.62409 220.927426 
L 159.057541 221.638015 
L 160.791343 223.23123 
L 161.224794 223.498192 
L 162.091695 224.41073 
L 162.525146 224.28346 
L 162.958597 225.193288 
L 163.392047 225.581514 
L 163.825498 217.380607 
L 164.258949 226.059143 
L 164.692399 221.669625 
L 165.12585 168.646078 
L 165.559301 215.159329 
L 165.992751 148.899296 
L 166.426202 136.853528 
L 166.859653 225.21434 
L 167.293103 96.827331 
L 167.726554 151.186728 
L 168.160005 104.709115 
L 168.593455 190.885392 
L 169.460357 67.805527 
L 169.893807 171.270065 
L 170.327258 79.70919 
L 170.760709 71.292856 
L 171.194159 103.318483 
L 171.62761 126.723007 
L 172.061061 88.044018 
L 172.494511 66.587808 
L 172.927962 78.301854 
L 173.361412 152.94566 
L 173.794863 59.171179 
L 174.228314 64.030799 
L 174.661764 57.444159 
L 175.095215 60.662996 
L 175.528666 58.260872 
L 175.962116 53.142598 
L 176.395567 54.248869 
L 176.829018 58.965912 
L 177.262468 55.32311 
L 177.695919 59.16432 
L 178.12937 60.27219 
L 178.56282 57.923497 
L 179.429722 60.946036 
L 179.863172 59.980321 
L 180.296623 60.657381 
L 180.730074 72.26935 
L 181.163524 77.888508 
L 181.596975 92.073591 
L 182.030426 64.670187 
L 182.463876 64.961796 
L 182.897327 64.579892 
L 183.330778 65.110006 
L 183.764228 65.986905 
L 184.197679 68.192186 
L 184.63113 66.967417 
L 185.06458 67.996207 
L 185.498031 68.510129 
L 186.364932 71.231433 
L 186.798383 70.801382 
L 187.665284 72.420197 
L 188.098735 73.608377 
L 188.532186 75.502118 
L 188.965636 74.756901 
L 189.399087 75.613619 
L 189.832538 97.358564 
L 190.265988 127.540925 
L 190.699439 81.094349 
L 191.13289 78.84163 
L 191.999791 80.39941 
L 192.433242 83.974674 
L 192.866692 82.01523 
L 193.300143 90.912767 
L 193.733594 83.655238 
L 194.167044 84.498495 
L 194.600495 86.049937 
L 195.033946 86.237735 
L 195.467396 87.440777 
L 195.900847 99.748779 
L 196.334298 88.873088 
L 196.767748 89.405563 
L 197.201199 90.236283 
L 197.63465 93.284084 
L 198.0681 91.90329 
L 198.935002 93.727517 
L 199.368452 95.759861 
L 199.801903 95.312027 
L 200.235354 96.539677 
L 200.668804 96.904595 
L 201.102255 97.831403 
L 201.535705 100.083561 
L 201.969156 99.891495 
L 202.836057 101.061856 
L 203.702959 102.968733 
L 204.136409 103.571008 
L 204.56986 105.214686 
L 205.003311 105.259446 
L 205.436761 106.441015 
L 205.870212 114.53003 
L 206.303663 109.227557 
L 206.737113 108.901679 
L 207.170564 109.553115 
L 207.604015 110.945352 
L 208.470916 112.031266 
L 208.904367 113.154562 
L 209.337817 113.693979 
L 210.638169 116.652275 
L 211.07162 117.445096 
L 211.505071 118.594998 
L 211.938521 119.180909 
L 213.672324 123.130471 
L 214.539225 131.890102 
L 214.972676 130.364671 
L 215.406127 173.926688 
L 215.839577 137.305208 
L 216.273028 162.151588 
L 216.706479 142.125321 
L 217.139929 204.527431 
L 217.57338 221.349385 
L 218.006831 166.944376 
L 218.873732 261.705404 
L 219.307183 164.02573 
L 219.740633 248.414965 
L 220.174084 194.331778 
L 220.607535 214.508002 
L 221.040985 252.406506 
L 221.474436 259.096457 
L 221.907887 260.164932 
L 222.341337 184.716418 
L 222.774788 208.382231 
L 223.208239 262.953398 
L 223.641689 200.198759 
L 224.07514 231.440014 
L 224.508591 176.820924 
L 225.375492 151.148121 
L 225.808943 144.941079 
L 226.242393 146.499015 
L 226.675844 146.146973 
L 227.109295 146.730285 
L 227.542745 147.931888 
L 227.976196 149.520871 
L 228.409646 149.247661 
L 228.843097 150.201369 
L 229.276548 150.836197 
L 229.709998 151.162747 
L 230.143449 152.077115 
L 230.5769 153.434971 
L 231.01035 153.75016 
L 231.443801 155.223818 
L 231.877252 155.655842 
L 232.310702 166.353435 
L 232.744153 156.42984 
L 233.177604 157.350963 
L 234.044505 160.010067 
L 234.477956 159.47546 
L 234.911406 160.171254 
L 235.344857 161.731671 
L 235.778308 162.441272 
L 236.211758 174.642568 
L 236.645209 165.716708 
L 237.07866 163.814342 
L 237.945561 165.293994 
L 238.379012 166.972157 
L 238.812462 170.322745 
L 239.245913 167.319309 
L 240.112814 168.397005 
L 240.546265 169.242524 
L 240.979716 172.995566 
L 241.413166 170.849548 
L 241.846617 173.300357 
L 242.280068 174.033384 
L 242.713518 181.998478 
L 243.146969 173.864717 
L 243.58042 176.535043 
L 244.01387 174.801568 
L 244.447321 179.715712 
L 244.880772 177.67117 
L 245.314222 179.572564 
L 245.747673 177.369571 
L 246.614574 180.660438 
L 247.048025 179.191914 
L 247.481476 179.867684 
L 247.914926 182.336902 
L 248.348377 183.24117 
L 248.781828 201.628245 
L 249.215278 185.42634 
L 249.648729 192.508392 
L 250.08218 186.975933 
L 250.51563 187.320127 
L 250.949081 197.707304 
L 251.382532 186.057313 
L 251.815982 186.07658 
L 252.249433 186.641174 
L 252.682884 190.612562 
L 253.116334 199.600268 
L 253.549785 191.051731 
L 253.983236 208.622032 
L 254.416686 190.630372 
L 254.850137 191.309342 
L 255.283588 193.840847 
L 255.717038 193.137087 
L 256.150489 198.619039 
L 256.583939 230.70537 
L 257.01739 198.142247 
L 257.450841 243.558614 
L 257.884291 222.704117 
L 258.317742 232.747288 
L 258.751193 202.94076 
L 259.184643 199.770145 
L 259.618094 202.91035 
L 260.051545 205.017963 
L 260.484995 208.945143 
L 260.918446 258.465074 
L 261.351897 210.045052 
L 261.785347 207.846069 
L 262.218798 204.587855 
L 262.652249 206.720926 
L 263.085699 204.219951 
L 263.51915 203.617649 
L 263.952601 212.126889 
L 264.386051 224.184261 
L 264.819502 219.525487 
L 265.686403 248.141498 
L 266.119854 248.054569 
L 266.553305 221.12314 
L 266.986755 231.731591 
L 267.420206 216.473809 
L 267.853657 239.614644 
L 268.287107 243.230638 
L 269.154009 247.766376 
L 269.587459 253.81812 
L 270.02091 230.536007 
L 270.454361 225.65894 
L 270.887811 245.255905 
L 271.321262 230.026403 
L 271.754713 238.112502 
L 272.188163 237.74279 
L 272.621614 236.002167 
L 273.055065 252.616438 
L 273.488515 240.732867 
L 273.921966 240.830517 
L 274.355417 240.262215 
L 274.788867 251.065606 
L 275.222318 259.054565 
L 275.655769 251.701801 
L 276.089219 237.170879 
L 276.52267 244.250224 
L 276.956121 254.911702 
L 277.389571 249.80676 
L 277.823022 246.305294 
L 278.256473 264.576622 
L 278.689923 254.725014 
L 279.123374 266.1504 
L 279.556825 247.339924 
L 279.990275 267.900909 
L 280.423726 244.58036 
L 280.857177 253.521073 
L 281.290627 246.839192 
L 281.724078 251.692967 
L 282.157529 261.502095 
L 282.590979 259.40751 
L 283.02443 267.157751 
L 283.457881 251.562377 
L 283.891331 257.57734 
L 284.324782 257.321385 
L 284.758232 257.741611 
L 285.191683 274.242295 
L 285.625134 255.476087 
L 286.058584 249.903335 
L 286.492035 252.831657 
L 286.925486 266.217625 
L 287.358936 255.983726 
L 287.792387 258.722571 
L 288.659288 274.403257 
L 289.092739 261.532759 
L 289.52619 263.447173 
L 289.95964 263.640158 
L 290.393091 259.521904 
L 290.826542 270.749127 
L 291.259992 267.249834 
L 291.693443 264.75568 
L 292.126894 256.271444 
L 292.993795 261.119745 
L 293.427246 271.373786 
L 293.860696 269.075733 
L 294.294147 263.130853 
L 294.727598 269.237615 
L 295.161048 269.306507 
L 295.594499 264.894675 
L 296.02795 265.775003 
L 296.4614 271.740475 
L 296.894851 269.844116 
L 297.328302 267.057382 
L 297.761752 265.635816 
L 298.195203 271.114859 
L 298.628654 268.947364 
L 299.062104 271.315236 
L 299.495555 270.453765 
L 299.929006 269.285412 
L 300.362456 264.760863 
L 300.795907 272.204391 
L 301.229358 268.325531 
L 301.662808 275.100059 
L 302.096259 272.165089 
L 302.52971 272.309884 
L 302.96316 267.293689 
L 303.396611 266.920682 
L 303.830062 267.127999 
L 304.263512 275.192727 
L 304.696963 271.941558 
L 305.130414 275.201241 
L 305.563864 268.857836 
L 305.997315 274.734291 
L 306.430766 267.708675 
L 306.864216 272.115894 
L 307.297667 271.767544 
L 307.731118 273.476154 
L 308.164568 270.97043 
L 308.598019 263.845378 
L 309.46492 258.704253 
L 309.898371 259.968039 
L 310.331822 274.090899 
L 310.765272 271.053167 
L 311.198723 261.859196 
L 311.632174 259.021127 
L 312.065624 264.368043 
L 312.499075 262.049783 
L 312.932525 267.54811 
L 313.365976 266.60673 
L 313.799427 267.895346 
L 314.232877 272.21684 
L 314.666328 271.119973 
L 315.099779 269.231005 
L 315.533229 275.368455 
L 315.96668 268.614761 
L 316.400131 272.100524 
L 316.833581 268.250417 
L 317.267032 272.977618 
L 317.700483 272.54562 
L 318.133933 268.894878 
L 318.567384 274.516033 
L 319.000835 272.076642 
L 319.434285 273.764525 
L 319.867736 271.852455 
L 320.301187 275.57419 
L 321.168088 269.195846 
L 322.034989 272.048991 
L 322.46844 269.388566 
L 322.901891 275.011528 
L 323.335341 274.144771 
L 324.202243 270.775256 
L 324.635693 274.153875 
L 325.069144 272.605119 
L 325.502595 275.576819 
L 325.936045 271.962304 
L 326.369496 273.191803 
L 326.802947 271.010732 
L 327.236397 275.661696 
L 327.669848 272.874629 
L 328.103299 275.432369 
L 328.536749 272.332813 
L 328.9702 275.814526 
L 329.403651 270.317837 
L 329.837101 269.719546 
L 330.270552 273.092561 
L 330.704003 274.875524 
L 331.570904 269.808906 
L 332.004355 268.590681 
L 332.437805 269.272126 
L 332.871256 273.790255 
L 333.304707 274.645466 
L 333.738157 273.22256 
L 334.171608 272.18422 
L 334.605059 272.240735 
L 335.038509 273.538514 
L 335.47196 272.255649 
L 335.905411 273.589458 
L 336.338861 273.623883 
L 336.772312 269.683566 
L 337.205763 273.735651 
L 337.639213 270.674696 
L 338.072664 273.2641 
L 338.506115 269.826863 
L 338.939565 273.334239 
L 339.373016 273.296569 
L 339.806467 274.941121 
L 340.239917 274.265191 
L 340.673368 271.506156 
L 341.106818 273.273986 
L 341.540269 273.917034 
L 341.97372 268.793447 
L 342.40717 270.535113 
L 342.840621 273.917517 
L 343.274072 272.189272 
L 343.707522 271.039465 
L 344.140973 274.872157 
L 344.574424 275.579794 
L 345.007874 275.104149 
L 345.441325 273.204412 
L 345.874776 275.22187 
L 346.308226 269.257606 
L 346.741677 267.450854 
L 347.175128 266.85727 
L 347.608578 268.861875 
L 348.042029 271.486697 
L 348.47548 272.072137 
L 348.90893 275.82984 
L 349.342381 271.624313 
L 349.775832 270.666776 
L 350.209282 275.907568 
L 350.642733 269.851102 
L 351.076184 272.520329 
L 351.509634 274.103816 
L 351.943085 274.930468 
L 352.376536 268.474223 
L 352.809986 267.399325 
L 353.243437 267.386959 
L 353.676888 274.925919 
L 354.110338 268.894707 
L 354.543789 269.114391 
L 354.97724 274.652574 
L 355.41069 275.665104 
L 355.844141 270.852878 
L 356.277592 268.03731 
L 356.711042 267.122738 
L 357.144493 269.335412 
L 357.577944 267.171603 
L 358.011394 272.511011 
L 358.444845 271.153588 
L 358.878296 272.586102 
L 359.311746 269.749317 
L 359.745197 272.019271 
L 360.178648 267.627575 
L 360.612098 267.389324 
L 361.045549 270.877942 
L 361.479 269.8102 
L 361.91245 272.375127 
L 362.345901 270.224623 
L 362.779352 272.571852 
L 363.212802 273.54526 
L 363.646253 271.743577 
L 364.079704 274.087414 
L 364.513154 269.876358 
L 364.946605 268.721273 
L 365.380056 267.243065 
L 365.813506 273.2984 
L 366.246957 267.062716 
L 366.680408 268.954023 
L 367.113858 272.335225 
L 367.547309 272.156309 
L 367.980759 273.779345 
L 368.41421 272.492916 
L 368.847661 267.3734 
L 369.281111 271.888104 
L 369.714562 268.613286 
L 370.148013 268.359713 
L 370.581463 268.378218 
L 371.448365 273.139978 
L 371.881815 268.16522 
L 372.315266 267.399606 
L 372.748717 270.768417 
L 373.182167 267.403063 
L 373.615618 269.877777 
L 374.049069 267.816216 
L 374.482519 270.015282 
L 374.91597 271.255899 
L 375.349421 275.387278 
L 375.782871 269.76774 
L 376.216322 268.760414 
L 376.649773 270.37887 
L 376.649773 270.37887 
" clip-path="url(#pe46adf1ef3)" style="fill: none; stroke: #1f77b4; stroke-width: 0.7; stroke-linecap: square"/>
   </g>
   <g id="patch_3">
    <path d="M 35.7625 288.430125 
L 35.7625 22.318125 
" style="fill: none; stroke: #000000; stroke-width: 0.8; stroke-linejoin: miter; stroke-linecap: square"/>
   </g>
   <g id="patch_4">
    <path d="M 392.8825 288.430125 
L 392.8825 22.318125 
" style="fill: none; stroke: #000000; stroke-width: 0.8; stroke-linejoin: miter; stroke-linecap: square"/>
   </g>
   <g id="patch_5">
    <path d="M 35.7625 288.430125 
L 392.8825 288.430125 
" style="fill: none; stroke: #000000; stroke-width: 0.8; stroke-linejoin: miter; stroke-linecap: square"/>
   </g>
   <g id="patch_6">
    <path d="M 35.7625 22.318125 
L 392.8825 22.318125 
" style="fill: none; stroke: #000000; stroke-width: 0.8; stroke-linejoin: miter; stroke-linecap: square"/>
   </g>
   <g id="text_18">
    <!-- OLR at τ = 1 level for (H2O_CO2_O3) -->
    <g transform="translate(102.728125 16.318125) scale(0.12 -0.12)">
     <defs>
      <path id="DejaVuSans-4f" d="M 2522 4238 
Q 1834 4238 1429 3725 
Q 1025 3213 1025 2328 
Q 1025 1447 1429 934 
Q 1834 422 2522 422 
Q 3209 422 3611 934 
Q 4013 1447 4013 2328 
Q 4013 3213 3611 3725 
Q 3209 4238 2522 4238 
z
M 2522 4750 
Q 3503 4750 4090 4092 
Q 4678 3434 4678 2328 
Q 4678 1225 4090 567 
Q 3503 -91 2522 -91 
Q 1538 -91 948 565 
Q 359 1222 359 2328 
Q 359 3434 948 4092 
Q 1538 4750 2522 4750 
z
" transform="scale(0.015625)"/>
      <path id="DejaVuSans-4c" d="M 628 4666 
L 1259 4666 
L 1259 531 
L 3531 531 
L 3531 0 
L 628 0 
L 628 4666 
z
" transform="scale(0.015625)"/>
      <path id="DejaVuSans-52" d="M 2841 2188 
Q 3044 2119 3236 1894 
Q 3428 1669 3622 1275 
L 4263 0 
L 3584 0 
L 2988 1197 
Q 2756 1666 2539 1819 
Q 2322 1972 1947 1972 
L 1259 1972 
L 1259 0 
L 628 0 
L 628 4666 
L 2053 4666 
Q 2853 4666 3247 4331 
Q 3641 3997 3641 3322 
Q 3641 2881 3436 2590 
Q 3231 2300 2841 2188 
z
M 1259 4147 
L 1259 2491 
L 2053 2491 
Q 2509 2491 2742 2702 
Q 2975 2913 2975 3322 
Q 2975 3731 2742 3939 
Q 2509 4147 2053 4147 
L 1259 4147 
z
" transform="scale(0.015625)"/>
      <path id="DejaVuSans-3c4" d="M 2319 638 
Q 2431 488 2769 488 
L 3047 488 
L 3047 0 
L 2700 0 
Q 2138 0 1881 300 
Q 1625 606 1625 1269 
L 1625 2925 
L 313 2925 
L 313 3500 
L 3541 3500 
L 3541 2925 
L 2213 2925 
L 2213 1234 
Q 2213 781 2319 638 
z
" transform="scale(0.015625)"/>
      <path id="DejaVuSans-3d" d="M 678 2906 
L 4684 2906 
L 4684 2381 
L 678 2381 
L 678 2906 
z
M 678 1631 
L 4684 1631 
L 4684 1100 
L 678 1100 
L 678 1631 
z
" transform="scale(0.015625)"/>
      <path id="DejaVuSans-76" d="M 191 3500 
L 800 3500 
L 1894 563 
L 2988 3500 
L 3597 3500 
L 2284 0 
L 1503 0 
L 191 3500 
z
" transform="scale(0.015625)"/>
      <path id="DejaVuSans-66" d="M 2375 4863 
L 2375 4384 
L 1825 4384 
Q 1516 4384 1395 4259 
Q 1275 4134 1275 3809 
L 1275 3500 
L 2222 3500 
L 2222 3053 
L 1275 3053 
L 1275 0 
L 697 0 
L 697 3053 
L 147 3053 
L 147 3500 
L 697 3500 
L 697 3744 
Q 697 4328 969 4595 
Q 1241 4863 1831 4863 
L 2375 4863 
z
" transform="scale(0.015625)"/>
      <path id="DejaVuSans-6f" d="M 1959 3097 
Q 1497 3097 1228 2736 
Q 959 2375 959 1747 
Q 959 1119 1226 758 
Q 1494 397 1959 397 
Q 2419 397 2687 759 
Q 2956 1122 2956 1747 
Q 2956 2369 2687 2733 
Q 2419 3097 1959 3097 
z
M 1959 3584 
Q 2709 3584 3137 3096 
Q 3566 2609 3566 1747 
Q 3566 888 3137 398 
Q 2709 -91 1959 -91 
Q 1206 -91 779 398 
Q 353 888 353 1747 
Q 353 2609 779 3096 
Q 1206 3584 1959 3584 
z
" transform="scale(0.015625)"/>
      <path id="DejaVuSans-48" d="M 628 4666 
L 1259 4666 
L 1259 2753 
L 3553 2753 
L 3553 4666 
L 4184 4666 
L 4184 0 
L 3553 0 
L 3553 2222 
L 1259 2222 
L 1259 0 
L 628 0 
L 628 4666 
z
" transform="scale(0.015625)"/>
      <path id="DejaVuSans-5f" d="M 3263 -1063 
L 3263 -1509 
L -63 -1509 
L -63 -1063 
L 3263 -1063 
z
" transform="scale(0.015625)"/>
      <path id="DejaVuSans-43" d="M 4122 4306 
L 4122 3641 
Q 3803 3938 3442 4084 
Q 3081 4231 2675 4231 
Q 1875 4231 1450 3742 
Q 1025 3253 1025 2328 
Q 1025 1406 1450 917 
Q 1875 428 2675 428 
Q 3081 428 3442 575 
Q 3803 722 4122 1019 
L 4122 359 
Q 3791 134 3420 21 
Q 3050 -91 2638 -91 
Q 1578 -91 968 557 
Q 359 1206 359 2328 
Q 359 3453 968 4101 
Q 1578 4750 2638 4750 
Q 3056 4750 3426 4639 
Q 3797 4528 4122 4306 
z
" transform="scale(0.015625)"/>
     </defs>
     <use xlink:href="#DejaVuSans-4f"/>
     <use xlink:href="#DejaVuSans-4c" transform="translate(78.710938 0)"/>
     <use xlink:href="#DejaVuSans-52" transform="translate(134.423828 0)"/>
     <use xlink:href="#DejaVuSans-20" transform="translate(203.90625 0)"/>
     <use xlink:href="#DejaVuSans-61" transform="translate(235.693359 0)"/>
     <use xlink:href="#DejaVuSans-74" transform="translate(296.972656 0)"/>
     <use xlink:href="#DejaVuSans-20" transform="translate(336.181641 0)"/>
     <use xlink:href="#DejaVuSans-3c4" transform="translate(367.96875 0)"/>
     <use xlink:href="#DejaVuSans-20" transform="translate(428.173828 0)"/>
     <use xlink:href="#DejaVuSans-3d" transform="translate(459.960938 0)"/>
     <use xlink:href="#DejaVuSans-20" transform="translate(543.75 0)"/>
     <use xlink:href="#DejaVuSans-31" transform="translate(575.537109 0)"/>
     <use xlink:href="#DejaVuSans-20" transform="translate(639.160156 0)"/>
     <use xlink:href="#DejaVuSans-6c" transform="translate(670.947266 0)"/>
     <use xlink:href="#DejaVuSans-65" transform="translate(698.730469 0)"/>
     <use xlink:href="#DejaVuSans-76" transform="translate(760.253906 0)"/>
     <use xlink:href="#DejaVuSans-65" transform="translate(819.433594 0)"/>
     <use xlink:href="#DejaVuSans-6c" transform="translate(880.957031 0)"/>
     <use xlink:href="#DejaVuSans-20" transform="translate(908.740234 0)"/>
     <use xlink:href="#DejaVuSans-66" transform="translate(940.527344 0)"/>
     <use xlink:href="#DejaVuSans-6f" transform="translate(975.732422 0)"/>
     <use xlink:href="#DejaVuSans-72" transform="translate(1036.914062 0)"/>
     <use xlink:href="#DejaVuSans-20" transform="translate(1078.027344 0)"/>
     <use xlink:href="#DejaVuSans-28" transform="translate(1109.814453 0)"/>
     <use xlink:href="#DejaVuSans-48" transform="translate(1148.828125 0)"/>
     <use xlink:href="#DejaVuSans-32" transform="translate(1224.023438 0)"/>
     <use xlink:href="#DejaVuSans-4f" transform="translate(1287.646484 0)"/>
     <use xlink:href="#DejaVuSans-5f" transform="translate(1366.357422 0)"/>
     <use xlink:href="#DejaVuSans-43" transform="translate(1416.357422 0)"/>
     <use xlink:href="#DejaVuSans-4f" transform="translate(1486.181641 0)"/>
     <use xlink:href="#DejaVuSans-32" transform="translate(1564.892578 0)"/>
     <use xlink:href="#DejaVuSans-5f" transform="translate(1628.515625 0)"/>
     <use xlink:href="#DejaVuSans-4f" transform="translate(1678.515625 0)"/>
     <use xlink:href="#DejaVuSans-33" transform="translate(1757.226562 0)"/>
     <use xlink:href="#DejaVuSans-29" transform="translate(1820.849609 0)"/>
    </g>
   </g>
  </g>
 </g>
 <defs>
  <clipPath id="pe46adf1ef3">
   <rect x="35.7625" y="22.318125" width="357.12" height="266.112"/>
  </clipPath>
 </defs>
</svg>
