<?xml version="1.0" encoding="utf-8" standalone="no"?>
<!DOCTYPE svg PUBLIC "-//W3C//DTD SVG 1.1//EN"
  "http://www.w3.org/Graphics/SVG/1.1/DTD/svg11.dtd">
<svg xmlns:xlink="http://www.w3.org/1999/xlink" width="404.923125pt" height="326.70825pt" viewBox="0 0 404.923125 326.70825" xmlns="http://www.w3.org/2000/svg" version="1.1">
 <metadata>
  <rdf:RDF xmlns:dc="http://purl.org/dc/elements/1.1/" xmlns:cc="http://creativecommons.org/ns#" xmlns:rdf="http://www.w3.org/1999/02/22-rdf-syntax-ns#">
   <cc:Work>
    <dc:type rdf:resource="http://purl.org/dc/dcmitype/StillImage"/>
    <dc:date>2026-01-22T21:37:23.672768</dc:date>
    <dc:format>image/svg+xml</dc:format>
    <dc:creator>
     <cc:Agent>
      <dc:title>Matplotlib v3.10.6, https://matplotlib.org/</dc:title>
     </cc:Agent>
    </dc:creator>
   </cc:Work>
  </rdf:RDF>
 </metadata>
 <defs>
  <style type="text/css">*{stroke-linejoin: round; stroke-linecap: butt}</style>
 </defs>
 <g id="figure_1">
  <g id="patch_1">
   <path d="M 0 326.70825 
L 404.923125 326.70825 
L 404.923125 0 
L 0 0 
z
" style="fill: #ffffff"/>
  </g>
  <g id="axes_1">
   <g id="patch_2">
    <path d="M 40.603125 288.430125 
L 397.723125 288.430125 
L 397.723125 22.318125 
L 40.603125 22.318125 
z
" style="fill: #ffffff"/>
   </g>
   <g id="matplotlib.axis_1">
    <g id="xtick_1">
     <g id="line2d_1">
      <path d="M 56.673444 288.430125 
L 56.673444 22.318125 
" clip-path="url(#p8377fffbd8)" style="fill: none; stroke: #808080; stroke-width: 0.3; stroke-linecap: square"/>
     </g>
     <g id="line2d_2">
      <defs>
       <path id="m9bed0811b9" d="M 0 0 
L 0 3.5 
" style="stroke: #000000; stroke-width: 0.8"/>
      </defs>
      <g>
       <use xlink:href="#m9bed0811b9" x="56.673444" y="288.430125" style="stroke: #000000; stroke-width: 0.8"/>
      </g>
     </g>
     <g id="text_1">
      <!-- 0 -->
      <g transform="translate(53.492194 303.028562) scale(0.1 -0.1)">
       <defs>
        <path id="DejaVuSans-30" d="M 2034 4250 
Q 1547 4250 1301 3770 
Q 1056 3291 1056 2328 
Q 1056 1369 1301 889 
Q 1547 409 2034 409 
Q 2525 409 2770 889 
Q 3016 1369 3016 2328 
Q 3016 3291 2770 3770 
Q 2525 4250 2034 4250 
z
M 2034 4750 
Q 2819 4750 3233 4129 
Q 3647 3509 3647 2328 
Q 3647 1150 3233 529 
Q 2819 -91 2034 -91 
Q 1250 -91 836 529 
Q 422 1150 422 2328 
Q 422 3509 836 4129 
Q 1250 4750 2034 4750 
z
" transform="scale(0.015625)"/>
       </defs>
       <use xlink:href="#DejaVuSans-30"/>
      </g>
     </g>
    </g>
    <g id="xtick_2">
     <g id="line2d_3">
      <path d="M 97.275563 288.430125 
L 97.275563 22.318125 
" clip-path="url(#p8377fffbd8)" style="fill: none; stroke: #808080; stroke-width: 0.3; stroke-linecap: square"/>
     </g>
     <g id="line2d_4">
      <g>
       <use xlink:href="#m9bed0811b9" x="97.275563" y="288.430125" style="stroke: #000000; stroke-width: 0.8"/>
      </g>
     </g>
     <g id="text_2">
      <!-- 250 -->
      <g transform="translate(87.731813 303.028562) scale(0.1 -0.1)">
       <defs>
        <path id="DejaVuSans-32" d="M 1228 531 
L 3431 531 
L 3431 0 
L 469 0 
L 469 531 
Q 828 903 1448 1529 
Q 2069 2156 2228 2338 
Q 2531 2678 2651 2914 
Q 2772 3150 2772 3378 
Q 2772 3750 2511 3984 
Q 2250 4219 1831 4219 
Q 1534 4219 1204 4116 
Q 875 4013 500 3803 
L 500 4441 
Q 881 4594 1212 4672 
Q 1544 4750 1819 4750 
Q 2544 4750 2975 4387 
Q 3406 4025 3406 3419 
Q 3406 3131 3298 2873 
Q 3191 2616 2906 2266 
Q 2828 2175 2409 1742 
Q 1991 1309 1228 531 
z
" transform="scale(0.015625)"/>
        <path id="DejaVuSans-35" d="M 691 4666 
L 3169 4666 
L 3169 4134 
L 1269 4134 
L 1269 2991 
Q 1406 3038 1543 3061 
Q 1681 3084 1819 3084 
Q 2600 3084 3056 2656 
Q 3513 2228 3513 1497 
Q 3513 744 3044 326 
Q 2575 -91 1722 -91 
Q 1428 -91 1123 -41 
Q 819 9 494 109 
L 494 744 
Q 775 591 1075 516 
Q 1375 441 1709 441 
Q 2250 441 2565 725 
Q 2881 1009 2881 1497 
Q 2881 1984 2565 2268 
Q 2250 2553 1709 2553 
Q 1456 2553 1204 2497 
Q 953 2441 691 2322 
L 691 4666 
z
" transform="scale(0.015625)"/>
       </defs>
       <use xlink:href="#DejaVuSans-32"/>
       <use xlink:href="#DejaVuSans-35" transform="translate(63.623047 0)"/>
       <use xlink:href="#DejaVuSans-30" transform="translate(127.246094 0)"/>
      </g>
     </g>
    </g>
    <g id="xtick_3">
     <g id="line2d_5">
      <path d="M 137.877682 288.430125 
L 137.877682 22.318125 
" clip-path="url(#p8377fffbd8)" style="fill: none; stroke: #808080; stroke-width: 0.3; stroke-linecap: square"/>
     </g>
     <g id="line2d_6">
      <g>
       <use xlink:href="#m9bed0811b9" x="137.877682" y="288.430125" style="stroke: #000000; stroke-width: 0.8"/>
      </g>
     </g>
     <g id="text_3">
      <!-- 500 -->
      <g transform="translate(128.333932 303.028562) scale(0.1 -0.1)">
       <use xlink:href="#DejaVuSans-35"/>
       <use xlink:href="#DejaVuSans-30" transform="translate(63.623047 0)"/>
       <use xlink:href="#DejaVuSans-30" transform="translate(127.246094 0)"/>
      </g>
     </g>
    </g>
    <g id="xtick_4">
     <g id="line2d_7">
      <path d="M 178.479802 288.430125 
L 178.479802 22.318125 
" clip-path="url(#p8377fffbd8)" style="fill: none; stroke: #808080; stroke-width: 0.3; stroke-linecap: square"/>
     </g>
     <g id="line2d_8">
      <g>
       <use xlink:href="#m9bed0811b9" x="178.479802" y="288.430125" style="stroke: #000000; stroke-width: 0.8"/>
      </g>
     </g>
     <g id="text_4">
      <!-- 750 -->
      <g transform="translate(168.936052 303.028562) scale(0.1 -0.1)">
       <defs>
        <path id="DejaVuSans-37" d="M 525 4666 
L 3525 4666 
L 3525 4397 
L 1831 0 
L 1172 0 
L 2766 4134 
L 525 4134 
L 525 4666 
z
" transform="scale(0.015625)"/>
       </defs>
       <use xlink:href="#DejaVuSans-37"/>
       <use xlink:href="#DejaVuSans-35" transform="translate(63.623047 0)"/>
       <use xlink:href="#DejaVuSans-30" transform="translate(127.246094 0)"/>
      </g>
     </g>
    </g>
    <g id="xtick_5">
     <g id="line2d_9">
      <path d="M 219.081921 288.430125 
L 219.081921 22.318125 
" clip-path="url(#p8377fffbd8)" style="fill: none; stroke: #808080; stroke-width: 0.3; stroke-linecap: square"/>
     </g>
     <g id="line2d_10">
      <g>
       <use xlink:href="#m9bed0811b9" x="219.081921" y="288.430125" style="stroke: #000000; stroke-width: 0.8"/>
      </g>
     </g>
     <g id="text_5">
      <!-- 1000 -->
      <g transform="translate(206.356921 303.028562) scale(0.1 -0.1)">
       <defs>
        <path id="DejaVuSans-31" d="M 794 531 
L 1825 531 
L 1825 4091 
L 703 3866 
L 703 4441 
L 1819 4666 
L 2450 4666 
L 2450 531 
L 3481 531 
L 3481 0 
L 794 0 
L 794 531 
z
" transform="scale(0.015625)"/>
       </defs>
       <use xlink:href="#DejaVuSans-31"/>
       <use xlink:href="#DejaVuSans-30" transform="translate(63.623047 0)"/>
       <use xlink:href="#DejaVuSans-30" transform="translate(127.246094 0)"/>
       <use xlink:href="#DejaVuSans-30" transform="translate(190.869141 0)"/>
      </g>
     </g>
    </g>
    <g id="xtick_6">
     <g id="line2d_11">
      <path d="M 259.68404 288.430125 
L 259.68404 22.318125 
" clip-path="url(#p8377fffbd8)" style="fill: none; stroke: #808080; stroke-width: 0.3; stroke-linecap: square"/>
     </g>
     <g id="line2d_12">
      <g>
       <use xlink:href="#m9bed0811b9" x="259.68404" y="288.430125" style="stroke: #000000; stroke-width: 0.8"/>
      </g>
     </g>
     <g id="text_6">
      <!-- 1250 -->
      <g transform="translate(246.95904 303.028562) scale(0.1 -0.1)">
       <use xlink:href="#DejaVuSans-31"/>
       <use xlink:href="#DejaVuSans-32" transform="translate(63.623047 0)"/>
       <use xlink:href="#DejaVuSans-35" transform="translate(127.246094 0)"/>
       <use xlink:href="#DejaVuSans-30" transform="translate(190.869141 0)"/>
      </g>
     </g>
    </g>
    <g id="xtick_7">
     <g id="line2d_13">
      <path d="M 300.286159 288.430125 
L 300.286159 22.318125 
" clip-path="url(#p8377fffbd8)" style="fill: none; stroke: #808080; stroke-width: 0.3; stroke-linecap: square"/>
     </g>
     <g id="line2d_14">
      <g>
       <use xlink:href="#m9bed0811b9" x="300.286159" y="288.430125" style="stroke: #000000; stroke-width: 0.8"/>
      </g>
     </g>
     <g id="text_7">
      <!-- 1500 -->
      <g transform="translate(287.561159 303.028562) scale(0.1 -0.1)">
       <use xlink:href="#DejaVuSans-31"/>
       <use xlink:href="#DejaVuSans-35" transform="translate(63.623047 0)"/>
       <use xlink:href="#DejaVuSans-30" transform="translate(127.246094 0)"/>
       <use xlink:href="#DejaVuSans-30" transform="translate(190.869141 0)"/>
      </g>
     </g>
    </g>
    <g id="xtick_8">
     <g id="line2d_15">
      <path d="M 340.888278 288.430125 
L 340.888278 22.318125 
" clip-path="url(#p8377fffbd8)" style="fill: none; stroke: #808080; stroke-width: 0.3; stroke-linecap: square"/>
     </g>
     <g id="line2d_16">
      <g>
       <use xlink:href="#m9bed0811b9" x="340.888278" y="288.430125" style="stroke: #000000; stroke-width: 0.8"/>
      </g>
     </g>
     <g id="text_8">
      <!-- 1750 -->
      <g transform="translate(328.163278 303.028562) scale(0.1 -0.1)">
       <use xlink:href="#DejaVuSans-31"/>
       <use xlink:href="#DejaVuSans-37" transform="translate(63.623047 0)"/>
       <use xlink:href="#DejaVuSans-35" transform="translate(127.246094 0)"/>
       <use xlink:href="#DejaVuSans-30" transform="translate(190.869141 0)"/>
      </g>
     </g>
    </g>
    <g id="xtick_9">
     <g id="line2d_17">
      <path d="M 381.490398 288.430125 
L 381.490398 22.318125 
" clip-path="url(#p8377fffbd8)" style="fill: none; stroke: #808080; stroke-width: 0.3; stroke-linecap: square"/>
     </g>
     <g id="line2d_18">
      <g>
       <use xlink:href="#m9bed0811b9" x="381.490398" y="288.430125" style="stroke: #000000; stroke-width: 0.8"/>
      </g>
     </g>
     <g id="text_9">
      <!-- 2000 -->
      <g transform="translate(368.765398 303.028562) scale(0.1 -0.1)">
       <use xlink:href="#DejaVuSans-32"/>
       <use xlink:href="#DejaVuSans-30" transform="translate(63.623047 0)"/>
       <use xlink:href="#DejaVuSans-30" transform="translate(127.246094 0)"/>
       <use xlink:href="#DejaVuSans-30" transform="translate(190.869141 0)"/>
      </g>
     </g>
    </g>
    <g id="text_10">
     <!-- Wavenumber (cm$^{-1}$) -->
     <g transform="translate(167.113125 317.428562) scale(0.1 -0.1)">
      <defs>
       <path id="DejaVuSans-57" d="M 213 4666 
L 850 4666 
L 1831 722 
L 2809 4666 
L 3519 4666 
L 4500 722 
L 5478 4666 
L 6119 4666 
L 4947 0 
L 4153 0 
L 3169 4050 
L 2175 0 
L 1381 0 
L 213 4666 
z
" transform="scale(0.015625)"/>
       <path id="DejaVuSans-61" d="M 2194 1759 
Q 1497 1759 1228 1600 
Q 959 1441 959 1056 
Q 959 750 1161 570 
Q 1363 391 1709 391 
Q 2188 391 2477 730 
Q 2766 1069 2766 1631 
L 2766 1759 
L 2194 1759 
z
M 3341 1997 
L 3341 0 
L 2766 0 
L 2766 531 
Q 2569 213 2275 61 
Q 1981 -91 1556 -91 
Q 1019 -91 701 211 
Q 384 513 384 1019 
Q 384 1609 779 1909 
Q 1175 2209 1959 2209 
L 2766 2209 
L 2766 2266 
Q 2766 2663 2505 2880 
Q 2244 3097 1772 3097 
Q 1472 3097 1187 3025 
Q 903 2953 641 2809 
L 641 3341 
Q 956 3463 1253 3523 
Q 1550 3584 1831 3584 
Q 2591 3584 2966 3190 
Q 3341 2797 3341 1997 
z
" transform="scale(0.015625)"/>
       <path id="DejaVuSans-76" d="M 191 3500 
L 800 3500 
L 1894 563 
L 2988 3500 
L 3597 3500 
L 2284 0 
L 1503 0 
L 191 3500 
z
" transform="scale(0.015625)"/>
       <path id="DejaVuSans-65" d="M 3597 1894 
L 3597 1613 
L 953 1613 
Q 991 1019 1311 708 
Q 1631 397 2203 397 
Q 2534 397 2845 478 
Q 3156 559 3463 722 
L 3463 178 
Q 3153 47 2828 -22 
Q 2503 -91 2169 -91 
Q 1331 -91 842 396 
Q 353 884 353 1716 
Q 353 2575 817 3079 
Q 1281 3584 2069 3584 
Q 2775 3584 3186 3129 
Q 3597 2675 3597 1894 
z
M 3022 2063 
Q 3016 2534 2758 2815 
Q 2500 3097 2075 3097 
Q 1594 3097 1305 2825 
Q 1016 2553 972 2059 
L 3022 2063 
z
" transform="scale(0.015625)"/>
       <path id="DejaVuSans-6e" d="M 3513 2113 
L 3513 0 
L 2938 0 
L 2938 2094 
Q 2938 2591 2744 2837 
Q 2550 3084 2163 3084 
Q 1697 3084 1428 2787 
Q 1159 2491 1159 1978 
L 1159 0 
L 581 0 
L 581 3500 
L 1159 3500 
L 1159 2956 
Q 1366 3272 1645 3428 
Q 1925 3584 2291 3584 
Q 2894 3584 3203 3211 
Q 3513 2838 3513 2113 
z
" transform="scale(0.015625)"/>
       <path id="DejaVuSans-75" d="M 544 1381 
L 544 3500 
L 1119 3500 
L 1119 1403 
Q 1119 906 1312 657 
Q 1506 409 1894 409 
Q 2359 409 2629 706 
Q 2900 1003 2900 1516 
L 2900 3500 
L 3475 3500 
L 3475 0 
L 2900 0 
L 2900 538 
Q 2691 219 2414 64 
Q 2138 -91 1772 -91 
Q 1169 -91 856 284 
Q 544 659 544 1381 
z
M 1991 3584 
L 1991 3584 
z
" transform="scale(0.015625)"/>
       <path id="DejaVuSans-6d" d="M 3328 2828 
Q 3544 3216 3844 3400 
Q 4144 3584 4550 3584 
Q 5097 3584 5394 3201 
Q 5691 2819 5691 2113 
L 5691 0 
L 5113 0 
L 5113 2094 
Q 5113 2597 4934 2840 
Q 4756 3084 4391 3084 
Q 3944 3084 3684 2787 
Q 3425 2491 3425 1978 
L 3425 0 
L 2847 0 
L 2847 2094 
Q 2847 2600 2669 2842 
Q 2491 3084 2119 3084 
Q 1678 3084 1418 2786 
Q 1159 2488 1159 1978 
L 1159 0 
L 581 0 
L 581 3500 
L 1159 3500 
L 1159 2956 
Q 1356 3278 1631 3431 
Q 1906 3584 2284 3584 
Q 2666 3584 2933 3390 
Q 3200 3197 3328 2828 
z
" transform="scale(0.015625)"/>
       <path id="DejaVuSans-62" d="M 3116 1747 
Q 3116 2381 2855 2742 
Q 2594 3103 2138 3103 
Q 1681 3103 1420 2742 
Q 1159 2381 1159 1747 
Q 1159 1113 1420 752 
Q 1681 391 2138 391 
Q 2594 391 2855 752 
Q 3116 1113 3116 1747 
z
M 1159 2969 
Q 1341 3281 1617 3432 
Q 1894 3584 2278 3584 
Q 2916 3584 3314 3078 
Q 3713 2572 3713 1747 
Q 3713 922 3314 415 
Q 2916 -91 2278 -91 
Q 1894 -91 1617 61 
Q 1341 213 1159 525 
L 1159 0 
L 581 0 
L 581 4863 
L 1159 4863 
L 1159 2969 
z
" transform="scale(0.015625)"/>
       <path id="DejaVuSans-72" d="M 2631 2963 
Q 2534 3019 2420 3045 
Q 2306 3072 2169 3072 
Q 1681 3072 1420 2755 
Q 1159 2438 1159 1844 
L 1159 0 
L 581 0 
L 581 3500 
L 1159 3500 
L 1159 2956 
Q 1341 3275 1631 3429 
Q 1922 3584 2338 3584 
Q 2397 3584 2469 3576 
Q 2541 3569 2628 3553 
L 2631 2963 
z
" transform="scale(0.015625)"/>
       <path id="DejaVuSans-20" transform="scale(0.015625)"/>
       <path id="DejaVuSans-28" d="M 1984 4856 
Q 1566 4138 1362 3434 
Q 1159 2731 1159 2009 
Q 1159 1288 1364 580 
Q 1569 -128 1984 -844 
L 1484 -844 
Q 1016 -109 783 600 
Q 550 1309 550 2009 
Q 550 2706 781 3412 
Q 1013 4119 1484 4856 
L 1984 4856 
z
" transform="scale(0.015625)"/>
       <path id="DejaVuSans-63" d="M 3122 3366 
L 3122 2828 
Q 2878 2963 2633 3030 
Q 2388 3097 2138 3097 
Q 1578 3097 1268 2742 
Q 959 2388 959 1747 
Q 959 1106 1268 751 
Q 1578 397 2138 397 
Q 2388 397 2633 464 
Q 2878 531 3122 666 
L 3122 134 
Q 2881 22 2623 -34 
Q 2366 -91 2075 -91 
Q 1284 -91 818 406 
Q 353 903 353 1747 
Q 353 2603 823 3093 
Q 1294 3584 2113 3584 
Q 2378 3584 2631 3529 
Q 2884 3475 3122 3366 
z
" transform="scale(0.015625)"/>
       <path id="DejaVuSans-2212" d="M 678 2272 
L 4684 2272 
L 4684 1741 
L 678 1741 
L 678 2272 
z
" transform="scale(0.015625)"/>
       <path id="DejaVuSans-29" d="M 513 4856 
L 1013 4856 
Q 1481 4119 1714 3412 
Q 1947 2706 1947 2009 
Q 1947 1309 1714 600 
Q 1481 -109 1013 -844 
L 513 -844 
Q 928 -128 1133 580 
Q 1338 1288 1338 2009 
Q 1338 2731 1133 3434 
Q 928 4138 513 4856 
z
" transform="scale(0.015625)"/>
      </defs>
      <use xlink:href="#DejaVuSans-57" transform="translate(0 0.684375)"/>
      <use xlink:href="#DejaVuSans-61" transform="translate(98.876953 0.684375)"/>
      <use xlink:href="#DejaVuSans-76" transform="translate(160.15625 0.684375)"/>
      <use xlink:href="#DejaVuSans-65" transform="translate(219.335938 0.684375)"/>
      <use xlink:href="#DejaVuSans-6e" transform="translate(280.859375 0.684375)"/>
      <use xlink:href="#DejaVuSans-75" transform="translate(344.238281 0.684375)"/>
      <use xlink:href="#DejaVuSans-6d" transform="translate(407.617188 0.684375)"/>
      <use xlink:href="#DejaVuSans-62" transform="translate(505.029297 0.684375)"/>
      <use xlink:href="#DejaVuSans-65" transform="translate(568.505859 0.684375)"/>
      <use xlink:href="#DejaVuSans-72" transform="translate(630.029297 0.684375)"/>
      <use xlink:href="#DejaVuSans-20" transform="translate(671.142578 0.684375)"/>
      <use xlink:href="#DejaVuSans-28" transform="translate(702.929688 0.684375)"/>
      <use xlink:href="#DejaVuSans-63" transform="translate(741.943359 0.684375)"/>
      <use xlink:href="#DejaVuSans-6d" transform="translate(796.923828 0.684375)"/>
      <use xlink:href="#DejaVuSans-2212" transform="translate(895.292969 38.965625) scale(0.7)"/>
      <use xlink:href="#DejaVuSans-31" transform="translate(953.945312 38.965625) scale(0.7)"/>
      <use xlink:href="#DejaVuSans-29" transform="translate(1001.21582 0.684375)"/>
     </g>
    </g>
   </g>
   <g id="matplotlib.axis_2">
    <g id="ytick_1">
     <g id="line2d_19">
      <path d="M 40.603125 276.334125 
L 397.723125 276.334125 
" clip-path="url(#p8377fffbd8)" style="fill: none; stroke: #808080; stroke-width: 0.3; stroke-linecap: square"/>
     </g>
     <g id="line2d_20">
      <defs>
       <path id="m86a54110e4" d="M 0 0 
L -3.5 0 
" style="stroke: #000000; stroke-width: 0.8"/>
      </defs>
      <g>
       <use xlink:href="#m86a54110e4" x="40.603125" y="276.334125" style="stroke: #000000; stroke-width: 0.8"/>
      </g>
     </g>
     <g id="text_11">
      <!-- 0 -->
      <g transform="translate(27.240625 280.133344) scale(0.1 -0.1)">
       <use xlink:href="#DejaVuSans-30"/>
      </g>
     </g>
    </g>
    <g id="ytick_2">
     <g id="line2d_21">
      <path d="M 40.603125 237.343579 
L 397.723125 237.343579 
" clip-path="url(#p8377fffbd8)" style="fill: none; stroke: #808080; stroke-width: 0.3; stroke-linecap: square"/>
     </g>
     <g id="line2d_22">
      <g>
       <use xlink:href="#m86a54110e4" x="40.603125" y="237.343579" style="stroke: #000000; stroke-width: 0.8"/>
      </g>
     </g>
     <g id="text_12">
      <!-- 5 -->
      <g transform="translate(27.240625 241.142797) scale(0.1 -0.1)">
       <use xlink:href="#DejaVuSans-35"/>
      </g>
     </g>
    </g>
    <g id="ytick_3">
     <g id="line2d_23">
      <path d="M 40.603125 198.353032 
L 397.723125 198.353032 
" clip-path="url(#p8377fffbd8)" style="fill: none; stroke: #808080; stroke-width: 0.3; stroke-linecap: square"/>
     </g>
     <g id="line2d_24">
      <g>
       <use xlink:href="#m86a54110e4" x="40.603125" y="198.353032" style="stroke: #000000; stroke-width: 0.8"/>
      </g>
     </g>
     <g id="text_13">
      <!-- 10 -->
      <g transform="translate(20.878125 202.152251) scale(0.1 -0.1)">
       <use xlink:href="#DejaVuSans-31"/>
       <use xlink:href="#DejaVuSans-30" transform="translate(63.623047 0)"/>
      </g>
     </g>
    </g>
    <g id="ytick_4">
     <g id="line2d_25">
      <path d="M 40.603125 159.362486 
L 397.723125 159.362486 
" clip-path="url(#p8377fffbd8)" style="fill: none; stroke: #808080; stroke-width: 0.3; stroke-linecap: square"/>
     </g>
     <g id="line2d_26">
      <g>
       <use xlink:href="#m86a54110e4" x="40.603125" y="159.362486" style="stroke: #000000; stroke-width: 0.8"/>
      </g>
     </g>
     <g id="text_14">
      <!-- 15 -->
      <g transform="translate(20.878125 163.161705) scale(0.1 -0.1)">
       <use xlink:href="#DejaVuSans-31"/>
       <use xlink:href="#DejaVuSans-35" transform="translate(63.623047 0)"/>
      </g>
     </g>
    </g>
    <g id="ytick_5">
     <g id="line2d_27">
      <path d="M 40.603125 120.37194 
L 397.723125 120.37194 
" clip-path="url(#p8377fffbd8)" style="fill: none; stroke: #808080; stroke-width: 0.3; stroke-linecap: square"/>
     </g>
     <g id="line2d_28">
      <g>
       <use xlink:href="#m86a54110e4" x="40.603125" y="120.37194" style="stroke: #000000; stroke-width: 0.8"/>
      </g>
     </g>
     <g id="text_15">
      <!-- 20 -->
      <g transform="translate(20.878125 124.171158) scale(0.1 -0.1)">
       <use xlink:href="#DejaVuSans-32"/>
       <use xlink:href="#DejaVuSans-30" transform="translate(63.623047 0)"/>
      </g>
     </g>
    </g>
    <g id="ytick_6">
     <g id="line2d_29">
      <path d="M 40.603125 81.381393 
L 397.723125 81.381393 
" clip-path="url(#p8377fffbd8)" style="fill: none; stroke: #808080; stroke-width: 0.3; stroke-linecap: square"/>
     </g>
     <g id="line2d_30">
      <g>
       <use xlink:href="#m86a54110e4" x="40.603125" y="81.381393" style="stroke: #000000; stroke-width: 0.8"/>
      </g>
     </g>
     <g id="text_16">
      <!-- 25 -->
      <g transform="translate(20.878125 85.180612) scale(0.1 -0.1)">
       <use xlink:href="#DejaVuSans-32"/>
       <use xlink:href="#DejaVuSans-35" transform="translate(63.623047 0)"/>
      </g>
     </g>
    </g>
    <g id="ytick_7">
     <g id="line2d_31">
      <path d="M 40.603125 42.390847 
L 397.723125 42.390847 
" clip-path="url(#p8377fffbd8)" style="fill: none; stroke: #808080; stroke-width: 0.3; stroke-linecap: square"/>
     </g>
     <g id="line2d_32">
      <g>
       <use xlink:href="#m86a54110e4" x="40.603125" y="42.390847" style="stroke: #000000; stroke-width: 0.8"/>
      </g>
     </g>
     <g id="text_17">
      <!-- 30 -->
      <g transform="translate(20.878125 46.190066) scale(0.1 -0.1)">
       <defs>
        <path id="DejaVuSans-33" d="M 2597 2516 
Q 3050 2419 3304 2112 
Q 3559 1806 3559 1356 
Q 3559 666 3084 287 
Q 2609 -91 1734 -91 
Q 1441 -91 1130 -33 
Q 819 25 488 141 
L 488 750 
Q 750 597 1062 519 
Q 1375 441 1716 441 
Q 2309 441 2620 675 
Q 2931 909 2931 1356 
Q 2931 1769 2642 2001 
Q 2353 2234 1838 2234 
L 1294 2234 
L 1294 2753 
L 1863 2753 
Q 2328 2753 2575 2939 
Q 2822 3125 2822 3475 
Q 2822 3834 2567 4026 
Q 2313 4219 1838 4219 
Q 1578 4219 1281 4162 
Q 984 4106 628 3988 
L 628 4550 
Q 988 4650 1302 4700 
Q 1616 4750 1894 4750 
Q 2613 4750 3031 4423 
Q 3450 4097 3450 3541 
Q 3450 3153 3228 2886 
Q 3006 2619 2597 2516 
z
" transform="scale(0.015625)"/>
       </defs>
       <use xlink:href="#DejaVuSans-33"/>
       <use xlink:href="#DejaVuSans-30" transform="translate(63.623047 0)"/>
      </g>
     </g>
    </g>
    <g id="text_18">
     <!-- Height (km) -->
     <g transform="translate(14.798438 185.159281) rotate(-90) scale(0.1 -0.1)">
      <defs>
       <path id="DejaVuSans-48" d="M 628 4666 
L 1259 4666 
L 1259 2753 
L 3553 2753 
L 3553 4666 
L 4184 4666 
L 4184 0 
L 3553 0 
L 3553 2222 
L 1259 2222 
L 1259 0 
L 628 0 
L 628 4666 
z
" transform="scale(0.015625)"/>
       <path id="DejaVuSans-69" d="M 603 3500 
L 1178 3500 
L 1178 0 
L 603 0 
L 603 3500 
z
M 603 4863 
L 1178 4863 
L 1178 4134 
L 603 4134 
L 603 4863 
z
" transform="scale(0.015625)"/>
       <path id="DejaVuSans-67" d="M 2906 1791 
Q 2906 2416 2648 2759 
Q 2391 3103 1925 3103 
Q 1463 3103 1205 2759 
Q 947 2416 947 1791 
Q 947 1169 1205 825 
Q 1463 481 1925 481 
Q 2391 481 2648 825 
Q 2906 1169 2906 1791 
z
M 3481 434 
Q 3481 -459 3084 -895 
Q 2688 -1331 1869 -1331 
Q 1566 -1331 1297 -1286 
Q 1028 -1241 775 -1147 
L 775 -588 
Q 1028 -725 1275 -790 
Q 1522 -856 1778 -856 
Q 2344 -856 2625 -561 
Q 2906 -266 2906 331 
L 2906 616 
Q 2728 306 2450 153 
Q 2172 0 1784 0 
Q 1141 0 747 490 
Q 353 981 353 1791 
Q 353 2603 747 3093 
Q 1141 3584 1784 3584 
Q 2172 3584 2450 3431 
Q 2728 3278 2906 2969 
L 2906 3500 
L 3481 3500 
L 3481 434 
z
" transform="scale(0.015625)"/>
       <path id="DejaVuSans-68" d="M 3513 2113 
L 3513 0 
L 2938 0 
L 2938 2094 
Q 2938 2591 2744 2837 
Q 2550 3084 2163 3084 
Q 1697 3084 1428 2787 
Q 1159 2491 1159 1978 
L 1159 0 
L 581 0 
L 581 4863 
L 1159 4863 
L 1159 2956 
Q 1366 3272 1645 3428 
Q 1925 3584 2291 3584 
Q 2894 3584 3203 3211 
Q 3513 2838 3513 2113 
z
" transform="scale(0.015625)"/>
       <path id="DejaVuSans-74" d="M 1172 4494 
L 1172 3500 
L 2356 3500 
L 2356 3053 
L 1172 3053 
L 1172 1153 
Q 1172 725 1289 603 
Q 1406 481 1766 481 
L 2356 481 
L 2356 0 
L 1766 0 
Q 1100 0 847 248 
Q 594 497 594 1153 
L 594 3053 
L 172 3053 
L 172 3500 
L 594 3500 
L 594 4494 
L 1172 4494 
z
" transform="scale(0.015625)"/>
       <path id="DejaVuSans-6b" d="M 581 4863 
L 1159 4863 
L 1159 1991 
L 2875 3500 
L 3609 3500 
L 1753 1863 
L 3688 0 
L 2938 0 
L 1159 1709 
L 1159 0 
L 581 0 
L 581 4863 
z
" transform="scale(0.015625)"/>
      </defs>
      <use xlink:href="#DejaVuSans-48"/>
      <use xlink:href="#DejaVuSans-65" transform="translate(75.195312 0)"/>
      <use xlink:href="#DejaVuSans-69" transform="translate(136.71875 0)"/>
      <use xlink:href="#DejaVuSans-67" transform="translate(164.501953 0)"/>
      <use xlink:href="#DejaVuSans-68" transform="translate(227.978516 0)"/>
      <use xlink:href="#DejaVuSans-74" transform="translate(291.357422 0)"/>
      <use xlink:href="#DejaVuSans-20" transform="translate(330.566406 0)"/>
      <use xlink:href="#DejaVuSans-28" transform="translate(362.353516 0)"/>
      <use xlink:href="#DejaVuSans-6b" transform="translate(401.367188 0)"/>
      <use xlink:href="#DejaVuSans-6d" transform="translate(459.277344 0)"/>
      <use xlink:href="#DejaVuSans-29" transform="translate(556.689453 0)"/>
     </g>
    </g>
   </g>
   <g id="line2d_33">
    <path d="M 56.835852 276.334125 
L 57.269303 276.334125 
L 57.702754 245.534646 
L 58.136204 276.334125 
L 58.569655 245.534646 
L 59.003106 233.135671 
L 59.436556 213.538454 
L 59.870007 206.073278 
L 60.303458 221.217179 
L 60.736908 140.037148 
L 61.170359 221.217179 
L 61.60381 209.779172 
L 62.03726 153.834034 
L 62.470711 198.821652 
L 62.904162 167.63092 
L 63.337612 115.885177 
L 63.771063 206.073278 
L 64.204514 198.821652 
L 64.637964 209.779172 
L 65.071415 206.073278 
L 65.504866 191.783577 
L 65.938316 143.486369 
L 66.371767 188.326248 
L 66.805217 143.486369 
L 67.238668 195.275921 
L 67.672119 191.783577 
L 68.105569 198.821652 
L 68.53902 160.732477 
L 68.972471 157.283255 
L 69.405921 188.326248 
L 69.839372 191.783577 
L 70.272823 198.821652 
L 70.706273 191.783577 
L 71.139724 181.427806 
L 71.573175 177.978584 
L 72.006625 191.783577 
L 72.440076 195.275921 
L 72.873527 157.283255 
L 73.306977 191.783577 
L 73.740428 177.978584 
L 74.173879 56.036585 
L 74.607329 188.326248 
L 75.04078 198.821652 
L 75.474231 202.420771 
L 75.907681 195.275921 
L 76.341132 184.877027 
L 76.774583 191.783577 
L 77.208033 164.181698 
L 77.641484 191.783577 
L 78.074935 133.138705 
L 78.508385 191.783577 
L 78.941836 198.821652 
L 79.375287 276.334125 
L 79.808737 198.821652 
L 80.242188 198.821652 
L 80.675639 188.326248 
L 81.109089 41.650564 
L 81.54254 164.181698 
L 81.975991 195.275921 
L 82.409441 188.326248 
L 82.842892 202.420771 
L 83.276343 206.073278 
L 83.709793 184.877027 
L 84.143244 188.326248 
L 84.576695 188.326248 
L 85.010145 191.783577 
L 85.443596 171.080141 
L 85.877047 198.821652 
L 86.310497 198.821652 
L 86.743948 206.073278 
L 87.177399 181.427806 
L 87.610849 202.420771 
L 88.0443 195.275921 
L 88.477751 140.037148 
L 88.911201 198.821652 
L 89.344652 188.326248 
L 89.778103 181.427806 
L 90.211553 195.275921 
L 90.645004 184.877027 
L 91.078455 198.821652 
L 91.511905 174.529363 
L 91.945356 206.073278 
L 92.378807 202.420771 
L 92.812257 191.783577 
L 93.245708 195.275921 
L 93.679158 34.414125 
L 94.112609 198.821652 
L 94.54606 195.275921 
L 94.97951 209.779172 
L 95.412961 213.538454 
L 95.846412 209.779172 
L 96.713313 188.326248 
L 97.146764 195.275921 
L 97.580214 198.821652 
L 98.013665 181.427806 
L 98.447116 202.420771 
L 98.880566 209.779172 
L 99.314017 213.538454 
L 99.747468 202.420771 
L 100.180918 206.073278 
L 100.614369 213.538454 
L 101.04782 209.779172 
L 101.48127 188.326248 
L 101.914721 115.885177 
L 102.348172 191.783577 
L 102.781622 202.420771 
L 103.215073 209.779172 
L 103.648524 177.978584 
L 104.081974 209.779172 
L 104.515425 213.538454 
L 104.948876 213.538454 
L 105.382326 209.779172 
L 105.815777 188.326248 
L 106.249228 206.073278 
L 106.682678 217.351123 
L 107.116129 217.351123 
L 107.98303 209.779172 
L 108.416481 217.351123 
L 108.849932 206.073278 
L 109.283382 38.035964 
L 109.716833 202.420771 
L 110.583734 217.351123 
L 111.017185 66.750101 
L 111.450636 213.538454 
L 111.884086 209.779172 
L 112.750988 217.351123 
L 113.184438 217.351123 
L 113.617889 206.073278 
L 114.05134 206.073278 
L 114.48479 209.779172 
L 114.918241 198.821652 
L 115.351692 221.217179 
L 115.785142 225.136622 
L 116.218593 225.136622 
L 116.652044 198.821652 
L 117.085494 221.217179 
L 117.518945 195.275921 
L 117.952396 221.217179 
L 118.385846 229.109453 
L 118.819297 221.217179 
L 119.252748 195.275921 
L 119.686198 225.136622 
L 120.119649 229.109453 
L 120.5531 221.217179 
L 120.98655 206.073278 
L 121.420001 206.073278 
L 121.853451 225.136622 
L 122.720353 233.135671 
L 123.587254 233.135671 
L 124.020705 213.538454 
L 124.454155 213.538454 
L 124.887606 188.326248 
L 125.321057 213.538454 
L 125.754507 195.275921 
L 126.187958 233.135671 
L 126.621409 221.217179 
L 127.054859 233.135671 
L 127.48831 225.136622 
L 127.921761 233.135671 
L 128.355211 213.538454 
L 128.788662 221.217179 
L 129.222113 221.217179 
L 129.655563 233.135671 
L 130.089014 229.109453 
L 130.522465 229.109453 
L 130.955915 206.073278 
L 131.389366 229.109453 
L 132.256267 237.215275 
L 132.689718 221.217179 
L 133.123169 229.109453 
L 133.556619 217.351123 
L 133.99007 233.135671 
L 134.423521 237.215275 
L 134.856971 233.135671 
L 135.290422 191.783577 
L 135.723873 237.215275 
L 136.157323 237.215275 
L 136.590774 177.978584 
L 137.024225 237.215275 
L 137.457675 241.348267 
L 137.891126 237.215275 
L 138.324577 221.217179 
L 138.758027 233.135671 
L 139.191478 229.109453 
L 139.624929 229.109453 
L 140.058379 237.215275 
L 140.49183 229.109453 
L 140.925281 229.109453 
L 141.358731 237.215275 
L 141.792182 233.135671 
L 142.225633 225.136622 
L 142.659083 237.215275 
L 143.092534 241.348267 
L 143.525985 237.215275 
L 143.959435 241.348267 
L 144.826337 241.348267 
L 145.259787 213.538454 
L 145.693238 229.109453 
L 146.126689 237.215275 
L 146.560139 241.348267 
L 146.99359 241.348267 
L 147.427041 237.215275 
L 147.860491 241.348267 
L 148.293942 241.348267 
L 148.727393 225.136622 
L 149.160843 217.351123 
L 149.594294 241.348267 
L 150.027744 237.215275 
L 150.461195 241.348267 
L 150.894646 233.135671 
L 151.328096 241.348267 
L 152.194998 241.348267 
L 152.628448 233.135671 
L 153.061899 241.348267 
L 153.9288 241.348267 
L 154.362251 245.534646 
L 154.795702 237.215275 
L 155.229152 245.534646 
L 155.662603 245.534646 
L 156.096054 241.348267 
L 157.396406 241.348267 
L 157.829856 245.534646 
L 158.263307 225.136622 
L 158.696758 245.534646 
L 159.130208 245.534646 
L 159.563659 241.348267 
L 160.43056 241.348267 
L 160.864011 245.534646 
L 161.297462 225.136622 
L 161.730912 245.534646 
L 163.464715 245.534646 
L 163.898166 241.348267 
L 164.331616 221.217179 
L 164.765067 245.534646 
L 165.198518 241.348267 
L 165.631968 245.534646 
L 166.49887 245.534646 
L 166.93232 229.109453 
L 167.365771 249.774411 
L 167.799222 249.774411 
L 168.232672 245.534646 
L 169.533024 245.534646 
L 169.966475 241.348267 
L 170.399926 249.774411 
L 170.833376 245.534646 
L 171.266827 233.135671 
L 171.700278 245.534646 
L 172.133728 249.774411 
L 172.567179 237.215275 
L 173.00063 249.774411 
L 174.734432 249.774411 
L 175.167883 245.534646 
L 175.601334 249.774411 
L 176.468235 249.774411 
L 176.901686 245.534646 
L 177.335136 249.774411 
L 177.768587 249.774411 
L 178.202037 229.109453 
L 178.635488 249.774411 
L 185.570699 249.774411 
L 186.004149 245.534646 
L 186.4376 245.534646 
L 186.871051 249.774411 
L 194.239712 249.774411 
L 194.673163 245.534646 
L 195.106613 237.215275 
L 195.540064 249.774411 
L 195.973515 254.067563 
L 196.840416 254.067563 
L 197.273867 249.774411 
L 197.707317 254.067563 
L 198.140768 249.774411 
L 198.574219 254.067563 
L 200.308021 254.067563 
L 200.741472 249.774411 
L 201.174923 254.067563 
L 210.277386 254.067563 
L 210.710837 249.774411 
L 211.144288 254.067563 
L 221.547104 254.067563 
L 221.980554 245.534646 
L 222.414005 254.067563 
L 238.88513 254.067563 
L 239.318581 258.414102 
L 239.752031 258.414102 
L 240.185482 254.067563 
L 240.618933 254.067563 
L 241.052383 249.774411 
L 241.919285 258.414102 
L 242.786186 258.414102 
L 243.219637 254.067563 
L 243.653087 254.067563 
L 244.086538 258.414102 
L 245.38689 258.414102 
L 245.820341 254.067563 
L 246.253791 258.414102 
L 246.687242 254.067563 
L 247.120693 254.067563 
L 247.554143 249.774411 
L 247.987594 258.414102 
L 248.421045 254.067563 
L 248.854495 258.414102 
L 249.287946 254.067563 
L 250.154847 254.067563 
L 250.588298 258.414102 
L 251.021749 254.067563 
L 251.455199 254.067563 
L 251.88865 258.414102 
L 252.322101 258.414102 
L 252.755551 254.067563 
L 253.189002 254.067563 
L 253.622453 245.534646 
L 254.055903 254.067563 
L 254.489354 249.774411 
L 254.922805 254.067563 
L 255.356255 254.067563 
L 255.789706 249.774411 
L 256.223157 258.414102 
L 257.090058 258.414102 
L 257.956959 249.774411 
L 258.39041 254.067563 
L 258.823861 245.534646 
L 259.257311 258.414102 
L 259.690762 254.067563 
L 260.991114 254.067563 
L 261.424564 229.109453 
L 261.858015 254.067563 
L 262.291466 217.351123 
L 262.724916 237.215275 
L 263.158367 229.109453 
L 263.591818 254.067563 
L 264.458719 254.067563 
L 264.89217 249.774411 
L 265.32562 249.774411 
L 265.759071 202.420771 
L 266.192522 249.774411 
L 266.625972 249.774411 
L 267.059423 254.067563 
L 268.359775 254.067563 
L 268.793226 249.774411 
L 269.226676 241.348267 
L 269.660127 245.534646 
L 270.093578 233.135671 
L 270.527028 217.351123 
L 270.960479 217.351123 
L 271.39393 245.534646 
L 271.82738 233.135671 
L 272.260831 249.774411 
L 272.694282 229.109453 
L 273.561183 221.217179 
L 273.994634 221.217179 
L 274.428084 213.538454 
L 274.861535 241.348267 
L 275.294986 245.534646 
L 275.728436 225.136622 
L 276.161887 241.348267 
L 276.595338 233.135671 
L 277.028788 233.135671 
L 277.462239 237.215275 
L 277.89569 217.351123 
L 278.32914 233.135671 
L 279.196042 233.135671 
L 280.062943 209.779172 
L 280.496394 221.217179 
L 280.929844 237.215275 
L 281.363295 229.109453 
L 281.796746 217.351123 
L 282.230196 225.136622 
L 282.663647 229.109453 
L 283.097098 202.420771 
L 283.530548 217.351123 
L 283.963999 198.821652 
L 284.39745 229.109453 
L 284.8309 195.275921 
L 285.264351 233.135671 
L 285.697802 221.217179 
L 286.131252 229.109453 
L 286.564703 225.136622 
L 286.998154 209.779172 
L 287.431604 213.538454 
L 287.865055 198.821652 
L 288.298506 225.136622 
L 288.731956 217.351123 
L 289.598857 217.351123 
L 290.032308 126.240262 
L 290.465759 221.217179 
L 290.899209 229.109453 
L 291.33266 225.136622 
L 291.766111 202.420771 
L 292.199561 221.217179 
L 292.633012 217.351123 
L 293.066463 202.420771 
L 293.499913 143.486369 
L 293.933364 213.538454 
L 294.366815 209.779172 
L 294.800265 209.779172 
L 295.233716 217.351123 
L 295.667167 191.783577 
L 296.100617 202.420771 
L 296.534068 209.779172 
L 296.967519 225.136622 
L 297.83442 217.351123 
L 298.267871 191.783577 
L 298.701321 198.821652 
L 299.134772 213.538454 
L 299.568223 198.821652 
L 300.001673 198.821652 
L 300.435124 209.779172 
L 300.868575 209.779172 
L 301.302025 191.783577 
L 302.168927 206.073278 
L 302.602377 209.779172 
L 303.035828 195.275921 
L 303.469279 202.420771 
L 303.902729 195.275921 
L 304.769631 202.420771 
L 305.203081 213.538454 
L 305.636532 191.783577 
L 306.069983 206.073278 
L 306.503433 91.494972 
L 306.936884 191.783577 
L 307.370335 191.783577 
L 307.803785 209.779172 
L 308.670687 209.779172 
L 309.104137 133.138705 
L 309.537588 195.275921 
L 309.971039 143.486369 
L 310.404489 206.073278 
L 310.83794 171.080141 
L 311.271391 209.779172 
L 311.704841 195.275921 
L 312.138292 195.275921 
L 312.571743 188.326248 
L 313.005193 198.821652 
L 313.438644 221.217179 
L 314.305545 229.109453 
L 314.738996 229.109453 
L 315.172447 181.427806 
L 316.039348 225.136622 
L 316.472799 229.109453 
L 316.906249 221.217179 
L 317.3397 225.136622 
L 317.77315 213.538454 
L 318.206601 217.351123 
L 318.640052 213.538454 
L 319.073502 198.821652 
L 319.506953 202.420771 
L 319.940404 209.779172 
L 320.373854 160.732477 
L 320.807305 213.538454 
L 321.240756 202.420771 
L 321.674206 213.538454 
L 322.107657 195.275921 
L 322.541108 198.821652 
L 322.974558 213.538454 
L 323.408009 184.877027 
L 323.84146 202.420771 
L 324.27491 191.783577 
L 324.708361 202.420771 
L 325.141812 153.834034 
L 325.575262 202.420771 
L 326.008713 213.538454 
L 326.442164 209.779172 
L 326.875614 202.420771 
L 327.309065 213.538454 
L 327.742516 181.427806 
L 328.609417 202.420771 
L 329.042868 209.779172 
L 329.476318 191.783577 
L 329.909769 202.420771 
L 330.34322 164.181698 
L 330.77667 206.073278 
L 331.210121 202.420771 
L 331.643572 209.779172 
L 332.077022 160.732477 
L 332.510473 202.420771 
L 332.943924 174.529363 
L 333.377374 206.073278 
L 333.810825 143.486369 
L 334.244276 217.351123 
L 334.677726 217.351123 
L 335.544628 188.326248 
L 335.978078 206.073278 
L 336.411529 217.351123 
L 336.84498 221.217179 
L 337.27843 221.217179 
L 337.711881 198.821652 
L 338.145332 191.783577 
L 338.578782 202.420771 
L 339.012233 209.779172 
L 339.445684 209.779172 
L 339.879134 202.420771 
L 340.312585 209.779172 
L 340.746036 202.420771 
L 341.179486 202.420771 
L 341.612937 221.217179 
L 342.046388 202.420771 
L 342.479838 217.351123 
L 342.913289 206.073278 
L 343.34674 225.136622 
L 343.78019 206.073278 
L 344.213641 206.073278 
L 344.647092 191.783577 
L 345.080542 198.821652 
L 345.513993 217.351123 
L 345.947443 206.073278 
L 346.380894 202.420771 
L 346.814345 229.109453 
L 347.247795 221.217179 
L 347.681246 202.420771 
L 348.114697 213.538454 
L 348.548147 221.217179 
L 348.981598 195.275921 
L 349.415049 184.877027 
L 349.848499 191.783577 
L 350.28195 209.779172 
L 350.715401 191.783577 
L 351.148851 229.109453 
L 351.582302 237.215275 
L 352.015753 237.215275 
L 352.449203 233.135671 
L 352.882654 221.217179 
L 353.316105 217.351123 
L 353.749555 177.978584 
L 354.183006 221.217179 
L 354.616457 225.136622 
L 355.049907 167.63092 
L 355.483358 233.135671 
L 355.916809 217.351123 
L 356.350259 206.073278 
L 356.78371 198.821652 
L 357.217161 237.215275 
L 357.650611 241.348267 
L 358.084062 241.348267 
L 358.517513 198.821652 
L 358.950963 237.215275 
L 359.384414 237.215275 
L 359.817865 202.420771 
L 360.251315 188.326248 
L 360.684766 229.109453 
L 361.118217 241.348267 
L 361.551667 245.534646 
L 361.985118 237.215275 
L 362.418569 245.534646 
L 362.852019 221.217179 
L 363.28547 229.109453 
L 363.718921 221.217179 
L 364.152371 237.215275 
L 364.585822 225.136622 
L 365.019273 245.534646 
L 365.452723 249.774411 
L 365.886174 233.135671 
L 366.319625 241.348267 
L 366.753075 225.136622 
L 367.186526 237.215275 
L 367.619977 225.136622 
L 368.053427 217.351123 
L 368.486878 229.109453 
L 368.920329 213.538454 
L 369.353779 241.348267 
L 369.78723 245.534646 
L 370.220681 254.067563 
L 370.654131 221.217179 
L 371.087582 254.067563 
L 371.521033 245.534646 
L 371.954483 229.109453 
L 372.387934 229.109453 
L 372.821384 217.351123 
L 373.254835 229.109453 
L 373.688286 254.067563 
L 374.121736 233.135671 
L 374.555187 249.774411 
L 374.988638 249.774411 
L 375.422088 254.067563 
L 375.855539 241.348267 
L 376.28899 225.136622 
L 376.72244 254.067563 
L 377.155891 258.414102 
L 377.589342 241.348267 
L 378.022792 258.414102 
L 378.456243 249.774411 
L 378.889694 258.414102 
L 379.756595 241.348267 
L 380.190046 202.420771 
L 380.623496 249.774411 
L 381.056947 254.067563 
L 381.490398 245.534646 
L 381.490398 245.534646 
" clip-path="url(#p8377fffbd8)" style="fill: none; stroke: #1f77b4; stroke-width: 0.7; stroke-linecap: square"/>
   </g>
   <g id="patch_3">
    <path d="M 40.603125 288.430125 
L 40.603125 22.318125 
" style="fill: none; stroke: #000000; stroke-width: 0.8; stroke-linejoin: miter; stroke-linecap: square"/>
   </g>
   <g id="patch_4">
    <path d="M 397.723125 288.430125 
L 397.723125 22.318125 
" style="fill: none; stroke: #000000; stroke-width: 0.8; stroke-linejoin: miter; stroke-linecap: square"/>
   </g>
   <g id="patch_5">
    <path d="M 40.603125 288.430125 
L 397.723125 288.430125 
" style="fill: none; stroke: #000000; stroke-width: 0.8; stroke-linejoin: miter; stroke-linecap: square"/>
   </g>
   <g id="patch_6">
    <path d="M 40.603125 22.318125 
L 397.723125 22.318125 
" style="fill: none; stroke: #000000; stroke-width: 0.8; stroke-linejoin: miter; stroke-linecap: square"/>
   </g>
   <g id="text_19">
    <!-- Emission height at τ = 1 for (H2O) -->
    <g transform="translate(115.524375 16.318125) scale(0.12 -0.12)">
     <defs>
      <path id="DejaVuSans-45" d="M 628 4666 
L 3578 4666 
L 3578 4134 
L 1259 4134 
L 1259 2753 
L 3481 2753 
L 3481 2222 
L 1259 2222 
L 1259 531 
L 3634 531 
L 3634 0 
L 628 0 
L 628 4666 
z
" transform="scale(0.015625)"/>
      <path id="DejaVuSans-73" d="M 2834 3397 
L 2834 2853 
Q 2591 2978 2328 3040 
Q 2066 3103 1784 3103 
Q 1356 3103 1142 2972 
Q 928 2841 928 2578 
Q 928 2378 1081 2264 
Q 1234 2150 1697 2047 
L 1894 2003 
Q 2506 1872 2764 1633 
Q 3022 1394 3022 966 
Q 3022 478 2636 193 
Q 2250 -91 1575 -91 
Q 1294 -91 989 -36 
Q 684 19 347 128 
L 347 722 
Q 666 556 975 473 
Q 1284 391 1588 391 
Q 1994 391 2212 530 
Q 2431 669 2431 922 
Q 2431 1156 2273 1281 
Q 2116 1406 1581 1522 
L 1381 1569 
Q 847 1681 609 1914 
Q 372 2147 372 2553 
Q 372 3047 722 3315 
Q 1072 3584 1716 3584 
Q 2034 3584 2315 3537 
Q 2597 3491 2834 3397 
z
" transform="scale(0.015625)"/>
      <path id="DejaVuSans-6f" d="M 1959 3097 
Q 1497 3097 1228 2736 
Q 959 2375 959 1747 
Q 959 1119 1226 758 
Q 1494 397 1959 397 
Q 2419 397 2687 759 
Q 2956 1122 2956 1747 
Q 2956 2369 2687 2733 
Q 2419 3097 1959 3097 
z
M 1959 3584 
Q 2709 3584 3137 3096 
Q 3566 2609 3566 1747 
Q 3566 888 3137 398 
Q 2709 -91 1959 -91 
Q 1206 -91 779 398 
Q 353 888 353 1747 
Q 353 2609 779 3096 
Q 1206 3584 1959 3584 
z
" transform="scale(0.015625)"/>
      <path id="DejaVuSans-3c4" d="M 2319 638 
Q 2431 488 2769 488 
L 3047 488 
L 3047 0 
L 2700 0 
Q 2138 0 1881 300 
Q 1625 606 1625 1269 
L 1625 2925 
L 313 2925 
L 313 3500 
L 3541 3500 
L 3541 2925 
L 2213 2925 
L 2213 1234 
Q 2213 781 2319 638 
z
" transform="scale(0.015625)"/>
      <path id="DejaVuSans-3d" d="M 678 2906 
L 4684 2906 
L 4684 2381 
L 678 2381 
L 678 2906 
z
M 678 1631 
L 4684 1631 
L 4684 1100 
L 678 1100 
L 678 1631 
z
" transform="scale(0.015625)"/>
      <path id="DejaVuSans-66" d="M 2375 4863 
L 2375 4384 
L 1825 4384 
Q 1516 4384 1395 4259 
Q 1275 4134 1275 3809 
L 1275 3500 
L 2222 3500 
L 2222 3053 
L 1275 3053 
L 1275 0 
L 697 0 
L 697 3053 
L 147 3053 
L 147 3500 
L 697 3500 
L 697 3744 
Q 697 4328 969 4595 
Q 1241 4863 1831 4863 
L 2375 4863 
z
" transform="scale(0.015625)"/>
      <path id="DejaVuSans-4f" d="M 2522 4238 
Q 1834 4238 1429 3725 
Q 1025 3213 1025 2328 
Q 1025 1447 1429 934 
Q 1834 422 2522 422 
Q 3209 422 3611 934 
Q 4013 1447 4013 2328 
Q 4013 3213 3611 3725 
Q 3209 4238 2522 4238 
z
M 2522 4750 
Q 3503 4750 4090 4092 
Q 4678 3434 4678 2328 
Q 4678 1225 4090 567 
Q 3503 -91 2522 -91 
Q 1538 -91 948 565 
Q 359 1222 359 2328 
Q 359 3434 948 4092 
Q 1538 4750 2522 4750 
z
" transform="scale(0.015625)"/>
     </defs>
     <use xlink:href="#DejaVuSans-45"/>
     <use xlink:href="#DejaVuSans-6d" transform="translate(63.183594 0)"/>
     <use xlink:href="#DejaVuSans-69" transform="translate(160.595703 0)"/>
     <use xlink:href="#DejaVuSans-73" transform="translate(188.378906 0)"/>
     <use xlink:href="#DejaVuSans-73" transform="translate(240.478516 0)"/>
     <use xlink:href="#DejaVuSans-69" transform="translate(292.578125 0)"/>
     <use xlink:href="#DejaVuSans-6f" transform="translate(320.361328 0)"/>
     <use xlink:href="#DejaVuSans-6e" transform="translate(381.542969 0)"/>
     <use xlink:href="#DejaVuSans-20" transform="translate(444.921875 0)"/>
     <use xlink:href="#DejaVuSans-68" transform="translate(476.708984 0)"/>
     <use xlink:href="#DejaVuSans-65" transform="translate(540.087891 0)"/>
     <use xlink:href="#DejaVuSans-69" transform="translate(601.611328 0)"/>
     <use xlink:href="#DejaVuSans-67" transform="translate(629.394531 0)"/>
     <use xlink:href="#DejaVuSans-68" transform="translate(692.871094 0)"/>
     <use xlink:href="#DejaVuSans-74" transform="translate(756.25 0)"/>
     <use xlink:href="#DejaVuSans-20" transform="translate(795.458984 0)"/>
     <use xlink:href="#DejaVuSans-61" transform="translate(827.246094 0)"/>
     <use xlink:href="#DejaVuSans-74" transform="translate(888.525391 0)"/>
     <use xlink:href="#DejaVuSans-20" transform="translate(927.734375 0)"/>
     <use xlink:href="#DejaVuSans-3c4" transform="translate(959.521484 0)"/>
     <use xlink:href="#DejaVuSans-20" transform="translate(1019.726562 0)"/>
     <use xlink:href="#DejaVuSans-3d" transform="translate(1051.513672 0)"/>
     <use xlink:href="#DejaVuSans-20" transform="translate(1135.302734 0)"/>
     <use xlink:href="#DejaVuSans-31" transform="translate(1167.089844 0)"/>
     <use xlink:href="#DejaVuSans-20" transform="translate(1230.712891 0)"/>
     <use xlink:href="#DejaVuSans-66" transform="translate(1262.5 0)"/>
     <use xlink:href="#DejaVuSans-6f" transform="translate(1297.705078 0)"/>
     <use xlink:href="#DejaVuSans-72" transform="translate(1358.886719 0)"/>
     <use xlink:href="#DejaVuSans-20" transform="translate(1400 0)"/>
     <use xlink:href="#DejaVuSans-28" transform="translate(1431.787109 0)"/>
     <use xlink:href="#DejaVuSans-48" transform="translate(1470.800781 0)"/>
     <use xlink:href="#DejaVuSans-32" transform="translate(1545.996094 0)"/>
     <use xlink:href="#DejaVuSans-4f" transform="translate(1609.619141 0)"/>
     <use xlink:href="#DejaVuSans-29" transform="translate(1688.330078 0)"/>
    </g>
   </g>
  </g>
 </g>
 <defs>
  <clipPath id="p8377fffbd8">
   <rect x="40.603125" y="22.318125" width="357.12" height="266.112"/>
  </clipPath>
 </defs>
</svg>
