<?xml version="1.0" encoding="utf-8" standalone="no"?>
<!DOCTYPE svg PUBLIC "-//W3C//DTD SVG 1.1//EN"
  "http://www.w3.org/Graphics/SVG/1.1/DTD/svg11.dtd">
<svg xmlns:xlink="http://www.w3.org/1999/xlink" width="404.923125pt" height="326.70825pt" viewBox="0 0 404.923125 326.70825" xmlns="http://www.w3.org/2000/svg" version="1.1">
 <metadata>
  <rdf:RDF xmlns:dc="http://purl.org/dc/elements/1.1/" xmlns:cc="http://creativecommons.org/ns#" xmlns:rdf="http://www.w3.org/1999/02/22-rdf-syntax-ns#">
   <cc:Work>
    <dc:type rdf:resource="http://purl.org/dc/dcmitype/StillImage"/>
    <dc:date>2026-01-22T22:10:09.568336</dc:date>
    <dc:format>image/svg+xml</dc:format>
    <dc:creator>
     <cc:Agent>
      <dc:title>Matplotlib v3.10.6, https://matplotlib.org/</dc:title>
     </cc:Agent>
    </dc:creator>
   </cc:Work>
  </rdf:RDF>
 </metadata>
 <defs>
  <style type="text/css">*{stroke-linejoin: round; stroke-linecap: butt}</style>
 </defs>
 <g id="figure_1">
  <g id="patch_1">
   <path d="M 0 326.70825 
L 404.923125 326.70825 
L 404.923125 0 
L 0 0 
z
" style="fill: #ffffff"/>
  </g>
  <g id="axes_1">
   <g id="patch_2">
    <path d="M 40.603125 288.430125 
L 397.723125 288.430125 
L 397.723125 22.318125 
L 40.603125 22.318125 
z
" style="fill: #ffffff"/>
   </g>
   <g id="matplotlib.axis_1">
    <g id="xtick_1">
     <g id="line2d_1">
      <path d="M 56.673444 288.430125 
L 56.673444 22.318125 
" clip-path="url(#p63b9a06528)" style="fill: none; stroke: #808080; stroke-width: 0.3; stroke-linecap: square"/>
     </g>
     <g id="line2d_2">
      <defs>
       <path id="ma99a2c625c" d="M 0 0 
L 0 3.5 
" style="stroke: #000000; stroke-width: 0.8"/>
      </defs>
      <g>
       <use xlink:href="#ma99a2c625c" x="56.673444" y="288.430125" style="stroke: #000000; stroke-width: 0.8"/>
      </g>
     </g>
     <g id="text_1">
      <!-- 0 -->
      <g transform="translate(53.492194 303.028562) scale(0.1 -0.1)">
       <defs>
        <path id="DejaVuSans-30" d="M 2034 4250 
Q 1547 4250 1301 3770 
Q 1056 3291 1056 2328 
Q 1056 1369 1301 889 
Q 1547 409 2034 409 
Q 2525 409 2770 889 
Q 3016 1369 3016 2328 
Q 3016 3291 2770 3770 
Q 2525 4250 2034 4250 
z
M 2034 4750 
Q 2819 4750 3233 4129 
Q 3647 3509 3647 2328 
Q 3647 1150 3233 529 
Q 2819 -91 2034 -91 
Q 1250 -91 836 529 
Q 422 1150 422 2328 
Q 422 3509 836 4129 
Q 1250 4750 2034 4750 
z
" transform="scale(0.015625)"/>
       </defs>
       <use xlink:href="#DejaVuSans-30"/>
      </g>
     </g>
    </g>
    <g id="xtick_2">
     <g id="line2d_3">
      <path d="M 97.275563 288.430125 
L 97.275563 22.318125 
" clip-path="url(#p63b9a06528)" style="fill: none; stroke: #808080; stroke-width: 0.3; stroke-linecap: square"/>
     </g>
     <g id="line2d_4">
      <g>
       <use xlink:href="#ma99a2c625c" x="97.275563" y="288.430125" style="stroke: #000000; stroke-width: 0.8"/>
      </g>
     </g>
     <g id="text_2">
      <!-- 250 -->
      <g transform="translate(87.731813 303.028562) scale(0.1 -0.1)">
       <defs>
        <path id="DejaVuSans-32" d="M 1228 531 
L 3431 531 
L 3431 0 
L 469 0 
L 469 531 
Q 828 903 1448 1529 
Q 2069 2156 2228 2338 
Q 2531 2678 2651 2914 
Q 2772 3150 2772 3378 
Q 2772 3750 2511 3984 
Q 2250 4219 1831 4219 
Q 1534 4219 1204 4116 
Q 875 4013 500 3803 
L 500 4441 
Q 881 4594 1212 4672 
Q 1544 4750 1819 4750 
Q 2544 4750 2975 4387 
Q 3406 4025 3406 3419 
Q 3406 3131 3298 2873 
Q 3191 2616 2906 2266 
Q 2828 2175 2409 1742 
Q 1991 1309 1228 531 
z
" transform="scale(0.015625)"/>
        <path id="DejaVuSans-35" d="M 691 4666 
L 3169 4666 
L 3169 4134 
L 1269 4134 
L 1269 2991 
Q 1406 3038 1543 3061 
Q 1681 3084 1819 3084 
Q 2600 3084 3056 2656 
Q 3513 2228 3513 1497 
Q 3513 744 3044 326 
Q 2575 -91 1722 -91 
Q 1428 -91 1123 -41 
Q 819 9 494 109 
L 494 744 
Q 775 591 1075 516 
Q 1375 441 1709 441 
Q 2250 441 2565 725 
Q 2881 1009 2881 1497 
Q 2881 1984 2565 2268 
Q 2250 2553 1709 2553 
Q 1456 2553 1204 2497 
Q 953 2441 691 2322 
L 691 4666 
z
" transform="scale(0.015625)"/>
       </defs>
       <use xlink:href="#DejaVuSans-32"/>
       <use xlink:href="#DejaVuSans-35" transform="translate(63.623047 0)"/>
       <use xlink:href="#DejaVuSans-30" transform="translate(127.246094 0)"/>
      </g>
     </g>
    </g>
    <g id="xtick_3">
     <g id="line2d_5">
      <path d="M 137.877682 288.430125 
L 137.877682 22.318125 
" clip-path="url(#p63b9a06528)" style="fill: none; stroke: #808080; stroke-width: 0.3; stroke-linecap: square"/>
     </g>
     <g id="line2d_6">
      <g>
       <use xlink:href="#ma99a2c625c" x="137.877682" y="288.430125" style="stroke: #000000; stroke-width: 0.8"/>
      </g>
     </g>
     <g id="text_3">
      <!-- 500 -->
      <g transform="translate(128.333932 303.028562) scale(0.1 -0.1)">
       <use xlink:href="#DejaVuSans-35"/>
       <use xlink:href="#DejaVuSans-30" transform="translate(63.623047 0)"/>
       <use xlink:href="#DejaVuSans-30" transform="translate(127.246094 0)"/>
      </g>
     </g>
    </g>
    <g id="xtick_4">
     <g id="line2d_7">
      <path d="M 178.479802 288.430125 
L 178.479802 22.318125 
" clip-path="url(#p63b9a06528)" style="fill: none; stroke: #808080; stroke-width: 0.3; stroke-linecap: square"/>
     </g>
     <g id="line2d_8">
      <g>
       <use xlink:href="#ma99a2c625c" x="178.479802" y="288.430125" style="stroke: #000000; stroke-width: 0.8"/>
      </g>
     </g>
     <g id="text_4">
      <!-- 750 -->
      <g transform="translate(168.936052 303.028562) scale(0.1 -0.1)">
       <defs>
        <path id="DejaVuSans-37" d="M 525 4666 
L 3525 4666 
L 3525 4397 
L 1831 0 
L 1172 0 
L 2766 4134 
L 525 4134 
L 525 4666 
z
" transform="scale(0.015625)"/>
       </defs>
       <use xlink:href="#DejaVuSans-37"/>
       <use xlink:href="#DejaVuSans-35" transform="translate(63.623047 0)"/>
       <use xlink:href="#DejaVuSans-30" transform="translate(127.246094 0)"/>
      </g>
     </g>
    </g>
    <g id="xtick_5">
     <g id="line2d_9">
      <path d="M 219.081921 288.430125 
L 219.081921 22.318125 
" clip-path="url(#p63b9a06528)" style="fill: none; stroke: #808080; stroke-width: 0.3; stroke-linecap: square"/>
     </g>
     <g id="line2d_10">
      <g>
       <use xlink:href="#ma99a2c625c" x="219.081921" y="288.430125" style="stroke: #000000; stroke-width: 0.8"/>
      </g>
     </g>
     <g id="text_5">
      <!-- 1000 -->
      <g transform="translate(206.356921 303.028562) scale(0.1 -0.1)">
       <defs>
        <path id="DejaVuSans-31" d="M 794 531 
L 1825 531 
L 1825 4091 
L 703 3866 
L 703 4441 
L 1819 4666 
L 2450 4666 
L 2450 531 
L 3481 531 
L 3481 0 
L 794 0 
L 794 531 
z
" transform="scale(0.015625)"/>
       </defs>
       <use xlink:href="#DejaVuSans-31"/>
       <use xlink:href="#DejaVuSans-30" transform="translate(63.623047 0)"/>
       <use xlink:href="#DejaVuSans-30" transform="translate(127.246094 0)"/>
       <use xlink:href="#DejaVuSans-30" transform="translate(190.869141 0)"/>
      </g>
     </g>
    </g>
    <g id="xtick_6">
     <g id="line2d_11">
      <path d="M 259.68404 288.430125 
L 259.68404 22.318125 
" clip-path="url(#p63b9a06528)" style="fill: none; stroke: #808080; stroke-width: 0.3; stroke-linecap: square"/>
     </g>
     <g id="line2d_12">
      <g>
       <use xlink:href="#ma99a2c625c" x="259.68404" y="288.430125" style="stroke: #000000; stroke-width: 0.8"/>
      </g>
     </g>
     <g id="text_6">
      <!-- 1250 -->
      <g transform="translate(246.95904 303.028562) scale(0.1 -0.1)">
       <use xlink:href="#DejaVuSans-31"/>
       <use xlink:href="#DejaVuSans-32" transform="translate(63.623047 0)"/>
       <use xlink:href="#DejaVuSans-35" transform="translate(127.246094 0)"/>
       <use xlink:href="#DejaVuSans-30" transform="translate(190.869141 0)"/>
      </g>
     </g>
    </g>
    <g id="xtick_7">
     <g id="line2d_13">
      <path d="M 300.286159 288.430125 
L 300.286159 22.318125 
" clip-path="url(#p63b9a06528)" style="fill: none; stroke: #808080; stroke-width: 0.3; stroke-linecap: square"/>
     </g>
     <g id="line2d_14">
      <g>
       <use xlink:href="#ma99a2c625c" x="300.286159" y="288.430125" style="stroke: #000000; stroke-width: 0.8"/>
      </g>
     </g>
     <g id="text_7">
      <!-- 1500 -->
      <g transform="translate(287.561159 303.028562) scale(0.1 -0.1)">
       <use xlink:href="#DejaVuSans-31"/>
       <use xlink:href="#DejaVuSans-35" transform="translate(63.623047 0)"/>
       <use xlink:href="#DejaVuSans-30" transform="translate(127.246094 0)"/>
       <use xlink:href="#DejaVuSans-30" transform="translate(190.869141 0)"/>
      </g>
     </g>
    </g>
    <g id="xtick_8">
     <g id="line2d_15">
      <path d="M 340.888278 288.430125 
L 340.888278 22.318125 
" clip-path="url(#p63b9a06528)" style="fill: none; stroke: #808080; stroke-width: 0.3; stroke-linecap: square"/>
     </g>
     <g id="line2d_16">
      <g>
       <use xlink:href="#ma99a2c625c" x="340.888278" y="288.430125" style="stroke: #000000; stroke-width: 0.8"/>
      </g>
     </g>
     <g id="text_8">
      <!-- 1750 -->
      <g transform="translate(328.163278 303.028562) scale(0.1 -0.1)">
       <use xlink:href="#DejaVuSans-31"/>
       <use xlink:href="#DejaVuSans-37" transform="translate(63.623047 0)"/>
       <use xlink:href="#DejaVuSans-35" transform="translate(127.246094 0)"/>
       <use xlink:href="#DejaVuSans-30" transform="translate(190.869141 0)"/>
      </g>
     </g>
    </g>
    <g id="xtick_9">
     <g id="line2d_17">
      <path d="M 381.490398 288.430125 
L 381.490398 22.318125 
" clip-path="url(#p63b9a06528)" style="fill: none; stroke: #808080; stroke-width: 0.3; stroke-linecap: square"/>
     </g>
     <g id="line2d_18">
      <g>
       <use xlink:href="#ma99a2c625c" x="381.490398" y="288.430125" style="stroke: #000000; stroke-width: 0.8"/>
      </g>
     </g>
     <g id="text_9">
      <!-- 2000 -->
      <g transform="translate(368.765398 303.028562) scale(0.1 -0.1)">
       <use xlink:href="#DejaVuSans-32"/>
       <use xlink:href="#DejaVuSans-30" transform="translate(63.623047 0)"/>
       <use xlink:href="#DejaVuSans-30" transform="translate(127.246094 0)"/>
       <use xlink:href="#DejaVuSans-30" transform="translate(190.869141 0)"/>
      </g>
     </g>
    </g>
    <g id="text_10">
     <!-- Wavenumber (cm$^{-1}$) -->
     <g transform="translate(167.113125 317.428562) scale(0.1 -0.1)">
      <defs>
       <path id="DejaVuSans-57" d="M 213 4666 
L 850 4666 
L 1831 722 
L 2809 4666 
L 3519 4666 
L 4500 722 
L 5478 4666 
L 6119 4666 
L 4947 0 
L 4153 0 
L 3169 4050 
L 2175 0 
L 1381 0 
L 213 4666 
z
" transform="scale(0.015625)"/>
       <path id="DejaVuSans-61" d="M 2194 1759 
Q 1497 1759 1228 1600 
Q 959 1441 959 1056 
Q 959 750 1161 570 
Q 1363 391 1709 391 
Q 2188 391 2477 730 
Q 2766 1069 2766 1631 
L 2766 1759 
L 2194 1759 
z
M 3341 1997 
L 3341 0 
L 2766 0 
L 2766 531 
Q 2569 213 2275 61 
Q 1981 -91 1556 -91 
Q 1019 -91 701 211 
Q 384 513 384 1019 
Q 384 1609 779 1909 
Q 1175 2209 1959 2209 
L 2766 2209 
L 2766 2266 
Q 2766 2663 2505 2880 
Q 2244 3097 1772 3097 
Q 1472 3097 1187 3025 
Q 903 2953 641 2809 
L 641 3341 
Q 956 3463 1253 3523 
Q 1550 3584 1831 3584 
Q 2591 3584 2966 3190 
Q 3341 2797 3341 1997 
z
" transform="scale(0.015625)"/>
       <path id="DejaVuSans-76" d="M 191 3500 
L 800 3500 
L 1894 563 
L 2988 3500 
L 3597 3500 
L 2284 0 
L 1503 0 
L 191 3500 
z
" transform="scale(0.015625)"/>
       <path id="DejaVuSans-65" d="M 3597 1894 
L 3597 1613 
L 953 1613 
Q 991 1019 1311 708 
Q 1631 397 2203 397 
Q 2534 397 2845 478 
Q 3156 559 3463 722 
L 3463 178 
Q 3153 47 2828 -22 
Q 2503 -91 2169 -91 
Q 1331 -91 842 396 
Q 353 884 353 1716 
Q 353 2575 817 3079 
Q 1281 3584 2069 3584 
Q 2775 3584 3186 3129 
Q 3597 2675 3597 1894 
z
M 3022 2063 
Q 3016 2534 2758 2815 
Q 2500 3097 2075 3097 
Q 1594 3097 1305 2825 
Q 1016 2553 972 2059 
L 3022 2063 
z
" transform="scale(0.015625)"/>
       <path id="DejaVuSans-6e" d="M 3513 2113 
L 3513 0 
L 2938 0 
L 2938 2094 
Q 2938 2591 2744 2837 
Q 2550 3084 2163 3084 
Q 1697 3084 1428 2787 
Q 1159 2491 1159 1978 
L 1159 0 
L 581 0 
L 581 3500 
L 1159 3500 
L 1159 2956 
Q 1366 3272 1645 3428 
Q 1925 3584 2291 3584 
Q 2894 3584 3203 3211 
Q 3513 2838 3513 2113 
z
" transform="scale(0.015625)"/>
       <path id="DejaVuSans-75" d="M 544 1381 
L 544 3500 
L 1119 3500 
L 1119 1403 
Q 1119 906 1312 657 
Q 1506 409 1894 409 
Q 2359 409 2629 706 
Q 2900 1003 2900 1516 
L 2900 3500 
L 3475 3500 
L 3475 0 
L 2900 0 
L 2900 538 
Q 2691 219 2414 64 
Q 2138 -91 1772 -91 
Q 1169 -91 856 284 
Q 544 659 544 1381 
z
M 1991 3584 
L 1991 3584 
z
" transform="scale(0.015625)"/>
       <path id="DejaVuSans-6d" d="M 3328 2828 
Q 3544 3216 3844 3400 
Q 4144 3584 4550 3584 
Q 5097 3584 5394 3201 
Q 5691 2819 5691 2113 
L 5691 0 
L 5113 0 
L 5113 2094 
Q 5113 2597 4934 2840 
Q 4756 3084 4391 3084 
Q 3944 3084 3684 2787 
Q 3425 2491 3425 1978 
L 3425 0 
L 2847 0 
L 2847 2094 
Q 2847 2600 2669 2842 
Q 2491 3084 2119 3084 
Q 1678 3084 1418 2786 
Q 1159 2488 1159 1978 
L 1159 0 
L 581 0 
L 581 3500 
L 1159 3500 
L 1159 2956 
Q 1356 3278 1631 3431 
Q 1906 3584 2284 3584 
Q 2666 3584 2933 3390 
Q 3200 3197 3328 2828 
z
" transform="scale(0.015625)"/>
       <path id="DejaVuSans-62" d="M 3116 1747 
Q 3116 2381 2855 2742 
Q 2594 3103 2138 3103 
Q 1681 3103 1420 2742 
Q 1159 2381 1159 1747 
Q 1159 1113 1420 752 
Q 1681 391 2138 391 
Q 2594 391 2855 752 
Q 3116 1113 3116 1747 
z
M 1159 2969 
Q 1341 3281 1617 3432 
Q 1894 3584 2278 3584 
Q 2916 3584 3314 3078 
Q 3713 2572 3713 1747 
Q 3713 922 3314 415 
Q 2916 -91 2278 -91 
Q 1894 -91 1617 61 
Q 1341 213 1159 525 
L 1159 0 
L 581 0 
L 581 4863 
L 1159 4863 
L 1159 2969 
z
" transform="scale(0.015625)"/>
       <path id="DejaVuSans-72" d="M 2631 2963 
Q 2534 3019 2420 3045 
Q 2306 3072 2169 3072 
Q 1681 3072 1420 2755 
Q 1159 2438 1159 1844 
L 1159 0 
L 581 0 
L 581 3500 
L 1159 3500 
L 1159 2956 
Q 1341 3275 1631 3429 
Q 1922 3584 2338 3584 
Q 2397 3584 2469 3576 
Q 2541 3569 2628 3553 
L 2631 2963 
z
" transform="scale(0.015625)"/>
       <path id="DejaVuSans-20" transform="scale(0.015625)"/>
       <path id="DejaVuSans-28" d="M 1984 4856 
Q 1566 4138 1362 3434 
Q 1159 2731 1159 2009 
Q 1159 1288 1364 580 
Q 1569 -128 1984 -844 
L 1484 -844 
Q 1016 -109 783 600 
Q 550 1309 550 2009 
Q 550 2706 781 3412 
Q 1013 4119 1484 4856 
L 1984 4856 
z
" transform="scale(0.015625)"/>
       <path id="DejaVuSans-63" d="M 3122 3366 
L 3122 2828 
Q 2878 2963 2633 3030 
Q 2388 3097 2138 3097 
Q 1578 3097 1268 2742 
Q 959 2388 959 1747 
Q 959 1106 1268 751 
Q 1578 397 2138 397 
Q 2388 397 2633 464 
Q 2878 531 3122 666 
L 3122 134 
Q 2881 22 2623 -34 
Q 2366 -91 2075 -91 
Q 1284 -91 818 406 
Q 353 903 353 1747 
Q 353 2603 823 3093 
Q 1294 3584 2113 3584 
Q 2378 3584 2631 3529 
Q 2884 3475 3122 3366 
z
" transform="scale(0.015625)"/>
       <path id="DejaVuSans-2212" d="M 678 2272 
L 4684 2272 
L 4684 1741 
L 678 1741 
L 678 2272 
z
" transform="scale(0.015625)"/>
       <path id="DejaVuSans-29" d="M 513 4856 
L 1013 4856 
Q 1481 4119 1714 3412 
Q 1947 2706 1947 2009 
Q 1947 1309 1714 600 
Q 1481 -109 1013 -844 
L 513 -844 
Q 928 -128 1133 580 
Q 1338 1288 1338 2009 
Q 1338 2731 1133 3434 
Q 928 4138 513 4856 
z
" transform="scale(0.015625)"/>
      </defs>
      <use xlink:href="#DejaVuSans-57" transform="translate(0 0.684375)"/>
      <use xlink:href="#DejaVuSans-61" transform="translate(98.876953 0.684375)"/>
      <use xlink:href="#DejaVuSans-76" transform="translate(160.15625 0.684375)"/>
      <use xlink:href="#DejaVuSans-65" transform="translate(219.335938 0.684375)"/>
      <use xlink:href="#DejaVuSans-6e" transform="translate(280.859375 0.684375)"/>
      <use xlink:href="#DejaVuSans-75" transform="translate(344.238281 0.684375)"/>
      <use xlink:href="#DejaVuSans-6d" transform="translate(407.617188 0.684375)"/>
      <use xlink:href="#DejaVuSans-62" transform="translate(505.029297 0.684375)"/>
      <use xlink:href="#DejaVuSans-65" transform="translate(568.505859 0.684375)"/>
      <use xlink:href="#DejaVuSans-72" transform="translate(630.029297 0.684375)"/>
      <use xlink:href="#DejaVuSans-20" transform="translate(671.142578 0.684375)"/>
      <use xlink:href="#DejaVuSans-28" transform="translate(702.929688 0.684375)"/>
      <use xlink:href="#DejaVuSans-63" transform="translate(741.943359 0.684375)"/>
      <use xlink:href="#DejaVuSans-6d" transform="translate(796.923828 0.684375)"/>
      <use xlink:href="#DejaVuSans-2212" transform="translate(895.292969 38.965625) scale(0.7)"/>
      <use xlink:href="#DejaVuSans-31" transform="translate(953.945312 38.965625) scale(0.7)"/>
      <use xlink:href="#DejaVuSans-29" transform="translate(1001.21582 0.684375)"/>
     </g>
    </g>
   </g>
   <g id="matplotlib.axis_2">
    <g id="ytick_1">
     <g id="line2d_19">
      <path d="M 40.603125 276.334125 
L 397.723125 276.334125 
" clip-path="url(#p63b9a06528)" style="fill: none; stroke: #808080; stroke-width: 0.3; stroke-linecap: square"/>
     </g>
     <g id="line2d_20">
      <defs>
       <path id="mb8749b83f6" d="M 0 0 
L -3.5 0 
" style="stroke: #000000; stroke-width: 0.8"/>
      </defs>
      <g>
       <use xlink:href="#mb8749b83f6" x="40.603125" y="276.334125" style="stroke: #000000; stroke-width: 0.8"/>
      </g>
     </g>
     <g id="text_11">
      <!-- 0 -->
      <g transform="translate(27.240625 280.133344) scale(0.1 -0.1)">
       <use xlink:href="#DejaVuSans-30"/>
      </g>
     </g>
    </g>
    <g id="ytick_2">
     <g id="line2d_21">
      <path d="M 40.603125 225.739523 
L 397.723125 225.739523 
" clip-path="url(#p63b9a06528)" style="fill: none; stroke: #808080; stroke-width: 0.3; stroke-linecap: square"/>
     </g>
     <g id="line2d_22">
      <g>
       <use xlink:href="#mb8749b83f6" x="40.603125" y="225.739523" style="stroke: #000000; stroke-width: 0.8"/>
      </g>
     </g>
     <g id="text_12">
      <!-- 10 -->
      <g transform="translate(20.878125 229.538742) scale(0.1 -0.1)">
       <use xlink:href="#DejaVuSans-31"/>
       <use xlink:href="#DejaVuSans-30" transform="translate(63.623047 0)"/>
      </g>
     </g>
    </g>
    <g id="ytick_3">
     <g id="line2d_23">
      <path d="M 40.603125 175.144921 
L 397.723125 175.144921 
" clip-path="url(#p63b9a06528)" style="fill: none; stroke: #808080; stroke-width: 0.3; stroke-linecap: square"/>
     </g>
     <g id="line2d_24">
      <g>
       <use xlink:href="#mb8749b83f6" x="40.603125" y="175.144921" style="stroke: #000000; stroke-width: 0.8"/>
      </g>
     </g>
     <g id="text_13">
      <!-- 20 -->
      <g transform="translate(20.878125 178.94414) scale(0.1 -0.1)">
       <use xlink:href="#DejaVuSans-32"/>
       <use xlink:href="#DejaVuSans-30" transform="translate(63.623047 0)"/>
      </g>
     </g>
    </g>
    <g id="ytick_4">
     <g id="line2d_25">
      <path d="M 40.603125 124.550319 
L 397.723125 124.550319 
" clip-path="url(#p63b9a06528)" style="fill: none; stroke: #808080; stroke-width: 0.3; stroke-linecap: square"/>
     </g>
     <g id="line2d_26">
      <g>
       <use xlink:href="#mb8749b83f6" x="40.603125" y="124.550319" style="stroke: #000000; stroke-width: 0.8"/>
      </g>
     </g>
     <g id="text_14">
      <!-- 30 -->
      <g transform="translate(20.878125 128.349538) scale(0.1 -0.1)">
       <defs>
        <path id="DejaVuSans-33" d="M 2597 2516 
Q 3050 2419 3304 2112 
Q 3559 1806 3559 1356 
Q 3559 666 3084 287 
Q 2609 -91 1734 -91 
Q 1441 -91 1130 -33 
Q 819 25 488 141 
L 488 750 
Q 750 597 1062 519 
Q 1375 441 1716 441 
Q 2309 441 2620 675 
Q 2931 909 2931 1356 
Q 2931 1769 2642 2001 
Q 2353 2234 1838 2234 
L 1294 2234 
L 1294 2753 
L 1863 2753 
Q 2328 2753 2575 2939 
Q 2822 3125 2822 3475 
Q 2822 3834 2567 4026 
Q 2313 4219 1838 4219 
Q 1578 4219 1281 4162 
Q 984 4106 628 3988 
L 628 4550 
Q 988 4650 1302 4700 
Q 1616 4750 1894 4750 
Q 2613 4750 3031 4423 
Q 3450 4097 3450 3541 
Q 3450 3153 3228 2886 
Q 3006 2619 2597 2516 
z
" transform="scale(0.015625)"/>
       </defs>
       <use xlink:href="#DejaVuSans-33"/>
       <use xlink:href="#DejaVuSans-30" transform="translate(63.623047 0)"/>
      </g>
     </g>
    </g>
    <g id="ytick_5">
     <g id="line2d_27">
      <path d="M 40.603125 73.955718 
L 397.723125 73.955718 
" clip-path="url(#p63b9a06528)" style="fill: none; stroke: #808080; stroke-width: 0.3; stroke-linecap: square"/>
     </g>
     <g id="line2d_28">
      <g>
       <use xlink:href="#mb8749b83f6" x="40.603125" y="73.955718" style="stroke: #000000; stroke-width: 0.8"/>
      </g>
     </g>
     <g id="text_15">
      <!-- 40 -->
      <g transform="translate(20.878125 77.754936) scale(0.1 -0.1)">
       <defs>
        <path id="DejaVuSans-34" d="M 2419 4116 
L 825 1625 
L 2419 1625 
L 2419 4116 
z
M 2253 4666 
L 3047 4666 
L 3047 1625 
L 3713 1625 
L 3713 1100 
L 3047 1100 
L 3047 0 
L 2419 0 
L 2419 1100 
L 313 1100 
L 313 1709 
L 2253 4666 
z
" transform="scale(0.015625)"/>
       </defs>
       <use xlink:href="#DejaVuSans-34"/>
       <use xlink:href="#DejaVuSans-30" transform="translate(63.623047 0)"/>
      </g>
     </g>
    </g>
    <g id="ytick_6">
     <g id="line2d_29">
      <path d="M 40.603125 23.361116 
L 397.723125 23.361116 
" clip-path="url(#p63b9a06528)" style="fill: none; stroke: #808080; stroke-width: 0.3; stroke-linecap: square"/>
     </g>
     <g id="line2d_30">
      <g>
       <use xlink:href="#mb8749b83f6" x="40.603125" y="23.361116" style="stroke: #000000; stroke-width: 0.8"/>
      </g>
     </g>
     <g id="text_16">
      <!-- 50 -->
      <g transform="translate(20.878125 27.160334) scale(0.1 -0.1)">
       <use xlink:href="#DejaVuSans-35"/>
       <use xlink:href="#DejaVuSans-30" transform="translate(63.623047 0)"/>
      </g>
     </g>
    </g>
    <g id="text_17">
     <!-- Height (km) -->
     <g transform="translate(14.798438 185.159281) rotate(-90) scale(0.1 -0.1)">
      <defs>
       <path id="DejaVuSans-48" d="M 628 4666 
L 1259 4666 
L 1259 2753 
L 3553 2753 
L 3553 4666 
L 4184 4666 
L 4184 0 
L 3553 0 
L 3553 2222 
L 1259 2222 
L 1259 0 
L 628 0 
L 628 4666 
z
" transform="scale(0.015625)"/>
       <path id="DejaVuSans-69" d="M 603 3500 
L 1178 3500 
L 1178 0 
L 603 0 
L 603 3500 
z
M 603 4863 
L 1178 4863 
L 1178 4134 
L 603 4134 
L 603 4863 
z
" transform="scale(0.015625)"/>
       <path id="DejaVuSans-67" d="M 2906 1791 
Q 2906 2416 2648 2759 
Q 2391 3103 1925 3103 
Q 1463 3103 1205 2759 
Q 947 2416 947 1791 
Q 947 1169 1205 825 
Q 1463 481 1925 481 
Q 2391 481 2648 825 
Q 2906 1169 2906 1791 
z
M 3481 434 
Q 3481 -459 3084 -895 
Q 2688 -1331 1869 -1331 
Q 1566 -1331 1297 -1286 
Q 1028 -1241 775 -1147 
L 775 -588 
Q 1028 -725 1275 -790 
Q 1522 -856 1778 -856 
Q 2344 -856 2625 -561 
Q 2906 -266 2906 331 
L 2906 616 
Q 2728 306 2450 153 
Q 2172 0 1784 0 
Q 1141 0 747 490 
Q 353 981 353 1791 
Q 353 2603 747 3093 
Q 1141 3584 1784 3584 
Q 2172 3584 2450 3431 
Q 2728 3278 2906 2969 
L 2906 3500 
L 3481 3500 
L 3481 434 
z
" transform="scale(0.015625)"/>
       <path id="DejaVuSans-68" d="M 3513 2113 
L 3513 0 
L 2938 0 
L 2938 2094 
Q 2938 2591 2744 2837 
Q 2550 3084 2163 3084 
Q 1697 3084 1428 2787 
Q 1159 2491 1159 1978 
L 1159 0 
L 581 0 
L 581 4863 
L 1159 4863 
L 1159 2956 
Q 1366 3272 1645 3428 
Q 1925 3584 2291 3584 
Q 2894 3584 3203 3211 
Q 3513 2838 3513 2113 
z
" transform="scale(0.015625)"/>
       <path id="DejaVuSans-74" d="M 1172 4494 
L 1172 3500 
L 2356 3500 
L 2356 3053 
L 1172 3053 
L 1172 1153 
Q 1172 725 1289 603 
Q 1406 481 1766 481 
L 2356 481 
L 2356 0 
L 1766 0 
Q 1100 0 847 248 
Q 594 497 594 1153 
L 594 3053 
L 172 3053 
L 172 3500 
L 594 3500 
L 594 4494 
L 1172 4494 
z
" transform="scale(0.015625)"/>
       <path id="DejaVuSans-6b" d="M 581 4863 
L 1159 4863 
L 1159 1991 
L 2875 3500 
L 3609 3500 
L 1753 1863 
L 3688 0 
L 2938 0 
L 1159 1709 
L 1159 0 
L 581 0 
L 581 4863 
z
" transform="scale(0.015625)"/>
      </defs>
      <use xlink:href="#DejaVuSans-48"/>
      <use xlink:href="#DejaVuSans-65" transform="translate(75.195312 0)"/>
      <use xlink:href="#DejaVuSans-69" transform="translate(136.71875 0)"/>
      <use xlink:href="#DejaVuSans-67" transform="translate(164.501953 0)"/>
      <use xlink:href="#DejaVuSans-68" transform="translate(227.978516 0)"/>
      <use xlink:href="#DejaVuSans-74" transform="translate(291.357422 0)"/>
      <use xlink:href="#DejaVuSans-20" transform="translate(330.566406 0)"/>
      <use xlink:href="#DejaVuSans-28" transform="translate(362.353516 0)"/>
      <use xlink:href="#DejaVuSans-6b" transform="translate(401.367188 0)"/>
      <use xlink:href="#DejaVuSans-6d" transform="translate(459.277344 0)"/>
      <use xlink:href="#DejaVuSans-29" transform="translate(556.689453 0)"/>
     </g>
    </g>
   </g>
   <g id="line2d_31">
    <path d="M 56.835852 276.334125 
L 57.269303 276.334125 
L 57.702754 256.351238 
L 58.136204 276.334125 
L 58.569655 256.351238 
L 59.003106 248.306708 
L 59.436556 235.591916 
L 59.870007 230.748465 
L 60.303458 240.573919 
L 60.736908 187.903827 
L 61.170359 240.573919 
L 61.60381 233.152871 
L 62.03726 196.855329 
L 62.470711 226.043567 
L 62.904162 205.806832 
L 63.337612 172.233883 
L 63.771063 230.748465 
L 64.204514 226.043567 
L 64.637964 233.152871 
L 65.071415 230.748465 
L 65.504866 221.477221 
L 65.938316 190.141702 
L 66.371767 219.234085 
L 66.805217 190.141702 
L 67.238668 223.743075 
L 67.672119 221.477221 
L 68.105569 226.043567 
L 68.53902 201.33108 
L 68.972471 199.093205 
L 69.405921 219.234085 
L 69.839372 221.477221 
L 70.272823 226.043567 
L 70.706273 221.477221 
L 71.139724 214.758334 
L 71.573175 212.520459 
L 72.006625 221.477221 
L 72.440076 223.743075 
L 72.873527 199.093205 
L 73.306977 221.477221 
L 73.740428 212.520459 
L 74.173879 133.403756 
L 74.607329 219.234085 
L 75.04078 226.043567 
L 75.474231 228.378697 
L 75.907681 223.743075 
L 76.341132 216.99621 
L 76.774583 221.477221 
L 77.208033 203.568956 
L 77.641484 221.477221 
L 78.074935 183.428075 
L 78.508385 221.477221 
L 78.941836 226.043567 
L 79.375287 276.334125 
L 79.808737 226.043567 
L 80.242188 226.043567 
L 80.675639 219.234085 
L 81.109089 124.070019 
L 81.54254 203.568956 
L 81.975991 223.743075 
L 82.409441 219.234085 
L 82.842892 228.378697 
L 83.276343 230.748465 
L 83.709793 216.99621 
L 84.143244 219.234085 
L 84.576695 219.234085 
L 85.010145 221.477221 
L 85.443596 208.044707 
L 85.877047 226.043567 
L 86.310497 226.043567 
L 86.743948 230.748465 
L 87.177399 214.758334 
L 87.610849 228.378697 
L 88.0443 223.743075 
L 88.477751 187.903827 
L 88.911201 226.043567 
L 89.344652 219.234085 
L 89.778103 214.758334 
L 90.211553 223.743075 
L 90.645004 216.99621 
L 91.078455 226.043567 
L 91.511905 210.282583 
L 91.945356 230.748465 
L 92.378807 228.378697 
L 92.812257 221.477221 
L 93.245708 223.743075 
L 93.679158 119.374974 
L 94.112609 226.043567 
L 94.54606 223.743075 
L 94.97951 233.152871 
L 95.412961 235.591916 
L 95.846412 233.152871 
L 96.713313 219.234085 
L 97.146764 223.743075 
L 97.580214 226.043567 
L 98.013665 214.758334 
L 98.447116 228.378697 
L 98.880566 233.152871 
L 99.314017 235.591916 
L 99.747468 228.378697 
L 100.180918 230.748465 
L 100.614369 235.591916 
L 101.04782 233.152871 
L 101.48127 219.234085 
L 101.914721 172.233883 
L 102.348172 221.477221 
L 102.781622 228.378697 
L 103.215073 233.152871 
L 103.648524 212.520459 
L 104.081974 233.152871 
L 104.515425 235.591916 
L 104.948876 235.591916 
L 105.382326 233.152871 
L 105.815777 219.234085 
L 106.249228 230.748465 
L 106.682678 238.065598 
L 107.116129 238.065598 
L 107.98303 233.152871 
L 108.416481 238.065598 
L 108.849932 230.748465 
L 109.283382 121.724845 
L 109.716833 228.378697 
L 110.583734 238.065598 
L 111.017185 140.35475 
L 111.450636 235.591916 
L 111.884086 233.152871 
L 112.750988 238.065598 
L 113.184438 238.065598 
L 113.617889 230.748465 
L 114.05134 230.748465 
L 114.48479 233.152871 
L 114.918241 226.043567 
L 115.351692 240.573919 
L 115.785142 243.116877 
L 116.218593 243.116877 
L 116.652044 226.043567 
L 117.085494 240.573919 
L 117.518945 223.743075 
L 117.952396 238.065598 
L 118.385846 245.694474 
L 118.819297 240.573919 
L 119.252748 223.743075 
L 119.686198 243.116877 
L 120.119649 245.694474 
L 120.5531 240.573919 
L 120.98655 230.748465 
L 121.420001 230.748465 
L 121.853451 243.116877 
L 122.720353 248.306708 
L 123.587254 248.306708 
L 124.020705 235.591916 
L 124.454155 235.591916 
L 124.887606 219.234085 
L 125.321057 235.591916 
L 125.754507 223.743075 
L 126.187958 248.306708 
L 126.621409 240.573919 
L 127.054859 248.306708 
L 127.48831 243.116877 
L 127.921761 248.306708 
L 128.355211 235.591916 
L 128.788662 240.573919 
L 129.222113 240.573919 
L 129.655563 248.306708 
L 130.089014 245.694474 
L 130.522465 245.694474 
L 130.955915 230.748465 
L 131.389366 245.694474 
L 132.256267 250.95358 
L 132.689718 240.573919 
L 133.123169 245.694474 
L 133.556619 238.065598 
L 133.99007 248.306708 
L 134.423521 250.95358 
L 134.856971 248.306708 
L 135.290422 221.477221 
L 135.723873 250.95358 
L 136.157323 250.95358 
L 136.590774 212.520459 
L 137.024225 250.95358 
L 137.457675 253.63509 
L 137.891126 250.95358 
L 138.324577 240.573919 
L 138.758027 248.306708 
L 139.191478 245.694474 
L 139.624929 245.694474 
L 140.058379 250.95358 
L 140.49183 245.694474 
L 140.925281 245.694474 
L 141.358731 250.95358 
L 141.792182 248.306708 
L 142.225633 243.116877 
L 142.659083 250.95358 
L 143.092534 253.63509 
L 143.525985 250.95358 
L 143.959435 253.63509 
L 144.826337 253.63509 
L 145.259787 235.591916 
L 145.693238 245.694474 
L 146.126689 250.95358 
L 146.560139 253.63509 
L 146.99359 253.63509 
L 147.427041 250.95358 
L 147.860491 253.63509 
L 148.293942 250.95358 
L 148.727393 243.116877 
L 149.160843 238.065598 
L 149.594294 253.63509 
L 150.027744 250.95358 
L 150.461195 250.95358 
L 150.894646 245.694474 
L 151.328096 253.63509 
L 151.761547 250.95358 
L 152.194998 253.63509 
L 152.628448 248.306708 
L 153.061899 245.694474 
L 153.9288 250.95358 
L 154.362251 214.758334 
L 154.795702 243.116877 
L 155.229152 250.95358 
L 155.662603 221.477221 
L 156.096054 248.306708 
L 156.529504 235.591916 
L 156.962955 185.665951 
L 157.396406 248.306708 
L 158.263307 226.043567 
L 158.696758 235.591916 
L 159.130208 201.33108 
L 160.43056 214.758334 
L 161.297462 169.987326 
L 161.730912 194.617453 
L 162.164363 92.81496 
L 162.597814 169.987326 
L 163.031264 144.965265 
L 163.464715 185.665951 
L 163.898166 176.714448 
L 164.331616 151.845817 
L 164.765067 176.714448 
L 165.198518 34.414125 
L 165.631968 59.155655 
L 166.065419 183.428075 
L 166.93232 112.29251 
L 167.365771 187.903827 
L 167.799222 172.233883 
L 168.232672 174.475743 
L 168.666123 201.33108 
L 169.099574 185.665951 
L 169.533024 199.093205 
L 169.966475 221.477221 
L 170.399926 205.806832 
L 170.833376 228.378697 
L 171.266827 235.591916 
L 171.700278 196.855329 
L 172.133728 243.116877 
L 172.567179 228.378697 
L 173.00063 245.694474 
L 173.43408 216.99621 
L 173.867531 238.065598 
L 174.300982 250.95358 
L 174.734432 223.743075 
L 175.167883 250.95358 
L 175.601334 250.95358 
L 176.034784 245.694474 
L 176.468235 238.065598 
L 176.901686 250.95358 
L 177.335136 253.63509 
L 177.768587 250.95358 
L 178.202037 233.152871 
L 178.635488 256.351238 
L 180.369291 256.351238 
L 180.802741 259.102023 
L 185.570699 259.102023 
L 186.004149 256.351238 
L 186.4376 256.351238 
L 186.871051 259.102023 
L 194.239712 259.102023 
L 194.673163 256.351238 
L 195.106613 250.95358 
L 195.540064 259.102023 
L 197.273867 259.102023 
L 197.707317 261.887446 
L 198.140768 259.102023 
L 198.574219 261.887446 
L 200.308021 261.887446 
L 200.741472 259.102023 
L 201.174923 261.887446 
L 210.277386 261.887446 
L 210.710837 259.102023 
L 211.144288 261.887446 
L 221.547104 261.887446 
L 221.980554 256.351238 
L 222.414005 261.887446 
L 238.88513 261.887446 
L 239.318581 264.707507 
L 239.752031 264.707507 
L 240.185482 261.887446 
L 240.618933 261.887446 
L 241.052383 259.102023 
L 241.919285 264.707507 
L 242.786186 264.707507 
L 243.219637 261.887446 
L 243.653087 261.887446 
L 244.086538 264.707507 
L 245.38689 264.707507 
L 245.820341 261.887446 
L 246.253791 264.707507 
L 246.687242 261.887446 
L 247.120693 261.887446 
L 247.554143 259.102023 
L 247.987594 264.707507 
L 248.421045 261.887446 
L 248.854495 264.707507 
L 249.287946 261.887446 
L 250.154847 261.887446 
L 250.588298 264.707507 
L 251.021749 261.887446 
L 251.455199 261.887446 
L 251.88865 264.707507 
L 252.322101 264.707507 
L 252.755551 261.887446 
L 253.189002 261.887446 
L 253.622453 256.351238 
L 254.055903 261.887446 
L 254.489354 259.102023 
L 254.922805 261.887446 
L 255.356255 261.887446 
L 255.789706 259.102023 
L 256.223157 264.707507 
L 257.090058 264.707507 
L 257.956959 259.102023 
L 258.39041 261.887446 
L 258.823861 256.351238 
L 259.257311 261.887446 
L 260.991114 261.887446 
L 261.424564 245.694474 
L 261.858015 261.887446 
L 262.291466 238.065598 
L 262.724916 250.95358 
L 263.158367 245.694474 
L 263.591818 259.102023 
L 264.025268 261.887446 
L 264.458719 261.887446 
L 264.89217 259.102023 
L 265.32562 259.102023 
L 265.759071 228.378697 
L 266.192522 259.102023 
L 266.625972 259.102023 
L 267.059423 261.887446 
L 267.492874 259.102023 
L 267.926324 261.887446 
L 268.359775 261.887446 
L 268.793226 259.102023 
L 269.226676 253.63509 
L 269.660127 256.351238 
L 270.093578 248.306708 
L 270.527028 238.065598 
L 270.960479 238.065598 
L 271.39393 256.351238 
L 271.82738 248.306708 
L 272.260831 259.102023 
L 272.694282 245.694474 
L 273.561183 240.573919 
L 273.994634 240.573919 
L 274.428084 235.591916 
L 274.861535 250.95358 
L 275.294986 256.351238 
L 275.728436 243.116877 
L 276.161887 253.63509 
L 276.595338 248.306708 
L 277.028788 248.306708 
L 277.462239 250.95358 
L 277.89569 238.065598 
L 278.32914 248.306708 
L 279.196042 248.306708 
L 280.062943 233.152871 
L 280.496394 240.573919 
L 280.929844 250.95358 
L 281.363295 245.694474 
L 281.796746 238.065598 
L 282.230196 243.116877 
L 282.663647 245.694474 
L 283.097098 228.378697 
L 283.530548 238.065598 
L 283.963999 226.043567 
L 284.39745 245.694474 
L 284.8309 223.743075 
L 285.264351 248.306708 
L 285.697802 240.573919 
L 286.131252 245.694474 
L 286.564703 243.116877 
L 286.998154 233.152871 
L 287.431604 235.591916 
L 287.865055 226.043567 
L 288.298506 243.116877 
L 288.731956 238.065598 
L 289.598857 238.065598 
L 290.032308 178.952324 
L 290.465759 240.573919 
L 290.899209 245.694474 
L 291.33266 243.116877 
L 291.766111 228.378697 
L 292.199561 240.573919 
L 292.633012 238.065598 
L 293.066463 228.378697 
L 293.499913 190.141702 
L 293.933364 235.591916 
L 294.366815 233.152871 
L 294.800265 233.152871 
L 295.233716 238.065598 
L 295.667167 221.477221 
L 296.100617 228.378697 
L 296.534068 233.152871 
L 296.967519 243.116877 
L 297.83442 238.065598 
L 298.267871 221.477221 
L 298.701321 226.043567 
L 299.134772 235.591916 
L 299.568223 226.043567 
L 300.001673 226.043567 
L 300.435124 233.152871 
L 300.868575 233.152871 
L 301.302025 221.477221 
L 302.168927 230.748465 
L 302.602377 233.152871 
L 303.035828 223.743075 
L 303.469279 228.378697 
L 303.902729 223.743075 
L 304.769631 228.378697 
L 305.203081 235.591916 
L 305.636532 221.477221 
L 306.069983 230.748465 
L 306.503433 156.409371 
L 306.936884 221.477221 
L 307.370335 221.477221 
L 307.803785 233.152871 
L 308.670687 233.152871 
L 309.104137 183.428075 
L 309.537588 223.743075 
L 309.971039 190.141702 
L 310.404489 230.748465 
L 310.83794 208.044707 
L 311.271391 233.152871 
L 311.704841 223.743075 
L 312.138292 223.743075 
L 312.571743 219.234085 
L 313.005193 226.043567 
L 313.438644 240.573919 
L 314.305545 245.694474 
L 314.738996 245.694474 
L 315.172447 214.758334 
L 316.039348 243.116877 
L 316.472799 245.694474 
L 316.906249 240.573919 
L 317.3397 243.116877 
L 317.77315 235.591916 
L 318.206601 238.065598 
L 318.640052 235.591916 
L 319.073502 226.043567 
L 319.506953 228.378697 
L 319.940404 233.152871 
L 320.373854 201.33108 
L 320.807305 235.591916 
L 321.240756 226.043567 
L 321.674206 235.591916 
L 322.107657 223.743075 
L 322.541108 226.043567 
L 322.974558 235.591916 
L 323.408009 216.99621 
L 323.84146 228.378697 
L 324.27491 221.477221 
L 324.708361 228.378697 
L 325.141812 196.855329 
L 325.575262 228.378697 
L 326.008713 235.591916 
L 326.442164 233.152871 
L 326.875614 228.378697 
L 327.309065 235.591916 
L 327.742516 214.758334 
L 328.609417 228.378697 
L 329.042868 233.152871 
L 329.476318 221.477221 
L 329.909769 228.378697 
L 330.34322 203.568956 
L 330.77667 230.748465 
L 331.210121 226.043567 
L 331.643572 233.152871 
L 332.077022 201.33108 
L 332.510473 228.378697 
L 332.943924 210.282583 
L 333.377374 230.748465 
L 333.810825 190.141702 
L 334.244276 238.065598 
L 334.677726 238.065598 
L 335.544628 219.234085 
L 335.978078 230.748465 
L 336.411529 238.065598 
L 336.84498 240.573919 
L 337.27843 240.573919 
L 337.711881 226.043567 
L 338.145332 221.477221 
L 338.578782 228.378697 
L 339.012233 233.152871 
L 339.445684 233.152871 
L 339.879134 228.378697 
L 340.312585 233.152871 
L 340.746036 228.378697 
L 341.179486 228.378697 
L 341.612937 240.573919 
L 342.046388 228.378697 
L 342.479838 238.065598 
L 342.913289 230.748465 
L 343.34674 240.573919 
L 343.78019 230.748465 
L 344.213641 230.748465 
L 344.647092 221.477221 
L 345.080542 226.043567 
L 345.513993 238.065598 
L 345.947443 230.748465 
L 346.380894 228.378697 
L 346.814345 245.694474 
L 347.247795 240.573919 
L 347.681246 228.378697 
L 348.114697 235.591916 
L 348.548147 240.573919 
L 348.981598 223.743075 
L 349.415049 216.99621 
L 349.848499 221.477221 
L 350.28195 233.152871 
L 350.715401 221.477221 
L 351.148851 245.694474 
L 351.582302 250.95358 
L 352.015753 250.95358 
L 352.449203 248.306708 
L 352.882654 240.573919 
L 353.316105 238.065598 
L 353.749555 212.520459 
L 354.183006 240.573919 
L 354.616457 243.116877 
L 355.049907 205.806832 
L 355.483358 245.694474 
L 356.350259 230.748465 
L 356.78371 226.043567 
L 357.217161 250.95358 
L 357.650611 253.63509 
L 358.084062 253.63509 
L 358.517513 226.043567 
L 358.950963 250.95358 
L 359.384414 250.95358 
L 359.817865 228.378697 
L 360.251315 219.234085 
L 360.684766 245.694474 
L 361.118217 253.63509 
L 361.551667 256.351238 
L 361.985118 250.95358 
L 362.418569 256.351238 
L 362.852019 240.573919 
L 363.28547 245.694474 
L 363.718921 240.573919 
L 364.152371 250.95358 
L 364.585822 243.116877 
L 365.019273 256.351238 
L 365.452723 256.351238 
L 365.886174 248.306708 
L 366.319625 250.95358 
L 366.753075 243.116877 
L 367.186526 250.95358 
L 367.619977 243.116877 
L 368.053427 238.065598 
L 368.486878 245.694474 
L 368.920329 235.591916 
L 369.353779 253.63509 
L 370.220681 259.102023 
L 370.654131 240.573919 
L 371.087582 261.887446 
L 371.521033 256.351238 
L 371.954483 245.694474 
L 372.387934 245.694474 
L 372.821384 238.065598 
L 373.254835 245.694474 
L 373.688286 261.887446 
L 374.121736 248.306708 
L 374.555187 259.102023 
L 375.422088 259.102023 
L 375.855539 253.63509 
L 376.28899 243.116877 
L 376.72244 261.887446 
L 377.155891 264.707507 
L 377.589342 253.63509 
L 378.022792 264.707507 
L 378.456243 256.351238 
L 378.889694 264.707507 
L 379.323144 256.351238 
L 379.756595 253.63509 
L 380.190046 228.378697 
L 380.623496 259.102023 
L 381.056947 261.887446 
L 381.490398 256.351238 
L 381.490398 256.351238 
" clip-path="url(#p63b9a06528)" style="fill: none; stroke: #1f77b4; stroke-width: 0.7; stroke-linecap: square"/>
   </g>
   <g id="patch_3">
    <path d="M 40.603125 288.430125 
L 40.603125 22.318125 
" style="fill: none; stroke: #000000; stroke-width: 0.8; stroke-linejoin: miter; stroke-linecap: square"/>
   </g>
   <g id="patch_4">
    <path d="M 397.723125 288.430125 
L 397.723125 22.318125 
" style="fill: none; stroke: #000000; stroke-width: 0.8; stroke-linejoin: miter; stroke-linecap: square"/>
   </g>
   <g id="patch_5">
    <path d="M 40.603125 288.430125 
L 397.723125 288.430125 
" style="fill: none; stroke: #000000; stroke-width: 0.8; stroke-linejoin: miter; stroke-linecap: square"/>
   </g>
   <g id="patch_6">
    <path d="M 40.603125 22.318125 
L 397.723125 22.318125 
" style="fill: none; stroke: #000000; stroke-width: 0.8; stroke-linejoin: miter; stroke-linecap: square"/>
   </g>
   <g id="text_18">
    <!-- Emission height at τ = 1 for (H2O_CO2) -->
    <g transform="translate(99.794063 16.318125) scale(0.12 -0.12)">
     <defs>
      <path id="DejaVuSans-45" d="M 628 4666 
L 3578 4666 
L 3578 4134 
L 1259 4134 
L 1259 2753 
L 3481 2753 
L 3481 2222 
L 1259 2222 
L 1259 531 
L 3634 531 
L 3634 0 
L 628 0 
L 628 4666 
z
" transform="scale(0.015625)"/>
      <path id="DejaVuSans-73" d="M 2834 3397 
L 2834 2853 
Q 2591 2978 2328 3040 
Q 2066 3103 1784 3103 
Q 1356 3103 1142 2972 
Q 928 2841 928 2578 
Q 928 2378 1081 2264 
Q 1234 2150 1697 2047 
L 1894 2003 
Q 2506 1872 2764 1633 
Q 3022 1394 3022 966 
Q 3022 478 2636 193 
Q 2250 -91 1575 -91 
Q 1294 -91 989 -36 
Q 684 19 347 128 
L 347 722 
Q 666 556 975 473 
Q 1284 391 1588 391 
Q 1994 391 2212 530 
Q 2431 669 2431 922 
Q 2431 1156 2273 1281 
Q 2116 1406 1581 1522 
L 1381 1569 
Q 847 1681 609 1914 
Q 372 2147 372 2553 
Q 372 3047 722 3315 
Q 1072 3584 1716 3584 
Q 2034 3584 2315 3537 
Q 2597 3491 2834 3397 
z
" transform="scale(0.015625)"/>
      <path id="DejaVuSans-6f" d="M 1959 3097 
Q 1497 3097 1228 2736 
Q 959 2375 959 1747 
Q 959 1119 1226 758 
Q 1494 397 1959 397 
Q 2419 397 2687 759 
Q 2956 1122 2956 1747 
Q 2956 2369 2687 2733 
Q 2419 3097 1959 3097 
z
M 1959 3584 
Q 2709 3584 3137 3096 
Q 3566 2609 3566 1747 
Q 3566 888 3137 398 
Q 2709 -91 1959 -91 
Q 1206 -91 779 398 
Q 353 888 353 1747 
Q 353 2609 779 3096 
Q 1206 3584 1959 3584 
z
" transform="scale(0.015625)"/>
      <path id="DejaVuSans-3c4" d="M 2319 638 
Q 2431 488 2769 488 
L 3047 488 
L 3047 0 
L 2700 0 
Q 2138 0 1881 300 
Q 1625 606 1625 1269 
L 1625 2925 
L 313 2925 
L 313 3500 
L 3541 3500 
L 3541 2925 
L 2213 2925 
L 2213 1234 
Q 2213 781 2319 638 
z
" transform="scale(0.015625)"/>
      <path id="DejaVuSans-3d" d="M 678 2906 
L 4684 2906 
L 4684 2381 
L 678 2381 
L 678 2906 
z
M 678 1631 
L 4684 1631 
L 4684 1100 
L 678 1100 
L 678 1631 
z
" transform="scale(0.015625)"/>
      <path id="DejaVuSans-66" d="M 2375 4863 
L 2375 4384 
L 1825 4384 
Q 1516 4384 1395 4259 
Q 1275 4134 1275 3809 
L 1275 3500 
L 2222 3500 
L 2222 3053 
L 1275 3053 
L 1275 0 
L 697 0 
L 697 3053 
L 147 3053 
L 147 3500 
L 697 3500 
L 697 3744 
Q 697 4328 969 4595 
Q 1241 4863 1831 4863 
L 2375 4863 
z
" transform="scale(0.015625)"/>
      <path id="DejaVuSans-4f" d="M 2522 4238 
Q 1834 4238 1429 3725 
Q 1025 3213 1025 2328 
Q 1025 1447 1429 934 
Q 1834 422 2522 422 
Q 3209 422 3611 934 
Q 4013 1447 4013 2328 
Q 4013 3213 3611 3725 
Q 3209 4238 2522 4238 
z
M 2522 4750 
Q 3503 4750 4090 4092 
Q 4678 3434 4678 2328 
Q 4678 1225 4090 567 
Q 3503 -91 2522 -91 
Q 1538 -91 948 565 
Q 359 1222 359 2328 
Q 359 3434 948 4092 
Q 1538 4750 2522 4750 
z
" transform="scale(0.015625)"/>
      <path id="DejaVuSans-5f" d="M 3263 -1063 
L 3263 -1509 
L -63 -1509 
L -63 -1063 
L 3263 -1063 
z
" transform="scale(0.015625)"/>
      <path id="DejaVuSans-43" d="M 4122 4306 
L 4122 3641 
Q 3803 3938 3442 4084 
Q 3081 4231 2675 4231 
Q 1875 4231 1450 3742 
Q 1025 3253 1025 2328 
Q 1025 1406 1450 917 
Q 1875 428 2675 428 
Q 3081 428 3442 575 
Q 3803 722 4122 1019 
L 4122 359 
Q 3791 134 3420 21 
Q 3050 -91 2638 -91 
Q 1578 -91 968 557 
Q 359 1206 359 2328 
Q 359 3453 968 4101 
Q 1578 4750 2638 4750 
Q 3056 4750 3426 4639 
Q 3797 4528 4122 4306 
z
" transform="scale(0.015625)"/>
     </defs>
     <use xlink:href="#DejaVuSans-45"/>
     <use xlink:href="#DejaVuSans-6d" transform="translate(63.183594 0)"/>
     <use xlink:href="#DejaVuSans-69" transform="translate(160.595703 0)"/>
     <use xlink:href="#DejaVuSans-73" transform="translate(188.378906 0)"/>
     <use xlink:href="#DejaVuSans-73" transform="translate(240.478516 0)"/>
     <use xlink:href="#DejaVuSans-69" transform="translate(292.578125 0)"/>
     <use xlink:href="#DejaVuSans-6f" transform="translate(320.361328 0)"/>
     <use xlink:href="#DejaVuSans-6e" transform="translate(381.542969 0)"/>
     <use xlink:href="#DejaVuSans-20" transform="translate(444.921875 0)"/>
     <use xlink:href="#DejaVuSans-68" transform="translate(476.708984 0)"/>
     <use xlink:href="#DejaVuSans-65" transform="translate(540.087891 0)"/>
     <use xlink:href="#DejaVuSans-69" transform="translate(601.611328 0)"/>
     <use xlink:href="#DejaVuSans-67" transform="translate(629.394531 0)"/>
     <use xlink:href="#DejaVuSans-68" transform="translate(692.871094 0)"/>
     <use xlink:href="#DejaVuSans-74" transform="translate(756.25 0)"/>
     <use xlink:href="#DejaVuSans-20" transform="translate(795.458984 0)"/>
     <use xlink:href="#DejaVuSans-61" transform="translate(827.246094 0)"/>
     <use xlink:href="#DejaVuSans-74" transform="translate(888.525391 0)"/>
     <use xlink:href="#DejaVuSans-20" transform="translate(927.734375 0)"/>
     <use xlink:href="#DejaVuSans-3c4" transform="translate(959.521484 0)"/>
     <use xlink:href="#DejaVuSans-20" transform="translate(1019.726562 0)"/>
     <use xlink:href="#DejaVuSans-3d" transform="translate(1051.513672 0)"/>
     <use xlink:href="#DejaVuSans-20" transform="translate(1135.302734 0)"/>
     <use xlink:href="#DejaVuSans-31" transform="translate(1167.089844 0)"/>
     <use xlink:href="#DejaVuSans-20" transform="translate(1230.712891 0)"/>
     <use xlink:href="#DejaVuSans-66" transform="translate(1262.5 0)"/>
     <use xlink:href="#DejaVuSans-6f" transform="translate(1297.705078 0)"/>
     <use xlink:href="#DejaVuSans-72" transform="translate(1358.886719 0)"/>
     <use xlink:href="#DejaVuSans-20" transform="translate(1400 0)"/>
     <use xlink:href="#DejaVuSans-28" transform="translate(1431.787109 0)"/>
     <use xlink:href="#DejaVuSans-48" transform="translate(1470.800781 0)"/>
     <use xlink:href="#DejaVuSans-32" transform="translate(1545.996094 0)"/>
     <use xlink:href="#DejaVuSans-4f" transform="translate(1609.619141 0)"/>
     <use xlink:href="#DejaVuSans-5f" transform="translate(1688.330078 0)"/>
     <use xlink:href="#DejaVuSans-43" transform="translate(1738.330078 0)"/>
     <use xlink:href="#DejaVuSans-4f" transform="translate(1808.154297 0)"/>
     <use xlink:href="#DejaVuSans-32" transform="translate(1886.865234 0)"/>
     <use xlink:href="#DejaVuSans-29" transform="translate(1950.488281 0)"/>
    </g>
   </g>
  </g>
 </g>
 <defs>
  <clipPath id="p63b9a06528">
   <rect x="40.603125" y="22.318125" width="357.12" height="266.112"/>
  </clipPath>
 </defs>
</svg>
