<?xml version="1.0" encoding="utf-8" standalone="no"?>
<!DOCTYPE svg PUBLIC "-//W3C//DTD SVG 1.1//EN"
  "http://www.w3.org/Graphics/SVG/1.1/DTD/svg11.dtd">
<svg xmlns:xlink="http://www.w3.org/1999/xlink" width="408.462187pt" height="340.845625pt" viewBox="0 0 408.462187 340.845625" xmlns="http://www.w3.org/2000/svg" version="1.1">
 <metadata>
  <rdf:RDF xmlns:dc="http://purl.org/dc/elements/1.1/" xmlns:cc="http://creativecommons.org/ns#" xmlns:rdf="http://www.w3.org/1999/02/22-rdf-syntax-ns#">
   <cc:Work>
    <dc:type rdf:resource="http://purl.org/dc/dcmitype/StillImage"/>
    <dc:date>2026-01-26T00:04:43.567476</dc:date>
    <dc:format>image/svg+xml</dc:format>
    <dc:creator>
     <cc:Agent>
      <dc:title>Matplotlib v3.10.7, https://matplotlib.org/</dc:title>
     </cc:Agent>
    </dc:creator>
   </cc:Work>
  </rdf:RDF>
 </metadata>
 <defs>
  <style type="text/css">*{stroke-linejoin: round; stroke-linecap: butt}</style>
 </defs>
 <g id="figure_1">
  <g id="patch_1">
   <path d="M 0 340.845625 
L 408.462187 340.845625 
L 408.462187 0 
L 0 0 
z
" style="fill: #ffffff"/>
  </g>
  <g id="axes_1">
   <g id="patch_2">
    <path d="M 44.142188 301.8675 
L 401.262187 301.8675 
L 401.262187 35.7555 
L 44.142188 35.7555 
z
" style="fill: #ffffff"/>
   </g>
   <g id="matplotlib.axis_1">
    <g id="xtick_1">
     <g id="line2d_1">
      <path d="M 60.212506 301.8675 
L 60.212506 35.7555 
" clip-path="url(#pc505a050bf)" style="fill: none; stroke: #808080; stroke-width: 0.3; stroke-linecap: square"/>
     </g>
     <g id="line2d_2">
      <defs>
       <path id="m69dd13682a" d="M 0 0 
L 0 3.5 
" style="stroke: #000000; stroke-width: 0.8"/>
      </defs>
      <g>
       <use xlink:href="#m69dd13682a" x="60.212506" y="301.8675" style="stroke: #000000; stroke-width: 0.8"/>
      </g>
     </g>
     <g id="text_1">
      <!-- 0 -->
      <g transform="translate(57.031256 316.465937) scale(0.1 -0.1)">
       <defs>
        <path id="DejaVuSans-30" d="M 2034 4250 
Q 1547 4250 1301 3770 
Q 1056 3291 1056 2328 
Q 1056 1369 1301 889 
Q 1547 409 2034 409 
Q 2525 409 2770 889 
Q 3016 1369 3016 2328 
Q 3016 3291 2770 3770 
Q 2525 4250 2034 4250 
z
M 2034 4750 
Q 2819 4750 3233 4129 
Q 3647 3509 3647 2328 
Q 3647 1150 3233 529 
Q 2819 -91 2034 -91 
Q 1250 -91 836 529 
Q 422 1150 422 2328 
Q 422 3509 836 4129 
Q 1250 4750 2034 4750 
z
" transform="scale(0.015625)"/>
       </defs>
       <use xlink:href="#DejaVuSans-30"/>
      </g>
     </g>
    </g>
    <g id="xtick_2">
     <g id="line2d_3">
      <path d="M 100.814626 301.8675 
L 100.814626 35.7555 
" clip-path="url(#pc505a050bf)" style="fill: none; stroke: #808080; stroke-width: 0.3; stroke-linecap: square"/>
     </g>
     <g id="line2d_4">
      <g>
       <use xlink:href="#m69dd13682a" x="100.814626" y="301.8675" style="stroke: #000000; stroke-width: 0.8"/>
      </g>
     </g>
     <g id="text_2">
      <!-- 250 -->
      <g transform="translate(91.270876 316.465937) scale(0.1 -0.1)">
       <defs>
        <path id="DejaVuSans-32" d="M 1228 531 
L 3431 531 
L 3431 0 
L 469 0 
L 469 531 
Q 828 903 1448 1529 
Q 2069 2156 2228 2338 
Q 2531 2678 2651 2914 
Q 2772 3150 2772 3378 
Q 2772 3750 2511 3984 
Q 2250 4219 1831 4219 
Q 1534 4219 1204 4116 
Q 875 4013 500 3803 
L 500 4441 
Q 881 4594 1212 4672 
Q 1544 4750 1819 4750 
Q 2544 4750 2975 4387 
Q 3406 4025 3406 3419 
Q 3406 3131 3298 2873 
Q 3191 2616 2906 2266 
Q 2828 2175 2409 1742 
Q 1991 1309 1228 531 
z
" transform="scale(0.015625)"/>
        <path id="DejaVuSans-35" d="M 691 4666 
L 3169 4666 
L 3169 4134 
L 1269 4134 
L 1269 2991 
Q 1406 3038 1543 3061 
Q 1681 3084 1819 3084 
Q 2600 3084 3056 2656 
Q 3513 2228 3513 1497 
Q 3513 744 3044 326 
Q 2575 -91 1722 -91 
Q 1428 -91 1123 -41 
Q 819 9 494 109 
L 494 744 
Q 775 591 1075 516 
Q 1375 441 1709 441 
Q 2250 441 2565 725 
Q 2881 1009 2881 1497 
Q 2881 1984 2565 2268 
Q 2250 2553 1709 2553 
Q 1456 2553 1204 2497 
Q 953 2441 691 2322 
L 691 4666 
z
" transform="scale(0.015625)"/>
       </defs>
       <use xlink:href="#DejaVuSans-32"/>
       <use xlink:href="#DejaVuSans-35" transform="translate(63.623047 0)"/>
       <use xlink:href="#DejaVuSans-30" transform="translate(127.246094 0)"/>
      </g>
     </g>
    </g>
    <g id="xtick_3">
     <g id="line2d_5">
      <path d="M 141.416745 301.8675 
L 141.416745 35.7555 
" clip-path="url(#pc505a050bf)" style="fill: none; stroke: #808080; stroke-width: 0.3; stroke-linecap: square"/>
     </g>
     <g id="line2d_6">
      <g>
       <use xlink:href="#m69dd13682a" x="141.416745" y="301.8675" style="stroke: #000000; stroke-width: 0.8"/>
      </g>
     </g>
     <g id="text_3">
      <!-- 500 -->
      <g transform="translate(131.872995 316.465937) scale(0.1 -0.1)">
       <use xlink:href="#DejaVuSans-35"/>
       <use xlink:href="#DejaVuSans-30" transform="translate(63.623047 0)"/>
       <use xlink:href="#DejaVuSans-30" transform="translate(127.246094 0)"/>
      </g>
     </g>
    </g>
    <g id="xtick_4">
     <g id="line2d_7">
      <path d="M 182.018864 301.8675 
L 182.018864 35.7555 
" clip-path="url(#pc505a050bf)" style="fill: none; stroke: #808080; stroke-width: 0.3; stroke-linecap: square"/>
     </g>
     <g id="line2d_8">
      <g>
       <use xlink:href="#m69dd13682a" x="182.018864" y="301.8675" style="stroke: #000000; stroke-width: 0.8"/>
      </g>
     </g>
     <g id="text_4">
      <!-- 750 -->
      <g transform="translate(172.475114 316.465937) scale(0.1 -0.1)">
       <defs>
        <path id="DejaVuSans-37" d="M 525 4666 
L 3525 4666 
L 3525 4397 
L 1831 0 
L 1172 0 
L 2766 4134 
L 525 4134 
L 525 4666 
z
" transform="scale(0.015625)"/>
       </defs>
       <use xlink:href="#DejaVuSans-37"/>
       <use xlink:href="#DejaVuSans-35" transform="translate(63.623047 0)"/>
       <use xlink:href="#DejaVuSans-30" transform="translate(127.246094 0)"/>
      </g>
     </g>
    </g>
    <g id="xtick_5">
     <g id="line2d_9">
      <path d="M 222.620983 301.8675 
L 222.620983 35.7555 
" clip-path="url(#pc505a050bf)" style="fill: none; stroke: #808080; stroke-width: 0.3; stroke-linecap: square"/>
     </g>
     <g id="line2d_10">
      <g>
       <use xlink:href="#m69dd13682a" x="222.620983" y="301.8675" style="stroke: #000000; stroke-width: 0.8"/>
      </g>
     </g>
     <g id="text_5">
      <!-- 1000 -->
      <g transform="translate(209.895983 316.465937) scale(0.1 -0.1)">
       <defs>
        <path id="DejaVuSans-31" d="M 794 531 
L 1825 531 
L 1825 4091 
L 703 3866 
L 703 4441 
L 1819 4666 
L 2450 4666 
L 2450 531 
L 3481 531 
L 3481 0 
L 794 0 
L 794 531 
z
" transform="scale(0.015625)"/>
       </defs>
       <use xlink:href="#DejaVuSans-31"/>
       <use xlink:href="#DejaVuSans-30" transform="translate(63.623047 0)"/>
       <use xlink:href="#DejaVuSans-30" transform="translate(127.246094 0)"/>
       <use xlink:href="#DejaVuSans-30" transform="translate(190.869141 0)"/>
      </g>
     </g>
    </g>
    <g id="xtick_6">
     <g id="line2d_11">
      <path d="M 263.223103 301.8675 
L 263.223103 35.7555 
" clip-path="url(#pc505a050bf)" style="fill: none; stroke: #808080; stroke-width: 0.3; stroke-linecap: square"/>
     </g>
     <g id="line2d_12">
      <g>
       <use xlink:href="#m69dd13682a" x="263.223103" y="301.8675" style="stroke: #000000; stroke-width: 0.8"/>
      </g>
     </g>
     <g id="text_6">
      <!-- 1250 -->
      <g transform="translate(250.498103 316.465937) scale(0.1 -0.1)">
       <use xlink:href="#DejaVuSans-31"/>
       <use xlink:href="#DejaVuSans-32" transform="translate(63.623047 0)"/>
       <use xlink:href="#DejaVuSans-35" transform="translate(127.246094 0)"/>
       <use xlink:href="#DejaVuSans-30" transform="translate(190.869141 0)"/>
      </g>
     </g>
    </g>
    <g id="xtick_7">
     <g id="line2d_13">
      <path d="M 303.825222 301.8675 
L 303.825222 35.7555 
" clip-path="url(#pc505a050bf)" style="fill: none; stroke: #808080; stroke-width: 0.3; stroke-linecap: square"/>
     </g>
     <g id="line2d_14">
      <g>
       <use xlink:href="#m69dd13682a" x="303.825222" y="301.8675" style="stroke: #000000; stroke-width: 0.8"/>
      </g>
     </g>
     <g id="text_7">
      <!-- 1500 -->
      <g transform="translate(291.100222 316.465937) scale(0.1 -0.1)">
       <use xlink:href="#DejaVuSans-31"/>
       <use xlink:href="#DejaVuSans-35" transform="translate(63.623047 0)"/>
       <use xlink:href="#DejaVuSans-30" transform="translate(127.246094 0)"/>
       <use xlink:href="#DejaVuSans-30" transform="translate(190.869141 0)"/>
      </g>
     </g>
    </g>
    <g id="xtick_8">
     <g id="line2d_15">
      <path d="M 344.427341 301.8675 
L 344.427341 35.7555 
" clip-path="url(#pc505a050bf)" style="fill: none; stroke: #808080; stroke-width: 0.3; stroke-linecap: square"/>
     </g>
     <g id="line2d_16">
      <g>
       <use xlink:href="#m69dd13682a" x="344.427341" y="301.8675" style="stroke: #000000; stroke-width: 0.8"/>
      </g>
     </g>
     <g id="text_8">
      <!-- 1750 -->
      <g transform="translate(331.702341 316.465937) scale(0.1 -0.1)">
       <use xlink:href="#DejaVuSans-31"/>
       <use xlink:href="#DejaVuSans-37" transform="translate(63.623047 0)"/>
       <use xlink:href="#DejaVuSans-35" transform="translate(127.246094 0)"/>
       <use xlink:href="#DejaVuSans-30" transform="translate(190.869141 0)"/>
      </g>
     </g>
    </g>
    <g id="xtick_9">
     <g id="line2d_17">
      <path d="M 385.02946 301.8675 
L 385.02946 35.7555 
" clip-path="url(#pc505a050bf)" style="fill: none; stroke: #808080; stroke-width: 0.3; stroke-linecap: square"/>
     </g>
     <g id="line2d_18">
      <g>
       <use xlink:href="#m69dd13682a" x="385.02946" y="301.8675" style="stroke: #000000; stroke-width: 0.8"/>
      </g>
     </g>
     <g id="text_9">
      <!-- 2000 -->
      <g transform="translate(372.30446 316.465937) scale(0.1 -0.1)">
       <use xlink:href="#DejaVuSans-32"/>
       <use xlink:href="#DejaVuSans-30" transform="translate(63.623047 0)"/>
       <use xlink:href="#DejaVuSans-30" transform="translate(127.246094 0)"/>
       <use xlink:href="#DejaVuSans-30" transform="translate(190.869141 0)"/>
      </g>
     </g>
    </g>
    <g id="text_10">
     <!-- Frequency / Kayser (cm$^{-1}$) -->
     <g transform="translate(156.002187 331.545625) scale(0.1 -0.1)">
      <defs>
       <path id="DejaVuSans-46" d="M 628 4666 
L 3309 4666 
L 3309 4134 
L 1259 4134 
L 1259 2759 
L 3109 2759 
L 3109 2228 
L 1259 2228 
L 1259 0 
L 628 0 
L 628 4666 
z
" transform="scale(0.015625)"/>
       <path id="DejaVuSans-72" d="M 2631 2963 
Q 2534 3019 2420 3045 
Q 2306 3072 2169 3072 
Q 1681 3072 1420 2755 
Q 1159 2438 1159 1844 
L 1159 0 
L 581 0 
L 581 3500 
L 1159 3500 
L 1159 2956 
Q 1341 3275 1631 3429 
Q 1922 3584 2338 3584 
Q 2397 3584 2469 3576 
Q 2541 3569 2628 3553 
L 2631 2963 
z
" transform="scale(0.015625)"/>
       <path id="DejaVuSans-65" d="M 3597 1894 
L 3597 1613 
L 953 1613 
Q 991 1019 1311 708 
Q 1631 397 2203 397 
Q 2534 397 2845 478 
Q 3156 559 3463 722 
L 3463 178 
Q 3153 47 2828 -22 
Q 2503 -91 2169 -91 
Q 1331 -91 842 396 
Q 353 884 353 1716 
Q 353 2575 817 3079 
Q 1281 3584 2069 3584 
Q 2775 3584 3186 3129 
Q 3597 2675 3597 1894 
z
M 3022 2063 
Q 3016 2534 2758 2815 
Q 2500 3097 2075 3097 
Q 1594 3097 1305 2825 
Q 1016 2553 972 2059 
L 3022 2063 
z
" transform="scale(0.015625)"/>
       <path id="DejaVuSans-71" d="M 947 1747 
Q 947 1113 1208 752 
Q 1469 391 1925 391 
Q 2381 391 2643 752 
Q 2906 1113 2906 1747 
Q 2906 2381 2643 2742 
Q 2381 3103 1925 3103 
Q 1469 3103 1208 2742 
Q 947 2381 947 1747 
z
M 2906 525 
Q 2725 213 2448 61 
Q 2172 -91 1784 -91 
Q 1150 -91 751 415 
Q 353 922 353 1747 
Q 353 2572 751 3078 
Q 1150 3584 1784 3584 
Q 2172 3584 2448 3432 
Q 2725 3281 2906 2969 
L 2906 3500 
L 3481 3500 
L 3481 -1331 
L 2906 -1331 
L 2906 525 
z
" transform="scale(0.015625)"/>
       <path id="DejaVuSans-75" d="M 544 1381 
L 544 3500 
L 1119 3500 
L 1119 1403 
Q 1119 906 1312 657 
Q 1506 409 1894 409 
Q 2359 409 2629 706 
Q 2900 1003 2900 1516 
L 2900 3500 
L 3475 3500 
L 3475 0 
L 2900 0 
L 2900 538 
Q 2691 219 2414 64 
Q 2138 -91 1772 -91 
Q 1169 -91 856 284 
Q 544 659 544 1381 
z
M 1991 3584 
L 1991 3584 
z
" transform="scale(0.015625)"/>
       <path id="DejaVuSans-6e" d="M 3513 2113 
L 3513 0 
L 2938 0 
L 2938 2094 
Q 2938 2591 2744 2837 
Q 2550 3084 2163 3084 
Q 1697 3084 1428 2787 
Q 1159 2491 1159 1978 
L 1159 0 
L 581 0 
L 581 3500 
L 1159 3500 
L 1159 2956 
Q 1366 3272 1645 3428 
Q 1925 3584 2291 3584 
Q 2894 3584 3203 3211 
Q 3513 2838 3513 2113 
z
" transform="scale(0.015625)"/>
       <path id="DejaVuSans-63" d="M 3122 3366 
L 3122 2828 
Q 2878 2963 2633 3030 
Q 2388 3097 2138 3097 
Q 1578 3097 1268 2742 
Q 959 2388 959 1747 
Q 959 1106 1268 751 
Q 1578 397 2138 397 
Q 2388 397 2633 464 
Q 2878 531 3122 666 
L 3122 134 
Q 2881 22 2623 -34 
Q 2366 -91 2075 -91 
Q 1284 -91 818 406 
Q 353 903 353 1747 
Q 353 2603 823 3093 
Q 1294 3584 2113 3584 
Q 2378 3584 2631 3529 
Q 2884 3475 3122 3366 
z
" transform="scale(0.015625)"/>
       <path id="DejaVuSans-79" d="M 2059 -325 
Q 1816 -950 1584 -1140 
Q 1353 -1331 966 -1331 
L 506 -1331 
L 506 -850 
L 844 -850 
Q 1081 -850 1212 -737 
Q 1344 -625 1503 -206 
L 1606 56 
L 191 3500 
L 800 3500 
L 1894 763 
L 2988 3500 
L 3597 3500 
L 2059 -325 
z
" transform="scale(0.015625)"/>
       <path id="DejaVuSans-20" transform="scale(0.015625)"/>
       <path id="DejaVuSans-2f" d="M 1625 4666 
L 2156 4666 
L 531 -594 
L 0 -594 
L 1625 4666 
z
" transform="scale(0.015625)"/>
       <path id="DejaVuSans-4b" d="M 628 4666 
L 1259 4666 
L 1259 2694 
L 3353 4666 
L 4166 4666 
L 1850 2491 
L 4331 0 
L 3500 0 
L 1259 2247 
L 1259 0 
L 628 0 
L 628 4666 
z
" transform="scale(0.015625)"/>
       <path id="DejaVuSans-61" d="M 2194 1759 
Q 1497 1759 1228 1600 
Q 959 1441 959 1056 
Q 959 750 1161 570 
Q 1363 391 1709 391 
Q 2188 391 2477 730 
Q 2766 1069 2766 1631 
L 2766 1759 
L 2194 1759 
z
M 3341 1997 
L 3341 0 
L 2766 0 
L 2766 531 
Q 2569 213 2275 61 
Q 1981 -91 1556 -91 
Q 1019 -91 701 211 
Q 384 513 384 1019 
Q 384 1609 779 1909 
Q 1175 2209 1959 2209 
L 2766 2209 
L 2766 2266 
Q 2766 2663 2505 2880 
Q 2244 3097 1772 3097 
Q 1472 3097 1187 3025 
Q 903 2953 641 2809 
L 641 3341 
Q 956 3463 1253 3523 
Q 1550 3584 1831 3584 
Q 2591 3584 2966 3190 
Q 3341 2797 3341 1997 
z
" transform="scale(0.015625)"/>
       <path id="DejaVuSans-73" d="M 2834 3397 
L 2834 2853 
Q 2591 2978 2328 3040 
Q 2066 3103 1784 3103 
Q 1356 3103 1142 2972 
Q 928 2841 928 2578 
Q 928 2378 1081 2264 
Q 1234 2150 1697 2047 
L 1894 2003 
Q 2506 1872 2764 1633 
Q 3022 1394 3022 966 
Q 3022 478 2636 193 
Q 2250 -91 1575 -91 
Q 1294 -91 989 -36 
Q 684 19 347 128 
L 347 722 
Q 666 556 975 473 
Q 1284 391 1588 391 
Q 1994 391 2212 530 
Q 2431 669 2431 922 
Q 2431 1156 2273 1281 
Q 2116 1406 1581 1522 
L 1381 1569 
Q 847 1681 609 1914 
Q 372 2147 372 2553 
Q 372 3047 722 3315 
Q 1072 3584 1716 3584 
Q 2034 3584 2315 3537 
Q 2597 3491 2834 3397 
z
" transform="scale(0.015625)"/>
       <path id="DejaVuSans-28" d="M 1984 4856 
Q 1566 4138 1362 3434 
Q 1159 2731 1159 2009 
Q 1159 1288 1364 580 
Q 1569 -128 1984 -844 
L 1484 -844 
Q 1016 -109 783 600 
Q 550 1309 550 2009 
Q 550 2706 781 3412 
Q 1013 4119 1484 4856 
L 1984 4856 
z
" transform="scale(0.015625)"/>
       <path id="DejaVuSans-6d" d="M 3328 2828 
Q 3544 3216 3844 3400 
Q 4144 3584 4550 3584 
Q 5097 3584 5394 3201 
Q 5691 2819 5691 2113 
L 5691 0 
L 5113 0 
L 5113 2094 
Q 5113 2597 4934 2840 
Q 4756 3084 4391 3084 
Q 3944 3084 3684 2787 
Q 3425 2491 3425 1978 
L 3425 0 
L 2847 0 
L 2847 2094 
Q 2847 2600 2669 2842 
Q 2491 3084 2119 3084 
Q 1678 3084 1418 2786 
Q 1159 2488 1159 1978 
L 1159 0 
L 581 0 
L 581 3500 
L 1159 3500 
L 1159 2956 
Q 1356 3278 1631 3431 
Q 1906 3584 2284 3584 
Q 2666 3584 2933 3390 
Q 3200 3197 3328 2828 
z
" transform="scale(0.015625)"/>
       <path id="DejaVuSans-2212" d="M 678 2272 
L 4684 2272 
L 4684 1741 
L 678 1741 
L 678 2272 
z
" transform="scale(0.015625)"/>
       <path id="DejaVuSans-29" d="M 513 4856 
L 1013 4856 
Q 1481 4119 1714 3412 
Q 1947 2706 1947 2009 
Q 1947 1309 1714 600 
Q 1481 -109 1013 -844 
L 513 -844 
Q 928 -128 1133 580 
Q 1338 1288 1338 2009 
Q 1338 2731 1133 3434 
Q 928 4138 513 4856 
z
" transform="scale(0.015625)"/>
      </defs>
      <use xlink:href="#DejaVuSans-46" transform="translate(0 0.684375)"/>
      <use xlink:href="#DejaVuSans-72" transform="translate(57.519531 0.684375)"/>
      <use xlink:href="#DejaVuSans-65" transform="translate(98.632812 0.684375)"/>
      <use xlink:href="#DejaVuSans-71" transform="translate(160.15625 0.684375)"/>
      <use xlink:href="#DejaVuSans-75" transform="translate(223.632812 0.684375)"/>
      <use xlink:href="#DejaVuSans-65" transform="translate(287.011719 0.684375)"/>
      <use xlink:href="#DejaVuSans-6e" transform="translate(348.535156 0.684375)"/>
      <use xlink:href="#DejaVuSans-63" transform="translate(411.914062 0.684375)"/>
      <use xlink:href="#DejaVuSans-79" transform="translate(466.894531 0.684375)"/>
      <use xlink:href="#DejaVuSans-20" transform="translate(526.074219 0.684375)"/>
      <use xlink:href="#DejaVuSans-2f" transform="translate(557.861328 0.684375)"/>
      <use xlink:href="#DejaVuSans-20" transform="translate(591.552734 0.684375)"/>
      <use xlink:href="#DejaVuSans-4b" transform="translate(623.339844 0.684375)"/>
      <use xlink:href="#DejaVuSans-61" transform="translate(688.916016 0.684375)"/>
      <use xlink:href="#DejaVuSans-79" transform="translate(750.195312 0.684375)"/>
      <use xlink:href="#DejaVuSans-73" transform="translate(809.375 0.684375)"/>
      <use xlink:href="#DejaVuSans-65" transform="translate(861.474609 0.684375)"/>
      <use xlink:href="#DejaVuSans-72" transform="translate(922.998047 0.684375)"/>
      <use xlink:href="#DejaVuSans-20" transform="translate(964.111328 0.684375)"/>
      <use xlink:href="#DejaVuSans-28" transform="translate(995.898438 0.684375)"/>
      <use xlink:href="#DejaVuSans-63" transform="translate(1034.912109 0.684375)"/>
      <use xlink:href="#DejaVuSans-6d" transform="translate(1089.892578 0.684375)"/>
      <use xlink:href="#DejaVuSans-2212" transform="translate(1188.261719 38.965625) scale(0.7)"/>
      <use xlink:href="#DejaVuSans-31" transform="translate(1246.914062 38.965625) scale(0.7)"/>
      <use xlink:href="#DejaVuSans-29" transform="translate(1294.18457 0.684375)"/>
     </g>
    </g>
   </g>
   <g id="matplotlib.axis_2">
    <g id="ytick_1">
     <g id="line2d_19">
      <path d="M 44.142188 272.495231 
L 401.262187 272.495231 
" clip-path="url(#pc505a050bf)" style="fill: none; stroke: #808080; stroke-width: 0.3; stroke-linecap: square"/>
     </g>
     <g id="line2d_20">
      <defs>
       <path id="mea89764f20" d="M 0 0 
L -3.5 0 
" style="stroke: #000000; stroke-width: 0.8"/>
      </defs>
      <g>
       <use xlink:href="#mea89764f20" x="44.142188" y="272.495231" style="stroke: #000000; stroke-width: 0.8"/>
      </g>
     </g>
     <g id="text_11">
      <!-- −6 -->
      <g transform="translate(22.4 276.29445) scale(0.1 -0.1)">
       <defs>
        <path id="DejaVuSans-36" d="M 2113 2584 
Q 1688 2584 1439 2293 
Q 1191 2003 1191 1497 
Q 1191 994 1439 701 
Q 1688 409 2113 409 
Q 2538 409 2786 701 
Q 3034 994 3034 1497 
Q 3034 2003 2786 2293 
Q 2538 2584 2113 2584 
z
M 3366 4563 
L 3366 3988 
Q 3128 4100 2886 4159 
Q 2644 4219 2406 4219 
Q 1781 4219 1451 3797 
Q 1122 3375 1075 2522 
Q 1259 2794 1537 2939 
Q 1816 3084 2150 3084 
Q 2853 3084 3261 2657 
Q 3669 2231 3669 1497 
Q 3669 778 3244 343 
Q 2819 -91 2113 -91 
Q 1303 -91 875 529 
Q 447 1150 447 2328 
Q 447 3434 972 4092 
Q 1497 4750 2381 4750 
Q 2619 4750 2861 4703 
Q 3103 4656 3366 4563 
z
" transform="scale(0.015625)"/>
       </defs>
       <use xlink:href="#DejaVuSans-2212"/>
       <use xlink:href="#DejaVuSans-36" transform="translate(83.789062 0)"/>
      </g>
     </g>
    </g>
    <g id="ytick_2">
     <g id="line2d_21">
      <path d="M 44.142188 241.479257 
L 401.262187 241.479257 
" clip-path="url(#pc505a050bf)" style="fill: none; stroke: #808080; stroke-width: 0.3; stroke-linecap: square"/>
     </g>
     <g id="line2d_22">
      <g>
       <use xlink:href="#mea89764f20" x="44.142188" y="241.479257" style="stroke: #000000; stroke-width: 0.8"/>
      </g>
     </g>
     <g id="text_12">
      <!-- −4 -->
      <g transform="translate(22.4 245.278476) scale(0.1 -0.1)">
       <defs>
        <path id="DejaVuSans-34" d="M 2419 4116 
L 825 1625 
L 2419 1625 
L 2419 4116 
z
M 2253 4666 
L 3047 4666 
L 3047 1625 
L 3713 1625 
L 3713 1100 
L 3047 1100 
L 3047 0 
L 2419 0 
L 2419 1100 
L 313 1100 
L 313 1709 
L 2253 4666 
z
" transform="scale(0.015625)"/>
       </defs>
       <use xlink:href="#DejaVuSans-2212"/>
       <use xlink:href="#DejaVuSans-34" transform="translate(83.789062 0)"/>
      </g>
     </g>
    </g>
    <g id="ytick_3">
     <g id="line2d_23">
      <path d="M 44.142188 210.463284 
L 401.262187 210.463284 
" clip-path="url(#pc505a050bf)" style="fill: none; stroke: #808080; stroke-width: 0.3; stroke-linecap: square"/>
     </g>
     <g id="line2d_24">
      <g>
       <use xlink:href="#mea89764f20" x="44.142188" y="210.463284" style="stroke: #000000; stroke-width: 0.8"/>
      </g>
     </g>
     <g id="text_13">
      <!-- −2 -->
      <g transform="translate(22.4 214.262502) scale(0.1 -0.1)">
       <use xlink:href="#DejaVuSans-2212"/>
       <use xlink:href="#DejaVuSans-32" transform="translate(83.789062 0)"/>
      </g>
     </g>
    </g>
    <g id="ytick_4">
     <g id="line2d_25">
      <path d="M 44.142188 179.44731 
L 401.262187 179.44731 
" clip-path="url(#pc505a050bf)" style="fill: none; stroke: #808080; stroke-width: 0.3; stroke-linecap: square"/>
     </g>
     <g id="line2d_26">
      <g>
       <use xlink:href="#mea89764f20" x="44.142188" y="179.44731" style="stroke: #000000; stroke-width: 0.8"/>
      </g>
     </g>
     <g id="text_14">
      <!-- 0 -->
      <g transform="translate(30.779688 183.246529) scale(0.1 -0.1)">
       <use xlink:href="#DejaVuSans-30"/>
      </g>
     </g>
    </g>
    <g id="ytick_5">
     <g id="line2d_27">
      <path d="M 44.142188 148.431337 
L 401.262187 148.431337 
" clip-path="url(#pc505a050bf)" style="fill: none; stroke: #808080; stroke-width: 0.3; stroke-linecap: square"/>
     </g>
     <g id="line2d_28">
      <g>
       <use xlink:href="#mea89764f20" x="44.142188" y="148.431337" style="stroke: #000000; stroke-width: 0.8"/>
      </g>
     </g>
     <g id="text_15">
      <!-- 2 -->
      <g transform="translate(30.779688 152.230555) scale(0.1 -0.1)">
       <use xlink:href="#DejaVuSans-32"/>
      </g>
     </g>
    </g>
    <g id="ytick_6">
     <g id="line2d_29">
      <path d="M 44.142188 117.415363 
L 401.262187 117.415363 
" clip-path="url(#pc505a050bf)" style="fill: none; stroke: #808080; stroke-width: 0.3; stroke-linecap: square"/>
     </g>
     <g id="line2d_30">
      <g>
       <use xlink:href="#mea89764f20" x="44.142188" y="117.415363" style="stroke: #000000; stroke-width: 0.8"/>
      </g>
     </g>
     <g id="text_16">
      <!-- 4 -->
      <g transform="translate(30.779688 121.214582) scale(0.1 -0.1)">
       <use xlink:href="#DejaVuSans-34"/>
      </g>
     </g>
    </g>
    <g id="ytick_7">
     <g id="line2d_31">
      <path d="M 44.142188 86.399389 
L 401.262187 86.399389 
" clip-path="url(#pc505a050bf)" style="fill: none; stroke: #808080; stroke-width: 0.3; stroke-linecap: square"/>
     </g>
     <g id="line2d_32">
      <g>
       <use xlink:href="#mea89764f20" x="44.142188" y="86.399389" style="stroke: #000000; stroke-width: 0.8"/>
      </g>
     </g>
     <g id="text_17">
      <!-- 6 -->
      <g transform="translate(30.779688 90.198608) scale(0.1 -0.1)">
       <use xlink:href="#DejaVuSans-36"/>
      </g>
     </g>
    </g>
    <g id="ytick_8">
     <g id="line2d_33">
      <path d="M 44.142188 55.383416 
L 401.262187 55.383416 
" clip-path="url(#pc505a050bf)" style="fill: none; stroke: #808080; stroke-width: 0.3; stroke-linecap: square"/>
     </g>
     <g id="line2d_34">
      <g>
       <use xlink:href="#mea89764f20" x="44.142188" y="55.383416" style="stroke: #000000; stroke-width: 0.8"/>
      </g>
     </g>
     <g id="text_18">
      <!-- 8 -->
      <g transform="translate(30.779688 59.182634) scale(0.1 -0.1)">
       <defs>
        <path id="DejaVuSans-38" d="M 2034 2216 
Q 1584 2216 1326 1975 
Q 1069 1734 1069 1313 
Q 1069 891 1326 650 
Q 1584 409 2034 409 
Q 2484 409 2743 651 
Q 3003 894 3003 1313 
Q 3003 1734 2745 1975 
Q 2488 2216 2034 2216 
z
M 1403 2484 
Q 997 2584 770 2862 
Q 544 3141 544 3541 
Q 544 4100 942 4425 
Q 1341 4750 2034 4750 
Q 2731 4750 3128 4425 
Q 3525 4100 3525 3541 
Q 3525 3141 3298 2862 
Q 3072 2584 2669 2484 
Q 3125 2378 3379 2068 
Q 3634 1759 3634 1313 
Q 3634 634 3220 271 
Q 2806 -91 2034 -91 
Q 1263 -91 848 271 
Q 434 634 434 1313 
Q 434 1759 690 2068 
Q 947 2378 1403 2484 
z
M 1172 3481 
Q 1172 3119 1398 2916 
Q 1625 2713 2034 2713 
Q 2441 2713 2670 2916 
Q 2900 3119 2900 3481 
Q 2900 3844 2670 4047 
Q 2441 4250 2034 4250 
Q 1625 4250 1398 4047 
Q 1172 3844 1172 3481 
z
" transform="scale(0.015625)"/>
       </defs>
       <use xlink:href="#DejaVuSans-38"/>
      </g>
     </g>
    </g>
    <g id="text_19">
     <!-- Spectral radiance ($Wm^{-2}sr^{-1}Hz^{-1}$) -->
     <g transform="translate(16.3 255.7115) rotate(-90) scale(0.1 -0.1)">
      <defs>
       <path id="DejaVuSans-53" d="M 3425 4513 
L 3425 3897 
Q 3066 4069 2747 4153 
Q 2428 4238 2131 4238 
Q 1616 4238 1336 4038 
Q 1056 3838 1056 3469 
Q 1056 3159 1242 3001 
Q 1428 2844 1947 2747 
L 2328 2669 
Q 3034 2534 3370 2195 
Q 3706 1856 3706 1288 
Q 3706 609 3251 259 
Q 2797 -91 1919 -91 
Q 1588 -91 1214 -16 
Q 841 59 441 206 
L 441 856 
Q 825 641 1194 531 
Q 1563 422 1919 422 
Q 2459 422 2753 634 
Q 3047 847 3047 1241 
Q 3047 1584 2836 1778 
Q 2625 1972 2144 2069 
L 1759 2144 
Q 1053 2284 737 2584 
Q 422 2884 422 3419 
Q 422 4038 858 4394 
Q 1294 4750 2059 4750 
Q 2388 4750 2728 4690 
Q 3069 4631 3425 4513 
z
" transform="scale(0.015625)"/>
       <path id="DejaVuSans-70" d="M 1159 525 
L 1159 -1331 
L 581 -1331 
L 581 3500 
L 1159 3500 
L 1159 2969 
Q 1341 3281 1617 3432 
Q 1894 3584 2278 3584 
Q 2916 3584 3314 3078 
Q 3713 2572 3713 1747 
Q 3713 922 3314 415 
Q 2916 -91 2278 -91 
Q 1894 -91 1617 61 
Q 1341 213 1159 525 
z
M 3116 1747 
Q 3116 2381 2855 2742 
Q 2594 3103 2138 3103 
Q 1681 3103 1420 2742 
Q 1159 2381 1159 1747 
Q 1159 1113 1420 752 
Q 1681 391 2138 391 
Q 2594 391 2855 752 
Q 3116 1113 3116 1747 
z
" transform="scale(0.015625)"/>
       <path id="DejaVuSans-74" d="M 1172 4494 
L 1172 3500 
L 2356 3500 
L 2356 3053 
L 1172 3053 
L 1172 1153 
Q 1172 725 1289 603 
Q 1406 481 1766 481 
L 2356 481 
L 2356 0 
L 1766 0 
Q 1100 0 847 248 
Q 594 497 594 1153 
L 594 3053 
L 172 3053 
L 172 3500 
L 594 3500 
L 594 4494 
L 1172 4494 
z
" transform="scale(0.015625)"/>
       <path id="DejaVuSans-6c" d="M 603 4863 
L 1178 4863 
L 1178 0 
L 603 0 
L 603 4863 
z
" transform="scale(0.015625)"/>
       <path id="DejaVuSans-64" d="M 2906 2969 
L 2906 4863 
L 3481 4863 
L 3481 0 
L 2906 0 
L 2906 525 
Q 2725 213 2448 61 
Q 2172 -91 1784 -91 
Q 1150 -91 751 415 
Q 353 922 353 1747 
Q 353 2572 751 3078 
Q 1150 3584 1784 3584 
Q 2172 3584 2448 3432 
Q 2725 3281 2906 2969 
z
M 947 1747 
Q 947 1113 1208 752 
Q 1469 391 1925 391 
Q 2381 391 2643 752 
Q 2906 1113 2906 1747 
Q 2906 2381 2643 2742 
Q 2381 3103 1925 3103 
Q 1469 3103 1208 2742 
Q 947 2381 947 1747 
z
" transform="scale(0.015625)"/>
       <path id="DejaVuSans-69" d="M 603 3500 
L 1178 3500 
L 1178 0 
L 603 0 
L 603 3500 
z
M 603 4863 
L 1178 4863 
L 1178 4134 
L 603 4134 
L 603 4863 
z
" transform="scale(0.015625)"/>
       <path id="DejaVuSans-Oblique-57" d="M 616 4666 
L 1228 4666 
L 1453 697 
L 3213 4666 
L 3916 4666 
L 4147 697 
L 5888 4666 
L 6528 4666 
L 4453 0 
L 3659 0 
L 3444 3891 
L 1697 0 
L 903 0 
L 616 4666 
z
" transform="scale(0.015625)"/>
       <path id="DejaVuSans-Oblique-6d" d="M 5747 2113 
L 5338 0 
L 4763 0 
L 5166 2094 
Q 5191 2228 5203 2325 
Q 5216 2422 5216 2491 
Q 5216 2772 5059 2928 
Q 4903 3084 4622 3084 
Q 4203 3084 3875 2770 
Q 3547 2456 3450 1953 
L 3066 0 
L 2491 0 
L 2900 2094 
Q 2925 2209 2937 2307 
Q 2950 2406 2950 2484 
Q 2950 2769 2794 2926 
Q 2638 3084 2363 3084 
Q 1938 3084 1609 2770 
Q 1281 2456 1184 1953 
L 800 0 
L 225 0 
L 909 3500 
L 1484 3500 
L 1375 2956 
Q 1609 3263 1923 3423 
Q 2238 3584 2597 3584 
Q 2978 3584 3223 3384 
Q 3469 3184 3519 2828 
Q 3781 3197 4126 3390 
Q 4472 3584 4856 3584 
Q 5306 3584 5551 3325 
Q 5797 3066 5797 2591 
Q 5797 2488 5784 2364 
Q 5772 2241 5747 2113 
z
" transform="scale(0.015625)"/>
       <path id="DejaVuSans-Oblique-73" d="M 3200 3397 
L 3091 2853 
Q 2863 2978 2609 3040 
Q 2356 3103 2088 3103 
Q 1634 3103 1373 2948 
Q 1113 2794 1113 2528 
Q 1113 2219 1719 2053 
Q 1766 2041 1788 2034 
L 1972 1978 
Q 2547 1819 2739 1644 
Q 2931 1469 2931 1166 
Q 2931 609 2489 259 
Q 2047 -91 1331 -91 
Q 1053 -91 747 -37 
Q 441 16 72 128 
L 184 722 
Q 500 559 806 475 
Q 1113 391 1394 391 
Q 1816 391 2080 572 
Q 2344 753 2344 1031 
Q 2344 1331 1650 1516 
L 1591 1531 
L 1394 1581 
Q 956 1697 753 1886 
Q 550 2075 550 2369 
Q 550 2928 970 3256 
Q 1391 3584 2113 3584 
Q 2397 3584 2667 3537 
Q 2938 3491 3200 3397 
z
" transform="scale(0.015625)"/>
       <path id="DejaVuSans-Oblique-72" d="M 2853 2969 
Q 2766 3016 2653 3041 
Q 2541 3066 2413 3066 
Q 1953 3066 1609 2717 
Q 1266 2369 1153 1784 
L 800 0 
L 225 0 
L 909 3500 
L 1484 3500 
L 1375 2956 
Q 1603 3259 1920 3421 
Q 2238 3584 2597 3584 
Q 2691 3584 2781 3573 
Q 2872 3563 2963 3538 
L 2853 2969 
z
" transform="scale(0.015625)"/>
       <path id="DejaVuSans-Oblique-48" d="M 1081 4666 
L 1716 4666 
L 1344 2753 
L 3634 2753 
L 4006 4666 
L 4641 4666 
L 3731 0 
L 3097 0 
L 3531 2222 
L 1241 2222 
L 806 0 
L 172 0 
L 1081 4666 
z
" transform="scale(0.015625)"/>
       <path id="DejaVuSans-Oblique-7a" d="M 744 3500 
L 3475 3500 
L 3372 2975 
L 738 459 
L 2913 459 
L 2822 0 
L -19 0 
L 84 525 
L 2719 3041 
L 653 3041 
L 744 3500 
z
" transform="scale(0.015625)"/>
      </defs>
      <use xlink:href="#DejaVuSans-53" transform="translate(0 0.765625)"/>
      <use xlink:href="#DejaVuSans-70" transform="translate(63.476562 0.765625)"/>
      <use xlink:href="#DejaVuSans-65" transform="translate(126.953125 0.765625)"/>
      <use xlink:href="#DejaVuSans-63" transform="translate(188.476562 0.765625)"/>
      <use xlink:href="#DejaVuSans-74" transform="translate(243.457031 0.765625)"/>
      <use xlink:href="#DejaVuSans-72" transform="translate(282.666016 0.765625)"/>
      <use xlink:href="#DejaVuSans-61" transform="translate(323.779297 0.765625)"/>
      <use xlink:href="#DejaVuSans-6c" transform="translate(385.058594 0.765625)"/>
      <use xlink:href="#DejaVuSans-20" transform="translate(412.841797 0.765625)"/>
      <use xlink:href="#DejaVuSans-72" transform="translate(444.628906 0.765625)"/>
      <use xlink:href="#DejaVuSans-61" transform="translate(485.742188 0.765625)"/>
      <use xlink:href="#DejaVuSans-64" transform="translate(547.021484 0.765625)"/>
      <use xlink:href="#DejaVuSans-69" transform="translate(610.498047 0.765625)"/>
      <use xlink:href="#DejaVuSans-61" transform="translate(638.28125 0.765625)"/>
      <use xlink:href="#DejaVuSans-6e" transform="translate(699.560547 0.765625)"/>
      <use xlink:href="#DejaVuSans-63" transform="translate(762.939453 0.765625)"/>
      <use xlink:href="#DejaVuSans-65" transform="translate(817.919922 0.765625)"/>
      <use xlink:href="#DejaVuSans-20" transform="translate(879.443359 0.765625)"/>
      <use xlink:href="#DejaVuSans-28" transform="translate(911.230469 0.765625)"/>
      <use xlink:href="#DejaVuSans-Oblique-57" transform="translate(950.244141 0.765625)"/>
      <use xlink:href="#DejaVuSans-Oblique-6d" transform="translate(1049.121094 0.765625)"/>
      <use xlink:href="#DejaVuSans-2212" transform="translate(1151.183099 39.046875) scale(0.7)"/>
      <use xlink:href="#DejaVuSans-32" transform="translate(1209.835443 39.046875) scale(0.7)"/>
      <use xlink:href="#DejaVuSans-Oblique-73" transform="translate(1257.105951 0.765625)"/>
      <use xlink:href="#DejaVuSans-Oblique-72" transform="translate(1309.20556 0.765625)"/>
      <use xlink:href="#DejaVuSans-2212" transform="translate(1354.968737 39.046875) scale(0.7)"/>
      <use xlink:href="#DejaVuSans-31" transform="translate(1413.621081 39.046875) scale(0.7)"/>
      <use xlink:href="#DejaVuSans-Oblique-48" transform="translate(1460.891589 0.765625)"/>
      <use xlink:href="#DejaVuSans-Oblique-7a" transform="translate(1536.086901 0.765625)"/>
      <use xlink:href="#DejaVuSans-2212" transform="translate(1593.043281 39.046875) scale(0.7)"/>
      <use xlink:href="#DejaVuSans-31" transform="translate(1651.695625 39.046875) scale(0.7)"/>
      <use xlink:href="#DejaVuSans-29" transform="translate(1698.966133 0.765625)"/>
     </g>
    </g>
    <g id="text_20">
     <!-- 1e−13 -->
     <g transform="translate(44.142188 32.7555) scale(0.1 -0.1)">
      <defs>
       <path id="DejaVuSans-33" d="M 2597 2516 
Q 3050 2419 3304 2112 
Q 3559 1806 3559 1356 
Q 3559 666 3084 287 
Q 2609 -91 1734 -91 
Q 1441 -91 1130 -33 
Q 819 25 488 141 
L 488 750 
Q 750 597 1062 519 
Q 1375 441 1716 441 
Q 2309 441 2620 675 
Q 2931 909 2931 1356 
Q 2931 1769 2642 2001 
Q 2353 2234 1838 2234 
L 1294 2234 
L 1294 2753 
L 1863 2753 
Q 2328 2753 2575 2939 
Q 2822 3125 2822 3475 
Q 2822 3834 2567 4026 
Q 2313 4219 1838 4219 
Q 1578 4219 1281 4162 
Q 984 4106 628 3988 
L 628 4550 
Q 988 4650 1302 4700 
Q 1616 4750 1894 4750 
Q 2613 4750 3031 4423 
Q 3450 4097 3450 3541 
Q 3450 3153 3228 2886 
Q 3006 2619 2597 2516 
z
" transform="scale(0.015625)"/>
      </defs>
      <use xlink:href="#DejaVuSans-31"/>
      <use xlink:href="#DejaVuSans-65" transform="translate(63.623047 0)"/>
      <use xlink:href="#DejaVuSans-2212" transform="translate(125.146484 0)"/>
      <use xlink:href="#DejaVuSans-31" transform="translate(208.935547 0)"/>
      <use xlink:href="#DejaVuSans-33" transform="translate(272.558594 0)"/>
     </g>
    </g>
   </g>
   <g id="line2d_35">
    <path d="M 60.374915 179.447323 
L 62.977356 179.555301 
L 63.627966 179.618908 
L 64.278577 179.44786 
L 64.929187 179.737179 
L 66.230408 179.455403 
L 66.881018 179.458581 
L 67.531628 180.20586 
L 68.832849 180.497272 
L 69.483459 179.453293 
L 70.134069 180.614584 
L 70.78468 180.898592 
L 71.43529 179.816486 
L 72.0859 179.590342 
L 72.736511 181.813446 
L 73.387121 181.584969 
L 74.037731 182.050089 
L 74.688342 182.181883 
L 75.338952 180.53251 
L 75.989562 183.265177 
L 76.640173 181.794714 
L 77.290783 182.493319 
L 77.941393 183.592837 
L 78.592003 184.304049 
L 79.242614 184.027554 
L 79.893224 184.283488 
L 80.543834 184.30381 
L 81.194445 185.593967 
L 81.845055 181.070775 
L 82.495665 184.646664 
L 83.146276 185.487834 
L 83.796886 185.594998 
L 84.447496 179.448789 
L 85.098107 179.963671 
L 85.748717 185.397731 
L 87.049938 188.705642 
L 87.700548 188.352507 
L 88.351158 179.447456 
L 89.652379 181.524604 
L 90.302989 189.919134 
L 90.953599 189.049266 
L 91.60421 191.462778 
L 92.25482 189.180246 
L 92.90543 190.619311 
L 93.556041 193.793462 
L 94.206651 190.581843 
L 94.857261 190.362499 
L 95.507872 191.802677 
L 96.158482 179.664834 
L 96.809092 194.033244 
L 97.459703 196.022832 
L 98.110313 183.930882 
L 98.760923 193.695006 
L 99.411533 193.544647 
L 100.062144 179.44731 
L 100.712754 194.072014 
L 101.363364 193.537842 
L 102.013975 198.662736 
L 102.664585 195.987211 
L 103.315195 196.366026 
L 103.965806 198.687023 
L 104.616416 199.320996 
L 105.267026 196.748151 
L 105.917637 197.533615 
L 106.568247 201.121681 
L 107.218857 179.44731 
L 107.869468 196.642403 
L 108.520078 198.01282 
L 109.170688 198.927807 
L 109.821298 203.76238 
L 110.471909 185.366178 
L 111.122519 200.149854 
L 111.773129 199.426267 
L 112.42374 203.584397 
L 113.07435 203.266042 
L 113.72496 201.8539 
L 114.375571 203.103036 
L 115.026181 208.166926 
L 115.676791 207.697008 
L 116.327402 203.202321 
L 116.978012 202.681394 
L 117.628622 200.724561 
L 118.279232 212.10691 
L 118.929843 205.562026 
L 119.580453 201.086169 
L 120.231063 216.799474 
L 120.881674 202.981221 
L 121.532284 204.879505 
L 122.182894 199.771927 
L 122.833505 208.166382 
L 123.484115 201.454572 
L 124.134725 205.377144 
L 124.785336 207.191898 
L 125.435946 204.359539 
L 126.086556 208.555661 
L 126.737167 197.459025 
L 127.387777 201.422156 
L 128.038387 206.371609 
L 128.688997 216.762199 
L 129.339608 211.936882 
L 129.990218 202.994721 
L 130.640828 199.400279 
L 131.291439 199.096914 
L 131.942049 216.607324 
L 132.592659 204.454508 
L 133.24327 205.536188 
L 133.89388 212.529504 
L 134.54449 215.089399 
L 135.195101 205.617871 
L 135.845711 204.997081 
L 136.496321 222.73093 
L 137.146932 221.64318 
L 137.797542 198.774096 
L 139.098762 209.429364 
L 139.749373 201.492658 
L 140.399983 202.461129 
L 141.050593 191.765388 
L 141.701204 220.33293 
L 142.351814 213.600745 
L 143.002424 204.805037 
L 143.653035 199.089829 
L 144.303645 218.11271 
L 144.954255 203.594002 
L 145.604866 215.780496 
L 146.255476 197.390561 
L 146.906086 203.829316 
L 147.556697 199.411412 
L 148.207307 206.777302 
L 148.857917 223.311392 
L 149.508527 224.734013 
L 150.159138 202.581329 
L 150.809748 190.987776 
L 151.460358 194.688908 
L 152.761579 215.697864 
L 153.412189 204.027275 
L 154.0628 209.13078 
L 154.71341 208.564938 
L 155.36402 234.097962 
L 156.014631 215.414241 
L 156.665241 239.441371 
L 157.315851 237.244212 
L 157.966462 257.953573 
L 158.617072 268.145061 
L 159.267682 261.190324 
L 159.918292 289.7715 
L 160.568903 179.44731 
L 161.219513 257.126946 
L 161.870123 281.306177 
L 162.520734 179.447646 
L 163.171344 183.822952 
L 163.821954 246.436385 
L 164.472565 241.766244 
L 165.123175 179.44731 
L 167.075006 179.44731 
L 167.725616 179.825164 
L 168.376226 179.447708 
L 170.978668 179.45421 
L 171.629278 179.643785 
L 172.279888 180.341905 
L 172.930499 180.605843 
L 173.581109 234.952626 
L 174.88233 285.618923 
L 175.53294 279.832615 
L 176.18355 267.570218 
L 176.834161 180.680423 
L 177.484771 284.360321 
L 178.135381 239.964396 
L 178.785991 179.448684 
L 179.436602 247.488314 
L 180.087212 274.010256 
L 180.737822 269.176058 
L 181.388433 208.781684 
L 182.039043 239.517334 
L 182.689653 242.94419 
L 183.340264 189.481465 
L 183.990874 187.223993 
L 184.641484 241.714555 
L 185.292095 204.425008 
L 185.942705 187.741381 
L 186.593315 183.314769 
L 187.243926 185.20698 
L 187.894536 182.269841 
L 188.545146 181.350239 
L 189.846367 208.507588 
L 190.496977 181.961876 
L 191.147587 196.070534 
L 191.798198 180.105659 
L 192.448808 189.784157 
L 193.099418 179.910501 
L 193.750029 179.650648 
L 194.400639 180.276929 
L 195.051249 179.638316 
L 195.70186 179.571695 
L 196.35247 179.813328 
L 197.00308 180.833723 
L 197.653691 179.683648 
L 198.304301 181.564186 
L 198.954911 188.40248 
L 199.605521 179.769786 
L 200.256132 179.620516 
L 200.906742 179.862249 
L 201.557352 180.45906 
L 202.207963 179.614708 
L 202.858573 186.410699 
L 203.509183 179.941228 
L 204.159794 180.829135 
L 204.810404 180.760205 
L 205.461014 179.513755 
L 206.111625 179.700901 
L 206.762235 181.010978 
L 207.412845 184.671295 
L 208.063455 182.083976 
L 208.714066 180.240802 
L 209.364676 184.641413 
L 210.015286 186.799292 
L 210.665897 179.774461 
L 211.316507 179.649543 
L 211.967117 179.677907 
L 212.617728 180.191741 
L 213.268338 203.984706 
L 213.918948 180.511905 
L 214.569559 179.972971 
L 215.220169 184.627674 
L 215.870779 179.713805 
L 216.52139 179.617637 
L 217.172 181.440701 
L 217.82261 188.424892 
L 218.47322 183.03565 
L 219.123831 223.884939 
L 219.774441 179.897842 
L 220.425051 180.808412 
L 221.075662 179.949569 
L 221.726272 179.655912 
L 222.376882 180.209297 
L 223.027493 179.927338 
L 223.678103 179.517215 
L 224.328713 181.094155 
L 224.979324 215.414522 
L 225.629934 180.072449 
L 226.280544 179.533261 
L 226.931155 179.589651 
L 227.581765 200.287832 
L 228.232375 179.631933 
L 228.882985 180.054295 
L 229.533596 196.944643 
L 230.184206 180.900685 
L 230.834816 185.930953 
L 231.485427 181.295821 
L 232.136037 187.529836 
L 232.786647 214.564179 
L 233.437258 188.496579 
L 234.087868 184.489827 
L 234.738478 220.505471 
L 235.389089 219.548152 
L 236.039699 180.468121 
L 236.690309 180.298472 
L 237.34092 182.561748 
L 237.99153 179.809899 
L 238.64214 180.701732 
L 239.29275 182.909284 
L 239.943361 210.398621 
L 240.593971 182.15992 
L 241.244581 181.481614 
L 241.895192 180.042582 
L 242.545802 180.553035 
L 243.196412 179.717198 
L 243.847023 179.929653 
L 244.497633 186.015094 
L 245.148243 181.294717 
L 245.798854 179.820655 
L 246.449464 180.0521 
L 247.100074 182.104608 
L 247.750684 181.405394 
L 248.401295 179.825841 
L 249.051905 182.352231 
L 249.702515 182.433554 
L 250.353126 181.834162 
L 251.003736 207.627171 
L 251.654346 187.083594 
L 252.304957 180.855763 
L 252.955567 203.433786 
L 253.606177 182.759601 
L 254.256788 181.294095 
L 254.907398 195.962063 
L 255.558008 180.350589 
L 256.208619 182.063996 
L 256.859229 196.123881 
L 257.509839 193.180925 
L 258.160449 201.997195 
L 258.81106 189.455632 
L 259.46167 199.713188 
L 260.11228 180.585335 
L 260.762891 180.652108 
L 261.413501 185.537998 
L 262.064111 199.285377 
L 262.714722 189.540597 
L 263.365332 191.973578 
L 264.015942 196.37825 
L 264.666553 206.53299 
L 265.317163 193.172834 
L 265.967773 201.201587 
L 266.618384 203.555786 
L 267.268994 190.426831 
L 267.919604 187.526957 
L 268.570214 189.594268 
L 269.220825 197.7764 
L 269.871435 195.753208 
L 270.522045 209.657014 
L 271.172656 185.564663 
L 271.823266 185.629178 
L 272.473876 200.687708 
L 273.124487 195.327919 
L 273.775097 199.34518 
L 274.425707 187.424471 
L 275.076318 196.541779 
L 275.726928 194.834236 
L 276.377538 193.779835 
L 277.028149 195.460062 
L 277.678759 192.158825 
L 278.329369 198.201175 
L 278.979979 197.842529 
L 279.63059 195.266208 
L 280.2812 189.968424 
L 280.93181 194.910477 
L 281.582421 183.733311 
L 282.233031 197.997214 
L 282.883641 191.682565 
L 283.534252 179.874032 
L 284.184862 195.920401 
L 284.835472 196.39115 
L 285.486083 189.173763 
L 286.136693 191.894993 
L 286.787303 189.745169 
L 287.437913 183.233999 
L 288.088524 191.583578 
L 288.739134 193.156285 
L 289.389744 192.892026 
L 290.040355 190.287915 
L 290.690965 184.355347 
L 291.341575 190.079963 
L 291.992186 191.235758 
L 292.642796 189.504659 
L 293.293406 189.093608 
L 293.944017 191.731723 
L 294.594627 191.843939 
L 295.245237 189.185248 
L 295.895848 191.114509 
L 296.546458 183.895508 
L 297.197068 182.006606 
L 297.847678 188.4973 
L 298.498289 189.727889 
L 299.148899 185.163683 
L 300.45012 187.792913 
L 301.10073 187.679645 
L 301.75134 181.337829 
L 302.401951 184.293621 
L 303.052561 185.860005 
L 303.703171 184.868565 
L 304.353782 186.46239 
L 305.004392 180.84818 
L 305.655002 185.410971 
L 306.305613 183.599911 
L 306.956223 185.235035 
L 307.606833 183.888397 
L 308.257443 180.162138 
L 308.908054 184.694784 
L 309.558664 184.90222 
L 310.209274 180.241408 
L 310.859885 182.81673 
L 311.510495 185.852565 
L 312.161105 186.452256 
L 312.811716 183.777665 
L 313.462326 181.809298 
L 314.112936 185.53584 
L 314.763547 184.621905 
L 315.414157 185.542902 
L 316.064767 182.974364 
L 316.715378 185.753824 
L 317.365988 184.495825 
L 318.016598 187.481173 
L 318.667208 185.202389 
L 319.317819 185.942863 
L 319.968429 185.321601 
L 320.619039 182.657101 
L 321.26965 182.761936 
L 321.92026 186.58693 
L 322.57087 183.505149 
L 323.221481 184.084149 
L 323.872091 179.751331 
L 325.173312 184.100052 
L 325.823922 179.944883 
L 326.474532 184.603983 
L 327.125143 183.294783 
L 327.775753 179.646798 
L 328.426363 181.825481 
L 329.076973 182.625782 
L 329.727584 183.628525 
L 330.378194 182.475974 
L 331.028804 183.604929 
L 331.679415 179.44731 
L 332.330025 179.44731 
L 332.980635 181.948269 
L 333.631246 180.851224 
L 334.281856 183.259746 
L 334.932466 183.486145 
L 335.583077 179.67155 
L 336.233687 179.566963 
L 336.884297 182.300163 
L 337.534907 182.14327 
L 338.185518 183.997332 
L 338.836128 181.455309 
L 339.486738 182.340603 
L 340.137349 181.538672 
L 340.787959 183.632019 
L 341.438569 182.14442 
L 342.08918 181.697031 
L 343.3904 179.447312 
L 344.041011 181.141873 
L 344.691621 180.846165 
L 345.342231 182.833221 
L 345.992842 183.683067 
L 347.944672 180.869734 
L 348.595283 179.685922 
L 349.245893 183.062294 
L 349.896503 182.771257 
L 350.547114 184.29181 
L 351.197724 181.611891 
L 351.848334 180.911994 
L 352.498945 179.928492 
L 353.149555 183.582697 
L 353.800165 179.831035 
L 354.450776 183.035568 
L 355.101386 183.757201 
L 355.751996 183.521976 
L 356.402607 182.534452 
L 357.053217 183.036671 
L 357.703827 182.940464 
L 358.354437 183.115625 
L 359.005048 182.950387 
L 359.655658 180.717126 
L 360.306268 179.566604 
L 360.956879 183.552835 
L 361.607489 183.504612 
L 362.258099 182.059418 
L 362.90871 183.798758 
L 363.55932 179.883328 
L 364.20993 182.913265 
L 364.860541 183.174167 
L 366.161761 183.041019 
L 366.812372 182.486762 
L 367.462982 182.860223 
L 368.113592 182.402805 
L 368.764202 183.119067 
L 369.414813 182.911951 
L 370.065423 180.458678 
L 370.716033 183.560209 
L 371.366644 182.681471 
L 372.667864 182.065233 
L 373.318475 183.15971 
L 373.969085 182.686006 
L 374.619695 182.876616 
L 375.270306 182.752178 
L 375.920916 181.985481 
L 376.571526 183.298625 
L 377.222136 182.221657 
L 377.872747 183.119812 
L 378.523357 182.32763 
L 379.173967 182.442269 
L 379.824578 181.537699 
L 380.475188 181.362331 
L 381.125798 182.810915 
L 381.776409 180.503009 
L 382.427019 181.369083 
L 383.077629 181.642446 
L 383.72824 180.131613 
L 384.37885 182.415099 
L 385.02946 182.963388 
L 385.02946 182.963388 
" clip-path="url(#pc505a050bf)" style="fill: none; stroke: #1f77b4; stroke-width: 0.7; stroke-linecap: square"/>
   </g>
   <g id="line2d_36">
    <path d="M 60.374915 179.447323 
L 64.929187 179.422959 
L 65.579797 179.345075 
L 68.182239 179.659503 
L 68.832849 179.620709 
L 70.134069 179.347889 
L 70.78468 179.466354 
L 71.43529 179.174498 
L 72.0859 179.350749 
L 72.736511 180.223144 
L 73.387121 179.515623 
L 74.037731 179.847757 
L 74.688342 179.730077 
L 75.338952 178.728328 
L 75.989562 180.742843 
L 76.640173 177.80553 
L 77.290783 178.542822 
L 77.941393 180.027431 
L 78.592003 180.650194 
L 79.242614 180.460601 
L 79.893224 179.952081 
L 80.543834 179.194066 
L 81.194445 180.995657 
L 81.845055 178.268953 
L 82.495665 178.446023 
L 83.146276 179.376159 
L 83.796886 178.696561 
L 84.447496 179.446586 
L 85.098107 179.138157 
L 85.748717 175.037262 
L 86.399327 179.311354 
L 87.049938 181.841734 
L 87.700548 179.709439 
L 88.351158 179.447249 
L 89.001768 178.583427 
L 89.652379 177.966106 
L 90.302989 180.327511 
L 90.953599 177.994593 
L 91.60421 183.333206 
L 92.25482 178.722414 
L 92.90543 178.401399 
L 93.556041 183.618598 
L 94.206651 176.863507 
L 95.507872 177.689047 
L 96.809092 181.009801 
L 97.459703 183.713203 
L 98.110313 176.363213 
L 98.760923 176.808301 
L 99.411533 176.009639 
L 100.062144 179.44731 
L 101.363364 175.912647 
L 102.013975 183.765244 
L 102.664585 176.63005 
L 103.315195 178.958353 
L 103.965806 178.993254 
L 104.616416 180.434464 
L 105.267026 168.476893 
L 105.917637 177.947303 
L 106.568247 183.010343 
L 107.218857 179.44731 
L 107.869468 171.263396 
L 108.520078 175.396049 
L 109.170688 178.696165 
L 109.821298 184.714802 
L 110.471909 175.504546 
L 111.122519 174.207754 
L 111.773129 171.140506 
L 112.42374 179.241122 
L 113.07435 180.239721 
L 113.72496 177.177491 
L 114.375571 175.303118 
L 115.026181 183.242034 
L 115.676791 183.880417 
L 116.327402 171.052737 
L 116.978012 180.323028 
L 117.628622 173.237964 
L 118.279232 189.793357 
L 119.580453 160.430703 
L 120.231063 193.019487 
L 120.881674 172.61397 
L 121.532284 173.791154 
L 122.182894 154.689578 
L 122.833505 178.028179 
L 123.484115 155.709597 
L 124.134725 174.078881 
L 124.785336 183.12443 
L 125.435946 166.346529 
L 126.086556 173.318426 
L 126.737167 140.165183 
L 127.387777 148.968621 
L 128.038387 179.539327 
L 128.688997 184.670246 
L 129.339608 181.093234 
L 129.990218 143.311377 
L 130.640828 137.249167 
L 131.291439 139.492056 
L 131.942049 184.67434 
L 132.592659 154.989693 
L 133.24327 153.679108 
L 133.89388 173.541889 
L 134.54449 188.149574 
L 135.845711 142.654642 
L 136.496321 179.175024 
L 137.146932 184.773517 
L 137.797542 116.948249 
L 138.448152 133.913866 
L 139.098762 154.044856 
L 139.749373 137.330033 
L 140.399983 135.365407 
L 141.050593 84.610636 
L 141.701204 184.236608 
L 143.002424 134.770018 
L 143.653035 115.213361 
L 144.303645 185.610851 
L 144.954255 127.510177 
L 145.604866 179.723832 
L 146.255476 101.173316 
L 146.906086 121.280924 
L 147.556697 102.69571 
L 148.207307 121.079793 
L 148.857917 174.023747 
L 149.508527 186.717087 
L 150.159138 108.360386 
L 150.809748 70.402596 
L 151.460358 74.453911 
L 152.761579 155.550285 
L 153.412189 106.78865 
L 154.0628 117.152205 
L 154.71341 130.345878 
L 155.36402 133.472494 
L 156.014631 132.841791 
L 156.665241 154.349269 
L 157.315851 155.352848 
L 157.966462 155.816142 
L 158.617072 158.180565 
L 159.267682 140.722403 
L 159.918292 191.342541 
L 160.568903 179.44731 
L 161.219513 145.953596 
L 161.870123 178.815247 
L 162.520734 179.447126 
L 163.171344 176.097789 
L 163.821954 152.079502 
L 164.472565 145.182511 
L 165.123175 179.44731 
L 167.075006 179.44731 
L 167.725616 179.185442 
L 168.376226 179.447152 
L 170.978668 179.444192 
L 171.629278 179.327615 
L 172.279888 178.756433 
L 172.930499 178.562081 
L 173.581109 146.012222 
L 174.231719 176.592701 
L 174.88233 194.416643 
L 175.53294 186.407612 
L 176.18355 164.994855 
L 176.834161 178.625991 
L 177.484771 175.397523 
L 178.135381 103.459327 
L 178.785991 179.446426 
L 179.436602 119.134041 
L 180.087212 162.123341 
L 180.737822 173.760889 
L 181.388433 76.2419 
L 182.039043 112.519516 
L 182.689653 135.824695 
L 183.340264 61.555923 
L 183.990874 58.484196 
L 184.641484 115.292094 
L 185.292095 118.310802 
L 185.942705 60.878357 
L 186.593315 55.785057 
L 187.243926 56.260083 
L 188.545146 49.677356 
L 189.195756 95.080222 
L 189.846367 117.178011 
L 190.496977 53.601272 
L 191.147587 72.292598 
L 191.798198 48.329633 
L 192.448808 77.413518 
L 193.099418 47.984314 
L 193.750029 47.8515 
L 194.400639 49.745399 
L 195.051249 48.309607 
L 195.70186 48.388416 
L 196.35247 49.362429 
L 197.00308 51.922909 
L 197.653691 49.410406 
L 198.304301 55.06807 
L 198.954911 76.264648 
L 199.605521 50.840019 
L 200.256132 50.410989 
L 200.906742 51.559929 
L 201.557352 74.12487 
L 202.207963 72.615512 
L 202.858573 70.174266 
L 203.509183 73.819141 
L 204.159794 75.851901 
L 204.810404 76.326199 
L 205.461014 73.847162 
L 206.111625 74.506706 
L 206.762235 76.877019 
L 207.412845 88.825697 
L 208.063455 80.861429 
L 208.714066 76.832304 
L 209.364676 87.913936 
L 210.015286 92.470645 
L 210.665897 76.990861 
L 211.316507 77.039152 
L 211.967117 77.424556 
L 212.617728 78.560966 
L 213.268338 91.135687 
L 213.918948 80.06313 
L 214.569559 79.461054 
L 215.220169 86.424866 
L 215.870779 79.804209 
L 216.52139 80.022951 
L 217.172 83.272678 
L 217.82261 93.614777 
L 218.47322 86.522006 
L 219.123831 116.879169 
L 219.774441 82.552143 
L 220.425051 84.241695 
L 221.075662 83.669516 
L 221.726272 83.62914 
L 222.376882 85.241102 
L 223.027493 84.601277 
L 223.678103 84.558194 
L 224.328713 88.833143 
L 224.979324 164.312609 
L 225.629934 87.126812 
L 226.280544 86.38235 
L 226.931155 86.949785 
L 227.581765 114.533303 
L 228.232375 87.897813 
L 228.882985 89.296741 
L 229.533596 124.443013 
L 230.184206 91.125286 
L 230.834816 98.90534 
L 231.485427 92.618529 
L 232.136037 107.933773 
L 232.786647 149.059698 
L 233.437258 110.901622 
L 234.087868 98.942248 
L 234.738478 143.673426 
L 235.389089 129.661927 
L 236.039699 94.900493 
L 236.690309 95.21783 
L 237.34092 101.26493 
L 237.99153 95.496255 
L 238.64214 97.91407 
L 239.29275 102.130801 
L 239.943361 174.674262 
L 240.593971 102.484098 
L 241.244581 101.339905 
L 241.895192 99.174288 
L 242.545802 100.732284 
L 243.196412 114.970811 
L 243.847023 115.730813 
L 244.497633 114.047834 
L 245.148243 104.39345 
L 245.798854 116.766467 
L 246.449464 117.558179 
L 247.100074 107.689522 
L 247.750684 120.627468 
L 248.401295 118.363527 
L 249.051905 122.535251 
L 249.702515 110.12639 
L 250.353126 122.98474 
L 251.003736 176.566135 
L 251.654346 120.677279 
L 252.304957 122.534102 
L 252.955567 170.377358 
L 253.606177 126.435804 
L 254.256788 124.385788 
L 254.907398 142.889999 
L 255.558008 123.672302 
L 256.208619 126.915725 
L 256.859229 139.730494 
L 257.509839 138.65819 
L 258.160449 158.850025 
L 258.81106 130.679355 
L 259.46167 149.805145 
L 260.11228 126.863728 
L 260.762891 127.353008 
L 261.413501 127.642665 
L 262.064111 163.481066 
L 262.714722 130.647923 
L 263.365332 137.122711 
L 264.015942 146.608062 
L 264.666553 171.982829 
L 265.317163 144.853357 
L 265.967773 164.869079 
L 266.618384 174.854136 
L 267.268994 139.271891 
L 267.919604 136.02694 
L 268.570214 138.90043 
L 269.220825 168.015706 
L 269.871435 159.071945 
L 270.522045 172.042197 
L 271.172656 133.3439 
L 271.823266 133.851116 
L 272.473876 166.286859 
L 273.124487 157.187343 
L 273.775097 180.669064 
L 274.425707 179.94386 
L 275.076318 168.716767 
L 275.726928 153.27429 
L 276.377538 153.981005 
L 277.028149 164.888943 
L 277.678759 179.453363 
L 278.329369 171.144915 
L 278.979979 172.523136 
L 279.63059 161.382509 
L 280.2812 176.994695 
L 280.93181 176.80927 
L 281.582421 177.779171 
L 282.233031 177.396803 
L 282.883641 175.446065 
L 283.534252 179.116049 
L 284.184862 177.608597 
L 284.835472 175.253825 
L 285.486083 179.707045 
L 286.136693 180.130087 
L 286.787303 180.794435 
L 287.437913 178.339349 
L 288.088524 174.448573 
L 288.739134 176.340782 
L 289.389744 176.694116 
L 290.040355 175.027118 
L 290.690965 179.415306 
L 291.341575 180.130448 
L 291.992186 175.168122 
L 292.642796 176.869458 
L 293.293406 179.182036 
L 293.944017 180.056871 
L 294.594627 174.674445 
L 295.245237 180.34133 
L 297.197068 178.089974 
L 298.498289 179.47482 
L 299.799509 177.743969 
L 300.45012 173.478113 
L 301.10073 173.305864 
L 301.75134 177.885566 
L 302.401951 178.470457 
L 303.703171 180.306564 
L 304.353782 178.768216 
L 305.004392 178.51268 
L 305.655002 177.570787 
L 306.305613 177.580118 
L 306.956223 179.368722 
L 308.257443 178.926954 
L 308.908054 178.275924 
L 309.558664 179.325043 
L 310.209274 178.831785 
L 310.859885 179.107262 
L 311.510495 178.078187 
L 312.161105 179.88901 
L 312.811716 178.921491 
L 313.462326 178.744359 
L 314.112936 179.569606 
L 314.763547 177.326143 
L 315.414157 179.799158 
L 316.064767 179.753789 
L 316.715378 178.649055 
L 317.365988 176.989811 
L 318.016598 173.490608 
L 318.667208 176.409434 
L 319.317819 176.340689 
L 319.968429 167.571368 
L 320.619039 179.819006 
L 321.26965 178.23233 
L 321.92026 178.40581 
L 322.57087 179.803822 
L 323.221481 178.680132 
L 323.872091 179.247226 
L 324.522701 178.705188 
L 325.173312 177.036025 
L 325.823922 179.118365 
L 326.474532 179.117896 
L 327.125143 177.553698 
L 327.775753 179.309475 
L 328.426363 179.177273 
L 329.076973 179.306678 
L 329.727584 177.263303 
L 330.378194 179.400674 
L 332.330025 179.44731 
L 332.980635 178.573266 
L 334.281856 179.501919 
L 334.932466 178.644628 
L 335.583077 179.285362 
L 336.233687 179.368285 
L 337.534907 178.466311 
L 338.185518 179.361812 
L 338.836128 179.223374 
L 339.486738 179.365177 
L 340.137349 179.704923 
L 340.787959 177.85168 
L 341.438569 178.266337 
L 342.08918 179.201041 
L 343.3904 179.447309 
L 344.041011 179.134591 
L 344.691621 179.269007 
L 345.342231 178.503626 
L 345.992842 179.3228 
L 346.643452 178.386851 
L 347.944672 179.246161 
L 348.595283 179.284741 
L 349.245893 179.473396 
L 349.896503 178.811042 
L 351.197724 179.364573 
L 351.848334 178.794874 
L 352.498945 179.117197 
L 353.149555 178.297347 
L 353.800165 179.171998 
L 354.450776 179.549735 
L 355.101386 175.966232 
L 355.751996 175.067381 
L 356.402607 178.554117 
L 357.053217 179.759236 
L 357.703827 179.614232 
L 358.354437 179.186981 
L 359.005048 177.40199 
L 359.655658 179.437305 
L 360.306268 179.368148 
L 360.956879 176.856471 
L 361.607489 175.406416 
L 362.258099 178.559556 
L 362.90871 178.322587 
L 363.55932 179.264334 
L 364.20993 178.819344 
L 364.860541 175.192835 
L 365.511151 179.626111 
L 366.161761 178.062845 
L 366.812372 178.185582 
L 367.462982 178.044934 
L 368.113592 179.396896 
L 368.764202 174.38101 
L 369.414813 178.219203 
L 370.065423 179.217188 
L 370.716033 179.352262 
L 371.366644 178.467796 
L 372.017254 178.775548 
L 372.667864 179.399251 
L 373.318475 178.338809 
L 373.969085 175.467426 
L 374.619695 175.332969 
L 375.270306 177.489598 
L 375.920916 178.678309 
L 376.571526 177.73288 
L 377.222136 174.442665 
L 377.872747 178.674036 
L 378.523357 174.993039 
L 379.173967 175.609024 
L 379.824578 179.143635 
L 380.475188 173.295633 
L 381.125798 177.978158 
L 381.776409 173.000007 
L 382.427019 174.638596 
L 383.077629 179.211433 
L 383.72824 179.276908 
L 384.37885 176.371779 
L 385.02946 177.778479 
L 385.02946 177.778479 
" clip-path="url(#pc505a050bf)" style="fill: none; stroke: #ff7f0e; stroke-width: 0.7; stroke-linecap: square"/>
   </g>
   <g id="patch_3">
    <path d="M 44.142188 301.8675 
L 44.142188 35.7555 
" style="fill: none; stroke: #000000; stroke-width: 0.8; stroke-linejoin: miter; stroke-linecap: square"/>
   </g>
   <g id="patch_4">
    <path d="M 401.262187 301.8675 
L 401.262187 35.7555 
" style="fill: none; stroke: #000000; stroke-width: 0.8; stroke-linejoin: miter; stroke-linecap: square"/>
   </g>
   <g id="patch_5">
    <path d="M 44.142188 301.8675 
L 401.262188 301.8675 
" style="fill: none; stroke: #000000; stroke-width: 0.8; stroke-linejoin: miter; stroke-linecap: square"/>
   </g>
   <g id="patch_6">
    <path d="M 44.142188 35.7555 
L 401.262188 35.7555 
" style="fill: none; stroke: #000000; stroke-width: 0.8; stroke-linejoin: miter; stroke-linecap: square"/>
   </g>
   <g id="text_21">
    <!-- OLR at TOA minus OLR at emission height for  -->
    <g transform="translate(84.4125 16.318125) scale(0.12 -0.12)">
     <defs>
      <path id="DejaVuSans-4f" d="M 2522 4238 
Q 1834 4238 1429 3725 
Q 1025 3213 1025 2328 
Q 1025 1447 1429 934 
Q 1834 422 2522 422 
Q 3209 422 3611 934 
Q 4013 1447 4013 2328 
Q 4013 3213 3611 3725 
Q 3209 4238 2522 4238 
z
M 2522 4750 
Q 3503 4750 4090 4092 
Q 4678 3434 4678 2328 
Q 4678 1225 4090 567 
Q 3503 -91 2522 -91 
Q 1538 -91 948 565 
Q 359 1222 359 2328 
Q 359 3434 948 4092 
Q 1538 4750 2522 4750 
z
" transform="scale(0.015625)"/>
      <path id="DejaVuSans-4c" d="M 628 4666 
L 1259 4666 
L 1259 531 
L 3531 531 
L 3531 0 
L 628 0 
L 628 4666 
z
" transform="scale(0.015625)"/>
      <path id="DejaVuSans-52" d="M 2841 2188 
Q 3044 2119 3236 1894 
Q 3428 1669 3622 1275 
L 4263 0 
L 3584 0 
L 2988 1197 
Q 2756 1666 2539 1819 
Q 2322 1972 1947 1972 
L 1259 1972 
L 1259 0 
L 628 0 
L 628 4666 
L 2053 4666 
Q 2853 4666 3247 4331 
Q 3641 3997 3641 3322 
Q 3641 2881 3436 2590 
Q 3231 2300 2841 2188 
z
M 1259 4147 
L 1259 2491 
L 2053 2491 
Q 2509 2491 2742 2702 
Q 2975 2913 2975 3322 
Q 2975 3731 2742 3939 
Q 2509 4147 2053 4147 
L 1259 4147 
z
" transform="scale(0.015625)"/>
      <path id="DejaVuSans-54" d="M -19 4666 
L 3928 4666 
L 3928 4134 
L 2272 4134 
L 2272 0 
L 1638 0 
L 1638 4134 
L -19 4134 
L -19 4666 
z
" transform="scale(0.015625)"/>
      <path id="DejaVuSans-41" d="M 2188 4044 
L 1331 1722 
L 3047 1722 
L 2188 4044 
z
M 1831 4666 
L 2547 4666 
L 4325 0 
L 3669 0 
L 3244 1197 
L 1141 1197 
L 716 0 
L 50 0 
L 1831 4666 
z
" transform="scale(0.015625)"/>
      <path id="DejaVuSans-6f" d="M 1959 3097 
Q 1497 3097 1228 2736 
Q 959 2375 959 1747 
Q 959 1119 1226 758 
Q 1494 397 1959 397 
Q 2419 397 2687 759 
Q 2956 1122 2956 1747 
Q 2956 2369 2687 2733 
Q 2419 3097 1959 3097 
z
M 1959 3584 
Q 2709 3584 3137 3096 
Q 3566 2609 3566 1747 
Q 3566 888 3137 398 
Q 2709 -91 1959 -91 
Q 1206 -91 779 398 
Q 353 888 353 1747 
Q 353 2609 779 3096 
Q 1206 3584 1959 3584 
z
" transform="scale(0.015625)"/>
      <path id="DejaVuSans-68" d="M 3513 2113 
L 3513 0 
L 2938 0 
L 2938 2094 
Q 2938 2591 2744 2837 
Q 2550 3084 2163 3084 
Q 1697 3084 1428 2787 
Q 1159 2491 1159 1978 
L 1159 0 
L 581 0 
L 581 4863 
L 1159 4863 
L 1159 2956 
Q 1366 3272 1645 3428 
Q 1925 3584 2291 3584 
Q 2894 3584 3203 3211 
Q 3513 2838 3513 2113 
z
" transform="scale(0.015625)"/>
      <path id="DejaVuSans-67" d="M 2906 1791 
Q 2906 2416 2648 2759 
Q 2391 3103 1925 3103 
Q 1463 3103 1205 2759 
Q 947 2416 947 1791 
Q 947 1169 1205 825 
Q 1463 481 1925 481 
Q 2391 481 2648 825 
Q 2906 1169 2906 1791 
z
M 3481 434 
Q 3481 -459 3084 -895 
Q 2688 -1331 1869 -1331 
Q 1566 -1331 1297 -1286 
Q 1028 -1241 775 -1147 
L 775 -588 
Q 1028 -725 1275 -790 
Q 1522 -856 1778 -856 
Q 2344 -856 2625 -561 
Q 2906 -266 2906 331 
L 2906 616 
Q 2728 306 2450 153 
Q 2172 0 1784 0 
Q 1141 0 747 490 
Q 353 981 353 1791 
Q 353 2603 747 3093 
Q 1141 3584 1784 3584 
Q 2172 3584 2450 3431 
Q 2728 3278 2906 2969 
L 2906 3500 
L 3481 3500 
L 3481 434 
z
" transform="scale(0.015625)"/>
      <path id="DejaVuSans-66" d="M 2375 4863 
L 2375 4384 
L 1825 4384 
Q 1516 4384 1395 4259 
Q 1275 4134 1275 3809 
L 1275 3500 
L 2222 3500 
L 2222 3053 
L 1275 3053 
L 1275 0 
L 697 0 
L 697 3053 
L 147 3053 
L 147 3500 
L 697 3500 
L 697 3744 
Q 697 4328 969 4595 
Q 1241 4863 1831 4863 
L 2375 4863 
z
" transform="scale(0.015625)"/>
     </defs>
     <use xlink:href="#DejaVuSans-4f"/>
     <use xlink:href="#DejaVuSans-4c" transform="translate(78.710938 0)"/>
     <use xlink:href="#DejaVuSans-52" transform="translate(134.423828 0)"/>
     <use xlink:href="#DejaVuSans-20" transform="translate(203.90625 0)"/>
     <use xlink:href="#DejaVuSans-61" transform="translate(235.693359 0)"/>
     <use xlink:href="#DejaVuSans-74" transform="translate(296.972656 0)"/>
     <use xlink:href="#DejaVuSans-20" transform="translate(336.181641 0)"/>
     <use xlink:href="#DejaVuSans-54" transform="translate(367.96875 0)"/>
     <use xlink:href="#DejaVuSans-4f" transform="translate(429.052734 0)"/>
     <use xlink:href="#DejaVuSans-41" transform="translate(506.013672 0)"/>
     <use xlink:href="#DejaVuSans-20" transform="translate(574.421875 0)"/>
     <use xlink:href="#DejaVuSans-6d" transform="translate(606.208984 0)"/>
     <use xlink:href="#DejaVuSans-69" transform="translate(703.621094 0)"/>
     <use xlink:href="#DejaVuSans-6e" transform="translate(731.404297 0)"/>
     <use xlink:href="#DejaVuSans-75" transform="translate(794.783203 0)"/>
     <use xlink:href="#DejaVuSans-73" transform="translate(858.162109 0)"/>
     <use xlink:href="#DejaVuSans-20" transform="translate(910.261719 0)"/>
     <use xlink:href="#DejaVuSans-4f" transform="translate(942.048828 0)"/>
     <use xlink:href="#DejaVuSans-4c" transform="translate(1020.759766 0)"/>
     <use xlink:href="#DejaVuSans-52" transform="translate(1076.472656 0)"/>
     <use xlink:href="#DejaVuSans-20" transform="translate(1145.955078 0)"/>
     <use xlink:href="#DejaVuSans-61" transform="translate(1177.742188 0)"/>
     <use xlink:href="#DejaVuSans-74" transform="translate(1239.021484 0)"/>
     <use xlink:href="#DejaVuSans-20" transform="translate(1278.230469 0)"/>
     <use xlink:href="#DejaVuSans-65" transform="translate(1310.017578 0)"/>
     <use xlink:href="#DejaVuSans-6d" transform="translate(1371.541016 0)"/>
     <use xlink:href="#DejaVuSans-69" transform="translate(1468.953125 0)"/>
     <use xlink:href="#DejaVuSans-73" transform="translate(1496.736328 0)"/>
     <use xlink:href="#DejaVuSans-73" transform="translate(1548.835938 0)"/>
     <use xlink:href="#DejaVuSans-69" transform="translate(1600.935547 0)"/>
     <use xlink:href="#DejaVuSans-6f" transform="translate(1628.71875 0)"/>
     <use xlink:href="#DejaVuSans-6e" transform="translate(1689.900391 0)"/>
     <use xlink:href="#DejaVuSans-20" transform="translate(1753.279297 0)"/>
     <use xlink:href="#DejaVuSans-68" transform="translate(1785.066406 0)"/>
     <use xlink:href="#DejaVuSans-65" transform="translate(1848.445312 0)"/>
     <use xlink:href="#DejaVuSans-69" transform="translate(1909.96875 0)"/>
     <use xlink:href="#DejaVuSans-67" transform="translate(1937.751953 0)"/>
     <use xlink:href="#DejaVuSans-68" transform="translate(2001.228516 0)"/>
     <use xlink:href="#DejaVuSans-74" transform="translate(2064.607422 0)"/>
     <use xlink:href="#DejaVuSans-20" transform="translate(2103.816406 0)"/>
     <use xlink:href="#DejaVuSans-66" transform="translate(2135.603516 0)"/>
     <use xlink:href="#DejaVuSans-6f" transform="translate(2170.808594 0)"/>
     <use xlink:href="#DejaVuSans-72" transform="translate(2231.990234 0)"/>
     <use xlink:href="#DejaVuSans-20" transform="translate(2273.103516 0)"/>
    </g>
    <!--  (H2O_CO2) -->
    <g transform="translate(187.330313 29.7555) scale(0.12 -0.12)">
     <defs>
      <path id="DejaVuSans-48" d="M 628 4666 
L 1259 4666 
L 1259 2753 
L 3553 2753 
L 3553 4666 
L 4184 4666 
L 4184 0 
L 3553 0 
L 3553 2222 
L 1259 2222 
L 1259 0 
L 628 0 
L 628 4666 
z
" transform="scale(0.015625)"/>
      <path id="DejaVuSans-5f" d="M 3263 -1063 
L 3263 -1509 
L -63 -1509 
L -63 -1063 
L 3263 -1063 
z
" transform="scale(0.015625)"/>
      <path id="DejaVuSans-43" d="M 4122 4306 
L 4122 3641 
Q 3803 3938 3442 4084 
Q 3081 4231 2675 4231 
Q 1875 4231 1450 3742 
Q 1025 3253 1025 2328 
Q 1025 1406 1450 917 
Q 1875 428 2675 428 
Q 3081 428 3442 575 
Q 3803 722 4122 1019 
L 4122 359 
Q 3791 134 3420 21 
Q 3050 -91 2638 -91 
Q 1578 -91 968 557 
Q 359 1206 359 2328 
Q 359 3453 968 4101 
Q 1578 4750 2638 4750 
Q 3056 4750 3426 4639 
Q 3797 4528 4122 4306 
z
" transform="scale(0.015625)"/>
     </defs>
     <use xlink:href="#DejaVuSans-20"/>
     <use xlink:href="#DejaVuSans-28" transform="translate(31.787109 0)"/>
     <use xlink:href="#DejaVuSans-48" transform="translate(70.800781 0)"/>
     <use xlink:href="#DejaVuSans-32" transform="translate(145.996094 0)"/>
     <use xlink:href="#DejaVuSans-4f" transform="translate(209.619141 0)"/>
     <use xlink:href="#DejaVuSans-5f" transform="translate(288.330078 0)"/>
     <use xlink:href="#DejaVuSans-43" transform="translate(338.330078 0)"/>
     <use xlink:href="#DejaVuSans-4f" transform="translate(408.154297 0)"/>
     <use xlink:href="#DejaVuSans-32" transform="translate(486.865234 0)"/>
     <use xlink:href="#DejaVuSans-29" transform="translate(550.488281 0)"/>
    </g>
   </g>
   <g id="legend_1">
    <g id="patch_7">
     <path d="M 262.955938 296.8675 
L 394.262187 296.8675 
Q 396.262187 296.8675 396.262187 294.8675 
L 396.262187 266.51125 
Q 396.262187 264.51125 394.262187 264.51125 
L 262.955938 264.51125 
Q 260.955938 264.51125 260.955938 266.51125 
L 260.955938 294.8675 
Q 260.955938 296.8675 262.955938 296.8675 
z
" style="fill: #ffffff; opacity: 0.8; stroke: #cccccc; stroke-linejoin: miter"/>
    </g>
    <g id="line2d_37">
     <path d="M 264.955938 272.609687 
L 274.955938 272.609687 
L 284.955938 272.609687 
" style="fill: none; stroke: #1f77b4; stroke-width: 0.7; stroke-linecap: square"/>
    </g>
    <g id="text_22">
     <!-- difference to ARTS -->
     <g transform="translate(292.955938 276.109687) scale(0.1 -0.1)">
      <use xlink:href="#DejaVuSans-64"/>
      <use xlink:href="#DejaVuSans-69" transform="translate(63.476562 0)"/>
      <use xlink:href="#DejaVuSans-66" transform="translate(91.259766 0)"/>
      <use xlink:href="#DejaVuSans-66" transform="translate(126.464844 0)"/>
      <use xlink:href="#DejaVuSans-65" transform="translate(161.669922 0)"/>
      <use xlink:href="#DejaVuSans-72" transform="translate(223.193359 0)"/>
      <use xlink:href="#DejaVuSans-65" transform="translate(262.056641 0)"/>
      <use xlink:href="#DejaVuSans-6e" transform="translate(323.580078 0)"/>
      <use xlink:href="#DejaVuSans-63" transform="translate(386.958984 0)"/>
      <use xlink:href="#DejaVuSans-65" transform="translate(441.939453 0)"/>
      <use xlink:href="#DejaVuSans-20" transform="translate(503.462891 0)"/>
      <use xlink:href="#DejaVuSans-74" transform="translate(535.25 0)"/>
      <use xlink:href="#DejaVuSans-6f" transform="translate(574.458984 0)"/>
      <use xlink:href="#DejaVuSans-20" transform="translate(635.640625 0)"/>
      <use xlink:href="#DejaVuSans-41" transform="translate(667.427734 0)"/>
      <use xlink:href="#DejaVuSans-52" transform="translate(735.835938 0)"/>
      <use xlink:href="#DejaVuSans-54" transform="translate(798.068359 0)"/>
      <use xlink:href="#DejaVuSans-53" transform="translate(859.152344 0)"/>
     </g>
    </g>
    <g id="line2d_38">
     <path d="M 264.955938 287.287812 
L 274.955938 287.287812 
L 284.955938 287.287812 
" style="fill: none; stroke: #ff7f0e; stroke-width: 0.7; stroke-linecap: square"/>
    </g>
    <g id="text_23">
     <!-- difference to Planck -->
     <g transform="translate(292.955938 290.787812) scale(0.1 -0.1)">
      <defs>
       <path id="DejaVuSans-50" d="M 1259 4147 
L 1259 2394 
L 2053 2394 
Q 2494 2394 2734 2622 
Q 2975 2850 2975 3272 
Q 2975 3691 2734 3919 
Q 2494 4147 2053 4147 
L 1259 4147 
z
M 628 4666 
L 2053 4666 
Q 2838 4666 3239 4311 
Q 3641 3956 3641 3272 
Q 3641 2581 3239 2228 
Q 2838 1875 2053 1875 
L 1259 1875 
L 1259 0 
L 628 0 
L 628 4666 
z
" transform="scale(0.015625)"/>
       <path id="DejaVuSans-6b" d="M 581 4863 
L 1159 4863 
L 1159 1991 
L 2875 3500 
L 3609 3500 
L 1753 1863 
L 3688 0 
L 2938 0 
L 1159 1709 
L 1159 0 
L 581 0 
L 581 4863 
z
" transform="scale(0.015625)"/>
      </defs>
      <use xlink:href="#DejaVuSans-64"/>
      <use xlink:href="#DejaVuSans-69" transform="translate(63.476562 0)"/>
      <use xlink:href="#DejaVuSans-66" transform="translate(91.259766 0)"/>
      <use xlink:href="#DejaVuSans-66" transform="translate(126.464844 0)"/>
      <use xlink:href="#DejaVuSans-65" transform="translate(161.669922 0)"/>
      <use xlink:href="#DejaVuSans-72" transform="translate(223.193359 0)"/>
      <use xlink:href="#DejaVuSans-65" transform="translate(262.056641 0)"/>
      <use xlink:href="#DejaVuSans-6e" transform="translate(323.580078 0)"/>
      <use xlink:href="#DejaVuSans-63" transform="translate(386.958984 0)"/>
      <use xlink:href="#DejaVuSans-65" transform="translate(441.939453 0)"/>
      <use xlink:href="#DejaVuSans-20" transform="translate(503.462891 0)"/>
      <use xlink:href="#DejaVuSans-74" transform="translate(535.25 0)"/>
      <use xlink:href="#DejaVuSans-6f" transform="translate(574.458984 0)"/>
      <use xlink:href="#DejaVuSans-20" transform="translate(635.640625 0)"/>
      <use xlink:href="#DejaVuSans-50" transform="translate(667.427734 0)"/>
      <use xlink:href="#DejaVuSans-6c" transform="translate(727.730469 0)"/>
      <use xlink:href="#DejaVuSans-61" transform="translate(755.513672 0)"/>
      <use xlink:href="#DejaVuSans-6e" transform="translate(816.792969 0)"/>
      <use xlink:href="#DejaVuSans-63" transform="translate(880.171875 0)"/>
      <use xlink:href="#DejaVuSans-6b" transform="translate(935.152344 0)"/>
     </g>
    </g>
   </g>
  </g>
 </g>
 <defs>
  <clipPath id="pc505a050bf">
   <rect x="44.142188" y="35.7555" width="357.12" height="266.112"/>
  </clipPath>
 </defs>
</svg>
